<?xml version="1.0" encoding="UTF-8" standalone="no"?>
<svg
   xmlns:dc="http://purl.org/dc/elements/1.1/"
   xmlns:cc="http://creativecommons.org/ns#"
   xmlns:rdf="http://www.w3.org/1999/02/22-rdf-syntax-ns#"
   xmlns:svg="http://www.w3.org/2000/svg"
   xmlns="http://www.w3.org/2000/svg"
   xmlns:xlink="http://www.w3.org/1999/xlink"
   xmlns:sodipodi="http://sodipodi.sourceforge.net/DTD/sodipodi-0.dtd"
   xmlns:inkscape="http://www.inkscape.org/namespaces/inkscape"
   viewBox="0 0 338.25153 339.70786"
   version="1.1"
   id="svg57"
   sodipodi:docname="nematode-dies.svg"
   width="338.25153"
   height="339.70786"
   inkscape:version="1.0 (6e3e5246a0, 2020-05-07)">
  <metadata
     id="metadata61">
    <rdf:RDF>
      <cc:Work
         rdf:about="">
        <dc:format>image/svg+xml</dc:format>
        <dc:type
           rdf:resource="http://purl.org/dc/dcmitype/StillImage" />
        <dc:title></dc:title>
      </cc:Work>
    </rdf:RDF>
  </metadata>
  <sodipodi:namedview
     inkscape:document-rotation="0"
     pagecolor="#ffffff"
     bordercolor="#666666"
     borderopacity="1"
     objecttolerance="10"
     gridtolerance="10"
     guidetolerance="10"
     inkscape:pageopacity="0"
     inkscape:pageshadow="2"
     inkscape:window-width="1853"
     inkscape:window-height="1025"
     id="namedview59"
     showgrid="false"
     inkscape:zoom="0.37191276"
     inkscape:cx="-632.7325"
     inkscape:cy="-250.92094"
     inkscape:window-x="67"
     inkscape:window-y="27"
     inkscape:window-maximized="1"
     inkscape:current-layer="svg57" />
  <defs
     id="defs21">
    <linearGradient
       id="b">
      <stop
         offset="0"
         id="stop2" />
      <stop
         stop-opacity="0"
         offset="1"
         id="stop4" />
    </linearGradient>
    <linearGradient
       id="e"
       x1="315.07999"
       x2="99.194"
       y1="798.51001"
       y2="808.54999"
       gradientUnits="userSpaceOnUse"
       gradientTransform="matrix(0.34686,0,0,0.34686,24.236902,-102.68242)">
      <stop
         stop-opacity=".1355"
         offset="0"
         id="stop7" />
      <stop
         stop-opacity=".4813"
         offset=".5241"
         id="stop9" />
      <stop
         stop-opacity="0"
         offset="1"
         id="stop11" />
    </linearGradient>
    <radialGradient
       id="a"
       cx="24.209999"
       cy="317.09"
       r="38.078999"
       gradientTransform="matrix(-0.72871,1.4461,-0.96847,-0.36022,348.95,398.86)"
       gradientUnits="userSpaceOnUse">
      <stop
         stop-color="#424546"
         offset="0"
         id="stop14" />
      <stop
         stop-color="#fff"
         offset="1"
         id="stop16" />
    </radialGradient>
    <radialGradient
       id="d"
       cx="-53.950001"
       cy="781.71997"
       r="58.004002"
       gradientTransform="matrix(0.54952198,0.27555895,-0.25502497,0.5085697,228.37449,-225.01504)"
       gradientUnits="userSpaceOnUse"
       xlink:href="#b" />
    <radialGradient
       id="c"
       cx="-43.667"
       cy="826.47998"
       r="58.004002"
       gradientTransform="matrix(-0.57290589,0.14908032,0.15182708,0.51527528,179.82426,-218.72925)"
       gradientUnits="userSpaceOnUse"
       xlink:href="#b" />
    <radialGradient
       inkscape:collect="always"
       xlink:href="#a"
       id="radialGradient63"
       gradientUnits="userSpaceOnUse"
       gradientTransform="matrix(0.54358242,-0.04614494,-0.02335813,-0.31580293,281.27746,252.96336)"
       cx="24.209999"
       cy="317.09"
       r="38.078999" />
    <radialGradient
       inkscape:collect="always"
       xlink:href="#a"
       id="radialGradient65"
       gradientUnits="userSpaceOnUse"
       gradientTransform="matrix(0.54358242,-0.04614494,-0.02335813,-0.31580293,269.52238,278.73505)"
       cx="24.209999"
       cy="317.09"
       r="38.078999" />
  </defs>
  <path
     id="path25"
     fill-rule="evenodd"
     fill="#d40000"
     d="m 232.56795,132.54763 c 2.55601,-0.0309 5.15746,0.0423 7.78285,0.21678 2.62538,0.17446 5.27574,0.45495 7.95627,0.83462 2.68054,0.37967 5.38604,0.85681 8.10786,1.44162 2.72181,0.5848 5.46651,1.2805 8.21641,2.07034 2.74991,0.78983 5.50675,1.68265 8.27053,2.67734 2.76379,0.99469 5.52826,2.0849 8.29204,3.28435 2.76378,1.19944 5.53068,2.49815 8.28128,3.90217 2.7506,1.40402 5.48212,2.91154 8.20532,4.51993 1.38959,0.90455 2.71446,1.85414 3.96739,2.82906 1.25292,0.97492 2.43752,1.98106 3.56606,3.00249 1.12855,1.02144 2.20218,2.05598 3.21928,3.10006 1.0171,1.04409 1.97582,2.10059 2.89413,3.14342 1.83659,2.08571 3.49045,4.14359 5.00797,6.08081 1.51751,1.93721 2.89565,3.74574 4.19492,5.34372 0.73545,0.90461 1.35217,1.82622 1.85355,2.7532 0.50139,0.92699 0.89632,1.86389 1.18148,2.79656 0.28515,0.93267 0.46586,1.86406 0.55282,2.7857 0.087,0.92164 0.0717,1.8376 -0.0217,2.73153 -0.0934,0.89392 -0.26451,1.76274 -0.52029,2.61227 -0.25577,0.84953 -0.59698,1.67211 -0.99722,2.46055 -0.40024,0.78845 -0.86063,1.54398 -1.38744,2.25459 -0.52681,0.71061 -1.12056,1.37832 -1.75598,1.99445 -0.63541,0.61613 -1.31168,1.18598 -2.0378,1.69094 -0.72612,0.50496 -1.49906,0.94533 -2.29795,1.3224 -0.79889,0.37708 -1.62847,0.68887 -2.4822,0.92133 -0.85372,0.23247 -1.73246,0.38405 -2.62313,0.45526 -0.89066,0.0712 -1.78931,0.0634 -2.69898,-0.0434 -0.90968,-0.10678 -1.8316,-0.30557 -2.74235,-0.60701 -0.91075,-0.30144 -1.81591,-0.71203 -2.70984,-1.22483 -0.89393,-0.5128 -1.77481,-1.13437 -2.63399,-1.87519 -1.71827,-1.48172 -3.74539,-3.07721 -6.02669,-4.72597 -2.2813,-1.64877 -4.81095,-3.35122 -7.5442,-5.04022 -1.3666,-0.84454 -2.79039,-1.68391 -4.24904,-2.51474 -1.45865,-0.83083 -2.96152,-1.64838 -4.49843,-2.4497 -1.5369,-0.80131 -3.10321,-1.58539 -4.70411,-2.3413 -1.6009,-0.75591 -3.23714,-1.48404 -4.88865,-2.1787 -1.6515,-0.69466 -3.31993,-1.35515 -5.00796,-1.97277 -1.68803,-0.61761 -3.395,-1.19878 -5.10543,-1.72347 -1.71044,-0.5247 -3.4189,-0.9932 -5.13769,-1.40912 -1.7188,-0.41592 -3.44588,-0.77097 -5.15955,-1.06226 -1.71366,-0.29129 -3.42174,-0.52119 -5.11618,-0.67204 -1.69445,-0.15085 -3.36819,-0.22225 -5.02947,-0.21679 -1.66129,0.005 -3.30683,0.0934 -4.92125,0.27098 -1.61443,0.17761 -3.2052,0.43653 -4.75857,0.80212 -4.54942,1.07082 -9.56502,2.27169 -14.68744,3.65278 -2.56115,0.6906 -5.15122,1.43114 -7.71764,2.22206 -2.56642,0.79091 -5.10751,1.62992 -7.58756,2.53641 -3.19597,1.16812 -6.33089,2.42781 -9.43043,3.76135 -3.09954,1.33354 -6.16682,2.74536 -9.2133,4.21643 -3.04647,1.47107 -6.07768,3.00388 -9.11582,4.58514 -3.03815,1.58127 -6.08566,3.20332 -9.15919,4.86679 -4.32465,1.64093 -8.78388,3.53902 -13.39747,5.46305 -2.30686,0.96195 -4.64827,1.93086 -7.03466,2.88327 -2.3864,0.95241 -4.81303,1.88557 -7.28406,2.77488 -2.47103,0.88932 -4.98369,1.73122 -7.54421,2.50392 -2.56052,0.7727 -5.17133,1.47859 -7.82585,2.08116 -1.32733,0.30127 -2.66958,0.57509 -4.0215,0.82379 -1.35192,0.2487 -2.70953,0.47176 -4.08636,0.66118 -1.37682,0.18942 -2.77054,0.34261 -4.17307,0.46611 -1.40253,0.1235 -2.82008,0.20931 -4.24903,0.26015 -2.076858,0.0739 -4.111678,0.0944 -6.146018,0.0325 -2.03433,-0.0619 -4.05895,-0.20042 -6.12416,-0.42275 -2.0652,-0.22234 -4.17134,-0.53563 -6.34094,-0.94305 -2.16961,-0.40742 -4.40513,-0.9112 -6.75302,-1.52833 -2.3479,-0.61713 -4.80367,-1.34887 -7.40338,-2.20041 -2.59972,-0.85154 -5.34546,-1.82691 -8.27053,-2.93749 -2.925072,-1.11058 -6.030856,-2.35615 -9.354469,-3.75025 -3.323613,-1.3941 -6.869909,-2.93662 -10.665945,-4.63925 -1.972177,-1.00118 -3.866448,-2.0163 -5.690585,-3.04585 -1.824137,-1.02955 -3.576474,-2.07214 -5.246258,-3.12174 -1.669764,-1.0496 -3.260533,-2.10391 -4.769305,-3.1651 -1.508771,-1.06118 -2.929718,-2.1224 -4.27054,-3.18677 -1.340822,-1.06438 -2.605474,-2.12764 -3.772102,-3.18678 -1.166629,-1.05913 -2.244532,-2.11959 -3.230134,-3.1651 -0.985602,-1.0455 -1.879391,-2.07661 -2.6773424,-3.10006 -0.797952,-1.02344 -1.499233,-2.04203 -2.102839,-3.03502 -0.464203,-0.76365 -0.855322,-1.51547 -1.192331,-2.25459 -0.337009,-0.73913 -0.613873,-1.46451 -0.834615,-2.1787 -0.220741,-0.71418 -0.393929,-1.41397 -0.509468,-2.10284 -0.115539,-0.68886 -0.173825,-1.36382 -0.195108,-2.02698 -0.02128,-0.66316 0.0031,-1.31404 0.06504,-1.95109 0.06198,-0.63704 0.158407,-1.26468 0.292663,-1.87519 0.134256,-0.61051 0.303069,-1.20485 0.498611,-1.78848 0.195542,-0.58363 0.415365,-1.15626 0.661185,-1.71262 0.210159,-0.47562 0.459138,-0.91849 0.737077,-1.34408 0.277939,-0.4256 0.592749,-0.82574 0.932186,-1.20319 0.339438,-0.37745 0.700172,-0.73115 1.09476,-1.06226 0.394588,-0.33111 0.8139074,-0.64558 1.2573674,-0.93219 0.886921,-0.57318 1.871344,-1.05716 2.915774,-1.46333 1.04443,-0.40617 2.154486,-0.73267 3.305992,-0.9864 1.151506,-0.25373 2.347202,-0.43687 3.555315,-0.55283 1.208113,-0.11595 2.427847,-0.1698 3.64203,-0.16259 1.214183,0.007 2.41803,0.0794 3.58792,0.19511 1.169889,0.11574 2.307,0.27816 3.381885,0.48776 2.49094,1.00107 4.94657,2.12174 7.381528,3.31685 2.434957,1.1951 4.842859,2.46253 7.240702,3.7721 4.795686,2.61914 9.537263,5.38916 14.297216,7.98853 2.37991,1.29982 4.76586,2.56399 7.16474,3.7395 2.39889,1.17551 4.81442,2.26919 7.25146,3.24099 1.21859,0.48588 2.44293,0.93489 3.67463,1.3549 1.2317,0.42002 2.47089,0.80475 3.71799,1.14898 1.24711,0.34422 2.50735,0.65206 3.77211,0.91051 1.26475,0.25844 2.53062,0.46593 3.81546,0.62868 1.61352,0.14979 3.24265,0.21412 4.87754,0.19511 1.63489,-0.019 3.28248,-0.12219 4.93201,-0.29267 1.649518,-0.17047 3.296898,-0.41078 4.953498,-0.71539 1.65661,-0.30462 3.31852,-0.67336 4.97536,-1.09476 1.65685,-0.4214 3.31474,-0.88824 4.96426,-1.40912 1.64953,-0.52088 3.29642,-1.08789 4.93201,-1.69094 1.63558,-0.60306 3.25274,-1.25075 4.86679,-1.91856 1.61404,-0.66781 3.21622,-1.35501 4.80193,-2.07033 3.17127,-1.43066 6.28579,-2.93843 9.30001,-4.45507 3.01421,-1.51665 5.93616,-3.04533 8.73671,-4.50918 2.80055,-1.46386 5.48143,-2.86819 8.01038,-4.14082 2.52896,-1.27263 4.8994,-2.41775 7.09988,-3.36021 4.40096,-1.88487 9.1304,-3.86679 14.15605,-5.8099 2.51297,-0.97162 5.10092,-1.93007 7.76099,-2.8616 2.66007,-0.93152 5.39333,-1.83311 8.19457,-2.68816 2.80124,-0.85504 5.67047,-1.66427 8.60629,-2.40634 2.93582,-0.74207 5.932,-1.42344 8.99686,-2.01612 3.06485,-0.59268 6.19942,-1.09983 9.38672,-1.50669 1.59375,-0.20343 3.20023,-0.381 4.82344,-0.53112 1.6232,-0.15012 3.25819,-0.27625 4.91015,-0.36854 1.34064,-0.0749 2.69073,-0.12441 4.0541,-0.14091 z"
     style="stroke-width:0.34686" />
  <path
     id="path27"
     fill-rule="evenodd"
     d="m 230.96199,131.32321 c -27.04745,0.29866 -51.13757,8.58756 -69.60093,17.33225 -32.8192,15.54626 -48.31759,27.51814 -74.890538,24.78973 -16.10193,-1.6533 -47.315171,-22.82408 -51.203472,-24.78973 -3.888301,-1.96566 -26.4841474,-3.78425 -31.7376894,9.36522 -4.656595,11.65519 3.009357,24.13833 31.7376894,40.26697 31.257982,15.50603 45.733492,19.32739 62.837162,18.65448 23.532368,-0.92594 45.452528,-11.18242 63.260318,-18.65448 24.63782,-14.74952 56.48615,-27.87193 83.18744,-25.28262 25.35269,2.45865 43.90207,17.02909 53.63843,25.28262 9.73636,8.25354 38.77548,-0.69493 25.10399,-24.6163 -4.58445,-8.02218 -13.66178,-16.7797 -25.10399,-25.01728 -23.3638,-12.95938 -46.18788,-17.5643 -67.22494,-17.33225 z m 1.66927,1.18148 c 20.44809,-0.24742 43.32628,6.07941 65.11255,18.94722 11.11687,7.2362 17.65275,17.10748 22.84941,23.49977 11.76722,14.47412 -7.57681,32.88024 -21.32322,21.0263 -13.74641,-11.85394 -47.29089,-31.08177 -72.14341,-25.23198 -9.09918,2.14169 -20.07834,4.78251 -29.99888,8.40858 -12.78388,4.67255 -24.61909,10.77833 -36.91285,17.43249 -17.29825,6.56363 -36.75328,17.10401 -59.61829,17.9174 -16.614938,0.59108 -30.689478,-2.76815 -61.057766,-16.38914 -15.77762,-8.00934 -26.930557,-17.06239 -31.7591944,-25.00652 -3.71383,-6.10925 -3.180741,-11.43979 -1.21401,-15.89035 3.36253,-7.60976 15.8060624,-8.70306 24.4054154,-7.026 19.927454,8.00865 37.762647,23.49942 58.321037,26.1033 25.816098,2.39666 54.845508,-17.92226 72.452118,-25.46161 17.60661,-7.53934 40.40225,-16.71206 66.83645,-18.18864 1.34065,-0.0749 2.69074,-0.12442 4.0541,-0.14091 z"
     style="stroke-width:0.34686" />
  <path
     style="fill:url(#e);stroke-width:0.34686"
     id="path29"
     fill="url(#e)"
     d="m 36.697847,151.54168 c 7.010041,4.11376 41.092505,24.73355 57.866655,24.4845 16.508448,-0.24506 57.571818,-21.74118 76.905798,-30.35441 -7.67844,12.03153 -58.45979,34.92186 -76.982108,36.07344 -22.30136,1.38619 -59.03904,-26.54659 -57.790344,-30.20214 z" />
  <path
     style="fill:url(#radialGradient63)"
     id="path31"
     stroke-width="1.05249"
     stroke="#004800"
     fill-rule="evenodd"
     fill="url(#a)"
     d="m 290.07439,161.08283 c 5.98007,2.04049 12.48915,-1.15729 14.53826,-7.1429 2.04911,-5.98562 -1.13756,-12.49175 -7.11796,-14.53236 -5.9804,-2.0406 -12.48915,1.1573 -14.53826,7.14291 -2.04912,5.98561 1.13756,12.49174 7.11796,14.53235 z" />
  <path
     id="path33"
     fill-rule="evenodd"
     fill="#ffffff"
     d="m 292.30374,141.86077 c -2.90254,1.80505 -3.87013,5.48891 -2.16115,8.228 1.70899,2.73908 5.44739,3.49636 8.35001,1.69126 2.90263,-1.8051 3.87013,-5.48891 2.16115,-8.228 -1.70899,-2.73909 -5.44739,-3.49636 -8.35001,-1.69126 z"
     style="stroke-width:0.459062" />
  <path
     id="path35"
     fill-rule="evenodd"
     fill="#083400"
     d="m 292.70673,142.3386 c -2.59169,1.61174 -3.45566,4.9011 -1.92971,7.34687 1.52595,2.44576 4.86398,3.12195 7.45575,1.51016 2.59177,-1.61179 3.45567,-4.9011 1.92972,-7.34687 -1.52595,-2.44577 -4.86399,-3.12195 -7.45576,-1.51016 z"
     style="stroke-width:0.4099" />
  <path
     id="path37"
     stroke-width="0.767226"
     stroke-linejoin="round"
     stroke-linecap="round"
     stroke="#000000"
     fill-rule="evenodd"
     fill="#ffffff"
     d="m 294.78316,141.89914 c -0.90627,0.56359 -1.20876,1.71321 -0.67563,2.5677 0.53314,0.85449 1.70003,1.09034 2.60632,0.52674 0.9063,-0.56361 1.20877,-1.71321 0.67563,-2.5677 -0.53313,-0.85449 -1.70002,-1.09034 -2.60632,-0.52674 z" />
  <path
     style="fill:url(#d);stroke-width:0.323069"
     id="path39"
     fill-rule="evenodd"
     fill="url(#d)"
     d="m 39.156852,165.81234 c 0,10.36254 -8.096758,18.76305 -18.084807,18.76305 -9.988049,0 -18.0848074,-8.40051 -18.0848074,-18.76305 0,-10.36254 8.0967584,-18.76305 18.0848074,-18.76305 9.988049,0 18.084807,8.40051 18.084807,18.76305 z" />
  <path
     style="fill:url(#c);stroke-width:0.313187"
     id="path41"
     fill-rule="evenodd"
     fill="url(#c)"
     d="m 289.63013,183.66932 c 0,9.73829 8.09676,17.63274 18.0848,17.63274 9.98805,0 18.08481,-7.89445 18.08481,-17.63274 0,-9.73829 -8.09676,-17.63274 -18.08481,-17.63274 -9.98804,0 -18.0848,7.89445 -18.0848,17.63274 z" />
  <path
     style="fill:url(#radialGradient65)"
     id="path43"
     stroke-width="1.05249"
     stroke="#004800"
     fill-rule="evenodd"
     fill="url(#a)"
     d="m 278.31931,186.85453 c 5.98007,2.04049 12.48915,-1.15729 14.53826,-7.14291 2.04911,-5.98561 -1.13756,-12.49174 -7.11796,-14.53235 -5.9804,-2.0406 -12.48915,1.15729 -14.53826,7.14291 -2.04912,5.98561 1.13756,12.49174 7.11796,14.53235 z" />
  <path
     id="path45"
     fill-rule="evenodd"
     fill="#ffffff"
     d="m 280.54518,167.629 c -2.90254,1.80505 -3.87013,5.48891 -2.16115,8.228 1.70899,2.73908 5.44739,3.49636 8.35001,1.69126 2.90263,-1.8051 3.87013,-5.48891 2.16115,-8.228 -1.70899,-2.73909 -5.44739,-3.49636 -8.35001,-1.69126 z"
     style="stroke-width:0.459062" />
  <path
     id="path47"
     fill-rule="evenodd"
     fill="#083400"
     d="m 280.94817,168.11029 c -2.59169,1.61175 -3.45566,4.90111 -1.92971,7.34687 1.52595,2.44577 4.86398,3.12196 7.45575,1.51017 2.59177,-1.61179 3.45567,-4.9011 1.92972,-7.34687 -1.52595,-2.44577 -4.86399,-3.12196 -7.45576,-1.51017 z"
     style="stroke-width:0.4099" />
  <path
     id="path49"
     stroke-width="0.767226"
     stroke-linejoin="round"
     stroke-linecap="round"
     stroke="#000000"
     fill-rule="evenodd"
     fill="#ffffff"
     d="m 283.02807,167.67084 c -0.90627,0.56359 -1.20876,1.71321 -0.67563,2.5677 0.53314,0.85449 1.70003,1.09034 2.60632,0.52673 0.9063,-0.5636 1.20877,-1.7132 0.67563,-2.56769 -0.53313,-0.85449 -1.70002,-1.09034 -2.60632,-0.52674 z" />
  <g
     transform="matrix(0.33824863,0,0,0.33824863,234.66976,48.549422)"
     id="g877">
    <path
       inkscape:connector-curvature="0"
       style="fill:none;stroke:#ff0000;stroke-width:105.677"
       d="m 253.386,358.62526 a 447.16579,447.16327 0 1 1 -894.32119,0 447.16579,447.16327 0 1 1 894.32119,0 z"
       id="path2-3" />
    <path
       inkscape:connector-curvature="0"
       style="fill:none;stroke:#ff0000;stroke-width:100"
       d="M -526.93151,25.466408 139.40112,691.79905"
       id="path4-6" />
  </g>
</svg>
