<?xml version="1.0" encoding="UTF-8" standalone="no"?>
<svg
   xmlns:dc="http://purl.org/dc/elements/1.1/"
   xmlns:cc="http://creativecommons.org/ns#"
   xmlns:rdf="http://www.w3.org/1999/02/22-rdf-syntax-ns#"
   xmlns:svg="http://www.w3.org/2000/svg"
   xmlns="http://www.w3.org/2000/svg"
   xmlns:sodipodi="http://sodipodi.sourceforge.net/DTD/sodipodi-0.dtd"
   xmlns:inkscape="http://www.inkscape.org/namespaces/inkscape"
   height="77.787956"
   width="77.454483"
   data-name="Слой 1"
   viewBox="0 0 77.454483 77.787957"
   x="0px"
   y="0px"
   version="1.1"
   id="svg78"
   sodipodi:docname="tardigrade-dies.svg"
   inkscape:version="1.0 (6e3e5246a0, 2020-05-07)">
  <metadata
     id="metadata82">
    <rdf:RDF>
      <cc:Work
         rdf:about="">
        <dc:format>image/svg+xml</dc:format>
        <dc:type
           rdf:resource="http://purl.org/dc/dcmitype/StillImage" />
        <dc:title>tardigrada</dc:title>
      </cc:Work>
    </rdf:RDF>
  </metadata>
  <sodipodi:namedview
     inkscape:document-rotation="0"
     pagecolor="#ffffff"
     bordercolor="#666666"
     borderopacity="1"
     objecttolerance="10"
     gridtolerance="10"
     guidetolerance="10"
     inkscape:pageopacity="0"
     inkscape:pageshadow="2"
     inkscape:window-width="1853"
     inkscape:window-height="1025"
     id="namedview80"
     showgrid="false"
     inkscape:zoom="4.9611616"
     inkscape:cx="65.852922"
     inkscape:cy="56.842046"
     inkscape:window-x="67"
     inkscape:window-y="27"
     inkscape:window-maximized="1"
     inkscape:current-layer="svg78" />
  <defs
     id="defs4">
    <style
       id="style2">.cls-1{fill:none;}.cls-1,.cls-2{stroke:#000;stroke-miterlimit:10;}.cls-2{fill:#020202;}</style>
  </defs>
  <title
     id="title6">tardigrada</title>
  <path
     class="cls-1"
     d="m 8.5284253,33.835149 c 4.8499997,-3.26 7.3699997,-7.72 10.1399997,-9.15 1.82,-0.94 7.77,-0.3 9.81,-0.18 2.04,0.12 6.26,-0.75 8,0.27 2.48,1.47 5.22,6.37 6.22,9.06"
     id="path8" />
  <path
     class="cls-1"
     d="m 47.078425,59.485149 c -2.37,-0.11 -1.7,1.54 -1.86,4.75 -0.05,1.14 -2.33,4 -4.45,2.18 -0.94,-0.81 -1.82,-2.36 -3.32,-3.48 a 37.18,37.18 0 0 0 -6.23,-3.29 c -3.27,-1.38 -6,-1.08 -10.65,0 -1,0.23 -4.71,1.49 -6,2.57 -1.61,1.36 -1,2.48 -1.83,3.54 -1.7,2.27 -4.8299997,1 -5.6799997,-0.14 -1.64,-2.2 0.87,-9 1,-11.78 0.1,-2.25 -0.59,-5.39 -1,-9 -0.41,-3.61 1.12,-10.74 2.16,-14.12 0.78,-2.53 2.3399997,-6.85 3.9999997,-8.93 2.46,-3.13 7.08,-5.43 10,-8.16 2.11,-2 7,-3.19 9.45,-3.33 a 94.28,94.28 0 0 1 16,0.85 c 5.89,1 7.51,1.78 11.49,6.24 3.34,3.75 8.65,5.67 10.5,15 0.18,0.89 0.19,6.91 0.71,7.66 3.54,5.2 3.23,12.93 2.62,15.87 -0.34,1.73 -2.52,2.65 -3.19,1.19 -1.56,-3.41 -2.33,-5.32 -3.83,-0.71 -0.28,0.86 0.71,0.37 -1.3,4.64 -0.7,1.5 -3.56,1.23 -3.67,0.89 -2.27,-7.24 -3.41,-3.12 -3.55,-6 -0.06,-1.29 -0.67,3.69 -1.7,6.38 0,0 -2.27,3 -4.68,0.66 -0.92,-0.82 -2.98,-3.39 -4.99,-3.48 z"
     id="path10"
     style="fill:#94cc94;fill-opacity:1" />
  <ellipse
     class="cls-1"
     cx="23.178425"
     cy="44.015148"
     rx="9.8000002"
     ry="10.24"
     id="ellipse12"
     style="stroke:#000000" />
  <ellipse
     class="cls-1"
     cx="23.178425"
     cy="47.855148"
     rx="3.8199999"
     ry="3.29"
     id="ellipse14" />
  <path
     class="cls-1"
     d="m 20.378425,45.245149 0.89,-3.47 a 2.69,2.69 0 0 1 1.86,-0.87 3.64,3.64 0 0 1 2,0.91 l 0.86,3.47 a 12.86,12.86 0 0 0 -3,-0.59 13.92,13.92 0 0 0 -2.61,0.55 z"
     id="path16" />
  <circle
     class="cls-2"
     cx="23.178425"
     cy="48.385147"
     r="1.4299999"
     id="circle18" />
  <path
     class="cls-1"
     d="m 13.748425,45.135149 c -2.26,-1.65 -2.21,-5.89 -1.93,-8 0.23,-1.69 1.51,-4.67 3,-5.58 1.14,-0.72 6.91,-4.59 11.05,-3.61 3.26,0.78 3.81,1.4 6.51,3 a 7,7 0 0 1 2.63,2.56 c 1.15,2 1.55,6.44 1.31,8 a 5.54,5.54 0 0 1 -3.94,4.72"
     id="path20"
     style="fill:#94cc94;fill-opacity:1" />
  <path
     class="cls-1"
     d="m 12.368425,52.015149 a 22.17,22.17 0 0 0 8.69,4.72 c 7.84,2 11.26,-7 15.5,-6.91"
     id="path22" />
  <path
     class="cls-1"
     d="m 45.238425,61.025149 c -0.27,-1.79 0.11,-5.62 -1.4,-8.6 -0.66,-1.3 3.69,-7.19 0.85,-10.84"
     id="path24" />
  <path
     class="cls-1"
     d="m 52.488425,21.245149 c 2.55,0.85 8.62,-0.39 10.92,19.58 0.43,3.65 6.47,4.42 3.55,16.42"
     id="path26" />
  <path
     class="cls-1"
     d="m 51.778425,32.985149 c 1.14,0.93 3.58,3.12 4.54,9.79 0.43,3 3.83,5 2.13,13.19"
     id="path28" />
  <path
     class="cls-1"
     d="m 11.078425,26.175149 c 2,-2.64 7.08,-5 9.18,-7.45 1.54,-1.82 9.41,-0.3 11.88,-0.18 2.47,0.12 7.58,-0.75 9.7,0.27 3,1.44 6.32,6.37 7.53,9.06"
     id="path30" />
  <path
     class="cls-1"
     d="m 24.878425,12.585149 c 1.85,-0.59 7.91,-0.19 10,-0.11 2.09,0.08 6.38,-0.48 8.16,0.17 2.53,0.91 5.31,4 6.34,5.73"
     id="path32" />
  <path
     d="m 54.018425,63.885149 a 1.74,1.74 0 0 0 -1.33,0 c -0.62,1 0.33,4.91 0.33,4.91 0,0 -0.79,-3.85 1,-4.91 z"
     id="path34" />
  <path
     d="m 55.268425,63.885149 a 1.74,1.74 0 0 0 -1.33,0 c -0.62,1 0.33,4.91 0.33,4.91 0,0 -0.79,-3.85 1,-4.91 z"
     id="path36" />
  <path
     d="m 55.648425,63.245149 c 0.06,-0.07 -1.24,0 -1.27,0.3 -0.1,1.1 2.7,4.5 2.7,4.5 0,0 -2.63,-3.39 -1.43,-4.8 z"
     id="path38" />
  <path
     d="m 56.838425,62.985149 c 0.06,-0.07 -1.24,0 -1.27,0.3 -0.1,1.1 2.7,4.5 2.7,4.5 0,0 -2.67,-3.41 -1.43,-4.8 z"
     id="path40" />
  <path
     d="m 63.488425,62.125149 a 1.74,1.74 0 0 0 -1.33,-0.07 c -0.67,1 0.08,4.92 0.08,4.92 0,0 -0.64,-3.89 1.25,-4.85 z"
     id="path42" />
  <path
     d="m 64.728425,62.185149 a 1.74,1.74 0 0 0 -1.33,-0.07 c -0.67,1 0.08,4.92 0.08,4.92 0,0 -0.59,-3.89 1.25,-4.85 z"
     id="path44" />
  <path
     d="m 65.148425,61.585149 c 0.06,-0.07 -1.24,-0.07 -1.28,0.24 -0.15,1.09 2.46,4.64 2.46,4.64 0,0 -2.45,-3.56 -1.18,-4.88 z"
     id="path46" />
  <path
     d="m 66.348425,61.355149 c 0.06,-0.07 -1.24,-0.07 -1.28,0.24 -0.15,1.09 2.46,4.65 2.46,4.65 0,0 -2.45,-3.56 -1.18,-4.89 z"
     id="path48" />
  <path
     d="m 71.598425,57.735149 a 1.38,1.38 0 0 0 -1.06,0 c -0.49,0.82 0.26,3.9 0.26,3.9 0,0 -0.64,-3.06 0.8,-3.9 z"
     id="path50" />
  <path
     d="m 72.598425,57.735149 a 1.38,1.38 0 0 0 -1.06,0 c -0.49,0.82 0.26,3.9 0.26,3.9 0,0 -0.65,-3.06 0.8,-3.9 z"
     id="path52" />
  <path
     d="m 72.878425,57.245149 a 1.33,1.33 0 0 0 -1,0.24 c -0.08,0.87 2.14,3.58 2.14,3.58 0,0 -2.09,-2.72 -1.14,-3.82 z"
     id="path54" />
  <path
     d="m 73.818425,57.015149 a 1.33,1.33 0 0 0 -1,0.24 c -0.08,0.87 2.14,3.58 2.14,3.58 0,0 -2.09,-2.71 -1.14,-3.82 z"
     id="path56" />
  <path
     d="m 42.028425,67.345149 a 1.74,1.74 0 0 0 -1.33,0.05 c -0.58,1.05 0.52,4.9 0.52,4.9 0,0 -0.94,-3.83 0.81,-4.95 z"
     id="path58" />
  <path
     d="m 43.268425,67.305149 a 1.74,1.74 0 0 0 -1.33,0.05 c -0.58,1.05 0.52,4.9 0.52,4.9 0,0 -0.93,-3.83 0.81,-4.95 z"
     id="path60" />
  <path
     d="m 43.598425,66.665149 c 0.06,-0.07 -1.24,0 -1.26,0.35 -0.05,1.1 2.87,4.4 2.87,4.4 0,0 -2.72,-3.32 -1.61,-4.75 z"
     id="path62" />
  <path
     d="m 44.808425,66.335149 c 0.06,-0.07 -1.24,0 -1.26,0.35 -0.05,1.1 2.87,4.4 2.87,4.4 0,0 -2.75,-3.32 -1.61,-4.75 z"
     id="path64" />
  <path
     d="m 9.7384253,67.245149 a 1.34,1.34 0 0 1 1.1599997,0 c 0.54,1.08 -0.3,5 -0.3,5 0,0 0.7,-3.9 -0.8599997,-5 z"
     id="path66" />
  <path
     d="m 8.6484253,67.245149 a 1.34,1.34 0 0 1 1.16,0 c 0.5399997,1 -0.29,4.91 -0.29,4.91 0,0 0.6899997,-3.81 -0.87,-4.91 z"
     id="path68" />
  <path
     d="m 8.3184253,66.675149 a 1.31,1.31 0 0 1 1.11,0.3 c 0.08,1.1 -2.35,4.5 -2.35,4.5 0,0 2.28,-3.42 1.24,-4.8 z"
     id="path70" />
  <path
     d="m 7.2784253,66.385149 a 1.31,1.31 0 0 1 1.11,0.3 c 0.08,1.1 -2.35,4.5 -2.35,4.5 0,0 2.28,-3.41 1.24,-4.8 z"
     id="path72" />
  <path
     class="cls-1"
     d="m 29.778425,38.515149 c 0,0 -3.31,1.73 -3.89,3.33 -0.72,2 2.86,6.65 2.86,9"
     id="path74" />
  <path
     class="cls-1"
     d="m 16.448425,38.515149 c 0,0 3.31,1.73 3.9,3.34 0.72,2 -2.86,6.65 -2.86,9"
     id="path76" />
  <g
     transform="matrix(0.07745382,0,0,0.07745382,53.735825,11.117083)"
     id="g877">
    <path
       inkscape:connector-curvature="0"
       style="fill:none;stroke:#ff0000;stroke-width:105.677"
       d="m 253.386,358.62526 a 447.16579,447.16327 0 1 1 -894.32119,0 447.16579,447.16327 0 1 1 894.32119,0 z"
       id="path2-3" />
    <path
       inkscape:connector-curvature="0"
       style="fill:none;stroke:#ff0000;stroke-width:100"
       d="M -526.93151,25.466408 139.40112,691.79905"
       id="path4-6" />
  </g>
</svg>
