<svg width="472" height="530" xmlns="http://www.w3.org/2000/svg" xmlns:undefined="http://www.inkscape.org/namespaces/inkscape" xmlns:xlink="http://www.w3.org/1999/xlink">
 <defs>
  <filter color-interpolation-filters="sRGB" id="imagebot_4">
   <feGaussianBlur  stdDeviation="1.27847" id="imagebot_21"/>
  </filter>
  <filter color-interpolation-filters="sRGB" id="imagebot_7">
   <feGaussianBlur  stdDeviation="3.6179" id="imagebot_20"/>
  </filter>
  <radialGradient r="223.57" gradientTransform="matrix(-.14458 .79080 -.99831 -.18252 685.73 -71.706)" cx="436.01" cy="232.66" gradientUnits="userSpaceOnUse" id="imagebot_12">
   <stop stop-color="#9fc1d2" offset="0" id="imagebot_19"/>
   <stop stop-color="#ffffff" offset="1" id="imagebot_18"/>
  </radialGradient>
  <filter color-interpolation-filters="sRGB" id="imagebot_10">
   <feGaussianBlur  stdDeviation="3.86166" id="imagebot_17"/>
  </filter>
  <filter color-interpolation-filters="sRGB" id="imagebot_14">
   <feGaussianBlur  stdDeviation="2.28946" id="imagebot_16"/>
  </filter>
  <linearGradient id="imagebot_33">
   <stop stop-color="rgb(0, 0, 0)" id="imagebot_45" offset="0"/>
   <stop stop-color="rgb(0, 0, 0)" id="imagebot_44" offset="1"/>
  </linearGradient>
  <radialGradient gradientTransform="matrix(1 0 0 1 75.5275 18.0396)" gradientUnits="userSpaceOnUse" r="38.55332" fy="345.81219" fx="225.49467" cy="345.81219" cx="225.49467" id="imagebot_28" xlink:href="#imagebot_33"/>
 </defs>
 <g label="Ebene 1" id="imagebot_2">
  <g transform="translate(6.045 11.429) matrix(1 0 0 1 -128.41 -183.36)" label="Ebene 1" opacity="0.77333" stroke-linejoin="round" filter="url(#imagebot_14)" stroke="#50adcb" stroke-linecap="round" stroke-width="11" fill="none" id="imagebot_13">
   <path stroke-linejoin="round" stroke="#50adcb" stroke-linecap="round" stroke-width="11" fill="none" d="M551.54,482.64C542.5366,492.1212 524.715,504.194 525.276,524.056C531.6451,556.352 557.141,590.603 536.388,612.949C525.613,626.714 511.808,622.961 499.012,659.416C494.4565,682.503 507.7669,686.892 511.134,696.792M476.794,463.432C461.977,475.439 440.376,479.534 440.429,508.889C462.242,539.356 465.355,553.857 461.642,563.437C447.354,600.301 456.2673,577.097 433.358,613.945C420.82,634.111 451.59,647.224 441.4392,679.605M405.0732,445.245C396.9361,460.033 378.6082,469.725 384.8702,491.712C408.4632,531.455 401.8862,547.698 400.0222,555.352C396.3042,570.618 361.1142,592.7 357.5962,617.981C352.1858,656.858 366.9579,656.974 380.8302,676.57M341.4302,432.12C325.7642,441.8782 304.7742,448.201 307.0852,467.475C308.5357,479.575 329.5772,509.599 319.2072,546.267C304.8242,597.126 278.8712,598.881 272.7402,610.917C260.2932,637.088 272.7472,644.583 280.8214,655.364M277.7909,422.014C244.1649,459.6 234.8429,494.475 251.5269,512.928C273.0229,554.33 215.3209,547.06 219.2019,575.557C233.3539,595.197 231.5009,614.869 218.1917,624.044L203.0397,641.217M196.9788,412.927C175.1938,428.603 186.6768,447.997 190.9179,488.688C192.9723,508.399 133.9239,528.364 155.5629,585.663C161.2061,600.606 139.2969,600.479 139.4009,609.907" id="imagebot_15"/>
  </g>
  <path transform="translate(6.045 11.429) matrix(1 0 0 1 -128.41 -183.36)" label="Ebene 1" stroke-linejoin="round" stroke="#154e73" stroke-linecap="round" stroke-width="7.3" fill="url(#imagebot_12)" d="M141.42,398.79C147.3001,386.487 162.328,380.302 175.765,375.556C193.156,341.25 211.065,309.466 236.374,272.516C279.063,212.147 336.454,175.581 408.104,195.744C457.04,208.961 510.124,235.344 525.284,274.536C552.497,320.024 532.1424,352.706 540.436,390.706C542.003,417.377 552.241,424.531 563.67,438.183C584.788,463.409 583.154,477.895 575.792,481.62C555.465,491.902 535.603,476.4715 519.223,466.468C504.662,479.905 486.634,470.8089 466.695,449.295C445.819,471.1 424.942,454.783 404.066,434.143C383.149,447.257 361.975,456.008 338.406,424.041C299.389,442.543 288.113,424.76201 281.837,416.9699C264.817,425.8822 239.389,433.0729 205.065,407.8785C168.542,414.0338 126.015,423.7915 141.425,398.7871L141.42,398.79z" id="imagebot_11"/>
  <path transform="translate(6.045 11.429) matrix(1 0 0 1 -128.41 -183.36)" label="Ebene 1" opacity="0.33667" stroke-linejoin="round" filter="url(#imagebot_10)" stroke="#154e73" stroke-linecap="round" stroke-width="8.1" fill="none" d="M283.85,412.94C318.93,384.42 336.56,210.19 388.91,210.91L388.91,209.8998M398.0014,211.9201C448.3064,258.0101 425.3744,473.0501 448.5094,457.3901M394.9694,209.8901C373.9224,190.7911 360.8184,379.5101 338.4004,422.0201M393.9584,208.8801C377.8304,268.9011 392.1947,409.4801 364.6644,440.2001M395.9744,209.8901C427.0214,266.4171 381.4214,394.7801 406.0764,433.1301M399.0064,208.8801C504.2164,289.9601 443.5154,412.9901 467.6964,444.2501M399.0064,211.9201C565.0664,295.0801 451.8364,408.8601 515.1764,462.4301M400.0164,206.8601C590.7864,251.4841 462.0634,372.3501 566.6964,478.5901M392.9464,207.8701C353.7314,201.2949 338.4044,406.9801 297.9924,427.0701M395.9774,207.8701C322.6774,191.0801 287.2674,426.6101 238.3974,421.0201M388.9074,206.8601C282.9974,206.3201 264.4774,416.7501 203.0374,406.8701M376.7874,204.8401C174.9474,232.8201 293.1274,372.9601 142.4274,406.8701" id="imagebot_9"/>
  <g label="Ebene 1" stroke-linejoin="round" filter="url(#imagebot_7)" stroke="#154e73" stroke-linecap="round" fill="#9fc1d2" transform="translate(6.045 11.429) matrix(1.109 0.10957 -0.1059 0.99418 -138.4 -224.357)" id="imagebot_6">
   <path stroke-linejoin="round" stroke="#154e73" stroke-linecap="round" stroke-width="7.5314" fill="#9fc1d2" d="M302.2,224.6C308.8825,233.6473 352.242,222.6643 378.054,218.6721C383.893,209.6265 384.2498,203.0441 372.5573,201.8761C342.4283,191.1221 303.9073,218.0061 302.2003,224.6001L302.2,224.6zM401.827,211.571C401.39109,216.4999 401.087,221.1909 407.4552,225.488C424.5962,232.6137 468.0322,245.311 464.4832,229.1663C442.8362,211.9583 403.0572,197.6643 401.8272,211.5703zM408.8531,248.475C397.9581,251.2795 401.5342,274.022 411.2376,286.795C439.9796,298.848 469.0236,304.446 494.6946,297.603C496.8898,263.677 465.4376,233.908 408.8526,248.474zM343.9411,234.867C312.5171,235.83187 279.6601,262.859 282.4251,272.003C273.7749,294.837 352.1711,294.656 368.8101,292.526C372.924,277.898 380.5681,243.292 343.9421,234.867z" id="imagebot_8"/>
  </g>
  <g label="Ebene 1" stroke-linejoin="round" filter="url(#imagebot_4)" stroke="#154e73" stroke-linecap="round" stroke-width="5.5" fill="none" transform="translate(6.045 11.429) matrix(1 0 0 1 -131.441 -182.35)" id="imagebot_3">
   <path stroke-linejoin="round" stroke="#154e73" stroke-linecap="round" stroke-width="5.5" fill="none" d="M508.11,471.52C499.2785,473.1633 489.689,478.8581 493.968,498.794C497.5698,515.575 508.757,527.007 498.0086,542.231C490.9373,552.246 484.0236,567.075 486.8966,573.546C495.9542,593.943 483.3525,610.585 475.7846,629.104M434.3746,457.374C422.3786,467.742 412.6246,482.053 420.2326,495.76C426.6477,507.318 440.4756,515.655 433.3646,527.075C427.511,536.4764 412.6886,541.229 419.2226,555.359C431.4796,581.865 424.1864,594.191 411.1414,599.806M363.6514,447.276C356.6527,452.6698 345.1334,459.867 351.5294,474.55C355.113,482.7764 359.8266,483.8892 367.6914,497.784C373.6277,508.271 367.7857,524.928 358.6,532.129C332.118,552.888 343.747,574.551 336.377,595.769M304.057,435.159C272.989,458.093 276.125,468.644 281.834,478.596C293.247,498.492 289.7533,514.015 281.834,519.002C269.34,526.8692 255.197,559.999 263.651,575.571M236.381,426.071C238.2985,428.6509 241.674,450.837 233.3505,462.437C225.4493,473.448 208.4685,478.711 205.0665,496.782C202.4155,510.862 214.1415,520.965 215.1685,531.127C217.2212,551.447 202.1995,563.35 192.9455,566.482" id="imagebot_5"/>
  </g>
  <title>Ebene 1</title>

  <metadata id="imagebot_32">image/svg+xmllogoabril 2011M Mlogolentesglassesverdeblancogrisnegrologo de un website</metadata>
  <path transform="matrix(0.720093 0.138444 -0.138444 0.720093 87.7487 -68.3005)" label="Capa 1" fill="rgb(255, 255, 255)" stroke="rgb(0, 0, 0)" stroke-width="5.7" stroke-miterlimit="4" stroke-opacity="0.61497" id="imagebot_29" d="M 240.90349964904783 363.85179037231444 C 240.90349964904783 383.57020037231445 224.91857964904784 399.55512037231443 205.20016964904787 399.55512037231443 C 185.48176964904786 399.55512037231443 169.49684964904785 383.57020037231445 169.49684964904785 363.85179037231444 C 169.49684964904785 344.13339037231447 185.48176964904786 328.1484703723145 205.20016964904787 328.1484703723145 C 224.91857964904784 328.1484703723145 240.90349964904783 344.13339037231447 240.90349964904783 363.85179037231444 z"/>
  <path transform="matrix(0.720093 0.138444 -0.138444 0.720093 87.7487 -68.3005)" label="Capa 1" fill="rgb(255, 255, 255)" stroke="url(#imagebot_28)" stroke-width="5.7" stroke-miterlimit="4" stroke-opacity="0.61497" d="M 336.7254963378906 363.85179037231444 C 336.7254963378906 383.57020037231445 320.7405763378906 399.55512037231443 301.02216633789067 399.55512037231443 C 281.30376633789064 399.55512037231443 265.3188463378906 383.57020037231445 265.3188463378906 363.85179037231444 C 265.3188463378906 344.13339037231447 281.30376633789064 328.1484703723145 301.02216633789067 328.1484703723145 C 320.7405763378906 328.1484703723145 336.7254963378906 344.13339037231447 336.7254963378906 363.85179037231444 z" id="imagebot_27"/>
  <path label="Capa 1" opacity="0.83857" fill="rgb(0, 0, 0)" transform="matrix(0.730527 0.14045 -0.14045 0.730527 63.5154 -28.9887)" d="M244.28591,306.53854C244.28591,313.28431 238.48085,318.75284 231.31996,318.75284C224.15907,318.75284 218.35402,313.28431 218.35402,306.53854C218.35402,299.79277 224.15907,294.32425 231.31996,294.32425C238.48085,294.32425 244.28591,299.79277 244.28591,306.53854z" id="imagebot_26"/>
  <path label="Capa 1" opacity="0.83857" fill="rgb(0, 0, 0)" id="imagebot_25" d="M244.28591,306.53854C244.28591,313.28431 238.48085,318.75284 231.31996,318.75284C224.15907,318.75284 218.35402,313.28431 218.35402,306.53854C218.35402,299.79277 224.15907,294.32425 231.31996,294.32425C238.48085,294.32425 244.28591,299.79277 244.28591,306.53854z" transform="matrix(0.730527 0.14045 -0.14045 0.730527 132.787 -15.6707)"/>
 </g>
 <metadata>image/svg+xmlOpenclipartJellyfish2011-05-07T11:55:50Jellyfish, can be used as a dot, for example.https://openclipart.org/detail/137089/jellyfish-by-moiniMoinianimalcartoonjelliesjellyjellyfishmarinemedusaoceanseasea jelly</metadata>
</svg>