<?xml version="1.0" encoding="UTF-8" standalone="no"?>
<svg
   xmlns:dc="http://purl.org/dc/elements/1.1/"
   xmlns:cc="http://creativecommons.org/ns#"
   xmlns:rdf="http://www.w3.org/1999/02/22-rdf-syntax-ns#"
   xmlns:svg="http://www.w3.org/2000/svg"
   xmlns="http://www.w3.org/2000/svg"
   xmlns:sodipodi="http://sodipodi.sourceforge.net/DTD/sodipodi-0.dtd"
   xmlns:inkscape="http://www.inkscape.org/namespaces/inkscape"
   viewBox="0 0 1024 977"
   version="1.1"
   id="svg66"
   sodipodi:docname="amoeba.svg"
   inkscape:version="0.92.4 (f8dce91, 2019-08-02)">
  <metadata
     id="metadata72">
    <rdf:RDF>
      <cc:Work
         rdf:about="">
        <dc:format>image/svg+xml</dc:format>
        <dc:type
           rdf:resource="http://purl.org/dc/dcmitype/StillImage" />
      </cc:Work>
    </rdf:RDF>
  </metadata>
  <defs
     id="defs70" />
  <sodipodi:namedview
     pagecolor="#ffffff"
     bordercolor="#666666"
     borderopacity="1"
     objecttolerance="10"
     gridtolerance="10"
     guidetolerance="10"
     inkscape:pageopacity="0"
     inkscape:pageshadow="2"
     inkscape:window-width="1296"
     inkscape:window-height="704"
     id="namedview68"
     showgrid="false"
     inkscape:zoom="0.51519319"
     inkscape:cx="512"
     inkscape:cy="488.5"
     inkscape:window-x="70"
     inkscape:window-y="27"
     inkscape:window-maximized="1"
     inkscape:current-layer="svg66" />
  <path
     style="fill:#00fefd;fill-rule:evenodd;stroke:#00fefd;stroke-width:0.5"
     inkscape:connector-curvature="0"
     id="path12"
     d="m 154.8,120.5 0.2,-0.5 2,0.5 q 2,0.5 2,2.5 v 2 l 1,-0.2 1,-0.3 0.2,-0.3 0.3,-0.2 0.3,0.2 0.2,0.3 0.5,0.3 0.5,0.2 -2.2,8.5 q -2.3,8.5 -1.8,17 0.5,8.5 5.2,18.7 4.8,10.3 13.3,22.8 8.5,12.5 21,24 12.5,11.5 19.3,17.2 6.7,5.8 7,6 l 0.2,0.3 1,0.5 q 1,0.5 1.5,0.8 l 0.5,0.2 v 0.2 q 0,0.3 0.5,0.6 l 0.5,0.2 v 0.2 q 0,0.3 0.5,0.6 l 0.5,0.2 7.2,9.5 q 7.3,9.5 8.8,13.5 1.5,4 1,12 -0.5,8 -5.5,20 -5,12 -13.3,22.2 -8.2,10.3 -20.2,19.3 -12,9 -30,17.5 -18,8.5 -36,15 -18,6.5 -19,6.8 l -1,0.2 h -0.2 q -0.3,0 -0.6,0.5 l -0.2,0.5 -20.5,7.2 q -20.5,7.3 -36.3,15.6 -15.7,8.2 -24.7,15.7 -9,7.5 -15.5,17 -6.5,9.5 -9.5,18.5 -3,9 -3,20.5 0,11.5 3.7,20.7 3.8,9.3 9.3,14.3 5.5,5 10.5,7 5,2 16.5,1.5 11.5,-0.5 22.7,-6.8 11.3,-6.2 30,-22 18.8,-15.7 18.8,-16 V 473 l 1,-0.2 1,-0.3 0.2,-0.3 0.3,-0.2 0.3,-0.2 0.2,-0.3 11,-5.5 q 11,-5.5 19.5,-6.5 8.5,-1 16.7,0.7 8.3,1.8 13.8,13.8 5.5,12 5,19 -0.5,7 -7.5,22 -7,15 -6.5,22.5 0.5,7.5 5.5,16.5 5,9 12.5,19 7.5,10 10,17.5 2.5,7.5 6,21.5 3.5,14 3,20 -0.5,6 -15.8,18.2 -15.2,12.3 -15.7,12.6 L 183,663 h -0.5 l -16.7,14.8 q -16.8,14.7 -28,27 -11.3,12.2 -19.3,25.7 -8,13.5 -13,28.5 -5,15 -4.5,25 0.5,10 2.8,13.2 2.2,3.3 7.2,5.3 5,2 15,1.5 10,-0.5 23,-5 13,-4.5 23.2,-10.8 10.3,-6.2 21.3,-17.2 11,-11 21.3,-24.2 10.2,-13.3 13.7,-16.3 3.5,-3 4.5,-3.5 l 1,-0.5 0.2,-0.3 0.3,-0.2 0.3,-0.2 0.2,-0.3 0.2,-0.3 0.3,-0.2 h 0.5 l 5.5,-2.2 q 5.5,-2.3 15.5,-0.8 10,1.5 12.5,2.5 2.5,1 3.5,1.3 l 1,0.2 v 0.5 l 1,0.5 1,0.5 1,0.5 1,0.5 1,0.5 1,0.5 0.2,0.3 0.3,0.2 0.3,0.2 0.2,0.3 4.8,4.7 q 4.7,4.8 7.2,11.8 2.5,7 2.8,18 l 0.2,11 -6.8,31 q -6.7,31 -6.7,47 0,16 2.7,22.8 2.8,6.7 6.8,11.7 4,5 10,8.5 6,3.5 14.5,3.5 8.5,0 14.3,-3.7 5.7,-3.8 10.7,-12.3 5,-8.5 9,-36 4,-27.5 7,-34.5 3,-7 3.5,-8 l 0.5,-1 0.3,-0.2 0.2,-0.3 0.2,-0.3 0.3,-0.2 0.3,-1 0.2,-1 0.5,-0.2 q 0.5,-0.3 0.5,-0.6 V 801 l 0.5,-0.2 q 0.5,-0.3 0.5,-0.6 V 800 l 0.5,-0.2 q 0.5,-0.3 0.5,-0.6 V 799 l 2,-1.8 q 2,-1.7 23.5,8.3 21.5,10 32,12.5 10.5,2.5 22,2 11.5,-0.5 22.5,-4.5 11,-4 15.5,-7 4.5,-3 5.5,-3.5 l 1,-0.5 h 2 l 0.2,0.3 0.3,0.2 6,13 q 6,13 13.3,21.8 7.2,8.7 13.2,13.7 6,5 14.5,9 8.5,4 13.5,5 5,1 15.5,0.5 10.5,-0.5 18,-3.5 7.5,-3 15.3,-12.7 7.7,-9.8 12.7,-17.3 5,-7.5 5.3,-7.7 l 0.2,-0.3 0.2,-0.3 0.3,-0.2 0.5,-1 0.5,-1 0.3,-0.2 0.2,-0.3 0.2,-0.3 0.3,-0.2 0.3,-0.2 0.2,-0.3 0.2,-0.3 0.3,-0.2 0.5,-1 0.5,-1 0.3,-0.2 0.2,-0.3 0.2,-0.3 0.3,-0.2 v 2 l -0.5,2.5 -0.5,2.5 -0.5,1 -0.5,1 -6,21.5 q -6,21.5 -7,30 -1,8.5 -0.5,30.5 0.5,22 4,32.5 3.5,10.5 8.2,15.3 4.8,4.7 7.8,5.7 3,1 12,0.5 9,-0.5 14.5,-4 5.5,-3.5 11.3,-9.2 5.7,-5.8 9.7,-13.8 4,-8 5.5,-15.5 1.5,-7.5 1,-19.5 -0.5,-12 -4.5,-21.5 -4,-9.5 -15,-27.5 -11,-18 -10.5,-22.5 0.5,-4.5 5.2,-7.3 4.8,-2.7 29.8,-8.2 25,-5.5 30.2,-10.8 5.3,-5.2 12.8,-20.2 7.5,-15 17.8,-41.5 10.2,-26.5 23.2,-27.3 13,-0.7 15,-0.2 2,0.5 3,0.8 l 1,0.2 h 0.5 l 0.3,0.2 0.2,0.3 1,0.5 q 1,0.5 2.5,1 1.5,0.5 7.3,6.2 5.7,5.8 19.7,33.3 14,27.5 20.3,34.7 6.2,7.3 16.2,11.8 10,4.5 23.5,5 13.5,0.5 18.5,-1 5,-1.5 11.2,-5.8 6.3,-4.2 9.8,-9.7 3.5,-5.5 4,-15.5 0.5,-10 -3,-19.5 Q 920.5,748 913.2,739.8 906,731.5 892.5,721 879,710.5 868.2,701.2 857.5,692 852,684 q -5.5,-8 -8.2,-17 l -2.8,-9 v -3.5 q 0,-3.5 4,-5.3 4,-1.7 20.5,-12.2 16.5,-10.5 27.5,-21.5 11,-11 15.8,-19.7 4.7,-8.8 5.2,-22.3 0.5,-13.5 -0.2,-18.5 l -0.8,-5 h 0.5 l 0.3,0.2 0.2,0.3 2.5,0.5 2.5,0.5 0.2,0.3 0.3,0.2 0.5,-1 0.5,-1 0.5,1 0.5,1 0.5,-1.5 0.5,-1.5 h 0.5 v 0.5 l 0.2,0.3 0.3,0.2 0.5,3 q 0.5,3 1,15 0.5,12 -2,21 -2.5,9 -8,17.5 -5.5,8.5 -17.5,19.5 -12,11 -27.7,20.8 -15.8,9.7 -16.6,12 -0.7,2.2 1.8,9.2 2.5,7 9,14.5 6.5,7.5 17.8,16.3 11.2,8.7 23.4,19 12.3,10.2 18,17.4 5.8,7.3 9.6,16.6 3.7,9.2 4.2,21.2 0.5,12 -2.5,19.5 -3,7.5 -8.5,13 -5.5,5.5 -14.2,9.3 -8.8,3.7 -23.8,4.2 -15,0.5 -24.5,-2.5 -9.5,-3 -16,-7 -6.5,-4 -11.7,-10.3 Q 830.5,793 821,774 811.5,755 805,744 798.5,733 794.2,729.8 790,726.5 779,726 q -11,-0.5 -23.8,30.8 -12.7,31.2 -19.7,42.7 -7,11.5 -12.7,15.7 -5.8,4.3 -30.8,9.8 l -25,5.5 -1,0.5 -1,0.5 -0.2,0.3 -0.3,0.2 v 2 l 0.5,1 0.5,1 11,17 q 11,17 14.5,27.5 3.5,10.5 3,28 -0.5,17.5 -4,26.5 -3.5,9 -9.5,17 -6,8 -13.7,13.8 -7.8,5.7 -16.8,8.2 -9,2.5 -9,2.8 v 0.2 h -2 v -0.5 l -3,-0.5 -3,-0.5 -2,-0.5 q -2,-0.5 -8.5,-4 -6.5,-3.5 -11.3,-9.8 -4.7,-6.2 -8.2,-18.7 -3.5,-12.5 -4,-30.5 -0.5,-18 0.5,-28.5 l 1,-10.5 0.3,-1.5 0.2,-1.5 -1,0.2 -1,0.3 -0.2,0.3 -0.3,0.2 -0.3,0.2 -0.2,0.3 -1,0.5 -1,0.5 -0.2,0.3 q -0.3,0.2 -7,2.4 -6.8,2.3 -20.8,2.8 -14,0.5 -25,-3 -11,-3.5 -20,-10 -9,-6.5 -16,-14.5 -7,-8 -13.5,-19 -6.5,-11 -9.3,-10.3 -2.7,0.8 -15.4,5 -12.8,4.3 -26.3,4.3 -13.5,0 -21.5,-2 -8,-2 -24,-9 -16,-7 -20.5,-8.5 l -4.5,-1.5 -0.2,0.3 -0.3,0.2 -0.3,0.2 -0.2,0.3 -0.2,0.3 q -0.3,0.2 -2.8,5.2 -2.5,5 -6,30.5 -3.5,25.5 -7,34.5 -3.5,9 -9.2,15.8 -5.8,6.7 -11.8,10.2 -6,3.5 -16,4 -10,0.5 -17.5,-3 -7.5,-3.5 -13.7,-9.8 -6.3,-6.2 -10.3,-15.2 -4,-9 -4.5,-26 -0.5,-17 5,-42.5 5.5,-25.5 7,-40 1.5,-14.5 -0.5,-21.5 -2,-7 -5.7,-10.8 -3.8,-3.7 -11.3,-6.7 -7.5,-3 -14.5,-3 -7,0 -13.5,4.5 -6.5,4.5 -16.3,17.2 -9.7,12.8 -21.7,24.8 -12,12 -24.3,19.2 -12.2,7.3 -26.7,11.8 -14.5,4.5 -25.5,4.5 -11,0 -18.5,-3.3 -7.5,-3.2 -9,-5.4 -1.5,-2.3 -4.3,-9.6 -2.7,-7.2 -1.7,-19.2 1,-12 7,-27.5 6,-15.5 15.5,-30 9.5,-14.5 22.2,-27.7 12.8,-13.3 40.6,-36 27.7,-22.8 28.2,-26.8 0.5,-4 -3,-18 -3.5,-14 -5,-18 -1.5,-4 -10,-15.5 -8.5,-11.5 -13,-20.5 -4.5,-9 -5,-19.5 -0.5,-10.5 6,-24 6.5,-13.5 7,-20.5 0.5,-7 -3.2,-14.8 -3.8,-7.7 -14.8,-7.7 -11,0 -19,3.5 -8,3.5 -22.8,15.2 Q 106.5,501 93.8,510.8 81,520.5 71.5,524.5 62,528.5 52,529 42,529.5 32.5,526 23,522.5 16.2,515.8 9.5,509 5.5,499 L 1.5,489 1,485.5 0.5,482 H 0 V 467 H 0.5 L 1,463 1.5,459 2,457 q 0.5,-2 1,-3.5 0.5,-1.5 5.5,-12 5,-10.5 11.7,-18.3 6.8,-7.7 15,-14.4 8.3,-6.8 21.6,-14 13.2,-7.3 62.7,-25.8 49.5,-18.5 65,-27 15.5,-8.5 22.5,-14.5 7,-6 13.2,-13.7 6.3,-7.8 11.3,-18.8 5,-11 5.5,-17 0.5,-6 -3.5,-13 -4,-7 -14.3,-16.2 Q 209,239.5 194,226 179,212.5 168.8,197.2 158.5,182 154,171.5 q -4.5,-10.5 -5,-21 -0.5,-10.5 2.2,-20 L 154,121 h 0.2 q 0.3,0 0.6,-0.5 z m 2.4,3.3 q -0.2,-0.3 0,-0.6 0.3,-0.2 0.3,0.3 v 0.5 z m 763.6,431 -0.3,0.2 -0.3,0.2 -0.2,0.3 -0.2,0.3 -0.3,0.2 -0.3,-1 q -0.2,-1 0.8,-0.8 1,0.3 0.8,0.6 z" />
  <path
     style="fill:#332019;fill-rule:evenodd;stroke:#332019;stroke-width:0.5"
     inkscape:connector-curvature="0"
     id="path14"
     d="m 580.8,613.2 0.2,0.3 1,0.3 1,0.2 v 0.2 q 0,0.3 1,0.8 1,0.5 8,6.5 7,6 11.2,13.7 4.3,7.8 4.8,15.8 0.5,8 -0.5,11.5 -1,3.5 -5,10.5 -4,7 -12.3,13.2 -8.2,6.3 -19.2,10.3 -11,4 -27,4.5 -16,0.5 -20.5,-0.5 -4.5,-1 -14.5,-5 -10,-4 -17.8,-10.7 -7.7,-6.8 -11.4,-14.3 l -3.8,-7.5 -0.8,-6.5 q -0.7,-6.5 2,-14.7 2.8,-8.3 7.8,-14.3 5,-6 14,-11.5 9,-5.5 20.5,-8.5 11.5,-3 25.5,-2.5 14,0.5 24.8,4.2 10.7,3.8 11,4 z" />
  <path
     style="fill:#003200;fill-rule:evenodd;stroke:#003200;stroke-width:0.5"
     inkscape:connector-curvature="0"
     id="path16"
     d="m 623,388.2 2,-0.2 0.2,1.5 q 0.3,1.5 0.8,3.5 0.5,2 0.5,15 0,13 -3.5,22.5 -3.5,9.5 -9,17 -5.5,7.5 -14.2,14.3 -8.8,6.7 -19.8,10.7 -11,4 -25.5,4 -14.5,0 -23.5,-3 -9,-3 -18,-8.5 -9,-5.5 -14.8,-12.2 -5.7,-6.8 -10.7,-17.8 -5,-11 -5.3,-26.5 L 482,393 l 12.5,-1.8 q 12.5,-1.7 18,-2 l 5.5,-0.2 2.5,3.8 q 2.5,3.7 6.5,5.7 4,2 8.5,1.5 4.5,-0.5 7.7,-2.8 3.3,-2.2 4.3,-4.2 1,-2 1.3,-3 l 0.2,-1 36,-0.2 q 36,-0.3 38,-0.6 z" />
  <path
     style="fill:#16b042;fill-rule:evenodd;stroke:#16b042;stroke-width:0.5"
     inkscape:connector-curvature="0"
     id="path18"
     d="m 742.2,153.8 0.3,0.2 v 1 q 0,1 -0.5,1.5 l -0.5,0.5 -0.3,1 -0.2,1 -7.8,9.5 q -7.7,9.5 -11.7,18 -4,8.5 -3.5,15 0.5,6.5 7.2,13.3 6.8,6.7 12.8,9.2 6,2.5 10.5,1.5 4.5,-1 20.5,-1 16,0 24.5,3 8.5,3 18,12 9.5,9 23.7,16.7 14.3,7.8 21.3,15.8 7,8 14.5,22 7.5,14 10,25 2.5,11 4.8,29.8 2.2,18.7 -3.3,21.7 -5.5,3 -6.5,3.5 l -1,0.5 -1,0.5 -1,0.5 -0.2,0.3 -0.3,0.2 -0.3,0.2 -0.2,0.3 -0.2,0.3 -0.3,0.2 H 871 l -0.5,0.2 q -0.5,0.3 -0.7,42 -0.3,41.8 -4.3,66.3 -4,24.5 -12,49.5 -8,25 -19.5,48 -11.5,23 -25.5,43.5 -14,20.5 -28.5,36.5 -14.5,16 -30.5,30 -16,14 -34.3,26.8 -18.2,12.7 -40.2,24.2 -22,11.5 -47,20.5 -25,9 -51,14.5 -26,5.5 -50.5,7.5 -24.5,2 -48.5,1 -24,-1 -48,-5 -24,-4 -47.5,-11 -23.5,-7 -47,-17.5 -23.5,-10.5 -31.5,-13.5 -8,-3 -12,-6 -4,-3 -6.8,-4.3 l -2.7,-1.2 -0.3,-0.2 -0.2,-0.3 -0.2,-0.3 -0.3,-0.2 -0.3,-0.2 -0.2,-0.3 -0.2,-0.3 -0.3,-0.2 -0.3,-0.2 -0.2,-0.3 -3,-0.3 -3,-0.2 -1,-0.2 q -1,-0.3 -3.5,-1.3 -2.5,-1 -12.5,-2.5 -10,-1.5 -15.5,0.8 L 236,725 v -0.5 l -1.5,-0.5 q -1.5,-0.5 -7,-6 -5.5,-5.5 -21.5,-21.5 -16,-16 -18.5,-19.7 -2.5,-3.8 -4.7,-5.3 -2.3,-1.5 -1,-5 l 1.2,-3.5 0.5,-0.2 q 0.5,-0.3 15.7,-12.6 15.3,-12.2 15.8,-18.2 0.5,-6 -3,-20 -3.5,-14 -6,-21.5 -2.5,-7.5 -10,-17.5 -7.5,-10 -12.5,-19 -5,-9 -5.5,-16.5 -0.5,-7.5 6.5,-22.5 7,-15 7.5,-22 0.5,-7 -5,-19 -5.5,-12 -13.8,-13.8 -8.2,-1.7 -16.7,-0.7 -8.5,1 -19.5,6.5 l -11,5.5 -0.2,0.3 -0.3,0.2 -0.3,0.2 -0.2,0.3 -1,0.3 -1,0.2 -0.2,-0.5 -0.3,-0.5 -0.5,-1 -0.5,-1 -0.3,-0.2 -0.2,-0.3 0.2,-0.3 0.3,-0.2 0.3,-0.2 0.2,-0.3 -0.2,-0.3 -0.3,-0.2 -0.5,-1 q -0.5,-1 -1.5,-5 -1,-4 -1,-35 0,-31 1.3,-39 l 1.2,-8 0.5,-0.2 q 0.5,-0.3 0.5,-0.6 V 379 l 1,-0.2 q 1,-0.3 19,-6.8 18,-6.5 36,-15 18,-8.5 30,-17.5 12,-9 20.2,-19.3 8.3,-10.2 13.3,-22.2 5,-12 5.5,-20 0.5,-8 -1,-12 -1.5,-4 -8.8,-13.5 L 230,243 229.8,242.5 Q 229.5,242 229.2,242 H 229 l -0.2,-0.5 Q 228.5,241 228.2,241 H 228 l -0.2,-1 -0.3,-1 0.5,-1 q 0.5,-1 1.8,-3.2 1.2,-2.3 5.2,-7.3 4,-5 5,-5.3 1,-0.2 11.5,-11.4 10.5,-11.3 17,-16.8 6.5,-5.5 7.5,-5.8 1,-0.2 2,-1.4 1,-1.3 2.2,-1 1.3,0.2 1.6,-0.8 0.2,-1 1.2,-1 h 1 v 0.2 q 0,0.3 0.5,0.6 l 0.5,0.2 v 0.2 q 0,0.3 0.5,0.6 l 0.5,0.2 6,7.8 q 6,7.7 11.5,11.7 5.5,4 10.5,6 5,2 12.5,1.5 7.5,-0.5 10.3,-5.8 2.7,-5.2 3.2,-7.2 0.5,-2 0.8,-6.5 L 341,189 h 0.5 l 0.3,0.2 0.2,0.3 h 2 l 0.2,-0.3 0.3,-0.2 0.3,-0.2 0.2,-0.3 26.5,-11 q 26.5,-11 36,-15 9.5,-4 26.5,-6.5 17,-2.5 29.5,-4.5 12.5,-2 31.5,-2.5 19,-0.5 22.5,-0.8 L 521,148 v -1 q 0,-1 1,-0.8 l 1,0.3 1,0.5 1,0.5 0.2,0.3 0.3,0.2 0.3,-0.2 0.2,-0.3 0.2,-0.3 0.3,-0.2 v -1 l -0.3,-0.2 -0.2,-0.3 -0.2,-0.3 -0.3,-0.2 -0.3,-0.2 -0.2,-0.3 -0.2,-0.3 -0.3,-0.2 -0.3,-0.2 -0.2,-0.3 -1,-0.5 -1,-0.5 -0.2,-0.3 -0.3,-0.2 -0.3,-0.2 -0.2,-0.3 -0.2,-0.3 -0.3,-0.2 -0.3,-1 -0.2,-1 1,0.2 1,0.3 0.2,0.3 0.3,0.2 0.3,0.2 0.2,0.3 0.2,0.3 0.3,0.2 0.3,0.2 0.2,0.3 0.2,0.3 0.3,0.2 0.3,0.2 0.2,0.3 0.2,0.3 0.3,0.2 0.3,0.2 0.2,0.3 0.2,0.3 0.3,0.2 0.3,0.2 0.2,0.3 7.2,5.3 q 7.3,5.2 9,8 1.8,2.7 3.8,3.7 2,1 14,0.5 12,-0.5 21.2,-4.2 9.3,-3.8 16,-9.6 6.8,-5.7 11,-12 4.3,-6.2 10.8,-25.7 6.5,-19.5 6.8,-19.5 h 0.2 l 0.5,-1 q 0.5,-1 3.3,0 2.7,1 3.4,1.8 0.8,0.7 6.8,2.7 6,2 30,14 24,12 42.5,24.5 18.5,12.5 23.5,16.5 5,4 5.2,4.3 z m -113,-62 -0.2,-0.3 0.2,-0.3 q 0.3,-0.2 0.3,0.3 V 92 Z m 6.8,548.2 -0.5,10 -0.5,2 -0.5,2 H 634 v 0.2 q 0,0.3 0.2,0.6 0.3,0.2 -2.7,11.7 -3,11.5 -10.7,23.5 -7.8,12 -14.3,16.2 -6.5,4.3 -19.5,10.8 -13,6.5 -20.5,8 -7.5,1.5 -27.5,1.5 -20,0 -30.5,-2.5 -10.5,-2.5 -19.3,-7.8 l -8.7,-5.2 -0.3,-0.2 -0.2,-0.3 -0.2,-0.3 -0.3,-0.2 H 479 l -0.5,-0.2 -0.5,-0.3 -1,-0.5 -1,-0.5 -0.2,-0.3 -0.3,-0.2 -4.7,-2.2 q -4.8,-2.3 -11,-7 -6.3,-4.8 -15.3,-17.3 -9,-12.5 -12.7,-17.7 -3.8,-5.3 -8.8,-8.3 -5,-3 -23.2,-10.3 Q 381.5,638 365.5,628.5 349.5,619 336.2,608.2 323,597.5 311.8,585.8 300.5,574 290,558.5 q -10.5,-15.5 -18,-31 -7.5,-15.5 -13,-34 -5.5,-18.5 -7.5,-33 -2,-14.5 -1.5,-36 0.5,-21.5 4.5,-40.5 4,-19 11,-37 7,-18 17.5,-35 10.5,-17 22.5,-31 12,-14 24.3,-24.8 12.2,-10.7 29.7,-21.7 17.5,-11 37,-19 19.5,-8 37.5,-12.5 18,-4.5 31,-6 13,-1.5 35.5,-1 22.5,0.5 45,5 22.5,4.5 40.5,11.5 18,7 35,16.5 17,9.5 34,23.5 17,14 27.8,26.3 10.7,12.2 21.2,28.7 10.5,16.5 18.5,35.5 8,19 12,36.5 4,17.5 5,27 1,9.5 0.5,28.5 -0.5,19 -4.5,39 -4,20 -11,37.5 -7,17.5 -15.3,31.7 -8.2,14.3 -20,29 -11.7,14.8 -24.4,26.6 -12.8,11.7 -17.6,15.4 -4.7,3.8 -7.2,7.3 -2.5,3.5 -3,6 -0.5,2.5 -1,12.5 z" />
  <path
     style="fill:#00fefd;fill-rule:evenodd;stroke:#00fefd;stroke-width:0.5"
     inkscape:connector-curvature="0"
     id="path20"
     d="M 741,0.2 V 0 h 19 l 13,3.8 q 13,3.7 19.8,9 6.7,5.2 11.2,11.2 4.5,6 6.5,12 2,6 1.5,19.5 -0.5,13.5 -6,26 -5.5,12.5 -20,35 -14.5,22.5 -17.8,30.3 -3.2,7.7 -8.7,11.2 -5.5,3.5 -13.3,11.8 -7.7,8.2 -12.7,16.7 -5,8.5 -4.5,13.5 0.5,5 6.2,9.8 5.8,4.7 10.3,4.7 4.5,0 7,-1 2.5,-1 19,0 16.5,1 25.5,4 9,3 16.2,9.3 7.3,6.2 8.6,8.2 1.2,2 4.7,3.8 3.5,1.7 16.7,9.4 13.3,7.8 20.8,16.3 7.5,8.5 15,22 7.5,13.5 11,25 3.5,11.5 6,30 2.5,18.5 3,20 l 0.5,1.5 0.5,1 0.5,1 0.3,0.2 0.2,0.3 h 4 l 1,-0.5 1,-0.5 5,-3.5 q 5,-3.5 20,-18.5 15,-15 30,-22.5 15,-7.5 25.5,-7.5 10.5,0 17.5,5 7,5 11.2,12.3 4.3,7.2 5.8,14.2 1.5,7 1.8,7 h 0.2 v 15 h -0.2 q -0.3,0 -3.8,15.5 -3.5,15.5 -9,27 -5.5,11.5 -12.8,22 -7.2,10.5 -12.7,13.7 -5.5,3.3 -17,3.8 -11.5,0.5 -33,-6 -21.5,-6.5 -29,-7.8 l -7.5,-1.2 -1.8,7.5 q -1.7,7.5 -1.2,16.5 0.5,9 13.5,48.5 13,39.5 13.3,41.5 l 0.2,2 h -0.5 l -0.5,1.5 -0.5,1.5 -0.5,-1 -0.5,-1 v 5 l -0.3,0.2 -0.2,0.3 -0.2,0.3 -0.3,0.2 -0.5,-1 -0.5,-1 v -2 l 0.3,-0.2 0.2,-0.3 -2.5,-0.5 -2.5,-0.5 -0.2,-0.3 -0.3,-0.2 H 913 l -0.2,-0.5 q -0.3,-0.5 -0.8,-2.5 -0.5,-2 -13,-40 -12.5,-38 -13,-50 -0.5,-12 0.8,-18.5 1.2,-6.5 -1.3,-6.5 -2.5,0 -2.5,-1 v -1 l 3.8,-3 q 3.7,-3 4.2,-5 0.5,-2 1,-3.5 l 0.5,-1.5 0.3,-0.2 0.2,-0.3 0.2,-0.3 0.3,-0.2 0.3,0.2 0.2,0.3 2,1 q 2,1 3,1.3 l 1,0.2 v 0.5 l 0.2,0.3 q 0.3,0.2 28,9 27.8,8.7 36.8,9.2 9,0.5 12,-0.5 3,-1 6.2,-4.3 3.3,-3.2 10.8,-15.2 7.5,-12 12.5,-26.5 5,-14.5 5.5,-29.5 0.5,-15 -1,-20 -1.5,-5 -4.2,-8.8 -2.8,-3.7 -7.8,-7.2 -5,-3.5 -12,-3.5 -7,0 -21.5,7.5 -14.5,7.5 -20.7,13.8 -6.3,6.2 -16.6,16.4 Q 918,370.5 909,374 l -9,3.5 -4,0.3 -4,0.2 -8.5,0.2 -8.5,0.3 h -2 l -0.2,-0.3 -0.3,-0.2 -0.3,0.2 -0.2,0.3 -0.2,0.3 -0.3,0.2 -0.3,-1 -0.2,-1 h 0.5 l 0.3,-0.2 0.2,-0.3 0.2,-0.3 0.3,-0.2 0.3,-0.2 0.2,-0.3 1,-0.5 1,-0.5 1,-0.5 q 1,-0.5 6.5,-3.5 5.5,-3 3.3,-21.7 -2.3,-18.8 -4.8,-29.8 -2.5,-11 -10,-25 -7.5,-14 -14.5,-22 -7,-8 -21.3,-15.8 -14.2,-7.7 -23.7,-16.7 -9.5,-9 -18,-12 -8.5,-3 -24.5,-3 -16,0 -20.5,1 -4.5,1 -10.5,-1.5 -6,-2.5 -12.8,-9.2 -6.7,-6.8 -7.2,-13.3 -0.5,-6.5 3.5,-15 4,-8.5 11.7,-18 L 741,159 h 0.5 l 0.3,-0.2 0.2,-0.3 0.2,-0.3 0.3,-0.2 0.3,-0.2 0.2,-0.3 0.2,-0.3 0.3,-0.2 0.3,-0.2 0.2,-0.3 0.2,-0.3 q 0.3,-0.2 5.8,-4.7 5.5,-4.5 8.5,-10.5 3,-6 18,-29.5 15,-23.5 20,-34.5 5,-11 5.5,-21 0.5,-10 -2.5,-18 -3,-8 -7.7,-12.8 -4.8,-4.7 -13.8,-8.7 -9,-4 -21,-5 -12,-1 -24,1.5 -12,2.5 -26.5,8.5 -14.5,6 -30.5,16 -16,10 -27.2,21.3 Q 637.5,70 632.5,79 l -5,9 -0.3,1.5 -0.2,1.5 h -0.2 q -0.3,0 -6.8,19.5 -6.5,19.5 -10.8,25.7 -4.2,6.3 -11,12 -6.7,5.8 -16,9.6 -9.2,3.7 -21.2,4.2 -12,0.5 -14,-0.5 -2,-1 -3.8,-3.7 -1.7,-2.8 -9,-8 l -7.2,-5.3 -0.2,-0.3 -0.3,-0.2 -0.3,-0.2 -0.2,-0.3 -0.2,-0.3 -0.3,-0.2 -0.3,-0.2 -0.2,-0.3 -1,-0.3 -1,-0.2 -0.2,-0.5 Q 522.5,141 522.2,141 H 522 l -0.2,-0.5 Q 521.5,140 521.2,140 H 521 l -0.2,-0.5 Q 520.5,139 520.2,139 H 520 l -0.5,-0.2 q -0.5,-0.3 -3,-2.3 -2.5,-2 -13.5,-7.5 -11,-5.5 -19.5,-6 -8.5,-0.5 -18.7,4.8 -10.3,5.2 -26.6,13.4 -16.2,8.3 -23.2,9.3 -7,1 -10.2,-0.7 -3.3,-1.8 -3.8,-8.8 -0.5,-7 3.5,-18 4,-11 5,-20 1,-9 -1.5,-15.5 -2.5,-6.5 -6.8,-9.3 -4.2,-2.7 -13.7,-2.7 -9.5,0 -19,4 -9.5,4 -16,10.5 -6.5,6.5 -9.7,14.8 -3.3,8.2 -4.8,20.7 -1.5,12.5 0.8,38 l 2.2,25.5 -0.2,4.5 q -0.3,4.5 -0.8,6.5 -0.5,2 -3.2,7.2 -2.8,5.3 -10.3,5.8 -7.5,0.5 -12.5,-1.5 -5,-2 -10.5,-6 -5.5,-4 -11.5,-11.7 l -6,-7.8 -0.2,-0.5 Q 285.5,185 285.2,185 H 285 l -0.2,-0.5 Q 284.5,184 284.2,184 H 284 l -0.2,-1 q -0.3,-1 -8.3,-17 -8,-16 -15.5,-28.5 Q 252.5,125 245.2,117.8 238,110.5 228,106 q -10,-4.5 -21,-5 -11,-0.5 -16.5,1 -5.5,1.5 -11.5,5.5 -6,4 -10.8,10.7 l -4.7,6.8 H 163 l -0.5,-0.2 -0.5,-0.3 -0.2,-0.3 -0.3,-0.2 -0.3,0.2 -0.2,0.3 -1,0.3 -1,0.2 -0.2,-1 -0.3,-1 -0.3,0.2 -0.2,0.3 -0.2,0.3 -0.3,0.2 -0.3,-1.5 -0.2,-1.5 h -3 l 0.2,-1 0.3,-1 0.3,-0.2 0.2,-0.3 0.2,-0.3 0.3,-0.2 5.3,-6.8 q 5.2,-6.7 12.2,-11.7 7,-5 13.5,-7 6.5,-2 20,-1.5 13.5,0.5 23.5,4.5 10,4 19,12 9,8 17.8,21.7 8.7,13.8 20.2,35.3 11.5,21.5 18.2,28.3 6.8,6.7 9.8,8.2 3,1.5 5,2 l 2,0.5 h 5 l 0.2,-0.3 0.3,-0.2 0.3,-0.2 0.2,-0.3 0.2,-0.3 0.3,-0.2 v -16 q 0,-16 -1,-24 -1,-8 -0.5,-25.5 0.5,-17.5 4,-29 3.5,-11.5 7.8,-17.7 4.2,-6.3 11.2,-11.8 7,-5.5 18,-9.5 11,-4 22,-3.5 11,0.5 16,3.2 5,2.8 8.8,9.3 3.7,6.5 4.7,9.5 1,3 0.5,13.5 -0.5,10.5 -4,20.5 -3.5,10 -4,12 l -0.5,2 -0.5,2 -0.5,2 -0.3,1 -0.2,1 2.5,-0.2 2.5,-0.3 11.8,-5.3 q 11.7,-5.2 28,-14 16.2,-8.7 26.7,-8.7 10.5,0 20.7,4.3 10.3,4.2 29.8,18.7 19.5,14.5 19.8,15.5 0.2,1 10.7,0.2 10.5,-0.7 19.5,-5.2 9,-4.5 11.5,-6.2 2.5,-1.8 7.7,-10.8 5.3,-9 11.8,-29.5 6.5,-20.5 12.8,-30.3 6.2,-9.7 16.7,-19.7 10.5,-10 24,-19 13.5,-9 32,-17 Q 717,5.5 729,3 741,0.5 741,0.2 Z" />
  <path
     style="fill:#009897;fill-rule:evenodd;stroke:#009897;stroke-width:0.5"
     inkscape:connector-curvature="0"
     id="path22"
     d="m 840.2,661.5 0.8,-3.5 2.8,9 q 2.7,9 8.2,17 5.5,8 16.2,17.2 10.8,9.3 24.3,19.8 13.5,10.5 20.7,18.8 7.3,8.2 10.8,17.7 3.5,9.5 3,19.5 -0.5,10 -4,15.5 -3.5,5.5 -9.8,9.7 -6.2,4.3 -11.2,5.8 -5,1.5 -18.5,1 -13.5,-0.5 -23.5,-5 -10,-4.5 -16.2,-11.8 -6.3,-7.2 -20.3,-34.7 -14,-27.5 -19.7,-33.3 -5.8,-5.7 -7.3,-6.2 -1.5,-0.5 -2.5,-1 l -1,-0.5 -0.2,-0.3 -0.3,-0.2 H 792 v -0.5 l 1,-0.5 1,-0.5 -0.2,-0.3 -0.3,-0.2 -0.3,-0.2 -0.2,-0.3 h 2 l 0.2,0.3 q 0.3,0.2 8.8,-9.3 8.5,-9.5 16.8,-19.5 8.2,-10 9.2,-10 1,0 1,-1 0,-1 1.2,-1.5 1.3,-0.5 4.3,-4 3,-3.5 3.7,-7 z" />
  <path
     style="fill:#00fdfc;fill-rule:evenodd;stroke:#00fdfc;stroke-width:0.5"
     inkscape:connector-curvature="0"
     id="path24"
     d="M 650.2,381 H 650 l -1,0.2 q -1,0.3 -12.5,3.6 l -11.5,3.2 -2,0.2 q -2,0.3 -38,0.6 l -36,0.2 v -0.2 q 0,-0.3 -15.5,0 l -15.5,0.2 -5.5,0.2 q -5.5,0.3 -18,2 l -12.5,1.8 -4,0.2 q -4,0.3 -16.5,1.8 -12.5,1.5 -38,1.5 -25.5,0 -36.5,-3 l -11,-3 -1,-0.3 -1,-0.2 -8.8,-5 q -8.7,-5 -6.2,-23.5 2.5,-18.5 6.8,-26.3 4.2,-7.7 14.2,-15.7 10,-8 25,-16 15,-8 34,-14 19,-6 40.5,-9 21.5,-3 47.5,-2.5 26,0.5 47,4.5 21,4 39,11 18,7 21.2,9.3 3.3,2.2 11.3,16.7 8,14.5 14,25.5 6,11 5.5,17.5 -0.5,6.5 -4.8,10.7 -4.2,4.3 -7,6 -2.7,1.8 -3,1.8 z m -88.2,-90.2 1,0.2 20,4.8 q 20,4.7 32.5,10.2 12.5,5.5 16.7,11.8 4.3,6.2 13.3,22.7 9,16.5 8.5,21 -0.5,4.5 -7.2,8.3 -6.8,3.7 -20.8,6.2 -14,2.5 -50,2 -36,-0.5 -44.5,-0.8 l -8.5,-0.2 -0.5,0.2 -0.5,0.3 -7.5,0.5 q -7.5,0.5 -35.5,4 -28,3.5 -52,4 -24,0.5 -33,-1.5 -9,-2 -17.8,-6.3 -8.7,-4.2 -6.7,-18.2 2,-14 5,-19.5 3,-5.5 8.7,-10 l 5.8,-4.5 10,-6.8 q 10,-6.7 27.5,-13.7 17.5,-7 40,-11.5 22.5,-4.5 54,-4.5 31.5,0 36,0.5 4.5,0.5 5.5,0.8 z" />
  <path
     style="fill:#0ca85d;fill-rule:evenodd;stroke:#0ca85d;stroke-width:0.5"
     inkscape:connector-curvature="0"
     id="path26"
     d="m 870.5,377.2 0.5,-0.2 0.2,1 0.3,1 0.3,-0.2 0.2,-0.3 0.2,-0.3 0.3,-0.2 0.3,0.2 0.2,0.3 h 2 l 8.5,-0.3 8.5,-0.2 v 0.5 l 5,0.5 5,0.5 -0.8,0.7 q -0.7,0.8 0.3,17.8 1,17 0.5,18.5 -0.5,1.5 -0.2,1.7 0.2,0.3 -0.8,0.6 l -1,0.2 -1,-0.2 q -1,-0.3 -3,-1.3 l -2,-1 -0.2,-0.3 -0.3,-0.2 -0.3,0.2 -0.2,0.3 -0.2,0.3 -0.3,0.2 -0.5,1.5 q -0.5,1.5 -1,3.5 -0.5,2 -4.2,5 l -3.8,3 v 1 q 0,1 2.5,1 2.5,0 1.3,6.5 -1.3,6.5 -0.8,18.5 0.5,12 13,50 12.5,38 13,40 0.5,2 0.8,2.5 l 0.2,0.5 0.8,5 q 0.7,5 0.2,18.5 -0.5,13.5 -5.2,22.3 -4.8,8.7 -15.8,19.7 -11,11 -27.5,21.5 -16.5,10.5 -20.5,12.2 -4,1.8 -4,5.3 v 3.5 l -0.8,3.5 q -0.7,3.5 -3.7,7 -3,3.5 -4.3,4 -1.2,0.5 -1.2,1.5 0,1 -1,1 -1,0 -9.2,10 -8.3,10 -16.8,19.5 -8.5,9.5 -8.8,9.3 l -0.2,-0.3 h -2 l 0.2,0.3 0.3,0.2 0.3,0.2 0.2,0.3 -1,0.5 -1,0.5 v 0.5 l -1,-0.2 q -1,-0.3 -3,-0.8 -2,-0.5 -15,0.2 -13,0.8 -23.2,27.3 -10.3,26.5 -17.8,41.5 -7.5,15 -12.8,20.2 -5.2,5.3 -30.2,10.8 -25,5.5 -29.8,8.2 -4.7,2.8 -5.2,7.3 -0.5,4.5 10.5,22.5 11,18 15,27.5 4,9.5 4.5,21.5 0.5,12 -1,19.5 -1.5,7.5 -5.5,15.5 -4,8 -9.7,13.8 -5.8,5.7 -11.3,9.2 -5.5,3.5 -14.5,4 -9,0.5 -12,-0.5 -3,-1 -7.8,-5.7 -4.7,-4.8 -8.2,-15.3 -3.5,-10.5 -4,-32.5 -0.5,-22 0.5,-30.5 1,-8.5 7,-30 l 6,-21.5 0.5,-1 0.5,-1 0.5,-2.5 0.5,-2.5 v -2 l -0.3,0.2 -0.2,0.3 -0.2,0.3 -0.3,0.2 -0.5,1 -0.5,1 -0.3,0.2 -0.2,0.3 -0.2,0.3 -0.3,0.2 -0.3,0.2 -0.2,0.3 -0.2,0.3 -0.3,0.2 -0.5,1 -0.5,1 -0.3,0.2 -0.2,0.3 -0.2,0.3 q -0.3,0.2 -5.3,7.7 -5,7.5 -12.7,17.3 -7.8,9.7 -15.3,12.7 -7.5,3 -18,3.5 -10.5,0.5 -15.5,-0.5 -5,-1 -13.5,-5 -8.5,-4 -14.5,-9 -6,-5 -13.2,-13.7 -7.3,-8.8 -13.3,-21.8 l -6,-13 -0.3,-0.2 -0.2,-0.3 h -2 l -1,0.5 q -1,0.5 -5.5,3.5 -4.5,3 -15.5,7 -11,4 -22.5,4.5 -11.5,0.5 -22,-2 -10.5,-2.5 -32,-12.5 -21.5,-10 -23.5,-8.3 l -2,1.8 h -0.2 q -0.3,0 -0.6,0.5 L 365,800 h -0.2 q -0.3,0 -0.6,0.5 L 364,801 h -0.2 q -0.3,0 -0.6,0.5 l -0.2,0.5 -0.5,0.2 q -0.5,0.3 -0.7,0.6 l -0.3,0.2 -0.3,0.2 -0.2,0.3 h -2.5 q -2.5,0 -3.5,-0.3 -1,-0.2 -1,-1.2 0,-1 -4.5,-2.2 Q 345,798.5 321.5,789 298,779.5 297,777.8 l -1,-1.8 -0.2,-11 q -0.3,-11 -2.8,-18 -2.5,-7 -7.2,-11.8 l -4.8,-4.7 -0.2,-0.3 -0.3,-0.2 -0.3,-0.2 -0.2,-0.3 -1,-0.5 -1,-0.5 -1,-0.5 -1,-0.5 -1,-0.5 -1,-0.5 V 726 l 3,0.2 3,0.3 0.2,0.3 0.3,0.2 0.3,0.2 0.2,0.3 0.2,0.3 0.3,0.2 0.3,0.2 0.2,0.3 0.2,0.3 0.3,0.2 2.7,1.2 q 2.8,1.3 6.8,4.3 4,3 12,6 8,3 31.5,13.5 23.5,10.5 47,17.5 23.5,7 47.5,11 24,4 48,5 24,1 48.5,-1 24.5,-2 50.5,-7.5 26,-5.5 51,-14.5 25,-9 47,-20.5 22,-11.5 40.2,-24.2 18.3,-12.8 34.3,-26.8 16,-14 30.5,-30 14.5,-16 28.5,-36.5 14,-20.5 25.5,-43.5 11.5,-23 19.5,-48 8,-25 12,-49.5 4,-24.5 4.3,-66.3 0.2,-41.7 0.7,-42 z" />
  <path
     style="fill:#94ce39;fill-rule:evenodd;stroke:#94ce39;stroke-width:0.5"
     inkscape:connector-curvature="0"
     id="path28"
     d="m 636,640 -0.5,10 -0.5,2 -0.5,2 H 634 l -0.2,-2 -0.3,-2 -0.5,-3.5 q -0.5,-3.5 -0.8,-5.5 -0.2,-2 -1.2,-2 -1,0 -1.2,-2 -0.3,-2 -2,-2.2 -1.8,-0.3 -4,-3.6 -2.3,-3.2 -6,-5 -3.8,-1.7 -4.8,-3.4 -1,-1.8 -6,-1.6 -5,0.3 -12,-6.2 l -7,-6.5 h -2 l -0.2,0.3 -0.3,0.2 -0.3,-1 -0.2,-1 h -2 l 0.2,2.5 q 0.3,2.5 0.3,3.5 v 1 H 583 l -1,-0.2 -1,-0.3 -0.2,-0.3 q -0.3,-0.2 -11,-4 -10.8,-3.7 -24.8,-4.2 -14,-0.5 -25.5,2.5 -11.5,3 -20.5,8.5 -9,5.5 -14,11.5 -5,6 -7.8,14.3 -2.7,8.2 -2,14.7 l 0.8,6.5 h -0.5 l -0.3,2 -0.2,2 h -1 q -1,0 -1,-1.5 0,-1.5 -1,-1.5 h -1 l 0.2,1 0.3,1 0.3,0.2 0.2,0.3 -2,0.3 -2,0.2 v 1 q 0,1 -1,1.2 -1,0.3 -0.2,1 0.7,0.8 0.7,6.8 0,6 6.7,14.8 6.8,8.7 7,9 l 0.3,0.2 0.3,0.2 0.2,0.3 0.2,0.3 0.3,0.2 0.5,1 0.5,1 v 2 l -0.3,0.2 -0.2,0.3 0.2,0.3 0.3,0.2 0.3,0.2 0.2,0.3 -2,0.5 -2,0.5 -0.2,0.3 -0.3,0.2 -0.3,0.5 -0.2,0.5 -0.5,-0.2 -0.5,-0.3 -1,-0.5 -1,-0.5 -0.2,-0.3 -0.3,-0.2 -4.7,-2.2 q -4.8,-2.3 -11,-7 -6.3,-4.8 -15.3,-17.3 -9,-12.5 -12.7,-17.7 -3.8,-5.3 -8.8,-8.3 -5,-3 -23.2,-10.3 Q 381.5,638 365.5,628.5 349.5,619 336.2,608.2 323,597.5 311.8,585.8 300.5,574 290,558.5 q -10.5,-15.5 -18,-31 -7.5,-15.5 -13,-34 -5.5,-18.5 -7.5,-33 -2,-14.5 -1.5,-36 0.5,-21.5 4.5,-40.5 4,-19 11,-37 7,-18 17.5,-35 10.5,-17 22.5,-31 12,-14 24.3,-24.8 12.2,-10.7 29.7,-21.7 17.5,-11 37,-19 19.5,-8 37.5,-12.5 18,-4.5 31,-6 13,-1.5 35.5,-1 22.5,0.5 45,5 22.5,4.5 40.5,11.5 18,7 35,16.5 17,9.5 34,23.5 17,14 27.8,26.3 10.7,12.2 21.2,28.7 10.5,16.5 18.5,35.5 8,19 12,36.5 4,17.5 5,27 1,9.5 0.5,28.5 -0.5,19 -4.5,39 -4,20 -11,37.5 -7,17.5 -15.3,31.7 -8.2,14.3 -20,29 -11.7,14.8 -24.4,26.6 -12.8,11.7 -17.6,15.4 -4.7,3.8 -7.2,7.3 -2.5,3.5 -3,6 -0.5,2.5 -1,12.5 z M 650.2,381 H 650 l 1.8,7 q 1.7,7 1.2,21.5 -0.5,14.5 -1,16.5 -0.5,2 -0.8,3.5 L 651,431 h 0.5 l 0.3,0.2 0.2,0.3 0.2,0.3 0.3,0.2 0.5,3 0.5,3 0.3,0.2 0.2,0.3 0.2,0.3 0.3,0.2 0.5,4 q 0.5,4 1,9 0.5,5 -5,21 -5.5,16 -15.8,29.5 -10.2,13.5 -14.2,16.3 -4,2.7 -13.8,9 -9.7,6.2 -25,12.4 -15.2,6.3 -32.2,9.8 -17,3.5 -32.5,4 -15.5,0.5 -25,-0.5 -9.5,-1 -21,-4 -11.5,-3 -24,-8 Q 435,536.5 422,528 409,519.5 401.2,511.8 393.5,504 386,492.5 378.5,481 375.5,472 q -3,-9 -3.5,-18.5 -0.5,-9.5 1,-15 1.5,-5.5 1.5,-11 0,-5.5 0,-20 V 391 l -0.3,-0.2 -0.2,-0.3 V 390 l -8.8,-5 q -8.7,-5 -6.2,-23.5 2.5,-18.5 6.8,-26.3 4.2,-7.7 14.2,-15.7 10,-8 25,-16 15,-8 34,-14 19,-6 40.5,-9 21.5,-3 47.5,-2.5 26,0.5 47,4.5 21,4 39,11 18,7 21.2,9.3 3.3,2.2 11.3,16.7 8,14.5 14,25.5 6,11 5.5,17.5 -0.5,6.5 -4.8,10.7 -4.2,4.3 -7,6 -2.7,1.8 -3,1.8 z" />
  <path
     style="fill:#fdd9d9;fill-rule:evenodd;stroke:#fdd9d9;stroke-width:0.5"
     inkscape:connector-curvature="0"
     id="path30"
     d="m 649,381.2 1,-0.2 1.8,7 q 1.7,7 1.2,21.5 -0.5,14.5 -1,16.5 -0.5,2 -0.8,3.5 l -0.2,1.5 -0.2,0.5 -0.3,0.5 -0.5,1 -0.5,1 -0.5,1.5 -0.5,1.5 -0.5,1.5 q -0.5,1.5 -2.5,5.5 -2,4 -9.5,14 -7.5,10 -19.2,19.8 -11.8,9.7 -26.8,16.7 -15,7 -33,11.5 -18,4.5 -38.5,5 -20.5,0.5 -33.5,-1.5 -13,-2 -27,-6.5 -14,-4.5 -27.5,-12 -13.5,-7.5 -21.5,-14.5 -8,-7 -15.2,-15.7 -7.3,-8.8 -12,-19.3 L 377,431 376.8,430.5 Q 376.5,430 376.2,430 H 376 l -0.2,-2 q -0.3,-2 -0.8,-4 -0.5,-2 -0.5,-16.5 V 391 l -0.3,-0.2 -0.2,-0.3 V 390 l 1,0.2 1,0.3 11,3 q 11,3 36.5,3 25.5,0 38,-1.5 12.5,-1.5 16.5,-1.8 l 4,-0.2 0.2,15.5 q 0.3,15.5 5.3,26.5 5,11 10.7,17.8 5.8,6.7 14.8,12.2 9,5.5 18,8.5 9,3 23.5,3 14.5,0 25.5,-4 11,-4 19.8,-10.7 8.7,-6.8 14.2,-14.3 5.5,-7.5 9,-17 3.5,-9.5 3.5,-22.5 0,-13 -0.5,-15 -0.5,-2 -0.8,-3.5 l -0.2,-1.5 11.5,-3.2 q 11.5,-3.3 12.5,-3.6 z" />
  <path
     style="fill:#1bb434;fill-rule:evenodd;stroke:#1bb434;stroke-width:0.5"
     inkscape:connector-curvature="0"
     id="path32"
     d="m 519.5,138.8 0.5,0.2 v 0.2 q 0,0.3 0.5,0.6 l 0.5,0.2 v 0.2 q 0,0.3 0.5,0.6 l 0.5,0.2 v 0.5 l 0.5,0.3 0.5,0.2 v 0.5 l 0.2,0.3 0.3,0.2 0.3,0.2 0.2,0.3 0.2,0.3 0.3,0.2 0.3,0.2 0.2,0.3 0.2,0.3 0.3,0.2 0.3,0.2 0.2,0.3 0.2,0.3 0.3,0.2 v 1 l -0.3,0.2 -0.2,0.3 -0.2,0.3 -0.3,0.2 -0.3,-0.2 -0.2,-0.3 h -2 l -4.5,0.5 q -4.5,0.5 -23.5,1 -19,0.5 -31.5,2.5 -12.5,2 -29.5,4.5 -17,2.5 -26.5,6.5 -9.5,4 -36,15 l -26.5,11 -0.2,0.3 -0.3,0.2 -0.3,0.2 -0.2,0.3 h -2 l -0.2,-0.3 -0.3,-0.2 H 341 l -2.2,-25.5 q -2.3,-25.5 -0.8,-38 1.5,-12.5 4.8,-20.7 3.2,-8.3 9.7,-14.8 6.5,-6.5 16,-10.5 9.5,-4 19,-4 9.5,0 13.7,2.7 4.3,2.8 6.8,9.3 2.5,6.5 1.5,15.5 -1,9 -5,20 -4,11 -3.5,18 0.5,7 3.8,8.8 3.2,1.7 10.2,0.7 7,-1 23.2,-9.3 16.3,-8.2 26.6,-13.4 10.2,-5.3 18.7,-4.8 8.5,0.5 19.5,6 11,5.5 13.5,7.5 2.5,2 3,2.3 z" />
  <path
     style="fill:#09a46c;fill-rule:evenodd;stroke:#09a46c;stroke-width:0.5"
     inkscape:connector-curvature="0"
     id="path34"
     d="m 96.5,388.8 25.5,-9.8 -1.2,4 q -1.3,4 -2.3,19 -1,15 -0.5,35.5 0.5,20.5 1.5,24.5 1,4 1.5,5 l 0.5,1 0.3,0.2 0.2,0.3 -0.2,0.3 -0.3,0.2 -0.3,0.2 -0.2,0.3 0.2,0.3 0.3,0.2 0.5,1 0.5,1 0.3,0.5 0.2,0.5 v 0.2 q 0,0.3 -18.8,16 -18.7,15.8 -30,22 -11.2,6.3 -24.7,6.3 -13.5,0 -18.7,-3.3 Q 25.5,511 21,505.5 16.5,500 13.5,490 q -3,-10 -2,-21 1,-11 4,-18.5 3,-7.5 8.5,-15 Q 29.5,428 37.2,420.8 45,413.5 58,406 71,398.5 96.5,388.8 Z" />
  <path
     style="fill:#0eaa55;fill-rule:evenodd;stroke:#0eaa55;stroke-width:0.5"
     inkscape:connector-curvature="0"
     id="path36"
     d="m 284.2,182.8 0.3,0.2 0.3,0.2 0.2,0.3 0.2,0.3 0.3,0.2 0.3,1 0.2,1 -1,-0.2 -1,-0.3 -0.2,-0.3 q -0.3,-0.2 -0.6,-0.4 -0.2,-0.3 -1,0.4 -0.7,0.8 -2,0.6 -1.2,-0.3 -2.2,1 -1,1.2 -2,1.4 -1,0.3 -7.5,5.8 -6.5,5.5 -17,16.8 -10.5,11.2 -11.5,11.4 -1,0.3 -5,5.3 -4,5 -5.2,7.3 -1.3,2.2 -1.8,3.2 l -0.5,1 0.3,0.2 0.2,0.3 0.2,0.3 0.3,0.2 0.3,0.2 0.2,0.3 0.2,0.3 0.3,0.2 0.3,1 0.2,1 -1,-0.2 -1,-0.3 -0.2,-0.3 -0.3,-0.2 -0.3,-1 -0.2,-1 -1,-0.2 -1,-0.3 -0.2,-0.3 q -0.3,-0.2 -7,-6 Q 211,227.5 198.5,216 186,204.5 177.5,192 169,179.5 164.2,169.2 159.5,159 159,150.5 q -0.5,-8.5 1.8,-17 L 163,125 h 0.5 l 4.7,-6.8 q 4.8,-6.7 10.8,-10.7 6,-4 11.5,-5.5 5.5,-1.5 16.5,-1 11,0.5 21,5 10,4.5 17.2,11.8 7.3,7.2 14.8,19.7 7.5,12.5 15.8,28.7 8.2,16.3 8.4,16.6 z" />
  <path
     style="fill:#e6b55e;fill-rule:evenodd;stroke:#e6b55e;stroke-width:0.5"
     inkscape:connector-curvature="0"
     id="path38"
     d="M 487.5,314.2 489,314 h 0.5 l 0.3,0.2 0.2,0.3 13,1 q 13,1 23,4.3 10,3.2 10.2,4.2 0.3,1 0.8,2.5 l 0.5,1.5 0.5,1 0.5,1 v 1 l -0.5,1.5 -0.5,1.5 -0.3,0.2 -0.2,0.3 0.2,0.3 0.3,0.2 v 1 l -0.3,0.2 q -0.2,0.3 -2.2,1 -2,0.8 -2,1.8 0,1 -7,3.2 -7,2.3 -21,3.3 l -14,1 -1,0.3 -1,0.2 -2.5,-0.2 q -2.5,-0.3 -11,-4 -8.5,-3.8 -9.3,-5.3 -0.7,-1.5 -1.7,-5.5 l -1,-4 -0.3,-0.2 -0.2,-0.3 1,-0.3 q 1,-0.2 2,-2.7 1,-2.5 10.5,-6.3 9.5,-3.7 11,-4 z" />
  <path
     style="fill:#019c89;fill-rule:evenodd;stroke:#019c89;stroke-width:0.5"
     inkscape:connector-curvature="0"
     id="path40"
     d="M 900.2,419.8 900,419.5 V 419 l 1,-0.2 q 1,-0.3 0.8,-0.6 -0.3,-0.2 0.2,-1.7 0.5,-1.5 -0.5,-18.5 -1,-17 -0.3,-17.8 l 0.8,-0.7 -5,-0.5 -5,-0.5 V 378 l 4,-0.2 4,-0.3 9,-3.5 q 9,-3.5 19.2,-13.8 10.3,-10.2 16.6,-16.4 6.2,-6.3 20.7,-13.8 14.5,-7.5 21.5,-7.5 7,0 12,3.5 5,3.5 7.8,7.2 2.7,3.8 4.2,8.8 1.5,5 1,20 -0.5,15 -5.5,29.5 -5,14.5 -12.5,26.5 -7.5,12 -10.8,15.2 -3.2,3.3 -6.2,4.3 -3,1 -12,0.5 -9,-0.5 -36.8,-9.2 -27.7,-8.8 -28,-9 z" />
  <path
     style="fill:#039d85;fill-rule:evenodd;stroke:#039d85;stroke-width:0.5"
     inkscape:connector-curvature="0"
     id="path42"
     d="M 165.8,677.8 182.5,663 h 0.5 l -1.2,3.5 q -1.3,3.5 1,5 2.2,1.5 4.7,5.3 2.5,3.7 18.5,19.7 16,16 21.5,21.5 5.5,5.5 7,6 l 1.5,0.5 v 0.5 h -0.5 l -0.3,0.2 -0.2,0.3 -0.2,0.3 -0.3,0.2 -0.3,0.2 -0.2,0.3 -1,0.5 q -1,0.5 -4.5,3.5 -3.5,3 -13.7,16.3 -10.3,13.2 -21.3,24.2 -11,11 -21.3,17.2 -10.2,6.3 -23.2,10.8 -13,4.5 -23,5 -10,0.5 -15,-1.5 -5,-2 -7.2,-5.3 -2.3,-3.2 -2.8,-13.2 -0.5,-10 4.5,-25 5,-15 13,-28.5 8,-13.5 19.3,-25.7 11.2,-12.3 28,-27 z" />
  <path
     style="fill:#07a272;fill-rule:evenodd;stroke:#07a272;stroke-width:0.5"
     inkscape:connector-curvature="0"
     id="path44"
     d="m 744.2,156.2 -0.2,0.3 -0.2,0.3 -0.3,0.2 -0.3,0.2 -0.2,0.3 -0.2,0.3 -0.3,0.2 -0.3,0.2 -0.2,0.3 -0.2,0.3 -0.3,0.2 H 741 l 0.2,-1 0.3,-1 0.5,-0.5 q 0.5,-0.5 0.5,-1.5 v -1 l -0.3,-0.2 q -0.2,-0.3 -5.2,-4.3 -5,-4 -23.5,-16.5 -18.5,-12.5 -42.5,-24.5 -24,-12 -30,-14 -6,-2 -6.8,-2.7 -0.7,-0.8 -2.4,-1.3 -1.8,-0.5 -2,0.5 l -0.3,1 -0.3,-0.2 -0.2,-0.3 -1,-0.3 -1,-0.2 0.2,-1.5 0.3,-1.5 5,-9 q 5,-9 16.3,-20.2 11.2,-11.3 27.2,-21.3 16,-10 30.5,-16 14.5,-6 26.5,-8.5 12,-2.5 24,-1.5 12,1 21,5 9,4 13.8,8.7 4.7,4.8 7.7,12.8 3,8 2.5,18 -0.5,10 -5.5,21 -5,11 -20,34.5 -15,23.5 -18,29.5 -3,6 -8.5,10.5 -5.5,4.5 -5.8,4.7 z" />
  <path
     style="fill:#039d84;fill-rule:evenodd;stroke:#039d84;stroke-width:0.5"
     inkscape:connector-curvature="0"
     id="path46"
     d="m 289.2,807 6.8,-31 1,1.8 q 1,1.7 24.5,11.2 23.5,9.5 28,10.8 4.5,1.2 4.5,2.2 0,1 1,1.2 1,0.3 3.5,0.3 h 2.5 l 0.2,-0.3 0.3,-0.2 0.5,-1 0.5,-1 0.3,-0.2 0.2,-0.3 0.2,-0.3 0.3,-0.2 0.3,-0.2 0.2,-0.3 1,-0.3 1,-0.2 -0.2,1 -0.3,1 -0.3,0.2 -0.2,0.3 -0.2,0.3 -0.3,0.2 -0.3,0.2 -0.2,0.3 -0.2,0.3 -0.3,0.2 -0.3,0.2 -0.2,0.3 -0.2,0.3 -0.3,0.2 -0.3,0.2 -0.2,0.3 -0.2,0.3 -0.3,0.2 -0.5,1 q -0.5,1 -3.5,8 -3,7 -7,34.5 -4,27.5 -9,36 -5,8.5 -10.7,12.3 -5.8,3.7 -14.3,3.7 -8.5,0 -14.5,-3.5 -6,-3.5 -10,-8.5 -4,-5 -6.8,-11.7 -2.7,-6.8 -2.7,-22.8 0,-16 6.7,-47 z" />
  <path
     style="fill:#dfa33b;fill-rule:evenodd;stroke:#dfa33b;stroke-width:0.5"
     inkscape:connector-curvature="0"
     id="path48"
     d="M 374.2,433.5 376,430 v 0.2 q 0,0.3 0.5,0.6 l 0.5,0.2 4.8,10.5 q 4.7,10.5 12,19.3 7.2,8.7 15.2,15.7 8,7 21.5,14.5 13.5,7.5 27.5,12 14,4.5 27,6.5 13,2 33.5,1.5 20.5,-0.5 38.5,-5 18,-4.5 33,-11.5 15,-7 26.8,-16.7 11.7,-9.8 19.2,-19.8 7.5,-10 9.5,-14 2,-4 2.5,-5.5 l 0.5,-1.5 0.5,-1.5 0.5,-1.5 0.5,-1 0.5,-1 0.3,-0.5 0.2,-0.5 h 0.5 l 0.3,0.2 0.2,0.3 0.2,0.3 0.3,0.2 0.5,3 0.5,3 0.3,0.2 0.2,0.3 0.2,0.3 0.3,0.2 0.5,4 q 0.5,4 1,9 0.5,5 -5,21 -5.5,16 -15.8,29.5 -10.2,13.5 -14.2,16.3 -4,2.7 -13.8,9 -9.7,6.2 -25,12.4 -15.2,6.3 -32.2,9.8 -17,3.5 -32.5,4 -15.5,0.5 -25,-0.5 -9.5,-1 -21,-4 -11.5,-3 -24,-8 Q 435,536.5 422,528 409,519.5 401.2,511.8 393.5,504 386,492.5 378.5,481 375.5,472 q -3,-9 -3,-22 0,-13 1.7,-16.5 z" />
  <path
     style="fill:#1cb436;fill-rule:evenodd;stroke:#1cb436;stroke-width:0.5"
     inkscape:connector-curvature="0"
     id="path50"
     d="m 562,290.8 1,0.2 -0.8,2 q -0.7,2 -0.4,3 0.2,1 1.2,1.2 1,0.3 1.2,0.6 l 0.3,0.2 v 3 l -0.3,1 -0.2,1 h 1 q 1,0 1,1 v 1 l -2.5,-0.2 q -2.5,-0.3 -11,-1.3 -8.5,-1 -35,0.7 l -26.5,1.8 -17,0.8 q -17,0.7 -24.8,3.4 -7.7,2.8 -12.7,6.8 -5,4 -5.3,5 -0.2,1 -1.2,1 -1,0 -1.8,5 -0.7,5 1.8,9 2.5,4 8.8,8.8 6.2,4.7 14.2,7.2 8,2.5 25,2.8 l 17,0.2 17.5,1.8 q 17.5,1.7 29.5,1.7 h 12 l 1.5,-0.3 1.5,-0.2 -0.2,0.5 -0.3,0.5 -0.3,0.2 -0.2,0.3 -1.5,0.5 -1.5,0.5 -0.2,0.3 -0.3,0.2 -0.3,0.2 -0.2,0.3 -1,0.5 -1,0.5 -2,0.5 q -2,0.5 -8,1.8 l -6,1.2 -1.5,0.2 -1.5,0.3 -4.5,0.5 q -4.5,0.5 -44,0 -39.5,-0.5 -54.5,-5 -15,-4.5 -25,-11.5 -10,-7 -13.5,-14.3 -3.5,-7.2 -2.5,-7.2 1,0 1.5,-2 l 0.5,-2 10,-6.8 q 10,-6.7 27.5,-13.7 17.5,-7 40,-11.5 22.5,-4.5 54,-4.5 31.5,0 36,0.5 4.5,0.5 5.5,0.8 z" />
  <path
     style="fill:#0ca85f;fill-rule:evenodd;stroke:#0ca85f;stroke-width:0.5"
     inkscape:connector-curvature="0"
     id="path52"
     d="m 562.2,293 0.8,-2 20,4.8 q 20,4.7 32.5,10.2 12.5,5.5 16.7,11.8 4.3,6.2 13.3,22.7 9,16.5 8.5,21 -0.5,4.5 -7.2,8.3 -6.8,3.7 -20.8,6.2 -14,2.5 -50,2 -36,-0.5 -44.5,-0.8 L 523,377 v -0.5 l -2.5,-0.5 -2.5,-0.5 1,-0.5 1,-0.5 1.5,-0.5 1.5,-0.5 1,-0.5 1,-0.5 1,-0.5 1,-0.5 1.5,-0.5 1.5,-0.5 1,-0.5 1,-0.5 0.2,-0.3 0.3,-0.2 0.3,-0.2 0.2,-0.3 0.2,-0.3 0.3,-0.2 0.3,-0.5 0.2,-0.5 6,-1.2 q 6,-1.3 8,-1.8 l 2,-0.5 1,-0.5 1,-0.5 0.2,-0.3 0.3,-0.2 0.3,-0.2 0.2,-0.3 1,-0.5 q 1,-0.5 1,-0.8 V 360 l 1,-0.2 q 1,-0.3 1,-0.6 V 359 l 1.5,-0.2 q 1.5,-0.3 12.5,-4.3 11,-4 16.5,-8.5 5.5,-4.5 8.3,-9.2 2.7,-4.8 1.2,-9.8 -1.5,-5 -7.8,-10.2 -6.2,-5.3 -14.7,-8.6 L 566,305 v -1 q 0,-1 -1,-1 h -1 l 0.2,-1 0.3,-1 v -3 l -0.3,-0.2 q -0.2,-0.3 -1.2,-0.6 -1,-0.2 -1.2,-1.2 -0.3,-1 0.4,-3 z" />
  <path
     style="fill:#7bd168;fill-rule:evenodd;stroke:#7bd168;stroke-width:0.5"
     inkscape:connector-curvature="0"
     id="path54"
     d="M 583.2,609.5 583,607 h 2 l 0.2,1 0.3,1 0.3,-0.2 0.2,-0.3 h 2 l 7,6.5 q 7,6.5 12,6.2 5,-0.2 6,1.6 1,1.7 4.8,3.4 3.7,1.8 6,5 2.2,3.3 4,3.6 1.7,0.2 2,2.2 0.2,2 1.2,2 1,0 1.2,2 0.3,2 0.8,5.5 l 0.5,3.5 0.3,2 0.2,2 v 0.2 q 0,0.3 0.2,0.6 0.3,0.2 -2.7,11.7 -3,11.5 -10.7,23.5 -7.8,12 -14.3,16.2 -6.5,4.3 -19.5,10.8 -13,6.5 -20.5,8 -7.5,1.5 -27.5,1.5 -20,0 -30.5,-2.5 -10.5,-2.5 -19.3,-7.8 l -8.7,-5.2 -0.3,-0.2 -0.2,-0.3 -0.2,-0.3 -0.3,-0.2 H 479 l 0.2,-0.5 0.3,-0.5 0.3,-0.2 0.2,-0.3 2,-0.5 2,-0.5 -0.2,-0.3 -0.3,-0.2 -0.3,-0.2 -0.2,-0.3 0.2,-0.3 0.3,-0.2 v -2 l -0.5,-1 -0.5,-1 -0.3,-0.2 -0.2,-0.3 -0.2,-0.3 -0.3,-0.2 -0.3,-0.2 q -0.2,-0.3 -7,-9 -6.7,-8.8 -6.7,-14.8 0,-6 -0.7,-6.8 -0.8,-0.7 0.2,-1 1,-0.2 1,-1.2 v -1 l 2,-0.2 2,-0.3 -0.2,-0.3 -0.3,-0.2 -0.3,-1 -0.2,-1 1,0.2 1,0.3 1,0.3 1,0.2 0.2,-1 0.3,-1 h 0.5 l 3.8,7.5 q 3.7,7.5 11.4,14.3 7.8,6.7 17.8,10.7 10,4 14.5,5 4.5,1 20.5,0.5 16,-0.5 27,-4.5 11,-4 19.2,-10.3 8.3,-6.2 12.3,-13.2 4,-7 5,-10.5 1,-3.5 0.5,-11.5 -0.5,-8 -4.8,-15.8 -4.2,-7.7 -11.2,-13.7 -7,-6 -8,-6.5 -1,-0.5 -1,-0.8 V 614 h 0.5 v -1 q 0,-1 -0.3,-3.5 z" />
  <path
     style="fill:#029c88;fill-rule:evenodd;stroke:#029c88;stroke-width:0.5"
     inkscape:connector-curvature="0"
     id="path56"
     d="m 383.2,330.5 5.8,-4.5 -0.5,4.2 q -0.5,4.3 2,9.3 2.5,5 12.5,12 10,7 25,11.5 15,4.5 54.5,5 39.5,0.5 44,0 l 4.5,-0.5 1.5,-0.3 1.5,-0.2 -0.2,0.5 -0.3,0.5 -0.3,0.2 -0.2,0.3 -0.2,0.3 -0.3,0.2 -0.3,0.2 -0.2,0.3 -1,0.5 -1,0.5 -1.5,0.5 -1.5,0.5 -1,0.5 -1,0.5 -1,0.5 -1,0.5 -1.5,0.5 -1.5,0.5 -1,0.5 -1,0.5 2.5,0.5 2.5,0.5 v 0.5 l -0.5,0.2 -0.5,0.3 -7.5,0.5 q -7.5,0.5 -35.5,4 -28,3.5 -52,4 -24,0.5 -33,-1.5 -9,-2 -17.8,-6.3 -8.7,-4.2 -6.7,-18.2 2,-14 5,-19.5 3,-5.5 8.7,-10 z" />
  <path
     style="fill:#85cb35;fill-rule:evenodd;stroke:#85cb35;stroke-width:0.5"
     inkscape:connector-curvature="0"
     id="path58"
     d="m 474,306.8 17,-0.8 v 0.5 l 0.2,0.3 0.3,0.2 v 1 l -0.3,0.2 -0.2,0.3 0.2,0.3 0.3,0.2 v 1 l -0.3,1 -0.2,1 -1.5,0.2 -1.5,0.3 0.2,0.3 0.3,0.2 0.3,0.5 0.2,0.5 -1.5,0.2 q -1.5,0.3 -11,4 -9.5,3.8 -10.5,6.3 -1,2.5 -2,2.7 l -1,0.3 0.2,0.3 0.3,0.2 1,4 q 1,4 1.7,5.5 0.8,1.5 9.3,5.3 8.5,3.7 11,4 l 2.5,0.2 v 0.5 l 1,0.5 1,0.5 -0.2,0.3 -0.3,0.2 -0.3,0.2 -0.2,0.3 0.2,0.3 0.3,0.2 v 1 l -0.3,0.2 -0.2,0.3 0.2,0.3 0.3,0.2 0.3,0.2 0.2,0.3 0.2,0.3 0.3,0.2 0.3,0.2 0.2,0.3 2,0.5 2,0.5 -0.2,0.3 -0.3,0.2 -0.3,0.2 -0.2,0.3 v 0.5 l -17,-0.2 q -17,-0.3 -25,-2.8 -8,-2.5 -14.2,-7.2 -6.3,-4.8 -8.8,-8.8 -2.5,-4 -1.8,-9 0.8,-5 1.8,-5 1,0 1.2,-1 0.3,-1 5.3,-5 5,-4 12.7,-6.8 7.8,-2.7 24.8,-3.4 z" />
  <path
     style="fill:#fafdfd;fill-rule:evenodd;stroke:#fafdfd;stroke-width:0.5"
     inkscape:connector-curvature="0"
     id="path60"
     d="m 549,388.8 v 0.2 l -0.2,1 q -0.3,1 -1.3,3 -1,2 -4.3,4.2 -3.2,2.3 -7.7,2.8 -4.5,0.5 -8.5,-1.5 -4,-2 -6.5,-5.7 l -2.5,-3.8 15.5,-0.2 q 15.5,-0.3 15.5,0 z" />
  <path
     style="fill:#80ca33;fill-rule:evenodd;stroke:#80ca33;stroke-width:0.5"
     inkscape:connector-curvature="0"
     id="path62"
     d="m 563.5,304.8 2.5,0.2 8.5,3.2 q 8.5,3.3 14.7,8.6 6.3,5.2 7.8,10.2 1.5,5 -1.2,9.8 -2.8,4.7 -8.3,9.2 -5.5,4.5 -16.5,8.5 -11,4 -12.5,4.3 l -1.5,0.2 -1,0.2 q -1,0.3 -1,0.6 v 0.2 l -12.5,-0.2 q -12.5,-0.3 -30,-2 L 495,356 v -0.5 l 0.2,-0.3 0.3,-0.2 0.3,-0.2 0.2,-0.3 -2,-0.5 -2,-0.5 -0.2,-0.3 -0.3,-0.2 -0.3,-0.2 -0.2,-0.3 -0.2,-0.3 -0.3,-0.2 -0.3,-0.2 -0.2,-0.3 0.2,-0.3 0.3,-0.2 v -1 l -0.3,-0.2 -0.2,-0.3 0.2,-0.3 0.3,-0.2 0.3,-0.2 0.2,-0.3 -1,-0.5 -1,-0.5 V 347 l 1,-0.2 1,-0.3 14,-1 q 14,-1 21,-3.3 7,-2.2 7,-3.2 0,-1 2,-1.8 2,-0.7 2.2,-1 l 0.3,-0.2 v -1 l -0.3,-0.2 -0.2,-0.3 0.2,-0.3 0.3,-0.2 0.5,-1.5 0.5,-1.5 v -1 l -0.5,-1 -0.5,-1 -0.5,-1.5 q -0.5,-1.5 -0.8,-2.5 -0.2,-1 -10.2,-4.2 -10,-3.3 -23,-4.3 l -13,-1 -0.2,-0.3 -0.3,-0.2 H 489 l -0.2,-0.5 -0.3,-0.5 -0.3,-0.2 -0.2,-0.3 1.5,-0.3 1.5,-0.2 0.2,-1 0.3,-1 v -1 l -0.3,-0.2 -0.2,-0.3 0.2,-0.3 0.3,-0.2 v -1 l -0.3,-0.2 -0.2,-0.3 V 306 l 26.5,-1.8 q 26.5,-1.7 35,-0.7 8.5,1 11,1.3 z" />
</svg>
