<?xml version="1.0" encoding="UTF-8" standalone="no"?>
<svg
   xmlns:dc="http://purl.org/dc/elements/1.1/"
   xmlns:cc="http://creativecommons.org/ns#"
   xmlns:rdf="http://www.w3.org/1999/02/22-rdf-syntax-ns#"
   xmlns:svg="http://www.w3.org/2000/svg"
   xmlns="http://www.w3.org/2000/svg"
   xmlns:sodipodi="http://sodipodi.sourceforge.net/DTD/sodipodi-0.dtd"
   xmlns:inkscape="http://www.inkscape.org/namespaces/inkscape"
   version="1.1"
   id="Frame_0"
   width="455.03952"
   height="435.53131"
   sodipodi:docname="guara.svg"
   inkscape:version="1.0.1 (3bc2e813f5, 2020-09-07)">
  <metadata
     id="metadata354">
    <rdf:RDF>
      <cc:Work
         rdf:about="">
        <dc:format>image/svg+xml</dc:format>
        <dc:type
           rdf:resource="http://purl.org/dc/dcmitype/StillImage" />
      </cc:Work>
    </rdf:RDF>
  </metadata>
  <defs
     id="defs352">
    <clipPath
       id="0b3b31db-e894-425d-91bf-6905095a3c26">
      <path
         fill="#af692b"
         fill-rule="evenodd"
         stroke="none"
         d="m 346.286,302.369 c 1.463,1.336 3.313,3.281 5.013,4.297 0.848,0.507 2.191,0.756 3.044,1.254 1.189,0.693 2.312,2.334 3.581,2.864 3.179,1.328 8.025,0.98 11.46,0.717 6.053,-0.465 13.93,-2.754 19.696,-4.656 4.32,-1.425 9.671,-4.408 13.966,-5.909 1.637,-0.572 3.819,-1.526 5.55,-1.611 4.464,-0.22 10.788,0.919 14.504,3.402 4.361,2.914 7.08,9.985 10.027,14.324 2.734,4.027 6.855,9.143 8.925,13.548 1.974,4.2 2.464,10.636 4.533,14.79 4.664,9.367 14.043,20.069 21.231,27.673 11.454,12.114 27.343,28.846 42.483,35.827 24.291,11.199 61.619,10.753 88.332,12.134 16.873,0.872 39.624,1.257 56.3,-1.457 18.501,-3.01 41.816,-12.82 59.698,-18.443 26.493,-8.33 65.267,-12.523 88.16,-28.247 9.237,-6.344 20.058,-17.803 24.74,-27.984 3.192,-6.943 2.989,-17.579 4.055,-25.145 0.274,-1.943 1.482,-4.646 0.812,-6.489 -3.056,-8.405 -16.83,-12.458 -24.74,-16.629 -9.713,-5.122 -23.543,-10.255 -34.068,-13.384 -16.171,-4.807 -38.366,-9.325 -55.158,-10.95 -19.619,-1.899 -45.997,-0.073 -65.702,0.405 -16.851,0.41 -39.29,1.84 -56.138,2.352 -6.631,0.202 -15.555,1.498 -22.107,0.461 -9.584,-1.517 -21.75,-6.65 -30.397,-11.053 -5.157,-2.626 -11.381,-7.273 -16.12,-10.593 -10.342,-7.247 -23.589,-17.659 -33.62,-25.331 -8.057,-6.162 -18.407,-14.904 -26.713,-20.725 -5.517,-3.867 -12.966,-8.957 -18.951,-12.052 -2.785,-1.44 -6.492,-3.94 -9.624,-4.072 -8.16,-0.342 -18.489,5.672 -25.173,10.365 -3.278,2.302 -6.545,6.675 -9.254,9.625 -2.448,2.666 -5.695,6.245 -7.959,9.069 -2.833,3.536 -5.912,8.795 -8.884,12.216 -2.105,2.424 -5.306,5.289 -7.645,7.488 -0.817,0.768 -2.094,1.616 -2.765,2.514 -1.02,1.364 -1.638,3.622 -2.388,5.152 -0.615,1.257 -1.844,2.778 -2.136,4.147 -0.473,2.22 1.233,5.352 0.628,7.54 -1.263,4.574 -6.671,8.864 -9.927,12.315 -3.614,3.831 -9.092,8.267 -13.021,11.773 -1.802,1.608 -4.444,3.511 -6.037,5.326 -0.988,1.127 -2.101,2.806 -2.835,4.112 -0.507,0.902 -0.999,2.198 -1.427,3.14 0,0 0,0 0,0 -0.011,-0.003 4.178,4.19 6.051,5.9 z"
         id="path62" />
    </clipPath>
    <clipPath
       id="c3c5fa72-2980-41bf-abd1-5a28f53e24fe">
      <path
         fill="#af692b"
         fill-rule="evenodd"
         stroke="none"
         d="m 495.62,362.051 c 2.973,11.723 13.832,24.617 19.086,35.51 3.343,6.929 5.776,17.237 10.209,23.525 1.736,2.462 5.855,4.359 7.102,7.102 2.975,6.546 -0.454,16.792 0,23.969 0.466,7.368 2.894,17.032 3.107,24.412 0.343,11.883 -1.387,27.742 -3.107,39.504 -1.578,10.793 -2.576,25.877 -7.608,35.555 -2.943,5.658 -8.83,12.28 -14.033,15.968 -5.047,3.577 -14.749,3.357 -19.114,7.742 -2.199,2.21 -4.568,6.325 -4.355,9.436 0.297,4.319 4.399,9.833 8.226,11.855 6.878,3.633 18.472,0.894 25.888,-1.452 2.945,-0.931 6.599,-3.081 8.952,-5.08 5.133,-4.362 9.893,-12.247 13.549,-17.904 5.147,-7.965 10.516,-19.469 15.001,-27.824 1.674,-3.119 4.701,-6.971 5.564,-10.403 1.435,-5.704 -1.094,-13.749 -0.483,-19.598 0.736,-7.056 4.283,-16.007 5.564,-22.985 1.934,-10.533 2.967,-24.811 4.306,-35.437 1.071,-8.496 3.275,-19.751 3.692,-28.304 0.245,-5.04 -0.764,-11.783 -0.41,-16.818 0.639,-9.102 5.626,-20.824 5.332,-29.944 -0.512,-15.901 -4.873,-38.071 -13.889,-51.178 -5.787,-8.413 -17.199,-17.651 -26.891,-20.864 -7.261,-2.407 -18.209,-2.316 -25.5,0 -7.135,2.266 -14.28,10.061 -20.4,14.373 0,0 0,0 0,0 0.063,0.2 -2.653,27.545 0.212,38.84 z"
         id="path137" />
      <path
         fill="#af692b"
         fill-rule="evenodd"
         stroke="none"
         d="m 728.008,349.341 c -3.412,12.127 -0.465,29.555 1.748,41.957 2.39,13.389 6.591,31.71 13.986,43.124 2.286,3.527 6.712,7.176 9.907,9.907 9.255,7.908 23.286,16.268 33.217,23.31 10.527,7.465 25.563,16.217 34.965,25.058 5.968,5.612 14.096,13.518 17.482,20.979 3.872,8.533 4.613,21.515 4.662,30.885 0.023,4.438 0.505,10.876 -1.771,14.685 -2.197,3.677 -7.857,6.263 -11.647,8.259 -2.704,1.423 -7.11,1.733 -9.529,3.6 -3.404,2.626 -7.638,7.579 -8.047,11.858 -0.313,3.265 1.575,7.983 4.023,10.165 5.965,5.315 18.329,5.425 26.259,4.447 5.738,-0.708 13.661,-3.364 17.788,-7.412 6.865,-6.732 9.582,-20.468 11.647,-29.858 3.223,-14.659 0.237,-35.114 2.33,-49.977 0.59,-4.195 4.181,-9.729 3.003,-13.799 -1.263,-4.366 -7.439,-7.56 -10.713,-10.713 -5.586,-5.378 -13.752,-11.815 -18.992,-17.531 -4.995,-5.449 -12.064,-12.735 -15.096,-19.478 -2.079,-4.625 -4.655,-11.641 -3.408,-16.557 1.476,-5.821 10.407,-9.752 13.148,-15.096 4.981,-9.709 7.53,-24.735 7.254,-35.644 -0.288,-11.376 -4.987,-26.278 -9.504,-36.722 -3.884,-8.978 -9.435,-21.809 -17.281,-27.65 -11.55,-8.596 -32.261,-11.262 -46.659,-11.232 -6.888,0.014 -15.725,3.326 -22.465,4.752 0,0 0,0 0,0 -0.2,0.066 -22.506,25.173 -26.307,38.683 z"
         id="path139" />
    </clipPath>
  </defs>
  <sodipodi:namedview
     pagecolor="#ffffff"
     bordercolor="#666666"
     borderopacity="1"
     objecttolerance="10"
     gridtolerance="10"
     guidetolerance="10"
     inkscape:pageopacity="0"
     inkscape:pageshadow="2"
     inkscape:window-width="1848"
     inkscape:window-height="1043"
     id="namedview350"
     showgrid="false"
     inkscape:zoom="1.4528835"
     inkscape:cx="104.13343"
     inkscape:cy="246.16375"
     inkscape:window-x="72"
     inkscape:window-y="0"
     inkscape:window-maximized="1"
     inkscape:current-layer="Frame_0" />
  <g
     id="Layer_2"
     transform="matrix(0.75251909,0,0,1,-255.62292,-163.20359)">
    <clipPath
       id="b4b1ceb3-8685-4516-83dd-516eaec9ea44">
      <path
         fill="#af692b"
         fill-rule="evenodd"
         stroke="none"
         d="m 450.977,339.207 c 2.974,11.723 13.832,24.616 19.087,35.509 3.342,6.929 5.776,17.237 10.208,23.525 1.737,2.463 5.856,4.359 7.102,7.102 2.976,6.546 -0.453,16.793 0,23.969 0.466,7.368 2.894,17.033 3.107,24.413 0.344,11.883 -1.386,27.741 -3.107,39.504 -1.578,10.793 -2.575,25.877 -7.608,35.554 -2.942,5.658 -8.83,12.28 -14.033,15.968 -5.047,3.578 -14.749,3.358 -19.113,7.742 -2.2,2.21 -4.569,6.326 -4.355,9.436 0.296,4.319 4.398,9.834 8.226,11.856 6.878,3.633 18.471,0.894 25.888,-1.452 2.944,-0.931 6.599,-3.082 8.952,-5.081 5.133,-4.361 9.893,-12.247 13.549,-17.904 5.147,-7.964 10.515,-19.468 15,-27.824 1.674,-3.118 4.702,-6.97 5.565,-10.403 1.434,-5.703 -1.094,-13.748 -0.484,-19.597 0.736,-7.057 4.283,-16.007 5.565,-22.985 1.934,-10.533 2.966,-24.812 4.306,-35.437 1.071,-8.496 3.275,-19.751 3.691,-28.304 0.246,-5.041 -0.763,-11.784 -0.41,-16.818 0.64,-9.102 5.627,-20.825 5.333,-29.944 -0.513,-15.901 -4.873,-38.072 -13.89,-51.179 -5.787,-8.412 -17.199,-17.651 -26.891,-20.864 -7.261,-2.407 -18.209,-2.316 -25.5,0 -7.135,2.267 -14.28,10.061 -20.4,14.373 0,0 0,0 0,0 0.064,0.201 -2.653,27.546 0.212,38.841 z"
         id="path2" />
      <path
         fill="#af692b"
         fill-rule="evenodd"
         stroke="none"
         d="m 683.365,326.496 c -3.411,12.128 -0.464,29.556 1.749,41.958 2.389,13.389 6.591,31.709 13.986,43.123 2.285,3.528 6.711,7.176 9.907,9.907 9.255,7.909 23.286,16.268 33.216,23.31 10.527,7.465 25.564,16.218 34.965,25.058 5.968,5.612 14.097,13.519 17.482,20.979 3.873,8.533 4.614,21.515 4.662,30.886 0.023,4.437 0.505,10.875 -1.771,14.684 -2.197,3.677 -7.857,6.263 -11.647,8.259 -2.703,1.424 -7.109,1.733 -9.529,3.6 -3.404,2.626 -7.637,7.579 -8.047,11.859 -0.312,3.264 1.575,7.982 4.024,10.164 5.965,5.316 18.329,5.426 26.258,4.447 5.738,-0.708 13.661,-3.363 17.789,-7.411 6.864,-6.733 9.582,-20.468 11.646,-29.859 3.224,-14.659 0.238,-35.114 2.33,-49.976 0.591,-4.196 4.181,-9.73 3.003,-13.799 -1.263,-4.366 -7.438,-7.561 -10.713,-10.714 -5.585,-5.377 -13.752,-11.814 -18.991,-17.53 -4.996,-5.45 -12.065,-12.736 -15.096,-19.479 -2.08,-4.625 -4.656,-11.641 -3.409,-16.556 1.477,-5.822 10.407,-9.753 13.148,-15.096 4.981,-9.71 7.53,-24.736 7.254,-35.645 -0.287,-11.376 -4.986,-26.277 -9.504,-36.722 -3.883,-8.978 -9.434,-21.809 -17.281,-27.649 -11.55,-8.596 -32.261,-11.263 -46.658,-11.233 -6.889,0.014 -15.726,3.327 -22.466,4.752 0,0 0,0 0,0 -0.199,0.067 -22.506,25.173 -26.307,38.683 z"
         id="path4" />
    </clipPath>
    <path
       fill="#af692b"
       fill-rule="evenodd"
       stroke="#af692b"
       stroke-width="1"
       stroke-opacity="0"
       stroke-linecap="round"
       stroke-linejoin="round"
       d="m 450.977,339.207 c 2.974,11.723 13.832,24.616 19.087,35.509 3.342,6.929 5.776,17.237 10.208,23.525 1.737,2.463 5.856,4.359 7.102,7.102 2.976,6.546 -0.453,16.793 0,23.969 0.466,7.368 2.894,17.033 3.107,24.413 0.344,11.883 -1.386,27.741 -3.107,39.504 -1.578,10.793 -2.575,25.877 -7.608,35.554 -2.942,5.658 -8.83,12.28 -14.033,15.968 -5.047,3.578 -14.749,3.358 -19.113,7.742 -2.2,2.21 -4.569,6.326 -4.355,9.436 0.296,4.319 4.398,9.834 8.226,11.856 6.878,3.633 18.471,0.894 25.888,-1.452 2.944,-0.931 6.599,-3.082 8.952,-5.081 5.133,-4.361 9.893,-12.247 13.549,-17.904 5.147,-7.964 10.515,-19.468 15,-27.824 1.674,-3.118 4.702,-6.97 5.565,-10.403 1.434,-5.703 -1.094,-13.748 -0.484,-19.597 0.736,-7.057 4.283,-16.007 5.565,-22.985 1.934,-10.533 2.966,-24.812 4.306,-35.437 1.071,-8.496 3.275,-19.751 3.691,-28.304 0.246,-5.041 -0.763,-11.784 -0.41,-16.818 0.64,-9.102 5.627,-20.825 5.333,-29.944 -0.513,-15.901 -4.873,-38.072 -13.89,-51.179 -5.787,-8.412 -17.199,-17.651 -26.891,-20.864 -7.261,-2.407 -18.209,-2.316 -25.5,0 -7.135,2.267 -14.28,10.061 -20.4,14.373 0,0 0,0 0,0 0.064,0.201 -2.653,27.546 0.212,38.841 z"
       id="path7" />
    <path
       fill="#af692b"
       fill-rule="evenodd"
       stroke="#af692b"
       stroke-width="1"
       stroke-opacity="0"
       stroke-linecap="round"
       stroke-linejoin="round"
       d="m 683.365,326.496 c -3.411,12.128 -0.464,29.556 1.749,41.958 2.389,13.389 6.591,31.709 13.986,43.123 2.285,3.528 6.711,7.176 9.907,9.907 9.255,7.909 23.286,16.268 33.216,23.31 10.527,7.465 25.564,16.218 34.965,25.058 5.968,5.612 14.097,13.519 17.482,20.979 3.873,8.533 4.614,21.515 4.662,30.886 0.023,4.437 0.505,10.875 -1.771,14.684 -2.197,3.677 -7.857,6.263 -11.647,8.259 -2.703,1.424 -7.109,1.733 -9.529,3.6 -3.404,2.626 -7.637,7.579 -8.047,11.859 -0.312,3.264 1.575,7.982 4.024,10.164 5.965,5.316 18.329,5.426 26.258,4.447 5.738,-0.708 13.661,-3.363 17.789,-7.411 6.864,-6.733 9.582,-20.468 11.646,-29.859 3.224,-14.659 0.238,-35.114 2.33,-49.976 0.591,-4.196 4.181,-9.73 3.003,-13.799 -1.263,-4.366 -7.438,-7.561 -10.713,-10.714 -5.585,-5.377 -13.752,-11.814 -18.991,-17.53 -4.996,-5.45 -12.065,-12.736 -15.096,-19.479 -2.08,-4.625 -4.656,-11.641 -3.409,-16.556 1.477,-5.822 10.407,-9.753 13.148,-15.096 4.981,-9.71 7.53,-24.736 7.254,-35.645 -0.287,-11.376 -4.986,-26.277 -9.504,-36.722 -3.883,-8.978 -9.434,-21.809 -17.281,-27.649 -11.55,-8.596 -32.261,-11.263 -46.658,-11.233 -6.889,0.014 -15.726,3.327 -22.466,4.752 0,0 0,0 0,0 -0.199,0.067 -22.506,25.173 -26.307,38.683 z"
       id="path9" />
    <path
       fill="#2f2621"
       fill-rule="evenodd"
       stroke="none"
       d="m 492.736,392.752 c 0,0 0,0 0,0 -1.547,-3.548 -2.584,-8.935 -5.156,-11.828 -4.963,-5.583 -15.429,-8.111 -22.041,-11.587 0,0 0,0 0,0 3.347,8.971 6.466,21.557 11.158,29.904 1.968,3.501 6.507,6.996 8.034,10.711 3.12,7.591 2.381,19.024 2.677,27.226 0.668,18.477 2.687,43.768 -2.231,61.592 -3.713,13.454 -12.487,30.729 -21.87,41.061 -5.494,6.05 -19.259,8.043 -22.316,15.622 -0.803,1.99 -0.169,5.084 0.447,7.141 1.31,4.378 4.115,10.591 8.033,12.943 7.233,4.342 20.115,2.665 28.119,0 7.266,-2.42 15.524,-9.379 20.53,-15.175 11.861,-13.732 25.07,-36.35 26.333,-54.451 0.219,-3.144 -2.18,-7.114 -2.232,-10.265 -0.151,-9.267 5.104,-21.02 6.907,-30.111 2.942,-14.832 7.937,-34.616 8.188,-49.735 0.292,-17.625 9.067,-53.394 -7.885,-58.227 -2.348,-0.669 -6.066,1.521 -7.279,3.639 -2.148,3.752 2.868,9.995 2.123,14.254 -1.461,8.361 -14.555,24.259 -14.556,24.261 -4.913,-5.095 -16.375,-16.981 -16.377,-16.983 -0.182,3.002 -0.606,10.007 -0.606,10.008 0,0 0,0 0,0 z"
       clip-path="url(#b4b1ceb3-8685-4516-83dd-516eaec9ea44)"
       id="path11" />
    <path
       fill="none"
       stroke="#af692b"
       stroke-width="1"
       stroke-opacity="0"
       stroke-linecap="round"
       stroke-linejoin="round"
       d="m 509.719,399.727 c 0,0 0,0 0,0 0.001,-0.002 13.095,-15.9 14.556,-24.261 0.745,-4.259 -4.271,-10.502 -2.123,-14.254 1.213,-2.118 4.931,-4.308 7.279,-3.639 16.952,4.833 8.177,40.602 7.885,58.227 -0.251,15.119 -5.246,34.903 -8.188,49.735 -1.803,9.091 -7.058,20.844 -6.907,30.111 0.052,3.151 2.451,7.121 2.232,10.265 -1.263,18.101 -14.472,40.719 -26.333,54.451 -5.006,5.796 -13.264,12.755 -20.53,15.175 -8.004,2.665 -20.886,4.342 -28.119,0 -3.918,-2.352 -6.723,-8.565 -8.033,-12.943 -0.616,-2.057 -1.25,-5.151 -0.447,-7.141 3.057,-7.579 16.822,-9.572 22.316,-15.622 9.383,-10.332 18.157,-27.607 21.87,-41.061 4.918,-17.824 2.899,-43.115 2.231,-61.592 -0.296,-8.202 0.443,-19.635 -2.677,-27.226 -1.527,-3.715 -6.066,-7.21 -8.034,-10.711 -4.692,-8.347 -7.811,-20.933 -11.158,-29.904 6.612,3.476 17.078,6.004 22.041,11.587 2.572,2.893 3.609,8.28 5.156,11.828 0,0 0,0 0,0 0,-0.001 0.424,-7.006 0.606,-10.008 0,0 0,0 0,0 0.002,0.002 11.464,11.888 16.377,16.983 m -44.18,-30.39 c 0,0 0,0 0,0 m 27.197,23.415 c 0,0 0,0 0,0"
       clip-path="url(#b4b1ceb3-8685-4516-83dd-516eaec9ea44)"
       id="path13" />
    <path
       fill="#2f2621"
       fill-rule="evenodd"
       stroke="none"
       d="m 802.496,434.671 c -5.116,-7.085 -13.834,-25.633 -13.836,-25.636 -12.366,1.261 -33.83,-5.791 -41.222,4.203 -4.257,5.757 7.217,18.731 2.13,23.769 -8.089,8.012 -38.128,-19.769 -37.002,-8.439 0.189,1.902 3.431,2.853 4.957,4.006 7.143,5.402 17.354,11.651 24.545,16.987 13.729,10.187 34.31,21.889 44.461,35.645 4.402,5.966 8.562,15.334 9.965,22.614 1.613,8.362 3.895,21.502 -1.15,28.363 -2.897,3.941 -10.776,3.96 -14.948,6.515 -4.318,2.645 -10.959,6.111 -13.031,10.732 -1.364,3.043 -1.024,7.942 0,11.115 1.137,3.524 4.09,8.089 7.282,9.965 5.961,3.504 16.232,2.961 22.997,1.534 9.365,-1.976 22.016,-7.845 27.979,-15.332 7.142,-8.966 8.381,-25.553 9.833,-36.925 1.145,-8.961 0.248,-21.082 0,-30.112 -0.244,-8.921 2.9,-22.014 -1.627,-29.705 -2.217,-3.767 -8.501,-5.68 -11.801,-8.546 -6.455,-5.605 -14.528,-13.82 -19.532,-20.753 z"
       clip-path="url(#b4b1ceb3-8685-4516-83dd-516eaec9ea44)"
       id="path15" />
    <path
       fill="none"
       stroke="#af692b"
       stroke-width="1"
       stroke-opacity="0"
       stroke-linecap="round"
       stroke-linejoin="round"
       d="m 802.496,434.671 c -5.116,-7.085 -13.834,-25.633 -13.836,-25.636 -12.366,1.261 -33.83,-5.791 -41.222,4.203 -4.257,5.757 7.217,18.731 2.13,23.769 -8.089,8.012 -38.128,-19.769 -37.002,-8.439 0.189,1.902 3.431,2.853 4.957,4.006 7.143,5.402 17.354,11.651 24.545,16.987 13.729,10.187 34.31,21.889 44.461,35.645 4.402,5.966 8.562,15.334 9.965,22.614 1.613,8.362 3.895,21.502 -1.15,28.363 -2.897,3.941 -10.776,3.96 -14.948,6.515 -4.318,2.645 -10.959,6.111 -13.031,10.732 -1.364,3.043 -1.024,7.942 0,11.115 1.137,3.524 4.09,8.089 7.282,9.965 5.961,3.504 16.232,2.961 22.997,1.534 9.365,-1.976 22.016,-7.845 27.979,-15.332 7.142,-8.966 8.381,-25.553 9.833,-36.925 1.145,-8.961 0.248,-21.082 0,-30.112 -0.244,-8.921 2.9,-22.014 -1.627,-29.705 -2.217,-3.767 -8.501,-5.68 -11.801,-8.546 -6.455,-5.605 -14.528,-13.82 -19.532,-20.753 M 788.66,409.035 c 0,0 0,0 0,0"
       clip-path="url(#b4b1ceb3-8685-4516-83dd-516eaec9ea44)"
       id="path17" />
  </g>
  <g
     id="Layer_5"
     transform="matrix(0.415902,0,0,0.7139575,18.269208,-79.42167)">
    <clipPath
       id="39558967-c7f4-4b3a-9d75-fc5fc3453d21">
      <path
         fill="#af692b"
         fill-rule="evenodd"
         stroke="none"
         d="m 1049.676,495.418 c 0,0 0,0 0,0 -5.97,-2.239 -14.163,-4.684 -19.903,-7.464 -6.47,-3.134 -14.335,-8.715 -20.486,-12.438 -9.87,-5.974 -23.44,-13.304 -32.932,-19.863 -5.883,-4.066 -13.679,-9.662 -18.818,-14.636 -6.564,-6.354 -13.533,-16.471 -19.34,-23.523 -9.025,-10.958 -21.112,-25.525 -30.114,-36.502 -9.053,-11.037 -19.784,-26.98 -30.071,-36.878 -8.928,-8.592 -21.762,-19.548 -32.907,-24.964 -6.813,-3.312 -17.017,-4.786 -24.31,-6.837 0,0 0,0 0,0 -4.328,4.03 -14.428,13.433 -14.429,13.434 0.299,6.27 0.323,14.658 0.995,20.898 0.763,7.076 2.241,16.485 3.981,23.386 2.897,11.489 7.781,26.649 12.936,37.317 7.746,16.03 20.423,36.533 32.342,49.757 13.579,15.065 34.942,32.573 52.742,42.293 20.964,11.447 52.433,19.189 75.631,24.879 8.247,2.023 19.482,6.339 27.863,4.975 8.043,-1.308 17.972,-7.328 23.884,-12.937 5.349,-5.074 12.935,-20.895 12.936,-20.897 0,0 0,0 0,0 z"
         id="path20" />
    </clipPath>
    <path
       fill="#af692b"
       fill-rule="evenodd"
       stroke="none"
       d="m 1049.676,495.418 c 0,0 0,0 0,0 -5.97,-2.239 -14.163,-4.684 -19.903,-7.464 -6.47,-3.134 -14.335,-8.715 -20.486,-12.438 -9.87,-5.974 -23.44,-13.304 -32.932,-19.863 -5.883,-4.066 -13.679,-9.662 -18.818,-14.636 -6.564,-6.354 -13.533,-16.471 -19.34,-23.523 -9.025,-10.958 -21.112,-25.525 -30.114,-36.502 -9.053,-11.037 -19.784,-26.98 -30.071,-36.878 -8.928,-8.592 -21.762,-19.548 -32.907,-24.964 -6.813,-3.312 -17.017,-4.786 -24.31,-6.837 0,0 0,0 0,0 -4.328,4.03 -14.428,13.433 -14.429,13.434 0.299,6.27 0.323,14.658 0.995,20.898 0.763,7.076 2.241,16.485 3.981,23.386 2.897,11.489 7.781,26.649 12.936,37.317 7.746,16.03 20.423,36.533 32.342,49.757 13.579,15.065 34.942,32.573 52.742,42.293 20.964,11.447 52.433,19.189 75.631,24.879 8.247,2.023 19.482,6.339 27.863,4.975 8.043,-1.308 17.972,-7.328 23.884,-12.937 5.349,-5.074 12.935,-20.895 12.936,-20.897 0,0 0,0 0,0 z"
       id="path23" />
    <path
       fill="none"
       stroke="#96561c"
       stroke-width="1"
       stroke-linecap="round"
       stroke-linejoin="round"
       d="m 806.366,325.747 c 0,0 0,0 0,0 10e-4,-0.001 10.101,-9.404 14.429,-13.434 7.293,2.051 17.497,3.525 24.31,6.837 11.145,5.416 23.979,16.372 32.907,24.964 10.287,9.898 21.018,25.841 30.071,36.878 9.002,10.977 21.089,25.544 30.114,36.502 5.807,7.052 12.776,17.169 19.34,23.523 5.139,4.974 12.935,10.57 18.818,14.636 9.492,6.559 23.062,13.889 32.932,19.863 6.151,3.723 14.016,9.304 20.486,12.438 5.74,2.78 13.933,5.225 19.903,7.464 0,0 0,0 0,0 -10e-4,0.002 -7.587,15.823 -12.936,20.897 -5.912,5.609 -15.841,11.629 -23.884,12.937 -8.381,1.364 -19.616,-2.952 -27.863,-4.975 -23.198,-5.69 -54.667,-13.432 -75.631,-24.879 -17.8,-9.72 -39.163,-27.228 -52.742,-42.293 -11.919,-13.224 -24.596,-33.727 -32.342,-49.757 -5.155,-10.668 -10.039,-25.828 -12.936,-37.317 -1.74,-6.901 -3.218,-16.31 -3.981,-23.386 -0.672,-6.24 -0.696,-14.628 -0.995,-20.898 m 14.429,-13.434 c 0,0 0,0 0,0 m 228.881,183.105 c 0,0 0,0 0,0"
       id="path25" />
    <path
       fill="#ca8548"
       fill-rule="evenodd"
       stroke="none"
       d="m 1054.164,505.068 c 0,0 0,0 0,0 -2.362,-0.675 -5.589,-1.348 -7.873,-2.25 -13.277,-5.241 -29.286,-15.87 -41.617,-23.058 -15.05,-8.772 -36.472,-18.795 -49.491,-30.369 -11.756,-10.451 -22.914,-28.674 -32.618,-41.055 -9.869,-12.589 -22.017,-30.2 -32.619,-42.179 -11.781,-13.311 -27.011,-32.348 -42.179,-41.617 -8.561,-5.231 -22.046,-7.873 -31.494,-11.247 0,0 0,0 0,0 -0.506,-1.856 -1.687,-6.186 -1.687,-6.187 11.304,2.194 27.281,2.367 37.68,7.311 17.273,8.212 34.87,28.09 47.803,42.18 16.408,17.873 31.381,47.376 47.803,65.237 7.521,8.179 18.802,17.904 27.558,24.745 16.592,12.965 42.201,25.458 58.488,38.805 6.552,5.369 20.244,19.682 20.246,19.684 0,0 0,0 0,0 z"
       clip-path="url(#39558967-c7f4-4b3a-9d75-fc5fc3453d21)"
       id="path27" />
    <path
       fill="none"
       stroke="#af692b"
       stroke-width="1"
       stroke-opacity="0"
       stroke-linecap="round"
       stroke-linejoin="round"
       d="m 814.586,307.106 c 0,0 0,0 0,0 0,0.001 1.181,4.331 1.687,6.187 9.448,3.374 22.933,6.016 31.494,11.247 15.168,9.269 30.398,28.306 42.179,41.617 10.602,11.979 22.75,29.59 32.619,42.179 9.704,12.381 20.862,30.604 32.618,41.055 13.019,11.574 34.441,21.597 49.491,30.369 12.331,7.188 28.34,17.817 41.617,23.058 2.284,0.902 5.511,1.575 7.873,2.25 0,0 0,0 0,0 0,-0.002 -13.694,-14.315 -20.246,-19.684 -16.287,-13.347 -41.896,-25.84 -58.488,-38.805 -8.756,-6.841 -20.037,-16.566 -27.558,-24.745 -16.422,-17.861 -31.395,-47.364 -47.803,-65.237 -12.933,-14.09 -30.53,-33.968 -47.803,-42.18 -10.399,-4.944 -26.376,-5.117 -37.68,-7.311 m 1.687,6.187 c 0,0 0,0 0,0 m 237.891,191.775 c 0,0 0,0 0,0"
       clip-path="url(#39558967-c7f4-4b3a-9d75-fc5fc3453d21)"
       id="path29" />
    <path
       fill="#bec1c8"
       fill-rule="evenodd"
       stroke="none"
       d="m 1037.497,486.67 c 5.84,3.41 20.339,9.718 20.341,9.719 -2.577,5.22 -4.741,13.033 -8.588,17.403 -7.862,8.927 -22.314,17.88 -33.902,20.567 -10.406,2.413 -35.481,-2.938 -35.484,-2.939 9.289,-12.408 25.597,-26.818 30.963,-41.36 2.103,-5.697 -1.711,-15.521 2.26,-20.115 0.1,-0.115 0.301,-0.22 0.453,-0.226 8.797,-0.342 16.354,12.512 23.957,16.951 z"
       clip-path="url(#39558967-c7f4-4b3a-9d75-fc5fc3453d21)"
       id="path31" />
    <path
       fill="none"
       stroke="#af692b"
       stroke-width="1"
       stroke-opacity="0"
       stroke-linecap="round"
       stroke-linejoin="round"
       d="m 1037.497,486.67 c 5.84,3.41 20.339,9.718 20.341,9.719 0,0 0,0 0,0 -2.577,5.22 -4.741,13.033 -8.588,17.403 -7.862,8.927 -22.314,17.88 -33.902,20.567 -10.406,2.413 -35.481,-2.938 -35.484,-2.939 9.289,-12.408 25.597,-26.818 30.963,-41.36 2.103,-5.697 -1.711,-15.521 2.26,-20.115 0.1,-0.115 0.301,-0.22 0.453,-0.226 8.797,-0.342 16.354,12.512 23.957,16.951 m -57.633,44.75 c 0,0 0,0 0,0"
       clip-path="url(#39558967-c7f4-4b3a-9d75-fc5fc3453d21)"
       id="path33" />
    <path
       fill="#aaaaaa"
       d="m 1005.118,507.822 c 9.291,10e-4 18.749,-2.203 28.13,-2.322 l 0.01,0.716 c -9.313,0.114 -18.833,1.749 -28.139,1.749 z"
       clip-path="url(#39558967-c7f4-4b3a-9d75-fc5fc3453d21)"
       id="path35" />
    <path
       fill="#aaaaaa"
       d="m 1033.248,505.5 c 1.354,-0.017 8.087,0.103 8.04,-2.076 h 0.143 c -0.048,2.314 -6.812,2.775 -8.174,2.792 z"
       clip-path="url(#39558967-c7f4-4b3a-9d75-fc5fc3453d21)"
       id="path37" />
    <path
       fill="none"
       stroke="#aaaaaa"
       stroke-width="1"
       stroke-linecap="butt"
       stroke-linejoin="round"
       d="m 1033.248,505.5 0.01,0.716"
       clip-path="url(#39558967-c7f4-4b3a-9d75-fc5fc3453d21)"
       id="path39" />
    <path
       fill="#aaaaaa"
       d="m 995.32,521.932 c 5.915,-3.343 11.97,-6.851 18.371,-9.254 l 0.251,0.67 c -6.359,2.386 -12.638,5.367 -18.552,8.709 z"
       clip-path="url(#39558967-c7f4-4b3a-9d75-fc5fc3453d21)"
       id="path41" />
    <path
       fill="none"
       stroke="#aaaaaa"
       stroke-width="1"
       stroke-linecap="butt"
       stroke-linejoin="round"
       d="m 995.32,521.932 0.07,0.125"
       clip-path="url(#39558967-c7f4-4b3a-9d75-fc5fc3453d21)"
       id="path43" />
    <path
       fill="#aaaaaa"
       d="m 1013.691,512.678 c 6.478,-2.431 13.244,-3.733 20.174,-3.733 v 0.143 c -6.913,-0.001 -13.487,1.844 -19.923,4.26 z"
       clip-path="url(#39558967-c7f4-4b3a-9d75-fc5fc3453d21)"
       id="path45" />
    <path
       fill="none"
       stroke="#aaaaaa"
       stroke-width="1"
       stroke-linecap="butt"
       stroke-linejoin="round"
       d="m 1013.691,512.678 0.251,0.67"
       clip-path="url(#39558967-c7f4-4b3a-9d75-fc5fc3453d21)"
       id="path47" />
    <path
       fill="#aaaaaa"
       d="m 1015.405,486.2 c 3.928,3.928 7.913,7.039 12.13,9.369 l -0.347,0.626 c -4.282,-2.372 -7.952,-5.963 -11.884,-9.894 z"
       clip-path="url(#39558967-c7f4-4b3a-9d75-fc5fc3453d21)"
       id="path49" />
    <path
       fill="none"
       stroke="#aaaaaa"
       stroke-width="1"
       stroke-linecap="butt"
       stroke-linejoin="round"
       d="m 1015.405,486.2 -0.101,0.101"
       clip-path="url(#39558967-c7f4-4b3a-9d75-fc5fc3453d21)"
       id="path51" />
    <path
       fill="#aaaaaa"
       d="m 1027.535,495.569 c 4.279,2.369 8.888,4.015 14.628,4.014 v 0.143 c -5.759,0 -10.624,-1.127 -14.975,-3.531 z"
       clip-path="url(#39558967-c7f4-4b3a-9d75-fc5fc3453d21)"
       id="path53" />
    <path
       fill="none"
       stroke="#aaaaaa"
       stroke-width="1"
       stroke-linecap="butt"
       stroke-linejoin="round"
       d="m 1027.535,495.569 -0.347,0.626"
       clip-path="url(#39558967-c7f4-4b3a-9d75-fc5fc3453d21)"
       id="path55" />
    <path
       fill="#e6e6e7"
       fill-rule="evenodd"
       stroke="none"
       d="m 1051.176,498.109 c 0,0 0,0 0,0 -4.401,-0.599 -10.405,-0.754 -14.67,-1.995 -7.998,-2.327 -17.498,-8.462 -24.998,-12.088 0,0 0,0 0,0 -0.14,-2.57 -0.469,-8.566 -0.469,-8.567 0.915,0.633 2.109,1.52 3.051,2.112 4.763,2.993 11.323,6.68 16.431,9.037 5.908,2.725 20.301,7.628 20.303,7.628 0.106,1.162 0.352,3.872 0.352,3.873 0,0 0,0 0,0 z"
       clip-path="url(#39558967-c7f4-4b3a-9d75-fc5fc3453d21)"
       id="path57" />
    <path
       fill="none"
       stroke="#e6e6e7"
       stroke-width="1"
       stroke-linecap="round"
       stroke-linejoin="round"
       d="m 1050.824,494.236 c 0,0 0,0 0,0 0,0 -14.395,-4.903 -20.303,-7.628 -5.108,-2.357 -11.668,-6.044 -16.431,-9.037 -0.942,-0.592 -2.136,-1.479 -3.051,-2.112 0,0 0,0 0,0 0,10e-4 0.329,5.997 0.469,8.567 7.5,3.626 17,9.761 24.998,12.088 4.265,1.241 10.269,1.396 14.67,1.995 0,0 0,0 0,0 0,-10e-4 -0.246,-2.711 -0.352,-3.873 m -39.316,-10.21 c 0,0 0,0 0,0 m 39.668,14.083 c 0,0 0,0 0,0"
       clip-path="url(#39558967-c7f4-4b3a-9d75-fc5fc3453d21)"
       id="path59" />
  </g>
  <path
     fill="#af692b"
     fill-rule="evenodd"
     stroke="#96561c"
     stroke-width="0.867479"
     stroke-linecap="round"
     stroke-linejoin="round"
     d="m 4.9639064,139.16541 c 1.1009354,1.336 2.4930957,3.281 3.7723782,4.297 0.6381362,0.507 1.6487694,0.756 2.2906684,1.254 0.894745,0.693 1.739824,2.334 2.694771,2.864 2.392258,1.328 6.038965,0.98 8.623869,0.717 4.554998,-0.465 10.48259,-2.754 14.821616,-4.656 3.250882,-1.425 7.277612,-4.408 10.509681,-5.909 1.231874,-0.572 2.873871,-1.526 4.176481,-1.611 3.359245,-0.22 8.118176,0.919 10.914537,3.402 3.281736,2.914 5.327835,9.985 7.545509,14.324 2.057387,4.027 5.158518,9.143 6.716233,13.548 1.485472,4.2 1.854207,10.636 3.411169,14.79 3.509749,9.367 10.567625,20.069 15.976733,27.673 8.619348,12.114 20.576128,28.846 31.969268,35.827 18.27944,11.199 46.36947,10.753 66.47152,12.134 12.69725,0.872 29.81781,1.257 42.36682,-1.457 13.92236,-3.01 31.46734,-12.82 44.92388,-18.443 19.93649,-8.33 49.11467,-12.523 66.34209,-28.247 6.95102,-6.344 15.09403,-17.803 18.61732,-27.984 2.40204,-6.943 2.24928,-17.579 3.05146,-25.145 0.2062,-1.943 1.11524,-4.646 0.61105,-6.489 -2.2997,-8.405 -12.6649,-12.458 -18.61732,-16.629 -7.30922,-5.122 -17.71656,-10.255 -25.63682,-13.384 -12.16899,-4.807 -28.87115,-9.325 -41.50745,-10.95 -14.76367,-1.899 -34.61362,-0.073 -49.44201,0.405 -12.6807,0.41 -29.56647,1.84 -42.24492,2.352 -4.98995,0.202 -11.70543,1.498 -16.63594,0.461 -7.21214,-1.517 -16.36729,-6.65 -22.87432,-11.053 -3.88074,-2.625998 -8.56442,-7.272998 -12.13061,-10.592998 -7.78255,-7.247 -17.75117,-17.659 -25.29969,-25.331 -6.06304,-6.162 -13.85162,-14.904 -20.102039,-20.725 -4.151648,-3.867 -9.757163,-8.957 -14.26099,-12.052 -2.095765,-1.44 -4.885354,-3.94 -7.242243,-4.072 -6.140556,-0.342 -13.913326,5.672 -18.943163,10.365 -2.466758,2.302 -4.925238,6.675 -6.963812,9.625 -1.842167,2.666 -4.285596,6.245 -5.9893,9.069 -2.131886,3.536 -4.448892,8.795 -6.685379,12.216 -1.584053,2.424 -3.992866,5.289 -5.753009,7.488 -0.614808,0.768 -1.575775,1.616 -2.080715,2.514 -0.767569,1.364 -1.232626,3.622 -1.797015,5.152 -0.4628,1.257 -1.387646,2.778 -1.607381,4.147 -0.355942,2.22 0.927856,5.352 0.472582,7.54 -0.950432,4.573998 -5.020055,8.863998 -7.470257,12.314998 -2.719604,3.831 -6.841904,8.267 -9.7985515,11.773 -1.3560394,1.608 -3.3441948,3.511 -4.5429578,5.326 -0.7434888,1.127 -1.5810426,2.806 -2.1333916,4.112 -0.3815272,0.902 -0.75176655,2.198 -1.07384472,3.14 0,0 0,0 0,0 -0.008278,-0.003 3.14402472,4.19 4.55349302,5.9 z"
     id="path65" />
  <path
     fill="#8e521c"
     d="m 11.881062,122.47741 c 1.588568,0.598 3.571456,-0.316 5.044888,-1.067 l 0.192645,0.668 c -1.513316,0.769 -3.648213,1.14 -5.266881,0.537 z"
     id="path67"
     style="stroke-width:0.867479" />
  <path
     fill="#8e521c"
     d="m 16.92595,121.41041 c 3.620369,-1.838 6.611633,-5.203 9.700724,-8.414 l 0.331108,0.563 c -3.080813,3.203 -6.137546,6.629 -9.839187,8.519 z"
     id="path69"
     style="stroke-width:0.867479" />
  <path
     fill="none"
     stroke="#8e521c"
     stroke-width="0.867479"
     stroke-linecap="butt"
     stroke-linejoin="round"
     d="m 16.92595,121.41041 0.192645,0.668"
     id="path71" />
  <path
     fill="#8e521c"
     d="m 26.626674,112.99641 c 0.781867,-0.813 4.06586,-3.887 3.914604,-5.215 l 0.106105,-0.019 c 0.126423,1.44 -2.906229,4.983 -3.688848,5.797 z"
     id="path73"
     style="stroke-width:0.867479" />
  <path
     fill="none"
     stroke="#8e521c"
     stroke-width="0.867479"
     stroke-linecap="butt"
     stroke-linejoin="round"
     d="m 26.626674,112.99641 0.331861,0.563"
     id="path75" />
  <path
     fill="#8e521c"
     d="m 28.010556,90.678412 c -0.0023,1.49 -0.506445,3.076 -0.814225,4.408 l -0.513971,-0.212 c 0.336376,-1.428 1.223596,-2.749 1.220586,-4.196 z"
     id="path77"
     style="stroke-width:0.867479" />
  <path
     fill="none"
     stroke="#8e521c"
     stroke-width="0.867479"
     stroke-linecap="butt"
     stroke-linejoin="round"
     d="m 28.010556,90.678412 h -0.10761"
     id="path79" />
  <path
     fill="#8e521c"
     d="m 27.196331,95.086412 c -0.849594,3.635 -2.139412,7.122998 -2.136402,10.940998 h -0.10761 c -7.53e-4,-3.845 0.88722,-7.545998 1.730041,-11.152998 z"
     id="path81"
     style="stroke-width:0.867479" />
  <path
     fill="none"
     stroke="#8e521c"
     stroke-width="0.867479"
     stroke-linecap="butt"
     stroke-linejoin="round"
     d="m 27.196331,95.086412 -0.513971,-0.212"
     id="path83" />
  <path
     fill="#8e521c"
     d="m 40.552039,94.504412 c -0.0158,5.551998 -6.311377,8.750998 -9.399716,9.944998 l -0.150503,-0.687 c 3.07103,-1.187 9.458412,-3.807998 9.442609,-9.257998 z"
     id="path85"
     style="stroke-width:0.867479" />
  <path
     fill="none"
     stroke="#8e521c"
     stroke-width="0.867479"
     stroke-linecap="butt"
     stroke-linejoin="round"
     d="m 40.552039,94.504412 h -0.10761"
     id="path87" />
  <path
     fill="#8e521c"
     d="m 31.152323,104.44941 c -0.90227,0.348 -2.174027,0.808 -3.142519,0.878 l -0.01129,-0.296 c 0.925598,-0.062 2.070932,-0.908 3.003304,-1.269 z"
     id="path89"
     style="stroke-width:0.867479" />
  <path
     fill="none"
     stroke="#8e521c"
     stroke-width="0.867479"
     stroke-linecap="butt"
     stroke-linejoin="round"
     d="m 31.152323,104.44941 -0.150503,-0.687"
     id="path91" />
  <path
     fill="#8e521c"
     d="m 28.001526,105.32741 c -0.076,-0.003 -0.04891,-0.03 -0.102343,-0.034 l 0.009,-0.238 c 0.05493,0.004 0.01957,-0.027 0.09858,-0.025 z"
     id="path93"
     style="stroke-width:0.867479" />
  <path
     fill="none"
     stroke="#8e521c"
     stroke-width="0.867479"
     stroke-linecap="butt"
     stroke-linejoin="round"
     d="m 28.001526,105.32741 0.0053,-0.297"
     id="path95" />
  <path
     fill="#8e521c"
     d="m 27.903699,105.05541 c 0.08955,0.119 0.05418,0.192 0,0.121 v 0.143 c -0.05343,-0.072 -0.08955,-0.145 0,-0.026 z"
     id="path97"
     style="stroke-width:0.867479" />
  <path
     fill="none"
     stroke="#8e521c"
     stroke-width="0.867479"
     stroke-linecap="butt"
     stroke-linejoin="round"
     d="m 27.903699,105.05541 v 0.238"
     id="path99" />
  <path
     fill="#ca8548"
     fill-rule="evenodd"
     stroke="none"
     d="m 837.718,308.923 c 3.017,3.496 6.187,14.092 6.188,14.094 -5.878,-3.197 -13.702,-7.485 -19.594,-10.656 -7.921,-4.264 -18.136,-10.701 -26.468,-14.094 -13.503,-5.498 -32.466,-10.411 -46.787,-13.144 -23.645,-4.513 -55.82,-6.828 -79.88,-7.568 -25.984,-0.799 -60.833,6.342 -86.607,2.943 -14.96,-1.973 -34.839,-7.149 -48.348,-13.874 -11.954,-5.95 -24.9,-18.731 -35.708,-26.575 -13.801,-10.016 -31.479,-24.587 -46.421,-32.807 -4.991,-2.745 -11.712,-7.451 -17.407,-7.588 -8.341,-0.199 -18.553,6.352 -25.665,10.713 -4.217,2.585 -9.36,6.861 -12.722,10.489 -4.644,5.014 -7.952,14.079 -12.944,18.747 -1.519,1.42 -4.483,2.186 -5.802,3.794 -1.239,1.509 -0.9,4.846 -2.455,6.026 -0.974,0.738 -3.108,-0.146 -4.018,0.669 -0.931,0.835 -1.388,2.797 -1.115,4.017 0.166,0.746 1.296,1.293 1.562,2.009 0.558,1.507 0.43,3.808 0,5.356 -0.354,1.273 -1.457,2.725 -2.232,3.794 -3.059,4.219 -8.269,8.915 -11.829,12.721 -4.043,4.324 -8.476,11.277 -13.521,14.374 -1.477,0.907 -4.16,3.077 -5.448,1.918 -0.063,-0.056 -0.04,-0.192 -0.052,-0.275 -0.119,-0.83 -0.463,-1.975 -0.242,-2.784 0.721,-2.633 4.126,-4.852 5.931,-6.9 3.849,-4.365 9.837,-9.503 13.036,-14.364 3.758,-5.709 5.741,-14.97 9.337,-20.782 3.312,-5.353 9.314,-11.356 13.253,-16.265 3.1,-3.863 7.126,-9.1 10.241,-12.951 6.052,-7.485 12.421,-19.437 20.481,-24.699 6.943,-4.532 18.231,-8.363 26.505,-7.831 5.281,0.34 11.576,4.337 16.349,6.623 12.623,6.044 28.85,15.405 40.472,23.203 17.803,11.947 36.577,35.432 56.12,44.249 13.544,6.111 33.751,8.585 48.566,9.714 28.756,2.191 67.117,-6.719 95.945,-5.951 20.742,0.552 48.825,1.771 68.749,7.562 23.339,6.783 56.65,17.695 72.53,36.093 z"
     clip-path="url(#0b3b31db-e894-425d-91bf-6905095a3c26)"
     id="path101"
     transform="matrix(0.75251909,0,0,1,-255.62292,-163.20359)" />
  <path
     fill="none"
     stroke="#af692b"
     stroke-width="1"
     stroke-opacity="0"
     stroke-linecap="round"
     stroke-linejoin="round"
     d="m 837.718,308.923 c 3.017,3.496 6.187,14.092 6.188,14.094 -5.878,-3.197 -13.702,-7.485 -19.594,-10.656 -7.921,-4.264 -18.136,-10.701 -26.468,-14.094 -13.503,-5.498 -32.466,-10.411 -46.787,-13.144 -23.645,-4.513 -55.82,-6.828 -79.88,-7.568 -25.984,-0.799 -60.833,6.342 -86.607,2.943 -14.96,-1.973 -34.839,-7.149 -48.348,-13.874 -11.954,-5.95 -24.9,-18.731 -35.708,-26.575 -13.801,-10.016 -31.479,-24.587 -46.421,-32.807 -4.991,-2.745 -11.712,-7.451 -17.407,-7.588 -8.341,-0.199 -18.553,6.352 -25.665,10.713 -4.217,2.585 -9.36,6.861 -12.722,10.489 -4.644,5.014 -7.952,14.079 -12.944,18.747 -1.519,1.42 -4.483,2.186 -5.802,3.794 -1.239,1.509 -0.9,4.846 -2.455,6.026 -0.974,0.738 -3.108,-0.146 -4.018,0.669 -0.931,0.835 -1.388,2.797 -1.115,4.017 0.166,0.746 1.296,1.293 1.562,2.009 0.558,1.507 0.43,3.808 0,5.356 -0.354,1.273 -1.457,2.725 -2.232,3.794 -3.059,4.219 -8.269,8.915 -11.829,12.721 -4.043,4.324 -8.476,11.277 -13.521,14.374 -1.477,0.907 -4.16,3.077 -5.448,1.918 -0.063,-0.056 -0.04,-0.192 -0.052,-0.275 -0.119,-0.83 -0.463,-1.975 -0.242,-2.784 0.721,-2.633 4.126,-4.852 5.931,-6.9 3.849,-4.365 9.837,-9.503 13.036,-14.364 3.758,-5.709 5.741,-14.97 9.337,-20.782 3.312,-5.353 9.314,-11.356 13.253,-16.265 3.1,-3.863 7.126,-9.1 10.241,-12.951 6.052,-7.485 12.421,-19.437 20.481,-24.699 6.943,-4.532 18.231,-8.363 26.505,-7.831 5.281,0.34 11.576,4.337 16.349,6.623 12.623,6.044 28.85,15.405 40.472,23.203 17.803,11.947 36.577,35.432 56.12,44.249 13.544,6.111 33.751,8.585 48.566,9.714 28.756,2.191 67.117,-6.719 95.945,-5.951 20.742,0.552 48.825,1.771 68.749,7.562 23.339,6.783 56.65,17.695 72.53,36.093 m 6.188,14.094 c 0,0 0,0 0,0"
     clip-path="url(#0b3b31db-e894-425d-91bf-6905095a3c26)"
     id="path103"
     transform="matrix(0.75251909,0,0,1,-255.62292,-163.20359)" />
  <path
     fill="#bfc2c9"
     fill-rule="evenodd"
     stroke="none"
     d="m 354.155,286.509 c 0,0 0,0 0,0 -1.566,1.059 -3.917,2.161 -5.219,3.531 -0.809,0.852 -1.345,2.404 -2.092,3.311 -1.828,2.219 -4.986,4.488 -7.123,6.412 0,0 0,0 0,0 5.203,5.278 10.351,15.136 17.343,17.594 6.151,2.162 15.194,-1.128 21.615,-2.262 9.274,-1.639 21.185,-9.682 30.411,-7.792 3.524,0.722 7.885,3.665 10.054,6.535 4.933,6.526 3.071,19.042 6.438,26.498 8.838,19.57 26.064,44.107 43.159,57.102 20.88,15.874 55.847,26.611 81.67,31.207 45.133,8.033 107.595,2.795 152.715,-5.311 39.618,-7.118 133.529,-2.036 127.485,-41.831 -0.664,-4.373 -7.716,-7.358 -11.952,-8.632 -14.811,-4.455 -35.813,4.463 -51.126,6.64 -28.143,4.001 -65.291,12.276 -93.622,14.607 -23.643,1.946 -55.357,1.584 -79.072,0.952 -17.691,-0.472 -41.515,-0.282 -58.876,-3.723 -13.54,-2.683 -32.436,-6.501 -43.65,-14.55 -4.097,-2.94 -9.977,-7.887 -10.828,-12.857 -0.976,-5.705 7.863,-12.197 7.106,-17.934 -0.619,-4.692 -5.266,-10.136 -9.136,-12.858 -4.049,-2.848 -11.771,-1.674 -15.903,-4.399 -3.99,-2.631 -7.206,-8.525 -9.98,-12.416 -2.43,-3.408 -7.449,-11.794 -7.45,-11.795 0.994,-0.124 2.332,-0.623 3.311,-0.414 2.526,0.541 7.035,4.966 7.036,4.967 -0.187,-1.428 -0.116,-3.411 -0.621,-4.76 -1.325,-3.534 -7.449,-10.138 -7.45,-10.139 0.994,-0.062 2.339,0.005 3.311,-0.207 3.099,-0.675 9.725,-4.138 9.726,-4.139 -2.545,-0.682 -5.955,-1.536 -8.484,-2.276 -2.563,-0.749 -5.947,-1.857 -8.484,-2.69 -5.11,-1.678 -12.024,-3.675 -16.968,-5.793 -4.696,-2.013 -10.762,-5.174 -15.105,-7.864 -4.505,-2.789 -14.277,-10.396 -14.278,-10.397 -1.293,1.096 -2.988,2.595 -4.312,3.655 -2.852,2.286 -6.935,4.976 -9.748,7.311 -2.848,2.365 -6.26,5.958 -9.092,8.343 -3.85,3.242 -8.484,8.786 -13.31,10.217 -1.294,0.383 -3.284,0.587 -4.499,0 -1.317,-0.637 -3,-3.843 -3,-3.843 0,0 0,0 0,0 z"
     clip-path="url(#0b3b31db-e894-425d-91bf-6905095a3c26)"
     id="path105"
     transform="matrix(0.75251909,0,0,1,-255.62292,-163.20359)" />
  <path
     fill="none"
     stroke="#af692b"
     stroke-width="1"
     stroke-opacity="0"
     stroke-linecap="round"
     stroke-linejoin="round"
     d="m 461.435,289.846 c 0,0 0,0 0,0 -10e-4,10e-4 -6.627,3.464 -9.726,4.139 -0.972,0.212 -2.317,0.145 -3.311,0.207 0,0 0,0 0,0 10e-4,10e-4 6.125,6.605 7.45,10.139 0.505,1.349 0.434,3.332 0.621,4.76 0,0 0,0 0,0 -10e-4,-0.001 -4.51,-4.426 -7.036,-4.967 -0.979,-0.209 -2.317,0.29 -3.311,0.414 0,0 0,0 0,0 10e-4,10e-4 5.02,8.387 7.45,11.795 2.774,3.891 5.99,9.785 9.98,12.416 4.132,2.725 11.854,1.551 15.903,4.399 3.87,2.722 8.517,8.166 9.136,12.858 0.757,5.737 -8.082,12.229 -7.106,17.934 0.851,4.97 6.731,9.917 10.828,12.857 11.214,8.049 30.11,11.867 43.65,14.55 17.361,3.441 41.185,3.251 58.876,3.723 23.715,0.632 55.429,0.994 79.072,-0.952 28.331,-2.331 65.479,-10.606 93.622,-14.607 15.313,-2.177 36.315,-11.095 51.126,-6.64 4.236,1.274 11.288,4.259 11.952,8.632 6.044,39.795 -87.867,34.713 -127.485,41.831 -45.12,8.106 -107.582,13.344 -152.715,5.311 -25.823,-4.596 -60.79,-15.333 -81.67,-31.207 -17.095,-12.995 -34.321,-37.532 -43.159,-57.102 -3.367,-7.456 -1.505,-19.972 -6.438,-26.498 -2.169,-2.87 -6.53,-5.813 -10.054,-6.535 -9.226,-1.89 -21.137,6.153 -30.411,7.792 -6.421,1.134 -15.464,4.424 -21.615,2.262 -6.992,-2.458 -12.14,-12.316 -17.343,-17.594 2.137,-1.924 5.295,-4.193 7.123,-6.412 0.747,-0.907 1.283,-2.459 2.092,-3.311 1.302,-1.37 3.653,-2.472 5.219,-3.531 0,0 0,0 0,0 0,0 1.683,3.206 3,3.843 1.215,0.587 3.205,0.383 4.499,0 4.826,-1.431 9.46,-6.975 13.31,-10.217 2.832,-2.385 6.244,-5.978 9.092,-8.343 2.813,-2.335 6.896,-5.025 9.748,-7.311 1.324,-1.06 3.019,-2.559 4.312,-3.655 0,0 0,0 0,0 0.001,10e-4 9.773,7.608 14.278,10.397 4.343,2.69 10.409,5.851 15.105,7.864 4.944,2.118 11.858,4.115 16.968,5.793 2.537,0.833 5.921,1.941 8.484,2.69 2.529,0.74 5.939,1.594 8.484,2.276 m -121.714,9.917 c 0,0 0,0 0,0 m 14.434,-13.254 c 0,0 0,0 0,0"
     clip-path="url(#0b3b31db-e894-425d-91bf-6905095a3c26)"
     id="path107"
     transform="matrix(0.75251909,0,0,1,-255.62292,-163.20359)" />
  <path
     fill="#311913"
     fill-rule="evenodd"
     stroke="none"
     d="m 350.21,288.828 c 0,0 0,0 0,0 -0.915,0.487 -2.073,1.275 -3.05,1.623 -0.526,0.188 -1.262,0.365 -1.82,0.394 -0.832,0.042 -1.929,-0.242 -2.755,-0.345 0,0 0,0 0,0 -0.591,0.679 -1.446,1.531 -1.968,2.263 -0.622,0.872 -1.675,2.033 -1.771,3.1 -0.145,1.597 0.998,3.692 1.968,4.969 1.664,2.192 7.477,5.313 7.478,5.313 -0.502,-1.107 -1.316,-2.528 -1.673,-3.69 -0.269,-0.874 -0.547,-2.086 -0.541,-3.001 0.011,-1.661 0.589,-3.859 1.181,-5.412 0.639,-1.68 2.951,-5.214 2.951,-5.214 0,0 0,0 0,0 z"
     clip-path="url(#0b3b31db-e894-425d-91bf-6905095a3c26)"
     id="path109"
     transform="matrix(0.75251909,0,0,1,-255.62292,-163.20359)" />
  <path
     fill="none"
     stroke="#af692b"
     stroke-width="1"
     stroke-opacity="0"
     stroke-linecap="round"
     stroke-linejoin="round"
     d="m 348.292,306.145 c 0,0 0,0 0,0 -10e-4,0 -5.814,-3.121 -7.478,-5.313 -0.97,-1.277 -2.113,-3.372 -1.968,-4.969 0.096,-1.067 1.149,-2.228 1.771,-3.1 0.522,-0.732 1.377,-1.584 1.968,-2.263 0.826,0.103 1.923,0.387 2.755,0.345 0.558,-0.029 1.294,-0.206 1.82,-0.394 0.977,-0.348 2.135,-1.136 3.05,-1.623 0,0 0,0 0,0 0,0 -2.312,3.534 -2.951,5.214 -0.592,1.553 -1.17,3.751 -1.181,5.412 -0.006,0.915 0.272,2.127 0.541,3.001 0.357,1.162 1.171,2.583 1.673,3.69 M 342.585,290.5 c 0,0 0,0 0,0 m 7.625,-1.672 c 0,0 0,0 0,0"
     clip-path="url(#0b3b31db-e894-425d-91bf-6905095a3c26)"
     id="path111"
     transform="matrix(0.75251909,0,0,1,-255.62292,-163.20359)" />
  <path
     fill="#000000"
     fill-rule="evenodd"
     stroke="#af692b"
     stroke-width="1"
     stroke-opacity="0"
     stroke-linecap="round"
     stroke-linejoin="round"
     d="m 358.659,307.127 c 2.874,-0.802 6.546,-2.534 9.002,-4.228 1.549,-1.069 3.045,-3.194 4.569,-4.297 2.788,-2.017 7.11,-3.731 10.162,-5.319 1.737,-0.905 3.839,-2.979 5.797,-3.001 0.479,-0.006 1.323,0.1 1.5,0.545 0.326,0.818 -1.018,1.836 -1.705,2.387 -1.348,1.083 -3.832,1.29 -5.387,2.046 -2.768,1.346 -6.203,3.631 -8.73,5.388 -1.784,1.24 -3.854,3.334 -5.729,4.433 -1.423,0.834 -3.468,1.702 -5.046,2.182 -2.385,0.726 -5.694,1.54 -8.184,1.432 -1.007,-0.043 -2.292,-0.525 -3.274,-0.75 0,0 0,0 0,0 0.062,-0.02 4.981,-0.248 7.025,-0.818 z"
     clip-path="url(#0b3b31db-e894-425d-91bf-6905095a3c26)"
     id="path113"
     transform="matrix(0.75251909,0,0,1,-255.62292,-163.20359)" />
  <path
     fill="#000000"
     fill-rule="evenodd"
     stroke="#af692b"
     stroke-width="1"
     stroke-opacity="0"
     stroke-linecap="round"
     stroke-linejoin="round"
     d="m 379.472,259.366 c 0.118,-1.204 -0.278,-2.821 -0.602,-3.987 -0.195,-0.702 -1.007,-1.535 -0.903,-2.256 0.141,-0.967 1.226,-2.06 2.107,-2.482 1.18,-0.566 3.114,-0.392 4.362,0 1.315,0.412 2.913,1.547 3.762,2.632 0.423,0.542 1.181,1.478 0.902,2.106 -0.226,0.51 -1.278,0.351 -1.73,0.677 -1.387,1.001 -2.311,3.257 -3.385,4.589 -1.284,1.593 -2.964,3.778 -4.513,5.115 -0.986,0.85 -2.527,1.685 -3.611,2.407 0,0 0,0 0,0 0.046,-0.023 3.333,-5.961 3.611,-8.801 z"
     clip-path="url(#0b3b31db-e894-425d-91bf-6905095a3c26)"
     id="path115"
     transform="matrix(0.75251909,0,0,1,-255.62292,-163.20359)" />
  <path
     fill="#eba451"
     fill-rule="evenodd"
     stroke="#af692b"
     stroke-width="1"
     stroke-opacity="0"
     stroke-linecap="round"
     stroke-linejoin="round"
     d="m 385.035,257.884 c 0.498,-0.262 1.039,-0.832 1.348,-1.302 0.372,-0.568 0.908,-1.459 0.776,-2.125 -0.091,-0.464 -0.63,-0.931 -1.014,-1.207 -1.041,-0.748 -2.78,-1.494 -4.055,-1.351 -0.534,0.059 -1.359,0.336 -1.593,0.82 -0.434,0.899 0.409,2.357 0.966,3.186 0.522,0.778 1.54,1.641 2.414,1.979 0.227,0.088 0.563,0.12 0.806,0.098 0.109,-0.01 0.255,-0.046 0.352,-0.098 z"
     clip-path="url(#0b3b31db-e894-425d-91bf-6905095a3c26)"
     id="path117"
     transform="matrix(0.75251909,0,0,1,-255.62292,-163.20359)" />
  <path
     fill="#000000"
     fill-rule="evenodd"
     stroke="#af692b"
     stroke-width="1"
     stroke-opacity="0"
     stroke-linecap="round"
     stroke-linejoin="round"
     d="m 384.404,252.44 c -0.028,0.009 -0.107,0.049 -0.132,0.063 -0.089,0.056 -0.19,0.103 -0.261,0.176 -0.129,0.138 -0.257,0.275 -0.384,0.414 -0.097,0.106 -0.191,0.215 -0.287,0.321 -0.14,0.16 -0.256,0.339 -0.379,0.512 -0.087,0.124 -0.18,0.241 -0.251,0.371 -0.061,0.109 -0.11,0.22 -0.152,0.335 -0.023,0.062 -0.053,0.12 -0.059,0.183 -0.009,0.104 0.002,0.21 0.016,0.313 0.007,0.049 0.029,0.092 0.041,0.138 0.029,0.125 0.076,0.238 0.12,0.356 0.039,0.115 0.068,0.235 0.118,0.346 0.03,0.063 0.082,0.109 0.11,0.17 0.02,0.044 0.019,0.097 0.041,0.138 0.028,0.056 0.079,0.098 0.109,0.151 0.077,0.139 0.147,0.28 0.224,0.419 0.064,0.115 0.13,0.231 0.186,0.348 0.032,0.064 0.047,0.136 0.078,0.198 0.007,0.015 0.03,0.048 0.037,0.06 0.023,0.043 0.057,-10e-4 0.067,-0.017 0.019,-0.029 0.024,-0.068 0.028,-0.106 0.019,-0.275 -0.064,-0.554 -0.043,-0.831 0.003,-0.042 0.024,-0.081 0.028,-0.125 0.007,-0.131 -0.025,-0.261 -0.02,-0.392 0.002,-0.049 0.023,-0.094 0.026,-0.145 0.003,-0.085 -0.016,-0.169 -0.012,-0.254 10e-4,-0.049 0.022,-0.095 0.026,-0.145 0.002,-0.072 -0.014,-0.144 -0.011,-0.215 0.002,-0.043 0.024,-0.082 0.027,-0.126 0.002,-0.039 -0.008,-0.078 -0.006,-0.117 0.005,-0.069 0.045,-0.134 0.058,-0.203 0.029,-0.146 0.074,-0.288 0.112,-0.435 0.049,-0.188 0.082,-0.383 0.14,-0.57 0.041,-0.125 0.108,-0.239 0.151,-0.365 0.033,-0.101 0.086,-0.195 0.119,-0.298 0.045,-0.144 0.051,-0.303 0.113,-0.444 0.025,-0.058 0.096,-0.107 0.092,-0.172 0.001,-0.016 -0.031,-0.067 -0.07,-0.052 z"
     clip-path="url(#0b3b31db-e894-425d-91bf-6905095a3c26)"
     id="path119"
     transform="matrix(0.75251909,0,0,1,-255.62292,-163.20359)" />
  <g
     id="g135"
     transform="matrix(0.75251909,0,0,1,-255.62292,-163.20359)">
    <clipPath
       id="4b946e89-8e96-44e5-8f06-a8f44d82bf2f">
      <path
         fill="#312114"
         fill-rule="evenodd"
         stroke="none"
         d="m 406.451,184.84 c -0.335,-5.108 -1.793,-12.268 0,-17.063 0.533,-1.427 1.532,-3.901 3.046,-4.062 2.794,-0.299 4.145,5.086 6.094,7.109 3.263,3.386 7.926,7.603 11.578,10.563 3.325,2.694 8.62,5.237 11.579,8.328 4.829,5.043 9.975,13.152 12.39,19.703 1.092,2.961 2.326,7.243 1.829,10.36 -0.753,4.717 -4.592,10.388 -7.922,13.812 -1.874,1.927 -4.845,4.576 -7.516,4.875 -4.206,0.473 -9.598,-2.965 -13,-5.484 -4.842,-3.584 -9.942,-10.232 -12.594,-15.641 -1.002,-2.044 -1.422,-5.119 -2.031,-7.312 0,0 0,0 0,0 0.061,0.122 -2.955,-17.577 -3.453,-25.188 z"
         id="path122" />
    </clipPath>
    <path
       fill="#312114"
       fill-rule="evenodd"
       stroke="#af692b"
       stroke-width="1"
       stroke-opacity="0"
       stroke-linecap="round"
       stroke-linejoin="round"
       d="m 406.451,184.84 c -0.335,-5.108 -1.793,-12.268 0,-17.063 0.533,-1.427 1.532,-3.901 3.046,-4.062 2.794,-0.299 4.145,5.086 6.094,7.109 3.263,3.386 7.926,7.603 11.578,10.563 3.325,2.694 8.62,5.237 11.579,8.328 4.829,5.043 9.975,13.152 12.39,19.703 1.092,2.961 2.326,7.243 1.829,10.36 -0.753,4.717 -4.592,10.388 -7.922,13.812 -1.874,1.927 -4.845,4.576 -7.516,4.875 -4.206,0.473 -9.598,-2.965 -13,-5.484 -4.842,-3.584 -9.942,-10.232 -12.594,-15.641 -1.002,-2.044 -1.422,-5.119 -2.031,-7.312 0,0 0,0 0,0 0.061,0.122 -2.955,-17.577 -3.453,-25.188 z"
       id="path125" />
    <path
       fill="#a5a8af"
       fill-rule="evenodd"
       stroke="#af692b"
       stroke-width="1"
       stroke-opacity="0"
       stroke-linecap="round"
       stroke-linejoin="round"
       d="m 425.744,234.821 c 0,0 0,0 0,0 -0.145,-0.729 -0.326,-1.703 -0.485,-2.428 -2.205,-10.019 -5.878,-23.205 -8.256,-33.184 -1.616,-6.785 -3.643,-15.86 -5.18,-22.663 -0.932,-4.125 -2.153,-9.631 -3.075,-13.759 0,0 0,0 0,0 -2.04,2.331 -5.664,4.888 -6.799,7.77 -3.655,9.275 -0.625,23.509 1.78,33.184 2.14,8.604 5.749,20.9 12.303,26.871 2.347,2.139 9.711,4.209 9.712,4.209 0,0 0,0 0,0 z"
       clip-path="url(#4b946e89-8e96-44e5-8f06-a8f44d82bf2f)"
       id="path127" />
    <path
       fill="#bfc2c9"
       fill-rule="evenodd"
       stroke="none"
       d="m 414.234,198.598 c 0,0 0,0 0,0 0.496,-1.282 1.839,-2.911 1.654,-4.274 -0.127,-0.943 -1.519,-1.707 -1.792,-2.619 -0.202,-0.674 0.362,-1.741 0,-2.344 -0.362,-0.603 -1.704,-0.501 -2.068,-1.103 -0.385,-0.637 0.173,-1.757 0,-2.481 -0.43,-1.802 -2.444,-3.621 -3.033,-5.377 -1.035,-3.083 -1.213,-7.519 -1.213,-10.771 0,-1.568 0.357,-3.642 0.51,-5.202 0,0 0,0 0,0 0.249,-0.159 0.541,-0.468 0.83,-0.529 0.292,-0.061 0.762,-0.05 0.982,0.151 0.206,0.19 0.161,0.634 0.226,0.906 0.779,3.259 1.669,7.638 2.44,10.899 1.905,8.06 4.364,18.836 6.732,26.772 0.297,0.996 1.096,3.287 1.096,3.288 -0.235,1.174 -0.783,3.913 -0.783,3.914 0.705,0.375 1.859,0.621 2.349,1.252 1.024,1.32 0.775,3.825 0.942,5.487 0.223,2.211 0.093,5.184 0.195,7.403 0.065,1.429 0.324,3.329 0.305,4.76 -0.017,1.239 0.791,3.672 -0.367,4.116 -1.523,0.585 -3.457,-4.2 -3.457,-4.2 0.233,-1.363 0.776,-4.543 0.776,-4.544 -0.888,0.174 -2.96,0.578 -2.961,0.578 0.071,-0.3 0.21,-0.693 0.237,-1 0.024,-0.271 0.128,-0.699 -0.047,-0.907 -0.38,-0.454 -1.962,-0.199 -1.962,-0.199 0.14,-0.771 0.466,-2.571 0.466,-2.572 -0.722,0.09 -2.406,0.301 -2.406,0.301 0.273,-0.556 0.91,-1.852 0.91,-1.852 -0.406,-0.258 -1.354,-0.861 -1.354,-0.861 0.321,-0.114 0.789,-0.185 1.068,-0.379 1.488,-1.037 3.447,-4.963 3.447,-4.964 -1.282,0.497 -4.273,1.654 -4.274,1.655 0.993,-1.862 3.309,-6.204 3.309,-6.204 -1.034,-0.373 -3.446,-1.241 -3.447,-1.241 0.745,-2.275 2.482,-7.582 2.482,-7.583 -0.538,-0.083 -1.792,-0.276 -1.792,-0.276 0,0 0,0 0,0 z"
       clip-path="url(#4b946e89-8e96-44e5-8f06-a8f44d82bf2f)"
       id="path129" />
    <path
       fill="none"
       stroke="#af692b"
       stroke-width="1"
       stroke-opacity="0"
       stroke-linecap="round"
       stroke-linejoin="round"
       d="m 413.682,213.902 c 0,0 0,0 0,0 10e-4,-10e-4 2.992,-1.158 4.274,-1.655 0,0 0,0 0,0 0,10e-4 -1.959,3.927 -3.447,4.964 -0.279,0.194 -0.747,0.265 -1.068,0.379 0,0 0,0 0,0 0,0 0.948,0.603 1.354,0.861 0,0 0,0 0,0 0,0 -0.637,1.296 -0.91,1.852 0,0 0,0 0,0 0,0 1.684,-0.211 2.406,-0.301 0,0 0,0 0,0 0,10e-4 -0.326,1.801 -0.466,2.572 0,0 0,0 0,0 0,0 1.582,-0.255 1.962,0.199 0.175,0.208 0.071,0.636 0.047,0.907 -0.027,0.307 -0.166,0.7 -0.237,1 0,0 0,0 0,0 0.001,0 2.073,-0.404 2.961,-0.578 0,0 0,0 0,0 0,0.001 -0.543,3.181 -0.776,4.544 0,0 0,0 0,0 0,0 1.934,4.785 3.457,4.2 1.158,-0.444 0.35,-2.877 0.367,-4.116 0.019,-1.431 -0.24,-3.331 -0.305,-4.76 -0.102,-2.219 0.028,-5.192 -0.195,-7.403 -0.167,-1.662 0.082,-4.167 -0.942,-5.487 -0.49,-0.631 -1.644,-0.877 -2.349,-1.252 0,0 0,0 0,0 0,-0.001 0.548,-2.74 0.783,-3.914 0,0 0,0 0,0 0,-10e-4 -0.799,-2.292 -1.096,-3.288 -2.368,-7.936 -4.827,-18.712 -6.732,-26.772 -0.771,-3.261 -1.661,-7.64 -2.44,-10.899 -0.065,-0.272 -0.02,-0.716 -0.226,-0.906 -0.22,-0.201 -0.69,-0.212 -0.982,-0.151 -0.289,0.061 -0.581,0.37 -0.83,0.529 -0.153,1.56 -0.51,3.634 -0.51,5.202 0,3.252 0.178,7.688 1.213,10.771 0.589,1.756 2.603,3.575 3.033,5.377 0.173,0.724 -0.385,1.844 0,2.481 0.364,0.602 1.706,0.5 2.068,1.103 0.362,0.603 -0.202,1.67 0,2.344 0.273,0.912 1.665,1.676 1.792,2.619 0.185,1.363 -1.158,2.992 -1.654,4.274 0,0 0,0 0,0 0,0 1.254,0.193 1.792,0.276 0,0 0,0 0,0 0,0.001 -1.737,5.308 -2.482,7.583 0,0 0,0 0,0 0.001,0 2.413,0.868 3.447,1.241 0,0 0,0 0,0 0,0 -2.316,4.342 -3.309,6.204 m -5.39,-49.475 c 0,0 0,0 0,0 m 5.942,34.171 c 0,0 0,0 0,0"
       clip-path="url(#4b946e89-8e96-44e5-8f06-a8f44d82bf2f)"
       id="path131" />
    <path
       fill="#995a23"
       fill-rule="evenodd"
       stroke="#af692b"
       stroke-width="1"
       stroke-opacity="0"
       stroke-linecap="round"
       stroke-linejoin="round"
       d="m 457.298,219.133 c 0,0 0,0 0,0 -3.17,-2.438 -6.921,-6.482 -10.566,-8.127 -3.443,-1.554 -8.645,-3.155 -12.354,-2.438 -2.816,0.544 -6.422,2.731 -8.127,5.038 -1.884,2.55 -2.263,7.09 -2.601,10.241 -0.396,3.688 0.341,8.648 0.488,12.354 0,0 0,0 0,0 2.438,1.073 5.541,2.937 8.127,3.576 2.847,0.703 6.914,1.382 9.753,0.65 4.952,-1.276 11.44,-5.314 13.979,-9.753 1.731,-3.024 1.301,-11.54 1.301,-11.541 0,0 0,0 0,0 z"
       clip-path="url(#4b946e89-8e96-44e5-8f06-a8f44d82bf2f)"
       id="path133" />
  </g>
  <path
     fill="#af692b"
     fill-rule="evenodd"
     stroke="none"
     d="m 117.34059,198.84741 c 2.23724,11.723 10.40885,24.617 14.36258,35.51 2.51567,6.929 4.34655,17.237 7.68247,23.525 1.30637,2.462 4.406,4.359 5.34439,7.102 2.23874,6.546 -0.34164,16.792 0,23.969 0.35067,7.368 2.17779,17.032 2.33808,24.412 0.25811,11.883 -1.04375,27.742 -2.33808,39.504 -1.18748,10.793 -1.93849,25.877 -5.72517,35.555 -2.21466,5.658 -6.64474,12.28 -10.5601,15.968 -3.79796,3.577 -11.0989,3.357 -14.38365,7.742 -1.65479,2.21 -3.4375,6.325 -3.27722,9.436 0.2235,4.319 3.31033,9.833 6.19022,11.855 5.17583,3.633 13.90054,0.894 19.48122,-1.452 2.21617,-0.931 4.96587,-3.081 6.73655,-5.08 3.86268,-4.362 7.44467,-12.247 10.19588,-17.904 3.87322,-7.965 7.91349,-19.469 11.28854,-27.824 1.25972,-3.119 3.53759,-6.971 4.18702,-10.403 1.07986,-5.704 -0.82326,-13.749 -0.36347,-19.598 0.55385,-7.056 3.22304,-16.007 4.18702,-22.985 1.45537,-10.533 2.23272,-24.811 3.24034,-35.437 0.80595,-8.496 2.4645,-19.751 2.7783,-28.304 0.18437,-5.04 -0.57492,-11.783 -0.30853,-16.818 0.48086,-9.102 4.23367,-20.824 4.01243,-29.944 -0.38529,-15.901 -3.66702,-38.071 -10.45174,-51.178 -4.35482,-8.413 -12.94257,-17.651 -20.23599,-20.864 -5.46404,-2.407 -13.70262,-2.316 -19.18923,0 -5.36923,2.266 -10.74598,10.061 -15.35139,14.373 0,0 0,0 0,0 0.0474,0.2 -1.99644,27.545 0.15953,38.84 z"
     id="path142"
     style="stroke-width:0.867479" />
  <path
     fill="#96561c"
     d="m 117.60172,198.75941 c 2.2109,11.636 10.37046,24.504 14.34376,35.442 l -0.48462,0.311 c -3.93492,-10.848 -12.11782,-23.767 -14.38139,-35.577 z"
     id="path144"
     style="stroke-width:0.867479" />
  <path
     fill="#96561c"
     d="m 131.94548,234.20141 c 2.52847,6.971 4.35332,17.256 7.65989,23.475 l -0.43947,0.412 c -3.36451,-6.358 -5.20216,-16.688 -7.70504,-23.576 z"
     id="path146"
     style="stroke-width:0.867479" />
  <path
     fill="none"
     stroke="#96561c"
     stroke-width="0.867479"
     stroke-linecap="butt"
     stroke-linejoin="round"
     d="m 131.94548,234.20141 -0.48462,0.311"
     id="path148" />
  <path
     fill="#96561c"
     d="m 139.60537,257.67641 c 1.24768,2.381 4.36236,4.294 5.36998,7.16 l -0.49064,0.296 c -0.86916,-2.621 -3.95299,-4.501 -5.31881,-7.044 z"
     id="path150"
     style="stroke-width:0.867479" />
  <path
     fill="none"
     stroke="#96561c"
     stroke-width="0.867479"
     stroke-linecap="butt"
     stroke-linejoin="round"
     d="m 139.60537,257.67641 -0.43947,0.412"
     id="path152" />
  <path
     fill="#96561c"
     d="m 144.97535,264.83641 c 2.26282,6.703 -0.32133,17 0.0233,24.094 l -0.5373,0.045 c -0.33788,-7.259 2.23874,-17.455 0.0233,-23.843 z"
     id="path154"
     style="stroke-width:0.867479" />
  <path
     fill="none"
     stroke="#96561c"
     stroke-width="0.867479"
     stroke-linecap="butt"
     stroke-linejoin="round"
     d="m 144.97535,264.83641 -0.49064,0.296"
     id="path156" />
  <path
     fill="#96561c"
     d="m 144.99868,288.93041 c 0.34766,7.331 2.17553,17.001 2.33883,24.425 l -0.53805,0.02 c -0.15728,-7.335 -1.9844,-16.994 -2.33808,-24.4 z"
     id="path158"
     style="stroke-width:0.867479" />
  <path
     fill="none"
     stroke="#96561c"
     stroke-width="0.867479"
     stroke-linecap="butt"
     stroke-linejoin="round"
     d="m 144.99868,288.93041 -0.5373,0.045"
     id="path160" />
  <path
     fill="#96561c"
     d="m 147.33751,313.35541 c 0.25736,11.911 -1.046,27.796 -2.34109,39.566 l -0.53278,-0.103 c 1.29358,-11.756 2.59393,-27.588 2.33582,-39.443 z"
     id="path162"
     style="stroke-width:0.867479" />
  <path
     fill="none"
     stroke="#96561c"
     stroke-width="0.867479"
     stroke-linecap="butt"
     stroke-linejoin="round"
     d="m 147.33751,313.35541 -0.53805,0.02"
     id="path164" />
  <path
     fill="#96561c"
     d="m 144.99642,352.92141 c -1.18597,10.777 -1.943,25.91 -5.75301,35.668 l -0.47785,-0.33 c 3.76486,-9.597 4.5091,-24.632 5.69808,-35.441 z"
     id="path166"
     style="stroke-width:0.867479" />
  <path
     fill="none"
     stroke="#96561c"
     stroke-width="0.867479"
     stroke-linecap="butt"
     stroke-linejoin="round"
     d="m 144.99642,352.92141 -0.53278,-0.103"
     id="path168" />
  <path
     fill="#96561c"
     d="m 139.24341,388.58941 c -2.23498,5.701 -6.70043,12.377 -10.64288,16.095 l -0.31154,-0.584 c 3.88752,-3.658 8.28298,-10.227 10.47657,-15.841 z"
     id="path170"
     style="stroke-width:0.867479" />
  <path
     fill="none"
     stroke="#96561c"
     stroke-width="0.867479"
     stroke-linecap="butt"
     stroke-linejoin="round"
     d="m 139.24341,388.58941 -0.47785,-0.33"
     id="path172" />
  <path
     fill="#96561c"
     d="m 128.60053,404.68441 c -3.89428,3.634 -11.17867,3.408 -14.34828,7.702 l -0.38152,-0.504 c 3.39837,-4.476 10.71587,-4.261 14.41826,-7.782 z"
     id="path174"
     style="stroke-width:0.867479" />
  <path
     fill="none"
     stroke="#96561c"
     stroke-width="0.867479"
     stroke-linecap="butt"
     stroke-linejoin="round"
     d="m 128.60053,404.68441 -0.31154,-0.584"
     id="path176" />
  <path
     fill="#96561c"
     d="m 114.25225,412.38641 c -1.6277,2.167 -3.37053,6.176 -3.19971,9.159 l -0.5373,0.049 c -0.14975,-3.237 1.67285,-7.46 3.35549,-9.712 z"
     id="path178"
     style="stroke-width:0.867479" />
  <path
     fill="none"
     stroke="#96561c"
     stroke-width="0.867479"
     stroke-linecap="butt"
     stroke-linejoin="round"
     d="m 114.25225,412.38641 -0.38152,-0.504"
     id="path180" />
  <path
     fill="#96561c"
     d="m 111.05254,421.54541 c 0.20017,4.198 3.2268,9.599 6.04725,11.564 l -0.25135,0.632 c -2.94009,-2.078 -6.08712,-7.706 -6.3332,-12.147 z"
     id="path182"
     style="stroke-width:0.867479" />
  <path
     fill="none"
     stroke="#96561c"
     stroke-width="0.867479"
     stroke-linecap="butt"
     stroke-linejoin="round"
     d="m 111.05254,421.54541 -0.5373,0.049"
     id="path184" />
  <path
     fill="#96561c"
     d="m 117.09979,433.10941 c 5.0637,3.592 13.70563,0.865 19.27502,-1.477 l 0.16179,0.682 c -5.59272,2.351 -14.39945,5.102 -19.68816,1.427 z"
     id="path186"
     style="stroke-width:0.867479" />
  <path
     fill="none"
     stroke="#96561c"
     stroke-width="0.867479"
     stroke-linecap="butt"
     stroke-linejoin="round"
     d="m 117.09979,433.10941 -0.25135,0.632"
     id="path188" />
  <path
     fill="#96561c"
     d="m 136.37481,431.63241 c 2.1823,-0.914 4.89363,-3.034 6.64324,-5.012 l 0.34841,0.545 c -1.7925,2.021 -4.58133,4.201 -6.82986,5.149 z"
     id="path190"
     style="stroke-width:0.867479" />
  <path
     fill="none"
     stroke="#96561c"
     stroke-width="0.867479"
     stroke-linecap="butt"
     stroke-linejoin="round"
     d="m 136.37481,431.63241 0.16179,0.682"
     id="path192" />
  <path
     fill="#96561c"
     d="m 143.01805,426.62041 c 3.82731,-4.314 7.38974,-12.163 10.14396,-17.825 l 0.45226,0.388 c -2.74895,5.652 -6.34976,13.573 -10.24781,17.982 z"
     id="path194"
     style="stroke-width:0.867479" />
  <path
     fill="none"
     stroke="#96561c"
     stroke-width="0.867479"
     stroke-linecap="butt"
     stroke-linejoin="round"
     d="m 143.01805,426.62041 0.34841,0.545"
     id="path196" />
  <path
     fill="#96561c"
     d="m 153.16201,408.79541 c 3.86268,-7.941 7.89768,-19.434 11.27725,-27.799 l 0.47408,0.338 c -3.37128,8.345 -7.41532,19.86 -11.29907,27.849 z"
     id="path198"
     style="stroke-width:0.867479" />
  <path
     fill="none"
     stroke="#96561c"
     stroke-width="0.867479"
     stroke-linecap="butt"
     stroke-linejoin="round"
     d="m 153.16201,408.79541 0.45226,0.388"
     id="path200" />
  <path
     fill="#96561c"
     d="m 164.43926,380.99641 c 1.27326,-3.15 3.53759,-6.97 4.16293,-10.322 l 0.52225,0.175 c -0.67275,3.514 -2.96568,7.398 -4.2111,10.485 z"
     id="path202"
     style="stroke-width:0.867479" />
  <path
     fill="none"
     stroke="#96561c"
     stroke-width="0.867479"
     stroke-linecap="butt"
     stroke-linejoin="round"
     d="m 164.43926,380.99641 0.47408,0.338"
     id="path204" />
  <path
     fill="#96561c"
     d="m 168.60219,370.67441 c 1.07234,-5.588 -0.82852,-13.612 -0.37024,-19.547 l 0.53504,0.074 c -0.45979,5.764 1.44409,13.829 0.35745,19.648 z"
     id="path206"
     style="stroke-width:0.867479" />
  <path
     fill="none"
     stroke="#96561c"
     stroke-width="0.867479"
     stroke-linecap="butt"
     stroke-linejoin="round"
     d="m 168.60219,370.67441 0.52225,0.175"
     id="path208" />
  <path
     fill="#96561c"
     d="m 168.23195,351.12741 c 0.56138,-7.112 3.23358,-16.073 4.19078,-23.012 l 0.52902,0.129 c -0.9715,7.017 -3.63843,15.956 -4.18476,22.957 z"
     id="path210"
     style="stroke-width:0.867479" />
  <path
     fill="none"
     stroke="#96561c"
     stroke-width="0.867479"
     stroke-linecap="butt"
     stroke-linejoin="round"
     d="m 168.23195,351.12741 0.53504,0.074"
     id="path212" />
  <path
     fill="#96561c"
     d="m 172.42273,328.11541 c 1.45236,-10.511 2.22896,-24.781 3.23734,-35.418 l 0.53429,0.09 c -1.00687,10.614 -1.78423,24.902 -3.24261,35.457 z"
     id="path214"
     style="stroke-width:0.867479" />
  <path
     fill="none"
     stroke="#96561c"
     stroke-width="0.867479"
     stroke-linecap="butt"
     stroke-linejoin="round"
     d="m 172.42273,328.11541 0.52902,0.129"
     id="path216" />
  <path
     fill="#96561c"
     d="m 175.66007,292.69741 c 0.80745,-8.509 2.46525,-19.753 2.77679,-28.276 l 0.5373,0.035 c -0.3153,8.582 -1.97536,19.849 -2.7798,28.331 z"
     id="path218"
     style="stroke-width:0.867479" />
  <path
     fill="none"
     stroke="#96561c"
     stroke-width="0.867479"
     stroke-linecap="butt"
     stroke-linejoin="round"
     d="m 175.66007,292.69741 0.53429,0.09"
     id="path220" />
  <path
     fill="#96561c"
     d="m 178.43686,264.42141 c 0.18512,-5 -0.57492,-11.746 -0.30853,-16.826 l 0.5373,0.05 c -0.26639,4.99 0.4929,11.729 0.30853,16.811 z"
     id="path222"
     style="stroke-width:0.867479" />
  <path
     fill="none"
     stroke="#96561c"
     stroke-width="0.867479"
     stroke-linecap="butt"
     stroke-linejoin="round"
     d="m 178.43686,264.42141 0.5373,0.035"
     id="path224" />
  <path
     fill="#96561c"
     d="m 178.12833,247.59541 c 0.48989,-9.17 4.23969,-20.878 4.01243,-29.907 l 0.53805,-0.023 c 0.21447,9.21 -3.54135,20.946 -4.01318,29.98 z"
     id="path226"
     style="stroke-width:0.867479" />
  <path
     fill="none"
     stroke="#96561c"
     stroke-width="0.867479"
     stroke-linecap="butt"
     stroke-linejoin="round"
     d="m 178.12833,247.59541 0.5373,0.05"
     id="path228" />
  <path
     fill="#96561c"
     d="m 182.14076,217.68841 c -0.38378,-15.867 -3.39837,-38.083 -10.18309,-51.19 v 0 c 6.78472,13.107 10.33284,35.232 10.72114,51.167 z"
     id="path230"
     style="stroke-width:0.867479" />
  <path
     fill="none"
     stroke="#96561c"
     stroke-width="0.867479"
     stroke-linecap="butt"
     stroke-linejoin="round"
     d="m 182.14076,217.68841 0.53805,-0.023"
     id="path232" />
  <path
     fill="#96561c"
     d="m 117.18106,160.00741 c 0.0474,0.2 -1.72703,27.544 0.42066,38.752 l -0.52225,0.176 c -2.16425,-11.381 0.149,-38.728 0.10159,-38.928 z"
     id="path234"
     style="stroke-width:0.867479" />
  <path
     fill="none"
     stroke="#96561c"
     stroke-width="0.867479"
     stroke-linecap="butt"
     stroke-linejoin="round"
     d="m 117.18106,160.00741 v 0"
     id="path236" />
  <path
     fill="#af692b"
     fill-rule="evenodd"
     stroke="none"
     d="m 292.217,186.13741 c -2.5676,12.127 -0.34992,29.555 1.3154,41.957 1.79852,13.389 4.95985,31.71 10.52473,43.124 1.72026,3.527 5.05091,7.176 7.45521,9.907 6.96456,7.908 17.52316,16.268 24.99643,23.31 7.92176,7.465 19.23664,16.217 26.31183,25.058 4.49103,5.612 10.60751,13.518 13.15553,20.979 2.91376,8.533 3.47138,21.515 3.50825,30.885 0.0173,4.438 0.38002,10.876 -1.33271,14.685 -1.65329,3.677 -5.91254,6.263 -8.76459,8.259 -2.03481,1.423 -5.35041,1.733 -7.17076,3.6 -2.56157,2.626 -5.74774,7.579 -6.05552,11.858 -0.23554,3.265 1.18522,7.983 3.02739,10.165 4.48877,5.315 13.79292,5.425 19.7604,4.447 4.31795,-0.708 10.28016,-3.364 13.3858,-7.412 5.16605,-6.732 7.21064,-20.468 8.76459,-29.858 2.42537,-14.659 0.17835,-35.114 1.75337,-49.977 0.44399,-4.195 3.14629,-9.729 2.25982,-13.799 -0.95043,-4.366 -5.59799,-7.56 -8.06174,-10.713 -4.20357,-5.378 -10.34864,-11.815 -14.29184,-17.531 -3.75883,-5.449 -9.07839,-12.735 -11.36003,-19.478 -1.56449,-4.625 -3.50298,-11.641 -2.56458,-16.557 1.11071,-5.821 7.83146,-9.752 9.89412,-15.096 3.74829,-9.709 5.66647,-24.735 5.45877,-35.644 -0.21672,-11.376 -3.75281,-26.278 -7.15194,-36.722 -2.92278,-8.978 -7.10002,-21.809 -13.00428,-27.65 -8.6916,-8.596 -24.27702,-11.262 -35.11179,-11.232 -5.18335,0.014 -11.83336,3.326 -16.90534,4.752 0,0 0,0 0,0 -0.15051,0.066 -16.9362,25.173 -19.79652,38.683 z"
     id="path238"
     style="stroke-width:0.867479" />
  <path
     fill="#96561c"
     d="m 292.217,186.13741 c -2.5676,12.127 -0.0843,29.494 1.58104,41.895 l -0.53053,0.125 c -1.66532,-12.404 -3.61811,-29.893 -1.05051,-42.02 z"
     id="path240"
     style="stroke-width:0.867479" />
  <path
     fill="#96561c"
     d="m 293.79804,228.03241 c 1.79626,13.379 4.94556,31.642 10.48485,42.991 l -0.45151,0.389 c -5.58971,-11.479 -8.76459,-29.856 -10.56387,-43.255 z"
     id="path242"
     style="stroke-width:0.867479" />
  <path
     fill="none"
     stroke="#96561c"
     stroke-width="0.867479"
     stroke-linecap="butt"
     stroke-linejoin="round"
     d="m 293.79804,228.03241 -0.53053,0.125"
     id="path244" />
  <path
     fill="#96561c"
     d="m 304.28289,271.02341 c 1.69091,3.478 4.99748,7.097 7.40403,9.83 l -0.34916,0.544 c -2.4028,-2.729 -5.75753,-6.407 -7.50638,-9.985 z"
     id="path246"
     style="stroke-width:0.867479" />
  <path
     fill="none"
     stroke="#96561c"
     stroke-width="0.867479"
     stroke-linecap="butt"
     stroke-linejoin="round"
     d="m 304.28289,271.02341 -0.45151,0.389"
     id="path248" />
  <path
     fill="#96561c"
     d="m 311.68692,280.85341 c 6.94425,7.887 17.49457,16.239 24.97762,23.29 l -0.31155,0.583 c -7.46273,-7.033 -18.03035,-15.399 -25.01523,-23.329 z"
     id="path250"
     style="stroke-width:0.867479" />
  <path
     fill="none"
     stroke="#96561c"
     stroke-width="0.867479"
     stroke-linecap="butt"
     stroke-linejoin="round"
     d="m 311.68692,280.85341 -0.34916,0.544"
     id="path252" />
  <path
     fill="#96561c"
     d="m 336.66454,304.14341 c 7.90973,7.455 19.23815,16.219 26.34042,25.089 l -0.36873,0.521 c -7.04809,-8.811 -18.35018,-17.551 -26.28324,-25.027 z"
     id="path254"
     style="stroke-width:0.867479" />
  <path
     fill="none"
     stroke="#96561c"
     stroke-width="0.867479"
     stroke-linecap="butt"
     stroke-linejoin="round"
     d="m 336.66454,304.14341 -0.31155,0.583"
     id="path256" />
  <path
     fill="#96561c"
     d="m 363.00496,329.23241 c 4.49329,5.615 10.63912,13.565 13.2165,21.092 l -0.49065,0.295 c -2.51793,-7.393 -8.6058,-15.256 -13.09458,-20.866 z"
     id="path258"
     style="stroke-width:0.867479" />
  <path
     fill="none"
     stroke="#96561c"
     stroke-width="0.867479"
     stroke-linecap="butt"
     stroke-linejoin="round"
     d="m 363.00496,329.23241 -0.36873,0.521"
     id="path260" />
  <path
     fill="#96561c"
     d="m 376.22146,350.32441 c 2.93181,8.606 3.49545,21.65 3.53232,31.032 l -0.5388,0.003 c -0.0361,-9.36 -0.58772,-22.279 -3.48417,-30.74 z"
     id="path262"
     style="stroke-width:0.867479" />
  <path
     fill="none"
     stroke="#96561c"
     stroke-width="0.867479"
     stroke-linecap="butt"
     stroke-linejoin="round"
     d="m 376.22146,350.32441 -0.49065,0.295"
     id="path264" />
  <path
     fill="#96561c"
     d="m 379.75378,381.35641 c 0.0166,4.422 0.37551,10.938 -1.37109,14.869 l -0.46205,-0.367 c 1.67887,-3.687 1.3124,-10.047 1.29434,-14.499 z"
     id="path266"
     style="stroke-width:0.867479" />
  <path
     fill="none"
     stroke="#96561c"
     stroke-width="0.867479"
     stroke-linecap="butt"
     stroke-linejoin="round"
     d="m 379.75378,381.35641 -0.5388,0.003"
     id="path268" />
  <path
     fill="#96561c"
     d="m 378.38269,396.22541 c -1.7165,3.774 -6.02617,6.402 -8.86994,8.392 l -0.25134,-0.633 c 2.86032,-2.001 7.06916,-4.545 8.65923,-8.126 z"
     id="path270"
     style="stroke-width:0.867479" />
  <path
     fill="none"
     stroke="#96561c"
     stroke-width="0.867479"
     stroke-linecap="butt"
     stroke-linejoin="round"
     d="m 378.38269,396.22541 -0.46205,-0.367"
     id="path272" />
  <path
     fill="#96561c"
     d="m 369.51275,404.61741 c -2.09652,1.455 -5.39406,1.757 -7.13238,3.567 l -0.32885,-0.567 c 1.90388,-1.924 5.23678,-2.24 7.20989,-3.633 z"
     id="path274"
     style="stroke-width:0.867479" />
  <path
     fill="none"
     stroke="#96561c"
     stroke-width="0.867479"
     stroke-linecap="butt"
     stroke-linejoin="round"
     d="m 369.51275,404.61741 -0.25134,-0.633"
     id="path276" />
  <path
     fill="#96561c"
     d="m 362.38037,408.18441 c -2.53599,2.597 -5.67098,7.456 -5.95167,11.609 l -0.53579,-0.068 c 0.33562,-4.406 3.5722,-9.452 6.15861,-12.108 z"
     id="path278"
     style="stroke-width:0.867479" />
  <path
     fill="none"
     stroke="#96561c"
     stroke-width="0.867479"
     stroke-linecap="butt"
     stroke-linejoin="round"
     d="m 362.38037,408.18441 -0.32885,-0.567"
     id="path280" />
  <path
     fill="#96561c"
     d="m 356.4287,419.79341 c -0.2393,3.162 1.14533,7.759 2.93859,9.864 l -0.3582,0.534 c -1.89108,-2.259 -3.34721,-7.098 -3.11618,-10.466 z"
     id="path282"
     style="stroke-width:0.867479" />
  <path
     fill="none"
     stroke="#96561c"
     stroke-width="0.867479"
     stroke-linecap="butt"
     stroke-linejoin="round"
     d="m 356.4287,419.79341 -0.53579,-0.068"
     id="path284" />
  <path
     fill="#96561c"
     d="m 359.36729,429.65741 c 4.38643,5.239 13.60253,5.335 19.54818,4.359 l 0.0662,0.71 c -5.98855,0.981 -15.38074,0.856 -19.97261,-4.535 z"
     id="path286"
     style="stroke-width:0.867479" />
  <path
     fill="none"
     stroke="#96561c"
     stroke-width="0.867479"
     stroke-linecap="butt"
     stroke-linejoin="round"
     d="m 359.36729,429.65741 -0.3582,0.534"
     id="path288" />
  <path
     fill="#96561c"
     d="m 378.91547,434.01641 c 4.28635,-0.7 10.18234,-3.321 13.2308,-7.312 l 0.37701,0.511 c -3.16435,4.105 -9.19278,6.795 -13.54158,7.511 z"
     id="path290"
     style="stroke-width:0.867479" />
  <path
     fill="none"
     stroke="#96561c"
     stroke-width="0.867479"
     stroke-linecap="butt"
     stroke-linejoin="round"
     d="m 378.91547,434.01641 0.0662,0.71"
     id="path292" />
  <path
     fill="#96561c"
     d="m 392.14627,426.70441 c 5.11035,-6.629 7.13538,-20.285 8.69009,-29.68 l 0.52525,0.153 c -1.5532,9.387 -3.61736,23.202 -8.83833,30.038 z"
     id="path294"
     style="stroke-width:0.867479" />
  <path
     fill="none"
     stroke="#96561c"
     stroke-width="0.867479"
     stroke-linecap="butt"
     stroke-linejoin="round"
     d="m 392.14627,426.70441 0.37701,0.511"
     id="path296" />
  <path
     fill="#96561c"
     d="m 400.83636,397.02441 c 2.41934,-14.585 0.17232,-35.028 1.74885,-49.95 l 0.53354,0.1 c -1.57202,14.804 0.67501,35.27 -1.75714,50.003 z"
     id="path298"
     style="stroke-width:0.867479" />
  <path
     fill="none"
     stroke="#96561c"
     stroke-width="0.867479"
     stroke-linecap="butt"
     stroke-linejoin="round"
     d="m 400.83636,397.02441 0.52525,0.153"
     id="path300" />
  <path
     fill="#96561c"
     d="m 402.58521,347.07441 c 0.4643,-4.286 3.1523,-9.766 2.26809,-13.649 l 0.51774,-0.199 c 0.88872,4.256 -1.82712,9.844 -2.25229,13.948 z"
     id="path302"
     style="stroke-width:0.867479" />
  <path
     fill="none"
     stroke="#96561c"
     stroke-width="0.867479"
     stroke-linecap="butt"
     stroke-linejoin="round"
     d="m 402.58521,347.07441 0.53354,0.1"
     id="path304" />
  <path
     fill="#96561c"
     d="m 404.8533,333.42541 c -0.88345,-4.215 -5.48887,-7.364 -7.98949,-10.555 l 0.37325,-0.516 c 2.42762,3.114 7.11657,6.354 8.13398,10.872 z"
     id="path306"
     style="stroke-width:0.867479" />
  <path
     fill="none"
     stroke="#96561c"
     stroke-width="0.867479"
     stroke-linecap="butt"
     stroke-linejoin="round"
     d="m 404.8533,333.42541 0.51774,-0.199"
     id="path308" />
  <path
     fill="#96561c"
     d="m 396.86381,322.87041 c -4.19229,-5.364 -10.34263,-11.808 -14.30313,-17.547 l 0.39657,-0.483 c 3.92514,5.692 10.06495,12.123 14.27981,17.514 z"
     id="path310"
     style="stroke-width:0.867479" />
  <path
     fill="none"
     stroke="#96561c"
     stroke-width="0.867479"
     stroke-linecap="butt"
     stroke-linejoin="round"
     d="m 396.86381,322.87041 0.37325,-0.516"
     id="path312" />
  <path
     fill="#96561c"
     d="m 382.56068,305.32341 c -3.75658,-5.445 -9.09871,-12.768 -11.40744,-19.573 l 0.4914,-0.294 c 2.25379,6.681 7.55002,13.93 11.31261,19.384 z"
     id="path314"
     style="stroke-width:0.867479" />
  <path
     fill="none"
     stroke="#96561c"
     stroke-width="0.867479"
     stroke-linecap="butt"
     stroke-linejoin="round"
     d="m 382.56068,305.32341 0.39657,-0.483"
     id="path316" />
  <path
     fill="#96561c"
     d="m 371.15324,285.75041 c -1.569,-4.639 -3.5248,-11.749 -2.58039,-16.792 l 0.52225,0.176 c -0.93162,4.788 0.98881,11.711 2.54954,16.322 z"
     id="path318"
     style="stroke-width:0.867479" />
  <path
     fill="none"
     stroke="#96561c"
     stroke-width="0.867479"
     stroke-linecap="butt"
     stroke-linejoin="round"
     d="m 371.15324,285.75041 0.4914,-0.294"
     id="path320" />
  <path
     fill="#96561c"
     d="m 368.57285,268.95841 c 1.18823,-5.994 7.92478,-9.944 9.91595,-15.171 l 0.4786,0.327 c -2.1349,5.46 -8.83834,9.372 -9.8723,15.02 z"
     id="path322"
     style="stroke-width:0.867479" />
  <path
     fill="none"
     stroke="#96561c"
     stroke-width="0.867479"
     stroke-linecap="butt"
     stroke-linejoin="round"
     d="m 368.57285,268.95841 0.52225,0.176"
     id="path324" />
  <path
     fill="#96561c"
     d="m 378.4888,253.78741 c 3.72948,-9.651 5.63787,-24.603 5.42867,-35.472 l 0.5388,-0.018 c 0.20619,10.949 -1.72251,26.048 -5.48887,35.817 z"
     id="path326"
     style="stroke-width:0.867479" />
  <path
     fill="none"
     stroke="#96561c"
     stroke-width="0.867479"
     stroke-linecap="butt"
     stroke-linejoin="round"
     d="m 378.4888,253.78741 0.4786,0.327"
     id="path328" />
  <path
     fill="#96561c"
     d="m 383.91747,218.31541 c -0.21146,-11.318 -3.73626,-26.165 -7.13012,-36.589 l 0.49441,-0.284 c 3.4059,10.464 6.95327,25.421 7.17451,36.855 z"
     id="path330"
     style="stroke-width:0.867479" />
  <path
     fill="none"
     stroke="#96561c"
     stroke-width="0.867479"
     stroke-linecap="butt"
     stroke-linejoin="round"
     d="m 383.91747,218.31541 0.5388,-0.018"
     id="path332" />
  <path
     fill="#96561c"
     d="m 376.78735,181.72641 c -2.92203,-8.978 -6.85244,-21.951 -12.7567,-27.792 v 0 c 5.90426,5.841 10.32832,18.53 13.25111,27.508 z"
     id="path334"
     style="stroke-width:0.867479" />
  <path
     fill="none"
     stroke="#96561c"
     stroke-width="0.867479"
     stroke-linecap="butt"
     stroke-linejoin="round"
     d="m 376.78735,181.72641 0.49441,-0.284"
     id="path336" />
  <path
     fill="#2f2621"
     fill-rule="evenodd"
     stroke="none"
     d="m 537.378,415.596 c 0,0 0,0 0,0 -1.546,-3.548 -2.584,-8.934 -5.155,-11.827 -4.963,-5.584 -15.429,-8.111 -22.042,-11.587 0,0 0,0 0,0 3.348,8.971 6.466,21.556 11.158,29.903 1.969,3.502 6.507,6.996 8.034,10.712 3.12,7.591 2.382,19.024 2.678,27.225 0.667,18.478 2.687,43.769 -2.231,61.593 -3.713,13.453 -12.488,30.729 -21.87,41.061 -5.494,6.05 -19.259,8.042 -22.316,15.621 -0.803,1.991 -0.169,5.085 0.446,7.141 1.311,4.379 4.116,10.591 8.034,12.944 7.232,4.342 20.115,2.665 28.118,0 7.267,-2.42 15.524,-9.379 20.531,-15.175 11.861,-13.732 25.07,-36.35 26.333,-54.451 0.219,-3.144 -2.181,-7.115 -2.232,-10.266 -0.151,-9.266 5.103,-21.019 6.906,-30.11 2.942,-14.833 7.938,-34.616 8.188,-49.735 0.292,-17.625 9.067,-53.394 -7.885,-58.227 -2.347,-0.67 -6.065,1.52 -7.278,3.639 -2.148,3.752 2.867,9.995 2.123,14.253 -1.461,8.362 -14.555,24.259 -14.557,24.262 -4.913,-5.095 -16.374,-16.982 -16.376,-16.983 -0.182,3.002 -0.607,10.006 -0.607,10.007 0,0 0,0 0,0 z"
     clip-path="url(#c3c5fa72-2980-41bf-abd1-5a28f53e24fe)"
     id="path338"
     transform="matrix(0.75251909,0,0,1,-255.62292,-163.20359)" />
  <path
     fill="none"
     stroke="#af692b"
     stroke-width="1"
     stroke-opacity="0"
     stroke-linecap="round"
     stroke-linejoin="round"
     d="m 554.361,422.572 c 0,0 0,0 0,0 0.002,-0.003 13.096,-15.9 14.557,-24.262 0.744,-4.258 -4.271,-10.501 -2.123,-14.253 1.213,-2.119 4.931,-4.309 7.278,-3.639 16.952,4.833 8.177,40.602 7.885,58.227 -0.25,15.119 -5.246,34.902 -8.188,49.735 -1.803,9.091 -7.057,20.844 -6.906,30.11 0.051,3.151 2.451,7.122 2.232,10.266 -1.263,18.101 -14.472,40.719 -26.333,54.451 -5.007,5.796 -13.264,12.755 -20.531,15.175 -8.003,2.665 -20.886,4.342 -28.118,0 -3.918,-2.353 -6.723,-8.565 -8.034,-12.944 -0.615,-2.056 -1.249,-5.15 -0.446,-7.141 3.057,-7.579 16.822,-9.571 22.316,-15.621 9.382,-10.332 18.157,-27.608 21.87,-41.061 4.918,-17.824 2.898,-43.115 2.231,-61.593 -0.296,-8.201 0.442,-19.634 -2.678,-27.225 -1.527,-3.716 -6.065,-7.21 -8.034,-10.712 -4.692,-8.347 -7.81,-20.932 -11.158,-29.903 6.613,3.476 17.079,6.003 22.042,11.587 2.571,2.893 3.609,8.279 5.155,11.827 0,0 0,0 0,0 0,-10e-4 0.425,-7.005 0.607,-10.007 0,0 0,0 0,0 0.002,10e-4 11.463,11.888 16.376,16.983 m -44.18,-30.39 c 0,0 0,0 0,0 m 27.197,23.414 c 0,0 0,0 0,0"
     clip-path="url(#c3c5fa72-2980-41bf-abd1-5a28f53e24fe)"
     id="path340"
     transform="matrix(0.75251909,0,0,1,-255.62292,-163.20359)" />
  <path
     fill="#2f2621"
     fill-rule="evenodd"
     stroke="none"
     d="m 847.138,457.516 c -5.115,-7.086 -13.834,-25.633 -13.835,-25.636 -12.367,1.261 -33.831,-5.791 -41.222,4.203 -4.257,5.756 7.217,18.731 2.13,23.769 -8.09,8.012 -38.129,-19.77 -37.002,-8.44 0.189,1.903 3.431,2.854 4.956,4.007 7.143,5.401 17.354,11.651 24.546,16.987 13.729,10.187 34.31,21.889 44.46,35.645 4.402,5.965 8.562,15.334 9.966,22.613 1.612,8.362 3.894,21.502 -1.15,28.363 -2.898,3.941 -10.776,3.961 -14.948,6.516 -4.319,2.645 -10.96,6.11 -13.032,10.732 -1.364,3.042 -1.024,7.941 0,11.115 1.137,3.524 4.091,8.089 7.283,9.965 5.961,3.504 16.231,2.961 22.997,1.533 9.365,-1.976 22.016,-7.844 27.979,-15.331 7.142,-8.967 8.381,-25.554 9.833,-36.925 1.144,-8.961 0.247,-21.082 0,-30.112 -0.245,-8.922 2.9,-22.014 -1.628,-29.706 -2.217,-3.766 -8.5,-5.679 -11.8,-8.545 -6.456,-5.606 -14.528,-13.821 -19.533,-20.753 z"
     clip-path="url(#c3c5fa72-2980-41bf-abd1-5a28f53e24fe)"
     id="path342"
     transform="matrix(0.75251909,0,0,1,-255.62292,-163.20359)" />
  <path
     fill="none"
     stroke="#af692b"
     stroke-width="1"
     stroke-opacity="0"
     stroke-linecap="round"
     stroke-linejoin="round"
     d="m 847.138,457.516 c -5.115,-7.086 -13.834,-25.633 -13.835,-25.636 -12.367,1.261 -33.831,-5.791 -41.222,4.203 -4.257,5.756 7.217,18.731 2.13,23.769 -8.09,8.012 -38.129,-19.77 -37.002,-8.44 0.189,1.903 3.431,2.854 4.956,4.007 7.143,5.401 17.354,11.651 24.546,16.987 13.729,10.187 34.31,21.889 44.46,35.645 4.402,5.965 8.562,15.334 9.966,22.613 1.612,8.362 3.894,21.502 -1.15,28.363 -2.898,3.941 -10.776,3.961 -14.948,6.516 -4.319,2.645 -10.96,6.11 -13.032,10.732 -1.364,3.042 -1.024,7.941 0,11.115 1.137,3.524 4.091,8.089 7.283,9.965 5.961,3.504 16.231,2.961 22.997,1.533 9.365,-1.976 22.016,-7.844 27.979,-15.331 7.142,-8.967 8.381,-25.554 9.833,-36.925 1.144,-8.961 0.247,-21.082 0,-30.112 -0.245,-8.922 2.9,-22.014 -1.628,-29.706 -2.217,-3.766 -8.5,-5.679 -11.8,-8.545 -6.456,-5.606 -14.528,-13.821 -19.533,-20.753 M 833.303,431.88 c 0,0 0,0 0,0"
     clip-path="url(#c3c5fa72-2980-41bf-abd1-5a28f53e24fe)"
     id="path344"
     transform="matrix(0.75251909,0,0,1,-255.62292,-163.20359)" />
  <path
     style="fill:#302622;fill-opacity:1;stroke:none;stroke-width:1px;stroke-linecap:butt;stroke-linejoin:miter;stroke-opacity:1"
     d="m 94.704166,43.061898 c 34.603934,5.094565 88.953124,59.540692 88.953124,59.540692 l 22.14437,10.26463 c -4.56321,-8.54157 -51.76679,23.20239 -58.80856,17.82096 -10.72151,-8.19354 -45.34971,-87.138968 -52.288934,-87.626282 z"
     id="path1386"
     sodipodi:nodetypes="cccsc" />
</svg>
