<?xml version="1.0" encoding="UTF-8" standalone="no"?>
<svg
   xmlns:dc="http://purl.org/dc/elements/1.1/"
   xmlns:cc="http://creativecommons.org/ns#"
   xmlns:rdf="http://www.w3.org/1999/02/22-rdf-syntax-ns#"
   xmlns:svg="http://www.w3.org/2000/svg"
   xmlns="http://www.w3.org/2000/svg"
   xmlns:sodipodi="http://sodipodi.sourceforge.net/DTD/sodipodi-0.dtd"
   xmlns:inkscape="http://www.inkscape.org/namespaces/inkscape"
   inkscape:version="1.0 (6e3e5246a0, 2020-05-07)"
   sodipodi:docname="tardigrade-dies.svg"
   id="svg78"
   version="1.1"
   y="0px"
   x="0px"
   viewBox="0 0 77.454483 77.787957"
   data-name="Слой 1"
   width="77.454483"
   height="77.787956">
  <metadata
     id="metadata82">
    <rdf:RDF>
      <cc:Work
         rdf:about="">
        <dc:format>image/svg+xml</dc:format>
        <dc:type
           rdf:resource="http://purl.org/dc/dcmitype/StillImage" />
        <dc:title>tardigrada</dc:title>
      </cc:Work>
    </rdf:RDF>
  </metadata>
  <sodipodi:namedview
     inkscape:current-layer="svg78"
     inkscape:window-maximized="1"
     inkscape:window-y="27"
     inkscape:window-x="67"
     inkscape:cy="56.138517"
     inkscape:cx="67.844808"
     inkscape:zoom="4.9611616"
     showgrid="false"
     id="namedview80"
     inkscape:window-height="1025"
     inkscape:window-width="1853"
     inkscape:pageshadow="2"
     inkscape:pageopacity="0"
     guidetolerance="10"
     gridtolerance="10"
     objecttolerance="10"
     borderopacity="1"
     bordercolor="#666666"
     pagecolor="#ffffff"
     inkscape:document-rotation="0" />
  <defs
     id="defs4">
    <style
       id="style2">.cls-1{fill:none;}.cls-1,.cls-2{stroke:#000;stroke-miterlimit:10;}.cls-2{fill:#020202;}</style>
  </defs>
  <title
     id="title6">tardigrada</title>
  <path
     style="fill:none;stroke:#000000;stroke-miterlimit:10"
     id="path8"
     d="m 9.5829785,31.499562 c 4.8499995,-3.26 7.3699995,-7.72 10.1399995,-9.15 1.82,-0.94 7.77,-0.3 9.81,-0.18 2.04,0.12 6.26,-0.75 8,0.27 2.48,1.47 5.22,6.37 6.22,9.06"
     class="cls-1" />
  <path
     style="fill:#949dcc;fill-opacity:1;stroke:#000000;stroke-miterlimit:10"
     id="path10"
     d="m 48.132978,57.149562 c -2.37,-0.11 -1.7,1.54 -1.86,4.75 -0.05,1.14 -2.33,4 -4.45,2.18 -0.94,-0.81 -1.82,-2.36 -3.32,-3.48 a 37.18,37.18 0 0 0 -6.23,-3.29 c -3.27,-1.38 -6,-1.08 -10.65,0 -1,0.23 -4.71,1.49 -6,2.57 -1.61,1.36 -1,2.48 -1.83,3.54 -1.7,2.27 -4.8299995,1 -5.6799995,-0.14 -1.64,-2.2 0.87,-9 1,-11.78 0.1,-2.25 -0.59,-5.39 -1,-9 -0.41,-3.61 1.12,-10.74 2.1600005,-14.12 0.78,-2.53 2.339999,-6.85 3.999999,-8.93 2.46,-3.13 7.08,-5.43 10,-8.16 2.11,-1.9999996 7,-3.1899996 9.45,-3.3299996 a 94.28,94.28 0 0 1 16,0.85 c 5.889996,0.9999998 7.509996,1.7799996 11.489996,6.2399996 3.34,3.75 8.65,5.67 10.5,15 0.18,0.89 0.19,6.91 0.71,7.66 3.54,5.2 3.23,12.93 2.62,15.87 -0.34,1.73 -2.52,2.65 -3.19,1.19 -1.56,-3.41 -2.33,-5.32 -3.83,-0.71 -0.28,0.86 0.71,0.37 -1.3,4.64 -0.7,1.5 -3.56,1.23 -3.67,0.89 -2.27,-7.24 -3.41,-3.12 -3.55,-6 -0.06,-1.29 -0.67,3.69 -1.7,6.38 0,0 -2.27,3 -4.679996,0.66 -0.92,-0.82 -2.98,-3.39 -4.99,-3.48 z"
     class="cls-1" />
  <ellipse
     style="fill:none;stroke:#000000;stroke-miterlimit:10"
     id="ellipse12"
     ry="10.24"
     rx="9.8000002"
     cy="41.679562"
     cx="24.232977"
     class="cls-1" />
  <ellipse
     style="fill:none;stroke:#000000;stroke-miterlimit:10"
     id="ellipse14"
     ry="3.29"
     rx="3.8199999"
     cy="45.519562"
     cx="24.232977"
     class="cls-1" />
  <path
     style="fill:none;stroke:#000000;stroke-miterlimit:10"
     id="path16"
     d="m 21.432978,42.909562 0.89,-3.47 a 2.69,2.69 0 0 1 1.86,-0.87 3.64,3.64 0 0 1 2,0.91 l 0.86,3.47 a 12.86,12.86 0 0 0 -3,-0.59 13.92,13.92 0 0 0 -2.61,0.55 z"
     class="cls-1" />
  <circle
     style="fill:#020202;stroke:#000000;stroke-miterlimit:10"
     id="circle18"
     r="1.4299999"
     cy="46.049561"
     cx="24.232977"
     class="cls-2" />
  <path
     style="fill:none;fill-opacity:1;stroke:#000000;stroke-miterlimit:10"
     id="path20"
     d="m 14.802978,42.799562 c -2.26,-1.65 -2.21,-5.89 -1.93,-8 0.23,-1.69 1.51,-4.67 3,-5.58 1.14,-0.72 6.91,-4.59 11.05,-3.61 3.26,0.78 3.81,1.4 6.51,3 a 7,7 0 0 1 2.63,2.56 c 1.15,2 1.55,6.44 1.31,8 a 5.54,5.54 0 0 1 -3.94,4.72"
     class="cls-1" />
  <path
     style="fill:none;stroke:#000000;stroke-miterlimit:10"
     id="path22"
     d="m 13.422978,49.679562 a 22.17,22.17 0 0 0 8.69,4.72 c 7.84,2 11.26,-7 15.5,-6.91"
     class="cls-1" />
  <path
     style="fill:none;stroke:#000000;stroke-miterlimit:10"
     id="path24"
     d="m 46.292978,58.689562 c -0.27,-1.79 0.11,-5.62 -1.4,-8.6 -0.66,-1.3 3.69,-7.19 0.85,-10.84"
     class="cls-1" />
  <path
     style="fill:none;stroke:#000000;stroke-miterlimit:10"
     id="path26"
     d="m 53.542978,18.909562 c 2.549996,0.85 8.619996,-0.39 10.919996,19.58 0.43,3.65 6.47,4.42 3.55,16.42"
     class="cls-1" />
  <path
     style="fill:none;stroke:#000000;stroke-miterlimit:10"
     id="path28"
     d="m 52.832978,30.649562 c 1.14,0.93 3.579996,3.12 4.539996,9.79 0.43,3 3.83,5 2.13,13.19"
     class="cls-1" />
  <path
     style="fill:none;stroke:#000000;stroke-miterlimit:10"
     id="path30"
     d="m 12.132978,23.839562 c 2,-2.64 7.08,-5 9.18,-7.45 1.54,-1.82 9.41,-0.3 11.88,-0.18 2.47,0.12 7.58,-0.75 9.7,0.27 3,1.44 6.32,6.37 7.53,9.06"
     class="cls-1" />
  <path
     style="fill:none;stroke:#000000;stroke-miterlimit:10"
     id="path32"
     d="m 25.932978,10.249562 c 1.85,-0.5899998 7.91,-0.19 10,-0.11 2.09,0.08 6.38,-0.4799998 8.16,0.17 2.53,0.91 5.31,4 6.34,5.73"
     class="cls-1" />
  <path
     id="path34"
     d="m 55.072974,61.549562 a 1.74,1.74 0 0 0 -1.329996,0 c -0.62,1 0.33,4.91 0.33,4.91 0,0 -0.79,-3.85 0.999996,-4.91 z" />
  <path
     id="path36"
     d="m 56.322974,61.549562 a 1.74,1.74 0 0 0 -1.33,0 c -0.619996,1 0.33,4.91 0.33,4.91 0,0 -0.789996,-3.85 1,-4.91 z" />
  <path
     id="path38"
     d="m 56.702974,60.909562 c 0.06,-0.07 -1.24,0 -1.27,0.3 -0.1,1.1 2.7,4.5 2.7,4.5 0,0 -2.63,-3.39 -1.43,-4.8 z" />
  <path
     id="path40"
     d="m 57.892974,60.649562 c 0.06,-0.07 -1.24,0 -1.27,0.3 -0.1,1.1 2.7,4.5 2.7,4.5 0,0 -2.67,-3.41 -1.43,-4.8 z" />
  <path
     id="path42"
     d="m 64.542974,59.789562 a 1.74,1.74 0 0 0 -1.33,-0.07 c -0.67,1 0.08,4.92 0.08,4.92 0,0 -0.64,-3.89 1.25,-4.85 z" />
  <path
     id="path44"
     d="m 65.782974,59.849562 a 1.74,1.74 0 0 0 -1.33,-0.07 c -0.67,1 0.08,4.92 0.08,4.92 0,0 -0.59,-3.89 1.25,-4.85 z" />
  <path
     id="path46"
     d="m 66.202974,59.249562 c 0.06,-0.07 -1.24,-0.07 -1.28,0.24 -0.15,1.09 2.46,4.64 2.46,4.64 0,0 -2.45,-3.56 -1.18,-4.88 z" />
  <path
     id="path48"
     d="m 67.402974,59.019562 c 0.06,-0.07 -1.24,-0.07 -1.28,0.24 -0.15,1.09 2.46,4.65 2.46,4.65 0,0 -2.45,-3.56 -1.18,-4.89 z" />
  <path
     id="path50"
     d="m 72.652974,55.399562 a 1.38,1.38 0 0 0 -1.06,0 c -0.49,0.82 0.26,3.9 0.26,3.9 0,0 -0.64,-3.06 0.8,-3.9 z" />
  <path
     id="path52"
     d="m 73.652974,55.399562 a 1.38,1.38 0 0 0 -1.06,0 c -0.49,0.82 0.26,3.9 0.26,3.9 0,0 -0.65,-3.06 0.8,-3.9 z" />
  <path
     id="path54"
     d="m 73.932974,54.909562 a 1.33,1.33 0 0 0 -1,0.24 c -0.08,0.87 2.14,3.58 2.14,3.58 0,0 -2.09,-2.72 -1.14,-3.82 z" />
  <path
     id="path56"
     d="m 74.872974,54.679562 a 1.33,1.33 0 0 0 -1,0.24 c -0.08,0.87 2.14,3.58 2.14,3.58 0,0 -2.09,-2.71 -1.14,-3.82 z" />
  <path
     id="path58"
     d="m 43.082978,65.009562 a 1.74,1.74 0 0 0 -1.33,0.05 c -0.58,1.05 0.52,4.9 0.52,4.9 0,0 -0.94,-3.83 0.81,-4.95 z" />
  <path
     id="path60"
     d="m 44.322978,64.969562 a 1.74,1.74 0 0 0 -1.33,0.05 c -0.58,1.05 0.52,4.9 0.52,4.9 0,0 -0.93,-3.83 0.81,-4.95 z" />
  <path
     id="path62"
     d="m 44.652978,64.329562 c 0.06,-0.07 -1.24,0 -1.26,0.35 -0.05,1.1 2.87,4.4 2.87,4.4 0,0 -2.72,-3.32 -1.61,-4.75 z" />
  <path
     id="path64"
     d="m 45.862978,63.999562 c 0.06,-0.07 -1.24,0 -1.26,0.35 -0.05,1.1 2.87,4.4 2.87,4.4 0,0 -2.75,-3.32 -1.61,-4.75 z" />
  <path
     id="path66"
     d="m 10.792979,64.909562 a 1.34,1.34 0 0 1 1.16,0 c 0.539999,1.08 -0.3,5 -0.3,5 0,0 0.699999,-3.9 -0.86,-5 z" />
  <path
     id="path68"
     d="m 9.7029785,64.909562 a 1.34,1.34 0 0 1 1.1600005,0 c 0.54,1 -0.29,4.91 -0.29,4.91 0,0 0.69,-3.81 -0.8700005,-4.91 z" />
  <path
     id="path70"
     d="m 9.3729785,64.339562 a 1.31,1.31 0 0 1 1.1100005,0.3 c 0.08,1.1 -2.3500005,4.5 -2.3500005,4.5 0,0 2.2800005,-3.42 1.24,-4.8 z" />
  <path
     id="path72"
     d="m 8.3329785,64.049562 a 1.31,1.31 0 0 1 1.11,0.3 c 0.08,1.1 -2.35,4.5 -2.35,4.5 0,0 2.28,-3.41 1.24,-4.8 z" />
  <path
     style="fill:none;stroke:#000000;stroke-miterlimit:10"
     id="path74"
     d="m 30.832978,36.179562 c 0,0 -3.31,1.73 -3.89,3.33 -0.72,2 2.86,6.65 2.86,9"
     class="cls-1" />
  <path
     style="fill:none;stroke:#000000;stroke-miterlimit:10"
     id="path76"
     d="m 17.502978,36.179562 c 0,0 3.31,1.73 3.9,3.34 0.72,2 -2.86,6.65 -2.86,9"
     class="cls-1" />
  <g
     transform="matrix(0.07745382,0,0,0.07745382,53.735825,11.117083)"
     id="g877">
    <path
       inkscape:connector-curvature="0"
       style="fill:none;stroke:#ff0000;stroke-width:105.677"
       d="m 253.386,358.62526 a 447.16579,447.16327 0 1 1 -894.32119,0 447.16579,447.16327 0 1 1 894.32119,0 z"
       id="path2-3" />
    <path
       inkscape:connector-curvature="0"
       style="fill:none;stroke:#ff0000;stroke-width:100"
       d="M -526.93151,25.466408 139.40112,691.79905"
       id="path4-6" />
  </g>
</svg>
