<?xml version="1.0" encoding="UTF-8" standalone="no"?>
<!-- Created with Inkscape (http://www.inkscape.org/) -->

<svg
   xmlns:dc="http://purl.org/dc/elements/1.1/"
   xmlns:cc="http://creativecommons.org/ns#"
   xmlns:rdf="http://www.w3.org/1999/02/22-rdf-syntax-ns#"
   xmlns:svg="http://www.w3.org/2000/svg"
   xmlns="http://www.w3.org/2000/svg"
   xmlns:sodipodi="http://sodipodi.sourceforge.net/DTD/sodipodi-0.dtd"
   xmlns:inkscape="http://www.inkscape.org/namespaces/inkscape"
   version="1.1"
   id="svg2"
   xml:space="preserve"
   width="677.98962"
   height="353.33331"
   viewBox="0 0 677.98962 353.33331"
   sodipodi:docname="plane01.svg"
   inkscape:version="0.92.4 (fd57863, 2020-04-02)"><metadata
     id="metadata8"><rdf:RDF><cc:Work
         rdf:about=""><dc:format>image/svg+xml</dc:format><dc:type
           rdf:resource="http://purl.org/dc/dcmitype/StillImage" /><dc:title></dc:title></cc:Work></rdf:RDF></metadata><defs
     id="defs6"><clipPath
       clipPathUnits="userSpaceOnUse"
       id="clipPath18"><path
         d="M 0,720 H 720 V 0 H 0 Z"
         id="path16"
         inkscape:connector-curvature="0" /></clipPath></defs><sodipodi:namedview
     pagecolor="#ffffff"
     bordercolor="#666666"
     borderopacity="1"
     objecttolerance="10"
     gridtolerance="10"
     guidetolerance="10"
     inkscape:pageopacity="0"
     inkscape:pageshadow="2"
     inkscape:window-width="1853"
     inkscape:window-height="1025"
     id="namedview4"
     showgrid="false"
     inkscape:zoom="0.24583333"
     inkscape:cx="338.9948"
     inkscape:cy="176.66667"
     inkscape:window-x="67"
     inkscape:window-y="27"
     inkscape:window-maximized="1"
     inkscape:current-layer="g10" /><g
     id="g10"
     inkscape:groupmode="layer"
     inkscape:label="childrens-plane-1789559"
     transform="matrix(1.3333333,0,0,-1.3333333,-141.0052,656.66665)"><g
       id="g12"
       transform="matrix(-1,0,0,1,720.00004,0)"><g
         id="g14"
         clip-path="url(#clipPath18)"><g
           id="g20"
           transform="translate(329.887,406.5068)"><path
             d="M 0,0 C 0.645,1.222 0.111,2.769 -1.191,3.456 -2.494,4.144 -4.072,3.711 -4.717,2.489 -5.26,1.46 -4.959,0.206 -4.073,-0.576 l -7.432,-14.081 1.326,-0.7 7.455,14.123 C -1.631,-1.438 -0.516,-0.979 0,0"
             style="fill:#514040;fill-opacity:1;fill-rule:nonzero;stroke:none"
             id="path22"
             inkscape:connector-curvature="0" /></g><g
           id="g24"
           transform="translate(382.9883,406.9932)"><path
             d="m 0,0 c 0,10.125 -5.548,19.596 -12.124,18.333 -3.998,-0.768 -8.864,-3.534 -8.864,-13.659 0,0 -0.735,-23.007 5.778,-23.007 h 3.086 C -5.428,-18.333 0,-10.125 0,0"
             style="fill:#514040;fill-opacity:1;fill-rule:nonzero;stroke:none"
             id="path26"
             inkscape:connector-curvature="0" /></g><g
           id="g28"
           transform="translate(289.8699,258.7695)"><path
             d="m 0,0 -7.886,-3.172 -25.001,62.16 7.886,3.172 z"
             style="fill:#7f7f7f;fill-opacity:1;fill-rule:nonzero;stroke:none"
             id="path30"
             inkscape:connector-curvature="0" /></g><g
           id="g32"
           transform="translate(559.9482,464.7617)"><path
             d="m 0,0 c -21.091,0 -40.115,-21.929 -42.633,-47.595 l -136.534,0.82 v -7.153 c 0,-5.184 -4.001,-9.447 -9.124,-9.949 l -42.639,-0.635 c -5.599,0 -10.138,4.478 -10.138,10 l -0.549,6.87 -118.911,0.713 v -117.333 c 0,0 84.757,5.595 220.614,39.928 168.059,42.471 176.751,54 178.102,91.001 C 38.861,-14.936 21.091,0 0,0"
             style="fill:#7c0000;fill-opacity:1;fill-rule:nonzero;stroke:none"
             id="path34"
             inkscape:connector-curvature="0" /></g><g
           id="g36"
           transform="translate(147.7539,370.8008)"><path
             d="m 0,0 c 0,4.786 -9.402,8.666 -21,8.666 -1.822,0 -3.58,-0.105 -5.265,-0.285 1.919,8.659 20.245,93.699 -0.162,94.945 -20.76,1.268 -2.042,-86.36 -0.152,-94.979 C -35.465,7.338 -42,3.987 -42,0 c 0,-3.988 6.535,-7.339 15.422,-8.348 -1.89,-8.614 -20.609,-96.248 0.151,-94.98 20.407,1.246 2.08,86.293 0.162,94.947 1.685,-0.181 3.443,-0.286 5.265,-0.286 11.598,0 21,3.88 21,8.667"
             style="fill:#474242;fill-opacity:1;fill-rule:nonzero;stroke:none"
             id="path38"
             inkscape:connector-curvature="0" /></g><g
           id="g40"
           transform="translate(124.4204,370.7998)"><path
             d="m 0,0 c 0,-11.229 9.104,-20.333 20.333,-20.333 h 15 c 11.23,0 20.334,9.104 20.334,20.333 0,11.23 -9.104,20.334 -20.334,20.334 h -15 C 9.104,20.334 0,11.23 0,0"
             style="fill:#c10000;fill-opacity:1;fill-rule:nonzero;stroke:none"
             id="path42"
             inkscape:connector-curvature="0" /></g><g
           id="g44"
           transform="translate(199.4207,417.5)"><path
             d="m 0,0 h -20.833 c -20.895,0 -23.834,2.062 -23.834,-18.833 v -75.334 c 0,-20.895 1.939,-22.833 22.834,-22.833 H 0 Z"
             style="fill:#a39f9f;fill-opacity:1;fill-rule:nonzero;stroke:none"
             id="path46"
             inkscape:connector-curvature="0" /></g><g
           id="g48"
           transform="translate(196.0874,409.333)"><path
             d="m 0,0 c 0,-2.301 -1.865,-4.166 -4.167,-4.166 -2.301,0 -4.166,1.865 -4.166,4.166 0,2.302 1.865,4.167 4.166,4.167 C -1.865,4.167 0,2.302 0,0"
             style="fill:#595959;fill-opacity:1;fill-rule:nonzero;stroke:none"
             id="path50"
             inkscape:connector-curvature="0" /></g><g
           id="g52"
           transform="translate(196.0874,398.333)"><path
             d="m 0,0 c 0,-2.301 -1.865,-4.166 -4.167,-4.166 -2.301,0 -4.166,1.865 -4.166,4.166 0,2.302 1.865,4.167 4.166,4.167 C -1.865,4.167 0,2.302 0,0"
             style="fill:#595959;fill-opacity:1;fill-rule:nonzero;stroke:none"
             id="path54"
             inkscape:connector-curvature="0" /></g><g
           id="g56"
           transform="translate(196.0874,387.333)"><path
             d="m 0,0 c 0,-2.301 -1.865,-4.166 -4.167,-4.166 -2.301,0 -4.166,1.865 -4.166,4.166 0,2.302 1.865,4.167 4.166,4.167 C -1.865,4.167 0,2.302 0,0"
             style="fill:#595959;fill-opacity:1;fill-rule:nonzero;stroke:none"
             id="path58"
             inkscape:connector-curvature="0" /></g><g
           id="g60"
           transform="translate(196.0874,376.333)"><path
             d="m 0,0 c 0,-2.301 -1.865,-4.166 -4.167,-4.166 -2.301,0 -4.166,1.865 -4.166,4.166 0,2.302 1.865,4.167 4.166,4.167 C -1.865,4.167 0,2.302 0,0"
             style="fill:#595959;fill-opacity:1;fill-rule:nonzero;stroke:none"
             id="path62"
             inkscape:connector-curvature="0" /></g><g
           id="g64"
           transform="translate(196.0874,365.333)"><path
             d="m 0,0 c 0,-2.301 -1.865,-4.166 -4.167,-4.166 -2.301,0 -4.166,1.865 -4.166,4.166 0,2.302 1.865,4.167 4.166,4.167 C -1.865,4.167 0,2.302 0,0"
             style="fill:#595959;fill-opacity:1;fill-rule:nonzero;stroke:none"
             id="path66"
             inkscape:connector-curvature="0" /></g><g
           id="g68"
           transform="translate(196.0874,353.333)"><path
             d="m 0,0 c 0,-2.301 -1.865,-4.166 -4.167,-4.166 -2.301,0 -4.166,1.865 -4.166,4.166 0,2.302 1.865,4.167 4.166,4.167 C -1.865,4.167 0,2.302 0,0"
             style="fill:#595959;fill-opacity:1;fill-rule:nonzero;stroke:none"
             id="path70"
             inkscape:connector-curvature="0" /></g><g
           id="g72"
           transform="translate(196.0874,342.333)"><path
             d="m 0,0 c 0,-2.301 -1.865,-4.166 -4.167,-4.166 -2.301,0 -4.166,1.865 -4.166,4.166 0,2.302 1.865,4.167 4.166,4.167 C -1.865,4.167 0,2.302 0,0"
             style="fill:#595959;fill-opacity:1;fill-rule:nonzero;stroke:none"
             id="path74"
             inkscape:connector-curvature="0" /></g><g
           id="g76"
           transform="translate(448.0874,410.333)"><path
             d="m 0,0 c 0,-2.301 -1.865,-4.166 -4.167,-4.166 -2.301,0 -4.166,1.865 -4.166,4.166 0,2.302 1.865,4.167 4.166,4.167 C -1.865,4.167 0,2.302 0,0"
             style="fill:#c4c4c4;fill-opacity:1;fill-rule:nonzero;stroke:none"
             id="path78"
             inkscape:connector-curvature="0" /></g><g
           id="g80"
           transform="translate(448.0874,399.333)"><path
             d="m 0,0 c 0,-2.301 -1.865,-4.166 -4.167,-4.166 -2.301,0 -4.166,1.865 -4.166,4.166 0,2.302 1.865,4.167 4.166,4.167 C -1.865,4.167 0,2.302 0,0"
             style="fill:#c4c4c4;fill-opacity:1;fill-rule:nonzero;stroke:none"
             id="path82"
             inkscape:connector-curvature="0" /></g><g
           id="g84"
           transform="translate(448.0874,388.333)"><path
             d="m 0,0 c 0,-2.301 -1.865,-4.166 -4.167,-4.166 -2.301,0 -4.166,1.865 -4.166,4.166 0,2.302 1.865,4.167 4.166,4.167 C -1.865,4.167 0,2.302 0,0"
             style="fill:#c4c4c4;fill-opacity:1;fill-rule:nonzero;stroke:none"
             id="path86"
             inkscape:connector-curvature="0" /></g><g
           id="g88"
           transform="translate(448.0874,377.333)"><path
             d="m 0,0 c 0,-2.301 -1.865,-4.166 -4.167,-4.166 -2.301,0 -4.166,1.865 -4.166,4.166 0,2.302 1.865,4.167 4.166,4.167 C -1.865,4.167 0,2.302 0,0"
             style="fill:#c4c4c4;fill-opacity:1;fill-rule:nonzero;stroke:none"
             id="path90"
             inkscape:connector-curvature="0" /></g><g
           id="g92"
           transform="translate(448.0874,366.333)"><path
             d="m 0,0 c 0,-2.301 -1.865,-4.166 -4.167,-4.166 -2.301,0 -4.166,1.865 -4.166,4.166 0,2.302 1.865,4.167 4.166,4.167 C -1.865,4.167 0,2.302 0,0"
             style="fill:#c4c4c4;fill-opacity:1;fill-rule:nonzero;stroke:none"
             id="path94"
             inkscape:connector-curvature="0" /></g><g
           id="g96"
           transform="translate(448.0874,354.333)"><path
             d="m 0,0 c 0,-2.301 -1.865,-4.166 -4.167,-4.166 -2.301,0 -4.166,1.865 -4.166,4.166 0,2.302 1.865,4.167 4.166,4.167 C -1.865,4.167 0,2.302 0,0"
             style="fill:#c4c4c4;fill-opacity:1;fill-rule:nonzero;stroke:none"
             id="path98"
             inkscape:connector-curvature="0" /></g><g
           id="g100"
           transform="translate(196.0874,331.333)"><path
             d="m 0,0 c 0,-2.301 -1.865,-4.166 -4.167,-4.166 -2.301,0 -4.166,1.865 -4.166,4.166 0,2.302 1.865,4.167 4.166,4.167 C -1.865,4.167 0,2.302 0,0"
             style="fill:#595959;fill-opacity:1;fill-rule:nonzero;stroke:none"
             id="path102"
             inkscape:connector-curvature="0" /></g><g
           id="g104"
           transform="translate(196.0874,320.333)"><path
             d="m 0,0 c 0,-2.301 -1.865,-4.166 -4.167,-4.166 -2.301,0 -4.166,1.865 -4.166,4.166 0,2.302 1.865,4.167 4.166,4.167 C -1.865,4.167 0,2.302 0,0"
             style="fill:#595959;fill-opacity:1;fill-rule:nonzero;stroke:none"
             id="path106"
             inkscape:connector-curvature="0" /></g><g
           id="g108"
           transform="translate(196.0874,309.333)"><path
             d="m 0,0 c 0,-2.301 -1.865,-4.166 -4.167,-4.166 -2.301,0 -4.166,1.865 -4.166,4.166 0,2.302 1.865,4.167 4.166,4.167 C -1.865,4.167 0,2.302 0,0"
             style="fill:#595959;fill-opacity:1;fill-rule:nonzero;stroke:none"
             id="path110"
             inkscape:connector-curvature="0" /></g><g
           id="g112"
           transform="translate(318.7615,417.3818)"><path
             d="m 0,0 c 2.492,3.868 13.242,9.993 2.492,27.993 -23.375,4.25 -43.5,-13.542 -43.5,-27.625 0,-0.047 5.792,-1.257 11.5,-5.625 11.509,-8.806 29.499,-2.213 29.501,-2.291 z"
             style="fill:#b5b4b4;fill-opacity:1;fill-rule:nonzero;stroke:none"
             id="path114"
             inkscape:connector-curvature="0" /></g><g
           id="g116"
           transform="translate(613.9741,393.7588)"><path
             d="m 0,0 c -10.637,-1.658 -35.357,0.69 -60.227,0.69 -24.871,0 -41.993,-2.381 -41.993,2.349 0,4.73 0.408,8.702 25.278,8.702 C -52.071,11.741 4.673,0.729 0,0"
             style="fill:#c60000;fill-opacity:1;fill-rule:nonzero;stroke:none"
             id="path118"
             inkscape:connector-curvature="0" /></g><g
           id="g120"
           transform="translate(248.5588,370.2939)"><path
             d="m 0,0 -7.886,-3.172 -43.508,108.177 7.886,3.172 z"
             style="fill:#7f7f7f;fill-opacity:1;fill-rule:nonzero;stroke:none"
             id="path122"
             inkscape:connector-curvature="0" /></g><g
           id="g124"
           transform="translate(311.2073,368.1963)"><path
             d="m 0,0 -7.886,-3.172 -46.208,114.887 7.886,3.172 z"
             style="fill:#7f7f7f;fill-opacity:1;fill-rule:nonzero;stroke:none"
             id="path126"
             inkscape:connector-curvature="0" /></g><g
           id="g128"
           transform="translate(394.5037,353.75)"><path
             d="m 0,0 c -19.25,-3 -63.989,1.25 -109,1.25 -45.011,0 -76,-4.311 -76,4.25 0,8.561 0.739,15.75 45.75,15.75 C -94.239,21.25 8.458,1.318 0,0"
             style="fill:#c60000;fill-opacity:1;fill-rule:nonzero;stroke:none"
             id="path130"
             inkscape:connector-curvature="0" /></g><g
           id="g132"
           transform="translate(345.2537,471.25)"><path
             d="m 0,0 c -19.25,-3 -63.989,1.25 -109,1.25 -45.011,0 -76,-4.311 -76,4.25 0,8.561 0.739,15.75 45.75,15.75 C -94.239,21.25 8.458,1.318 0,0"
             style="fill:#c60000;fill-opacity:1;fill-rule:nonzero;stroke:none"
             id="path134"
             inkscape:connector-curvature="0" /></g><g
           id="g136"
           transform="translate(307.5037,252.25)"><path
             d="m 0,0 c 0,-13.669 -11.081,-24.75 -24.75,-24.75 -13.669,0 -24.75,11.081 -24.75,24.75 0,13.669 11.081,24.75 24.75,24.75 C -11.081,24.75 0,13.669 0,0"
             style="fill:#000000;fill-opacity:1;fill-rule:nonzero;stroke:none"
             id="path138"
             inkscape:connector-curvature="0" /></g><g
           id="g140"
           transform="translate(298.2537,252.25)"><path
             d="m 0,0 c 0,-8.561 -6.94,-15.5 -15.5,-15.5 -8.56,0 -15.5,6.939 -15.5,15.5 0,8.561 6.94,15.5 15.5,15.5 C -6.94,15.5 0,8.561 0,0"
             style="fill:#7f7f7f;fill-opacity:1;fill-rule:nonzero;stroke:none"
             id="path142"
             inkscape:connector-curvature="0" /></g><g
           id="g144"
           transform="translate(337.9927,249.1963)"><path
             d="m 0,0 c -9.91,-4.949 -32.942,2.063 -56.114,2.063 -23.172,0 -39.125,-7.112 -39.125,7.009 0,14.122 0.38,25.982 23.552,25.982 C -48.515,35.054 4.354,2.175 0,0"
             style="fill:#c60000;fill-opacity:1;fill-rule:nonzero;stroke:none"
             id="path146"
             inkscape:connector-curvature="0" /></g></g></g><text
       transform="scale(-1.0904157,-0.91708144)"
       style="font-variant:normal;font-weight:bold;font-stretch:normal;font-size:42.16419601px;font-family:'Stencil Std';-inkscape-font-specification:StencilStd;writing-mode:lr-tb;fill:#aaaaaa;fill-opacity:1;fill-rule:nonzero;stroke:none;stroke-width:0.91708142"
       id="text150"
       x="-160.64244"
       y="-456.11859"><tspan
         x="-160.64244"
         y="-456.11859"
         id="tspan148"
         style="stroke-width:0.91708142">B</tspan></text>
</g></svg>