<?xml version="1.0" encoding="UTF-8" standalone="no"?>
<svg
   xmlns:dc="http://purl.org/dc/elements/1.1/"
   xmlns:cc="http://creativecommons.org/ns#"
   xmlns:rdf="http://www.w3.org/1999/02/22-rdf-syntax-ns#"
   xmlns:svg="http://www.w3.org/2000/svg"
   xmlns="http://www.w3.org/2000/svg"
   xmlns:sodipodi="http://sodipodi.sourceforge.net/DTD/sodipodi-0.dtd"
   xmlns:inkscape="http://www.inkscape.org/namespaces/inkscape"
   enable-background="new 0 0 1000 1000"
   version="1.1"
   viewBox="0 0 300 300"
   xml:space="preserve"
   id="svg456"
   sodipodi:docname="sand.svg"
   width="300"
   height="300"
   inkscape:version="0.92.4 (f8dce91, 2019-08-02)"><metadata
   id="metadata462"><rdf:RDF><cc:Work
       rdf:about=""><dc:format>image/svg+xml</dc:format><dc:type
         rdf:resource="http://purl.org/dc/dcmitype/StillImage" /><dc:title></dc:title></cc:Work></rdf:RDF></metadata><defs
   id="defs460" /><sodipodi:namedview
   pagecolor="#ffffff"
   bordercolor="#666666"
   borderopacity="1"
   objecttolerance="10"
   gridtolerance="10"
   guidetolerance="10"
   inkscape:pageopacity="0"
   inkscape:pageshadow="2"
   inkscape:window-width="1296"
   inkscape:window-height="704"
   id="namedview458"
   showgrid="false"
   inkscape:zoom="1.0066875"
   inkscape:cx="254.70302"
   inkscape:cy="170.36606"
   inkscape:window-x="70"
   inkscape:window-y="27"
   inkscape:window-maximized="1"
   inkscape:current-layer="svg456" />
<style
   type="text/css"
   id="style2">
	.st0{fill:#D3EBF5;}
	.st1{opacity:0.74;}
	.st2{fill:#64748F;}
	.st3{fill:#FFFFFF;}
	.st4{fill:#869DBB;}
	.st5{fill:#B5D3E1;}
	.st6{fill:#3F4355;}
</style>
	<rect
   class="st0"
   width="300"
   height="300"
   id="rect4"
   x="0"
   y="9.5367454e-08"
   style="fill:#d3ebf5;stroke-width:0.29999998" />
	
	
	
	
	
	
	
	
	
	
	
	
	<g
   class="st1"
   id="g82"
   transform="translate(2.3603439e-6)"
   style="opacity:0.73999999">
		<path
   class="st4"
   d="M 114.7,18.1 C 120,13.5 123.9,7.2 126.5,0 H 17 c 25.2,21.9 74,38.6 97.7,18.1 z"
   id="path78"
   inkscape:connector-curvature="0"
   style="fill:#869dbb" />
		<path
   class="st3"
   d="m 86,30.9 c 11.6,0 22.6,-2.9 30.9,-10.1 5.8,-5 10.3,-12.3 13.2,-20.8 h -7.4 c -2.5,6.4 -6,11.7 -10.4,15.5 C 95.8,29.8 66.4,23.9 44.5,13.5 36.2,9.6 28.7,4.9 22.5,0 H 11.8 C 20,7.8 30.8,14.7 41.6,19.8 55,26.2 71.1,30.9 86,30.9 Z"
   id="path80"
   inkscape:connector-curvature="0"
   style="fill:#ffffff" />
	</g>
	
	
	
	
	
	
	
	<g
   class="st1"
   id="g130"
   transform="translate(0,1.5)"
   style="opacity:0.73999999">
		<path
   class="st2"
   d="m 0,47.4 v 106 C 0.4,153.2 0.9,153 1.3,152.7 24.1,140.1 29.7,73.6 0,47.4 Z"
   id="path126"
   inkscape:connector-curvature="0"
   style="fill:#64748f" />
		<path
   class="st3"
   d="M 23.8,98.5 C 22.9,73.9 14.2,53.9 0,42.9 v 9.4 C 10,62.6 16.1,79 16.8,98.8 17.7,122 10.6,143.1 0,149.5 v 7.7 c 1,-0.4 2,-0.9 3,-1.4 13.2,-7.3 21.8,-30.9 20.8,-57.3 z"
   id="path128"
   inkscape:connector-curvature="0"
   style="fill:#ffffff" />
	</g>
	
	
	
	
	
	<g
   class="st1"
   id="g166"
   transform="translate(0.1,-613.8)"
   style="opacity:0.73999999">
		<path
   class="st2"
   d="M 52.3,828.8 C 81.2,804.1 78.7,730.1 38.1,702.7 26.7,695 13.5,691.8 -0.1,691.9 v 146.3 c 20.7,3.4 39.9,1.3 52.4,-9.4 z"
   id="path162"
   inkscape:connector-curvature="0"
   style="fill:#64748f" />
		<path
   class="st3"
   d="m 17.1,843.2 c 15.5,0 28.4,-4 37.5,-11.7 14,-12 21.8,-35.7 20.4,-61.9 C 73.3,739.5 60.3,713.5 40.1,699.8 28.8,692.1 15,688.3 0,688.5 v 7 c 13.6,-0.1 26,3.2 36.2,10.1 18.4,12.4 30.2,36.5 31.8,64.4 1.3,24 -5.5,45.6 -17.9,56.2 -12.3,10.5 -31,11.8 -50.1,8.5 v 7.1 c 3.6,0.6 7.2,1 10.6,1.3 2.2,0 4.4,0.1 6.5,0.1 z"
   id="path164"
   inkscape:connector-curvature="0"
   style="fill:#ffffff" />
	</g>
	
	
	
	
	<g
   class="st1"
   id="g196"
   style="opacity:0.73999999">
		<path
   class="st6"
   d="M 75.4,0 H 0 V 83.9 C 33.7,73.7 68.6,37.4 75.4,0 Z"
   id="path192"
   inkscape:connector-curvature="0"
   style="fill:#3f4355" />
		<path
   class="st3"
   d="M 49.7,55.3 C 65.6,38.2 75.7,18.8 79,0 H 71.9 C 68.7,17.1 59.3,34.8 44.6,50.5 31,65 15.1,75.4 0,80.2 v 7.3 C 17,82.6 34.8,71.3 49.7,55.3 Z"
   id="path194"
   inkscape:connector-curvature="0"
   style="fill:#ffffff" />
	</g>
	
	
	
	
	
	
	<g
   class="st1"
   id="g238"
   transform="translate(-689.6)"
   style="opacity:0.73999999">
		<path
   class="st2"
   d="M 842.2,72.6 C 887.9,74.9 922.8,36 935.3,0 H 757.7 c 10.6,33.9 42.1,70.5 84.5,72.6 z"
   id="path234"
   inkscape:connector-curvature="0"
   style="fill:#64748f" />
		<path
   class="st3"
   d="m 842,76.1 c 1.3,0.1 2.7,0.1 4,0.1 29.5,0 57.6,-16.5 77.7,-45.7 C 930.4,20.7 935.6,10.2 939,0 h -7.3 C 928.5,8.9 923.9,17.9 918,26.5 898.5,55 870.9,70.5 842.4,69.1 815.1,67.7 789.6,51.1 772.5,23.5 767.7,15.8 764,7.8 761.5,0 H 754 c 2.7,9 6.9,18.3 12.4,27.2 18.4,29.6 45.9,47.4 75.6,48.9 z"
   id="path236"
   inkscape:connector-curvature="0"
   style="fill:#ffffff" />
	</g>
	
	
	
	
	
	
	
	
	
	
	
	
	<g
   class="st1"
   id="g316"
   transform="translate(-581.53583,-700)"
   style="opacity:0.73999999">
		<path
   class="st4"
   d="M 702.8,992.6 C 675.3,969 625,978.1 590.5,1000 h 119.4 c -2.1,-2.7 -4.5,-5.2 -7.1,-7.4 z"
   id="path312"
   inkscape:connector-curvature="0"
   style="fill:#869dbb" />
		<path
   class="st3"
   d="m 705.1,990 c -24.3,-20.8 -63.2,-16.5 -91.6,-5.5 -11,4.3 -20.9,9.5 -29.5,15.5 h 13.2 c 5.8,-3.3 12.1,-6.4 18.8,-9 26.4,-10.3 62.5,-14.6 84.5,4.2 1.7,1.4 3.3,3 4.8,4.7 h 8.9 c -2.7,-3.7 -5.7,-7.1 -9.1,-9.9 z"
   id="path314"
   inkscape:connector-curvature="0"
   style="fill:#ffffff" />
	</g>
	
	
	<g
   class="st1"
   id="g334"
   style="opacity:0.73999999"
   transform="translate(-701.53583,-700)">
		<path
   class="st2"
   d="m 937.1,956.4 c -20.4,-45.6 -159,-45.5 -180,2.8 -4.7,10.8 -4.2,25.5 0.6,40.8 h 177.6 c 5.8,-16.6 6.7,-32.6 1.8,-43.6 z"
   id="path330"
   inkscape:connector-curvature="0"
   style="fill:#64748f" />
		<path
   class="st3"
   d="m 940.3,955 c -12,-26.8 -57.1,-36 -92.2,-35.9 -35.8,0.2 -81.9,10.5 -94.2,38.7 -4.9,11.2 -4.6,26.3 0.1,42.2 h 7.4 c -4.8,-15 -5.4,-29.3 -1.1,-39.4 10.2,-23.6 51.5,-34.3 87.8,-34.5 35.5,-0.2 75.9,9.5 85.8,31.7 4.7,10.5 3.6,26 -2.3,42.2 h 7.3 c 5.8,-17.1 6.5,-33.6 1.4,-45 z"
   id="path332"
   inkscape:connector-curvature="0"
   style="fill:#ffffff" />
	</g>
	
	
	
	
	
	
	
	<g
   class="st1"
   id="g382"
   transform="translate(-700,-688.6)"
   style="opacity:0.73999999">
		<path
   class="st2"
   d="m 900.7,763.6 c -0.3,30.8 53,66.9 99.3,74.6 V 691.9 c -47.1,0.6 -99,41.5 -99.3,71.7 z"
   id="path378"
   inkscape:connector-curvature="0"
   style="fill:#64748f" />
		<path
   class="st3"
   d="m 897.2,763.6 c -0.3,25 30.5,50.6 61.2,65 13.8,6.5 28.3,11 41.6,13.2 v -7.1 c -13.5,-2.3 -27.1,-7 -38.6,-12.4 -33.9,-15.8 -57.4,-39.9 -57.2,-58.6 0.2,-17.4 20.4,-40.6 48.1,-55.1 16.3,-8.5 32.7,-12.9 47.7,-13 v -7 c -16.1,0.1 -33.6,4.8 -50.9,13.8 -30.4,15.8 -51.7,41 -51.9,61.2 z"
   id="path380"
   inkscape:connector-curvature="0"
   style="fill:#ffffff" />
	</g>
	<g
   class="st1"
   id="g388"
   transform="translate(-700,0.1)"
   style="opacity:0.73999999">
		<path
   class="st6"
   d="m 974.4,86.2 c 8.1,1.3 16.8,0.4 25.6,-2.2 V 0 h -91.7 c 8.8,40.6 33.9,80.9 66.1,86.2 z"
   id="path384"
   inkscape:connector-curvature="0"
   style="fill:#3f4355" />
		<path
   class="st3"
   d="m 973.8,89.6 c 2.6,0.4 5.2,0.6 7.9,0.6 5.8,0 12,-1 18.2,-2.8 v -7.3 c -8.8,2.8 -17.4,3.7 -25.1,2.5 C 950.6,78.7 927.2,51.3 915.2,13 913.8,8.6 912.7,4.2 911.7,-0.1 h -7.2 c 1.1,5 2.4,10 4,15.2 10.3,32.6 32.8,69.2 65.3,74.5 z"
   id="path386"
   inkscape:connector-curvature="0"
   style="fill:#ffffff" />
	</g>
	<g
   class="st1"
   id="g394"
   style="opacity:0.73999999"
   transform="translate(-700,-700)">
		<path
   class="st6"
   d="m 920.5,921.8 c -16.4,15.7 -19.1,47.1 -12.3,78.2 h 91.7 v -89.2 c -30.9,-7.6 -63.2,-4.6 -79.4,11 z"
   id="path390"
   inkscape:connector-curvature="0"
   style="fill:#3f4355" />
		<path
   class="st3"
   d="m 918.1,919.2 c -16.1,15.5 -20.9,46.2 -13.4,80.8 h 7.2 c -7.3,-32.5 -3.2,-61.9 11.1,-75.7 14.7,-14.2 45.2,-18 77,-9.9 v -7.2 c -33.5,-8.1 -65.8,-3.5 -81.9,12 z"
   id="path392"
   inkscape:connector-curvature="0"
   style="fill:#ffffff" />
	</g>
	<g
   class="st1"
   id="g400"
   style="opacity:0.73999999"
   transform="translate(-700,-698.5)">
		<path
   class="st6"
   d="m 945.1,871.9 c 5.2,13.2 28.3,21.1 54.9,23.1 V 791.3 c -36,16.7 -62.6,61.1 -54.9,80.6 z"
   id="path396"
   inkscape:connector-curvature="0"
   style="fill:#3f4355" />
		<path
   class="st3"
   d="m 964.7,813.7 c -19,21 -28.5,45.5 -22.9,59.5 6.3,16.1 33.3,23.5 58.2,25.3 v -7 c -26.9,-2 -47.4,-10.1 -51.7,-20.9 -4.4,-11.2 4.9,-33.7 21.6,-52.2 9.3,-10.3 19.6,-18.2 30.1,-23.2 v -7.7 c -12.4,5.4 -24.4,14.3 -35.3,26.2 z"
   id="path398"
   inkscape:connector-curvature="0"
   style="fill:#ffffff" />
	</g>
	
	
	
	
	
	
	
	
	<g
   class="st1"
   id="g454"
   transform="matrix(1.1581199,0,0,1.2217701,-855.23532,-909.95783)"
   style="opacity:0.73999999">
		<path
   class="st6"
   d="m 843.6,788.3 c -46.2,10.6 -81,75.7 -65.2,114.8 24.2,59.7 166.7,59.1 187.1,17 19.1,-39.5 -53.6,-147.5 -121.9,-131.8 z"
   id="path450"
   inkscape:connector-curvature="0"
   style="fill:#3f4355" />
		<path
   class="st3"
   d="m 883.1,953.5 c -2.2,0 -4.5,0 -6.7,-0.1 -39.9,-1.3 -87.5,-14.9 -101.3,-49 -7.5,-18.6 -4.6,-44.1 8,-68.2 13.9,-26.7 36.2,-45.9 59.7,-51.3 31.9,-7.3 68.7,10.5 98.3,47.7 25.9,32.5 37.2,69.1 27.5,89.1 -10.8,22.2 -49.6,31.8 -85.5,31.8 z M 857.3,790.3 c -4.4,0 -8.7,0.5 -13,1.5 -21.5,4.9 -42.1,22.8 -55.1,47.7 -11.6,22.3 -14.5,45.6 -7.7,62.3 12.6,31 59.1,43.4 95.1,44.6 41.8,1.4 77,-10 85.6,-27.8 8.4,-17.3 -2.8,-51.7 -26.7,-81.7 -23.8,-29.9 -52.2,-46.6 -78.2,-46.6 z"
   id="path452"
   inkscape:connector-curvature="0"
   style="fill:#ffffff" />
	</g>
</svg>