<?xml version="1.0" encoding="UTF-8" standalone="no"?>
<svg
   xmlns:dc="http://purl.org/dc/elements/1.1/"
   xmlns:cc="http://creativecommons.org/ns#"
   xmlns:rdf="http://www.w3.org/1999/02/22-rdf-syntax-ns#"
   xmlns:svg="http://www.w3.org/2000/svg"
   xmlns="http://www.w3.org/2000/svg"
   xmlns:xlink="http://www.w3.org/1999/xlink"
   xmlns:sodipodi="http://sodipodi.sourceforge.net/DTD/sodipodi-0.dtd"
   xmlns:inkscape="http://www.inkscape.org/namespaces/inkscape"
   inkscape:version="1.0 (6e3e5246a0, 2020-05-07)"
   height="85.701401"
   width="324.6261"
   sodipodi:docname="nematode.svg"
   id="svg57"
   version="1.1"
   viewBox="0 0 324.6261 85.701401">
  <metadata
     id="metadata61">
    <rdf:RDF>
      <cc:Work
         rdf:about="">
        <dc:format>image/svg+xml</dc:format>
        <dc:type
           rdf:resource="http://purl.org/dc/dcmitype/StillImage" />
      </cc:Work>
    </rdf:RDF>
  </metadata>
  <sodipodi:namedview
     inkscape:current-layer="svg57"
     inkscape:window-maximized="1"
     inkscape:window-y="27"
     inkscape:window-x="67"
     inkscape:cy="1.203207"
     inkscape:cx="94.206813"
     inkscape:zoom="2.1038563"
     showgrid="false"
     id="namedview59"
     inkscape:window-height="1025"
     inkscape:window-width="1853"
     inkscape:pageshadow="2"
     inkscape:pageopacity="0"
     guidetolerance="10"
     gridtolerance="10"
     objecttolerance="10"
     borderopacity="1"
     bordercolor="#666666"
     pagecolor="#ffffff" />
  <defs
     id="defs21">
    <linearGradient
       id="b">
      <stop
         id="stop2"
         offset="0" />
      <stop
         id="stop4"
         offset="1"
         stop-opacity="0" />
    </linearGradient>
    <linearGradient
       gradientTransform="matrix(0.34686,0,0,0.34686,21.973593,-233.99594)"
       gradientUnits="userSpaceOnUse"
       y2="808.54999"
       y1="798.51001"
       x2="99.194"
       x1="315.07999"
       id="e">
      <stop
         id="stop7"
         offset="0"
         stop-opacity=".1355" />
      <stop
         id="stop9"
         offset=".5241"
         stop-opacity=".4813" />
      <stop
         id="stop11"
         offset="1"
         stop-opacity="0" />
    </linearGradient>
    <radialGradient
       gradientUnits="userSpaceOnUse"
       gradientTransform="matrix(-0.72871,1.4461,-0.96847,-0.36022,348.95,398.86)"
       r="38.078999"
       cy="317.09"
       cx="24.209999"
       id="a">
      <stop
         id="stop14"
         offset="0"
         stop-color="#424546" />
      <stop
         id="stop16"
         offset="1"
         stop-color="#fff" />
    </radialGradient>
    <radialGradient
       xlink:href="#b"
       gradientUnits="userSpaceOnUse"
       gradientTransform="matrix(0.54952198,0.27555895,-0.25502497,0.5085697,226.11118,-356.32856)"
       r="58.004002"
       cy="781.71997"
       cx="-53.950001"
       id="d" />
    <radialGradient
       xlink:href="#b"
       gradientUnits="userSpaceOnUse"
       gradientTransform="matrix(-0.57290589,0.14908032,0.15182708,0.51527528,177.56095,-350.04277)"
       r="58.004002"
       cy="826.47998"
       cx="-43.667"
       id="c" />
    <radialGradient
       r="38.078999"
       cy="317.09"
       cx="24.209999"
       gradientTransform="matrix(0.54358242,-0.04614494,-0.02335813,-0.31580293,279.01415,121.64984)"
       gradientUnits="userSpaceOnUse"
       id="radialGradient63"
       xlink:href="#a"
       inkscape:collect="always" />
    <radialGradient
       r="38.078999"
       cy="317.09"
       cx="24.209999"
       gradientTransform="matrix(0.54358242,-0.04614494,-0.02335813,-0.31580293,267.25907,147.42153)"
       gradientUnits="userSpaceOnUse"
       id="radialGradient65"
       xlink:href="#a"
       inkscape:collect="always" />
  </defs>
  <path
     style="stroke-width:0.34686"
     d="m 230.30464,1.2341043 c 2.55601,-0.03094 5.15746,0.04233 7.78285,0.216788 2.62538,0.174453 5.27574,0.454941 7.95627,0.834614 2.68054,0.379673 5.38604,0.856814 8.10786,1.44162 2.72181,0.584806 5.46651,1.280503 8.21641,2.070338 2.74991,0.789835 5.50675,1.682652 8.27053,2.677343 2.76379,0.99469 5.52826,2.0849057 8.29204,3.2843477 2.76378,1.199442 5.53068,2.498155 8.28128,3.902175 2.7506,1.40402 5.48212,2.911543 8.20532,4.519932 1.38959,0.904542 2.71446,1.85414 3.96739,2.82906 1.25292,0.974919 2.43752,1.981056 3.56606,3.002489 1.12855,1.021434 2.20218,2.055978 3.21928,3.100062 1.0171,1.044083 1.97582,2.100584 2.89413,3.143418 1.83659,2.085704 3.49045,4.14359 5.00797,6.080803 1.51751,1.937213 2.89565,3.745741 4.19492,5.343725 0.73545,0.904611 1.35217,1.826218 1.85355,2.753201 0.50139,0.926984 0.89632,1.863887 1.18148,2.796559 0.28515,0.932672 0.46586,1.864061 0.55282,2.785702 0.087,0.921642 0.0717,1.837595 -0.0217,2.731523 -0.0934,0.893927 -0.26451,1.762742 -0.52029,2.612272 -0.25577,0.849529 -0.59698,1.672108 -0.99722,2.460555 -0.40024,0.788448 -0.86063,1.543978 -1.38744,2.25459 -0.52681,0.710612 -1.12056,1.378318 -1.75598,1.994445 -0.63541,0.616128 -1.31168,1.185984 -2.0378,1.690943 -0.72612,0.504959 -1.49906,0.945332 -2.29795,1.322403 -0.79889,0.377072 -1.62847,0.688864 -2.4822,0.92133 -0.85372,0.232466 -1.73246,0.384043 -2.62313,0.455254 -0.89066,0.07121 -1.78931,0.06342 -2.69898,-0.04336 -0.90968,-0.106774 -1.8316,-0.305563 -2.74235,-0.607005 -0.91075,-0.301442 -1.81591,-0.712034 -2.70984,-1.224832 -0.89393,-0.512798 -1.77481,-1.134371 -2.63399,-1.875194 -1.71827,-1.481717 -3.74539,-3.077203 -6.02669,-4.725968 -2.2813,-1.648764 -4.81095,-3.351222 -7.5442,-5.040222 -1.3666,-0.844535 -2.79039,-1.683902 -4.24904,-2.514735 -1.45865,-0.830834 -2.96152,-1.648383 -4.49843,-2.449699 -1.5369,-0.801316 -3.10321,-1.585393 -4.70411,-2.341305 -1.6009,-0.755912 -3.23714,-1.484041 -4.88865,-2.178697 -1.6515,-0.694657 -3.31993,-1.355148 -5.00796,-1.972766 -1.68803,-0.617619 -3.395,-1.198783 -5.10543,-1.723478 -1.71044,-0.524696 -3.4189,-0.993199 -5.13769,-1.409119 -1.7188,-0.41592 -3.44588,-0.770966 -5.15955,-1.062259 -1.71366,-0.291293 -3.42174,-0.521192 -5.11618,-0.672041 -1.69445,-0.15085 -3.36819,-0.222244 -5.02947,-0.216788 -1.66129,0.0054 -3.30683,0.09338 -4.92125,0.270985 -1.61443,0.177606 -3.2052,0.436523 -4.75857,0.802113 -4.54942,1.070827 -9.56502,2.271691 -14.68744,3.652783 -2.56115,0.690598 -5.15122,1.431144 -7.71764,2.222055 -2.56642,0.79091 -5.10751,1.629929 -7.58756,2.536413 -3.19597,1.168121 -6.33089,2.427812 -9.43043,3.76135 -3.09954,1.333538 -6.16682,2.745362 -9.2133,4.21643 -3.04647,1.471068 -6.07768,3.003877 -9.11582,4.585143 -3.03815,1.581265 -6.08566,3.203321 -9.15919,4.866792 -4.32465,1.640926 -8.78388,3.539013 -13.39747,5.463045 -2.30686,0.961947 -4.64827,1.930866 -7.03466,2.883274 -2.3864,0.952408 -4.81303,1.885566 -7.28406,2.77488 -2.47103,0.889314 -4.98369,1.731213 -7.54421,2.503913 -2.56052,0.7727 -5.17133,1.478595 -7.82585,2.08116 -1.32733,0.301276 -2.66958,0.575094 -4.0215,0.823793 -1.35192,0.248698 -2.70953,0.471764 -4.08636,0.661184 -1.37682,0.18942 -2.77054,0.342611 -4.17307,0.466111 -1.40253,0.123499 -2.820077,0.209309 -4.249027,0.260145 -2.07686,0.07389 -4.11168,0.0944 -6.14602,0.0325 -2.03433,-0.0619 -4.05895,-0.200419 -6.12416,-0.422753 -2.0652,-0.222333 -4.17134,-0.535621 -6.34094,-0.943043 -2.16961,-0.407421 -4.40513,-0.911201 -6.75302,-1.528334 -2.3479,-0.617133 -4.80367,-1.348869 -7.40338,-2.200411 -2.59972,-0.851541 -5.34546,-1.826911 -8.27053,-2.937488 -2.925072,-1.110576 -6.030856,-2.35615 -9.354469,-3.75025 -3.323613,-1.3941 -6.869909,-2.936621 -10.665945,-4.639252 C 35.240482,65.843489 33.346211,64.828368 31.522074,63.798819 29.697937,62.769269 27.9456,61.726677 26.275816,60.677079 24.606052,59.627482 23.015283,58.573167 21.506511,57.511983 19.99774,56.4508 18.576793,55.389581 17.235971,54.325207 15.895149,53.260832 14.630497,52.197568 13.463869,51.138431 12.29724,50.079294 11.219337,49.018839 10.233735,47.973333 9.2481323,46.927828 8.3543433,45.896717 7.5563923,44.873272 6.7584403,43.849827 6.0571593,42.831238 5.4535533,41.838247 4.9893503,41.0746 4.5982313,40.322781 4.2612223,39.583657 3.9242133,38.844533 3.6473493,38.119145 3.4266073,37.40496 c -0.220741,-0.714185 -0.393929,-1.413975 -0.509468,-2.102839 -0.115539,-0.688864 -0.173825,-1.363819 -0.195108,-2.02698 -0.02128,-0.663162 0.0031,-1.314045 0.06504,-1.951088 0.06198,-0.637043 0.158407,-1.264686 0.292663,-1.875194 0.134256,-0.610509 0.303069,-1.204853 0.498611,-1.78848 0.195542,-0.583627 0.415365,-1.156258 0.661185,-1.712621 0.210159,-0.475615 0.459138,-0.918485 0.737077,-1.344083 0.277939,-0.425597 0.592749,-0.825735 0.932186,-1.203188 0.339438,-0.377453 0.700172,-0.731146 1.09476,-1.062258 0.394588,-0.331113 0.813907,-0.645576 1.257367,-0.932187 0.886921,-0.573186 1.8713447,-1.05716 2.9157747,-1.463333 1.04443,-0.406173 2.154486,-0.732672 3.305992,-0.9864 1.151506,-0.253728 2.347202,-0.43687 3.555315,-0.552826 1.208113,-0.115955 2.427847,-0.169805 3.64203,-0.16259 1.214183,0.0072 2.41803,0.07938 3.58792,0.195109 1.169889,0.115733 2.307,0.278154 3.381885,0.487754 2.49094,1.001073 4.94657,2.121743 7.381528,3.316849 2.434957,1.195106 4.842859,2.462532 7.240702,3.772102 4.795686,2.61914 9.537263,5.389164 14.297216,7.988533 2.37991,1.299823 4.76586,2.563989 7.16474,3.739498 2.39889,1.175508 4.81442,2.269192 7.25146,3.24099 1.21859,0.485882 2.44293,0.934892 3.67463,1.354905 1.2317,0.420012 2.47089,0.80475 3.71799,1.148973 1.24711,0.344224 2.50735,0.652063 3.77211,0.910508 1.26475,0.258445 2.53062,0.465937 3.81546,0.628684 1.61352,0.149791 3.24265,0.214116 4.87754,0.195108 1.63489,-0.01901 3.28248,-0.122188 4.93201,-0.292663 1.64952,-0.170474 3.296897,-0.410786 4.953497,-0.715398 1.65661,-0.304613 3.31852,-0.67336 4.97536,-1.09476 1.65685,-0.4214 3.31474,-0.888239 4.96426,-1.409119 1.64953,-0.520879 3.29642,-1.087891 4.93201,-1.690942 1.63558,-0.603051 3.25274,-1.250743 4.86679,-1.918552 1.61404,-0.66781 3.21622,-1.355009 4.80193,-2.070338 3.17127,-1.430659 6.28579,-2.938425 9.30001,-4.45507 3.01421,-1.516645 5.93616,-3.045327 8.73671,-4.50918 2.80055,-1.463853 5.48143,-2.868185 8.01038,-4.140815 2.52896,-1.272629 4.8994,-2.417753 7.09988,-3.360206 4.40096,-1.884872 9.1304,-3.866795 14.15605,-5.809905 2.51297,-0.971624 5.10092,-1.930068 7.76099,-2.861595 2.66007,-0.9315267 5.39333,-1.8331197 8.19457,-2.6881647 2.80124,-0.855045 5.67047,-1.664269 8.60629,-2.406341 2.93582,-0.742073 5.932,-1.423444 8.99686,-2.016124 3.06485,-0.59268 6.19942,-1.099824 9.38672,-1.50669 1.59375,-0.203423 3.20023,-0.380992 4.82344,-0.531113 1.6232,-0.150121 3.25819,-0.276256 4.91015,-0.368538 1.34064,-0.07489 2.69073,-0.124419 4.0541,-0.140912 z"
     fill="#d40000"
     fill-rule="evenodd"
     id="path25" />
  <path
     style="stroke-width:0.34686"
     d="M 228.69868,0.00968834 C 201.65123,0.30834534 177.56111,8.5972483 159.09775,17.341936 126.27855,32.888201 110.78016,44.860074 84.207213,42.131673 68.105283,40.478365 36.892042,19.307591 33.003741,17.341936 29.11544,15.37628 6.5195933,13.557693 1.2660513,26.707156 c -4.656595,11.655189 3.009357,24.138334 31.7376897,40.266977 31.257982,15.50603 45.733492,19.327386 62.837162,18.654478 23.532367,-0.925943 45.452527,-11.18242 63.260317,-18.654478 24.63782,-14.749528 56.48615,-27.871935 83.18744,-25.282625 25.35269,2.458647 43.90207,17.029091 53.63843,25.282625 9.73636,8.253534 38.77548,-0.694934 25.10399,-24.616307 C 316.44663,34.335648 307.3693,25.578126 295.92709,17.340548 272.56329,4.3811653 249.73921,-0.22374766 228.70215,0.00830134 Z m 1.66927,1.18147496 c 20.44809,-0.24741496 43.32628,6.079415 65.11255,18.9472267 11.11687,7.236194 17.65275,17.107482 22.84941,23.499765 11.76722,14.474121 -7.57681,32.880247 -21.32322,21.026307 -13.74641,-11.853941 -47.29089,-31.081778 -72.14341,-25.231984 -9.09918,2.141687 -20.07834,4.782506 -29.99888,8.40858 -12.78388,4.672551 -24.61909,10.778328 -36.91285,17.43249 C 140.6533,71.83718 121.19827,82.377561 98.333263,83.190948 81.718323,83.782032 67.643783,80.422797 37.275495,66.801813 21.497875,58.792469 10.344938,49.739423 5.5163003,41.795288 1.8024703,35.686043 2.3355593,30.355499 4.3022903,25.904938 7.6648203,18.295176 20.108353,17.201874 28.707706,18.878942 48.63516,26.887592 66.470353,42.37836 87.028743,44.982238 112.84484,47.378902 141.87425,27.059982 159.48086,19.520633 177.08747,11.981284 199.88311,2.8085713 226.31731,1.3319883 c 1.34065,-0.07489 2.69074,-0.124419 4.0541,-0.140912 z"
     fill-rule="evenodd"
     id="path27" />
  <path
     d="m 34.434538,20.228158 c 7.010041,4.113759 41.092505,24.733546 57.866655,24.4845 C 108.80964,44.467595 149.87301,22.971474 169.20699,14.358246 161.52855,26.389779 110.7472,49.280111 92.224883,50.431686 69.923523,51.817877 33.185843,23.885103 34.434539,20.229545 Z"
     fill="url(#e)"
     id="path29"
     style="fill:url(#e);stroke-width:0.34686" />
  <path
     d="m 287.81108,29.769308 c 5.98007,2.040495 12.48915,-1.157291 14.53826,-7.142904 2.04911,-5.985612 -1.13756,-12.491745 -7.11796,-14.5323517 -5.9804,-2.040606 -12.48915,1.157291 -14.53826,7.1429037 -2.04912,5.985612 1.13756,12.491745 7.11796,14.532352 z"
     fill="url(#a)"
     fill-rule="evenodd"
     stroke="#004800"
     stroke-width="1.05249"
     id="path31"
     style="fill:url(#radialGradient63)" />
  <path
     style="stroke-width:0.459062"
     d="m 290.04043,10.547244 c -2.90254,1.80505 -3.87013,5.48891 -2.16115,8.228 1.70899,2.739089 5.44739,3.496365 8.35001,1.691264 2.90263,-1.8051 3.87013,-5.488909 2.16115,-8.227999 -1.70899,-2.7390897 -5.44739,-3.4963647 -8.35001,-1.691265 z"
     fill="#ffffff"
     fill-rule="evenodd"
     id="path33" />
  <path
     style="stroke-width:0.4099"
     d="m 290.44342,11.025075 c -2.59169,1.611744 -3.45566,4.901102 -1.92971,7.34687 1.52595,2.445767 4.86398,3.121954 7.45575,1.510165 2.59177,-1.61179 3.45567,-4.901103 1.92972,-7.34687 -1.52595,-2.445768 -4.86399,-3.1219547 -7.45576,-1.510165 z"
     fill="#083400"
     fill-rule="evenodd"
     id="path35" />
  <path
     d="m 292.51985,10.585623 c -0.90627,0.563586 -1.20876,1.713206 -0.67563,2.567695 0.53314,0.854488 1.70003,1.090338 2.60632,0.526736 0.9063,-0.563602 1.20877,-1.713206 0.67563,-2.567695 -0.53313,-0.854489 -1.70002,-1.090338 -2.60632,-0.526736 z"
     fill="#ffffff"
     fill-rule="evenodd"
     stroke="#000000"
     stroke-linecap="round"
     stroke-linejoin="round"
     stroke-width="0.767226"
     id="path37" />
  <path
     d="m 36.893543,34.498818 c 0,10.362543 -8.096758,18.763048 -18.084807,18.763048 -9.9880497,0 -18.08480774,-8.400505 -18.08480774,-18.763048 0,-10.362543 8.09675804,-18.763048 18.08480774,-18.763048 9.988049,0 18.084807,8.400505 18.084807,18.763048 z"
     fill="url(#d)"
     fill-rule="evenodd"
     id="path39"
     style="fill:url(#d);stroke-width:0.323069" />
  <path
     d="m 287.36682,52.355795 c 0,9.738291 8.09676,17.63274 18.0848,17.63274 9.98805,0 18.08481,-7.894449 18.08481,-17.63274 0,-9.73829 -8.09676,-17.632739 -18.08481,-17.632739 -9.98804,0 -18.0848,7.894449 -18.0848,17.632739 z"
     fill="url(#c)"
     fill-rule="evenodd"
     id="path41"
     style="fill:url(#c);stroke-width:0.313187" />
  <path
     d="m 276.056,55.541006 c 5.98007,2.040495 12.48915,-1.157291 14.53826,-7.142904 2.04911,-5.985612 -1.13756,-12.491745 -7.11796,-14.532352 -5.9804,-2.040606 -12.48915,1.157291 -14.53826,7.142904 -2.04912,5.985612 1.13756,12.491745 7.11796,14.532352 z"
     fill="url(#a)"
     fill-rule="evenodd"
     stroke="#004800"
     stroke-width="1.05249"
     id="path43"
     style="fill:url(#radialGradient65)" />
  <path
     style="stroke-width:0.459062"
     d="m 278.28187,36.315474 c -2.90254,1.80505 -3.87013,5.48891 -2.16115,8.228 1.70899,2.739089 5.44739,3.496365 8.35001,1.691264 2.90263,-1.8051 3.87013,-5.488909 2.16115,-8.227999 -1.70899,-2.73909 -5.44739,-3.496365 -8.35001,-1.691265 z"
     fill="#ffffff"
     fill-rule="evenodd"
     id="path45" />
  <path
     style="stroke-width:0.4099"
     d="m 278.68486,36.796773 c -2.59169,1.611744 -3.45566,4.901102 -1.92971,7.34687 1.52595,2.445767 4.86398,3.121954 7.45575,1.510165 2.59177,-1.61179 3.45567,-4.901103 1.92972,-7.34687 -1.52595,-2.445768 -4.86399,-3.121955 -7.45576,-1.510165 z"
     fill="#083400"
     fill-rule="evenodd"
     id="path47" />
  <path
     d="m 280.76476,36.357321 c -0.90627,0.563586 -1.20876,1.713206 -0.67563,2.567695 0.53314,0.854488 1.70003,1.090338 2.60632,0.526736 0.9063,-0.563602 1.20877,-1.713206 0.67563,-2.567695 -0.53313,-0.854489 -1.70002,-1.090338 -2.60632,-0.526736 z"
     fill="#ffffff"
     fill-rule="evenodd"
     stroke="#000000"
     stroke-linecap="round"
     stroke-linejoin="round"
     stroke-width="0.767226"
     id="path49" />
</svg>
