<?xml version="1.0" encoding="UTF-8" standalone="no"?>
<svg
   xmlns:dc="http://purl.org/dc/elements/1.1/"
   xmlns:cc="http://creativecommons.org/ns#"
   xmlns:rdf="http://www.w3.org/1999/02/22-rdf-syntax-ns#"
   xmlns:svg="http://www.w3.org/2000/svg"
   xmlns="http://www.w3.org/2000/svg"
   xmlns:sodipodi="http://sodipodi.sourceforge.net/DTD/sodipodi-0.dtd"
   xmlns:inkscape="http://www.inkscape.org/namespaces/inkscape"
   viewBox="0 0 360.15112 472.89099"
   version="1.1"
   id="svg121"
   sodipodi:docname="tree.svg"
   width="360.15112"
   height="472.89099"
   inkscape:version="0.92.4 (f8dce91, 2019-08-02)">
  <metadata
     id="metadata125">
    <rdf:RDF>
      <cc:Work
         rdf:about="">
        <dc:format>image/svg+xml</dc:format>
        <dc:type
           rdf:resource="http://purl.org/dc/dcmitype/StillImage" />
        <dc:title></dc:title>
      </cc:Work>
    </rdf:RDF>
  </metadata>
  <sodipodi:namedview
     pagecolor="#ffffff"
     bordercolor="#666666"
     borderopacity="1"
     objecttolerance="10"
     gridtolerance="10"
     guidetolerance="10"
     inkscape:pageopacity="0"
     inkscape:pageshadow="2"
     inkscape:window-width="1296"
     inkscape:window-height="704"
     id="namedview123"
     showgrid="false"
     inkscape:zoom="1.061429"
     inkscape:cx="359.35758"
     inkscape:cy="250.14705"
     inkscape:window-x="70"
     inkscape:window-y="27"
     inkscape:window-maximized="1"
     inkscape:current-layer="svg121" />
  <defs
     id="defs35">
    <filter
       id="j">
      <feGaussianBlur
         stdDeviation="2.86727"
         id="feGaussianBlur2" />
    </filter>
    <filter
       id="i">
      <feGaussianBlur
         stdDeviation="10.82908"
         id="feGaussianBlur5" />
    </filter>
    <filter
       id="g">
      <feGaussianBlur
         stdDeviation="1.09609"
         id="feGaussianBlur8" />
    </filter>
    <filter
       id="f">
      <feGaussianBlur
         stdDeviation=".53537"
         id="feGaussianBlur11" />
    </filter>
    <filter
       id="e">
      <feGaussianBlur
         stdDeviation=".42124"
         id="feGaussianBlur14" />
    </filter>
    <filter
       id="d">
      <feGaussianBlur
         stdDeviation=".46336"
         id="feGaussianBlur17" />
    </filter>
    <filter
       id="k"
       x="-0.065480001"
       y="-0.13181999"
       width="1.131"
       height="1.2636">
      <feGaussianBlur
         stdDeviation="8.68848"
         id="feGaussianBlur20" />
    </filter>
    <filter
       id="h"
       x="-0.103"
       y="-0.064290002"
       width="1.206"
       height="1.1286">
      <feGaussianBlur
         stdDeviation="10.29371"
         id="feGaussianBlur23" />
    </filter>
    <filter
       id="c"
       x="-0.066040002"
       y="-0.12101"
       width="1.1321"
       height="1.242">
      <feGaussianBlur
         stdDeviation="1.88132"
         id="feGaussianBlur26" />
    </filter>
    <filter
       id="b"
       x="-0.048390001"
       y="-0.10872"
       width="1.0968"
       height="1.2174">
      <feGaussianBlur
         stdDeviation="1.88132"
         id="feGaussianBlur29" />
    </filter>
    <filter
       id="a"
       x="-0.048859999"
       y="-0.10173"
       width="1.0977"
       height="1.2035">
      <feGaussianBlur
         stdDeviation="1.88132"
         id="feGaussianBlur32" />
    </filter>
  </defs>
  <g
     transform="translate(-241.32176,48.021388)"
     id="g79">
    <path
       d="m 472.35,198.36 c -24.645,0 -45.81,-12.15 -54.994,-29.479 -6.7535,2.9842 -14.503,4.698 -22.723,4.698 -26.329,0 -47.696,-17.416 -47.696,-38.849 0,-1.8591 0.16304,-3.6828 0.47388,-5.4725 -32.519,-1.0263 -58.406,-18.387 -58.406,-39.65 0,-21.922 27.532,-39.727 61.463,-39.727 7.0364,0 13.795,0.78579 20.093,2.1942 12.8,-9.2961 31.44,-15.152 52.198,-15.153 29.827,0 55.309,12.084 65.325,29.092 6.9691,-3.3501 15.091,-5.2918 23.765,-5.2918 25.854,0 46.843,17.08 46.843,38.127 0,16.055 -12.231,29.798 -29.499,35.416 1.9666,4.8257 3.0566,9.9725 3.0566,15.333 0,26.909 -26.843,48.762 -59.899,48.762 z"
       id="path37"
       inkscape:connector-curvature="0"
       style="fill:#376e04" />
    <g
       transform="translate(672,53)"
       id="g43">
      <path
         d="m -292.85,60.862 8.8787,90.293 c 0,0 -21,169 -48,175 -27,6 130,36 139,7 9,-29 -38,-179 -38,-179 0,0 100,-65 100,-88 0,-23 -19,-2 -19,-2 l -95,65 -25.665,-53.869 -22.214,-14.424 z"
         id="path39"
         inkscape:connector-curvature="0"
         style="fill:#8f5902" />
      <path
         d="m -137.16,65.281 c -0.92678,0.39207 -3.0028,1.4671 -4.8438,3 -2.2065,1.8373 -3.8125,3.625 -3.8125,3.625 -0.29913,0.31946 -0.63476,0.60265 -1,0.84375 l -95,65 c -2.4943,1.7201 -5.9052,1.1378 -7.6875,-1.3125 l -37.344,-51.531 8.4062,69.594 c 0.0541,0.44628 0.0541,0.89747 0,1.3438 0,0 -5.2597,42.393 -13.938,85.656 -4.3389,21.632 -9.5198,43.466 -15.438,60.594 -2.9589,8.5639 -6.0572,15.952 -9.5625,21.719 -1.8691,3.0747 -3.8759,5.7887 -6.2188,7.9062 0.80774,0.2714 1.3524,0.52135 2.25,0.78125 10.578,3.0628 27.805,6.4678 46.062,8.75 18.257,2.2822 37.671,3.4362 52.594,2.3125 7.4614,-0.56185 13.791,-1.7166 18.062,-3.3438 4.271,-1.6272 5.9091,-3.4188 6.3125,-4.7188 1.4382,-4.6343 0.78344,-19.711 -2.3125,-37.594 -3.09594,-17.883 -8.0844,-39.241 -13.375,-59.719 -10.581,-40.956 -22.312,-78.375 -22.312,-78.375 -0.7393,-2.3939 0.20604,-4.9872 2.3125,-6.3438 0,0 24.84,-16.164 49.625,-35.125 12.393,-9.4804 24.774,-19.663 33.844,-28.688 4.535,-4.5123 8.2331,-8.7555 10.656,-12.281 2.4229,-3.5255 3.3125,-6.3672 3.3125,-7.2188 0,-2.7389 -0.34406,-4.1165 -0.59375,-4.875 z"
         id="path41"
         inkscape:connector-curvature="0"
         style="fill:#c17d11;filter:url(#j)" />
    </g>
    <path
       d="m 417.72,175.5 c -1.6455,7.6207 3.3305,14.962 3.4852,22.646 3.7964,23.704 -0.79744,49.572 11.296,71.135 5.8741,11.534 12.623,25.329 6.9765,38.234 -1.0484,3.4429 2.6974,-4.1891 2.7423,-6.0149 2.999,-11.117 -2.2612,-21.736 -7.4541,-31.187 -8.293,-16.361 -10.201,-34.749 -10.756,-52.864 -0.91515,-14.065 -1.9465,-28.903 -6.29,-41.949 z m 16.094,148.53 c -2.0258,5.2043 -1.741,11.027 -3.8438,15.844 -0.30748,1.4634 1.8675,6.0296 3.1875,4.25 -0.46504,-6.8397 -1.0731,-14.313 0.96875,-21.188 l -0.27472,0.96152 -0.0378,0.13223 z"
       id="path45"
       inkscape:connector-curvature="0"
       style="fill:#e9b96e" />
    <path
       d="m 404.94,212.91 c -2.637,1.6163 0.407,5.8426 -0.25,8.4688 1.0938,13.156 0.5028,26.478 -2.4062,39.344 3.977,-15.391 5.7113,-31.994 2.6562,-47.812 z m -2.6562,47.812 c -0.45369,1.3926 -0.12786,0.6767 0,0 z m -8.375,22.5 c -0.94031,1.618 -5.6097,10.599 -3.0938,6.0938 1.0073,-1.9291 2.4424,-4.5554 3.0938,-6.0938 z m -9.0312,19.469 c -2.4567,8.2837 -4.3325,17.066 -4.3125,25.656 -0.49097,2.4938 3.0656,2.6966 1.8609,-0.1249 -0.23348,-8.4164 0.62203,-18.095 2.4516,-25.531 z"
       id="path47"
       inkscape:connector-curvature="0"
       style="fill:#e9b96e" />
    <path
       d="m 421.78,278.66 c -2.8861,2.8237 0.20523,8.1857 0.0625,11.75 0.96474,18.061 -6.0612,35.376 -5.7417,53.405 -0.87762,15.771 -2.3338,33.345 3.6167,47.689 2.8484,-4.9528 -3.0741,-10.31 -2.4477,-15.682 -2.9964,-25.873 1.633,-51.721 4.9789,-77.224 0.63704,-6.5452 1.1327,-13.716 -0.46875,-19.938 z"
       id="path49"
       inkscape:connector-curvature="0"
       style="fill:#e9b96e" />
    <path
       d="m 444.59,254.12 c -3.9958,15.35 7.0679,29.546 6.5938,44.906 0.85742,19.578 11.32,36.524 21.094,52.906 5.1093,8.893 5.631,19.427 5.5312,29.406 -0.98496,2.8175 -0.0668,2.4124 0.5625,0.0625 3.7048,-18.111 -5.933,-35.097 -15.75,-49.469 -10.087,-17.274 -8.8547,-38.051 -14.719,-56.75 -1.6866,-6.8513 -2.904,-14.105 -3.3125,-21.062 z"
       id="path51"
       inkscape:connector-curvature="0"
       style="fill:#e9b96e" />
    <path
       d="m 402.06,272.81 c -2.8686,3.5356 0.683,8.7241 0.0215,12.871 1.3299,13.008 -0.34434,26.519 -7.3028,37.785 -1.4725,3.4094 2.9619,-4.777 3.6463,-6.9935 5.6234,-13.654 6.2832,-29.337 3.6349,-43.663 z m -9.5625,56.281 c -6.1889,16.387 -7.425,34.372 -12.406,51.031 -1.9091,0.85641 -0.60807,5.2058 0.5625,1.8438 5.0534,-17.976 5.9932,-37.005 12.5,-54.594 l -0.3567,0.93422 -0.29955,0.78453 z"
       id="path53"
       inkscape:connector-curvature="0"
       style="fill:#e9b96e" />
    <path
       d="m 450.47,333.03 c -2.5215,3.4024 1.3376,7.8173 0.625,11.719 0.58767,11.887 -1.7113,24.174 -5.5625,35.156 -1.7921,1.6477 4.7285,0.65872 2.0625,-1.0625 -1.4338,-3.8504 2.1401,-9.084 2.3125,-13.438 2.3546,-10.562 3.5767,-21.945 0.5625,-32.375 z"
       id="path55"
       inkscape:connector-curvature="0"
       style="fill:#e9b96e" />
    <path
       d="m 395.75,159.75 c 1.5531,11.576 9.3418,20.867 12.344,32.062 1.163,2.4312 3.1142,6.9895 6.5625,5.6562 -7.8301,-11.705 -12.408,-25.289 -18.219,-38.062 l -0.6875,0.34375 z"
       id="path57"
       inkscape:connector-curvature="0"
       style="fill:#e9b96e" />
    <path
       d="m 437.91,227.88 c -2.9521,1.9951 -1.7964,7.7458 0.9375,9.1562 1.1267,-2.7377 0.8627,-6.846 -0.9375,-9.1562 z"
       id="path59"
       inkscape:connector-curvature="0"
       style="fill:#e9b96e" />
    <path
       d="m 391.41,256.81 c -5.2771,2.6374 -7.1023,14.332 -4.1564,18.238 3.1914,-4.8574 5.2732,-12.974 4.1564,-18.238 z"
       id="path61"
       inkscape:connector-curvature="0"
       style="fill:#e9b96e" />
    <path
       d="m 535.86,109.55 c -5.5664,0.53711 -13,8.75 -13,8.75 l -80.594,55.125 c 4.5433,0.23299 9.1543,0.375 13.844,0.375 13.409,0 26.278,-1.0109 38.25,-2.8125 24.139,-18.658 47.5,-39.571 47.5,-50.688 0,-8.625 -2.6602,-11.072 -6,-10.75 z m -155.88,5.4688 4.75,48.156 c 11.067,3.74 23.751,6.6575 37.562,8.4688 l -20.094,-42.219 -22.219,-14.406 z"
       id="path63"
       inkscape:connector-curvature="0"
       style="opacity:0.25" />
    <g
       transform="translate(-265.04,-78.556)"
       id="g77">
      <path
         d="m 749.86,36.483 c -32.504,0 -60.418,14.709 -72.531,35.687 -8.9071,-3.6128 -19.128,-5.6875 -29.969,-5.6875 -34.726,0 -62.906,21.084 -62.906,47.031 0,2.2507 0.21504,4.4585 0.625,6.625 -42.889,1.2424 -77.031,22.26 -77.031,48 0,26.539 36.311,48.094 81.062,48.094 9.2802,0 18.194,-0.95127 26.5,-2.6562 16.882,11.254 41.466,18.344 68.844,18.344 39.338,0 72.947,-14.629 86.156,-35.219 9.1915,4.0556 19.903,6.4062 31.344,6.4062 34.099,0 61.781,-20.677 61.781,-46.156 0,-19.436 -16.131,-36.074 -38.906,-42.875 2.5938,-5.8421 4.0312,-12.073 4.0312,-18.562 0,-32.576 -35.403,-59.031 -79,-59.031 z"
         id="path65"
         inkscape:connector-curvature="0"
         style="fill:#4e9a06" />
      <path
         transform="translate(-26.32,-3.7071)"
         d="m 776.72,55.094 c -26.888,0 -48.602,12.859 -56.406,26.375 -4.6479,8.0454 -14.516,11.432 -23.125,7.9375 -6.611,-2.6814 -14.503,-4.3125 -22.969,-4.3125 -13.595,0 -25.56,4.265 -33.312,10.062 -7.752,5.797 -10.969,12.11 -10.969,18.344 0,1.0647 0.0797,2.0913 0.28125,3.1562 1.0099,5.3526 -0.37483,10.879 -3.7893,15.123 -3.41447,4.244 -8.5161,6.7799 -13.961,6.9396 -18.55,0.53738 -34.916,5.5769 -45.312,12.031 -10.396,6.4541 -13.625,12.736 -13.625,17.375 0,4.7786 3.5241,11.413 14.625,18 11.1009,6.587 28.426,11.469 47.812,11.469 8.008,0 15.677,-0.82948 22.75,-2.2812 4.8667,-0.99601 9.9296,-0.006 14.062,2.75 12.943,8.6286 34.367,15.219 58.531,15.219 34.723,0 62.876,-14.772 70.5,-26.656 4.9546,-7.7015 14.774,-10.657 23.156,-6.9688 6.7346,2.9716 14.954,4.8125 23.844,4.8125 13.286,0 24.983,-4.1734 32.531,-9.8125 7.548,-5.6391 10.625,-11.722 10.625,-17.719 0,-9.1358 -8.4854,-19.923 -25.594,-25.031 -5.1299,-1.5311 -9.3525,-5.1962 -11.59,-10.06 -2.2375,-4.8638 -2.2729,-10.455 -0.0976,-15.346 1.6369,-3.6869 2.4062,-7.2594 2.4062,-11 0,-9.5439 -4.9892,-18.842 -15.656,-26.812 -10.6668,-7.97 -26.686,-13.594 -44.719,-13.594 z"
         id="path67"
         inkscape:connector-curvature="0"
         style="fill:#73d216;stroke:#ffffff;stroke-width:3;stroke-linecap:round;stroke-linejoin:bevel;filter:url(#k)" />
      <path
         d="m 618.75,212.8 c 0,0 37.657,-19.725 41.713,-21.096 -8.8388,8.4853 -31.274,26.814 -31.274,26.814 l -10.439,-5.7175 z"
         id="path69"
         inkscape:connector-curvature="0"
         style="fill:#4e9a06;filter:url(#f)" />
      <path
         d="m 773.25,193.3 c 0,0 16.157,-21.225 20.213,-22.596 -8.8388,8.4853 -9.7739,28.314 -9.7739,28.314 l -10.439,-5.7175 z"
         id="path71"
         inkscape:connector-curvature="0"
         style="fill:#4e9a06;filter:url(#e)" />
      <path
         d="m 834.47,119.43 c 0,0 -16.157,21.225 -20.213,22.596 8.8388,-8.4853 9.7739,-28.314 9.7739,-28.314 l 10.439,5.7175 z"
         id="path73"
         inkscape:connector-curvature="0"
         style="fill:#4e9a06;filter:url(#d)" />
      <path
         d="m 641.35,149.42 c 0,0 87.619,-56.983 113.07,-6.0711 -30.163,-42.698 -111.66,6.0711 -113.07,6.0711 z"
         id="path75"
         inkscape:connector-curvature="0"
         style="fill:#8ae234;filter:url(#g)" />
    </g>
  </g>
</svg>
