<?xml version="1.0" encoding="UTF-8" standalone="no"?>
<!-- Created with Inkscape (http://www.inkscape.org/) -->

<svg
   xmlns:dc="http://purl.org/dc/elements/1.1/"
   xmlns:cc="http://creativecommons.org/ns#"
   xmlns:rdf="http://www.w3.org/1999/02/22-rdf-syntax-ns#"
   xmlns:svg="http://www.w3.org/2000/svg"
   xmlns="http://www.w3.org/2000/svg"
   xmlns:sodipodi="http://sodipodi.sourceforge.net/DTD/sodipodi-0.dtd"
   xmlns:inkscape="http://www.inkscape.org/namespaces/inkscape"
   version="1.1"
   id="svg2"
   xml:space="preserve"
   width="395.44119"
   height="241.57787"
   viewBox="0 0 395.44119 241.57786"
   sodipodi:docname="landscape.svg"
   inkscape:version="0.92.3 (2405546, 2018-03-11)"><metadata
     id="metadata8"><rdf:RDF><cc:Work
         rdf:about=""><dc:format>image/svg+xml</dc:format><dc:type
           rdf:resource="http://purl.org/dc/dcmitype/StillImage" /><dc:title></dc:title></cc:Work></rdf:RDF></metadata><defs
     id="defs6"><clipPath
       clipPathUnits="userSpaceOnUse"
       id="clipPath24"><path
         d="M 0,520 H 520 V 0 H 0 Z"
         id="path22"
         inkscape:connector-curvature="0" /></clipPath></defs><sodipodi:namedview
     pagecolor="#ffffff"
     bordercolor="#666666"
     borderopacity="1"
     objecttolerance="10"
     gridtolerance="10"
     guidetolerance="10"
     inkscape:pageopacity="0"
     inkscape:pageshadow="2"
     inkscape:window-width="1299"
     inkscape:window-height="704"
     id="namedview4"
     showgrid="false"
     inkscape:zoom="0.96275311"
     inkscape:cx="141.29127"
     inkscape:cy="106.64378"
     inkscape:window-x="67"
     inkscape:window-y="27"
     inkscape:window-maximized="1"
     inkscape:current-layer="g10" /><g
     id="g10"
     inkscape:groupmode="layer"
     inkscape:label="mountain-1849091"
     transform="matrix(1.3333333,0,0,-1.3333333,-148.94613,467.45572)"><path
       inkscape:connector-curvature="0"
       id="path16"
       style="fill:#7e7e7e;fill-opacity:1;fill-rule:nonzero;stroke:none"
       d="m 233.1346,295.093 -63.825,-120.734 h 125.501 z" /><path
       inkscape:connector-curvature="0"
       id="path28"
       style="fill:#7d7f7f;fill-opacity:1;fill-rule:nonzero;stroke:none"
       d="m 261.8463,174.3592 46.9,88.717 c 1.355,2.565 5.028,2.571 6.393,0.01 l 47.282,-88.727 z" /><path
       inkscape:connector-curvature="0"
       id="path32"
       style="fill:#909090;fill-opacity:1;fill-rule:nonzero;stroke:none"
       d="m 310.2256,326.7403 c 0,-9.089 -7.369,-16.458 -16.458,-16.458 -9.089,0 -16.458,7.369 -16.458,16.458 0,9.089 7.369,16.458 16.458,16.458 9.089,0 16.458,-7.369 16.458,-16.458" /><g
       id="g34"
       transform="translate(404.0775,177.8361)"><path
         d="m 0,0 h -11.07 c -2.327,0 -4.213,-1.886 -4.213,-4.213 0,-2.328 1.886,-4.214 4.213,-4.214 H 0 c 2.327,0 4.213,1.886 4.213,4.214 C 4.213,-1.886 2.327,0 0,0"
         style="fill:#404041;fill-opacity:1;fill-rule:nonzero;stroke:none"
         id="path36"
         inkscape:connector-curvature="0" /></g><g
       id="g38"
       transform="translate(381.9126,177.8361)"><path
         d="m 0,0 c -2.327,0 -4.214,-1.886 -4.214,-4.213 0,-2.328 1.887,-4.214 4.214,-4.214 h 0.034 c 2.328,0 4.197,1.886 4.197,4.214 C 4.231,-1.886 2.327,0 0,0"
         style="fill:#404041;fill-opacity:1;fill-rule:nonzero;stroke:none"
         id="path40"
         inkscape:connector-curvature="0" /></g><g
       id="g42"
       transform="translate(277.6666,216.6394)"><path
         d="M 0,0 C 0.029,0.048 0.062,0.092 0.089,0.142 L 28.208,52.909 77.081,-38.803 H 20.678 Z M 93.08,-38.803 H 84.72 L 31.353,61.343 c -0.61,1.144 -1.787,1.778 -2.999,1.771 -0.061,0.006 -0.119,-10e-4 -0.18,0.001 -0.035,-0.002 -0.071,0.003 -0.107,-0.001 -1.215,0.01 -2.394,-0.625 -3.005,-1.771 L -3.813,7.156 -46.392,87.057 c -0.762,1.429 -2.231,2.221 -3.747,2.213 -0.066,0.006 -0.131,-0.002 -0.197,0.002 -0.055,-0.003 -0.11,0.003 -0.165,-0.002 -1.516,0.01 -2.987,-0.782 -3.749,-2.213 L -65.802,65.38 c -1.094,-2.054 -0.317,-4.606 1.737,-5.7 0.631,-0.337 1.309,-0.496 1.978,-0.496 1.507,0 2.964,0.81 3.722,2.232 l 8.044,15.095 61.45,-115.314 h -122.901 l 37.387,70.158 c 1.095,2.054 0.317,4.606 -1.736,5.701 -2.054,1.093 -4.606,0.316 -5.701,-1.737 l -39.498,-74.122 h -40.424 c -2.326,0 -4.213,-1.886 -4.213,-4.213 0,-2.328 1.887,-4.214 4.213,-4.214 h 42.935 c 0.005,0 0.009,-0.001 0.014,-0.001 0.004,0 0.008,0.001 0.012,0.001 H 18.14 c 0.004,0 0.008,-0.001 0.012,-0.001 0.005,0 0.009,0.001 0.014,0.001 H 93.08 c 2.327,0 4.214,1.886 4.214,4.214 0,2.327 -1.887,4.213 -4.214,4.213"
         style="fill:#404041;fill-opacity:1;fill-rule:nonzero;stroke:none"
         id="path44"
         inkscape:connector-curvature="0" /></g><g
       id="g46"
       transform="translate(203.9621,258.2303)"><path
         d="m 0,0 c 0.631,-0.336 1.309,-0.496 1.978,-0.496 1.507,0 2.964,0.81 3.722,2.233 l 3.256,6.11 c 1.094,2.053 0.317,4.605 -1.737,5.7 -2.053,1.094 -4.606,0.316 -5.7,-1.737 L -1.737,5.7 C -2.832,3.647 -2.054,1.094 0,0"
         style="fill:#404041;fill-opacity:1;fill-rule:nonzero;stroke:none"
         id="path48"
         inkscape:connector-curvature="0" /></g><path
       inkscape:connector-curvature="0"
       id="path52"
       style="fill:#404041;fill-opacity:1;fill-rule:nonzero;stroke:none"
       d="m 287.8097,342.1648 c 7.714,0 13.989,-6.276 13.989,-13.989 0,-7.714 -6.275,-13.989 -13.989,-13.989 -7.714,0 -13.989,6.275 -13.989,13.989 0,7.713 6.275,13.989 13.989,13.989 m 0,-36.405 c 12.36,0 22.416,10.055 22.416,22.416 0,12.36 -10.056,22.416 -22.416,22.416 -12.36,0 -22.416,-10.056 -22.416,-22.416 0,-12.361 10.056,-22.416 22.416,-22.416" /></g></svg>