<?xml version="1.0" encoding="UTF-8" standalone="no"?>
<svg
   xmlns:dc="http://purl.org/dc/elements/1.1/"
   xmlns:cc="http://creativecommons.org/ns#"
   xmlns:rdf="http://www.w3.org/1999/02/22-rdf-syntax-ns#"
   xmlns:svg="http://www.w3.org/2000/svg"
   xmlns="http://www.w3.org/2000/svg"
   xmlns:sodipodi="http://sodipodi.sourceforge.net/DTD/sodipodi-0.dtd"
   xmlns:inkscape="http://www.inkscape.org/namespaces/inkscape"
   inkscape:version="1.0 (6e3e5246a0, 2020-05-07)"
   height="669.89093"
   width="665.11536"
   sodipodi:docname="rocket01.svg"
   id="svg54"
   version="1.1"
   viewBox="0 0 665.11536 669.89093">
  <metadata
     id="metadata60">
    <rdf:RDF>
      <cc:Work
         rdf:about="">
        <dc:format>image/svg+xml</dc:format>
        <dc:type
           rdf:resource="http://purl.org/dc/dcmitype/StillImage" />
        <dc:title></dc:title>
      </cc:Work>
    </rdf:RDF>
  </metadata>
  <defs
     id="defs58" />
  <sodipodi:namedview
     inkscape:current-layer="svg54"
     inkscape:window-maximized="1"
     inkscape:window-y="27"
     inkscape:window-x="72"
     inkscape:cy="272.68636"
     inkscape:cx="397.27059"
     inkscape:zoom="0.74773087"
     showgrid="false"
     id="namedview56"
     inkscape:window-height="704"
     inkscape:window-width="1294"
     inkscape:pageshadow="2"
     inkscape:pageopacity="0"
     guidetolerance="10"
     gridtolerance="10"
     objecttolerance="10"
     borderopacity="1"
     bordercolor="#666666"
     pagecolor="#ffffff" />
  <g
     id="g52"
     transform="rotate(45,-187.47071,1109.7695)">
    <path
       id="path2"
       stroke-width="10"
       stroke="#000000"
       fill-rule="evenodd"
       fill="#ececec"
       d="m -367.54,-263.72 c -30.791,24.506 -267.46,229.9 -88.188,623.22 h 179.25 c 179.27,-393.32 -57.396,-598.68 -88.188,-623.19 l -2.875,-0.0312 z" />
    <path
       id="path4"
       fill="#cccccc"
       d="m -360.12,-9.075 c -37.293,0 -67.625,30.363 -67.625,67.656 0,37.293 30.332,67.625 67.625,67.625 37.293,0 67.656,-30.332 67.656,-67.625 0,-37.293 -30.363,-67.656 -67.656,-67.656 z m 0,8 c 32.965,0 59.656,26.691 59.656,59.656 0,32.965 -26.691,59.625 -59.656,59.625 -32.965,0 -59.625,-26.66 -59.625,-59.625 0,-32.965 26.66,-59.656 59.625,-59.656 z" />
    <path
       id="path6"
       stroke="#000000"
       fill-rule="evenodd"
       fill="#ff0000"
       d="m -486.89,-102.24 43.437,-79.802 60.609,-68.69 17.173,-13.132 64.65,67.68 50.508,81.822 4.0406,17.173 -241.43,-1.0102" />
    <path
       id="path8"
       stroke-width="10"
       stroke="#000000"
       fill-rule="evenodd"
       fill="#ff0000"
       d="m -511.14,201.81 c 0,0 -107.08,-1.3336 -42.426,270.72 0,0 6.0609,-227.16 62.629,-199.15" />
    <path
       id="path10"
       stroke-width="10"
       stroke="#000000"
       fill-rule="evenodd"
       fill="#ff0000"
       d="m -220.76,201.81 c 0,0 107.08,-1.3336 42.426,270.72 0,0 -6.0609,-227.16 -62.629,-199.15" />
    <path
       id="path12"
       stroke="#000000"
       fill-rule="evenodd"
       fill="#b3b3b3"
       d="m -481.84,303.84 26.264,55.558 179.81,-1.0102 21.213,-54.548 h -227.28 z" />
    <path
       id="path14"
       fill-rule="evenodd"
       fill="#d20000"
       d="m -195.97,229.09 -20.203,50.508 -12.122,-10.102 -14.142,6.0609 19.193,-75.761 34.345,17.173 c 0,0 59.599,41.416 13.132,247.49 27.274,-213.14 -21.213,-235.37 -20.203,-235.37 z" />
    <path
       id="path16"
       fill-rule="evenodd"
       fill="#d20000"
       d="m -556.59,469.5 c 0,0 -10.061,-220.37 58.589,-221.22 7.5756,-0.0943 7.0711,24.244 7.0711,24.244 l -27.274,6.0609 -21.213,66.67 -17.173,124.25 z" />
    <path
       id="path18"
       fill-rule="evenodd"
       fill="#999999"
       d="m -320.44,303.84 c 4.0529,12.21 6.448,29.248 5.2812,53.531 0.8622,0.30381 1.7754,0.73001 2.7188,1.2188 l 36.656,-0.21875 17.094,-43.938 c -0.68954,-3.7542 -1.4863,-7.1048 -2.25,-10.594 h -59.5 z" />
    <path
       id="path20"
       fill-rule="evenodd"
       fill="#cccccc"
       d="m -346.47,197.2 c -6.8185,-0.50507 -11.125,0.5625 -11.125,0.5625 l -5.0625,77.781 c 0,0 24.335,-4.8054 35.812,28.312 h 59.625 c -19.366,-90.309 -59.667,-105.21 -79.25,-106.66 z" />
    <path
       id="path22"
       fill-rule="evenodd"
       fill="#cccccc"
       d="m -479,308.36 20,50 28,2 -8,-57 z" />
    <path
       id="path24"
       stroke-width="10"
       stroke="#000000"
       fill="none"
       d="m -367.54,-263.72 c -30.791,24.506 -267.46,229.9 -88.188,623.22 h 179.25 c 179.27,-393.32 -57.396,-598.68 -88.188,-623.19 l -2.875,-0.0312 z" />
    <path
       id="path26"
       stroke-width="10"
       stroke="#000000"
       fill="none"
       d="M -486.89,-100.22 H -249.5" />
    <path
       id="path28"
       stroke-width="8"
       stroke-linecap="round"
       stroke="#000000"
       fill="#b3b3b3"
       d="m -233.35,70.494 a 63.64,63.64 0 1 1 -127.28,0 63.64,63.64 0 1 1 127.28,0 z"
       transform="translate(-69.118,-17.919)" />
    <path
       id="path30"
       stroke-width="12.293"
       stroke-linecap="round"
       stroke="#000000"
       fill="#80e5ff"
       d="m -233.35,70.494 a 63.64,63.64 0 1 1 -127.28,0 63.64,63.64 0 1 1 127.28,0 z"
       transform="matrix(0.65079,0,0,0.65079,-172.83,6.6981)" />
    <path
       id="path32"
       stroke-width="10"
       stroke="#000000"
       fill="none"
       d="m -478.81,304.85 h 224.25" />
    <path
       id="path34"
       stroke-width="10"
       stroke-linecap="round"
       stroke="#000000"
       fill="#ff0000"
       d="m -375.19,199.79 h 18.183 v 272.74 h -18.183 z" />
    <path
       id="path36"
       fill-rule="evenodd"
       fill="#cccccc"
       d="m -264.66,291.72 c 0,0 80.812,-185.87 16.162,-364.67 3.0305,317.19 -83.843,364.67 -83.843,364.67 h 67.68 z" />
    <path
       id="path38"
       fill="#ffffff"
       d="m -240.61,254.63 h 34.47 v 83.714 h -34.47 z"
       transform="matrix(0.70389,0.7103,-0.70389,0.7103,0,0)" />
    <path
       id="path40"
       stroke-width="12.293"
       stroke-linecap="round"
       stroke="#000000"
       fill="none"
       d="m -233.35,70.494 a 63.64,63.64 0 1 1 -127.28,0 63.64,63.64 0 1 1 127.28,0 z"
       transform="matrix(0.65079,0,0,0.65079,-172.83,6.6981)" />
    <path
       id="path42"
       fill-rule="evenodd"
       fill="#d20000"
       d="m -273.75,-115.37 c 0,0 -31.315,-81.822 -90.914,-125.26 54.548,105.06 26.264,125.26 26.264,125.26 l 64.65,-10e-6 z" />
    <path
       id="path44"
       stroke-width="10"
       stroke="#000000"
       fill="none"
       d="m -220.76,201.81 c 0,0 107.08,-1.3336 42.426,270.72 0,0 -6.0609,-227.16 -62.629,-199.15" />
    <path
       id="path46"
       stroke-width="10"
       stroke="#000000"
       fill="none"
       d="m -511.14,201.81 c 0,0 -107.08,-1.3336 -42.426,270.72 0,0 6.0609,-227.16 62.629,-199.15" />
    <path
       id="path48"
       fill-rule="evenodd"
       fill="#ffffff"
       d="m -472.75,-118.4 c 0,0 53.538,-104.05 97.985,-131.32 44.447,-27.27 -96.975,133.34 -97.985,131.32 z" />
    <path
       id="path50"
       fill-rule="evenodd"
       fill="#ffffff"
       d="m -504.29,158.08 c -3.1638,-1.7567 -22.724,-145.96 25.714,-235.71 29.867,-24.039 70.502,-11.397 68.571,-1.4286 -16.727,86.351 -75.469,247.59 -94.286,237.14 z" />
  </g>
</svg>
