<?xml version="1.0" encoding="UTF-8" standalone="no"?>
<svg
   xmlns:dc="http://purl.org/dc/elements/1.1/"
   xmlns:cc="http://creativecommons.org/ns#"
   xmlns:rdf="http://www.w3.org/1999/02/22-rdf-syntax-ns#"
   xmlns:svg="http://www.w3.org/2000/svg"
   xmlns="http://www.w3.org/2000/svg"
   xmlns:sodipodi="http://sodipodi.sourceforge.net/DTD/sodipodi-0.dtd"
   xmlns:inkscape="http://www.inkscape.org/namespaces/inkscape"
   id="Calque_1"
   sodipodi:docname="bush-01.svg"
   xml:space="preserve"
   viewBox="0 0 69.328313 70.701107"
   version="1.1"
   inkscape:version="1.0.1 (3bc2e813f5, 2020-09-07)"
   width="69.328316"
   height="70.701111"><defs
   id="defs71">
		
		
	
			
			
			
			
			
			
		</defs><title
   id="title3127">Brousailles</title><sodipodi:namedview
   id="namedview146"
   fit-margin-left="0"
   inkscape:zoom="5.2389118"
   borderopacity="1"
   inkscape:current-layer="g3"
   inkscape:cx="32.792177"
   inkscape:cy="57.304511"
   inkscape:window-maximized="1"
   showgrid="false"
   fit-margin-right="0"
   bordercolor="#666666"
   inkscape:window-x="72"
   guidetolerance="10"
   objecttolerance="10"
   inkscape:window-y="0"
   fit-margin-bottom="0"
   inkscape:window-width="1848"
   inkscape:pageopacity="0"
   inkscape:pageshadow="2"
   pagecolor="#ffffff"
   gridtolerance="10"
   inkscape:window-height="1043"
   fit-margin-top="0"
   inkscape:document-rotation="0" />
<g
   id="g3"
   transform="translate(-84.580926,-0.00144416)">
	
	
	
	<g
   id="g74">
		<path
   id="path76"
   style="fill:#bb9866"
   inkscape:connector-curvature="0"
   d="m 101.68,53.435 c 2.308,-0.662 6.044,5.58 6.269,5.949 l 0.463,-0.043 c 0.933,-0.814 1.966,-1.3 2.817,-0.623 0.95,0.755 2.454,1.707 3.87,2.66 l 0.008,-0.01 c 0,0 6.824,-4.374 8.91,-3.045 2.086,1.32 6.861,3.296 6.87,4.967 0.008,1.66 -1.47,4.336 -2.653,5.013 -1.191,0.666 -8.028,0.7 -10.121,-0.29 l -0.18,-0.1 c -0.529,1.133 -1.186,2.136 -1.594,2.448 -0.89,0.665 -8.341,-2.628 -8.341,-2.628 l -1.239,-3.125 -0.268,0.133 c 0,0 -3.254,2.346 -6.231,3.031 -2.968,0.685 -5.653,-0.973 -5.653,-0.973 0,0 -2.402,-3.988 -2.414,-5.986 -0.01,-2 7.107,-6.707 9.487,-7.378 z" />
		<path
   id="path78"
   style="fill:#987c54"
   inkscape:connector-curvature="0"
   d="m 111.34,65.592 c 1.062,0.495 3.747,1.794 4.138,1.854 0.391,0.06 2.725,-1.701 3.061,-1.391 l -0.273,1.189 c 0,0 5.969,-0.093 6.525,-0.471 0.555,-0.377 2.547,-3.574 3.828,-3.832 1.283,-0.256 2.011,0.24 2.292,0.864 0.308,0.679 -1.517,4.161 -2.671,4.496 -1.153,0.335 -5.559,0.732 -7.625,0.368 -2.064,-0.365 -2.676,-0.758 -2.676,-0.758 0,0 -1.107,2.59 -1.832,2.593 -0.726,0.003 -7.935,-2.585 -8.103,-2.772 -0.168,-0.186 -0.622,-1.747 -0.622,-1.747 0,0 2.897,-0.888 3.958,-0.393 z m -16.524,-2.48 c 1.115,-0.193 5.363,1.535 6.422,1.468 1.061,-0.067 4.734,-1.711 4.734,-1.711 l 0.793,1.739 c 0,0 -4.342,2.528 -6.85,3.166 -2.506,0.638 -5.135,-0.787 -5.303,-0.975 -0.168,-0.186 -1.744,-2.99 -1.744,-2.99 0,0 0.835,-0.504 1.948,-0.697 z" />
		<path
   id="path80"
   style="fill:#cdb896"
   inkscape:connector-curvature="0"
   d="m 92.457,60.187 c 0.443,-0.878 2.941,-3.202 5.109,-4.588 2.169,-1.387 4.675,-2.211 4.675,-2.211 0,0 2.46,1.175 1.351,2.242 -1.111,1.069 -3.674,1.582 -4.283,2.585 -0.608,1.003 -2.603,3.638 -3.719,3.456 -1.118,-0.182 -3.575,-0.608 -3.133,-1.484 z m 18.625,-1.594 c 0.297,0.188 2.303,1.559 4.033,2.777 0.137,-0.085 3.466,-2.133 4.502,-2.444 1.059,-0.317 3.008,-0.827 3.734,-0.831 0.705,-0.004 3.745,1.855 4.139,2.166 0.391,0.311 -2.785,0.889 -4.125,0.709 -1.34,-0.182 -3.85,-0.169 -5.076,0.15 -1.226,0.318 -2.395,0.699 -2.395,0.699 l -0.678,-0.377 c 1.01,0.711 1.912,1.363 2.301,1.682 1.065,0.869 1.515,1.555 0.902,1.932 0,0 -0.668,0.067 -1.564,-0.491 -0.895,-0.558 -5.353,0.151 -5.801,-0.034 -0.447,-0.184 -1.348,-1.742 -1.352,-2.743 -0.006,-1 -1.127,-2.181 -0.963,-2.683 0.167,-0.501 1.95,-0.76 2.343,-0.512 z" />
		<path
   id="path82"
   style="fill:none;stroke:#1f1e21;stroke-width:0.5"
   inkscape:connector-curvature="0"
   d="m 105.89,62.409 c 0,0 3.246,-5.348 5.336,-3.691 2.091,1.654 6.863,4.297 7.465,5.629 0.604,1.33 -1.459,5.34 -2.348,6.011 -0.89,0.672 -8.345,-2.624 -8.345,-2.624 z" />
		<path
   id="path84"
   style="fill:none;stroke:#1f1e21;stroke-width:0.5"
   inkscape:connector-curvature="0"
   d="m 107.96,59.399 c 0,0 -3.9,-6.646 -6.277,-5.969 -2.377,0.679 -9.492,5.381 -9.482,7.382 0.01,2 2.41,5.987 2.41,5.987 0,0 2.686,1.652 5.656,0.973 2.972,-0.682 6.233,-3.031 6.233,-3.031" />
		<path
   id="path86"
   style="fill:none;stroke:#1f1e21;stroke-width:0.5"
   inkscape:connector-curvature="0"
   d="m 115.11,61.364 c 0,0 6.82,-4.368 8.91,-3.045 2.09,1.324 6.858,3.299 6.867,4.966 0.008,1.667 -1.467,4.341 -2.652,5.015 -1.186,0.672 -8.028,0.706 -10.116,-0.284" />
	</g><g
   id="g46">
			<path
   id="path48"
   style="fill:#b1a275"
   inkscape:connector-curvature="0"
   d="m 131.89,41.241 v 3.334 c 0,0 -2.281,9.558 -2.114,10.391 0.166,0.833 2.166,2.334 3.5,3 1.333,0.666 4.5,3 4.5,3 l -0.834,1.166 c 0,0 -6.5,-1.666 -8.166,-1.166 -1.667,0.5 -4,1.666 -4,1.666 0,0 -2.5,0.001 -2.75,-0.416 -0.25,-0.417 0.499,-3.084 0.666,-3.334 0.167,-0.25 1.917,-1.083 2.084,-2.833 0.095,-0.999 0,-4.083 -4.417,-6.833 l -0.667,-1.917 c 0,0 2.771,1.956 4.75,1 0.283,-0.137 2.426,3.353 2.917,2 1,-2.75 1.167,-5.25 1.167,-5.25 l 0.333,-2.333 c 1.417,-0.416 3.031,-1.475 3.031,-1.475 z" />
			<path
   id="path50"
   style="fill:#786f52"
   inkscape:connector-curvature="0"
   d="m 130.78,48.466 1.114,-3.891 v -3.334 l -3.031,1.475 -0.667,4.916 c 0,0 2.167,-1.499 2.584,0.834 z m -4.584,1.666 -1.75,-1.833 -1.75,0.167 -1.916,-0.75 -1.084,-0.417 0.667,1.917 1.417,0.916 1.333,1.167 c 0,0 -0.334,-1.833 3.083,-1.167 z m 11.167,10.417 c 0,0 -2,0.333 -4.75,-0.083 -2.75,-0.416 -3.5,-2.334 -4.583,-2.334 -1.084,0 -0.5,2.5 -3.5,3.667 -0.939,0.364 -2.084,-1.25 -2.084,-1.25 0,0 -0.666,1.333 -0.416,1.667 0.25,0.334 2.75,0.416 2.75,0.416 0,0 1.666,-0.833 3.833,-1.5 2.167,-0.666 8.333,1 8.333,1 l 0.834,-1.166 z" />
			<g
   id="g52">
				<path
   id="path54"
   style="fill:none;stroke:#201d21;stroke-width:0.5"
   inkscape:connector-curvature="0"
   d="m 131.94,43.966 c 0,0 -2.167,9.5 -2,11.166 0.167,1.668 3.167,2.834 3.667,3.168 0.5,0.332 4.333,2.666 4.333,2.666 l -1.166,1 c 0,0 -7,-1.5 -8.667,-0.834 -1.667,0.668 -3.167,1.668 -3.167,1.668 0,0 -3,-10e-4 -3,-0.668 0,-0.666 0.834,-3.332 0.834,-3.332 0,0 1.332,-0.834 1.666,-1.834 0.334,-1 1.167,-3.834 1.167,-3.834" />
				<path
   id="path56"
   style="fill:none;stroke:#201d21;stroke-width:0.5"
   inkscape:connector-curvature="0"
   d="m 120.44,49.3 c 0,0 4.166,1.832 4.5,6.166" />
				<path
   id="path58"
   style="fill:none;stroke:#201d21;stroke-width:0.5"
   inkscape:connector-curvature="0"
   d="m 124.44,48.3 c 0,0 2.166,2.666 3,2 0.834,-0.668 1.334,-7.334 1.334,-7.334" />
			</g>
		</g><path
   id="path62"
   style="fill:#8fc570;fill-opacity:1"
   inkscape:connector-curvature="0"
   d="m 148.28,12.962 c 0,0 1.67,-2 0.33,-5 -1.28,-2.88 -7.49,1.02 -7.97,1.31 0.319,-0.39 3.54,-4.39 1.64,-5.97 -1.95,-1.63 -7.68,3.07 -7.99,3.32 0.15,-0.27 2.78,-5.05 -1.68,-6.32 -2.33,-0.67 -1.33,5.66 -1.33,5.66 0,0 -5.33,-4.66 -7.33,-2.66 -2,2 1,5 1,5 0,0 -1.04,0.52 -2.189,1.33 -1.881,-2.74 -7.15,0.67 -7.15,0.67 0,0 2,-5 -0.33,-7 -2.33,-2 -7,3.66 -7,3.66 0,0 0.33,-5.66 -3.33,-6 -3.67,-0.33 -4.67,6.34 -4.67,6.34 0,0 -3.33,-4.34 -7.67,-2.67 -4.33,1.67 0.34,8.67 0.34,8.67 0,0 -5.34,-0.34 -7.67,2.33 -2.33,2.67 5.33,5.33 5.33,5.33 0,0 -4.66,3 -3,5 1.67,2 6,-0.66 6,-0.66 -2.66,4.33 -0.33,6.66 -0.33,6.66 1.9,0.95 3.2,-0.511 3.32,-0.649 -1.641,2.659 2.01,4.989 2.01,4.989 0,0 -5.33,0.66 -4.66,4 0.64,3.24 5.38,1.441 5.65,1.34 -0.15,0.15 -3.58,3.701 -0.65,5.32 3,1.67 4.66,-2.33 4.66,-2.33 0,0 -0.1,4.891 2.29,4.281 0,3 3.33,3 3.33,3 0,0 -1.67,2.66 0.66,4.66 2.34,2 4.67,-4.33 4.67,-4.33 0,0 0.67,4.33 4.33,4 3.67,-0.33 1,-8.67 1,-8.67 0,0 2.67,2 5.34,0.34 2.43,-1.531 0.149,-6.391 -0.271,-7.221 0.25,0.439 1.181,1.93 2.601,2.221 1.67,0.33 4.34,-1.67 4.34,-1.67 v 3.33 c 0,1.67 4,2.34 4,2.34 0,0 1.33,3.66 4.33,3.33 3,-0.33 2.33,-5.67 2.33,-5.67 0,0 4,2.34 6.34,0.67 2.33,-1.67 -3.34,-5 -3.34,-5 0,0 6,-1 5.34,-4.331 -0.67,-3.34 -7.67,-2 -7.67,-2 0,0 3.39,-1.49 3.24,-3.271 l 0.14,-0.01 c 0,0 3.67,-1 2.67,-3.33 -1,-2.34 -6.67,-2 -6.67,-2 l 5,-4.34 c 0,0 1.67,3.34 3.67,2.34 1.95,-0.97 -2.11,-6.39 -2.32,-6.66 0.24,0.11 4.011,1.92 4.65,-0.34 0.669,-2.339 -5.331,-3.339 -5.331,-3.339 z m -26.72,15.9 c 0.38,0.551 0.63,0.961 0.7,1.07 -0.08,-0.099 -0.37,-0.49 -0.7,-1.07 z" /><path
   id="path64"
   style="fill:#b8cf8a"
   inkscape:connector-curvature="0"
   d="m 136.61,32.299 c 0,0 2.193,-6.025 -1.833,-5.833 -3.5,0.167 -1.834,6.167 -1.834,6.167 l -0.83,-1.833 c 0,0 -4,-0.334 -3.833,2.166 0.167,2.5 2.833,1.667 2.833,1.667 0,0 -0.833,3.333 0.833,4 1.666,0.668 4.167,-2.5 4.167,-2.5 0,0 3.5,0 3.833,-2 0.333,-2 -3.333,-1.834 -3.333,-1.834 z m 5.666,-28.997 c -1.499,-1.503 -7.99,3.32 -7.99,3.32 0,0 2.591,-5.092 -1.68,-6.32 -2.329,-0.67 -1.33,5.66 -1.33,5.66 0,0 -5.494,-4.657 -7.33,-2.66 -1.836,1.997 1,5 1,5 0,0 2.163,-0.67 3.497,0.164 1.334,0.834 2,2.167 2,2.167 0,0 -2.667,4.167 -1,4.667 1.667,0.5 4.334,-2 4.334,-2 0,0 1.666,3.667 4.333,1.667 2.667,-2 0.167,-3.833 0.167,-3.833 0,0 1.053,-0.22 2.359,-1.86 1.306,-1.64 3.139,-4.469 1.64,-5.972 z m -36.166,9.164 c 0,0 3.5,1 5,-1.167 1.5,-2.167 -3,-3.667 -3,-3.667 0,0 1.005,-6.007 -3.164,-6.67 -3.299,-0.525 -4.67,6.34 -4.67,6.34 0,0 -4.233,-3.68 -6.499,-3.17 -6.667,1.5 -0.831,9.17 -0.831,9.17 0,0 -3.335,1.497 -2.169,3.83 1.166,2.333 7.5,-3.167 7.5,-3.167 0,0 2,5.167 5.333,4.167 3.333,-1 2.5,-5.666 2.5,-5.666 z m 6.496,15.166 c 0,0 -3.33,-7.5 -5.663,-5.667 -2.805,2.204 0.203,4.526 0.203,4.526 0,0 0.964,0.64 0.297,1.64 -0.051,0.076 -0.078,0.124 -0.112,0.18 -0.851,0.058 -3.388,0.405 -3.388,2.487 0,2.5 5,2.166 5,2.166 0,0 -2.332,3 -0.166,3.667 2.166,0.668 3.166,-3 3.166,-3 0,0 0.168,2.833 2.334,2.167 2.166,-0.667 0.666,-4.167 0.666,-4.167 0,0 3.833,-1.667 3,-3.5 -0.833,-1.833 -5.337,-0.499 -5.337,-0.499 z" /><path
   id="path66"
   style="fill:#85a634;fill-opacity:1"
   inkscape:connector-curvature="0"
   d="m 145.56,40.243 c 3.613,-4.391 -5.946,-3.443 -5.946,-3.443 0,0 3.333,1 1.667,3 -1.666,2 -5.334,-1.334 -5.334,-1.334 0,0 1.667,3.166 -0.833,3.5 -2.5,0.334 -3.167,-3.334 -3.167,-3.334 0,0 0,1.834 -2.166,1.834 -2.166,0 -3.334,-4.833 -3.334,-4.833 0,0 -1.166,3.5 -2.5,3.833 -1.334,0.333 -2.833,0 -2.833,0 0,0 1.999,3.168 0.333,4.834 -1.666,1.666 -5,-0.668 -5,-0.668 0,0 2.334,5 -1,6.168 -3.334,1.166 -3,-2.5 -3,-2.5 l -2.5,-0.834 c 0,0 -4.666,-1.166 -3.5,-3.334 1.849,-3.436 7.167,-0.166 7.167,-0.166 -1.667,-5.166 -0.167,-7 -0.167,-7 l -1,-0.333 c 0,0 -0.333,3.167 -2.5,5 -2.167,1.834 -4.166,-3.332 -4.166,-3.332 0,0 -0.334,3.832 -2.5,2.832 -2.166,-1 -0.667,-3.5 -0.667,-3.5 -2,-1 -4.004,-0.33 -4.004,-0.33 0,0 -4.996,0.664 -4.66,4 0.336,3.338 5.65,1.34 5.65,1.34 0,0 -3.153,3.824 -0.65,5.32 2.503,1.498 4.66,-2.33 4.66,-2.33 0.329,5.334 2.29,4.281 2.29,4.281 -0.177,-1.971 2.687,-2.354 3.696,-2.428 -0.898,0.074 -3.256,0.455 -3.696,2.428 -0.547,2.445 3.33,3 3.33,3 0,0 -2.283,2.719 0.66,4.66 2.943,1.939 4.557,-4.941 4.557,-4.941 0,0 0.334,4.834 4.443,4.611 4.109,-0.225 1,-8.67 1,-8.67 3.443,1.939 4.391,0.893 6.057,-0.441 1.666,-1.332 -0.987,-6.439 -0.987,-6.439 0,0 1.154,1.939 2.601,2.221 1.446,0.279 4.34,-1.67 4.34,-1.67 0,0 -0.786,2.389 0.214,3.889 1,1.5 3.786,1.781 3.786,1.781 0,0 1.547,3.053 4.33,3.33 2.783,0.275 2.33,-5.67 2.33,-5.67 2.113,1.105 5.887,1.727 6.887,0.227 1,-1.5 -3.888,-4.559 -3.888,-4.559 z" /><path
   id="path68"
   style="fill:none;stroke:#1f1e21;stroke-width:0.5"
   inkscape:connector-curvature="0"
   d="m 132.89,32.909 c 0,0 -1.666,-6.333 2.001,-6.333 3.667,0 2,5.333 2,5.333 0,0 5.666,-5.001 8.666,-2.668 3.001,2.334 -2.334,4.668 -2.334,4.668 0,0 7,-1.333 7.668,2 0.666,3.333 -5.333,4.333 -5.333,4.333 0,0 5.665,3.334 3.333,5 -2.333,1.668 -6.333,-0.666 -6.333,-0.666 0,0 0.665,5.332 -2.334,5.666 -3.001,0.334 -4.333,-3.332 -4.333,-3.332 0,0 -4,-0.668 -4,-2.334 v -3.334 c 0,0 -2.532,1.975 -4.198,1.641 -1.668,-0.334 -2.802,-2.307 -2.802,-2.307 0,0 2.999,5.668 0.332,7.334 -2.666,1.666 -5.333,-0.334 -5.333,-0.334 0,0 2.668,8.332 -1,8.666 -3.666,0.334 -4.332,-4 -4.332,-4 0,0 -2.334,6.334 -4.668,4.334 -2.332,-2 -0.667,-4.666 -0.667,-4.666 0,0 -3.332,0 -3.332,-3 -0.001,-3 3.999,-2.334 3.999,-2.334 0,0 -5.333,-1.666 -2.999,-4 2.332,-2.334 6.667,0.334 6.667,0.334 0,0 -2.002,-7.334 0.665,-7 2.668,0.333 5.335,4 5.335,4" /><path
   id="path70"
   style="fill:none;stroke:#1f1e21;stroke-width:0.5"
   inkscape:connector-curvature="0"
   d="m 146.61,30.632 c 0,0 3.666,-1 2.666,-3.333 -1,-2.333 -6.666,-2 -6.666,-2 l 5,-4.333 c 0,0 1.666,3.333 3.666,2.333 2,-1 -2.333,-6.667 -2.333,-6.667 0,0 4,2 4.667,-0.333 0.667,-2.333 -5.334,-3.333 -5.334,-3.333 0,0 1.667,-2 0.334,-5 -1.333,-3 -8,1.333 -8,1.333 0,0 3.666,-4.333 1.666,-6 -2,-1.667 -8,3.333 -8,3.333 0,0 2.922,-5.022 -1.666,-6.333 -2.334,-0.667 -1.334,5.667 -1.334,5.667 0,0 -5.333,-4.667 -7.333,-2.667 -2,2 1,5 1,5 0,0 -4,2 -5,4.333 -1,2.333 5,1.667 5,1.667 0,0 -3.333,5.667 -4.333,9 -1,3.333 1.666,6.666 1.666,6.666 0,0 -3.667,-6 -6,-6.333 -2.333,-0.333 -3.666,4 -3.666,4 0,0 -3,-7.333 -5.667,-5.667 -2.667,1.666 0.333,4.667 0.333,4.667 0,0 -4,-4.333 -7,-2 -3,2.333 1.667,5.333 1.667,5.333 0,0 -3.666,-1.332 -5.333,1.334 -1.667,2.666 2,5 2,5 0,0 -5.334,0.667 -4.667,4 0.667,3.332 5.667,1.332 5.667,1.332 0,0 -3.667,3.668 -0.667,5.334 3,1.666 4.667,-2.334 4.667,-2.334 0,0 -0.102,4.887 2.282,4.277" /><path
   id="path72"
   style="fill:none;stroke:#1f1e21;stroke-width:0.5"
   inkscape:connector-curvature="0"
   d="m 122.94,9.966 c -1.667,-3.333 -7.333,0.333 -7.333,0.333 0,0 2,-5 -0.334,-7 -2.334,-2 -7,3.667 -7,3.667 0,0 0.334,-5.667 -3.333,-6 -3.667,-0.333 -4.667,6.333 -4.667,6.333 0,0 -3.333,-4.333 -7.666,-2.667 -4.333,1.666 0.333,8.667 0.333,8.667 0,0 -5.333,-0.333 -7.667,2.333 -2.334,2.666 5.334,5.333 5.334,5.333 0,0 -4.666,3 -3,5 1.666,2 6,-0.667 6,-0.667 -2.667,4.333 -0.334,6.666 -0.334,6.666 2,1 3.334,-0.666 3.334,-0.666" />
	<g
   id="g90"
   style="display:none"
   display="none">
		<g
   id="g92"
   style="display:inline"
   display="inline">
			<polygon
   id="polygon94"
   style="fill:#c42827"
   points="23.313,56.942 19.945,55.61 18.613,58.979 15.246,57.647 11.482,48.964 45.505,37.304 48.144,43.394 46.812,46.761 43.444,45.429 42.113,48.798 38.744,47.466 37.412,50.833 34.044,49.503 32.713,52.87 29.345,51.538 28.013,54.905 24.645,53.573 " />
			<path
   id="path96"
   style="fill:#c42827"
   inkscape:connector-curvature="0"
   d="m 5.366,58.854 c 1.085,2.148 2.093,3.406 2.448,3.87 0.354,0.462 -1.738,1.68 -1.514,2.196 0.225,0.519 1.863,1.813 2.438,1.717 0.575,-0.096 6.906,-4.687 7.126,-5.244 0.221,-0.558 -0.619,-3.746 -0.619,-3.746 l -3.764,-8.684 c 0,0 -1.164,-0.729 -1.739,-0.635 -0.575,0.095 -9.085,2.858 -9.38,3.603 -0.293,0.742 0.009,2.152 0.623,2.504 0.613,0.351 2.228,-0.194 2.673,-0.235 0.446,-0.037 0.623,2.504 1.708,4.654 z M 5.902,53.69 c 0.261,-0.656 2.111,-1.529 2.799,-1.367 0.688,0.165 3.571,6.467 3.406,7.154 C 11.896,60.356 10.11,61.268 9.236,61.03 8.363,60.791 5.609,54.435 5.902,53.69 Z" />
			<path
   id="path98"
   style="fill:#d2787a"
   inkscape:connector-curvature="0"
   d="m 11.482,48.964 -1.739,-0.635 -4.903,1.664 -4.477,1.938 -0.031,1.17 0.215,0.676 c 0,0 0.187,-0.31 0.906,-0.933 0.897,-0.773 3.557,-1.925 4.809,-2.235 1.252,-0.312 3.823,-0.423 4.119,-0.629 0.296,-0.206 1.101,-1.016 1.101,-1.016 z" />
			<path
   id="path100"
   style="fill:#971822"
   inkscape:connector-curvature="0"
   d="m 15.38,58.675 c 0,0 -0.605,1.804 -1.012,2.287 -0.406,0.486 -6.488,4.584 -7.343,4.57 l 1.489,1.125 2.713,-1.561 4.359,-3.274 0.461,-0.896 z" />
			<path
   id="path102"
   style="fill:#d2787a"
   inkscape:connector-curvature="0"
   d="m 10.343,54.693 c 0,0 0.989,1.575 1.66,2.056 0.67,0.48 1.308,2.129 1.245,2.695 -0.063,0.566 -2.267,2.061 -2.999,2.146 -0.732,0.088 -1.431,-0.457 -1.721,-0.947 -0.291,-0.492 1.051,0.469 1.051,0.469 l 2.149,-1.086 0.468,-1.051 z" />
			<path
   id="path104"
   style="fill:#971822"
   inkscape:connector-curvature="0"
   d="m 10.484,55.019 c 0,0 0.052,-0.947 -0.222,-1.752 0,0 -0.461,-1.957 -1.13,-1.9 -0.668,0.06 -3.172,0.682 -3.494,1.361 -0.322,0.678 0.289,2.801 0.401,3.061 0.112,0.261 0.288,-0.048 0.288,-0.048 0,0 -0.434,-1.892 -0.287,-2.263 0.146,-0.373 2.121,-1.15 2.66,-1.154 0.539,-10e-4 1.784,2.695 1.784,2.695 z" />
			<path
   id="path106"
   style="fill:#d2787a"
   inkscape:connector-curvature="0"
   d="m 5.683,59.409 c 0,0 1.64,1.293 2.283,2.248 0.645,0.952 1.305,1.052 0.934,1.443 -0.369,0.392 -2.6,1.82 -2.6,1.82 0,0 1.469,-1.945 1.514,-2.196 0.044,-0.252 -2.131,-3.315 -2.131,-3.315 z" />
			<path
   id="path108"
   style="fill:#971822"
   inkscape:connector-curvature="0"
   d="m 0.546,53.777 c 0,0 0.423,0.974 1.191,0.794 C 2.507,54.39 3.658,54.2 3.658,54.2 L 4.2,55.276 c 0,0 0.855,-1.758 0.233,-1.951 C 3.81,53.133 2.2,54.216 1.727,54.188 1.253,54.164 0.546,53.777 0.546,53.777 Z" />
			<polygon
   id="polygon110"
   style="fill:#d2787a"
   points="44.908,37.563 44.863,38.352 11.798,49.52 11.482,48.964 " />
			<path
   id="path112"
   style="fill:#971822"
   inkscape:connector-curvature="0"
   d="m 13.831,54.032 c 0,0 1.208,2.787 5.274,3.105 l -0.492,1.842 -3.367,-1.332 z" />
			<polygon
   id="polygon114"
   style="fill:#971822"
   points="20.862,55.146 23.474,56.018 23.523,56.843 19.945,55.61 " />
			<polygon
   id="polygon116"
   style="fill:#971822"
   points="25.792,53.011 28.404,53.882 28.013,54.905 24.645,53.573 " />
			<polygon
   id="polygon118"
   style="fill:#971822"
   points="30.841,50.976 33.064,52.016 32.713,52.87 29.345,51.538 " />
			<polygon
   id="polygon120"
   style="fill:#971822"
   points="37.412,50.833 37.881,49.62 35.168,48.87 34.044,49.503 " />
			<polygon
   id="polygon122"
   style="fill:#971822"
   points="42.113,48.798 42.617,47.567 40.025,46.919 38.744,47.466 " />
			<polygon
   id="polygon124"
   style="fill:#971822"
   points="46.812,46.761 47.25,45.638 44.695,44.896 43.444,45.429 " />
		</g>
		<g
   id="g126"
   style="display:inline"
   display="inline">
			<polygon
   id="polygon128"
   style="fill:none;stroke:#000000;stroke-width:0.5"
   points="46.812,46.761 48.144,43.394 45.505,37.304 11.482,48.964 15.246,57.647 18.613,58.979 19.945,55.61 23.313,56.942 24.645,53.573 28.013,54.905 29.345,51.538 32.713,52.87 34.044,49.503 37.412,50.833 38.744,47.466 42.113,48.798 43.444,45.429 " />
			<path
   id="path130"
   style="fill:none;stroke:#000000;stroke-width:0.5"
   inkscape:connector-curvature="0"
   d="m 5.366,58.854 c 1.085,2.148 2.093,3.406 2.448,3.87 0.354,0.462 -1.738,1.68 -1.514,2.196 0.225,0.519 1.863,1.813 2.438,1.717 0.575,-0.096 6.906,-4.687 7.126,-5.244 0.221,-0.558 -0.619,-3.746 -0.619,-3.746 l -3.764,-8.684 c 0,0 -1.164,-0.729 -1.739,-0.635 -0.575,0.095 -9.085,2.858 -9.38,3.603 -0.293,0.742 0.009,2.152 0.623,2.504 0.613,0.351 2.228,-0.194 2.673,-0.235 0.446,-0.037 0.623,2.504 1.708,4.654 z M 5.902,53.69 c 0.261,-0.656 2.111,-1.529 2.799,-1.367 0.688,0.165 3.571,6.467 3.406,7.154 C 11.896,60.356 10.11,61.268 9.236,61.03 8.363,60.791 5.609,54.435 5.902,53.69 Z" />
		</g>
	</g>
</g>
<metadata
   id="metadata68"><rdf:RDF><cc:Work><dc:format>image/svg+xml</dc:format><dc:type
         rdf:resource="http://purl.org/dc/dcmitype/StillImage" /><cc:license
         rdf:resource="http://creativecommons.org/licenses/publicdomain/" /><dc:publisher><cc:Agent
           rdf:about="http://openclipart.org/"><dc:title>Openclipart</dc:title></cc:Agent></dc:publisher></cc:Work><cc:License
       rdf:about="http://creativecommons.org/licenses/publicdomain/"><cc:permits
         rdf:resource="http://creativecommons.org/ns#Reproduction" /><cc:permits
         rdf:resource="http://creativecommons.org/ns#Distribution" /><cc:permits
         rdf:resource="http://creativecommons.org/ns#DerivativeWorks" /></cc:License></rdf:RDF></metadata></svg>
