<?xml version="1.0" encoding="UTF-8" standalone="no"?>
<svg
   xmlns:dc="http://purl.org/dc/elements/1.1/"
   xmlns:cc="http://creativecommons.org/ns#"
   xmlns:rdf="http://www.w3.org/1999/02/22-rdf-syntax-ns#"
   xmlns:svg="http://www.w3.org/2000/svg"
   xmlns="http://www.w3.org/2000/svg"
   xmlns:sodipodi="http://sodipodi.sourceforge.net/DTD/sodipodi-0.dtd"
   xmlns:inkscape="http://www.inkscape.org/namespaces/inkscape"
   inkscape:version="1.0 (6e3e5246a0, 2020-05-07)"
   sodipodi:docname="cloud01-black.svg"
   id="svg8"
   version="1.1"
   viewBox="0 0 147.55193 98.704102">
  <metadata
     id="metadata14">
    <rdf:RDF>
      <cc:Work
         rdf:about="">
        <dc:format>image/svg+xml</dc:format>
        <dc:type
           rdf:resource="http://purl.org/dc/dcmitype/StillImage" />
        <dc:title></dc:title>
      </cc:Work>
    </rdf:RDF>
  </metadata>
  <defs
     id="defs12" />
  <sodipodi:namedview
     inkscape:current-layer="svg8"
     inkscape:window-maximized="1"
     inkscape:window-y="27"
     inkscape:window-x="67"
     inkscape:cy="49.352051"
     inkscape:cx="73.775963"
     inkscape:zoom="8.8952737"
     showgrid="false"
     id="namedview10"
     inkscape:window-height="1025"
     inkscape:window-width="1853"
     inkscape:pageshadow="2"
     inkscape:pageopacity="0"
     guidetolerance="10"
     gridtolerance="10"
     objecttolerance="10"
     borderopacity="1"
     bordercolor="#666666"
     pagecolor="#ffffff" />
  <path
     d="m 95.19,9.11 c -13.132,0 -24.365,8.755 -28.939,21.153 -3.2836,-1.4488 -6.9285,-2.2234 -10.754,-2.2234 -12.897,0 -23.631,9.1352 -25.978,21.246 -1.6526,-0.41046 -3.3852,-0.61761 -5.1676,-0.61761 -11.606,0 -21.006,9.2545 -21.006,20.659 0,11.4045 9.4001,20.659 21.006,20.659 3.6494,0 7.0932,-0.92418 10.084,-2.5322 5.1621,5.1757 13.55,8.554 23.017,8.554 7.6253,0 14.534,-2.1895 19.637,-5.7438 4.3851,4.5957 10.522,7.4422 17.319,7.4422 8.8302,0 16.549,-4.8187 20.754,-12.013 2.8951,1.6282 6.1657,2.5631 9.609,2.5631 12.035,0 21.788,-11.171 21.788,-24.952 0,-13.272 -9.0552,-24.107 -20.475,-24.89 -1.9342,-16.53 -15.033,-29.306 -30.894,-29.306 z"
     fill="#cccccc"
     stroke="#cccccc"
     id="path2"
     style="stroke-width:2;stroke-linecap:round;stroke-linejoin:round" />
  <path
     d="M 92.85,1 C 79.718,1 68.485,9.755 63.911,22.153 60.6274,20.7042 56.9825,19.9296 53.157,19.9296 c -12.897,0 -23.631,9.1352 -25.978,21.246 -1.6526,-0.41046 -3.3852,-0.61761 -5.1676,-0.61761 -11.606,0 -21.006,9.2545 -21.006,20.659 0,11.4045 9.4001,20.659 21.006,20.659 3.6494,0 7.0932,-0.92418 10.084,-2.5322 5.1621,5.1757 13.55,8.554 23.017,8.554 7.6253,0 14.534,-2.1895 19.637,-5.7438 4.3851,4.5957 10.522,7.4422 17.319,7.4422 8.8302,0 16.549,-4.8187 20.754,-12.013 2.8951,1.6282 6.1657,2.5631 9.609,2.5631 12.035,0 21.788,-11.171 21.788,-24.952 0,-13.272 -9.0552,-24.107 -20.475,-24.89 -1.9342,-16.53 -15.033,-29.306 -30.894,-29.306 z"
     fill="#ffffff"
     stroke="#000000"
     id="path4"
     style="stroke-width:2;stroke-linecap:round;stroke-linejoin:round;fill:#000000;fill-opacity:1" />
</svg>
