<?xml version="1.0" encoding="UTF-8"?>
<svg viewBox="0 0 147.55193 98.704102" xmlns="http://www.w3.org/2000/svg">
 <g transform="translate(-167.05 -379.6)" stroke-linecap="round" stroke-linejoin="round" stroke-width="2">
  <path d="m262.24 388.71c-13.132 0-24.365 8.755-28.939 21.153-3.2836-1.4488-6.9285-2.2234-10.754-2.2234-12.897 0-23.631 9.1352-25.978 21.246-1.6526-0.41046-3.3852-0.61761-5.1676-0.61761-11.606 0-21.006 9.2545-21.006 20.659s9.4001 20.659 21.006 20.659c3.6494 0 7.0932-0.92418 10.084-2.5322 5.1621 5.1757 13.55 8.554 23.017 8.554 7.6253 0 14.534-2.1895 19.637-5.7438 4.3851 4.5957 10.522 7.4422 17.319 7.4422 8.8302 0 16.549-4.8187 20.754-12.013 2.8951 1.6282 6.1657 2.5631 9.609 2.5631 12.035 0 21.788-11.171 21.788-24.952 0-13.272-9.0552-24.107-20.475-24.89-1.9342-16.53-15.033-29.306-30.894-29.306z" fill="#ccc" stroke="#ccc"/>
  <path d="m259.9 380.6c-13.132 0-24.365 8.755-28.939 21.153-3.2836-1.4488-6.9285-2.2234-10.754-2.2234-12.897 0-23.631 9.1352-25.978 21.246-1.6526-0.41046-3.3852-0.61761-5.1676-0.61761-11.606 0-21.006 9.2545-21.006 20.659s9.4001 20.659 21.006 20.659c3.6494 0 7.0932-0.92418 10.084-2.5322 5.1621 5.1757 13.55 8.554 23.017 8.554 7.6253 0 14.534-2.1895 19.637-5.7438 4.3851 4.5957 10.522 7.4422 17.319 7.4422 8.8302 0 16.549-4.8187 20.754-12.013 2.8951 1.6282 6.1657 2.5631 9.609 2.5631 12.035 0 21.788-11.171 21.788-24.952 0-13.272-9.0552-24.107-20.475-24.89-1.9342-16.53-15.033-29.306-30.894-29.306z" fill="#fff" stroke="#000"/>
 </g>
</svg>
