<?xml version="1.0" encoding="UTF-8" standalone="no"?>
<svg
   xmlns:serif="http://www.serif.com/"
   xmlns:dc="http://purl.org/dc/elements/1.1/"
   xmlns:cc="http://creativecommons.org/ns#"
   xmlns:rdf="http://www.w3.org/1999/02/22-rdf-syntax-ns#"
   xmlns:svg="http://www.w3.org/2000/svg"
   xmlns="http://www.w3.org/2000/svg"
   xmlns:sodipodi="http://sodipodi.sourceforge.net/DTD/sodipodi-0.dtd"
   xmlns:inkscape="http://www.inkscape.org/namespaces/inkscape"
   width="120.40527mm"
   height="151.9474mm"
   viewBox="0 0 426.63286 538.3963"
   id="svg10472"
   version="1.1"
   inkscape:version="1.0.1 (3bc2e813f5, 2020-09-07)"
   sodipodi:docname="person-disease.svg"
   inkscape:export-filename="/media/sdb1/_GRAFIKA/2017_OCAL/cinema/clapperboard_guy.png"
   inkscape:export-xdpi="85"
   inkscape:export-ydpi="85">
  <title
     id="title8043">Clapperboard guy</title>
  <defs
     id="defs10474" />
  <sodipodi:namedview
     id="base"
     pagecolor="#ffffff"
     bordercolor="#666666"
     borderopacity="1.0"
     inkscape:pageopacity="0.0"
     inkscape:pageshadow="2"
     inkscape:zoom="0.98994949"
     inkscape:cx="300.80229"
     inkscape:cy="346.11389"
     inkscape:document-units="px"
     inkscape:current-layer="layer1"
     showgrid="false"
     fit-margin-top="5"
     fit-margin-left="5"
     fit-margin-right="5"
     fit-margin-bottom="5"
     inkscape:window-width="1848"
     inkscape:window-height="1016"
     inkscape:window-x="72"
     inkscape:window-y="27"
     inkscape:window-maximized="1"
     inkscape:document-rotation="0" />
  <metadata
     id="metadata10477">
    <rdf:RDF>
      <cc:Work
         rdf:about="">
        <dc:format>image/svg+xml</dc:format>
        <dc:type
           rdf:resource="http://purl.org/dc/dcmitype/StillImage" />
        <dc:title>Clapperboard guy</dc:title>
        <dc:creator>
          <cc:Agent>
            <dc:title>Jan Helebrant</dc:title>
          </cc:Agent>
        </dc:creator>
        <dc:rights>
          <cc:Agent>
            <dc:title>Jan Helebrant</dc:title>
          </cc:Agent>
        </dc:rights>
        <dc:publisher>
          <cc:Agent>
            <dc:title>Jan Helebrant</dc:title>
          </cc:Agent>
        </dc:publisher>
        <cc:license
           rdf:resource="http://creativecommons.org/publicdomain/zero/1.0/" />
        <dc:subject>
          <rdf:Bag>
            <rdf:li>cinema</rdf:li>
            <rdf:li>movie</rdf:li>
            <rdf:li>film</rdf:li>
            <rdf:li>clapperboard</rdf:li>
            <rdf:li>clapboard</rdf:li>
            <rdf:li>motion</rdf:li>
            <rdf:li>slate</rdf:li>
            <rdf:li>remix+158407</rdf:li>
          </rdf:Bag>
        </dc:subject>
        <dc:description>simplified icon of a guy with movie clapperboard</dc:description>
      </cc:Work>
      <cc:License
         rdf:about="http://creativecommons.org/publicdomain/zero/1.0/">
        <cc:permits
           rdf:resource="http://creativecommons.org/ns#Reproduction" />
        <cc:permits
           rdf:resource="http://creativecommons.org/ns#Distribution" />
        <cc:permits
           rdf:resource="http://creativecommons.org/ns#DerivativeWorks" />
      </cc:License>
    </rdf:RDF>
  </metadata>
  <g
     inkscape:label="Vrstva 1"
     inkscape:groupmode="layer"
     id="layer1"
     transform="translate(1324.7962,381.07071)">
    <ellipse
       style="fill:#1a0cc3;fill-opacity:1;stroke:none;stroke-width:2.79398"
       id="path260"
       ry="114.30976"
       rx="121.31689"
       cy="-249.04442"
       cx="-1149.6385" />
    <path
       id="path21353"
       style="fill:#e6e6e6;fill-opacity:1;stroke-width:4.1894"
       inkscape:connector-curvature="0"
       d="m -999.28133,18.604355 c 0,87.160105 -83.56627,117.874245 -158.45807,115.954165 -83.1721,-2.13643 -155.9312,-45.350264 -144.957,-137.1095282 9.4449,-79.0204828 71.6476,-169.6261118 160.056,-164.3856818 90.1542,5.33914 143.35907,104.095782 143.35907,185.541045" />
    <path
       id="path21355"
       style="fill:#e6e6e6;fill-opacity:1;stroke-width:4.1894"
       inkscape:connector-curvature="0"
       d="m -1149.6647,-163.82501 c -86.018,0 -144.0119,90.692891 -150.4174,168.229657 -7.3996,89.710105 70.8201,126.848683 149.7801,126.848683 -71.6323,0 -148.6379,-32.110632 -145.0367,-114.868852 3.4493,-79.270925 65.5191,-141.784558 145.617,-141.784558 76.2885,0 134.9392,55.971597 141.2271,131.5426981 7.2137,86.8109589 -63.7434,125.1107119 -141.69,125.1107119 76.2466,0 150.72481,-35.442333 147.3515,-121.4791753 -3.1039,-79.2861317 -58.298,-173.5991647 -146.8316,-173.5991647" />
    <path
       id="path21357"
       style="fill:#282828;fill-opacity:1;stroke-width:4.1894"
       inkscape:connector-curvature="0"
       d="m -1260.716,-110.68051 c -48.0938,60.22924 -74.4934,170.214307 0.7629,220.43315 61.2079,40.83082 173.0828,41.66564 229.3125,-9.21349 59.32601,-53.68716 34.3836,-156.189126 -8.9821,-211.78125 -59.5992,-76.3794 -160.8603,-74.69074 -221.0971,0.56159 m -40.5462,131.990461 c 0,-84.71626 62.6997,-191.005361 158.2838,-185.453741 86.0937,5.00139 137.7775,96.544356 140.7222,174.517489 3.12279,82.781011 -64.8816,119.323821 -139.6749,121.293251 -71.4539,1.88976 -159.3311,-24.89314 -159.3311,-110.356999" />
    <path
       id="path21359"
       style="fill:#0088aa;fill-opacity:1;stroke-width:4.1894"
       inkscape:connector-curvature="0"
       d="m -1149.9073,90.229003 c -50.7998,0 -112.1217,-7.615904 -149.1654,-46.462084 13.0158,64.748671 82.1853,86.310071 140.3693,87.892451 62.3768,1.70002 139.0407,-16.70421 153.9578,-87.034882 -35.9584,38.227658 -95.5463,45.604515 -145.1617,45.604515" />
    <path
       id="path21361"
       style="fill:#282828;fill-opacity:1;stroke-width:4.1894"
       inkscape:connector-curvature="0"
       d="m -1149.6647,-165.47572 c 80.7548,0 133.9827,81.635043 142.46,154.341141 9.80567,84.078802 -48.8756,129.778169 -128.0896,134.073759 -71.1045,3.84403 -162.2225,-22.17615 -162.2225,-108.06498 0,-78.652402 54.0892,-174.1494 140.2592,-180.12604 -86.3104,5.84002 -141.8113,99.329631 -144.9874,178.281826 -3.6201,89.842904 82.9366,121.839674 159.5816,119.866434 79.5214,-2.04531 147.71936,-43.331479 141.1164,-130.4270648 -5.912,-77.9048462 -61.4395,-167.9450752 -148.1177,-167.9450752" />
    <ellipse
       ry="32.432426"
       rx="64.97506"
       cy="-129.41603"
       cx="-1147.562"
       id="ellipse21363"
       style="fill:#9e95fc;fill-opacity:1;stroke:#000000;stroke-width:5.15794;stroke-linecap:butt;stroke-linejoin:round;stroke-miterlimit:4;stroke-dasharray:none;stroke-dashoffset:0;stroke-opacity:1" />
    <path
       id="path21365"
       style="fill:#a495fc;fill-opacity:1;stroke:none;stroke-width:4.18969;stroke-miterlimit:4;stroke-dasharray:none"
       inkscape:connector-curvature="0"
       d="m -1031.5401,-242.20423 c 0,63.82278 -55.7969,113.63182 -118.2419,113.63182 -62.4455,0 -118.2388,-49.80523 -118.2388,-113.63182 0,-63.84171 55.7627,-113.69247 118.2388,-113.69247 62.4831,0 118.2419,49.84314 118.2419,113.69247" />
    <path
       id="path21367"
       style="fill:#c6aeff;fill-opacity:1;stroke-width:4.1894"
       inkscape:connector-curvature="0"
       d="m -1229.0873,-284.87541 c 26.9613,-31.56417 73.9885,-39.36985 112.6373,-28.70298 42.3754,11.6952 63.8951,45.94981 70.3006,87.64578 9.4182,-62.00131 -42.3489,-115.76438 -103.6368,-115.76438 -61.3563,0 -113.0245,53.8048 -103.629,115.8175 3.1991,-20.77966 10.515,-42.77365 24.3279,-58.99592" />
    <path
       id="path21369"
       style="fill:#8d78fa;fill-opacity:1;stroke-width:4.1894"
       inkscape:connector-curvature="0"
       d="m -1035.7974,-255.88403 c -6.561,50.48068 -34.2663,89.08396 -87.0083,98.29368 -64.5477,11.28158 -132.2525,-30.01594 -140.9574,-98.27851 -9.5095,70.04604 53.2281,128.24132 121.5245,123.96093 63.117,-3.95408 114.6491,-59.94084 106.4412,-123.9761" />
    <path
       id="path21371"
       style="fill:#5b60ff;fill-opacity:1;stroke-width:4.1894"
       inkscape:connector-curvature="0"
       d="m -1263.9036,-255.59944 c -3.085,6.42821 -1.4723,15.28878 -0.5047,21.94087 -0.5805,-7.30099 -0.4097,-14.67784 0.5047,-21.94087 m 226.353,-10.53026 c 14.8066,64.17192 -33.4922,125.50917 -97.2807,133.52352 -34.8994,4.39426 -70.7858,-7.01635 -96.2217,-31.43895 -22.9273,-22.02814 -29.2721,-50.90565 -40.254,-78.6524 0,66.25518 57.0112,117.30126 121.5095,117.30126 72.2432,0 133.8311,-65.01051 119.4187,-138.51351 0.607,1.38505 0.5086,2.57279 -0.3058,3.58218 -2.675,-1.4458 -4.9594,-3.38109 -6.8644,-5.8021 m 4.3486,-6.59135 c 0.1299,2.82324 0.1299,2.82324 0,0 m -0.1173,-1.96943 c 0.1299,2.1174 0.1299,2.1174 0,0 m -0.096,-1.14978 c 0.088,1.07387 0.042,0.28446 0,0" />
    <path
       id="path21379"
       style="fill:#f3d4b2;stroke-width:4.1894"
       inkscape:connector-curvature="0"
       d="m -1036.1124,-293.94093 c 2.3109,9.82066 3.791,20.10802 5.7487,30.03115 -0.6297,-10.18493 -2.292,-20.39646 -5.7487,-30.03115" />
    <path
       id="path21383"
       style="fill:#8f8af3;fill-opacity:1;stroke-width:4.1894"
       inkscape:connector-curvature="0"
       d="m -1251.3242,-266.1297 c -3.119,11.54346 -2.6372,4.85341 5.491,11.16776 2.1324,-5.7148 -0.5048,-8.41282 -5.491,-11.16776 m 186.1407,-31.86392 c -2.4968,0 -7.2971,6.65205 -9.1379,8.07506 2.2011,2.15917 4.2615,4.43221 6.1894,6.83043 6.2498,-5.61614 6.1853,-6.9784 13.2167,-0.76272 -1.6125,-3.27104 -5.5706,-14.14277 -10.2682,-14.14277" />
    <path
       id="path21385"
       style="fill:#f1b26f;stroke-width:4.1894"
       inkscape:connector-curvature="0"
       d="m -1264.3969,-233.66615 c 0.4098,3.271 0.8159,6.54199 1.2295,9.80922 -0.1517,-3.29379 -0.5654,-6.56479 -1.2295,-9.80922 m 0.6338,-22.22546 v 0" />
    <path
       id="path21387"
       style="fill:#b392f3;fill-opacity:1;stroke-width:4.1894"
       inkscape:connector-curvature="0"
       d="m -1261.2852,-269.14644 c -8.0751,0.73616 -7.2706,12.79186 -6.8494,18.19547 -0.013,-0.0758 2.8725,17.09508 1.977,17.68323 -1.4989,-2.78151 -3.5176,-5.4264 -4.7851,-8.54562 0.4744,2.15918 4.2235,18.18412 7.5818,18.18412 -5.563,0 0.9259,-41.11159 2.0757,-45.5172 m 227.8896,-6.70145 c 0.1257,1.74556 0.2221,3.47976 0.2975,5.22531 0.071,0.45158 -0.08,0.68681 -0.4403,0.71337 -2.5727,-1.37366 -4.7776,-3.22169 -6.6029,-5.55539 1.0628,3.22169 2.9447,15.12561 9.468,15.12561 1.9426,0.004 -2.4441,-14.60956 -2.721,-15.5089" />
    <path
       id="path21389"
       style="fill:#d69c5d;stroke-width:4.1894"
       inkscape:connector-curvature="0"
       d="m -1225.9377,-224.12254 c -0.1509,0.16297 -0.3226,0.25053 -0.5237,0.25053 0.1759,-0.0871 0.3477,-0.17847 0.5237,-0.25053 m -40.5842,-9.26284 c 0.095,0.0532 0.186,0.10264 0.2807,0.15166 -0.095,-0.0494 -0.186,-0.0989 -0.2807,-0.15166 m -2.5386,-4.26522 c 0.2505,0.47436 0.5009,0.96008 0.7475,1.4344 -0.2505,-0.47432 -0.5009,-0.96004 -0.7475,-1.4344 m -0.7248,-1.48372 c 0.406,0.81966 0.406,0.81966 0,0 m -0.7058,-1.57479 c 0.5312,1.18773 0.5312,1.18773 0,0 m -0.463,-1.13462 c 0,0.0494 0.7438,1.88217 0,0 m 10.4088,-27.33309 c -1.3926,0.44776 -2.7739,0.89934 -4.1703,1.3471 6.1018,-2.85738 17.1216,3.95408 15.5506,2.97125 -3.4303,-2.45897 -7.225,-3.90473 -11.3803,-4.31835 m 227.2825,-0.80826 c -0.096,0.0209 -0.1885,0.0607 -0.2807,0.0871 0.092,-0.0251 0.1844,-0.0645 0.2807,-0.0871 m 0.042,-3.11163 c 0.042,0.50088 0.042,0.50088 0,0 m -0.1424,-2.23127 c 0.054,0.84998 0.054,0.84998 0,0 m -160.9328,-5.31639 c 6.3524,0.44781 12.4924,1.84426 18.4158,4.20452 -5.9159,-2.10982 -12.0822,-4.02995 -18.4158,-4.20452 m -0.7096,0 c -0.9066,0 -0.9066,0 0,0 m 146.8316,-3.30895 c 1.6012,1.71141 3.2141,3.41901 4.8191,5.13042 -1.605,-1.71141 -3.2062,-3.41901 -4.8191,-5.13042 m 11.9645,-10.23047 c 1.3737,5.85142 2.292,11.76731 2.7587,17.75915 -0.2765,-3.47217 -1.4265,-14.27943 -2.7587,-17.75915 m -28.9873,-3.80983 c -1.1881,0.33766 -1.1881,0.33766 0,0" />
    <g
       id="g83"
       style="clip-rule:evenodd;fill-rule:evenodd;stroke-linejoin:round;stroke-miterlimit:2"
       transform="matrix(0.06492322,0,0,0.06492322,-1172.032,-160.84712)">
      <path
         d="m 1426.58,846.257 c -50.29,-145.165 -100.3,-287.02 -124.12,-344.504 -63.9,-154.188 -193.35,-104.147 -234.85,-204.294 -45.52,-109.841 71.1,-188.017 137.8,-216.685 63.97,-27.493 202.39,-55.62 246.55,50.944 44.16,106.564 -82.49,160.572 -18.95,316.675 15.38,37.789 85.05,181.922 157.67,331.384 113.49,-37.102 233.86,-58.938 358.68,-63.077 -21.46,-81.074 -97.52,-93.556 -97.02,-163.61 0.63,-89.824 104.02,-109.961 158.48,-110.312 52.22,-0.336 156.06,20.766 155.45,107.911 -0.53,74.684 -76.45,85.633 -99.21,167.378 118.53,6.698 232.82,29.368 340.7,65.876 68.12,-140.166 134.65,-278.915 158.81,-337.227 63.9,-154.188 -63.03,-210.293 -21.53,-310.44 45.52,-109.841 183.28,-82.695 250.73,-55.825 64.68,25.771 182.45,103.712 138.29,210.276 -44.16,106.564 -171.92,55.24 -237.42,210.531 -16.04,38.028 -69.79,192.262 -124.81,351.173 104.54,52.384 201.02,118.511 287.07,195.999 43.71,-74.168 -3.74,-137.289 45.97,-187.679 62.99,-63.846 151.01,-5.812 190.22,32.089 37.61,36.349 97.24,124.21 36.13,186.15 -52.77,53.49 -115.29,7.02 -189.23,51.29 82.4,88.78 152.49,189.11 207.55,298.25 146.94,-50.84 291.41,-101.68 349.56,-125.76 154.26,-63.87 104.2,-193.25 204.39,-234.73 109.89,-45.5 188.11,71.06 216.79,137.73 27.5,63.94 55.64,202.29 -50.97,246.43 -106.61,44.14 -160.65,-82.45 -316.82,-18.93 -38.03,15.46 -183.71,85.83 -334.12,158.85 39.88,116.75 63.51,240.96 68.2,369.95 79.87,-21.86 92.4,-97.99 161.77,-97.5 89.21,0.63 109.2,104.74 109.55,159.57 0.33,52.58 -20.64,157.14 -107.18,156.53 -73.86,-0.52 -84.95,-76.32 -165.2,-99.6 -6.25,114.78 -27.49,225.58 -61.79,330.5 137.44,66.69 271.98,131.07 329.18,154.75 154.26,63.87 210.39,-63 310.58,-21.52 109.89,45.5 82.73,183.2 55.85,250.61 -25.78,64.66 -103.76,182.37 -210.37,138.23 -106.62,-44.14 -55.27,-171.84 -210.63,-237.31 -37.21,-15.68 -185.61,-67.41 -340.86,-121.13 -53.53,109.86 -122.19,211.06 -203.25,300.88 70.76,36.69 131.42,-6.57 179.85,41.52 63.41,62.95 5.24,151.47 -32.69,190.95 -36.37,37.87 -124.16,98.01 -185.68,36.94 -51.59,-51.22 -9.18,-112 -46.84,-183.26 -87.23,80.2 -185.49,148.59 -292.18,202.61 49.09,141.6 97.37,278.32 120.65,334.49 63.89,154.19 193.34,104.15 234.84,204.3 45.52,109.84 -71.1,188.01 -137.8,216.68 -63.97,27.5 -202.38,55.62 -246.54,-50.94 -44.17,-106.56 82.48,-160.57 18.94,-316.68 -14.97,-36.78 -81.37,-174.31 -151.84,-319.36 -114.97,39.66 -237.3,63.58 -364.36,69.16 23.52,75.71 95.77,89.3 95.3,157.58 -0.63,89.82 -104.03,109.96 -158.49,110.31 -52.22,0.34 -156.06,-20.76 -155.45,-107.91 0.51,-72.47 72.02,-84.93 97.05,-160.28 -121.22,-5.9 -238.09,-28.51 -348.38,-65.57 -64.36,132.62 -125.38,260.27 -148.3,315.57 -63.89,154.19 63.04,210.3 21.54,310.44 -45.52,109.84 -183.29,82.7 -250.73,55.83 -64.68,-25.77 -182.46,-103.72 -138.29,-210.28 44.16,-106.56 171.92,-55.24 237.42,-210.53 15.25,-36.16 64.61,-177.43 116.75,-327.9 -105.36,-52.24 -202.62,-118.41 -289.36,-196.1 -30.44,67.96 7.95,126.17 -38.51,173.26 -62.98,63.84 -151.001,5.81 -190.216,-32.09 -37.61,-36.35 -97.236,-124.21 -36.13,-186.15 49.344,-50.02 107.204,-12.64 174.966,-43.75 -83.403,-90.72 -154.022,-193.34 -208.996,-305.01 -139.986,48.52 -274.295,95.94 -329.846,118.94 -154.259,63.86 -104.195,193.25 -204.388,234.73 -109.893,45.5 -188.105,-71.07 -216.786,-137.73 -27.506,-63.94 -55.645,-202.29 50.968,-246.44 106.613,-44.13 160.646,82.46 316.821,18.94 36.56,-14.86 172.614,-80.47 316.76,-150.42 -37.007,-111.25 -59.3,-229.15 -64.584,-351.43 -69.455,25.72 -84.125,94.16 -149.907,93.7 -89.208,-0.63 -109.201,-104.75 -109.546,-159.57 -0.331,-52.59 20.631,-157.15 107.177,-156.54 69.922,0.5 83.588,68.46 152.939,95.45 6.647,-123.93 30.78,-243.26 69.977,-355.55 -130.681,-63.34 -255.6,-122.95 -310.152,-145.53 -154.259,-63.87 -210.391,63 -310.584,21.52 -109.892,-45.49 -82.734,-183.2 -55.851,-250.61 25.782,-64.65 103.76,-182.37 210.373,-138.23 106.614,44.14 55.266,171.84 210.629,237.31 35.861,15.12 175.016,63.71 324.026,115.31 52.609,-103.21 118.68,-198.45 195.89,-283.4 -71.189,-37.64 -132.201,6.27 -180.87,-42.05 -63.407,-62.95 -5.234,-151.475 32.691,-190.958 36.371,-37.865 124.169,-98.01 185.679,-36.935 51.92,51.543 8.65,112.77 47.57,184.623 91.27,-83.448 194.52,-154.007 306.85,-208.783 z"
         style="fill:#e82828"
         id="path2" />
      <g
         transform="matrix(3.52522,0,0,3.52522,-3269.79,-3330.1)"
         id="g39">
        <g
           opacity="0.2"
           id="g37">
          <g
             id="circle833"
             transform="matrix(0.431746,0,0,0.431746,636.17,595.185)">
            <circle
               cx="1699.7"
               cy="1707.48"
               r="93.670998"
               id="circle4" />
          </g>
          <g
             id="circle835"
             transform="matrix(0.431746,0,0,0.431746,817.472,581.312)">
            <circle
               cx="1569"
               cy="2155.6101"
               r="164.625"
               id="circle7" />
          </g>
          <g
             id="circle837"
             transform="matrix(0.370944,0,0,0.370944,701.54,791.604)">
            <circle
               cx="1923.77"
               cy="2525.3201"
               r="104.875"
               id="circle10" />
          </g>
          <g
             id="circle839"
             transform="matrix(0.187408,0,0,0.187408,1235.46,1065.38)">
            <circle
               cx="2485.3701"
               cy="1953.8199"
               r="172.09399"
               id="circle13" />
          </g>
          <g
             id="circle8391"
             serif:id="circle839"
             transform="matrix(0.183259,0,0,0.183259,830.801,1185.47)">
            <circle
               cx="2485.3701"
               cy="1953.8199"
               r="172.09399"
               id="circle16" />
          </g>
          <g
             id="circle841"
             transform="matrix(0.431746,0,0,0.431746,618.83,618.83)">
            <circle
               cx="2144.1001"
               cy="1513.29"
               r="41.389"
               id="circle19" />
          </g>
          <g
             id="circle8411"
             serif:id="circle841"
             transform="matrix(0.320652,0,0,0.320652,1000,822.788)">
            <circle
               cx="2144.1001"
               cy="1513.29"
               r="41.389"
               id="circle22" />
          </g>
          <g
             id="circle8412"
             serif:id="circle841"
             transform="matrix(0.431746,0,0,0.431746,353.652,1040.56)">
            <circle
               cx="2144.1001"
               cy="1513.29"
               r="41.389"
               id="circle25" />
          </g>
          <g
             id="circle8413"
             serif:id="circle841"
             transform="matrix(0.431746,0,0,0.431746,300.196,771.909)">
            <circle
               cx="2144.1001"
               cy="1513.29"
               r="41.389"
               id="circle28" />
          </g>
          <g
             id="circle843"
             transform="matrix(0.226964,0,0,0.226964,1222.74,1217.1)">
            <circle
               cx="2044.95"
               cy="1885.88"
               r="131.015"
               id="circle31" />
          </g>
          <g
             id="circle845"
             transform="matrix(0.33076,0,0,0.33076,834.516,979.057)">
            <circle
               cx="2246.8701"
               cy="2413.02"
               r="71.264999"
               id="circle34" />
          </g>
        </g>
      </g>
    </g>
  </g>
</svg>
