<?xml version="1.0" encoding="UTF-8" standalone="no"?>
<svg
   xmlns:dc="http://purl.org/dc/elements/1.1/"
   xmlns:cc="http://creativecommons.org/ns#"
   xmlns:rdf="http://www.w3.org/1999/02/22-rdf-syntax-ns#"
   xmlns:svg="http://www.w3.org/2000/svg"
   xmlns="http://www.w3.org/2000/svg"
   xmlns:sodipodi="http://sodipodi.sourceforge.net/DTD/sodipodi-0.dtd"
   xmlns:inkscape="http://www.inkscape.org/namespaces/inkscape"
   viewBox="0 0 919.06082 520.42529"
   version="1.1"
   id="svg40"
   sodipodi:docname="plane03.svg"
   width="919.06085"
   height="520.42529"
   inkscape:version="0.92.4 (fd57863, 2020-04-02)">
  <metadata
     id="metadata46">
    <rdf:RDF>
      <cc:Work
         rdf:about="">
        <dc:format>image/svg+xml</dc:format>
        <dc:type
           rdf:resource="http://purl.org/dc/dcmitype/StillImage" />
        <dc:title></dc:title>
      </cc:Work>
    </rdf:RDF>
  </metadata>
  <defs
     id="defs44" />
  <sodipodi:namedview
     pagecolor="#ffffff"
     bordercolor="#666666"
     borderopacity="1"
     objecttolerance="10"
     gridtolerance="10"
     guidetolerance="10"
     inkscape:pageopacity="0"
     inkscape:pageshadow="2"
     inkscape:window-width="1294"
     inkscape:window-height="704"
     id="namedview42"
     showgrid="false"
     inkscape:zoom="0.34165831"
     inkscape:cx="471.30306"
     inkscape:cy="246.36436"
     inkscape:window-x="72"
     inkscape:window-y="27"
     inkscape:window-maximized="1"
     inkscape:current-layer="svg40" />
  <g
     id="g3779"
     transform="rotate(-15.812348,794.63937,157.5593)">
    <path
       d="m 815.48552,7.4988751 c -68.899,10.5319999 -78.258,46.2239999 -62.195,86.6279999 -53.662,7.485105 -100.4,31.272005 -100.43,66.235005 0.004,0.52215 0.0618,1.0538 0.14581,1.5756 -43.388,-15.846 -89.001,-31.679 -135.21,-46.602 -27.241,-40.795005 -59.797,-78.516005 -79.117,-81.427005 -2.2581,-0.32547 -5.0868,-0.62712 -8.3982,-0.87144 -24.3,-1.7929 -74.09,-0.85656 -107.8,10.404 -22.797,-11.048 -58.496,-22.485 -93.93,-28.198 -7.7598,-1.1004 -15.11,-1.8725 -22.047,-2.3738 -1.4695,-0.10618 -2.9337,-0.20875 -4.3654,-0.29017 -44.382,-2.5241 -70.515,6.683 -73.509,16.536 -51.379004,-2.1993 -93.487004,3.2464 -121.1300039,19.133 10.0599999,17.504 74.5739999,46.109 101.1400039,54.422005 -2.9892,0.87233 -5.5953,1.7521 -7.882,2.6706 -2.783504,-0.0617 -5.603304,0.50165 -8.329104,1.8579 -11.607,5.7754 -3.3014,21.313 1.6047,31.927 3.6854,8.7834 9.111404,16.046 16.600004,16.481 61.795,30.227 138.01,53.955 219,74.158 31.599,82.213 190.24,206.17 224.9,228.04 37.401,25.105 45.916,-97.4 30.357,-173.52 55.368,11.046 108.32,21.865 155.72,33.433 6.7657,1.3063 13.468,-1.0262 19.678,-5.8014 l 1.2411,0.64624 c 36.583,7.9989 60.198,-65.864 28.988,-86.487 -1.1439,-4.4434 -2.9893,-8.2855 -5.6106,-11.241 10.552,-2.5637 25.267,-11.784 39.551,-23.961 21.075,20.861 41.376,37.434 53.461,45.239 67.72199,-19.816 -13.027,-212.240005 -62.443,-228.6100049 z"
       id="path18"
       inkscape:connector-curvature="0"
       style="fill:#ffff00;fill-rule:evenodd;stroke:#040404;stroke-width:15;stroke-linecap:round;stroke-linejoin:round" />
    <path
       d="m 316.90552,121.19888 c 46.814,41.458 198.79,90.842 239.39,99.153 41.345,11.166 -73.161,-179.760005 -117.61,-186.460005 -36.13,-5.2075 -220.56,-2.5025 -121.78,87.304005 z"
       id="path20"
       inkscape:connector-curvature="0"
       style="fill:#ffff00;fill-rule:evenodd;stroke:#000000;stroke-width:4;stroke-linecap:round;stroke-linejoin:round" />
    <path
       d="m 777.71552,209.81888 c 34.642,13.526 -0.16398,115.03 -37.101,107.9 -189.59,-46.273 -467.89,-80.672 -635.33,-164.75 5.6462,-14.589 -46.254004,-35.809 3.3424,-50.283 C 82.056916,94.372675 17.552916,65.767875 7.4969161,48.263875 130.02692,-22.155125 536.34692,112.41088 777.71692,209.82388 Z"
       id="path22"
       inkscape:connector-curvature="0"
       style="fill:#ff0000;fill-rule:evenodd;stroke:#000000;stroke-width:4;stroke-linecap:round;stroke-linejoin:round" />
    <path
       d="m 228.54552,15.248875 c 59.223,9.5484 119.26,35.05 118.39,48.087 -1.6739,11.112 -53.259,13.295 -112.48,3.7464 -60.216,-8.6791 -108.7,-24.996 -106.03,-36.977 1.7358,-12.043 38.049,-23.6589999 100.13,-14.856 z"
       id="path24"
       inkscape:connector-curvature="0"
       style="fill:#99ffff;fill-rule:evenodd;stroke:#000000;stroke-width:4;stroke-linecap:round;stroke-linejoin:round" />
    <path
       d="m 118.32552,153.82888 c 9.0614,-9.6857 7.0106,-21.045 3.0976,-32.529 -3.913,-11.484 -17.385,-19.861 -28.993004,-14.086 -11.608,5.775 -3.286,21.293 1.6202,31.907 4.8442,11.545 12.668004,20.483 24.275004,14.708 z"
       id="path26"
       inkscape:connector-curvature="0"
       style="fill:#333333;fill-rule:evenodd;stroke:#000000;stroke-width:4;stroke-linecap:round;stroke-linejoin:round" />
    <path
       d="m 332.68552,179.29888 c 26.377,-30.981 182.33,28.955 225.85,49.618 44.327,22.587 47.043,263.13 -3.9907,228.88 -43.087,-27.181 -277.71,-212.06 -221.85,-278.5 z"
       id="path28"
       inkscape:connector-curvature="0"
       style="fill:#ffff00;fill-rule:evenodd;stroke:#000000;stroke-width:4;stroke-linecap:round;stroke-linejoin:round" />
    <path
       d="m 652.86552,160.36888 c 0.19112,25.265 95.794,50.326 124.47,55.038 29.612,4.7742 134.5,-95.811 75.898,-114.67 -75.987,-24.692005 -200.32,2.5839 -200.37,59.633 z"
       id="path30"
       inkscape:connector-curvature="0"
       style="fill:#ffff00;fill-rule:evenodd;stroke:#000000;stroke-width:4;stroke-linecap:round;stroke-linejoin:round" />
    <path
       d="m 815.48552,7.5088751 c 49.416,16.3789999 130.15,208.8000049 62.431,228.6200049 -48.426,-31.277 -228.73,-203.200005 -62.431,-228.6200049 z"
       id="path32"
       inkscape:connector-curvature="0"
       style="fill:#ff0000;fill-rule:evenodd;stroke:#000000;stroke-width:4;stroke-linecap:round;stroke-linejoin:round" />
    <path
       d="m 789.76552,225.58888 c 32.346,19.92 8.6471,95.038 -28.228,86.975 -189.85,-98.666 -54.71,-105.58 28.228,-86.975 z"
       id="path34"
       inkscape:connector-curvature="0"
       style="fill:#666666;fill-rule:evenodd;stroke:#000000;stroke-width:4;stroke-linecap:round;stroke-linejoin:round" />
    <path
       d="m 185.95552,18.578875 c 18.937,0.71336 38.702,6.947 38.898,11.525 -0.12597,3.9437 -16.243,6.979 -35.18,6.2656 -19.217,-0.36684 -35.026,-3.911 -34.62,-8.2012 0.11193,-4.2707 11.095,-9.9174 30.901,-9.5896 z"
       id="path36"
       inkscape:connector-curvature="0"
       style="fill:#fffeff;fill-rule:evenodd" />
  </g>
</svg>
