<?xml version="1.0" encoding="UTF-8"?>
<svg viewBox="0 0 195 245" xmlns="http://www.w3.org/2000/svg">
 <defs>
  <radialGradient id="b" cx="145.44" cy="53.28" r="87.932" gradientTransform="matrix(1.705 -.01746 .01867 1.8233 -88.29 31.61)" gradientUnits="userSpaceOnUse">
   <stop offset="0"/>
   <stop offset=".58022"/>
   <stop stop-color="#656565" offset="1"/>
  </radialGradient>
  <radialGradient id="a" cx="125.08" cy="114.57" r="86.843" gradientTransform="matrix(.9999 -.01427 .03455 2.4212 -3.9158 -168.33)" gradientUnits="userSpaceOnUse">
   <stop stop-color="#ccc" offset="0"/>
   <stop stop-color="#9a9a9a" offset="1"/>
  </radialGradient>
 </defs>
 <g transform="translate(-15.756 -.542)">
  <path d="m36.19 241.42c-3.7958-30.828-7.4225-64.539-11.843-96.616 5.1726-2.1568 3.6101-2.0968 6.3277-3.1948-2.5964-1.1882-3.3345-0.93299-7.1852-2.2775l-6.0814-48.168s-21.335-92.048 89.33-90.246c106.99 1.7426 82.458 91.162 82.458 91.162l-132.85 153.46-20.156-4.123z" fill="url(#b)"/>
  <path d="m55.229 169.96c-4.861 1.6953-10.998 0.20138-18.302-4.211l10.609 8.746 7.6932-4.535zm-12.315-97.736-10.155-4.5917 3.3555 11.568 6.7992-6.9758zm5.2098-10.773c-5.2392 0.28161-10.478-3.999-15.718-7.1524l10.949 12.451 4.7683-5.2981zm-13.431-15.959 13.464 8.011 7.0443-4.113c-6.836 1.5255-13.672-2.095-20.508-3.898zm-10.325 99.331 20.039 4.8492 11.48-5.8268-12.33-0.29611-12.972-1.9887-6.2179 3.2624z" fill="#d8d8d8"/>
  <path d="m56.346 245.54-8.8861-71.04 7.9067-4.5386c-6.6805-3.6638-9.8451-5.5622-9.9097-12.847l-1.106-7.4704 11.472-5.8023-12.227-0.26986-6.0318-48.289c-0.69471-6.2623-1.1354-9.34-1.2948-16.094 1.7607-2.2555 4.2944-4.5412 6.5989-6.9224 0.17471-1.6972 0.33023-3.9259 0.49741-5.5871-0.74297-3.0372 2.953-4.8935 4.7641-5.1702 1.2052-3.1818 1.1887-2.6066-0.09796-8.0862 2.7472-1.6694 4.487-2.6994 7.0384-3.8875-3.5416-4.7079-3.0987-5.9008-5.9237-15.439 16.802-24.962 52.386-28.545 77.747-29.06 95.533-1.9381 82.458 91.162 82.458 91.162l-22.447 148.88-130.56 0.4582z" fill="url(#a)"/>
 </g>
</svg>
