<?xml version="1.0" encoding="UTF-8" standalone="no"?>
<!-- Created with Inkscape (http://www.inkscape.org/) -->

<svg
   xmlns:dc="http://purl.org/dc/elements/1.1/"
   xmlns:cc="http://creativecommons.org/ns#"
   xmlns:rdf="http://www.w3.org/1999/02/22-rdf-syntax-ns#"
   xmlns:svg="http://www.w3.org/2000/svg"
   xmlns="http://www.w3.org/2000/svg"
   xmlns:sodipodi="http://sodipodi.sourceforge.net/DTD/sodipodi-0.dtd"
   xmlns:inkscape="http://www.inkscape.org/namespaces/inkscape"
   version="1.1"
   id="svg2"
   xml:space="preserve"
   width="908.95996"
   height="908.9613"
   viewBox="0 0 908.95996 908.9613"
   sodipodi:docname="plus.svg"
   inkscape:version="0.92.3 (2405546, 2018-03-11)"><metadata
     id="metadata8"><rdf:RDF><cc:Work
         rdf:about=""><dc:format>image/svg+xml</dc:format><dc:type
           rdf:resource="http://purl.org/dc/dcmitype/StillImage" /><dc:title></dc:title></cc:Work></rdf:RDF></metadata><defs
     id="defs6"><clipPath
       clipPathUnits="userSpaceOnUse"
       id="clipPath20"><path
         d="m 477.64,1018.5 v -69.92 c 0,-17.48 -8.74,-26.22 -26.22,-26.22 v 0 H 381.5 C 313.923,922.36 259.14,867.578 259.14,800 v 0 c 0,-67.577 54.783,-122.36 122.36,-122.36 v 0 h 69.92 c 17.48,0 26.22,-8.739 26.22,-26.22 v 0 -69.92 c 0,-67.578 54.783,-122.361 122.36,-122.361 v 0 c 67.577,0 122.361,54.783 122.361,122.361 v 0 69.92 c 0,17.481 8.739,26.22 26.219,26.22 v 0 h 69.92 c 67.577,0 122.36,54.783 122.36,122.36 v 0 c 0,67.578 -54.783,122.36 -122.36,122.36 v 0 h -69.92 c -17.48,0 -26.219,8.74 -26.219,26.22 v 0 69.92 c 0,67.578 -54.784,122.36 -122.361,122.36 v 0 c -67.577,0 -122.36,-54.782 -122.36,-122.36 M 302.84,800 c 0,43.443 35.218,78.66 78.66,78.66 v 0 h 69.92 c 46.613,0 69.919,23.306 69.919,69.92 v 0 69.92 c 0,43.442 35.218,78.66 78.661,78.66 v 0 c 43.442,0 78.66,-35.218 78.66,-78.66 v 0 -69.92 c 0,-46.614 23.307,-69.92 69.92,-69.92 v 0 h 69.92 c 43.443,0 78.66,-35.217 78.66,-78.66 v 0 c 0,-43.442 -35.217,-78.66 -78.66,-78.66 v 0 h -69.92 c -46.613,0 -69.92,-23.307 -69.92,-69.92 v 0 -69.92 c 0,-43.442 -35.218,-78.66 -78.66,-78.66 v 0 c -43.443,0 -78.661,35.218 -78.661,78.66 v 0 69.92 c 0,46.613 -23.306,69.92 -69.919,69.92 v 0 H 381.5 c -43.442,0 -78.66,35.218 -78.66,78.66 m 227.24,218.5 v -69.92 c 0,-52.44 -26.219,-78.66 -78.66,-78.66 v 0 H 381.5 c -38.616,0 -69.92,-31.305 -69.92,-69.92 v 0 c 0,-38.616 31.304,-69.92 69.92,-69.92 v 0 h 69.92 c 52.441,0 78.66,-26.22 78.66,-78.66 v 0 -69.92 c 0,-38.616 31.305,-69.92 69.92,-69.92 v 0 c 38.615,0 69.919,31.304 69.919,69.92 v 0 69.92 c 0,52.44 26.22,78.66 78.661,78.66 v 0 h 69.92 c 38.615,0 69.92,31.304 69.92,69.92 v 0 c 0,38.615 -31.305,69.92 -69.92,69.92 v 0 h -69.92 c -52.441,0 -78.661,26.22 -78.661,78.66 v 0 69.92 c 0,38.616 -31.304,69.919 -69.919,69.919 v 0 c -38.615,0 -69.92,-31.303 -69.92,-69.919 M 355.28,800 c 0,14.481 11.739,26.22 26.22,26.22 v 0 h 69.92 c 81.573,0 122.361,40.787 122.361,122.36 v 0 69.92 c 0,14.481 11.738,26.22 26.219,26.22 v 0 c 14.48,0 26.22,-11.739 26.22,-26.22 v 0 -69.92 c 0,-81.573 40.787,-122.36 122.36,-122.36 v 0 h 69.92 c 14.481,0 26.219,-11.739 26.219,-26.22 v 0 c 0,-14.481 -11.738,-26.22 -26.219,-26.22 v 0 h -69.92 c -81.573,0 -122.36,-40.787 -122.36,-122.36 v 0 -69.92 c 0,-14.48 -11.74,-26.22 -26.22,-26.22 v 0 c -14.481,0 -26.219,11.74 -26.219,26.22 v 0 69.92 c 0,81.573 -40.788,122.36 -122.361,122.36 v 0 H 381.5 c -14.481,0 -26.22,11.739 -26.22,26.22"
         id="path18"
         inkscape:connector-curvature="0" /></clipPath><linearGradient
       x1="0"
       y1="0"
       x2="1"
       y2="0"
       gradientUnits="userSpaceOnUse"
       gradientTransform="matrix(-681.71991,681.71991,-681.71991,-681.71991,941,459.5)"
       spreadMethod="pad"
       id="linearGradient30"><stop
         style="stop-opacity:1;stop-color:#323232"
         offset="0"
         id="stop26" /><stop
         style="stop-opacity:1;stop-color:#323232"
         offset="1"
         id="stop28" /></linearGradient><clipPath
       clipPathUnits="userSpaceOnUse"
       id="clipPath40"><path
         d="m 147.56,309.25 v -34.96 c 0,-14.566 -7.283,-21.85 -21.85,-21.85 v 0 H 90.75 C 61.788,252.44 38.31,228.962 38.31,200 v 0 c 0,-28.962 23.478,-52.441 52.44,-52.441 v 0 h 34.96 c 14.567,0 21.85,-7.282 21.85,-21.849 v 0 -34.96 c 0,-28.962 23.478,-52.441 52.44,-52.441 v 0 c 28.962,0 52.44,23.479 52.44,52.441 v 0 34.96 c 0,14.567 7.283,21.849 21.85,21.849 v 0 h 34.96 c 28.962,0 52.44,23.479 52.44,52.441 v 0 c 0,28.962 -23.478,52.44 -52.44,52.44 v 0 h -34.96 c -14.567,0 -21.85,7.284 -21.85,21.85 v 0 34.96 c 0,28.962 -23.478,52.44 -52.44,52.44 v 0 c -28.962,0 -52.44,-23.478 -52.44,-52.44 M 51.42,200 c 0,21.721 17.609,39.33 39.33,39.33 v 0 h 34.96 c 23.307,0 34.96,11.653 34.96,34.96 v 0 34.96 c 0,21.721 17.609,39.33 39.33,39.33 v 0 c 21.721,0 39.33,-17.609 39.33,-39.33 v 0 -34.96 c 0,-23.307 11.653,-34.96 34.96,-34.96 v 0 h 34.96 c 21.721,0 39.33,-17.609 39.33,-39.33 v 0 c 0,-21.722 -17.609,-39.33 -39.33,-39.33 v 0 h -34.96 c -23.307,0 -34.96,-11.653 -34.96,-34.96 v 0 -34.96 C 239.33,69.028 221.721,51.42 200,51.42 v 0 c -21.721,0 -39.33,17.608 -39.33,39.33 v 0 34.96 c 0,23.307 -11.653,34.96 -34.96,34.96 v 0 H 90.75 c -21.721,0 -39.33,17.608 -39.33,39.33 m 113.62,109.25 v -34.96 c 0,-26.219 -13.11,-39.33 -39.33,-39.33 v 0 H 90.75 C 71.442,234.96 55.79,219.307 55.79,200 v 0 c 0,-19.308 15.652,-34.96 34.96,-34.96 v 0 h 34.96 c 26.22,0 39.33,-13.11 39.33,-39.33 v 0 -34.96 c 0,-19.308 15.652,-34.96 34.96,-34.96 v 0 c 19.308,0 34.96,15.652 34.96,34.96 v 0 34.96 c 0,26.22 13.11,39.33 39.33,39.33 v 0 h 34.96 c 19.308,0 34.96,15.652 34.96,34.96 v 0 c 0,19.307 -15.652,34.96 -34.96,34.96 v 0 h -34.96 c -26.22,0 -39.33,13.111 -39.33,39.33 v 0 34.96 c 0,19.308 -15.652,34.96 -34.96,34.96 v 0 c -19.308,0 -34.96,-15.652 -34.96,-34.96 M 68.9,200 c 0,12.067 9.782,21.85 21.85,21.85 v 0 h 34.96 c 34.96,0 52.44,17.48 52.44,52.44 v 0 34.96 c 0,12.067 9.783,21.849 21.85,21.849 v 0 c 12.067,0 21.85,-9.782 21.85,-21.849 v 0 -34.96 c 0,-34.96 17.48,-52.44 52.44,-52.44 v 0 h 34.96 c 12.067,0 21.849,-9.783 21.849,-21.85 v 0 c 0,-12.067 -9.782,-21.85 -21.849,-21.85 v 0 h -34.96 c -34.96,0 -52.44,-17.48 -52.44,-52.44 v 0 -34.96 C 221.85,78.682 212.067,68.9 200,68.9 v 0 c -12.067,0 -21.85,9.782 -21.85,21.85 v 0 34.96 c 0,34.96 -17.48,52.44 -52.44,52.44 v 0 H 90.75 c -12.068,0 -21.85,9.783 -21.85,21.85"
         id="path38"
         inkscape:connector-curvature="0" /></clipPath><linearGradient
       x1="0"
       y1="0"
       x2="1"
       y2="0"
       gradientUnits="userSpaceOnUse"
       gradientTransform="matrix(-323.35538,323.35538,-323.35538,-323.35538,361.75,38.5)"
       spreadMethod="pad"
       id="linearGradient50"><stop
         style="stop-opacity:1;stop-color:#323232"
         offset="0"
         id="stop46" /><stop
         style="stop-opacity:1;stop-color:#323232"
         offset="1"
         id="stop48" /></linearGradient><clipPath
       clipPathUnits="userSpaceOnUse"
       id="clipPath60"><path
         d="m 519.155,309.25 v -15.295 c 0,-8.741 -4.37,-13.11 -13.11,-13.11 v 0 H 490.75 c -44.65,0 -80.845,-36.195 -80.845,-80.845 v 0 c 0,-44.649 36.195,-80.844 80.845,-80.844 v 0 h 15.295 c 8.74,0 13.11,-4.371 13.11,-13.111 v 0 V 90.75 C 519.155,46.101 555.35,9.905 600,9.905 v 0 c 44.649,0 80.845,36.196 80.845,80.845 v 0 15.295 c 0,8.74 4.37,13.111 13.11,13.111 v 0 h 15.295 c 44.649,0 80.845,36.195 80.845,80.844 v 0 c 0,44.65 -36.196,80.845 -80.845,80.845 v 0 h -15.295 c -8.74,0 -13.11,4.369 -13.11,13.11 v 0 15.295 c 0,44.65 -36.196,80.845 -80.845,80.845 v 0 c -44.65,0 -80.845,-36.195 -80.845,-80.845 M 440.495,200 c 0,27.755 22.5,50.255 50.255,50.255 v 0 h 15.295 c 29.134,0 43.7,14.566 43.7,43.7 v 0 15.295 c 0,27.755 22.5,50.255 50.255,50.255 v 0 c 27.754,0 50.254,-22.5 50.254,-50.255 v 0 -15.295 c 0,-29.134 14.567,-43.7 43.701,-43.7 v 0 h 15.295 c 27.755,0 50.255,-22.5 50.255,-50.255 v 0 c 0,-27.755 -22.5,-50.255 -50.255,-50.255 v 0 h -15.295 c -29.134,0 -43.701,-14.566 -43.701,-43.7 v 0 -15.295 c 0,-27.755 -22.5,-50.255 -50.254,-50.255 v 0 c -27.755,0 -50.255,22.5 -50.255,50.255 v 0 15.295 c 0,29.134 -14.566,43.7 -43.7,43.7 v 0 H 490.75 c -27.755,0 -50.255,22.5 -50.255,50.255 M 556.3,309.25 v -15.295 c 0,-33.504 -16.751,-50.255 -50.255,-50.255 v 0 H 490.75 c -24.135,0 -43.7,-19.565 -43.7,-43.7 v 0 c 0,-24.135 19.565,-43.701 43.7,-43.701 v 0 h 15.295 c 33.504,0 50.255,-16.75 50.255,-50.254 v 0 -15.295 c 0,-24.135 19.565,-43.7 43.7,-43.7 v 0 c 24.135,0 43.7,19.565 43.7,43.7 v 0 15.295 c 0,33.504 16.751,50.254 50.255,50.254 v 0 h 15.295 c 24.135,0 43.7,19.566 43.7,43.701 v 0 c 0,24.135 -19.565,43.7 -43.7,43.7 v 0 h -15.295 c -33.504,0 -50.255,16.751 -50.255,50.255 v 0 15.295 c 0,24.135 -19.565,43.7 -43.7,43.7 v 0 c -24.135,0 -43.7,-19.565 -43.7,-43.7 M 477.64,200 c 0,7.24 5.87,13.11 13.11,13.11 v 0 h 15.295 c 53.896,0 80.845,26.949 80.845,80.845 v 0 15.295 c 0,7.24 5.87,13.11 13.11,13.11 v 0 c 7.24,0 13.111,-5.87 13.111,-13.11 v 0 -15.295 c 0,-53.896 26.947,-80.845 80.844,-80.845 v 0 h 15.295 c 7.24,0 13.111,-5.87 13.111,-13.11 v 0 c 0,-7.24 -5.871,-13.111 -13.111,-13.111 v 0 h -15.295 c -53.897,0 -80.844,-26.947 -80.844,-80.844 v 0 -15.295 c 0,-7.24 -5.871,-13.111 -13.111,-13.111 v 0 c -7.24,0 -13.11,5.871 -13.11,13.111 v 0 15.295 c 0,53.897 -26.949,80.844 -80.845,80.844 v 0 H 490.75 c -7.24,0 -13.11,5.871 -13.11,13.111"
         id="path58"
         inkscape:connector-curvature="0" /></clipPath><linearGradient
       x1="0"
       y1="0"
       x2="1"
       y2="0"
       gradientUnits="userSpaceOnUse"
       gradientTransform="matrix(-380.17603,380.17603,-380.17603,-380.17603,790,9.5)"
       spreadMethod="pad"
       id="linearGradient70"><stop
         style="stop-opacity:1;stop-color:#323232"
         offset="0"
         id="stop66" /><stop
         style="stop-opacity:1;stop-color:#323232"
         offset="1"
         id="stop68" /></linearGradient><clipPath
       clipPathUnits="userSpaceOnUse"
       id="clipPath80"><path
         d="m 938.821,309.25 v -30.59 c 0,-11.653 -5.828,-17.48 -17.481,-17.48 v 0 h -30.59 c -33.789,0 -61.18,-27.391 -61.18,-61.18 v 0 c 0,-33.789 27.391,-61.18 61.18,-61.18 v 0 h 30.59 c 11.653,0 17.481,-5.827 17.481,-17.48 v 0 -30.59 c 0,-33.789 27.39,-61.18 61.179,-61.18 v 0 c 33.789,0 61.18,27.391 61.18,61.18 v 0 30.59 c 0,11.653 5.827,17.48 17.48,17.48 v 0 h 30.59 c 33.789,0 61.179,27.391 61.179,61.18 v 0 c 0,33.789 -27.39,61.18 -61.179,61.18 v 0 h -30.59 c -11.653,0 -17.48,5.827 -17.48,17.48 v 0 30.59 c 0,33.789 -27.391,61.18 -61.18,61.18 v 0 c -33.789,0 -61.179,-27.391 -61.179,-61.18 M 847.049,200 c 0,24.135 19.566,43.7 43.701,43.7 v 0 h 30.59 c 23.306,0 34.959,11.653 34.959,34.96 v 0 30.59 c 0,24.135 19.566,43.7 43.701,43.7 v 0 c 24.134,0 43.7,-19.565 43.7,-43.7 v 0 -30.59 c 0,-23.307 11.654,-34.96 34.96,-34.96 v 0 h 30.59 c 24.134,0 43.7,-19.565 43.7,-43.7 v 0 c 0,-24.135 -19.566,-43.701 -43.7,-43.701 v 0 h -30.59 c -23.306,0 -34.96,-11.653 -34.96,-34.959 v 0 -30.59 c 0,-24.135 -19.566,-43.7 -43.7,-43.7 v 0 c -24.135,0 -43.701,19.565 -43.701,43.7 v 0 30.59 c 0,23.306 -11.653,34.959 -34.959,34.959 v 0 h -30.59 c -24.135,0 -43.701,19.566 -43.701,43.701 M 965.04,309.25 v -30.59 c 0,-29.133 -14.566,-43.7 -43.7,-43.7 v 0 h -30.59 c -19.308,0 -34.96,-15.653 -34.96,-34.96 v 0 c 0,-19.308 15.652,-34.96 34.96,-34.96 v 0 h 30.59 c 29.134,0 43.7,-14.566 43.7,-43.7 v 0 -30.59 c 0,-19.308 15.652,-34.96 34.96,-34.96 v 0 c 19.308,0 34.959,15.652 34.959,34.96 v 0 30.59 c 0,29.134 14.567,43.7 43.701,43.7 v 0 h 30.59 c 19.308,0 34.96,15.652 34.96,34.96 v 0 c 0,19.307 -15.652,34.96 -34.96,34.96 v 0 h -30.59 c -29.134,0 -43.701,14.567 -43.701,43.7 v 0 30.59 c 0,19.308 -15.651,34.96 -34.959,34.96 v 0 c -19.308,0 -34.96,-15.652 -34.96,-34.96 M 873.269,200 c 0,9.654 7.827,17.48 17.481,17.48 v 0 h 30.59 c 40.787,0 61.179,20.393 61.179,61.18 v 0 30.59 c 0,9.654 7.827,17.481 17.481,17.481 v 0 c 9.654,0 17.481,-7.827 17.481,-17.481 v 0 -30.59 c 0,-40.787 20.392,-61.18 61.179,-61.18 v 0 h 30.59 c 9.654,0 17.481,-7.826 17.481,-17.48 v 0 c 0,-9.655 -7.827,-17.481 -17.481,-17.481 v 0 h -30.59 c -40.787,0 -61.179,-20.392 -61.179,-61.179 v 0 -30.59 c 0,-9.655 -7.827,-17.48 -17.481,-17.48 v 0 c -9.654,0 -17.481,7.825 -17.481,17.48 v 0 30.59 c 0,40.787 -20.392,61.179 -61.179,61.179 v 0 h -30.59 c -9.654,0 -17.481,7.826 -17.481,17.481"
         id="path78"
         inkscape:connector-curvature="0" /></clipPath><linearGradient
       x1="0"
       y1="0"
       x2="1"
       y2="0"
       gradientUnits="userSpaceOnUse"
       gradientTransform="matrix(-340.87277,340.87277,-340.87277,-340.87277,1170.25,29.25)"
       spreadMethod="pad"
       id="linearGradient90"><stop
         style="stop-opacity:1;stop-color:#323232"
         offset="0"
         id="stop86" /><stop
         style="stop-opacity:1;stop-color:#323232"
         offset="1"
         id="stop88" /></linearGradient></defs><sodipodi:namedview
     pagecolor="#ffffff"
     bordercolor="#666666"
     borderopacity="1"
     objecttolerance="10"
     gridtolerance="10"
     guidetolerance="10"
     inkscape:pageopacity="0"
     inkscape:pageshadow="2"
     inkscape:window-width="1299"
     inkscape:window-height="704"
     id="namedview4"
     showgrid="false"
     inkscape:zoom="0.1475"
     inkscape:cx="454.48001"
     inkscape:cy="187.81464"
     inkscape:window-x="67"
     inkscape:window-y="27"
     inkscape:window-maximized="1"
     inkscape:current-layer="g10" /><g
     id="g10"
     inkscape:groupmode="layer"
     inkscape:label="plus-2730156"
     transform="matrix(1.3333333,0,0,-1.3333333,-345.51999,1521.1466)"><g
       id="g14"><g
         id="g16"
         clip-path="url(#clipPath20)"><g
           id="g22"><g
             id="g24"><path
               d="m 477.64,1018.5 v -69.92 c 0,-17.48 -8.74,-26.22 -26.22,-26.22 v 0 H 381.5 C 313.923,922.36 259.14,867.578 259.14,800 v 0 c 0,-67.577 54.783,-122.36 122.36,-122.36 v 0 h 69.92 c 17.48,0 26.22,-8.739 26.22,-26.22 v 0 -69.92 c 0,-67.578 54.783,-122.361 122.36,-122.361 v 0 c 67.577,0 122.361,54.783 122.361,122.361 v 0 69.92 c 0,17.481 8.739,26.22 26.219,26.22 v 0 h 69.92 c 67.577,0 122.36,54.783 122.36,122.36 v 0 c 0,67.578 -54.783,122.36 -122.36,122.36 v 0 h -69.92 c -17.48,0 -26.219,8.74 -26.219,26.22 v 0 69.92 c 0,67.578 -54.784,122.36 -122.361,122.36 v 0 c -67.577,0 -122.36,-54.782 -122.36,-122.36 M 302.84,800 c 0,43.443 35.218,78.66 78.66,78.66 v 0 h 69.92 c 46.613,0 69.919,23.306 69.919,69.92 v 0 69.92 c 0,43.442 35.218,78.66 78.661,78.66 v 0 c 43.442,0 78.66,-35.218 78.66,-78.66 v 0 -69.92 c 0,-46.614 23.307,-69.92 69.92,-69.92 v 0 h 69.92 c 43.443,0 78.66,-35.217 78.66,-78.66 v 0 c 0,-43.442 -35.217,-78.66 -78.66,-78.66 v 0 h -69.92 c -46.613,0 -69.92,-23.307 -69.92,-69.92 v 0 -69.92 c 0,-43.442 -35.218,-78.66 -78.66,-78.66 v 0 c -43.443,0 -78.661,35.218 -78.661,78.66 v 0 69.92 c 0,46.613 -23.306,69.92 -69.919,69.92 v 0 H 381.5 c -43.442,0 -78.66,35.218 -78.66,78.66 m 227.24,218.5 v -69.92 c 0,-52.44 -26.219,-78.66 -78.66,-78.66 v 0 H 381.5 c -38.616,0 -69.92,-31.305 -69.92,-69.92 v 0 c 0,-38.616 31.304,-69.92 69.92,-69.92 v 0 h 69.92 c 52.441,0 78.66,-26.22 78.66,-78.66 v 0 -69.92 c 0,-38.616 31.305,-69.92 69.92,-69.92 v 0 c 38.615,0 69.919,31.304 69.919,69.92 v 0 69.92 c 0,52.44 26.22,78.66 78.661,78.66 v 0 h 69.92 c 38.615,0 69.92,31.304 69.92,69.92 v 0 c 0,38.615 -31.305,69.92 -69.92,69.92 v 0 h -69.92 c -52.441,0 -78.661,26.22 -78.661,78.66 v 0 69.92 c 0,38.616 -31.304,69.919 -69.919,69.919 v 0 c -38.615,0 -69.92,-31.303 -69.92,-69.919 M 355.28,800 c 0,14.481 11.739,26.22 26.22,26.22 v 0 h 69.92 c 81.573,0 122.361,40.787 122.361,122.36 v 0 69.92 c 0,14.481 11.738,26.22 26.219,26.22 v 0 c 14.48,0 26.22,-11.739 26.22,-26.22 v 0 -69.92 c 0,-81.573 40.787,-122.36 122.36,-122.36 v 0 h 69.92 c 14.481,0 26.219,-11.739 26.219,-26.22 v 0 c 0,-14.481 -11.738,-26.22 -26.219,-26.22 v 0 h -69.92 c -81.573,0 -122.36,-40.787 -122.36,-122.36 v 0 -69.92 c 0,-14.48 -11.74,-26.22 -26.22,-26.22 v 0 c -14.481,0 -26.219,11.74 -26.219,26.22 v 0 69.92 c 0,81.573 -40.788,122.36 -122.361,122.36 v 0 H 381.5 c -14.481,0 -26.22,11.739 -26.22,26.22"
               style="fill:url(#linearGradient30);stroke:none"
               id="path32"
               inkscape:connector-curvature="0" /></g></g></g></g></g></svg>