<?xml version="1.0" encoding="UTF-8" standalone="no"?>
<svg
   xmlns:dc="http://purl.org/dc/elements/1.1/"
   xmlns:cc="http://creativecommons.org/ns#"
   xmlns:rdf="http://www.w3.org/1999/02/22-rdf-syntax-ns#"
   xmlns:svg="http://www.w3.org/2000/svg"
   xmlns="http://www.w3.org/2000/svg"
   xmlns:sodipodi="http://sodipodi.sourceforge.net/DTD/sodipodi-0.dtd"
   xmlns:inkscape="http://www.inkscape.org/namespaces/inkscape"
   viewBox="0 0 186.80446 455.142"
   version="1.1"
   id="svg179"
   sodipodi:docname="cyanobacteria.svg"
   width="186.80446"
   height="455.142"
   inkscape:version="0.92.4 (f8dce91, 2019-08-02)">
  <metadata
     id="metadata183">
    <rdf:RDF>
      <cc:Work
         rdf:about="">
        <dc:format>image/svg+xml</dc:format>
        <dc:type
           rdf:resource="http://purl.org/dc/dcmitype/StillImage" />
      </cc:Work>
    </rdf:RDF>
  </metadata>
  <sodipodi:namedview
     pagecolor="#ffffff"
     bordercolor="#666666"
     borderopacity="1"
     objecttolerance="10"
     gridtolerance="10"
     guidetolerance="10"
     inkscape:pageopacity="0"
     inkscape:pageshadow="2"
     inkscape:window-width="1296"
     inkscape:window-height="704"
     id="namedview181"
     showgrid="false"
     inkscape:zoom="1.0486328"
     inkscape:cx="229.18199"
     inkscape:cy="229.05514"
     inkscape:window-x="70"
     inkscape:window-y="27"
     inkscape:window-maximized="1"
     inkscape:current-layer="svg179" />
  <defs
     id="defs5">
    <filter
       id="a"
       x="-0.33717999"
       y="-0.072437003"
       width="1.6744"
       height="1.1449"
       style="color-interpolation-filters:sRGB">
      <feGaussianBlur
         stdDeviation="4.592957"
         id="feGaussianBlur2" />
    </filter>
  </defs>
  <path
     style="opacity:0.98999999;fill:#1b7c00;fill-rule:evenodd;stroke:#4d4d4d;stroke-width:4.32700014;stroke-linecap:round;stroke-linejoin:round"
     inkscape:connector-curvature="0"
     id="path15"
     d="m 150.75198,8.1238739 c 61.88,35.3250001 -45.971,96.1699961 -43.908,202.9399961 2.194,113.52 106.11,203.07 43.908,237.39 -62.201998,34.32 -155.0599935,-132.81 -148.2299935,-242.95 6.5091,-104.88 86.3479955,-232.699996 148.2299935,-197.3799961 z" />
  <g
     style="fill:#ffffff;fill-rule:evenodd;stroke:#4d4d4d;stroke-width:4;stroke-linecap:round;stroke-linejoin:round"
     id="g33"
     transform="translate(-90.818014,-13.913126)">
    <path
       inkscape:connector-curvature="0"
       id="path29"
       d="m 217.01,65.896 c 0,18.052 -10.525,32.686 -23.508,32.686 -12.983,0 -23.508,-14.634 -23.508,-32.686 0,-18.052 10.525,-32.686 23.508,-32.686 12.983,0 23.508,14.634 23.508,32.686 z"
       transform="rotate(20,193.5,65.896)" />
    <path
       inkscape:connector-curvature="0"
       id="path31"
       d="m 265.57,76.574 c 0,18.604 -10.748,33.686 -24.008,33.686 -13.259,0 -24.008,-15.082 -24.008,-33.686 0,-18.604 10.749,-33.686 24.008,-33.686 13.259,0 24.008,15.082 24.008,33.686 z"
       transform="rotate(20,241.56,76.574)" />
  </g>
  <g
     id="g41"
     style="fill-rule:evenodd"
     transform="translate(-90.818014,-13.913126)">
    <path
       d="m 265.54,65.4 c 0,10.69 -8.3567,19.356 -18.665,19.356 -10.3083,0 -18.665,-8.6662 -18.665,-19.356 0,-10.6898 8.3566,-19.356 18.665,-19.356 10.3084,0 18.665,8.6661 18.665,19.356 z"
       id="path37"
       inkscape:connector-curvature="0" />
    <path
       d="m 215.97,56.721 c 0,10.69 -8.3567,19.356 -18.665,19.356 -10.3083,0 -18.665,-8.6662 -18.665,-19.356 0,-10.6898 8.3566,-19.356 18.665,-19.356 10.3084,0 18.665,8.6661 18.665,19.356 z"
       id="path39"
       inkscape:connector-curvature="0" />
  </g>
  <g
     id="g47"
     style="stroke:#000000;stroke-width:0.46200001"
     transform="translate(-90.818014,-13.913126)">
    <path
       d="m 241.09,42.539 c -8.338,-0.91986 -6.929,-10.155 1.1474,-11.123 5.5228,-1.5107 45.992,-0.03614 32.367,49.901 -3.7716,3.0714 11.482,-41.948 -33.514,-38.778 z"
       id="path43"
       inkscape:connector-curvature="0" />
    <path
       d="m 218.5,42.448 c 7.2742,4.1779 11.586,-4.1089 5.6377,-9.6569 -3.567,-4.4788 -37.109,-27.17 -55.578,21.185 1.2323,4.7053 15.484,-40.641 49.94,-11.528 z"
       id="path45"
       inkscape:connector-curvature="0" />
  </g>
</svg>
