<?xml version="1.0" encoding="UTF-8" standalone="no"?>
<svg
   xmlns:dc="http://purl.org/dc/elements/1.1/"
   xmlns:cc="http://creativecommons.org/ns#"
   xmlns:rdf="http://www.w3.org/1999/02/22-rdf-syntax-ns#"
   xmlns:svg="http://www.w3.org/2000/svg"
   xmlns="http://www.w3.org/2000/svg"
   xmlns:sodipodi="http://sodipodi.sourceforge.net/DTD/sodipodi-0.dtd"
   xmlns:inkscape="http://www.inkscape.org/namespaces/inkscape"
   version="1.1"
   id="angler"
   x="0px"
   y="0px"
   viewBox="0 0 679.85211 710.25519"
   sodipodi:docname="fish-carnivor.svg"
   width="679.85211"
   height="710.25519"
   inkscape:version="1.0.1 (3bc2e813f5, 2020-09-07)">
  <metadata
     id="metadata335">
    <rdf:RDF>
      <cc:Work
         rdf:about="">
        <dc:format>image/svg+xml</dc:format>
        <dc:type
           rdf:resource="http://purl.org/dc/dcmitype/StillImage" />
        <dc:title></dc:title>
      </cc:Work>
    </rdf:RDF>
  </metadata>
  <defs
     id="defs333" />
  <sodipodi:namedview
     pagecolor="#ffffff"
     bordercolor="#666666"
     borderopacity="1"
     objecttolerance="10"
     gridtolerance="10"
     guidetolerance="10"
     inkscape:pageopacity="0"
     inkscape:pageshadow="2"
     inkscape:window-width="1920"
     inkscape:window-height="1043"
     id="namedview331"
     showgrid="false"
     inkscape:zoom="0.95777778"
     inkscape:cx="318.42501"
     inkscape:cy="365.6"
     inkscape:window-x="0"
     inkscape:window-y="0"
     inkscape:window-maximized="1"
     inkscape:current-layer="angler" />
  <style
     type="text/css"
     id="style2"> .st0{fill:#FFFFFF;} .st1{fill:#FBD31E;} .st2{fill:#445976;} .st3{fill:#2E8FB7;} .st4{fill:#E69030;} .st5{fill:#FFFDEF;} .st6{fill:#C6E3EE;} .st7{fill:#96ADC1;} .st8{fill:#DAD6B1;} .st9{fill:#D1E4ED;} .st10{fill:#124B7A;} .st11{fill:#995911;} .st12{fill:#283C69;} .st13{fill:#0C314F;} .st14{fill:#061826;} .st15{fill:#768CA1;} .st16{fill:#D8ECF5;} </style>
  <path
     class="st0"
     d="m 192.12501,241.4 c 0.5,-0.4 1,-0.9 1.3,-1.5 0.3,-0.6 0.3,-1.1 0.1,-1.8 -0.2,-0.1 -0.4,-0.2 -0.6,-0.3 -1,-0.4 -1.9,-0.8 -3,-1.1 -1.4,-0.3 -5.2,4 -4.1,4.6 1,0.5 1.9,0.8 2.9,1.1 1.3,0.4 2.2,0 3.4,-1 z"
     id="path6" />
  <path
     class="st0"
     d="m 133.42501,228.5 c 1,0.2 1.8,-0.3 2.6,-0.9 0.7,-0.6 1.7,-1.5 1.5,-2.6 0,-0.2 -0.1,-0.3 -0.3,-0.3 -0.8,-0.1 -1.5,-0.8 -2,-1.4 -0.1,-0.1 -0.3,-0.1 -0.4,-0.1 -0.1,-0.1 -0.1,-0.2 -0.2,-0.3 -0.1,-0.6 -1,0 -1.2,0.2 -0.6,0.4 -1.1,1 -1.4,1.7 -0.3,0.9 -0.6,1.7 -0.2,2.6 0.4,0.6 0.9,1 1.6,1.1 z"
     id="path8" />
  <path
     class="st1"
     d="m 673.42501,434 c 0.3,0.7 -0.3,0.1 -2.2,0.9 -5,2.1 -13.1,1.7 -18.4,2.5 -11,1.7 -21.6,3.8 -32.7,4.5 -1.6,-12.6 -6,-25.4 -9.7,-37.7 7.2,-0.7 14.7,-2.4 20.8,-5.5 0.6,-0.3 4.2,-3.4 2.6,-4 -4.2,-1.5 -9.9,0.9 -14.1,1.8 -3.6,0.8 -7.1,1.8 -10.6,3 -0.2,-0.9 -0.5,-1.7 -0.7,-2.6 -2.4,-8.6 -4.7,-17.2 -7.1,-25.8 8,-0.2 16.8,-2.4 22.7,-5.5 0.5,-0.3 3.5,-2.8 2.2,-3.3 -4.2,-1.6 -9.8,0.5 -14.1,1.2 -4.1,0.6 -8.3,1.1 -12.4,1.8 -1.7,-6.2 -3.4,-12.3 -5.2,-18.5 -1.6,-5.6 -3.1,-11.2 -4.7,-16.9 1.4,-0.4 2.7,-0.8 3.6,-0.9 7.7,-1.5 15.9,-2.6 22.8,-6.5 0.6,-0.3 4.7,-3.7 3.4,-4.5 -4.1,-2.4 -10.9,0.5 -15.3,1.5 -4.6,1 -10.8,3.6 -16.1,4.2 -3.1,-11.5 -6.1,-23.1 -9.3,-34.5 7.1,-0.7 14.4,-2.8 20.1,-5.9 0.4,-0.2 3.6,-3 2.2,-3.3 -4.1,-0.9 -8.8,0.9 -12.9,1.7 -3.7,0.7 -7.3,1.4 -11,2.3 -1.8,-6.3 -3.8,-12.6 -5.9,-18.8 8.4,-1.6 17.7,-5.5 24.3,-7.5 11.7,-3.4 23.4,-6.9 34.7,-11.3 0.1,0.6 0.2,1.2 0.4,1.9 0.9,3.7 1.8,7.4 2.6,11.1 0.4,1.7 0.8,3.4 1.2,5.1 2.8,12.2 5.5,24.4 8.3,36.5 5.2,23 10.5,46 15.7,69 4.4,19.3 6.7,41.2 14.1,59.9 0,0.1 0.1,0.3 0.1,0.4 -0.4,0.5 -0.6,1 -0.4,1.5 0.5,1.2 0.9,1.9 1,2.2 z"
     id="path22" />
  <path
     class="st2"
     d="m 627.02501,241.4 c 0.3,0.1 0.4,0.2 0.6,0.3 -9.8,3.3 -19.6,6.8 -29.6,9.8 -9.3,2.8 -19.3,4.7 -28.5,8.1 -0.5,-1.4 -1,-2.9 -1.6,-4.3 5.5,-1.4 10.9,-3.3 16.2,-4.7 10.7,-2.8 21.6,-5.1 32.4,-7.7 3.5,-0.8 7.2,-3.1 10.5,-1.5 z"
     id="path24" />
  <path
     class="st3"
     d="m 625.02501,506.3 c 4.4,22.5 7.8,45.8 -3.5,66.9 -0.6,1.2 -1.3,2.4 -2,3.6 -10.7,17.8 -28,32.1 -46.2,41.7 -9,4.8 -18.4,8.5 -28.1,11.5 -9.2,2.8 -18.9,3.9 -28.1,6.6 -2.8,0.2 -5.6,0.4 -8.4,0.5 -11.3,0.4 -22.4,-0.9 -33.6,-1 -6.7,-0.1 -13.3,0.7 -19.4,2.5 -2.5,-3.3 -16.2,6.1 -17.6,7.4 -0.9,0.8 -1.8,1.8 -2.7,2.8 -3.7,0.6 -7.5,2 -11.1,2.5 -9,1.3 -18.1,1.4 -27.2,1 -10.9,-0.5 -21.9,-3 -32.8,-4.5 -0.1,-5.4 -0.9,-10.6 -0.2,-16.1 1.2,-4 2.3,-8 3.2,-12.2 18.6,10.6 44,16.2 64.3,10.7 0.4,-0.1 2.2,-1.8 1.4,-1.9 -10.7,-1.9 -21.6,-0.9 -32.4,-3.1 -11,-2.2 -21.1,-6.2 -31.2,-10.8 0,-0.3 -0.2,-0.3 -0.5,-0.2 -0.7,-0.3 -1.4,-0.6 -2.1,-1 0.6,-6.9 -0.4,-13 -1.1,-20.3 -1,-10.6 -2.3,-21.2 -3.8,-31.8 -0.1,-0.6 -2,0.9 -2,1.6 4.4,32.5 4.7,72.3 -23,95.2 -2.5,2 -5,3.9 -7.7,5.6 -25.7,16.6 -59,18.4 -88.7,19.8 -34.1,1.6 -68.5,1.7 -102.6,-0.5 -27.2,-1.7 -56.199998,-6.4 -75.599998,-27.4 -20,-21.8 -19.8,-53.2 -18.1,-81.5 11,5.2 22.7,9.4 33.6,13.9 0.8,0.3 2.9,-2.2 2.1,-2.5 -14.5,-6.1 -26.2,-13.7 -38.9,-22.7 -10.7,-7.6 -21.1,-16.4 -27.6,-28 -3.4,-6.2 -5.7999999,-13.1 -6.4999999,-20.2 -0.3,-3.4 -0.3,-7.1 0.4,-10.5 0.3,-1.5 0.8,-3.1 1.5,-4.7 2.0999999,-4.7 5.8999999,-9.2 10.8999999,-9.3 7.7,-0.3 10.2,8.3 14,13.5 4.1,5.6 8.9,10.5 14.3,14.7 20.2,16 46.3,22.6 70.999998,27.9 33,6.9 67,11.8 100.7,13.3 13.2,0.6 29.7,2.9 42.2,-2.8 3.7,-1.7 7,-4.1 9.7,-7.1 0.8,-0.8 1.4,-1.5 1.5,-1.7 0,0 0,0 0,0 2.8,-3.6 3.3,-8.6 5.2,-12.4 4.5,-4 9.8,-1.9 13.9,1.7 9.5,8.3 5.6,22.6 -1.3,31.1 -13.3,16.3 -33.8,15.7 -50.6,25.2 -0.4,0.2 -3.4,2.6 -2.4,3.2 4.9,2.9 13.5,-1.3 18.6,-3 7.4,-2.5 14.6,-5.6 21.2,-9.7 11.7,-7.2 23.1,-18.4 27.4,-31.7 4,-12.4 -2.1,-31.1 -18.4,-27.7 -5.6,1.1 -10.2,4.9 -13.5,9.7 -1.4,-7.8 -4.2,-16.3 -8,-23.9 -4.9,-11.4 -15.3,-22.8 -25.8,-29.5 -0.2,-0.3 -0.5,-0.6 -0.7,-0.9 -4,-2.5 -8.1,-4.7 -12.5,-6.5 0,0 0,0 0,0 -0.1,0 -0.2,-0.1 -0.3,-0.1 -0.7,-0.3 -2.4,1.1 -3.3,2.3 -0.1,-0.1 -0.2,-0.1 -0.3,-0.2 0,0.1 0.1,0.3 0.1,0.4 -0.4,0.6 -0.6,1.3 -0.3,1.5 0.4,0.3 0.8,0.7 1.1,1 3.6,11.5 5.1,23.6 5,35.6 0,5.3 -0.5,10.6 -1,15.9 -1,-0.1 -2,-0.2 -3,-0.5 -0.7,-0.2 -1.3,-0.6 -2,-0.8 -0.5,-0.1 -0.9,-0.1 -1.4,-0.1 -1.5,-1.6 -3.1,-3.2 -4.5,-4.5 -4.1,-4 -8.3,-8 -11.7,-12.7 -3.1,-4.3 -4.2,-9.4 -7.2,-13.7 -0.1,-0.2 -0.4,-0.1 -0.7,0.1 -0.3,-0.5 -0.6,-1 -1,-1.4 -0.5,-0.6 -2.1,1.4 -2.2,1.8 -2,9.8 -2.6,19.8 -4.5,29.6 -0.2,1 -0.4,1.9 -0.5,2.9 -1.2,-0.3 -2.4,-0.6 -3.6,-1.1 -0.8,-0.4 -1.7,-0.7 -2.6,-1.1 -1,-1.1 -2.1,-2.1 -3.2,-3.1 -9.8,-9 -19.6,-15.2 -21.3,-29.5 -0.1,-0.5 -0.7,-0.3 -1.4,0.2 -0.3,-0.7 -2.8,1.8 -3,2.2 -1.1,2.4 -1.8,4.9 -2.5,7.5 -0.2,0.8 -0.6,1.8 -0.9,2.8 -1.9,3.1 -3.6,6.4 -4.9,9.9 -0.8,-0.2 -1.7,-0.4 -2.4,-0.7 -1.7,-0.7 -3.3,-1.6 -4.8,-2.7 -1.2,-1.8 -2.4,-3.6 -3.3,-5.4 -8.1,-15.3 -2.5,-32.3 -3.1,-48.5 0.2,-0.6 0.5,-1.2 0.7,-1.9 0.7,-1.9 -3.1,0.9 -3.3,1.2 -9.7,11.3 -16.9,26.4 -22.3,40.3 -2.3,-0.1 -4.4,-0.6 -6.6,-1.9 -0.1,-0.1 -0.299998,-0.2 -0.399998,-0.2 -3.1,-4 -6.5,-8 -8,-12.7 0,-0.1 -0.1,-0.3 -0.1,-0.4 0.9,-2.3 1.3,-4.9 1.4,-7.6 0.2,-0.2 0.4,-0.4 0.4,-0.5 14.499998,-28.3 9.299998,-60.4 9.899998,-91 0.3,-16.2 2.1,-33.1 9.5,-47.7 3.8,-7.6 9.2,-13.9 15.2,-19.8 0.8,-0.8 1.7,-1.7 2.6,-2.5 2.9,-2.7 6.5,-5.2 8.8,-8.5 3.3,-0.1 6.5,-0.8 9.6,-2.1 1,-0.4 2,-0.9 3,-1.5 5.1,7.3 13.1,13 24.4,16.3 21.9,6.4 42.8,-4.4 56,-21.4 2,-2.5 3.8,-5.2 5.4,-7.9 7.2,-12.4 10.4,-26.3 11.6,-40.4 1.2,-14.6 3.1,-32.5 -4.6,-45.7 -9.7,-16.5 -29.4,-20.3 -45.2,-13.6 2.5,-7.4 5.5,-13.8 9.1,-20.5 1.1,-2 2.2,-4 3.4,-6.1 1.5,-2.6 3.5,-5.9 4.7,-9.4 13.1,10.4 37.7,4 48.7,-5.8 0.2,-0.2 1.2,-1.6 0.3,-1.1 -8.2,4.7 -17.4,7.5 -26.9,7 -3.1,-0.2 -5.9,-0.8 -8.6,-1.7 7.9,-1.2 16,-4.6 21.9,-7.6 3.8,-1.8 7.5,-3.9 11,-6.3 1.3,-0.7 2.9,-2 3.6,-2.7 1.8,-1.7 3.3,-3.9 4.5,-6.2 0.3,-0.3 0.6,-0.7 0.7,-0.8 2.2,-3.1 2.7,-6.5 2.2,-10.2 0,-0.1 0,-0.2 -0.1,-0.3 0.1,-0.1 0.1,-0.3 0.2,-0.4 -0.2,-0.5 -0.4,-1 -0.6,-1.5 -0.4,-1.4 -1,-2.8 -1.8,-3.9 -0.7,-1.1 -1.4,-2.1 -2.3,-3 0.1,0 0.1,0 0.2,0 0.3,0 0.5,0 0.8,-0.1 0,0 0,0 0,0 3.8,2.3 7.8,4.7 9.8,8.8 2.7,5.6 0,10.6 -2.4,15.8 -0.4,0.9 0.9,-0.1 1.1,-0.3 4.1,-5.1 9,-12.7 6.8,-19.3 2.4,0.9 4.9,1.4 7.3,1.7 1.6,0.7 3.2,1.3 4.7,2 7.1,3.3 14.5,5.8 21.7,8.9 15.8,6.7 27.8,15.8 37.4,30 0.3,0.5 1.6,-1 1.5,-1.4 0,-0.7 -0.1,-1.4 -0.1,-2 0.5,-0.5 0.9,-1 0.9,-1.2 0.7,-3.3 0.8,-7 0.3,-10.9 -0.8,-7.1 -3.4,-14.7 -7.1,-21.2 6.5,4.8 12,10.6 17.2,16.7 11.4,13.5 21.4,28.2 31.2,42.9 0.7,1 5,-2.6 4.4,-4.2 0.2,-0.2 0.4,-0.4 0.4,-0.5 2.7,-6 4.2,-13.7 4.5,-21.8 4.5,5 9.3,9.6 12.9,15.4 4.3,7 6.3,15.8 10.6,22.6 0,0 0,0 0,0 0,0.3 0.1,0.4 0.3,0.4 0.2,0.3 0.4,0.7 0.6,1 0.4,0.6 1.9,-1.3 2,-1.7 0.1,-0.8 0.2,-1.6 0.3,-2.4 1.4,-2.1 2.5,-4.5 3.4,-7 0.5,-1.5 1,-3.1 1.4,-4.6 0.5,-0.5 0.9,-1.1 0.9,-1.3 2.7,-7.8 3.6,-16 2.6,-23.9 4.6,0.9 10.6,-0.9 15,-1.4 10.2,-1 20.4,-1.2 30.6,0.5 1.4,0.2 2.8,0.5 4.2,0.9 13.3,4.8 24.7,13 31.7,26.5 7.8,15.1 12.3,32.4 17.8,48.4 5.5,15.9 10.7,31.8 15.8,47.8 10.2,31.9 19.7,64.1 28.5,96.5 4.2,15.4 8.2,30.7 12,46.2 3.8,8.7 6.6,18.1 9.1,27.2 -0.3,0.5 -0.3,0.9 0.1,1.1 0.1,0 0.1,0 0.2,0.1 0.5,2 1,3.9 1.6,5.9 1.6,6.1 3.2,12.6 4.5,19.2 0.3,1 0.6,1.9 0.9,2.9 3.5,10.5 5.9,20.8 7.9,31.2 z m -106.1,4.2 c 1.7,0.6 6,-3.9 5,-5.6 -2.6,-4.8 -5.5,-9.6 -8.6,-14.1 0.4,-0.5 0.8,-1 0.7,-1.3 -5.8,-16.8 -3.1,-34.4 -8.2,-51.1 -4.5,-14.6 -13.8,-28.7 -26.8,-36.9 3.2,-2.7 7.1,-4.2 11.7,-4 1.4,0.1 4.8,-2.8 4.3,-4.3 -2.8,-9.7 -12,-19.9 -22.5,-21.1 1.6,-0.8 3.2,-1.5 5,-2 5.1,-1.4 9.7,-1.8 14.9,-1.1 0.5,0.1 1.4,-1.1 1.4,-1.5 0.1,0.2 0.3,0.4 0.4,0.6 0.5,0.7 2.6,-1.6 2.4,-2.2 -3,-15.1 -17.1,-26.9 -31.5,-31 -3.1,-0.9 -19.6,-0.9 -20.3,-2.2 -0.5,-0.9 0.4,-3.1 1.5,-5.6 1.6,-3.3 3.8,-6.9 4.5,-8.3 3.2,-6.4 6.9,-12.5 10.7,-18.5 0.4,-0.7 1.7,-2.9 0.2,-3.2 -7.5,-1.5 -14.2,1.5 -20.2,6.7 0,0 0,0 0,0 -13.8,-42.8 -47.4,-86.4 -89.6,-103.8 -0.3,-0.1 -1.2,0.9 -1,1.1 18.4,13.5 36.7,26.7 51.6,44.2 15.7,18.4 26.8,39.1 35.2,61.6 0.1,0.2 0.2,0.3 0.3,0.3 -8.8,9.3 -15.5,22.5 -19.6,30.6 -6.4,12.3 -11.7,25.2 -16.2,38.3 -2.5,7.2 -6.9,16.6 -9.2,25.5 -1.4,-1.4 -3.1,-2.5 -5.1,-3.7 -0.3,-0.2 -0.8,0 -1.3,0.4 -2.1,-2.2 -4.8,-3.5 -8.2,-3.2 -2.2,0.2 -6.3,2.5 -8.7,5.3 -1.3,1.6 -2.1,3.3 -1.6,4.9 -1.3,3.3 -1.9,6.7 -1.6,9.2 1.2,9.4 5.7,19.3 10.2,27.6 3.1,5.8 6.5,11.3 8.8,17.5 0.4,1.1 0.7,2.2 1,3.3 0.7,5.9 1.5,11.7 2,17.6 0.5,6.2 -1.3,14.8 0.8,21 0.3,5.4 2.4,9.3 8.7,7.6 6.9,-1.8 10.1,-8.9 11.8,-15.6 0.2,-1 0.4,-1.9 0.6,-2.8 21.7,8.4 35.1,27.9 49.7,45.2 6.5,7.7 14.9,18.6 24.7,22.3 4.3,1.6 9.4,1.2 14,1.8 6.3,0.9 12.3,2.7 18.2,5 1.5,0.6 4.1,-2.9 4.1,-4.1 -0.1,-18 -4.7,-36.2 -14.5,-51.2 3.5,-0.3 6.6,-0.5 10.3,0.8 z m -185,-12.6 c 0.6,0.6 2.2,-1.4 2.2,-1.9 -0.4,-9.1 -3.7,-25.1 -12.9,-29.3 -11.2,-5.1 -26.7,-1.3 -37.5,2.9 -0.4,0.1 -2.6,2.5 -1.7,2.6 11,0.3 22.9,-3.6 33.3,1.5 8.7,4.1 9.4,17.7 16.6,24.2 z"
     id="path26" />
  <path
     class="st1"
     d="m 554.52501,702.3 c -8.4,-1.9 -17.9,-2 -26.2,-3.3 -8.6,-1.3 -17.2,-2.7 -25.6,-4.8 -8.7,-2.2 -17.4,-5.2 -25,-10.1 -5.7,-3.6 -9.9,-9.1 -14.9,-13.4 3.4,-1.1 6.3,-2.3 8,-3.3 0.3,-0.2 2.8,-2.5 2,-3 -4.8,-2.6 -13.3,0.4 -18.6,0.4 -5,0 -12.6,0.3 -15.9,-4.4 -2.3,-3.3 -2,-6 -0.3,-8.3 0.6,-0.3 1.2,-0.6 1.8,-1 0.2,-0.1 1.4,-1.3 1.7,-2 2.5,-1.7 5.6,-3 8.2,-4.2 12.8,-3.2 27.8,0.5 40.4,0.9 9.6,0.3 19.1,-0.4 28.3,-2.4 0.2,21.7 15.9,47.7 36.1,58.9 z m -35.3,-28.5 c 0.8,-0.1 2.6,-1.7 2.4,-2.6 -0.6,-2.4 -3.3,-3.3 -5.5,-4.2 -2.5,-1.1 -5.2,-1.9 -7.9,-2.6 -0.6,-0.1 -2.4,1.6 -1.9,2.1 3.3,3 8.1,7.9 12.9,7.3 z m -2.9,14.3 c 0.4,-0.1 2,-1.3 1.5,-1.9 -1.9,-2.2 -6.3,-2.7 -9,-3.6 -3.8,-1.2 -7.8,-1.8 -11.5,-3.3 -0.1,0 -0.5,0.4 -0.4,0.5 5.7,3.9 12,9.5 19.4,8.3 z"
     id="path28" />
  <path
     class="st1"
     d="m 415.42501,410.4 c 0.3,-0.2 0.5,-0.4 0.7,-0.5 0,0 0,0 0.1,0 l 1.8,-0.8 c 0.4,-0.1 2,-1.5 1.9,-2.1 4.9,-3.9 9.6,-8.1 15,-11.5 2.9,-1.8 15,-6.8 14.1,-11.5 -0.9,-4.9 -16.9,6.6 -18.8,7.9 -6.2,4.6 -12.8,9.9 -16.8,16.6 -1.6,2.7 0.2,3 2,1.9 z m 80.3,89.9 c 11.8,16.4 20.1,34 22.3,53.7 -21.8,-8.2 -37.5,-26 -52.7,-43.1 -10.8,-12.1 -27.7,-35 -46.2,-35.7 -1.1,-19 -5.4,-38.8 -13.8,-56.1 0.4,-1.1 0.8,-2.3 1.2,-3.4 4.4,-13 7.9,-26.2 13.1,-39 5.5,-13.6 13.1,-25 21.1,-36.7 12.3,-2.1 23.4,0.7 34.1,6.8 9.4,5.3 14.7,12.6 20.9,20.9 v 0 c -8.3,-1.1 -18,-0.1 -25.2,4.6 -0.9,0.1 -1.8,0.3 -2.7,0.5 -0.6,0.2 -2.9,1.8 -2.2,2.7 0.2,0.2 0.4,0.4 0.6,0.6 -0.1,0.3 -0.1,0.4 0.3,0.3 1.3,1.1 2.9,1.7 4.6,2.4 3.4,1.5 6.5,3.1 9.4,5.3 3.8,2.9 6.8,6.2 9.5,9.9 -4.7,1.3 -8.9,3.8 -12.1,7.4 -1,1.2 -2,2.6 -2.7,4.1 -0.6,1.1 0.1,1 0.9,0.6 13.4,11.4 23.7,23.8 27.8,41.4 2.5,10.7 0.9,23.7 4.5,34.4 -3.7,-4.2 -7.7,-8.1 -12.1,-11.3 -0.9,-0.7 -3.8,2.2 -3.2,3.2 7.2,10.1 14.9,19.6 21.5,30.1 -2.7,0.4 -5.2,1.4 -7.7,3.2 0,0 0,0 -0.1,0.1 -2.5,-3.4 -5.2,-6.6 -8.2,-9.6 -0.7,-0.9 -3.5,1.8 -2.9,2.7 z m -20.8,-18.9 c 0.8,0 4.1,-2.5 3.1,-3.4 -9.3,-9.2 -29.2,-6.5 -40.7,-4.2 -0.6,0.1 -2.6,2.4 -1.8,2.5 6.3,0.2 12.5,0.9 18.7,1.8 7,1 13.7,3.4 20.7,3.3 z m -13.7,-27.7 c 1.2,-0.3 4.8,-3.1 3.8,-4.6 -2.9,-4.4 -11,-3.9 -15.7,-3.6 -5.7,0.4 -10.7,1.8 -15.6,4.7 -0.3,0.2 -3.1,2.8 -2.2,3.2 3.8,1.8 9,0.2 13.1,0.2 5.6,0.1 11.1,1.3 16.6,0.1 z m 0.3,-36.6 c 1.1,-7.3 -5.1,-5.7 -10.1,-3.6 -8.9,3.7 -19.2,7.7 -26.5,14.2 -0.3,0.2 -2.8,2.7 -1.9,3.3 3.7,2.4 12.2,-3.2 15.6,-4.7 6.6,-2.9 12.2,-4.9 19.4,-5.7 1.3,-0.2 3.3,-2.2 3.5,-3.5 z"
     id="path30" />
  <path
     class="st1"
     d="m 514.82501,85.4 c -3.5,1.5 -6.9,3.5 -9.5,4.7 -8.9,4.1 -17.8,8.5 -26.4,13.1 -13.2,7.1 -26.5,14.4 -34.7,27.4 -0.6,0.9 -0.9,1.6 -1.1,2.2 -1.7,-2.3 -3.9,-4.4 -5.6,-5.8 -3.6,-3 -7.3,-5.2 -11.5,-6.1 -2.9,-1.8 -6.2,-3.3 -9.8,-4.4 -0.9,-0.3 -3.8,2.5 -3.1,3.4 8.5,9.7 19.6,14.4 23.9,27.7 2.9,9.1 0.7,18.9 1.9,27.9 -0.2,1.6 -0.5,3.2 -0.8,4.8 -0.2,0.9 -0.5,1.8 -0.8,2.8 -1.6,-12.8 -9.8,-26.2 -20.6,-33 0.4,-0.6 0.5,-1.1 0.4,-1.5 -5.3,-13.3 -9,-33.3 -25.4,-35.9 -2.5,-1.2 -5.2,-2.1 -8.2,-2.5 -0.8,-0.1 -3.7,2.3 -2.9,3.2 8.7,8.3 16.6,15.3 20.4,27.1 3.3,10.3 1.2,20 0.4,29.9 -14.1,-24 -31.7,-58.4 -60.4,-62.6 -1.7,-1.5 -3.7,-2.5 -5.9,-2.2 -0.8,0.1 -2.3,1.5 -2.2,2.4 0.1,0.6 0.4,1.1 0.7,1.7 -0.1,0.3 -0.1,0.5 0.1,0.7 0.4,0.3 0.8,0.5 1.1,0.8 2,1.9 5,3.5 6.6,5.2 0.8,0.8 1.5,1.6 2.1,2.4 1.2,2.1 2.5,4.2 3.7,6.3 0.4,1 0.9,2 1.2,3.1 0.1,0.2 0.3,0.3 0.6,0.2 0.9,1.8 1.8,3.6 2.5,5.4 1.2,3.2 1.9,6.6 2.6,10.1 -1,-1.4 -2,-2.7 -3,-3.9 -5.9,-6.8 -13.9,-11.4 -21.9,-15.1 -7.3,-3.4 -14.8,-6.3 -22.2,-9.5 -2.5,-2.3 -6,-4.1 -8.4,-6 -1.1,-0.9 -2.1,-1.8 -3.2,-2.8 2.7,-0.6 5.4,-1.1 7.7,-2.5 0.2,-0.1 0.5,-0.3 0.8,-0.6 6,-1 11.9,-1.8 17.8,-3.1 0.6,-0.1 3.2,-2.4 2.1,-2.8 -9.9,-3.2 -24.7,-1 -35,4.1 -0.1,0 -0.1,-0.1 -0.2,-0.1 5.7,-16.1 3.5,-35.8 0.3,-52.1 -1.3,-6.8 -4.3,-15.3 -8.8,-22.5 6.8,4.1 13.1,9.1 18.8,14.7 6.5,6.4 12.1,13.7 17,21.5 5.4,8.6 9.2,18.9 15.7,26.6 0.6,0.8 2.8,-1.8 2.7,-2.4 -0.5,-4.3 -1.6,-8.7 -3.2,-13 0.7,-1.7 1.5,-3.3 2.2,-5 11.3,-24.5 25.4,-45.5 49.5,-59.3 -6.9,10.1 -10.8,22.6 -13.9,34.3 -2.5,9.4 -6.9,25.3 -5.6,36.9 0.1,4.7 0.8,9.1 2.6,12.8 0.7,1.5 4.9,-3.3 5.1,-4.2 2,-10.1 2.2,-20.3 3.3,-30.5 0.7,-0.6 1.4,-1.3 2,-1.9 21.2,-19.6 42.3,-38.4 71.7,-41.7 -11,9.2 -19.8,22.6 -27.8,33.9 -10.2,14.5 -20.7,30.3 -22.1,48.4 0,0.2 0.1,0.3 0.3,0.3 -0.1,0.3 -0.2,0.7 -0.3,1 -0.9,2.9 5.8,-2.3 6.4,-3.7 3.1,-7 7.5,-13.5 12.7,-19.2 5.2,-5.7 11.2,-10.8 17.6,-14.9 9.9,-6.5 25.6,-14.8 37.9,-14.1 1.5,0.1 2.4,0.4 2.9,0.8 -9.5,9.8 -18.2,20.3 -27.2,30.6 -7.2,8.3 -14.4,17.2 -17.4,28 -0.2,0.6 -0.1,0.9 0.2,1.1 -0.2,0.5 -0.5,1 -0.7,1.6 -1.4,3.4 4.1,-1 4.7,-2.3 0.5,-0.8 0.9,-1.6 1.4,-2.4 1.1,-1 2,-1.9 2.2,-2.4 0.9,-2.3 2,-4.5 3.2,-6.7 0.4,-0.6 0.8,-1.3 1.1,-1.9 4.3,-3.6 14.9,-5.4 19.1,-6.7 6.3,-1.9 12.8,-3.4 19.4,-4.2 11.2,-1.7 22.5,-0.9 33.2,2.4 z"
     id="path32" />
  <path
     class="st2"
     d="m 506.12501,555.5 c -6.1,-1 -12.6,-0.4 -18.1,-3.5 -10.2,-5.9 -18.4,-17.3 -25.6,-26.3 -13.1,-16.4 -26.4,-33.3 -46.6,-40.7 1.3,-0.9 2.6,-2.1 3.1,-3.3 8.4,3.7 15.6,7.9 23.1,14.7 8.8,8 16.5,17.1 24.4,26 11.7,13.1 24.1,25.5 39.7,33.1 z"
     id="path34" />
  <path
     class="st2"
     d="m 455.72501,305.3 c -3.7,6.8 -7.2,13.6 -10.5,20.5 -1.1,2.2 -2.1,4.5 -3.1,6.8 -11.6,10.8 -19.5,26.2 -25.6,40.5 -5.5,13.1 -10.6,27.1 -13.7,41.3 -0.2,-0.3 -0.4,-0.6 -0.5,-0.9 -0.5,-1.9 -1.5,-3.6 -2.6,-5.5 7.7,-15.9 11.5,-34.1 18,-50.4 6.9,-16.8 17.6,-49.2 38,-52.3 z"
     id="path36" />
  <path
     class="st2"
     d="m 406.02501,458.5 c 2.2,11.3 2.6,23 0.8,34.4 0,0.2 -0.1,0.4 -0.1,0.7 -0.8,2.9 -4.3,11.1 -7.7,9 -1.2,-0.7 -1.2,-2.9 -1.3,-4.3 3.8,-12.4 2.2,-28.8 -3.1,-41.5 -1.1,-5.1 -3.7,-9.9 -6.3,-14.8 -2.9,-5.4 -6,-10.8 -8.2,-16.6 -1.7,-4.2 -8.7,-21 -1.5,-24.8 -0.6,0 -1.3,0 -1.9,0 -0.6,0 -1.1,0 -1.7,0 0.7,-0.4 2.2,-0.4 3,-0.3 0.5,0.1 1,0.2 1.5,0.4 10.3,18.8 22.2,35.8 26.5,57.8 z"
     id="path38" />
  <path
     class="st4"
     d="m 268.12501,121.5 c 0.4,4 0.1,8 -1.3,11.4 -0.1,0.4 -0.4,0.8 -0.6,1.1 -0.5,0.4 -1,0.8 -1.5,1.1 -7.5,5 -16.2,9.1 -24.9,11.2 -11.2,2.7 -19.4,0.8 -24.2,-5.2 8.2,1.7 19.3,0.2 24,-1.6 8.8,-3.4 23.9,-9.9 27.9,-20.2 0.1,0.7 0.3,1.5 0.6,2.2 z"
     id="path40" />
  <path
     class="st5"
     d="m 250.82501,501.9 c 10.7,12.1 12.1,27.8 18.3,41.9 -5.7,4.9 -11,7.1 -18.6,6.2 -3.7,-0.4 -7.2,-1.8 -10.7,-2.8 -0.9,-1.4 -2.5,-2.5 -3.6,-3.6 -0.9,-1 -1.8,-2 -2.7,-3 3.7,-16.7 4.7,-34.8 1.7,-51.7 5.4,4 11,7.8 15.6,13 z"
     id="path42" />
  <path
     class="st4"
     d="m 257.52501,114.3 c 9.9,8.9 -10,16.9 -16.9,19.1 -4.9,1.5 -10.3,2.4 -15.4,1.2 -3.7,-0.8 -11.7,-3.6 -11.4,-8.4 0.4,-5.3 13.1,-10.3 21.4,-13.8 1.5,-0.3 3.2,-0.6 4.8,-0.9 0.9,0 1.8,-0.1 2.7,-0.1 0.1,-0.1 0.2,-0.2 0.3,-0.3 5.3,-0.7 10.5,-0.4 14.5,3.2 z"
     id="path44" />
  <path
     class="st0"
     d="m 242.32501,230.7 c 1.4,20.2 0,49 -13,67.1 -4.8,6.7 -11.2,11.9 -19.6,14.7 -25.3,8.4 -52.6,-8.8 -57,-34.7 -3.9,-22.9 10,-50.2 27.7,-67.2 0.5,-0.5 1,-1 1.5,-1.4 0.6,0.5 2.6,-0.5 3.6,-1.5 22.1,-23.3 54.9,-6.5 56.8,23 z m -43.4,13.9 c 0.2,-4.2 -1.9,-8.1 -6.1,-9.2 -5.1,-1.3 -10.1,2.4 -13.1,6.1 -1.8,2.2 -3.2,5.4 -2.9,8.3 0,2.6 1,5 3.1,6.6 7.6,6 18.6,-3.9 19,-11.8 z"
     id="path46" />
  <path
     class="st5"
     d="m 219.22501,539.1 c 1.5,2.2 2.4,5.4 3.5,8.2 -4.6,0.8 -8.8,1.3 -13.7,-0.1 -4.7,-1.3 -9,-3.6 -13.7,-4.8 -0.9,-8.5 0.5,-16.5 2,-25.2 0.3,-1.7 0.6,-3.5 0.9,-5.5 2.5,5.1 6.6,9.6 10.2,13.8 3.7,4.4 7.6,8.8 10.8,13.6 z"
     id="path48" />
  <path
     class="st0"
     d="m 186.82501,201.5 c -0.4,0.4 -0.8,0.8 -1.2,1.2 -2.8,1.8 -5.5,4 -8.1,6.3 -24.4,21.8 -41.5,63.9 -27.9,90.7 -0.4,0.1 -0.8,0.1 -1.1,0.2 -3.3,0.6 -6.5,0.8 -10.4,-0.2 -6,-1.5 -11.6,-4.8 -15.9,-9.3 -11.1,-11.5 -12.8,-29.3 -10.1,-44.3 2,-11.6 6.4,-23.2 13.9,-32.2 4.5,-5.4 10,-9.8 16.9,-12.6 15.1,-6.3 28.7,-3.2 43.9,0.2 z m -46.9,35.2 c 3.1,-3.3 4.3,-7.4 2.4,-11.6 -1.5,-3.3 -5,-6.4 -8.9,-5.5 -0.9,0.2 -1.8,0.6 -2.7,1.2 -0.4,0.1 -1.3,0.7 -1.4,0.8 -0.1,0.1 -0.3,0.3 -0.4,0.4 -2.8,2.3 -4.9,5.9 -5,9.1 0,1 0.2,2 0.5,2.9 0.4,3 2.3,5.5 5.4,6.5 3.9,1.2 7.6,-1.1 10.1,-3.8 z"
     id="path50" />
  <path
     class="st5"
     d="m 182.72501,543.8 c -2.4,0 -6.2,0.7 -8,0.8 -8.7,0.4 -15.7,-3.7 -23.7,-5.9 -0.4,-1.2 -0.9,-2.5 -1.2,-3.9 -1,-4.4 -0.8,-8.8 0.1,-13.2 1,-4.8 3.3,-8.9 5.4,-13.2 2,6.1 6.8,11.3 11.8,16 4,3.7 8.3,7.1 11.7,11.5 1.9,2.4 2.9,5.2 3.9,7.9 z"
     id="path52" />
  <path
     class="st5"
     d="m 140.42501,538.6 c -1.6,0.5 -3.1,1.1 -4.6,1.8 -2.1,-0.4 -4.2,-0.8 -6.4,-1.2 -0.7,-0.3 -1.4,-0.6 -2.1,-0.9 -2.9,-1.2 -5.5,-2.7 -7.9,-4.7 -3.8,-3.2 -6,-7.3 -9,-11 -0.2,-1.7 -0.3,-3.4 -0.3,-5.1 0.2,-8.5 2.9,-16.6 6.1,-24.4 3,-7.1 7.1,-13.8 10.7,-20.7 -3,12.4 -3.6,26.5 -0.4,37.9 1.7,5.8 4.9,11 7.9,16.1 2.4,4 4.9,7.8 6,12.2 z"
     id="path54" />
  <path
     class="st5"
     d="m 96.225012,509.1 c 2,6.1 2.4,12.7 2.2,19.1 -2.2,0.3 -4.5,0.8 -6.7,1 -0.1,0 -0.2,-0.1 -0.3,-0.1 -8.8,-3 -17.5,-6.6 -25.5,-11.3 -3.4,-5.2 -5.5,-11.4 -10.3,-15.8 -0.3,-2.9 -0.4,-5.7 0.4,-8.9 1.5,-6.2 5,-12.7 8.6,-18 1.2,-1.8 2.5,-3.4 3.8,-5 5.8,-6.7 12.8,-11.7 19.8,-17.2 0.1,-0.1 0.1,-0.1 0.2,-0.2 -7.9,19.9 -5.2,40.3 7.8,56.4 z"
     id="path56" />
  <path
     class="st5"
     d="m 77.225012,409.2 c -5.6,14.6 -13.9,35.7 -3.1,48.9 -3.4,3.2 -6.5,6.7 -9.3,10.1 -1.7,2 -3.2,4 -4.5,5.9 -2.9,4 -9.4,13.9 -12.3,23 -1.9,-2.1 -4.3,-4 -5.6,-6.2 -0.6,-1 -1.2,-2.1 -1.8,-3.3 0,0 0,-0.1 0,-0.1 0,-3.9 -1.3,-7.8 -1.8,-11.6 -0.2,-1.5 -0.3,-3.1 -0.4,-4.7 1.4,-8.6 2.9,-17 6.5,-25.5 2.8,-6.5 6.4,-13.1 10.8,-19 5.8,-7.6 12.8,-14 21.5,-17.5 z"
     id="path58" />
  <path
     class="st6"
     d="m 564.52501,572.8 c -22.9,10.7 -47.9,17.7 -73.4,16.9 -19.2,-0.6 -37.7,-7 -55,-15.1 -35.1,-16.6 -67.6,-42.5 -107,-48.5 -10.6,-1.6 -20.5,-1.2 -30.2,0.8 7,5.2 9.1,16.8 6.4,25.5 -4.3,13.4 -15.7,24.5 -27.4,31.7 -6.6,4.1 -13.8,7.2 -21.2,9.7 -5,1.7 -13.7,5.9 -18.6,3 -1,-0.6 2,-3 2.4,-3.2 16.8,-9.5 37.3,-8.9 50.6,-25.2 7,-8.5 10.8,-22.8 1.3,-31.1 -4.1,-3.6 -9.4,-5.7 -13.9,-1.7 -1.9,3.8 -2.4,8.8 -5.2,12.4 0,0 0,0 0,0 -0.1,0.3 -0.8,1 -1.5,1.7 -2.7,3 -6.1,5.4 -9.7,7.1 -12.5,5.7 -29,3.4 -42.2,2.8 -33.7,-1.5 -67.7,-6.4 -100.7,-13.3 -24.799998,-5.2 -50.799998,-11.9 -70.999998,-27.9 -5.4,-4.3 -10.2,-9.2 -14.3,-14.7 -3.8,-5.2 -6.4,-13.8 -14,-13.5 -5,0.1 -8.8,4.6 -10.8999999,9.3 -0.7,1.6 -1.2,3.2 -1.5,4.7 -0.7,3.4 -0.7,7 -0.4,10.5 0.7,7.1 2.9999999,14 6.4999999,20.2 6.5,11.6 16.9,20.4 27.6,28 12.7,9 24.5,16.6 38.9,22.7 0.9,0.4 -1.3,2.8 -2.1,2.5 -11,-4.5 -22.7,-8.7 -33.6,-13.9 -1.7,28.2 -1.9,59.7 18.1,81.5 19.3,21 48.399998,25.7 75.599998,27.4 34.1,2.2 68.4,2.2 102.6,0.5 29.7,-1.4 63,-3.2 88.7,-19.8 2.6,-1.7 5.2,-3.6 7.7,-5.6 27.7,-22.8 27.4,-62.7 23,-95.2 -0.1,-0.7 1.9,-2.2 2,-1.6 1.6,10.6 2.9,21.2 3.8,31.8 0.7,7.3 1.7,13.4 1.1,20.3 0.7,0.3 1.4,0.6 2.1,1 0.3,-0.1 0.5,-0.1 0.5,0.2 10.1,4.6 20.2,8.6 31.2,10.8 10.8,2.2 21.7,1.2 32.4,3.1 0.8,0.1 -1.1,1.8 -1.4,1.9 -20.3,5.4 -45.7,-0.1 -64.3,-10.7 -0.9,4.2 -1.9,8.2 -3.2,12.2 -0.8,5.5 0.1,10.7 0.2,16.1 10.9,1.5 21.8,4 32.8,4.5 9.1,0.4 18.1,0.3 27.2,-1 3.6,-0.5 7.4,-1.9 11.1,-2.5 0.9,-1 1.8,-1.9 2.7,-2.8 1.4,-1.3 15.1,-10.7 17.6,-7.4 6.1,-1.8 12.6,-2.6 19.4,-2.5 11.2,0.1 22.3,1.5 33.6,1 2.8,-0.1 5.6,-0.3 8.4,-0.5 9.2,-2.7 18.9,-3.8 28.1,-6.6 9.7,-3 19.1,-6.7 28.1,-11.5 18.1,-9.6 35.5,-23.9 46.2,-41.7 0.7,-1.2 1.4,-2.4 2,-3.6 7.7,-14.3 8.6,-29.6 7,-45 -19.8,17.1 -39.8,33 -64.2,44.3 z"
     id="path70" />
  <path
     class="st7"
     d="m 622.82501,578.5 c -0.4,0.2 -0.9,0.4 -1.3,0.6 0,-1.7 -1,-2.5 -2.6,-2.8 2.8,-3.6 8.6,-10.2 7,-14.3 -0.4,-1.2 -2.5,0.6 -2.9,1 -4,4.3 -6.5,9.4 -10.3,13.9 -1.5,0.4 -2.9,0.9 -3.7,1.2 -5.2,2 -9.8,5 -13.9,8.7 0,0 -0.1,0.1 -0.1,0.1 -7.5,6.4 -14.3,14.9 -24.6,16.1 -6.2,0.7 -11.1,-0.7 -16.9,2.5 -2.9,1.6 -9.3,6.8 -11.4,11.5 -12.6,3.6 -25.5,6.1 -38.8,7.6 -6.5,-1.2 -14.9,-0.1 -20.6,-0.7 -11.1,-1.2 -21.7,-5 -32.8,-5.6 -7.6,-0.4 -14.9,1.4 -20.8,5.3 -20.6,-4 -37.2,-16.6 -53.4,-29.3 -1.3,-3.6 -2.5,-7.2 -3.5,-10.9 -0.1,-0.2 -0.3,-0.3 -0.6,-0.2 -1.4,-5.7 -2.9,-11.4 -4.7,-17 -2.2,-0.9 -4.4,-2.1 -6.5,-3.4 -0.9,0.8 -1.8,2 -1.9,2.5 0,0.1 0,0.1 0,0.2 -0.3,0.3 -0.5,0.6 -0.5,0.8 -0.7,3.2 -1.3,6.3 -2,9.5 -1.3,4.1 -2.5,8.2 -3.9,12.2 -0.3,0.3 -0.6,0.6 -0.7,0.8 -8.6,11.9 -15.8,24.1 -26.1,34.7 -2,1.2 -3.9,2.5 -5.8,3.6 -8.2,5.1 -16.5,9.8 -25.1,14.1 -4.1,-0.3 -8.2,-1.3 -12.3,-1.6 -12.4,-1 -23.8,3.1 -34.9,8 -11.4,5.1 -23.5,12.6 -36.6,11.1 -6.9,-0.8 -12.7,-4.4 -18.8,-7.4 -6.9,-3.5 -13.6,-5.3 -21.4,-5.8 -14.6,-1 -28.3,0.6 -41.9,-5 -16.2,-11.6 -30.299998,-26.2 -43.999998,-40.5 0,0 0,0 0,0 -1.6,-2.1 -3.3,-4.1 -5,-6.1 5.5,1.4 11.1,2.6 16.7,3.7 18.599998,3.6 38.199998,7 57.399998,7.1 4.1,0.2 8.1,0.4 12.1,0.5 14.2,0.6 29.7,2.2 43.7,-0.6 0.2,0 0.8,-0.5 1.2,-1 5.7,-0.6 11.4,-1.8 17,-3.3 8.3,-1.5 16.4,-3.5 24.2,-6.3 8.5,-1.4 16.9,-3.1 25.1,-5.9 12.7,-4.4 21.8,-11.4 31.2,-20.4 1.5,-2.8 2.8,-5.7 4,-8.6 3,-7.6 4.1,-16.3 -0.6,-23.5 -3,-4.6 -7.4,-6.9 -11.9,-8.9 -0.6,0.8 -1,1.6 -0.9,2.1 2.4,12.2 6.9,22.8 0.8,34.9 -0.7,1.4 -1.5,2.6 -2.3,3.8 0.1,-0.6 -0.1,-1 -1.2,-0.5 1.3,-1.3 2.6,-2.7 3.6,-4.3 0.3,-0.5 0.8,-1.5 -0.2,-1.4 -5.6,0.8 -11.6,6.6 -16.4,9.5 -0.1,-0.1 -0.3,-0.1 -0.6,0 -6.4,1.4 -12.2,5.9 -18,8.8 -7.7,3.8 -15.6,7.1 -23.8,9.6 -0.1,0 -0.2,0.1 -0.3,0.1 -6.9,1.8 -14,3.1 -21.3,3.9 -22.3,2.4 -44.8,1 -66.9,-1.7 -20,-2.5 -40.1,-5.7 -59.799998,-9.6 -9.2,-1.8 -18.3,-4.1 -26.9,-7.7 -8.5,-3.6 -15.7,-9.5 -24.2,-12.9 -0.8,-0.3 -3.2,2.1 -2.9,2.9 1.6,4 4.3,7.3 7.6,10.1 -0.4,-0.2 -0.9,-0.4 -1.3,-0.6 -1.7,28.2 -1.9,59.7 18.1,81.5 19.3,21 48.399998,25.7 75.599998,27.4 34.1,2.2 68.4,2.2 102.6,0.5 29.7,-1.4 63,-3.2 88.7,-19.8 2.6,-1.7 5.2,-3.6 7.7,-5.6 14,-11.5 20.8,-27.4 23.6,-44.4 0,0 -0.1,0 -0.1,0 0.7,-3.5 1.2,-7.2 1.5,-10.8 0.1,-0.7 0.2,-1.4 0.3,-2.1 0.5,-3.7 0.9,-7.5 1.2,-11.3 0.9,9.3 2.3,18.5 4,27.7 0.2,1 0.4,1.9 0.6,2.9 -0.2,-0.1 -0.5,-0.2 -0.7,-0.4 -0.9,4.2 -1.9,8.2 -3.2,12.2 -0.8,5.5 0.1,10.7 0.2,16.1 3.3,0.4 6.5,1 9.8,1.5 0.1,0.3 0.2,0.6 0.2,0.9 2.6,-0.3 5,0.2 7.5,1.2 0,-0.3 0,-0.5 0,-0.8 5.1,0.8 10.1,1.5 15.2,1.7 9.1,0.4 18.1,0.3 27.2,-1 3.6,-0.5 7.4,-1.9 11.1,-2.5 0.9,-1 1.8,-1.9 2.7,-2.8 1,-0.9 7.8,-5.7 12.7,-7.4 1.5,-0.1 3,-0.2 4.5,-0.3 0.1,0.1 0.3,0.2 0.4,0.3 0.7,-0.2 1.3,-0.3 2,-0.5 6.1,-0.5 12.2,-1.2 18.2,-2 11,0.2 21.8,1.4 32.9,1 2.8,-0.1 5.6,-0.3 8.4,-0.5 9.2,-2.7 18.9,-3.8 28.1,-6.6 1.4,-0.4 2.7,-0.9 4.1,-1.3 12.4,0.1 24.6,-7.9 34.4,-14.7 13.8,-9.7 28.3,-20.6 39.3,-33.4 0.3,-0.6 1.2,-2.8 -0.6,-1.9 z m -225.9,51.9 c -1.3,-1.6 -2.6,-3.2 -3.8,-4.8 3,2.2 6.2,4.1 9.6,5.8 -2,-0.3 -3.9,-0.6 -5.8,-1 z"
     id="path73" />
  <path
     class="st8"
     d="m 101.12501,525.3 c -1.599998,0.3 -3.299998,0.3 -4.899998,0 2.1,-1.9 3.7,-4.2 4.699998,-6.5 0.5,-1.1 0.2,-1.8 -1.099998,-1.5 -0.7,0.2 -1.4,0.7 -2,1.3 -0.5,0 -1.1,-0.1 -1.6,-0.1 1.3,-1.1 2.6,-2.6 1.9,-3.6 -0.3,-0.4 -0.7,-0.8 -1.1,-1 0.7,-0.7 1.7,-1.6 1.9,-2.6 0.1,-0.9 -0.6,-1 -1.3,-0.6 -0.1,0 -0.2,0.1 -0.2,0.1 1.6,-1.5 3.199998,-3.5 1.9,-3.8 0,0 -0.1,0 -0.1,0 0,-0.1 0,-0.1 0,-0.2 0,-1.6 -1.4,-1 -2.4,-0.4 -0.1,0 -0.1,0.1 -0.2,0.1 -7.2,-1.2 -13.7,-1.7 -20.5,-5.6 -6.5,-3.8 -11.9,-9.2 -16.5,-15.1 -0.6,-0.8 -3.5,2.1 -3.2,2.9 0.2,0.5 0.4,1.1 0.6,1.6 -0.3,0.4 -0.5,0.8 -0.5,1 0.1,0.8 0.3,1.6 0.4,2.5 -0.4,-0.5 -0.7,-1 -1.1,-1.5 -1,-1.3 -4.1,2.8 -4.1,3.7 -0.1,16.5 18.6,30.2 34.9,30.2 -1.3,0.9 -3.5,3.5 -2.4,3.7 2.4,0.2 4.8,-0.3 7,-1.4 1.8,1.8 4,2.5 6.5,1.7 1.5,-0.4 2.799998,-1.7 3.599998,-3 0.6,-0.5 1.3,-2.1 -0.2,-1.9 z"
     id="path75" />
  <path
     class="st8"
     d="m 61.325012,474.6 c -1.3,-2.6 -4.2,-4 -6.3,-6 -2.1,-2.1 -3.9,-4.5 -5.3,-7 -3,-5.5 -3.6,-11.4 -4.5,-17.5 -0.2,-1.4 -3.2,1.9 -3.4,2.5 -1.1,3.7 -1.2,7.3 -0.6,10.8 -0.8,0.6 -1.5,1.4 -1.7,1.8 -1.7,5.3 -2.4,13.1 -0.3,19.3 0.1,0.3 0.1,0.6 0.2,0.9 0.4,6 1.8,11.7 5.6,15.3 0.5,0.5 1.6,-0.2 2.4,-1.1 0.1,0 0.1,0.1 0.2,0.1 1,0.3 2.8,-1.9 2.8,-2.8 0,-0.4 -0.1,-0.8 -0.2,-1.2 0.9,0.4 2,0.6 3,0.6 1,-0.1 3.6,-2 3.3,-3.3 -0.4,-1.3 -1,-2.1 -1.8,-2.8 0.7,-0.3 1.4,-1.1 1.5,-1.8 0.1,-0.8 -0.2,-1.1 -0.6,-1.5 0.5,-0.4 0.8,-0.9 0.9,-1.4 0.1,-0.4 0.1,-0.7 0.1,-0.9 0,0 0,-0.1 0.1,-0.1 0.3,0 0.6,0.1 0.9,0.1 1.3,0.2 4.4,-2.5 3.7,-4 z"
     id="path77" />
  <path
     class="st8"
     d="m 142.02501,537.5 c -2.1,-2.7 -6.3,-3.6 -9.1,-5.3 -3.1,-1.8 -5.9,-4.2 -8.1,-6.9 -0.2,-0.2 -0.6,-0.1 -1,0.2 -1.8,-2.2 -3.4,-4.5 -4.6,-7 -2.6,-5 -3.7,-10.4 -4.3,-15.9 -1.3,0.9 -2.6,1.4 -3.5,1.4 -0.4,2.9 -0.4,5.8 -0.1,8.7 -0.8,0.5 -1.9,1.8 -1.9,2.3 0.5,6.8 3.4,13.1 8.3,17.9 4,3.9 10.2,7.8 16.1,7.2 1.6,0.7 3.2,1.1 5,1 0.9,-0.1 4.2,-2.4 3.2,-3.6 z"
     id="path79" />
  <path
     class="st8"
     d="m 183.92501,540.6 c -0.2,-0.1 -0.5,-0.1 -0.7,-0.1 0,-0.2 0,-0.4 0,-0.7 -0.1,-0.8 -0.3,-1.5 -0.4,-2.3 -0.3,-1.6 -0.6,-3 -1.2,-4.5 -0.3,-0.8 -1.3,-0.3 -2.3,0.6 0,-0.1 0.1,-0.3 0.1,-0.4 0.3,-1.5 -1.2,-1 -2.1,-0.6 -1.5,0.8 -2.9,2.3 -3.7,3.9 0,0 0,0.1 0,0.1 0,0 -0.1,0 -0.1,0 -0.7,0.3 -1.3,0.5 -2,0.7 -0.4,0.1 -0.9,0.3 -1.4,0.4 -2.4,-0.1 -4.8,-0.5 -7.1,-1.1 -4.8,-3.2 -9.3,-7.9 -12.4,-12.6 -0.5,-0.7 -2.5,1.6 -2.4,2.2 0.4,2.9 1.1,5.5 2.3,7.9 -0.1,-0.2 -0.3,-0.4 -0.3,-0.6 -0.5,-1.2 -3.4,1.7 -3.3,2.7 0.7,6.7 7.7,11.9 14,8 5.8,3 12.4,4.6 18.2,1.3 0.4,0.1 0.9,0.1 1.3,0 1.2,-0.1 2.6,-1.7 3.2,-2.6 0.2,-0.4 1.3,-2 0.3,-2.3 z"
     id="path81" />
  <path
     class="st8"
     d="m 224.42501,542.8 c -1.4,-0.4 -2.9,-0.2 -4.3,0.1 0,-0.1 0,-0.2 0,-0.4 -0.1,-0.4 -0.3,-0.8 -0.4,-1.1 0,-0.3 -0.2,-0.5 -0.5,-0.5 -0.8,-0.1 -1.7,-0.2 -2.5,-0.3 0.2,-0.2 0.3,-0.4 0.5,-0.6 0,0 0,0 0,0 0.8,-0.6 1.7,-1.2 2.5,-1.9 0.8,-0.6 2.8,-2.4 2.4,-3.7 -0.4,-1.2 -2.3,0.3 -2.8,0.6 -1.6,1.2 -3.1,2.6 -4.6,4 -0.5,0.2 -1,0.4 -1.5,0.6 -0.3,0.1 -0.6,0.1 -1,0.2 -4.1,-0.8 -8.2,-1.9 -12.1,-3.4 -2.2,1.8 -4.8,3.1 -6.6,2.6 0.6,1.6 1.3,3 2.9,4.3 1.7,1.4 3.9,2.3 6.1,2.6 6,3.3 13.1,4.3 19.3,0.9 0.6,-0.3 4.3,-3.4 2.6,-4 z"
     id="path83" />
  <path
     class="st8"
     d="m 270.42501,540 c -0.5,-0.8 -2,0.4 -2.5,0.7 -0.3,0.3 -0.6,0.5 -1,0.7 2.1,-2.7 3.2,-5.3 0.1,-7.9 -0.3,-0.2 -0.7,-0.3 -1.1,-0.2 0,-0.3 -0.1,-0.7 -0.1,-1 0.5,-1.7 0.8,-3.5 0.6,-5.4 -0.1,-0.9 -0.8,-0.8 -1.7,-0.4 -4.1,-15.6 -15.6,-31.1 -28.8,-37.2 -0.7,-0.3 -2.9,1.6 -2.3,2.3 6,7.7 13,14.8 17.9,23.3 3.3,5.7 4.9,11.6 6.6,17.6 -5.6,3.9 -15.4,1.2 -20.5,-1.7 -0.7,-0.4 -1.9,0.2 -2.9,1.1 -0.4,0.1 -1,0.5 -1.1,0.6 -0.6,0.5 -1.4,1.2 -1.4,2 0,1 -0.2,2.1 0.5,2.9 0.2,0.2 0.6,0 1,-0.4 0.2,0.2 0.4,0.4 0.6,0.6 -1.8,1.7 -3.3,4 -2.5,5.1 4.9,7.1 17.9,8.9 25.7,6.3 1.1,-0.4 2.2,-0.9 3.3,-1.5 3.1,-0.7 5.7,-2.4 8.1,-4.7 0.5,-0.4 2,-2 1.5,-2.8 z"
     id="path85" />
  <path
     class="st6"
     d="m 38.425012,560.6 c 0.9,0.7 1.9,1.4 2.8,2 7.1,5 13.8,9.6 20.9,13.7 -6.9,-6.6 -14.5,-12.2 -23.7,-15.7 z"
     id="path87" />
  <path
     class="st7"
     d="m 156.42501,627.4 c -1.8,-2.3 -6,-2.7 -8.7,-3.4 -3.4,-0.9 -6.8,-1.5 -10.1,-2.5 -3.2,-1 -6,-3.4 -9.4,-3.4 -3.3,0 -7.6,4.5 -8.2,7.5 -1.9,8.3 7,10 13.5,10.3 7.5,0.4 14.7,1.1 21.9,2.7 1,0.2 2.7,-1.7 2.8,-2.5 0.2,-2.6 -0.2,-6.6 -1.8,-8.7 z"
     id="path89" />
  <path
     class="st7"
     d="m 236.52501,641.7 c -2.2,-3.4 -12.7,-1.2 -16.2,-1.3 -8,-0.4 -15,-4.2 -23.1,-2.2 -2.2,0.5 -5.1,3.3 -5.2,5.7 -0.4,9.6 12.2,11.4 19.7,11.3 8.8,0 17,-4.2 23.2,-10.2 0.7,-0.6 2.3,-2.3 1.6,-3.3 z"
     id="path91" />
  <path
     class="st6"
     d="m 185.92501,659.4 c -0.6,-1.6 -1.2,-3.4 -2.5,-4.4 -0.9,-0.7 -1.9,-1.1 -2.8,-1.9 -0.9,-0.7 -1.4,-1.5 -2.2,-2.3 -3.3,-3.2 -8.8,-1.9 -12.4,-0.3 -2.2,0.9 -7.5,5.3 -6.1,8.1 1.5,2.9 6.4,2.7 9.2,2.4 5.2,-0.4 9.9,0.5 15,0.1 0.6,0.1 2.1,-1 1.8,-1.7 z"
     id="path93" />
  <path
     class="st6"
     d="m 339.62501,620.5 c -5.4,4.9 -10.7,10.6 -17.7,13.3 -0.4,0.2 -2.1,2.2 -1.1,2 1.1,-0.2 2.1,0.1 3.2,-0.1 1.1,-0.2 2.2,-0.7 3.2,-1.2 2.2,-1.1 4.2,-2.5 6,-4.1 2.7,-2.3 7.3,-6.4 7.5,-10.2 0.1,-0.6 -1.1,0.2 -1.1,0.3 z"
     id="path95" />
  <path
     class="st6"
     d="m 459.42501,624.6 c -0.3,-1.3 -1.1,-2 -2.2,-2.4 -1.3,-0.5 -2.4,-0.6 -3.8,-0.7 -1.5,0 -2.7,0.3 -3.9,0.9 h -0.3 c -1.2,0 -6.2,4 -4.7,5.1 -0.4,-0.3 0.6,1.9 0.7,2 0.4,0.4 0.9,0.7 1.3,1 1.1,0.7 2.3,1.2 3.6,1.3 3.1,0.1 6.6,-1.5 8.4,-4 0.7,-1 1.2,-2.1 0.9,-3.2 z"
     id="path97" />
  <path
     class="st6"
     d="m 564.92501,606.3 c -3,-0.3 -6.6,1.1 -9.3,2.2 -1.5,0.6 -2.9,2.1 -3.8,3.4 -0.4,0.6 -1.4,2.3 -0.2,2.5 2.7,0.5 6.2,-0.3 8.7,-1.3 1.7,-0.6 3.4,-2.5 4.3,-3.9 0.5,-0.5 1.8,-2.8 0.3,-2.9 z"
     id="path99" />
  <path
     class="st9"
     d="m 240.62501,209.6 c -3.7,-8.4 -9.4,-12.8 -16.1,-14.4 -8.5,-4.6 -18.7,-3.2 -27,1.7 -0.3,0.2 -1.9,1.8 -2.6,3.1 -3.8,2.4 -7.5,5.3 -10.9,8.4 -6.9,5.1 -12.9,11 -17,16.5 0.3,-0.6 0.5,-1.3 0.8,-1.9 0.4,-0.9 0.2,-1.1 -0.3,-1 0.9,-1.8 1.7,-3.6 2.7,-5.4 2.8,-2.4 5.9,-4.8 9.2,-7.1 0.4,-0.3 3.8,-3.9 2.2,-3.9 -0.2,0 -0.5,0 -0.7,0 2,-1.4 4,-2.8 5.9,-4.4 0.6,-0.4 4.2,-4.1 2.2,-4.7 -5.4,-1.5 -13,4.8 -17.2,7.8 -4.1,2.9 -8,6.3 -11.5,10 -0.9,1 -1.8,2.1 -2.7,3.2 -4,5.3 -7,11.3 -9.3,17.5 -2.7,4.6 -5,9.4 -6.9,14.5 -3.4,9.3 -5.1,19.2 -4.9,29.1 0.2,8.3 1,21.8 8.8,26.7 2.4,1.5 8.1,-3 10.6,-6.9 1.6,2.5 3.5,3.2 5.6,5.5 3.6,3.8 4.9,8.8 9.1,12.3 1.2,1 4.7,-2.8 4.1,-4.1 -1.8,-3.7 -4.9,-7 -6.3,-10.9 -1.4,-3.8 -1.4,-8.9 -2.5,-12.9 -0.7,-2.6 -1.4,-5.1 -2.1,-7.6 0.9,-6.3 -0.2,-12.2 0.1,-18.6 0.4,-9.5 2.9,-18.9 7.1,-27.4 5.5,-11.2 13.6,-19.7 23,-27.2 2.3,-0.9 4.6,-1.6 7.1,-2.1 6.3,-1.4 12,-1.4 16.8,0.1 1.5,1 2.9,2.3 4.2,3.8 7.3,8.6 8,21.2 7.8,32 -0.5,27 -10.7,51.5 -26,73.4 -5.5,7.9 5.5,2.6 8.1,-0.7 0.9,-1.1 1.7,-2.2 2.5,-3.3 -0.1,1.2 2,0.2 2.8,-0.4 1.4,-1.1 2.9,-2.5 4.3,-4 28.7,-20.1 32,-67.4 19,-96.7 z m -91.4,67.5 c 0.6,-3.2 0.9,-6.4 1.1,-9.6 0,0 0,0 0.1,0.1 0,1.2 -0.1,2.5 0,3.7 0.1,5.2 0.7,10.9 1.9,16.3 -1.6,-3.2 -2.6,-6.8 -3.1,-10.5 z"
     id="path101" />
  <path
     class="st10"
     d="m 455.22501,294.1 c -1.1,-2 -2.3,-4 -3.4,-5.9 -1.1,-1.3 -2.2,-2.6 -3.2,-3.9 -2.4,-5.5 -6.1,-10.8 -9.1,-15.5 -6.7,-10.3 -14.8,-19.8 -23.4,-28.5 -7.6,-7.7 -15.8,-14.6 -24.2,-21.5 -5.5,-3.6 -11,-7.2 -16.9,-10.3 -5.4,-2.7 -10.9,-4.9 -16.5,-7 6.2,8 18.5,13.3 26.1,19.6 8.7,7.2 16.4,16 23.5,24.7 7.2,8.7 13.7,17.9 19.5,27.6 3.1,5.1 6,10.2 8.6,15.5 1.8,3.8 3.1,8.5 5.8,11.8 -0.1,0.3 -0.2,0.7 -0.2,1.1 -0.1,0.8 -0.1,2.1 0.7,2.5 0.1,0 0.2,0.1 0.2,0.1 0,0.1 0,0.2 0.1,0.3 0.3,0.8 1.8,-0.2 2.7,-1.3 1.8,0.4 4.6,-2.4 5.5,-4.3 1.4,2 3.2,3.5 5.7,1.2 0.4,-0.4 0.8,-0.9 1.1,-1.4 -0.9,-1.7 -1.7,-3.2 -2.6,-4.8 z"
     id="path103" />
  <path
     class="st10"
     d="m 471.62501,328.4 c -3.4,-8.9 -7.5,-17.5 -11.9,-25.9 -0.7,0.9 -1,1.7 -0.8,2.2 0.1,0.3 0.2,0.6 0.4,0.8 -0.6,0.6 -1.1,1.4 -1,1.7 0,0.2 0,0.4 0,0.6 -1.7,2.6 -2.9,5.5 -4.1,8.4 -2.9,5 -5.4,10.2 -8.2,15.3 -0.8,1.5 -0.6,2.7 1.2,2.5 0.7,-0.1 1.4,-0.4 2.2,-0.9 4.5,2.3 9.3,4.3 14.4,3.5 0.5,-0.1 1.4,-0.6 2.4,-1.3 0.1,0.2 0.2,0.4 0.2,0.6 0.4,1 1.6,0.7 3,-0.1 1.6,2.3 3.6,4.1 6.1,4.5 0,0 0.1,0 0.1,0 -1.1,-3.9 -2.5,-7.9 -4,-11.9 z"
     id="path105" />
  <path
     class="st10"
     d="m 494.42501,383.6 c -0.5,-6.2 -1.2,-12.2 -2.4,-18.1 -0.7,0.5 -1.4,1.2 -2,1.9 -3.1,-0.4 -6.4,0.1 -9.4,0.4 -0.7,0.1 -2,1.3 -2.9,2.5 -0.8,0.2 -1.6,0.5 -2.3,0.9 -0.7,0.4 -1.3,0.9 -1.8,1.6 -0.1,0.2 -0.7,1.2 -0.1,1.2 1.1,0 2.4,0.1 3.7,0 0.5,0.3 1,0.6 1.6,0.9 1.3,0.7 2.8,1.4 4.2,1.9 0.2,0.1 0.5,0.1 0.7,0.1 0.1,1.5 0.3,2.8 0.6,4.3 0.6,2.3 0.9,5.1 3.7,5.3 0.7,0.1 1.5,-0.4 2.2,-1 0.6,2.2 1.6,4.1 3.7,4.7 0.3,0.1 0.5,0 0.8,-0.1 0,-2.2 -0.1,-4.4 -0.3,-6.5 z"
     id="path107" />
  <path
     class="st10"
     d="m 251.52501,239.3 c -0.1,-1.5 -5.5,2.6 -5.6,4.6 -0.5,15.8 -2.8,33.9 -8.9,50 -9.1,6.3 -15.8,16 -25.9,21.4 -13.2,7.2 -30.9,9 -43.8,0 -7.6,-5.2 -12.4,-15.1 -22.9,-10.6 -2.7,1.2 -6.4,3.7 -8.8,6.7 -0.1,-0.1 -0.3,-0.3 -0.4,-0.4 -1.9,-1.6 -6.4,4 -6.3,5.7 0.8,16.7 18.1,27.9 33,31.3 16.7,3.9 33.9,-1.5 47.8,-10.9 33.1,-22.2 43.3,-59.8 41.8,-97.8 z"
     id="path109" />
  <path
     class="st10"
     d="m 317.02501,472.1 c -10.5,-4.9 -20.1,-4 -30.3,0.5 -0.5,0.2 -3,2.9 -1.5,2.7 10,-1.4 21.2,0.2 29.6,6.1 2.8,2 5.4,4.3 7.6,6.9 2.7,3.2 4.1,7.6 7.4,10.1 1.6,1.2 4.7,-3 4.8,-4.3 0.2,-9.7 -9.6,-18.2 -17.6,-22 z"
     id="path111" />
  <path
     class="st10"
     d="m 112.32501,457.3 c -0.2,0 -0.3,0.1 -0.5,0.1 -2.7,0.9 -5.3,3.9 -6.7,6.1 -5.1,8 -12.599998,16.9 -15.099998,26.1 -0.6,2.4 2.2,0.8 3.9,-0.3 0.2,2.8 1,5.5 2.8,7.7 0.8,1 1.8,2.6 3,2.9 0.1,0 0.1,0 0.2,0 0.499998,1.1 1.299998,2 2.299998,2.7 1,0.6 2.4,0 3.7,-1 0,0 0.1,0.1 0.1,0.1 0.7,0.5 1.8,-0.4 2.6,-1.4 -5.4,-12.5 -1.7,-30 3.7,-43 z"
     id="path113" />
  <path
     class="st10"
     d="m 148.32501,502.3 c -0.7,-5 -0.6,-10 0.1,-14.9 0.7,-5 -8.5,3.6 -9.2,5.3 -1.9,4.3 -3.2,8.6 -3.4,13.3 -0.2,3.9 -0.1,10.3 3.7,12.4 0.2,0.1 0.4,0.1 0.6,0.1 0,0 0,0 0.1,0 0.2,0.1 0.3,0 0.5,0 0.3,0.6 0.5,1.2 0.8,1.8 0.2,0.1 0.4,0.2 0.6,0.3 0.7,0 1.5,0 2.2,0 2.2,0 4.4,-2.7 5,-4.6 1.7,-4.9 -0.3,-8.6 -1,-13.7 z"
     id="path115" />
  <path
     class="st10"
     d="m 180.52501,501.9 c -1.8,1.5 -3.4,3.9 -3.7,5.1 0,0.1 0,0.2 -0.1,0.4 -1.7,2.4 -2.9,5.1 -3.6,7.9 -0.8,3.2 -1.7,11.4 3.2,11.2 0,0 0.1,0 0.1,0 0.3,1.1 0.6,2.3 1,3.4 0.3,1 1.6,0.6 3,-0.4 1.5,3.2 3.9,5.8 7.3,5.5 0.3,0 0.7,-0.1 1,-0.3 -6.9,-8.7 -9,-21.2 -8.2,-32.8 z"
     id="path117" />
  <path
     class="st10"
     d="m 230.82501,498 c 0.1,-7.7 -1.2,-15.2 -4,-21.6 -0.6,-1.4 -3.7,1.9 -3.8,2.8 -2.1,18.8 1.5,36 -7.3,53.8 -1.9,3.8 3.2,0.6 5.4,-1.4 -0.1,0.7 -0.3,1.5 -0.4,2.2 -0.7,3.3 6.9,-2.5 7.5,-4.9 2.5,-10.5 3.5,-20.8 2.6,-30.9 z"
     id="path119" />
  <path
     class="st10"
     d="m 320.22501,526.7 c 3.8,0.4 7.4,1 11,1.6 4.9,0.6 9.7,1.8 14.5,3.4 9.9,1.1 19.7,4.6 29,9 -5.2,-3.5 -10.3,-7 -15.4,-10.6 -8.4,-3.8 -17,-7.1 -25.7,-9.5 -16.3,-4.5 -30.4,1.3 -46.5,1.6 -7.3,0.1 -12.1,-3.5 -16,-8.4 -1.9,-4 -3.8,-8.1 -7,-11.2 -3.1,-5.5 -6.4,-10.9 -11.1,-14.2 -0.7,-0.5 -2.5,1.5 -2.4,2.2 1.6,7.7 6.3,14 10.2,20.7 1.2,2 2.3,4 3.5,6 0.6,1.5 1.3,3.1 2,4.7 1.6,3.9 2.6,9.5 6.7,11.2 0.4,0.1 0.8,0 1.3,-0.3 0.3,0.1 0.6,0.3 1,0.4 2.2,0.6 4.6,0.1 6.5,-1.1 1.1,-0.7 2.9,-2 3.9,-3.5 2,-0.1 4.1,-0.4 6,-0.6 9.9,-1.4 18.7,-2.4 28.5,-1.4 z"
     id="path121" />
  <path
     class="st10"
     d="m 300.42501,117.5 c -0.2,-0.2 -0.5,-0.1 -0.8,0.2 0,-0.1 0,-0.1 -0.1,-0.2 0,0 0,0 0,0 -0.1,-0.2 -0.1,-0.4 -0.2,-0.5 0,-0.1 -0.3,0.2 -0.3,0.3 0,0.1 0,0.1 0,0.2 0,0 0,0 0,0 -0.2,-0.1 -0.6,0.1 -1,0.4 -0.3,-1 -0.6,-1.9 -1,-2.8 0.6,-1.8 0,-2.2 -1.1,-1.9 0,0 0,0 0,0 -0.7,-1 -3.4,1 -3.8,1.4 -0.2,0.2 -0.5,0.4 -0.7,0.6 -0.7,-1.2 -1.7,-2 -3.1,-2.2 -0.8,-0.1 -1.8,1.1 -1.9,1.8 -0.5,1.7 -0.4,3.2 -0.3,4.8 -0.7,2.7 -1.2,5.6 -1.1,8.4 -4.1,7.6 -9.5,14.4 -16.5,19.7 -0.2,0 -0.4,0.1 -0.8,0.3 -8.6,5 -17.2,7.9 -26.2,10 -3.1,0.2 -6.4,0.3 -9.7,0.2 0,-0.7 -0.2,-1 -0.7,-1.1 0.1,-0.2 0.3,-0.4 0.4,-0.6 0.7,-1.1 0.7,-1.4 0.2,-2.3 -0.8,-1.4 -2.8,-1 -5.2,0.5 0.2,-2.3 -2.9,-0.6 -5.4,1.4 -0.3,0 -0.5,-0.1 -0.8,-0.1 0.8,-1.2 0.8,-1.8 -0.4,-0.1 -1.6,-0.2 -3.2,-0.3 -4.8,-0.4 -1.2,0 -6.1,3.8 -4.6,5 1.2,1 2.6,1.8 4,2.6 -0.2,0 -0.5,0 -0.7,0.1 -1.1,0.1 -6.5,4 -4.8,5.3 0.5,0.4 1,0.7 1.5,1.1 -0.3,0.4 -0.6,0.7 -0.8,0.9 -3.8,4.9 -6.9,10.1 -8.6,15.9 -1,1.5 -2,3.1 -2.9,4.6 -1.2,2.1 0.2,2.2 1.6,1.3 -0.1,0.9 -0.2,1.7 -0.3,2.6 0,0.9 0.9,0.6 2.2,-0.2 0.9,0.4 3.5,-1.6 3.9,-2 7.9,-8.3 15.9,-14.7 26.2,-19 9.7,-0.9 19.9,-4.4 28.1,-8.4 3.3,-1.1 6.6,-2.5 9.7,-4.4 0.5,-0.3 1.9,-1.5 3.1,-2.8 1.8,-1.1 3.5,-2.4 5.1,-3.8 0.2,-0.1 1.3,-1.4 1.8,-2.3 3.2,-2.8 6.1,-5.7 8.9,-8.9 3.4,-4 8.8,-10 10.8,-16 0,0 0,0 0,0 0,0 0,0 0,0 0,0 0,0 0,0 0,0 0,0 0,0 0.2,-0.4 0.5,-0.7 0.7,-1.1 0.5,-1 0.8,-2.2 1,-3.3 0.4,-1.8 0.6,-3.7 -0.6,-5.2 z"
     id="path123" />
  <path
     class="st4"
     d="m 673.62501,432 c -0.3,-0.6 -0.6,-1.2 -0.9,-1.7 -0.4,-0.3 -0.9,-0.4 -1.3,-0.2 -9.7,0.9 -19.7,1.3 -29.3,3.1 -1.5,-0.4 -2.9,-1.1 -4.2,-1.8 1.5,-9.3 0.8,-18.7 -1.7,-27.7 2,-4.2 4.2,-8.3 7,-12.2 0.7,-1 2.3,-4.9 -0.6,-4 -4.4,1.4 -9.2,0.8 -13.4,-1.1 -0.2,-0.4 -0.4,-0.8 -0.7,-1.3 -5.2,-9.1 -15.2,-18.1 -2.1,-25.3 5.5,-3 10.2,-5 14.7,-9.5 0.9,-0.9 5.4,-5.7 3.4,-7.2 -8.5,-6.7 -17.3,-9.3 -27.5,-8.8 1.5,-1.5 3,-2.9 4.5,-4.4 0.4,-0.3 1.4,-1.1 2.3,-2.1 0.9,-0.4 1.7,-0.9 2.5,-1.5 0.6,-0.4 3.7,-3 2.7,-4 -1.4,-1.3 -3.9,-0.8 -6.2,0 -2.2,-0.7 -4.3,-1.2 -6.5,-1.4 2.3,-1.2 4.6,-2.4 6.9,-3.7 1.5,-0.8 9.3,-6.8 6.8,-9.1 -7.3,-6.6 -14.7,-6.9 -23.6,-5.5 2.9,-7.2 10.2,-18.8 1.2,-23.3 -5.8,-2.9 -9.7,3.6 -15.3,-1.5 -5.5,-5.1 -8.3,-11.3 -14.6,-15.9 -3,-2.2 -11.7,6.6 -10.7,9.8 1.6,5 4.2,12.9 8.3,18.3 1.8,12.8 6.6,25.5 10.3,37.9 3.9,13.1 7.6,26.3 11.3,39.4 7.3,26.2 14.5,52.5 21.6,78.7 0.6,2.2 5.1,-0.4 8.2,-3.6 0,0.2 0,0.3 0.1,0.5 0.2,2 2.7,0.6 5.2,-1.6 7.6,2.9 18.1,2 25.3,-1.6 4.6,-0.3 8.8,-0.7 13.1,-3.2 1,-0.7 4,-2.9 3.2,-4.5 z"
     id="path127" />
  <path
     class="st4"
     d="m 610.22501,260.2 c -2,-1.1 -4.5,-0.5 -6.7,-0.2 -3.2,0.5 -6.3,1.4 -9.3,2.6 -0.6,0.2 -4.3,3.7 -2.6,4 5.1,1 11.8,-1.1 16.3,-3.4 0.4,-0.2 3.3,-2.5 2.3,-3 z"
     id="path129" />
  <path
     class="st4"
     d="m 655.82501,406.7 c -4.4,1.6 -8.5,3.6 -12.6,5.9 -1.3,0.7 -2.6,1.8 -3.3,3.2 -0.3,0.6 -0.9,2.2 0.5,1.8 4.1,-1.3 8.2,-2.9 12,-4.9 1.6,-0.8 3.2,-2.3 4,-3.9 0.4,-0.6 1.1,-2.7 -0.6,-2.1 z"
     id="path131" />
  <path
     class="st1"
     d="m 633.62501,342.9 c -4.9,0.5 -9.5,1.8 -14.3,2.4 -0.6,0.1 -3.1,2.2 -2.3,2.8 2.9,2.1 5,3.5 8.7,3.3 4,-0.2 7.7,-1.7 10.4,-4.8 0.6,-0.7 1.2,-1.4 1.1,-2.3 -0.2,-2.1 -2.1,-1.6 -3.6,-1.4 z"
     id="path133" />
  <path
     class="st1"
     d="m 603.42501,284.3 c -5.2,2.4 -9.3,5.8 -14.1,8.8 -0.4,0.2 -1.7,1.9 -0.5,1.5 1.8,-0.7 3.9,-0.9 5.8,-1.6 2.1,-0.8 4.2,-1.9 6.1,-3 1.6,-0.9 3.4,-2.4 4.2,-4.2 0.6,-1.5 0,-2.2 -1.5,-1.5 z"
     id="path135" />
  <path
     class="st1"
     d="m 629.72501,413.2 c -2.8,1 -5.3,2.7 -7.9,4 -0.8,0.4 -1.7,1.2 -2.1,2 -0.2,0.5 -0.5,1.3 0.3,1.1 1.9,-0.3 3.7,-0.1 5.6,-0.7 1.9,-0.6 3.5,-2.2 4.6,-3.8 0.3,-0.6 1.4,-3.3 -0.5,-2.6 z"
     id="path137" />
  <path
     class="st11"
     d="m 631.32501,396.3 c -0.1,-0.2 -0.3,-0.3 -0.4,-0.5 -0.4,-0.3 -0.8,-0.3 -1.3,-0.2 -5.3,1.1 -10,3.5 -14.5,6.3 -0.9,-2.7 -1.7,-5.3 -2.6,-7.9 -1.9,-6 -3.8,-12 -5.7,-18 5,-1.7 9.7,-4.3 13.5,-8 0.4,-0.4 1.9,-2 0.9,-2.5 -2.6,-1.1 -6.5,1.6 -8.8,2.6 -2.4,1 -4.8,2.2 -7.1,3.3 -2.5,-7.8 -4.9,-15.5 -7,-23.4 -1.5,-5.3 -2.9,-10.7 -4.3,-16 0.7,-0.2 1.3,-0.4 2,-0.6 3.7,-1 6.9,-2.2 9.9,-4.6 0.9,-0.7 2.8,-2.6 2.2,-3.9 -0.1,-0.2 -0.2,-0.4 -0.3,-0.6 -0.3,-0.2 -0.7,-0.3 -1.1,-0.1 -4.8,0.6 -9.8,2 -14.3,4 -2.2,-8.3 -4.3,-16.6 -6.3,-24.9 -0.7,-2.9 -1.4,-5.8 -2.1,-8.7 4.5,-1.9 9,-3.7 13,-6.6 0.6,-0.4 3.9,-3.2 2.8,-4.2 -2.8,-2.4 -9.1,1.1 -11.8,2.3 -1.8,0.9 -3.6,1.8 -5.4,2.8 -0.6,-2.4 -1.1,-4.7 -1.7,-7.1 -1,-4 -1.7,-8.7 -3.1,-12.9 6.9,-2.1 13.7,-4.6 20.4,-6.9 8.6,-3 17.2,-5.5 25,-10 0.5,-0.3 3.4,-3.6 2.1,-3.6 -8.8,0 -18.3,5.2 -26.5,8.2 -7.6,2.8 -15.3,5.4 -22.7,8.6 -0.6,-1.2 -1.4,-2.4 -2.3,-3.4 -0.8,-0.9 -3.2,2 -3.3,2.7 -0.1,1.1 -0.2,2.2 -0.3,3.3 -1.1,0.9 -3.8,4.3 -2,3.9 0.6,-0.1 1.3,-0.3 1.9,-0.5 0.1,7.7 1.8,15.8 3.7,23.6 -0.2,0.1 -0.3,0.2 -0.5,0.4 -1,0.8 -5.2,6.4 -1.2,4.8 0.9,-0.4 1.8,-0.8 2.7,-1.2 1,3.9 2,7.7 2.9,11.3 3.8,16.4 8,32.8 12.4,49 4.2,15.7 8.1,31.5 12.8,47.1 2.2,7.1 4.1,14.6 6.8,21.5 2.6,6.8 5.5,15.4 9.6,21.5 1.2,1.8 6.2,-4 6.1,-5.5 -1.2,-11.7 -5.1,-23.5 -8.9,-35 4.1,-1.2 8.1,-2.6 11.7,-5.2 1,-0.7 4.3,-3.8 3.1,-5.2 z"
     id="path139" />
  <path
     class="st2"
     d="m 380.62501,400.1 c -1.1,-0.1 -3.3,2 -3.1,3.1 1.7,9.4 9.9,17.2 13.8,25.9 2.1,4.8 3.8,9.7 4.7,14.9 0.8,4.3 0.5,8.4 2.5,12.3 1.3,2.4 7.4,-5.2 7.7,-6.4 4.1,-15.5 -7.5,-47.8 -25.6,-49.8 z"
     id="path141" />
  <path
     class="st12"
     d="m 407.02501,446.9 c -2,-8.4 -4.8,-16.7 -8.3,-24.6 -3.7,-8.2 -8.4,-20.7 -16.6,-24.9 -1.8,-0.9 -5.8,3.2 -5.4,4.9 1.5,8 7.3,14.8 10.8,22.2 4.5,9.5 8,19.6 10.4,29.9 2,8.8 3.2,17.9 3.6,26.9 0.2,6.2 -3.1,19.3 1,23.9 1.2,1.3 4.4,-2.7 4.8,-3.6 8,-15.3 3.6,-38.5 -0.3,-54.7 z"
     id="path143" />
  <path
     class="st12"
     d="m 458.92501,302 c -3.6,1.9 -6.1,5.1 -8.3,8.4 -0.8,0.6 -1.5,1.2 -1.7,1.5 -12,16.4 -21.8,34.8 -30.8,52.9 -4.4,8.9 -8.5,17.9 -12.1,27.1 -2.7,7 -6.7,15.1 -6.1,22.7 0.1,1.3 2.9,-1.7 3.1,-2 8.8,-16.9 14.2,-35.6 22.8,-52.7 3.9,-7.8 8.2,-15.3 12.5,-22.8 -0.2,2 3.1,-1.3 3.4,-1.7 1.6,-2.1 3,-4.3 4.3,-6.6 0.8,-1.3 2.5,-3.8 2,-5.4 -0.1,-0.5 -0.8,0 -1.2,0.4 1,-2 2.1,-4 3.3,-6 1.4,-2.1 2.8,-4.2 4.2,-6.3 1.9,-2.8 5.2,-5.6 5.8,-9.1 -0.2,-0.7 -0.7,-0.7 -1.2,-0.4 z"
     id="path145" />
  <path
     class="st4"
     d="m 442.02501,103.8 c -2.7,2 -4.8,2.2 -5.8,1.3 -0.4,0.6 -0.7,1.3 -1.1,1.9 -0.7,1.2 -6.1,5.6 -4.7,2.3 0.2,-0.5 0.5,-1 0.7,-1.6 -0.3,-0.1 -0.4,-0.4 -0.2,-1.1 3,-10.8 10.2,-19.7 17.4,-28 4.3,-4.9 8.6,-9.9 12.9,-14.9 -1.3,0.7 -2.6,1.4 -3.9,2.1 -16.9,9.6 -32.5,22.9 -50.6,30.2 -1.5,0.6 -2.4,0.6 -2.9,0.3 -1.9,1.9 -6.5,5.3 -5.7,2.8 0.1,-0.3 0.2,-0.7 0.3,-1 -0.2,0 -0.4,-0.1 -0.3,-0.3 1.5,-18.1 12,-33.9 22.1,-48.4 6,-8.6 12.5,-18.3 20.1,-26.5 -2.3,0.7 -4.5,1.4 -6.8,2.2 -6.9,4.1 -13.8,8.2 -20.3,13 -14.8,10.8 -26.9,23.7 -36.7,39.2 -0.6,0.9 -2.3,2.3 -4.1,3.6 -0.3,2.9 -0.8,5.8 -1.3,8.8 -0.2,0.8 -4.3,5.7 -5.1,4.2 -1.8,-3.7 -2.5,-8.1 -2.6,-12.8 -1.3,-11.6 3.2,-27.5 5.6,-36.9 2.2,-8.4 4.9,-17.1 8.7,-25.2 -2.6,2.2 -5.1,4.5 -7.6,6.8 -1.3,1.2 -2.5,2.4 -3.7,3.6 0,0 -0.1,0.1 -0.1,0.1 -12,14.9 -18.5,30.8 -26.5,47.8 -0.4,0.8 -3.3,3.9 -6.1,5.9 0.3,1.3 0.5,2.6 0.6,4 0.1,0.7 -2,3.2 -2.7,2.4 -6.5,-7.8 -10.3,-18 -15.7,-26.6 -4.3,-6.9 -9.2,-13.3 -14.8,-19.2 7.2,17.5 9.7,38 4.4,52.8 6.5,-0.9 13.1,-0.8 18.2,0.9 1.1,0.4 -1.5,2.7 -2.1,2.8 -3.7,0.8 -7.5,1.4 -11.3,2 7,2.2 13.7,5.8 20,10.1 5.7,3.9 13.2,10 19.2,17 -0.2,-0.4 -0.4,-0.8 -0.6,-1.2 -0.3,0.1 -0.5,0.1 -0.6,-0.2 -0.3,-1.1 -0.8,-2.1 -1.2,-3.1 -1.2,-2.1 -2.4,-4.2 -3.7,-6.3 -0.7,-0.8 -1.4,-1.7 -2.1,-2.4 -1.7,-1.7 -4.6,-3.3 -6.6,-5.2 -0.4,-0.3 -0.8,-0.5 -1.1,-0.8 -0.2,-0.2 -0.2,-0.4 -0.1,-0.7 -0.4,-0.5 -0.6,-1.1 -0.7,-1.7 -0.2,-0.9 1.4,-2.3 2.2,-2.4 2.3,-0.3 4.2,0.7 5.9,2.2 28.7,4.2 46.3,38.7 60.4,62.6 0.8,-9.9 2.9,-19.5 -0.4,-29.9 -3.8,-11.9 -11.7,-18.9 -20.4,-27.1 -0.8,-0.8 2,-3.3 2.9,-3.2 3,0.4 5.7,1.3 8.2,2.5 16.5,2.6 20.1,22.6 25.4,35.9 0.2,0.4 0,0.9 -0.4,1.5 10.8,6.7 19,20.2 20.6,33 0.3,-0.9 0.6,-1.8 0.8,-2.8 0.3,-1.6 0.6,-3.2 0.8,-4.8 -1.2,-9.1 1.1,-18.8 -1.9,-27.9 -4.3,-13.3 -15.4,-17.9 -23.9,-27.7 -0.8,-0.9 2.1,-3.7 3.1,-3.4 3.6,1.1 6.8,2.6 9.8,4.4 4.2,0.9 8,3.1 11.5,6.1 1.7,1.4 3.9,3.5 5.6,5.8 0.2,-0.6 0.5,-1.3 1.1,-2.2 8.3,-12.9 21.6,-20.2 34.7,-27.4 7.3,-4 14.8,-7.7 22.4,-11.2 -21.1,-1 -43.3,0.1 -59.2,12 z"
     id="path147" />
  <path
     class="st11"
     d="m 477.52501,106.4 c 0.1,-0.6 -0.2,-0.9 -1.1,-0.9 -3,0.3 -6,1.3 -8.9,2.6 -2.9,0.8 -5.7,2.3 -8.4,3.9 -2.1,0.9 -4.1,1.7 -6.2,2.2 -3.6,0.9 -7.2,1.4 -10.8,1.8 -6.3,-6.2 -17.1,-9.7 -24.5,-11.6 -2.5,-0.7 -5.1,-1.2 -7.6,-1.6 -2.1,-1.6 -5.1,-2.7 -8.4,-3.5 0.8,-1 1.4,-1.9 1.5,-2.3 3,-11.1 3.5,-22 8.3,-32.6 5,-11.1 12.5,-20.4 21.2,-29 1.2,-1.2 2.5,-4.5 -0.4,-2.6 -11,7.2 -19.8,17.3 -26.3,28.7 -5.4,9.4 -12.7,24.2 -12.4,36.3 -2.7,-0.4 -5.2,-0.7 -7.1,-1.2 -5.6,-1.3 -11.9,-2.7 -16.4,-6.1 0.3,-4 -0.5,-7.6 -1,-12 -0.7,-7.2 -0.6,-14.3 0.2,-21.5 1.2,-11.2 4.9,-21.5 7.9,-32.3 0.4,-1.6 -2.6,1 -2.8,1.3 -7.8,11 -12.4,23.6 -14.2,36.9 -1,7.3 -3.3,24.2 1.1,32.2 0,0 0,0 0,0.1 2,5.7 6.6,9.4 12.2,12 5,5.8 9.6,12 13.3,18.8 3.4,6.3 6.2,13 8.2,20 1.4,4.9 1.2,12.3 4.2,16.6 0.3,1.5 0.8,3 1.3,4.3 0,0.1 0,0.1 0,0.2 -0.2,1.9 -1.4,4.8 -0.1,6.4 0.4,0.5 1.5,-1 1.7,-1.2 0.7,-1.5 1.1,-3.2 1.4,-4.9 1.5,-1.3 3.1,-3.5 3.2,-3.9 3.4,-10 0.9,-24.7 -5.3,-36 -0.9,-4.9 -4.1,-9.8 -7.3,-14 6.1,2.6 12.6,4.4 18.1,8.3 0.8,0.6 1.6,1.2 2.4,1.9 5.8,8.3 12.1,15.3 15.2,25.4 1.6,5.2 2.5,10.7 3,16.2 0.5,5.1 -0.7,11.2 2.3,15.4 0.2,0.2 0.4,0.3 0.7,0.3 -0.2,2.4 -0.4,4.8 -0.4,7.3 0,1.2 3.4,-1.9 3.6,-2.7 0.7,-2.8 0.9,-5.6 0.7,-8.3 0.2,-0.3 0.4,-0.6 0.4,-0.7 3.5,-10 2.4,-25.4 -2.9,-37.9 0.5,-0.6 0.8,-1.2 0.9,-1.7 0.1,-1 0.1,-1.9 0,-2.8 0.7,0.4 1.5,0.8 2.3,1.1 0.8,0.3 2,-0.2 3.1,-1.1 0.1,0 0.2,0.1 0.3,0.1 4,1.2 8.9,-2.6 9.4,-6.7 0.2,-0.5 0.1,-0.9 -0.2,-1.3 -0.9,-0.6 -1.9,-1.2 -3,-1.6 2.4,-0.7 4.7,-1.6 6.8,-2.3 7.8,-2.9 15.5,-6.7 20.3,-13.7 0.1,-0.5 0.9,-1.8 0.5,-2.3 z"
     id="path149" />
  <path
     class="st4"
     d="m 521.12501,551 c -0.7,-1.3 -1.8,-2.4 -3,-3.4 0.3,-0.4 0.4,-0.8 0.2,-1.1 -3.9,-8.3 -17.1,-14.1 -23.9,-20.4 -3.8,-3.4 -7.2,-7.2 -10.7,-11 -2,-2.3 -4.5,-4.4 -6.7,-6.6 -0.1,-0.3 -0.2,-0.6 -0.4,-0.9 -1.9,-3.8 -3.9,-6.9 -6.4,-9.7 2.8,1.4 5.6,2.9 8.3,4.5 0.2,0.1 0.4,0.1 0.6,0.1 0.1,0.1 0.3,0.2 0.4,0.3 0.8,0.5 1.4,0.3 2.3,0.2 0,0 0,0 0,0.1 0.2,1.4 4.8,-2.2 4.7,-3.9 -1.1,-23.2 -15.4,-40.8 -36.7,-48.1 3.8,-2.5 7.7,-4.9 11.6,-7.3 0.6,-0.4 4.7,-4.5 2.8,-4.8 -2.7,-0.4 -5.4,-0.7 -8,-1 0.4,-0.3 0.8,-0.6 1.2,-0.9 2.9,-2.2 5.6,-4.5 8.2,-6.9 0.6,-0.2 1.1,-0.4 1.7,-0.6 0.9,-0.4 7.2,-5.1 5.2,-6.3 0,0 0,0 -0.1,0 1.7,-2 3.4,-4 5,-6.2 0.6,-0.8 2,-4.4 -0.5,-3.5 -0.5,0.2 -1,0.4 -1.6,0.5 -6,-0.2 -11.4,0.5 -16.6,2 0.6,-0.7 1,-1.3 0.5,-1.6 -1,-0.5 -1.1,-1.3 -1.9,-1.9 -0.5,-0.3 -1.3,-0.5 -1.9,-0.7 -1.8,-0.7 -3.7,-1.3 -5.1,-2.7 -0.9,-0.9 -1.5,-2 -1.7,-3.2 1.1,-0.4 2.2,-0.8 3.3,-1.2 4.8,-1.8 9.3,-4.1 13.8,-6.8 0.8,-0.5 5.9,-5.4 3.4,-6 -13.4,-3.2 -24.8,-0.6 -38,0.4 -4.2,0.3 -4,1.7 -3.2,-3.4 0.6,-4 2.9,-8 4.5,-11.6 2.9,-6.6 6,-13 9.7,-19.2 1.1,-1.8 1.9,-5.6 -1.7,-3.6 -5.2,2.9 -11.1,7 -15.7,12 0,-0.2 0.1,-0.4 0.1,-0.6 0.4,-1.8 -3.3,1.3 -3.6,2 -0.9,2.3 -1.7,4.6 -2.5,7 -0.9,1.8 -1.5,3.6 -1.9,5.6 -3.2,9.6 -6.1,19.3 -9.1,29 -1.8,5.7 -4,11.2 -2.6,17.2 1.7,6.7 7.1,12.4 9.3,19 2.1,6.2 1.1,14.4 2.8,20.9 0.1,1.7 0.4,3.4 1.1,5.1 0.9,2.2 2.4,4.6 4.5,5.9 1.6,0.9 3,0.8 4.5,0.4 3.7,2.7 7.3,5.3 10.7,8.4 5.1,4.6 9.4,9.9 14.7,14.2 0.5,0.4 1.2,0.3 1.9,-0.2 0.4,0.7 0.9,1.4 1.3,2 2.4,3.8 4.5,8.3 8.2,10.9 0.6,0.4 1.5,0.2 2.4,-0.4 0.8,2.2 1.8,4.3 4.1,4.9 3,5.2 6.9,9.5 10.6,14.4 7.7,10 23.5,22.7 36.8,21.8 1.1,0.1 3.8,-1.9 3.1,-3.1 z"
     id="path151" />
  <path
     class="st11"
     d="m 459.52501,496.5 c -3.8,-4.2 -7.8,-8.2 -12,-12 -1.3,-2 -2.6,-3.8 -4.3,-5.5 -6.2,-6.5 -10.1,-11.1 -13.9,-19 0.3,-0.1 0.7,-0.2 1,-0.3 0.7,-0.1 1.4,-0.3 2.1,-0.5 7.6,1.4 16.3,-0.4 21.3,-4.6 0.6,-0.5 2.6,-2.3 1.9,-3.3 -0.9,-1.4 -2.4,-0.9 -4,-0.7 -1.6,0.2 -3.2,0.4 -4.8,0.5 -1.8,-1.9 -5.3,-1.5 -8.4,-0.7 -4,-1 -7.7,-2.9 -11.7,-4.1 -0.7,-0.8 -1.4,-1.7 -2,-2.6 -0.4,-0.6 -0.8,-1.2 -1.2,-1.8 -0.5,-1.9 -1,-3.9 -1.5,-5.8 1.3,-0.9 2.7,-1.7 4.2,-2.3 5,-2.2 10.3,-3.5 15.3,-5.8 0.9,-0.4 4.2,-3.1 3.2,-4.2 -4.6,-5.1 -13.9,0.2 -18.4,2.9 -1.8,1.1 -3.8,2.4 -5.7,3.9 -1.1,-4.5 -2.6,-9.3 -3.9,-14.3 3.7,-4.3 7.5,-8.6 11.9,-12.1 4.9,-3.9 10.8,-6.7 15.2,-11.3 0.7,-0.8 3,-3.1 2.1,-4.3 -0.1,-0.2 -0.3,-0.3 -0.4,-0.5 -0.5,-0.7 -2,0 -2.5,0.2 -2.8,1 -5.6,2.4 -8.3,4 0.8,-1 2.1,-2.8 1.2,-3.2 -5.2,-2.9 -16.4,8 -19.8,11.1 -0.7,0.6 -1.4,1.3 -2.2,2 -0.3,-2.8 -0.3,-5.5 0,-8.2 0.3,-2.3 -3.9,1.6 -4.2,2.4 -2,4.8 -2.9,9.3 -3.2,13.7 -2.6,3.4 -4.7,7 -5.3,10.8 -0.5,2.7 3.2,-0.3 4.5,-1.4 -0.7,4.2 -0.7,8.5 0.5,13.3 1.5,6.1 4.2,11.8 6.9,17.4 1,4.6 2,9.2 3.2,13.7 -0.4,0.7 -0.5,1.5 0.3,1.1 0.4,1.4 0.8,2.7 1.2,4 -0.1,0.3 -0.2,0.6 -0.2,0.9 -0.2,2.9 -0.4,5.8 -0.4,8.7 0,1.5 2.8,-0.5 3.1,-0.7 0.2,-0.2 0.4,-0.3 0.6,-0.5 0.1,0.2 0.2,0.4 0.2,0.6 0.8,1.7 3.4,0.1 5.5,-2.1 1.4,1.7 3,3.3 4.9,4.9 8.2,7 15.1,13.1 21.2,22 0.3,0.4 1.9,-1.1 1.7,-1.6 -0.2,-0.7 -0.5,-1.4 -0.7,-2 0.4,0.5 0.8,1 1.2,1.5 4.2,5.9 8,15 14.9,18 0.4,0.2 1.3,-0.9 1.2,-1.2 0.2,-8.3 -6.2,-15.1 -11.5,-21 z m -44.1,-86.8 c -0.1,-0.4 -0.2,-0.7 -0.3,-1.1 1.3,-1.4 2.6,-2.9 4.1,-4.2 0.6,-0.6 1.3,-1.1 2,-1.6 -2.1,2.2 -4,4.5 -5.8,6.9 z"
     id="path153" />
  <path
     class="st1"
     d="m 464.82501,420.5 c 0,0 0,-0.1 0,0 -1,-0.7 -2.2,0.2 -3,0.6 -3.6,2.3 -7.5,4 -10.7,6.8 -0.7,0.6 -2.3,2.1 -1.8,3.2 1.1,2.4 5.5,-0.3 7,-1.2 3.1,-1.7 7.1,-4.3 8.4,-7.7 0.1,-0.3 0.6,-1.4 0.1,-1.7 z"
     id="path155" />
  <path
     class="st1"
     d="m 451.12501,394.8 c -1.1,-1.3 -3.5,-0.9 -5,-0.5 -2.6,0.7 -5,2.1 -7,3.8 -3.4,2.7 -7.7,6.8 -7.1,11.4 0.3,2.7 6,-3 6.4,-3.7 0.1,-0.1 0.1,-0.2 0.2,-0.2 1.3,-0.5 3.1,-0.7 4.6,-1.1 2.4,-0.7 4.6,-2.7 6.1,-4.6 0.7,-1 3,-3.8 1.8,-5.1 z"
     id="path157" />
  <path
     class="st1"
     d="m 488.52501,482.4 c -6.5,-6.9 -21.5,-8.1 -30.4,-7.7 -0.9,0 -4.2,3 -2.8,3.4 4.8,1.4 9.8,2.3 14.7,3.5 5.2,1.4 10.8,3.2 16.1,3.4 0.6,0.1 3.1,-1.8 2.4,-2.6 z"
     id="path159" />
  <path
     class="st4"
     d="m 495.12501,360.4 c -5.7,-2 -13.9,-0.1 -18.9,1.8 -6,2.3 -12.1,5.9 -15.8,11.3 -0.7,1 -0.9,2.6 0.8,1.8 4.7,-2.3 8.4,-5.4 13.6,-6.6 5.9,-1.4 11.2,-0.1 17,-0.4 0.8,0 3.1,-1.6 4.7,-3.2 -0.6,-1.5 -1.1,-3.1 -1.4,-4.7 z"
     id="path161" />
  <path
     class="st4"
     d="m 509.02501,474.6 c -0.9,-1.3 -2.1,-2.5 -3.3,-3.6 -1.1,-1.1 -2.4,-1.8 -3.8,-2.5 -0.5,-0.3 -1.1,-0.5 -1.6,-0.7 -1,-0.4 -2.6,-0.6 -3.5,-1.1 -0.8,-0.5 -3.2,1.8 -2.6,2.6 -0.3,-0.5 1,2.6 1,2.7 0.3,0.6 0.5,1.1 0.8,1.7 0.8,1.5 1.6,2.9 2.7,4.1 1,1.1 1.9,2.2 3,3.2 1.4,1.2 2.4,1.2 4.2,0.9 1.3,-0.3 2.9,-2 3.3,-3.3 0.5,-1.5 0.7,-2.6 -0.2,-4 z"
     id="path163" />
  <path
     class="st4"
     d="m 515.62501,501.5 c 0.2,-1 -0.2,-1.6 -1.1,-1.6 -0.6,-0.4 -1.6,-0.6 -2.3,-0.9 -1.3,-0.5 -2.6,-1 -3.9,-1.5 -1.9,-0.6 -3.8,-0.8 -5.5,-1.9 -0.9,-0.6 -3.6,2.1 -3,3 1.8,2.5 2.5,5.3 5.4,7 1.2,0.7 2.5,1.2 3.8,1.6 1.8,0.6 3,0 4.4,-1.2 0.8,-0.7 2.1,-1.7 2.4,-2.8 0.2,-0.5 0.2,-1.1 -0.2,-1.7 z"
     id="path165" />
  <path
     class="st4"
     d="m 521.12501,642.3 c -1.7,0.3 -3.4,0.7 -5.1,1 -0.7,-0.5 -1.5,-1 -2.2,-1.5 -0.2,0.1 -0.4,0.1 -0.6,0.2 -1.4,-0.3 -2.8,-0.5 -4.2,-0.8 -0.1,-0.1 -0.3,-0.2 -0.5,-0.3 -0.9,-0.2 -1.9,-0.3 -2.9,-0.3 -11.7,-1.8 -23.4,-2.5 -35.2,-1.6 -10.3,0.8 -21.4,1.4 -29.5,8.5 -3.9,3.4 -9.9,10.8 -7.7,16.6 -0.3,1.5 -0.3,3 -0.1,4.5 0.6,-0.4 1.1,-0.7 1.4,-0.8 6.5,-1.9 16.1,-1.7 23.9,1.1 1.6,0 3.3,0 4.9,0 -1.1,0.9 -1.3,1.1 -2.1,1.2 1.2,0.5 2.2,1.2 3.3,1.9 0.5,3.9 2,7.6 4.4,11.1 5.2,7.6 18.4,15.8 27.8,14.5 0.8,-0.1 2.6,-1.7 2.2,-2.6 -1.8,-3.9 -6.6,-4.8 -10.2,-6.9 -3.7,-2.2 -6.8,-5 -9.7,-8.1 -0.7,-0.7 -1.3,-1.4 -1.9,-2.2 2.1,-10.5 13.7,-17.7 23.6,-22.5 5.2,-1.5 10.3,-2.6 14.4,-3.8 2.6,-0.8 10.4,-10 6,-9.2 z"
     id="path167" />
  <path
     class="st11"
     d="m 521.72501,640.8 c -6.1,0.4 -11.9,1.8 -17.9,2.7 -8,-3.9 -19.1,-2.2 -27.7,-2.4 -8.3,-0.2 -18.1,-1.3 -25.8,2.5 -1.3,0.6 -2.7,1.7 -4.2,3 -0.1,0.1 -0.2,0.1 -0.4,0.2 -3,-0.9 -6.2,2.3 -8,4.2 -1.2,1.3 -2.3,2.7 -2.9,4.4 -0.4,0.8 -0.8,1.9 -0.7,2.9 -1.2,2.4 -1.7,5.1 -0.5,7.4 0.7,1.2 3,-0.8 4.6,-2.8 0.2,0.6 0.4,1.1 0.7,1.7 1,2 2.8,3.4 4.8,4.2 2.7,1 4.6,0.2 6.8,-1.3 3.4,1.9 7.7,4.1 11.6,4 0.8,0 2.5,-1.4 2.3,-2.3 -1.1,-4.3 -7.9,-5.1 -11.3,-7.2 -1.8,-1.1 -3.7,-2.5 -4.9,-4.2 -0.6,-0.8 -1.1,-2.1 -1.2,-3.4 2.7,-5.2 18.1,-3.4 23.2,-3.6 7.1,-0.3 14.1,-0.3 21.1,-1.2 10.3,0.4 20.9,-0.4 29.4,-6.6 0.1,-0.3 1.8,-2.2 1,-2.2 z"
     id="path169" />
  <path
     class="st11"
     d="m 265.52501,112.8 c -2,-1.9 -4.4,-3.3 -7.1,-4.2 -2,-0.9 -4.3,-1.4 -6.6,-1.3 -4.1,-0.4 -8.3,0 -11.8,0.8 -0.8,0.2 -3.1,2.3 -4.4,4.1 -1.3,0.3 -2.6,0.7 -3.8,1.3 -0.1,0.1 -0.6,0.7 -0.3,0.6 0.6,-0.2 1.3,-0.3 1.9,-0.5 0.3,0.1 0.7,0.2 1,0.3 -0.1,0.1 -0.1,0.2 0.1,0.2 0.1,0 0.2,0 0.3,0 0,0.2 0.2,0.4 0.5,0.4 0.9,0.1 1.7,0.2 2.6,0.2 2.4,0.4 4.7,0.8 6.9,1.9 0.5,0.3 0.9,0.7 1.4,1.1 2.2,2.1 2.9,4.4 3,7.1 -0.1,0.2 -0.1,0.3 -0.2,0.5 -4.5,2.4 -9,4.9 -13.3,7.6 -0.5,0.3 -3.9,4.2 -1.8,3.8 5.7,-1.2 10.8,-3.8 15.9,-6.5 2.8,-1.5 5.6,-2.9 8.2,-4.6 0,0 0,0.1 0.1,0.1 0.1,0.3 0.2,0.7 0.3,1.1 -1.3,0.8 -2.6,1.7 -4,2.3 -4.4,2.2 -9.1,4 -13.8,5.5 -0.9,0.3 -3.3,3.3 -2,3 6.8,-1.6 14.1,-4.3 20.3,-8.2 0.1,4.6 -3,7.6 -7,9.9 -2.2,0.8 -4.4,1.5 -6.1,2.3 -0.4,0.2 -1.3,0.8 -2,1.5 -2.3,1 -4.4,2 -6.2,3.1 -0.2,0.2 -2.4,2.1 -1.7,2.5 2.4,1.2 6.3,-0.1 9.9,-1.7 3.6,0.2 8.3,-3 10.6,-4.8 2,-1.5 3.9,-3.3 5.5,-5.2 0.2,0 0.5,0 0.8,0 1.8,-0.2 3.9,-2.9 4.9,-4.2 3.9,-6.4 3.4,-14.6 -2.1,-20 z"
     id="path171" />
  <path
     class="st10"
     d="m 415.32501,150.1 c -1.1,-0.5 -3,1.6 -3.7,3 -1.5,-1.2 -6.4,3.8 -5.8,5.4 4.6,11.5 9.3,22.1 10.8,34.6 0.3,2.5 6.5,-3.5 6.8,-5 1.7,-9.9 3.5,-33.3 -8.1,-38 z"
     id="path173" />
  <path
     class="st10"
     d="m 380.52501,149.1 c -1.7,-3.5 -4.2,-6.9 -7,-10 -3.4,-6.1 -7.9,-11.4 -13.1,-14.5 -0.5,-0.3 -1.6,0.8 -1.7,1.4 -2.3,-3 -4.2,-6 -5.6,-9.3 -0.4,-0.9 -2.7,1.3 -2.5,2.1 1.2,8.2 4.3,14.1 8.8,20.3 9.5,4.4 18.9,18.3 20.3,29.9 0.3,-0.4 0.6,-0.8 0.6,-1 0.1,-0.9 0.2,-1.9 0.2,-2.8 0.2,-0.4 0.3,-0.7 0.4,-1 0.1,-1.9 0.2,-3.9 0.2,-5.8 -0.1,-3.2 -0.5,-6.3 -0.6,-9.3 z"
     id="path175" />
  <path
     class="st10"
     d="m 589.72501,356.9 c -3.2,-23.7 -9,-46.5 -19.6,-68.2 -0.7,-3.8 -1.5,-7.6 -2.4,-11.4 1.8,-1.8 3.2,-4.1 2.4,-5.2 -2.7,-4 -5,-8.1 -7,-12.3 -0.1,-0.4 -0.2,-0.9 -0.4,-1.3 -2.7,-9.6 -6.2,-19 -10.5,-28 -1,-3.3 -1.9,-6.6 -2.9,-10 -4.6,-16 -9.7,-31.5 -21.3,-43.9 -0.9,-1 -1.9,-2 -2.9,-2.9 0.5,-0.5 0.8,-1.1 0.8,-1.5 0.3,-8.1 -8.8,-13.8 -15.4,-17.2 -6.8,-3.5 -15,-6.1 -22.4,-3.6 0,0 0,0 0,0 -15.3,-5 -31.5,-5.4 -44.8,2.8 -0.4,0.2 -1.8,1.4 -1.3,2 0.6,0.8 1.4,1.5 2.3,1.9 -1.8,1.4 -4.1,4.2 -2.6,4.5 0.5,0.1 0.9,0.2 1.4,0.3 -0.4,0.7 -0.5,1.3 -0.1,1.5 1.8,1 3.6,2 5.4,2.9 4.1,7.8 19,10.8 26.7,12.8 0.2,0.1 0.4,0.1 0.6,0.2 9.6,4.5 19.1,9.3 27.9,15.6 1.5,1.1 3,2.2 4.4,3.4 1.4,5.7 0.8,11.9 3.6,17.9 1.5,3.3 3.4,4.6 6.5,6.3 5.8,3.1 9.6,4.8 12.3,11.1 4.6,10.6 0.5,22.4 5,32.8 4.3,9.9 12.4,18.8 17.8,28.2 7.1,12.2 13.6,25 18.9,38.2 2,6.7 4.1,13.3 6.2,19.9 1.2,3.8 2.4,7.7 3.6,11.5 0.2,0.8 0.4,1.7 0.6,2.5 0.1,0.3 0.2,0.4 0.4,0.5 2.4,7.6 5,15.1 7.8,22.5 2.8,9.2 6,18.2 9.7,27.1 0.7,1.5 4.5,-2.2 4.3,-3.5 -3,-19.3 -8.8,-38.4 -15,-57.4 z"
     id="path177" />
  <path
     class="st10"
     d="m 606.62501,422.4 c 0,0.9 0.1,1.8 0.1,2.7 0,0.3 1.1,-0.5 1.1,-0.9 0,-1 0.1,-1.9 0.1,-2.9 0,-0.2 -1.3,0.5 -1.3,1.1 z"
     id="path179" />
  <path
     class="st10"
     d="m 496.32501,196 c -1.9,-1.7 -3.5,-3.6 -5.6,-5.1 -4,-2.8 -9.5,-5 -14.3,-5.4 -2.7,-0.2 -12.6,7.7 -9.7,10.6 3.2,3.2 9.3,5.4 13.7,6.1 5.7,0.9 12,2.4 17.5,0.5 0.6,-0.2 1.4,-0.9 1.4,-1.6 0.1,-3.5 -0.6,-2.9 -3,-5.1 z"
     id="path181" />
  <path
     class="st3"
     d="m 530.22501,213.8 c -0.6,-1.3 -1.8,-2.4 -2.7,-3.5 -0.9,-1 -1.7,-2 -2.7,-2.9 -0.5,-0.4 -1.1,-1.1 -1.7,-1.4 -0.7,-0.2 -1.6,0.1 -2.3,-0.2 -1.2,-0.7 -4.5,2.4 -4.1,3.7 0.3,0.9 -0.2,1.7 0,2.5 0.2,0.6 0.6,1.3 0.9,1.9 0.7,1.3 1.7,2.4 2.6,3.6 0.8,1 1.5,2.2 2.6,3 1.4,1.1 2.8,0.9 4.4,0.5 1.2,-0.2 2.6,-1.8 3,-3 0.3,-1.3 0.7,-2.8 0,-4.2 z"
     id="path183" />
  <path
     class="st7"
     d="m 286.32501,530.4 c -1.3,-3.6 -8.1,4.4 -8.8,5.8 -3.5,7.5 -7.5,12.8 -15.7,15.1 -6.3,1.8 -12.9,2.1 -19.4,2.4 -12.1,0.6 -24.4,0.5 -36.5,-0.1 -24,-1.2 -48.4,-3.6 -72,-8 -21.7,-4 -43.599998,-9.5 -63.299998,-19.8 -8.6,-4.5 -16.7,-9.9 -24,-16.3 -7.7,-6.7 -13.4,-14.9 -20.5,-22.1 -1.2,-1.2 -5.4,3.1 -4.9,4.5 7.6,21.9 32,37.2 52.1,46.2 26,11.6 54.299998,15.5 81.999998,21 28.6,5.7 58.8,9 87.9,5.7 11.5,-1.3 22.2,-4.8 30.9,-12.5 5.1,-4.4 14.8,-14.4 12.2,-21.9 z"
     id="path185" />
  <path
     class="st10"
     d="m 230.32501,427 c 0.6,-1.8 0.4,-3.5 -0.7,-5 -2.4,-1.4 -4.9,-2.9 -6.9,-4.9 -2.1,-2.2 -4,-3.4 -7.2,-3.8 -4.2,-0.4 -7.1,0 -10.9,2 -6.2,3.2 -12.1,9 -14.3,15.7 -1.1,3.2 -1.1,7.2 -1.1,10.7 0,2.9 1.4,5.8 3.1,8.2 6.3,9.2 17.2,1.8 24.2,-2.4 5.1,-3 14.2,-11.5 13.8,-18.4 0.5,-2.2 0.5,-3 0,-2.1 z"
     id="path187" />
  <path
     class="st10"
     d="m 237.42501,405.3 c -1.1,0.1 -2.2,0.3 -3.2,0.3 -1.9,0.1 -3.8,1.6 -5.1,2.9 -0.7,0.7 -1.3,1.5 -1.9,2.3 -0.3,0.5 -1.3,2.1 -1,2.8 0.3,0.8 0.5,1.7 0.8,2.6 0.3,0.8 0.7,1 1.4,1.2 0.8,0.3 1.6,0.1 2.5,-0.1 2.4,-0.7 4.3,-2.4 6,-4.2 1.4,-1.5 2.9,-3.4 3,-5.6 0,-1.3 -1.1,-2.3 -2.5,-2.2 z"
     id="path189" />
  <path
     class="st10"
     d="m 568.52501,431.5 c -2.7,-2.1 -6.3,-3 -9.6,-3.8 -1.9,-0.4 -3.7,-1 -5.6,-1 -2.6,-0.1 -5.4,0.9 -8,0.8 -4,-0.2 -8.5,3.7 -11.1,6.4 -2.4,2.5 -7.1,7.2 -6.4,11.1 0.6,2.8 0.2,6.2 2.9,8.2 2.4,1.8 5.9,1.8 8.5,3.1 2,1 3.8,2.6 4.8,4.6 1,1.9 0.8,4.2 2.7,5.5 5.6,3.9 15.8,-7.5 18.6,-10.7 0.2,-0.3 0.5,-0.6 0.7,-1 6.3,-7.1 11,-16.6 2.5,-23.2 z"
     id="path191" />
  <path
     class="st10"
     d="m 540.62501,463.8 c -1,-1 -2.1,-1.8 -3.2,-2.7 -0.6,-0.5 -1.7,-0.1 -2.3,0.2 -1.2,0.6 -2.5,1.6 -3.4,2.5 -1,1 -2,2.1 -2.5,3.4 -0.2,0.5 -0.8,1.9 -0.2,2.3 0.7,0.4 1.4,0.8 2,1.2 0.7,0.4 1.5,1 2.3,1.2 1.3,0.2 3.3,-1.2 4.2,-2 1.2,-1 2.2,-2.3 2.9,-3.8 0.2,-0.7 0.7,-1.8 0.2,-2.3 z"
     id="path193" />
  <path
     class="st10"
     d="m 523.12501,560.7 c 0,0 0,0.1 0,0.1 0,1.2 -2.6,4.7 -4.1,4.1 -5.9,-2.4 -11.9,-4.2 -18.2,-5 -4.6,-0.6 -9.7,-0.2 -14,-1.8 -9.8,-3.6 -18.2,-14.5 -24.7,-22.3 -14.6,-17.3 -28,-36.8 -49.7,-45.2 -0.2,0.9 -0.4,1.9 -0.6,2.8 -1.3,5 -3.4,10.2 -7.2,13.2 -1,-0.3 -2,-0.5 -3.2,-0.5 -2.1,-1.2 -6.9,4.4 -6.6,6.3 1.3,10.6 7.7,19.8 15.4,27.1 2.7,2.6 5.7,4.9 8.8,7.1 1.2,1.3 2.4,2.6 3.7,3.8 13.5,9.7 28.4,17.2 44.8,21.9 14.8,4.2 30.2,6.3 45.6,6.2 5,0 10.2,-0.6 15.4,-1.3 -1.7,-5.3 -3.6,-10.9 -5.4,-16.5 z"
     id="path195" />
  <path
     class="st13"
     d="m 477.62501,546.4 c -2,-1 -4,-2.1 -5.9,-3.2 -0.2,-0.1 -0.4,-0.3 -0.6,-0.4 0.4,-0.7 0.6,-1.4 0.2,-1.7 -4.3,-3.7 -9.1,-6.8 -14.1,-9.8 -0.5,-0.5 -0.9,-1 -1.4,-1.6 0,0 -0.1,0 -0.1,0 -0.9,-8.6 -9.8,-15.7 -15.7,-21.5 -6.8,-6.7 -14.1,-14.3 -22.8,-18.5 -2.5,-1.2 -5.8,3.5 -6.5,5.4 -0.9,2.4 -1.7,4.7 -1.8,7 -0.8,-0.2 -1.6,-0.4 -2.4,-0.5 -1.8,-0.3 -7.7,5.4 -5.9,6.5 20.4,12 40.3,28.8 62.6,37.3 0.4,0.3 0.8,0.5 1.3,0.7 0.9,0.8 1.9,1.5 3,2.2 3.4,2.2 7.1,4.9 11.1,3.7 0.8,-0.2 2.2,-1.4 2.1,-2.3 -0.1,-2.3 -1.2,-2.4 -3.1,-3.3 z"
     id="path197" />
  <path
     class="st14"
     d="m 457.22501,523.5 c -1.1,-1.4 -1.8,-3.1 -3.1,-4.2 -0.4,-0.4 -0.9,-0.7 -1.3,-1 -2.5,-3.9 -6,-7.7 -10.1,-10.8 -1.3,-1.6 -2.7,-3.1 -4.6,-4.6 -6.7,-5 -13.4,-10.1 -21.8,-11.4 0.1,-1.1 0.2,-2.2 0.1,-3.3 -0.1,-1.2 -2,-0.1 -2.4,0.2 -1.2,0.8 -2.7,2.1 -3.2,3.5 -0.6,1.6 -1.2,3.5 -1.7,5.3 -2.5,2.2 -4.2,5 -3.7,7.7 0.2,1.3 1.7,0.4 3.2,-0.9 2.4,1.2 5.1,1.2 7.9,1.9 2.3,0.5 4.5,1.2 6.6,1.9 2.4,1.6 4.8,3.1 7,4.8 3.2,2.5 6.7,4 10.1,6.1 0.9,0.6 1.6,1.2 2.4,1.8 0.5,0.8 1.3,1.3 2.1,1.9 0.9,0.8 1.9,1.6 3.1,2.2 0.3,0.2 0.6,0.5 0.9,0.7 0.5,0.3 0.9,0.5 1.4,0.8 0.2,0.1 0.3,0.3 0.5,0.4 0.2,0.1 0.4,0.2 0.7,0.1 0.6,0.3 1.2,0.6 1.8,1.1 1.4,1.1 1.9,1.7 3.7,1.6 0.7,-0.1 1.6,-1.1 1.7,-1.7 0.3,-2 -0.2,-2.7 -1.3,-4.1 z"
     id="path199" />
  <path
     class="st15"
     d="m 546.52501,628.8 c -7.2,-2.3 -16.2,0.2 -23.6,0.9 -11.4,1.1 -22.8,2 -34.2,2.7 -16.7,1 -33.3,1.3 -50,1.2 -3.6,-2.7 -8,-2.4 -12.5,-3.2 -6.7,-1.2 -13.3,-2.8 -19.8,-4.8 -9.3,-2.9 -18.1,-6.9 -27.2,-10.3 -4,-7 -7.4,-14.3 -10.1,-21.9 -0.8,-9.8 -2.8,-19.6 -7.4,-28.2 -0.3,-0.6 -1.2,0 -2,0.9 0,-0.1 -0.1,-0.3 -0.1,-0.4 -0.3,-0.9 -2.2,1.2 -2.3,1.7 -1.5,15.5 -0.3,31.3 -2.6,46.7 -1.1,6.8 -2.8,13.7 -5.6,20 -2.2,5.1 -5.9,9.4 -8.2,14.4 -3.3,2.6 -6.5,5.3 -10,7.5 -5.7,3.5 -11.8,6.1 -17.9,8.8 -3.4,1.3 -6.8,2.7 -10.1,3.8 -7.1,2.3 -14.3,4.1 -21.6,5.6 -5,1 -10,1.9 -15.1,2.7 -3.3,0.2 -6.7,0.7 -9.9,1 -6.8,0.5 -13.5,1.1 -20.3,1.6 -12.1,0.9 -24.2,2 -36.3,2.8 -11,-0.3 -22,-0.9 -33,-1.8 -5.6,-0.4 -11.3,-1 -16.9,-1.7 -7.6,-2 -15,-4.8 -22.2,-8.8 -36.699998,-20.1 -56.099998,-55.6 -73.199998,-92.1 -0.1,-0.3 -0.4,-0.3 -0.8,-0.1 0.3,-0.7 0.3,-1.4 0,-2 -0.7,-1.1 -1.3,-2.1 -2,-3.1 -0.7,-1.1 -1.4,-1.5 -2.6,-2 -0.8,-0.3 -2.5,1.2 -2.9,1.6 -0.8,0.7 -2.1,2 -2.2,3.2 -0.1,0.5 -0.1,0.9 -0.1,1.4 -0.7,0.8 -1.3,1.6 -1.7,2.5 -0.8,1 -1.3,2 -1.3,2.6 0.6,38.4 14.2,80.7 52.4,96.6 10.999998,4.6 22.699998,6.7 34.599998,8 5.6,1.7 11.3,3.1 17.2,4 2.9,0.5 5.8,0.9 8.7,1.2 19.3,-2.7 38.5,-2.8 58,-2.3 9,0.2 18.1,0.4 27.1,0.4 24,-2.2 51.8,-5.4 73.3,-16.9 4.8,0.8 11.4,-3 15,-4.9 6.5,-3.6 12.8,-8.3 17.4,-14.1 1.4,-1.8 1.8,-3.2 1.5,-4 2.4,-2.2 4.6,-4.6 6.2,-7.2 0.5,-0.7 0.7,-1.9 -0.6,-1.3 -0.1,0 -0.1,0.1 -0.2,0.1 3.4,-4.5 6.1,-9.8 8,-15.6 0,0.3 0,0.5 0,0.8 0.1,2.1 0.3,4.4 0.7,6.8 -4.1,8.8 1.9,17.5 13.2,18.8 7.4,0.8 15.1,0.5 22.7,0.2 8.6,1.5 17.9,2.2 26.6,0.8 4.9,0.3 9.7,0 14.2,-1.3 0.5,-0.1 2.5,-1.6 3.9,-3.1 1.5,-1 4.5,-3.7 3.3,-4.4 -0.1,0 -0.1,-0.1 -0.2,-0.1 2.3,-0.5 4.6,-1.2 6.7,-2.2 0.3,-0.1 0.9,-0.6 1.6,-1.2 11.5,-0.1 22.9,-0.4 34.4,-1 18.4,-0.9 40,-0.2 57.3,-6.9 0.5,-0.2 4.5,-3.8 2.7,-4.4 z"
     id="path201" />
  <path
     class="st13"
     d="m 464.22501,537.9 c -0.9,-0.9 -1.8,-1.8 -2.8,-2.7 0,0 0,0 0,0 0,0 0,0 0,0 0.5,0.1 1.5,-0.9 1.4,-1.4 -1,-4.8 -7,-7.1 -11.4,-7.7 -0.2,0 -0.5,0.1 -0.8,0.4 -4.5,-3.8 -9,-7.8 -14.3,-10.3 -0.6,-0.3 -2.1,1.1 -1.7,1.7 3.6,5.3 9.1,9.5 14,13.6 4.1,3.5 8.2,8.1 13.9,8.2 0.5,0 2.2,-1.3 1.7,-1.8 z"
     id="path203" />
  <path
     class="st6"
     d="m 434.82501,282.3 c -0.1,-0.1 -0.1,-0.3 -0.2,-0.4 -2.4,-4.9 -4.9,-9.8 -7.6,-14.5 -5.7,-8.1 -13,-15.7 -19.7,-22.2 -0.9,-1.1 -1.8,-2.2 -2.8,-3.3 -12.2,-14 -26.4,-26.7 -42.4,-36.3 0.1,0.1 0.2,0.3 0.3,0.4 1.2,0.9 2.4,1.8 3.6,2.7 -0.8,-0.5 -1.7,-0.9 -2.6,-1.4 2.2,3 4.2,6.2 6.2,9.4 2.3,1.7 4.6,3.5 6.8,5.6 7.1,6.9 14,14.1 20.7,21.3 6.4,6.9 12.7,13.9 18.3,21.5 6,8.1 10.2,19 17.2,26 0.9,0.9 3.7,-2.3 3.5,-3.2 -0.2,-1.8 -0.7,-3.7 -1.3,-5.6 z"
     id="path206" />
  <path
     class="st6"
     d="m 306.02501,462.2 c -7.2,-0.1 -13.7,2.1 -19.9,5.7 -1.2,0.7 -4.4,5.7 -1.5,4.2 6.2,-3.4 12.9,-4.8 20,-3.9 6.2,0.7 11.3,5.3 17.3,5.2 1.1,0 3.4,-1.9 3.1,-3.1 -1.4,-6.7 -13.4,-8.1 -19,-8.1 z"
     id="path208" />
  <path
     class="st6"
     d="m 114.12501,339.3 c 0.1,-0.6 0.2,-1.2 0.3,-1.7 0.6,-3.6 -6.4,2.6 -6.9,4 -3.8,9 -6.8,19.1 -6,28.9 -0.9,5.7 -1.5,11.5 -2.099998,17.2 -1.2,12.2 -4.7,29.8 0.899998,41.1 0.4,0.8 2.6,-1.8 2.7,-2.3 1.6,-7.6 1.7,-15.6 1.6,-23.5 2,-9.9 2.7,-20.3 4.1,-30.3 0.9,-5.9 1.8,-11.8 2.7,-17.7 1.3,-5.1 2.5,-10.1 3,-15.3 0.1,-0.2 -0.1,-0.4 -0.3,-0.4 z"
     id="path210" />
  <path
     class="st0"
     d="m 640.72501,287.6 c -2.4,-11.4 -4.8,-23.6 -9.7,-34.2 -0.3,-0.7 -2.5,1.6 -2.5,2.2 1.9,24.8 11.2,49.9 18.1,73.7 0.2,0.7 2.2,-1 2.1,-1.7 -2.6,-13.3 -5.2,-26.7 -8,-40 z"
     id="path212" />
  <path
     class="st0"
     d="m 650.12501,334.4 c -0.5,-0.5 -2.7,1.6 -2.1,2.1 1.8,1.9 2.3,4.1 3.2,6.5 0.2,0.6 1.5,-0.8 1.6,-1.1 0.3,-2.8 -0.8,-5.4 -2.7,-7.5 z"
     id="path214" />
  <path
     class="st0"
     d="m 481.62501,350.1 c -5,-5.2 -15,-8.1 -22,-9.6 -7.4,-1.6 -13.8,-1 -20.8,1.8 -0.4,0.2 -1.8,2 -1,1.8 7.2,-2.1 14.6,-1.4 21.6,0.8 6.8,2.1 12.7,6.6 19.6,8 0.9,0.1 3.3,-2 2.6,-2.8 z"
     id="path216" />
  <path
     class="st0"
     d="m 487.42501,416.3 c 0,-0.1 -0.1,0 0,0 2.7,6 6.1,11.6 8.9,17.5 3.1,6.3 4.4,13.2 7.1,19.6 0.4,0.8 2.1,-1.2 2.2,-1.8 0.1,-13.1 -7.2,-28.4 -18.2,-35.3 z"
     id="path218" />
  <path
     class="st0"
     d="m 449.82501,12 c -9.1,-2.4 -24.8,8.4 -32.3,12.8 -11.5,6.8 -21.5,15.1 -30.8,24.6 -2,2.1 -0.9,3.3 1.2,1.2 9.5,-8.9 20.4,-16.8 32,-22.7 9,-4.7 19.1,-7.1 27.8,-12.3 0.5,-0.3 3.6,-3.2 2.1,-3.6 z"
     id="path220" />
  <path
     class="st0"
     d="m 472.22501,43.7 c -8.1,-1 -18.6,5.5 -25.4,9.3 -7.9,4.4 -14.8,9.6 -21.2,15.8 -1.2,1.2 -1.3,2.8 0.6,1.4 6.9,-5.4 14.3,-10.4 22.2,-14.2 7,-3.4 14.6,-5.1 21.5,-8.6 0.4,-0.3 3.7,-3.5 2.3,-3.7 z"
     id="path222" />
  <path
     class="st0"
     d="m 247.52501,129.7 c -5.7,-1.1 -11.9,1.7 -17.5,2.5 -3.6,0.5 -8,0.8 -11,-1.7 -2.1,-1.8 -4.1,-5.3 -2.7,-8.1 0.8,-1.6 -1.7,0.1 -2,0.5 -3.5,4.5 -3.2,10.2 2.5,13.1 3.8,1.9 8.4,1.2 12.4,0.5 5.7,-1 11.5,-2 16.8,-4.4 0.2,-0.2 2.4,-2.2 1.5,-2.4 z"
     id="path224" />
  <path
     class="st0"
     d="m 60.925012,509.7 c 0.1,0 0.2,-0.2 0.1,-0.2 -0.1,0.1 -0.2,0.2 -0.1,0.2 z"
     id="path238" />
  <path
     class="st0"
     d="m 78.525012,506.3 c -0.9,-6.7 -0.9,-13.5 -0.4,-20.2 0,-0.3 -0.4,-0.2 -0.9,0.2 -0.1,-0.9 -0.2,-1.8 -0.3,-2.7 -0.1,-0.9 -2.1,1.3 -2.2,1.7 -1.9,7.2 -2.8,13.9 -2.9,21.3 -0.1,5.5 -1.9,14 2.3,18.2 0.6,0.6 2.1,-1.4 2.3,-1.9 0.1,-0.3 0.1,-0.5 0.2,-0.8 0.8,2.8 2.1,5.3 4,7 0.7,0.6 2.2,-1.4 2.2,-2 -0.1,-7 -3.4,-13.9 -4.3,-20.8 z"
     id="path240" />
  <path
     class="st0"
     d="m 116.52501,489.2 c -5.3,10.7 -12.1,28.2 -6.6,39.9 0.4,0.9 2.7,-1.8 2.8,-2.3 1.3,-6.9 0.9,-13.8 2,-20.7 1,-6.3 2.5,-12.4 4.4,-18.4 0.4,-1.3 -2.4,1 -2.6,1.5 z"
     id="path242" />
  <path
     class="st0"
     d="m 67.425012,413 c -7.6,7.3 -13.9,15.3 -18.9,24.6 -4.2,7.8 -11.5,21.4 -9.1,30.3 0.4,1.4 3.2,-1.8 3.4,-2.3 3.4,-8 4.5,-16.5 8,-24.5 4.3,-9.9 10.4,-19 17.7,-27 1.9,-2 0.9,-3.1 -1.1,-1.1 z"
     id="path244" />
  <path
     class="st0"
     d="m 244.42501,510.1 c -1.3,0.5 -2.6,2 -3.3,3.3 -0.9,1.7 -4.1,10.4 -0.3,10.4 1.2,0 2.4,-1.4 2.9,-2.4 0.9,-1.8 0.8,-3.2 0.8,-5.1 0,-1.8 0.4,-3.4 1.1,-5 0.5,-1.1 -0.1,-1.6 -1.2,-1.2 z"
     id="path246" />
  <path
     class="st16"
     d="m 78.725012,555 c -8.4,-2.2 -13.1,-7.7 -19.8,-12.5 -6.1,-4.4 -12.4,-7.7 -17.6,-13.2 -4.7,-4.9 -9.7,-10 -13.9,-15.4 -3.5,-4.6 -5.3,-9.5 -11,-11.3 -1.6,-0.5 -4.1,2.8 -4.5,4.1 -4.3999999,15.3 8.2,27.3 20.9,33.7 14.9,7.4 27.8,14 44.6,16.3 0.5,0 1.9,-1.6 1.3,-1.7 z"
     id="path248" />
  <path
     class="st16"
     d="m 158.12501,567.5 c -6.6,-6.7 -17.1,-6.9 -25.9,-8.5 -11.1,-2.1 -21.7,-4.6 -32.999998,-3.1 -1,0.1 -4.2,2.8 -3.3,4 5.899998,7.4 16.799998,9.8 25.699998,11.9 12.1,2.8 21.9,3.2 33.7,-1 0.8,-0.2 3.7,-2.4 2.8,-3.3 z"
     id="path250" />
  <path
     class="st16"
     d="m 324.62501,582.7 c -4.4,2.9 -7.7,5.5 -12.8,6.4 -5.8,1 -11.3,2.4 -17.2,3.3 -11.8,1.7 -21.4,8.8 -26.8,19.4 -9.7,19.1 21.7,9.5 27.6,6.1 11.1,-6.5 21.6,-16.1 30.6,-25.2 4.2,-4.6 9.3,-17.2 -1.4,-10 z"
     id="path252" />
  <path
     class="st16"
     d="m 341.62501,561.9 c -1.6,-0.1 -2.9,0.1 -4.4,0.7 -1.3,0.5 -2.6,1.3 -3.8,2.1 -2,1.3 -3.8,2.9 -5.2,4.7 -0.6,0.8 -1.4,1.7 -1.8,2.7 -0.1,0.4 -0.3,0.7 -0.4,1.1 -0.2,0.5 -0.1,1 0.2,1.5 0,0.4 0.4,0.6 0.8,0.8 0.4,0.2 0.9,0.5 1.4,0.5 0.8,0.1 1.8,-0.2 2.6,-0.3 -0.2,0 -0.4,0 -0.6,0.1 3.8,-0.3 7.3,-3.5 9.5,-6.4 0.7,-1 5.2,-7.3 1.7,-7.5 z"
     id="path254" />
  <path
     class="st6"
     d="m 378.72501,432.3 c -2.1,-5 -4,-10.2 -5.1,-15.5 -1.2,-5.9 0.4,-11.2 -0.3,-16.9 -0.1,-0.6 -1.2,0.6 -1.3,0.7 -7.2,10.1 -4.5,21.7 0,32.6 2.5,6.1 5.6,12.1 8.4,18.1 3.4,7.1 6.1,15.9 11.4,21.7 0.6,0.7 2.6,-1.6 2.5,-2.3 -2,-13.2 -10.5,-26.1 -15.6,-38.4 z"
     id="path256" />
  <path
     d="m 679.02501,428.1 c 1.1,2.2 1,4.2 0.3,5.9 h -5.8 c -0.1,-0.4 -0.5,-1 -1.1,-2.3 -0.2,-0.4 0,-0.9 0.4,-1.5 0,-0.1 -0.1,-0.3 -0.1,-0.4 -7.4,-18.7 -9.7,-40.6 -14.1,-59.9 -5.2,-23 -10.5,-46 -15.7,-69 -2.8,-12.2 -5.5,-24.4 -8.3,-36.5 -0.4,-1.7 -0.8,-3.4 -1.2,-5.1 l 5.5,-1.3 c 2.1,8.9 4.6,17.7 6.5,26.3 3.7,16.2 7.4,32.4 11.1,48.7 3.9,16.9 7.7,33.8 11.6,50.7 1.9,8.5 4.3,17 6.2,25.6 1.1,3.5 2.2,7 3.1,10.6 0.6,2.8 1.4,5.5 1.6,8.2 z"
     id="path259" />
  <path
     d="m 673.42501,434 h 5.8 c -1.9,4.4 -8.5,7.3 -12.8,8.2 -10.7,2.2 -21.9,3 -32.7,4.8 -4.3,0.7 -8.8,1.9 -13.2,2.1 3.6,8.7 5.1,19.8 6.8,27.3 2.9,12.9 5.5,26 7.5,39 3.6,23.1 0.9,44.1 -11.6,63.7 l -3.7,-2.3 c 0.7,-1.2 1.4,-2.4 2,-3.6 11.3,-21.1 7.9,-44.4 3.5,-66.9 -2,-10.3 -4.5,-20.6 -7.3,-30.8 -0.3,-1 -0.6,-1.9 -0.9,-2.9 -1.2,-6.6 -2.9,-13 -4.5,-19.2 -0.5,-1.9 -1,-3.9 -1.6,-5.9 -0.1,0 -0.1,-0.1 -0.2,-0.1 -0.4,-0.2 -0.4,-0.6 -0.1,-1.1 -2.5,-9.2 -5.3,-18.5 -9.1,-27.2 -3.8,-15.4 -7.8,-30.8 -12,-46.2 -8.8,-32.4 -18.4,-64.5 -28.5,-96.5 -5.1,-16 -10.4,-31.9 -15.8,-47.8 -5.5,-16 -10,-33.3 -17.8,-48.4 -7,-13.5 -18.4,-21.7 -31.7,-26.5 -1.4,-0.3 -2.8,-0.6 -4.2,-0.9 -10.2,-1.7 -20.4,-1.5 -30.6,-0.5 -4.4,0.4 -10.4,2.3 -15,1.4 0.9,7.9 0.1,16.2 -2.6,23.9 -0.1,0.2 -0.5,0.7 -0.9,1.3 -0.4,1.6 -0.8,3.1 -1.4,4.6 l -3.6,-0.6 c 0.3,-0.9 0.6,-1.8 0.8,-2.8 0.3,-1.6 0.6,-3.2 0.8,-4.8 -1.2,-9.1 1.1,-18.8 -1.9,-27.9 -4.3,-13.3 -15.4,-17.9 -23.9,-27.7 -0.8,-0.9 2.1,-3.7 3.1,-3.4 3.6,1.1 6.8,2.6 9.8,4.4 4.2,0.9 8,3.1 11.5,6.1 1.7,1.4 3.9,3.5 5.6,5.8 0.2,-0.6 0.5,-1.3 1.1,-2.2 8.3,-12.9 21.6,-20.2 34.7,-27.4 8.6,-4.7 17.5,-9.1 26.4,-13.1 2.6,-1.2 6,-3.2 9.5,-4.7 -10.7,-3.2 -22,-4.1 -33.2,-2.7 -6.6,0.8 -13,2.3 -19.4,4.2 -4.3,1.3 -14.8,3.1 -19.1,6.7 -0.4,0.6 -0.8,1.3 -1.1,1.9 -1.1,2.2 -2.2,4.4 -3.2,6.7 -0.2,0.5 -1.1,1.4 -2.2,2.4 -0.5,0.8 -0.9,1.6 -1.4,2.4 -0.7,1.2 -6.1,5.6 -4.7,2.3 0.2,-0.5 0.5,-1 0.7,-1.6 -0.3,-0.1 -0.4,-0.4 -0.2,-1.1 3,-10.8 10.2,-19.7 17.4,-28 8.9,-10.2 17.7,-20.8 27.2,-30.6 -0.5,-0.4 -1.4,-0.7 -2.9,-0.8 -12.3,-0.7 -28,7.7 -37.9,14.1 -6.4,4.2 -12.4,9.2 -17.6,14.9 l -1.8,-1.5 c 17.4,-19.2 40.3,-32.2 67.5,-34.5 1.3,-0.1 1.3,0.8 0.8,1.8 -4.7,10.5 -12.4,18 -20.4,26 -5.8,5.8 -10.9,12 -15.5,18.5 8.2,-4.5 19.9,-6.8 25.8,-8.2 20,-5 40.7,-4.6 59.3,4.9 1.9,1 -4,6.1 -4.8,6.5 -27.5,12.8 -61.5,23.2 -79.9,48.6 4.3,-0.3 8.5,0.6 12.9,1.3 2.5,0.4 6.1,0.6 9.1,1.5 24.1,0.9 49.9,9.2 62.1,29.8 7.4,12.4 11.6,26.8 16.3,40.3 4.6,13.2 9.1,26.5 13.4,39.8 0.4,-0.2 0.8,-0.4 1.2,-0.5 0.8,-0.7 1.7,-1.1 2.2,-1 10.3,-4.4 21.6,-7 32.3,-9.8 11.7,-3.1 23.9,-6.9 36.1,-7.1 0.4,0 0.5,0.3 0.6,0.6 0.1,2 0.4,4.1 0.7,6.2 0.3,-0.1 0.6,-0.2 0.9,-0.3 1.5,-0.5 0.8,1.3 -0.4,3.1 0.8,5.3 2,10.7 3.2,16 l -5.5,1.3 c -0.9,-3.7 -1.8,-7.4 -2.6,-11.1 -0.2,-0.7 -0.3,-1.4 -0.4,-1.9 -11.4,4.4 -23.1,7.9 -34.7,11.3 -6.6,1.9 -15.8,5.9 -24.3,7.5 2.1,6.2 4,12.5 5.9,18.8 3.7,-0.8 7.3,-1.5 11,-2.3 4,-0.8 8.8,-2.6 12.9,-1.7 1.4,0.3 -1.8,3.1 -2.2,3.3 -5.7,3.2 -13,5.2 -20.1,5.9 3.3,11.5 6.3,23 9.3,34.5 5.3,-0.6 11.4,-3.2 16.1,-4.2 4.4,-1 11.2,-3.9 15.3,-1.5 1.4,0.8 -2.8,4.2 -3.4,4.5 -6.9,3.9 -15.1,5 -22.8,6.5 -0.9,0.2 -2.1,0.5 -3.6,0.9 1.5,5.7 3.1,11.3 4.7,16.9 1.8,6.2 3.4,12.3 5.2,18.5 4.1,-0.7 8.2,-1.2 12.4,-1.8 4.3,-0.6 9.9,-2.7 14.1,-1.2 1.4,0.5 -1.7,3 -2.2,3.3 -5.9,3.1 -14.7,5.3 -22.7,5.5 2.4,8.6 4.7,17.2 7.1,25.8 0.2,0.9 0.5,1.7 0.7,2.6 3.5,-1.2 7,-2.2 10.6,-3 4.2,-0.9 9.9,-3.3 14.1,-1.8 1.7,0.6 -2,3.7 -2.6,4 -6.1,3.1 -13.5,4.8 -20.8,5.5 3.7,12.3 8.1,25.1 9.7,37.7 11,-0.7 21.7,-2.8 32.7,-4.5 5.3,-0.8 13.4,-0.4 18.4,-2.5 2.2,-0.7 2.7,-0.1 2.4,-0.8 z m -45.8,-192.2 c -0.2,-0.1 -0.4,-0.2 -0.6,-0.3 -3.3,-1.6 -7,0.7 -10.4,1.5 -10.8,2.7 -21.6,4.9 -32.4,7.7 -5.3,1.4 -10.7,3.3 -16.2,4.7 0.5,1.4 1.1,2.9 1.6,4.3 9.2,-3.4 19.3,-5.3 28.5,-8.1 9.9,-3 19.7,-6.5 29.5,-9.8 z"
     id="path261" />
  <path
     d="m 619.52501,576.8 3.7,2.3 c -0.7,1.1 -1.4,2.2 -2.2,3.3 -12.6,18.1 -30.2,32.8 -49.3,43.6 -9.3,5.3 -19.3,9.6 -29.6,12.7 -4.4,1.3 -10,3 -15.7,4 3.3,11.9 6.9,23 14.8,33.3 8.9,11.6 20.2,17.1 31.6,25.6 0.9,0.6 -0.4,2.4 -1.9,3.8 -0.4,0.8 -1.5,1.8 -1.9,2 -4.4,2.6 -10.2,3.3 -15.7,2.6 -10.5,0.7 -21.3,-1.3 -31.7,-2.9 -9.8,-1.4 -19.6,-3 -29.1,-5.7 -13.7,-3.9 -35.2,-12.8 -38.2,-28.5 -12.1,2.4 -25.9,2.1 -26,-9 0,-2.8 0.9,-5.7 2.3,-8.4 -11,3.8 -23.7,4 -34.9,3.3 -10.3,-0.7 -23.3,-1.7 -34.7,-4.7 -0.9,0.7 -1.7,1 -2,0.4 -0.2,-0.4 -0.3,-0.7 -0.5,-1.1 -2.9,-0.9 -5.6,-1.8 -8.2,-3 -2.1,2.6 -4.4,5.1 -6.9,7.4 -3.7,3.5 -7.5,6.6 -11.5,9.5 l -2.6,-3.8 c 2.6,-1.7 5.2,-3.6 7.7,-5.6 27.7,-22.8 27.4,-62.7 23,-95.2 -0.1,-0.7 1.9,-2.2 2,-1.6 1.6,10.6 2.9,21.2 3.8,31.8 0.7,7.3 1.7,13.4 1.1,20.3 0.7,0.3 1.4,0.6 2.1,1 0.3,-0.1 0.5,-0.1 0.5,0.2 10.1,4.6 20.2,8.6 31.2,10.8 10.8,2.2 21.7,1.2 32.4,3.1 0.8,0.1 -1.1,1.8 -1.4,1.9 -20.3,5.4 -45.7,-0.1 -64.3,-10.7 -0.9,4.2 -1.9,8.2 -3.2,12.2 -0.8,5.5 0.1,10.7 0.2,16.1 10.9,1.5 21.8,4 32.8,4.5 9.1,0.4 18.1,0.3 27.2,-1 3.6,-0.5 7.4,-1.9 11.1,-2.5 0.9,-1 1.8,-1.9 2.7,-2.8 1.4,-1.3 15.1,-10.7 17.6,-7.4 6.1,-1.8 12.6,-2.6 19.4,-2.5 11.2,0.1 22.3,1.5 33.6,1 2.8,-0.1 5.6,-0.3 8.4,-0.5 9.2,-2.7 18.9,-3.8 28.1,-6.6 9.7,-3 19.1,-6.7 28.1,-11.5 18.1,-9.7 35.4,-23.9 46.1,-41.7 z m -91.3,122.2 c 8.3,1.2 17.8,1.3 26.2,3.3 -20.2,-11.2 -35.9,-37.2 -36.2,-58.7 -9.2,2 -18.8,2.7 -28.3,2.4 -12.6,-0.4 -27.7,-4.1 -40.4,-0.9 -2.6,1.2 -5.6,2.5 -8.2,4.2 -0.3,0.7 -1.5,1.9 -1.7,2 -0.6,0.4 -1.2,0.7 -1.8,1 -1.7,2.2 -2,4.9 0.3,8.3 3.3,4.7 10.8,4.4 15.9,4.4 5.3,0 13.8,-3 18.6,-0.4 0.9,0.5 -1.7,2.8 -2,3 -1.7,1 -4.5,2.2 -8,3.3 5,4.3 9.2,9.8 14.9,13.4 7.6,4.8 16.3,7.9 25,10.1 8.5,1.9 17.1,3.3 25.7,4.6 z"
     id="path263" />
  <path
     d="m 524.02501,505 c 0.9,1.7 -3.3,6.2 -5,5.6 -3.7,-1.4 -6.8,-1.2 -10.3,-0.8 l -1.8,-2.7 v 0 c 0,0 0.1,-0.1 0.1,-0.1 2.5,-1.8 5,-2.8 7.7,-3.2 -6.6,-10.5 -14.3,-19.9 -21.5,-30.1 -0.7,-1 2.2,-3.9 3.2,-3.2 4.5,3.2 8.5,7.1 12.1,11.3 -3.6,-10.7 -2,-23.7 -4.5,-34.4 -4.1,-17.6 -14.4,-30 -27.8,-41.4 -0.8,0.4 -1.5,0.5 -0.9,-0.6 0.8,-1.5 1.7,-2.8 2.7,-4.1 l 3.1,0.3 c 13,8.2 22.4,22.3 26.8,36.9 5.1,16.8 2.4,34.3 8.2,51.1 0.1,0.3 -0.3,0.8 -0.7,1.3 3.1,4.5 6,9.3 8.6,14.1 z"
     id="path265" />
  <path
     d="m 521.62501,671.2 c 0.2,0.9 -1.6,2.5 -2.4,2.6 -4.8,0.6 -9.6,-4.3 -12.8,-7.3 -0.5,-0.5 1.3,-2.2 1.9,-2.1 2.7,0.8 5.4,1.5 7.9,2.6 2,0.9 4.8,1.7 5.4,4.2 z"
     id="path267" />
  <path
     d="m 508.72501,509.7 c 9.8,15 14.3,33.2 14.5,51.2 0,1.2 -2.6,4.7 -4.1,4.1 -5.9,-2.4 -11.9,-4.2 -18.2,-5 -4.6,-0.6 -9.7,-0.2 -14,-1.8 -9.8,-3.6 -18.2,-14.5 -24.7,-22.3 -14.6,-17.3 -28,-36.8 -49.7,-45.2 -0.2,0.9 -0.4,1.9 -0.6,2.8 l -5.2,-0.1 c 0.1,-0.3 0.1,-0.5 0.1,-0.7 1.8,-11.4 1.4,-23 -0.8,-34.4 -4.2,-22 -16.1,-38.9 -26.6,-57.8 -0.5,-0.2 -1,-0.3 -1.5,-0.4 -0.8,-0.1 -2.2,-0.1 -3,0.3 l -3.1,-0.1 c 2.4,-2.8 6.5,-5.1 8.7,-5.3 3.4,-0.3 6.2,1.1 8.2,3.2 0.5,-0.4 1,-0.5 1.3,-0.4 2,1.2 3.7,2.3 5.1,3.7 2.3,-8.9 6.6,-18.3 9.2,-25.5 4.6,-13.1 9.8,-26 16.2,-38.3 4.2,-8 10.9,-21.3 19.6,-30.6 -0.1,0 -0.3,-0.1 -0.3,-0.3 -8.4,-22.5 -19.6,-43.3 -35.2,-61.6 -14.9,-17.5 -33.2,-30.7 -51.6,-44.2 -0.3,-0.2 0.7,-1.2 1,-1.1 42.3,17.4 75.8,61 89.6,103.8 0,0 0,0 0,0 6,-5.2 12.7,-8.3 20.2,-6.7 1.5,0.3 0.2,2.5 -0.2,3.2 -3.8,6 -7.4,12.2 -10.7,18.5 -0.7,1.4 -2.9,5 -4.5,8.3 l -3.1,-1.4 c 3.3,-6.9 6.8,-13.8 10.5,-20.5 -20.4,3.1 -31.1,35.5 -37.9,52.3 -6.5,16.2 -10.4,34.5 -18,50.4 1.1,1.9 2,3.7 2.6,5.5 0.2,0.3 0.4,0.6 0.5,0.9 l 3.6,1.2 c -0.4,1.1 -0.8,2.3 -1.2,3.4 8.4,17.4 12.7,37.1 13.8,56.1 18.5,0.7 35.4,23.6 46.2,35.7 15.2,17 30.9,34.9 52.7,43.1 -2.2,-19.7 -10.5,-37.2 -22.3,-53.7 -0.6,-0.9 2.2,-3.6 2.9,-2.9 3.1,3 5.7,6.2 8.2,9.6 v 0 z m -20.6,42.3 c 5.5,3.2 12,2.5 18.1,3.5 -15.6,-7.6 -28,-20 -39.7,-33.2 -7.9,-8.9 -15.6,-18 -24.4,-26 -7.4,-6.8 -14.7,-11 -23.1,-14.7 -0.6,1.1 -1.9,2.4 -3.1,3.3 20.2,7.5 33.4,24.3 46.6,40.7 7.2,9 15.3,20.5 25.6,26.4 z"
     id="path269" />
  <path
     d="m 517.92501,686.2 c 0.5,0.5 -1.1,1.8 -1.5,1.9 -7.5,1.2 -13.8,-4.4 -19.4,-8.3 -0.1,-0.1 0.3,-0.5 0.4,-0.5 3.7,1.5 7.7,2 11.5,3.3 2.7,0.9 7.1,1.3 9,3.6 z"
     id="path271" />
  <path
     d="m 498.72501,366 c 0.1,0.6 -1.9,2.9 -2.4,2.2 -0.1,-0.2 -0.3,-0.4 -0.4,-0.6 0,0 0,0 0,0 0,0 0,-0.1 -0.1,-0.1 0,0 0,0 0,0 -6.3,-8.3 -11.6,-15.6 -20.9,-20.9 -10.7,-6 -21.8,-8.8 -34.1,-6.8 -8,11.7 -15.6,23.1 -21.1,36.7 -5.1,12.8 -8.7,26 -13.1,39 l -3.6,-1.2 c 3.1,-14.2 8.1,-28.2 13.7,-41.3 6.1,-14.3 14,-29.7 25.6,-40.5 1,-2.3 2.1,-4.5 3.1,-6.8 l 3.1,1.4 c -1.2,2.4 -2,4.7 -1.5,5.6 0.7,1.3 17.2,1.3 20.3,2.2 14.2,4.3 28.4,16 31.4,31.1 z"
     id="path273" />
  <path
     d="m 497.02501,393.3 c 0.5,1.6 -2.9,4.4 -4.3,4.3 -4.6,-0.3 -8.4,1.2 -11.7,4 l -3.1,-0.3 c 3.1,-3.7 7.4,-6.1 12.1,-7.4 -2.7,-3.7 -5.7,-7 -9.5,-9.9 -2.9,-2.3 -6,-3.8 -9.4,-5.3 -1.7,-0.7 -3.3,-1.3 -4.6,-2.4 -0.4,0.1 -0.4,0 -0.3,-0.3 -0.2,-0.2 -0.4,-0.4 -0.6,-0.6 -0.7,-0.8 1.6,-2.5 2.2,-2.7 0.9,-0.3 1.8,-0.4 2.7,-0.5 7.2,-4.8 16.9,-5.7 25.2,-4.6 v 0 c 0,0 0,0 0,0 0,0 0,0 0.1,0.1 0,0 0,0 0,0 0,0.4 -0.9,1.5 -1.4,1.5 -5.2,-0.7 -9.9,-0.3 -14.9,1.1 -1.8,0.5 -3.4,1.2 -5,2 10.5,1.1 19.8,11.3 22.5,21 z"
     id="path275" />
  <path
     d="m 495.82501,367.7 c 0,-0.1 -0.1,-0.1 0,0 0,-0.1 0,-0.1 0,0 z"
     id="path277" />
  <path
     d="m 478.12501,478 c 1,1 -2.3,3.4 -3.1,3.4 -7,0.1 -13.8,-2.3 -20.7,-3.3 -6.2,-0.9 -12.5,-1.6 -18.7,-1.8 -0.8,0 1.2,-2.4 1.8,-2.5 11.5,-2.3 31.4,-5 40.7,4.2 z"
     id="path279" />
  <path
     d="m 465.02501,449.1 c 1,1.5 -2.6,4.3 -3.8,4.6 -5.5,1.2 -11,0 -16.6,0 -4.1,0 -9.3,1.6 -13.1,-0.2 -1,-0.5 1.8,-3 2.2,-3.2 4.8,-2.9 9.9,-4.3 15.6,-4.7 4.7,-0.4 12.8,-0.9 15.7,3.5 z"
     id="path281" />
  <path
     d="m 462.22501,6.5 c 2.6,0 -1.8,5.4 -2,5.6 -20.9,19.2 -36.2,41.6 -48.2,66.5 1.1,-1.3 2.2,-2.6 3.4,-3.9 l 1.8,1.5 c -5.2,5.7 -9.6,12.2 -12.7,19.2 -0.6,1.4 -7.4,6.6 -6.4,3.7 0.1,-0.3 0.2,-0.7 0.3,-1 -0.2,0 -0.4,-0.1 -0.3,-0.3 1.5,-18.1 12,-33.9 22.1,-48.4 7.9,-11.4 16.8,-24.7 27.8,-33.9 -29.4,3.2 -50.5,22.1 -71.7,41.7 l -1.4,-3.5 c 22.4,-25.1 52.8,-46.9 87.3,-47.2 z"
     id="path283" />
  <path
     d="m 451.42501,413.5 c 5,-2.1 11.3,-3.7 10.1,3.6 -0.2,1.3 -2.1,3.3 -3.4,3.4 -7.2,0.8 -12.8,2.8 -19.4,5.7 -3.4,1.5 -12,7.1 -15.6,4.7 -1,-0.6 1.6,-3.1 1.9,-3.3 7.1,-6.5 17.5,-10.4 26.4,-14.1 z"
     id="path285" />
  <path
     d="m 449.02501,384 c 0.9,4.7 -11.2,9.7 -14.1,11.5 -5.4,3.3 -10.1,7.5 -15,11.5 0.2,0.5 -1.5,2 -1.9,2.1 l -1.8,0.8 c 0,0 0,0 -0.1,0 -0.3,0.2 -0.5,0.4 -0.7,0.5 -1.8,1.1 -3.6,0.9 -1.9,-1.8 4,-6.7 10.6,-12 16.8,-16.6 1.8,-1.4 17.8,-12.9 18.7,-8 z"
     id="path287" />
  <path
     d="m 437.22501,183 3.6,0.6 c -0.9,2.5 -2.1,4.9 -3.4,7 -0.1,0.8 -0.1,1.6 -0.3,2.4 -0.1,0.4 -1.6,2.3 -2,1.7 -0.2,-0.3 -0.4,-0.6 -0.6,-1 -0.2,0 -0.3,-0.1 -0.3,-0.4 0,0 0,0 0,0 -4.3,-6.8 -6.2,-15.6 -10.6,-22.6 -3.6,-5.8 -8.4,-10.4 -12.9,-15.4 -0.3,8.1 -1.8,15.8 -4.5,21.8 0,0.1 -0.2,0.3 -0.4,0.5 0.7,1.6 -3.7,5.2 -4.4,4.2 -9.8,-14.7 -19.8,-29.4 -31.2,-42.9 -5.2,-6.2 -10.7,-11.9 -17.2,-16.7 3.7,6.5 6.3,14.2 7.1,21.2 l -6.1,0.2 c -0.7,-3.4 -1.4,-6.9 -2.6,-10.1 -0.7,-1.9 -1.6,-3.7 -2.5,-5.4 -0.3,0.1 -0.5,0.1 -0.6,-0.2 -0.3,-1.1 -0.8,-2.1 -1.2,-3.1 -1.2,-2.1 -2.4,-4.2 -3.7,-6.3 -0.7,-0.8 -1.4,-1.7 -2.1,-2.4 -1.7,-1.7 -4.6,-3.3 -6.6,-5.2 -0.4,-0.3 -0.8,-0.5 -1.1,-0.8 -0.2,-0.2 -0.2,-0.4 -0.1,-0.7 -0.4,-0.5 -0.6,-1.1 -0.7,-1.7 -0.2,-0.9 1.4,-2.3 2.2,-2.4 2.3,-0.3 4.2,0.7 5.9,2.2 28.7,4.2 46.3,38.7 60.4,62.6 0.8,-9.9 2.9,-19.5 -0.4,-29.9 -3.8,-11.9 -11.7,-18.9 -20.4,-27.1 -0.8,-0.8 2,-3.3 2.9,-3.2 3,0.4 5.7,1.3 8.2,2.5 16.5,2.6 20.1,22.6 25.4,35.9 0.2,0.4 0,0.9 -0.4,1.5 10.9,7 19,20.4 20.6,33.2 z"
     id="path289" />
  <path
     d="m 406.62501,493.5 5.2,0.1 c -1.7,6.7 -4.9,13.8 -11.8,15.6 -6.3,1.7 -8.4,-2.2 -8.7,-7.6 -2,-6.1 -0.3,-14.8 -0.8,-21 -0.4,-5.9 -1.3,-11.8 -2,-17.6 -0.3,-1.1 -0.6,-2.2 -1,-3.3 -2.3,-6.2 -5.7,-11.7 -8.8,-17.5 -4.5,-8.3 -9.1,-18.2 -10.2,-27.6 -0.3,-2.4 0.3,-5.9 1.6,-9.2 -0.5,-1.6 0.3,-3.3 1.6,-4.9 l 3.1,0.1 c 0.6,0 1.1,0 1.7,0 0.6,0 1.3,0 1.9,0 -7.2,3.7 -0.2,20.6 1.5,24.8 2.3,5.8 5.3,11.2 8.2,16.6 2.7,4.9 5.2,9.7 6.3,14.8 5.3,12.7 6.9,29.1 3.1,41.5 0.1,1.4 0.1,3.6 1.3,4.3 3.5,2 6.9,-6.2 7.8,-9.1 z"
     id="path291" />
  <path
     d="m 391.72501,0.8 c 1.3,6.3 -2.6,11 -5.3,16.5 -3.8,7.7 -6.8,15.6 -9.1,23.9 -1.1,4.2 -1.9,8.4 -2.5,12.5 l 1.4,3.5 c -0.7,0.6 -1.4,1.3 -2,1.9 -1,10.2 -1.3,20.3 -3.3,30.5 -0.2,0.8 -4.3,5.7 -5.1,4.2 -1.8,-3.7 -2.5,-8.1 -2.6,-12.8 -1.3,-11.6 3.2,-27.5 5.6,-36.9 3.1,-11.7 7,-24.2 13.9,-34.3 -24.1,13.9 -38.1,34.8 -49.5,59.3 l -4.4,-0.3 c 7.5,-29.4 35,-54.9 60.3,-68.4 0.9,-0.4 2.4,-0.8 2.6,0.4 z"
     id="path293" />
  <path
     d="m 360.22501,143.4 c 0.5,3.9 0.4,7.6 -0.3,10.9 0,0.2 -0.5,0.8 -0.9,1.2 0.1,0.7 0.1,1.4 0.1,2 0,0.4 -1.2,1.9 -1.5,1.4 -9.6,-14.2 -21.6,-23.2 -37.4,-30 -7.2,-3.1 -14.6,-5.6 -21.7,-8.9 -1.5,-0.7 -3.1,-1.4 -4.7,-2 -2.3,-0.3 -4.8,-0.8 -7.3,-1.7 2.2,6.6 -2.7,14.2 -6.8,19.3 -0.2,0.2 -1.5,1.1 -1.1,0.3 2.4,-5.2 5.1,-10.2 2.4,-15.8 -2,-4.1 -6,-6.6 -9.8,-8.8 0,0 0,0 0,0 -0.3,0 -0.5,0.1 -0.8,0.1 -0.1,0 -0.1,0 -0.2,0 l -3.6,-3.2 c 0.7,-0.6 1.4,-1.2 1.7,-1.3 3.9,-1.4 6.9,-2.5 11.1,-3 1.2,-0.1 2.4,-0.3 3.6,-0.5 -0.1,-0.2 0,-0.4 0.1,-0.7 0,-0.6 0,-1.1 0.1,-1.7 l 5.5,0.2 c 0.1,0 0.1,0.1 0.2,0.1 10.2,-5.2 25,-7.4 35,-4.1 1.1,0.4 -1.5,2.7 -2.1,2.8 -5.9,1.3 -11.9,2.1 -17.8,3.1 -0.3,0.3 -0.6,0.5 -0.8,0.6 -2.3,1.3 -5,1.9 -7.7,2.5 1,1 2.1,1.9 3.2,2.8 2.4,1.9 5.9,3.7 8.4,6 7.4,3.2 14.9,6.1 22.2,9.5 8,3.7 16.1,8.3 21.9,15.1 1,1.2 2,2.5 3,3.9 z"
     id="path295" />
  <path
     d="m 336.02501,495.9 c 0,0.5 -1.5,2.5 -2.2,1.9 -7.1,-6.5 -7.9,-20.1 -16.6,-24.4 -10.5,-5.1 -22.3,-1.2 -33.3,-1.5 -0.9,0 1.3,-2.4 1.7,-2.6 10.9,-4.1 26.3,-7.9 37.5,-2.9 9.2,4.4 12.5,20.5 12.9,29.5 z"
     id="path297" />
  <path
     d="m 334.32501,87 c 0.1,0.7 -2,3.2 -2.7,2.4 -6.5,-7.8 -10.3,-18 -15.7,-26.6 -4.8,-7.8 -10.5,-15.1 -17,-21.5 -5.6,-5.6 -11.9,-10.6 -18.8,-14.7 4.5,7.2 7.5,15.8 8.8,22.5 3.1,16.3 5.4,36 -0.3,52.1 l -5.5,-0.2 c 0.3,-6.9 1.3,-13.9 0.9,-20.9 -0.4,-8.2 -1.1,-16.7 -2.7,-24.8 -1.6,-8.4 -4.6,-16.3 -9.4,-23.3 -4.3,-6.2 -11.1,-10.3 -14.2,-17.1 -0.4,-1 2.1,-3.1 2.9,-2.9 0.1,0 0.1,0 0.2,0 0.3,-0.5 0.8,-1 1.1,-0.9 16.8,4.8 31.8,12.7 44.1,25.3 8.6,8.8 17.4,20.2 22.8,32.4 l 4.4,0.3 c -0.8,1.6 -1.5,3.3 -2.2,5 1.6,4.2 2.8,8.6 3.3,12.9 z"
     id="path299" />
  <path
     d="m 329.32501,663.5 2.6,3.8 c -21.7,15.2 -48.3,21 -74.9,23.2 -40.2,3.3 -81,3.5 -121.2,1.1 -29,-1.7 -65.199998,-7.2 -82.799998,-33.3 -16.8,-25 -16.1,-56 -13.7,-84.9 l 5.1,0.4 c -1.7,28.2 -1.9,59.7 18.1,81.5 19.3,21 48.399998,25.7 75.599998,27.4 34.1,2.2 68.4,2.2 102.6,0.5 29.6,-1.3 62.9,-3.1 88.6,-19.7 z"
     id="path301" />
  <path
     d="m 287.02501,524.6 c 16.3,-3.4 22.3,15.3 18.4,27.7 -4.3,13.4 -15.7,24.5 -27.4,31.7 -6.6,4.1 -13.8,7.2 -21.2,9.7 -5,1.7 -13.7,5.9 -18.6,3 -1,-0.6 2,-3 2.4,-3.2 16.8,-9.5 37.3,-8.9 50.6,-25.2 7,-8.5 10.8,-22.8 1.3,-31.1 -4.1,-3.6 -9.4,-5.7 -13.9,-1.7 -1.9,3.8 -2.4,8.8 -5.2,12.4 0,0 0,0 0,0 -0.1,0.3 -0.8,1 -1.5,1.7 -2.7,3 -6.1,5.4 -9.7,7.1 -12.5,5.7 -29,3.4 -42.2,2.8 -33.7,-1.5 -67.7,-6.4 -100.7,-13.3 -24.799998,-5.2 -50.799998,-11.9 -70.999998,-27.9 -5.4,-4.3 -10.2,-9.2 -14.3,-14.7 -3.8,-5.2 -6.4,-13.8 -14,-13.5 -5,0.1 -8.8,4.6 -10.8999999,9.3 l -5,-1.2 c 4,-9 11.0999999,-15.8 21.7999999,-15.9 1.4,0 2.6,0.2 3.6,0.5 -1.1,-16 8,-35.8 15.6,-48.1 2.1,-3.4 4.6,-7.1 7.4,-10.7 l 3.4,2.7 c -4.4,5.9 -8,12.5 -10.8,19 -3.6,8.5 -5.1,16.9 -6.5,25.5 0.1,1.5 0.2,3.1 0.4,4.7 0.5,3.8 1.9,7.7 1.8,11.6 0,0 0,0 0,0.1 0.6,1.1 1.2,2.2 1.8,3.3 1.3,2.2 3.7,4.2 5.6,6.2 2.9,-9.1 9.4,-19 12.3,-23 1.3,-1.8 2.8,-3.8 4.5,-5.9 l 3.7,2 c -1.3,1.6 -2.6,3.2 -3.8,5 -3.6,5.3 -7,11.8 -8.6,18 -0.8,3.2 -0.7,6 -0.4,8.9 4.8,4.5 6.9,10.6 10.3,15.8 8,4.7 16.7,8.3 25.5,11.3 0.1,0 0.2,0.1 0.3,0.1 2.2,-0.2 4.5,-0.7 6.7,-1 0.2,-6.4 -0.2,-13 -2.2,-19.1 -13,-16.1 -15.7,-36.5 -7.7,-56.4 -0.1,0.1 -0.1,0.1 -0.2,0.2 l -2.5,-3.2 c 1.6,-0.8 3.2,-1.4 4.8,-1.8 0.1,-0.3 0.3,-0.6 0.4,-0.9 0.1,-0.2 1.9,-2.1 2.2,-1.6 0.8,-4.9 1.5,-9.9 2.3,-14.8 0.2,-20 -1,-40.1 2.1,-60.2 2.199998,-14.4 7.099998,-28.4 15.999998,-40.1 3.5,-4.7 7.5,-8.9 11.7,-12.9 l 3.1,1.8 c -6,5.9 -11.3,12.2 -15.2,19.8 -7.4,14.7 -9.2,31.5 -9.5,47.7 -0.6,30.6 4.6,62.7 -9.899998,91 -0.1,0.1 -0.2,0.3 -0.4,0.5 -0.1,2.7 -0.5,5.4 -1.4,7.6 0,0.1 0.1,0.3 0.1,0.4 1.5,4.7 4.8,8.7 7.999998,12.7 0.1,0.1 0.3,0.2 0.4,0.2 2.2,1.3 4.3,1.8 6.6,1.9 5.4,-13.9 12.6,-29 22.3,-40.3 0.3,-0.3 4,-3.2 3.3,-1.2 -0.2,0.6 -0.5,1.2 -0.7,1.9 0.6,16.3 -5,33.3 3.1,48.5 0.9,1.8 2.1,3.6 3.3,5.4 1.5,1.1 3.1,2 4.8,2.7 0.8,0.3 1.6,0.5 2.4,0.7 1.3,-3.4 2.9,-6.8 4.9,-9.9 0.3,-1 0.6,-1.9 0.9,-2.8 0.7,-2.5 1.4,-5.1 2.5,-7.5 0.2,-0.4 2.7,-2.9 3,-2.2 0.7,-0.5 1.3,-0.8 1.4,-0.2 1.7,14.3 11.5,20.5 21.3,29.5 1.1,1 2.1,2 3.2,3.1 0.9,0.4 1.8,0.7 2.6,1.1 1.2,0.5 2.4,0.8 3.6,1.1 0.2,-1 0.3,-1.9 0.5,-2.9 1.9,-9.8 2.5,-19.9 4.5,-29.6 0.1,-0.4 1.7,-2.4 2.2,-1.8 0.4,0.4 0.7,0.9 1,1.4 0.3,-0.2 0.5,-0.3 0.7,-0.1 2.9,4.2 4.1,9.4 7.2,13.7 3.4,4.7 7.6,8.7 11.7,12.7 1.4,1.4 2.9,2.9 4.5,4.5 0.4,0 0.9,0 1.4,0.1 0.7,0.2 1.3,0.6 2,0.8 1,0.3 2,0.4 3,0.5 0.5,-5.3 1,-10.6 1,-15.9 0,-12 -1.4,-24.1 -5,-35.6 -0.4,-0.4 -0.7,-0.7 -1.1,-1 -0.3,-0.3 -0.1,-0.9 0.3,-1.5 0,-0.1 -0.1,-0.3 -0.1,-0.4 0.1,0.1 0.2,0.1 0.3,0.2 0.9,-1.3 2.6,-2.6 3.3,-2.3 0.1,0 0.2,0.1 0.3,0.1 0,0 0,0 0,0 4.4,1.9 8.5,4.1 12.5,6.5 0.2,0.3 0.5,0.6 0.7,0.9 10.6,6.7 20.9,18.1 25.8,29.5 3.7,7.6 6.6,16 8,23.9 2.7,-5.1 7.4,-8.9 13,-10.1 z m -17.9,19.2 c -6.1,-14.1 -7.5,-29.8 -18.3,-41.9 -4.6,-5.2 -10.2,-9 -15.5,-13.1 3,17 2,35.1 -1.7,51.7 0.9,1 1.8,2 2.7,3 1.1,1.2 2.7,2.2 3.6,3.6 3.5,1.1 7,2.4 10.7,2.8 7.5,1 12.7,-1.2 18.5,-6.1 z m -46.5,3.4 c -1.1,-2.8 -2,-5.9 -3.5,-8.2 -3.2,-4.8 -7.1,-9.2 -10.8,-13.6 -3.6,-4.2 -7.7,-8.7 -10.2,-13.8 -0.3,1.9 -0.7,3.8 -0.9,5.5 -1.5,8.7 -2.8,16.7 -2,25.2 4.7,1.1 9,3.4 13.7,4.8 4.9,1.4 9.1,1 13.7,0.1 z m -47.9,-2.6 c 1.8,-0.1 5.5,-0.8 8,-0.8 -0.9,-2.8 -1.9,-5.5 -3.8,-8 -3.4,-4.3 -7.7,-7.8 -11.7,-11.5 -5,-4.7 -9.8,-9.8 -11.8,-16 -2,4.3 -4.4,8.5 -5.4,13.2 -0.9,4.4 -1.1,8.8 -0.1,13.2 0.3,1.4 0.7,2.7 1.2,3.9 7.9,2.3 14.9,6.4 23.6,6 z m -38.9,-4.2 c 1.5,-0.7 3,-1.3 4.6,-1.8 -1.1,-4.4 -3.6,-8.2 -5.9,-12.1 -3,-5.2 -6.3,-10.3 -7.9,-16.1 -3.2,-11.4 -2.6,-25.5 0.4,-37.9 -3.6,6.9 -7.7,13.6 -10.7,20.7 -3.2,7.7 -5.9,15.9 -6.1,24.4 0,1.7 0.1,3.4 0.3,5.1 3,3.7 5.2,7.9 9,11 2.4,2 5,3.5 7.9,4.7 0.7,0.3 1.5,0.6 2.1,0.9 2.1,0.3 4.2,0.7 6.3,1.1 z"
     id="path303" />
  <path
     d="m 245.32501,205.5 c 7.8,13.1 5.9,31.1 4.6,45.7 -1.2,14.2 -4.4,28.1 -11.6,40.4 -1.6,2.7 -3.4,5.4 -5.4,7.9 l -3.6,-1.6 c 13.1,-18.1 14.4,-47 13,-67.1 -2,-29.6 -34.8,-46.3 -56.9,-23 -1,1 -3,2 -3.6,1.5 -0.5,0.5 -1,0.9 -1.5,1.4 l -2.9,-1.7 c 2.6,-2.4 5.4,-4.5 8.1,-6.3 0.4,-0.4 0.8,-0.8 1.2,-1.2 -15.2,-3.4 -28.8,-6.4 -44,-0.1 -6.9,2.8 -12.4,7.2 -16.9,12.6 l -3.7,-1.7 c 5,-6 11,-11.1 17.9,-14.9 14.6,-8.2 37.9,-12.2 52.2,-1.4 0.2,-5.7 3.9,-11.9 6.5,-16.3 2.1,-3.7 4.2,-7.1 6,-10.6 l 4.5,2.5 c -3.6,6.7 -6.7,13.1 -9.1,20.5 15.8,-6.9 35.5,-3.1 45.2,13.4 z"
     id="path307" />
  <path
     d="m 229.32501,297.9 3.6,1.6 c -13.2,17 -34.1,27.8 -56,21.4 -11.3,-3.3 -19.3,-9 -24.4,-16.3 -1,0.6 -2,1.1 -3,1.5 l -1,-6.2 c 0.4,0 0.8,-0.1 1.1,-0.2 -13.6,-26.8 3.6,-68.9 27.9,-90.7 l 2.9,1.7 c -17.7,17 -31.6,44.3 -27.7,67.2 4.4,25.9 31.7,43.1 57,34.7 8.4,-2.8 14.8,-8.1 19.6,-14.7 z"
     id="path309" />
  <path
     d="m 192.82501,235.4 c 4.2,1.1 6.4,5 6.1,9.2 -0.4,7.9 -11.4,17.8 -19,11.8 -2.1,-1.7 -3.1,-4.1 -3.1,-6.6 -0.3,-2.9 1.1,-6.1 2.9,-8.3 3,-3.7 8,-7.4 13.1,-6.1 z"
     id="path311" />
  <path
     d="m 148.42501,299.9 1,6.2 c -3.1,1.3 -6.3,2 -9.6,2.1 -2.3,3.3 -5.9,5.8 -8.8,8.5 -0.9,0.8 -1.8,1.7 -2.6,2.5 l -3.1,-1.8 c 1.4,-1.3 2.8,-2.7 4.3,-4 1.5,-1.4 3.6,-3.7 5.8,-5.5 -8.5,-1 -16.9,-5.4 -22.5,-12.2 -13.099998,-15.6 -11.5,-39.3 -5.3,-57.4 3.2,-9.5 8.1,-18.5 14.6,-26.2 l 3.7,1.7 c -7.5,8.9 -11.9,20.6 -13.9,32.2 -2.6,15 -1,32.9 10.1,44.3 4.3,4.4 9.9,7.7 15.9,9.3 3.9,1 7.2,0.9 10.4,0.3 z"
     id="path313" />
  <path
     d="m 142.42501,225.1 c 1.9,4.2 0.7,8.3 -2.4,11.6 -2.6,2.7 -6.2,5.1 -10.1,3.8 -3,-1 -4.9,-3.4 -5.4,-6.5 -0.4,-1 -0.5,-2 -0.5,-2.9 0.1,-3.2 2.2,-6.8 5,-9.1 0.1,-0.1 0.2,-0.3 0.4,-0.4 0.1,-0.2 1,-0.8 1.4,-0.8 0.9,-0.5 1.8,-1 2.7,-1.2 3.9,-1 7.3,2.1 8.9,5.5 z"
     id="path315" />
  <path
     d="m 85.925012,449.7 2.5,3.2 c -7,5.5 -14,10.5 -19.8,17.2 l -3.7,-2 c 2.7,-3.4 5.9,-6.9 9.3,-10.1 -10.8,-13.1 -2.5,-34.3 3.1,-48.9 -8.7,3.5 -15.8,9.9 -21.5,17.5 l -3.4,-2.7 c 8.3,-11 19.4,-21.5 32.2,-23.4 1.6,-0.3 1.5,1 1,2.2 -4.1,9.3 -8.2,18.5 -9.3,28.7 -0.9,7.9 0.5,15.4 1.9,23.1 2.4,-1.8 5,-3.5 7.7,-4.8 z"
     id="path317" />
  <path
     d="m 80.125012,585.3 c 0.9,0.4 -1.3,2.8 -2.1,2.5 -11,-4.5 -22.7,-8.7 -33.6,-13.9 l -5.1,-0.4 c 0,-0.7 0.1,-1.4 0.2,-2 -17,-8.8 -31.4999999,-20.7 -37.7999999,-40.9 -2.8,-9 -2.30000001,-22.1 2.3,-32.4 l 5,1.2 c -0.7,1.6 -1.2,3.2 -1.5,4.7 -0.7,3.4 -0.7,7 -0.4,10.5 0.7,7.1 2.9999999,14 6.4999999,20.2 6.5,11.6 16.9,20.4 27.6,28 12.7,8.8 24.4,16.5 38.9,22.5 z"
     id="path319" />
  <path
     class="st0"
     d="m 193.42501,238.1 c -0.2,-0.1 -0.4,-0.2 -0.6,-0.3 -1,-0.4 -1.9,-0.8 -3,-1.1 -1.4,-0.3 -5.3,4 -4.1,4.6 1,0.5 1.9,0.8 2.9,1.1 1.5,0.4 2.4,0 3.5,-0.9 0.5,-0.4 1,-0.9 1.3,-1.5 0.2,-0.7 0.2,-1.3 0,-1.9 z"
     id="path325" />
  <path
     class="st0"
     d="m 137.22501,224.7 c -0.8,-0.1 -1.5,-0.8 -2,-1.4 -0.1,-0.1 -0.3,-0.1 -0.4,-0.1 -0.1,-0.1 -0.2,-0.2 -0.2,-0.3 -0.1,-0.6 -1,0 -1.2,0.2 -0.6,0.4 -1.1,1 -1.4,1.7 -0.3,0.9 -0.6,1.7 -0.2,2.6 0.3,0.6 0.9,1 1.6,1.1 1,0.2 1.8,-0.3 2.6,-0.9 0.7,-0.6 1.7,-1.5 1.5,-2.6 0,-0.2 -0.1,-0.3 -0.3,-0.3 z"
     id="path327" />
</svg>
