<?xml version="1.0" encoding="UTF-8"?>
<!DOCTYPE svg  PUBLIC '-//W3C//DTD SVG 1.1//EN'  'http://www.w3.org/Graphics/SVG/1.1/DTD/svg11.dtd'>
<svg clip-rule="evenodd" fill-rule="evenodd" stroke-linejoin="round" stroke-miterlimit="1.4142" version="1.1" viewBox="0 0 739 442" xml:space="preserve" xmlns="http://www.w3.org/2000/svg">
    <path d="m21.625 224.98l1.642 12.48 60.964 185.19 3.44 10.495 9.49 3.195 1.884-2.152 282.18-111.53 245.99-95.911 70.997-29.079-84.799-178.52-8.802-3.326-582.98 209.15z" fill="#fc6"/>
    <clipPath id="a">
        <path d="m21.625 224.98l1.642 12.48 60.964 185.19 3.44 10.495 9.49 3.195 1.884-2.152 282.18-111.53 245.99-95.911 70.997-29.079-84.799-178.52-8.802-3.326-582.98 209.15z"/>
    </clipPath>
    <g clip-path="url(#a)">
        <path d="m15.954 218.83l15.785 16.973 68.078 204.25-35.244 0.759-58.921-173.46 10.302-48.529z" fill="#dca070"/>
        <path d="m102.23 423.18l578.6-236.54 3.993 7.577-582.59 232.56v-3.592zm-74.299-197.87l4.687 5.152 571.74-211.15-576.43 206z" fill="#ffeeb8"/>
    </g>
        <path d="m613.27 18.893l0.042 0.01 0.04 0.016 0.037 0.023 0.032 0.028 0.028 0.034 0.021 0.037 65.377 136.86 20 41.86 0.05 0.128 0.027 0.134 6e-3 0.137-0.017 0.136-0.039 0.132-0.06 0.124-0.08 0.112-0.097 0.098-0.111 0.081-0.124 0.062-82.016 32.64-64.293 25.54-59.261 23.47-82.222 32.446-96.186 37.893-105.48 41.511-110.1 43.302-0.066 0.027-0.21 0.063-0.216 0.028-0.218-7e-3 -0.214-0.042-0.205-0.076-0.189-0.109-0.169-0.137-0.145-0.163-0.117-0.184-0.085-0.201-66.732-200.49 0.173-0.057-0.046-0.193-0.012-0.197 0.021-0.197 0.054-0.191 0.086-0.178 0.115-0.161 0.141-0.139 0.162-0.113 0.179-0.083 14.895-5.488 178.99-65.9 54.074-19.89 58.282-21.416 117.59-43.189 158.17-58.118 0.041-0.012 0.043-4e-3 0.044 2e-3zm-157.35 58.941l-116.91 43.424-57.927 21.505-53.751 19.934-177.92 65.92 0.018 9e-3 -16.423 6.066 2e-3 1e-3 66.1 198.02 108.8-42.956 105.44-41.606 96.179-37.91 82.253-32.368 59.342-23.266 64.432-25.186 81.404-31.761-19.366-41.158-64.488-137.02-157.18 58.35z"/>
        <path d="m23.339 237.26l2.787 7.705 4.741 13.223 5.621 15.915 2.805 8.086 2.622 7.698 3.494 10.446 4.07 12.27 4.443 13.474 4.614 14.056 4.582 14.017 4.349 13.354 3.912 12.071 3.274 10.167 2.482 7.842 2.667 8.582 5.137 16.8 0.114 0.371-0.241 0.084 3.109 9.453-0.016 0.015 8.937 3.458 0.32 0.239-0.037-0.013-0.362-6e-3 -9.248-3.089-0.05-0.016-0.048-0.023-0.045-0.032-0.04-0.038-0.035-0.045-0.027-0.05-3.376-9.511-0.142-0.407-5.836-16.57-2.947-8.49-2.656-7.785-3.399-10.125-4.015-12.037-4.426-13.33-4.63-14-4.629-14.051-4.42-13.482-4.007-12.291-3.388-10.48-2.458-7.753-2.541-8.172-4.922-16.146-4.032-13.456-2.329-7.855 0.074-0.148 0.148 0.075z"/>
        <path d="m604.51 14.526l0.197 0.034 0.19 0.062 7.926 3.26v-1e-3l0.207 0.107 0.187 0.141 0.159 0.17 0.128 0.195 0.094 0.214 0.055 0.227 0.016 0.233-0.024 0.232-0.063 0.225-0.101 0.21-0.135 0.191-0.165 0.164-0.191 0.134-0.211 0.1-4.715 1.749-81.817 30.338-78.322 29.023-71.318 26.408-60.804 22.49-45.295 16.712-47.669 17.543-94.041 34.52-97.828 35.814-0.038 9e-3 -0.039 3e-3 -0.039-4e-3 -0.038-0.01-0.035-0.016-0.031-0.022-0.028-0.026-8.888-9.589 1.547 12.313-0.101 0.131-0.131-0.101-1.686-12.681-0.103 0.016h2e-3l0.095-0.056-0.015-0.115-2e-3 -0.027 2e-3 -0.028 7e-3 -0.027 0.011-0.026 0.016-0.023 0.02-0.021 0.023-0.017 0.025-0.014 0.028-9e-3 0.029-4e-3 0.029 1e-3 0.03 6e-3 0.028 0.01 0.026 0.015 0.023 0.02 0.036-0.034 0.065 0.069 0.069-0.04 110.29-40.104 99.745-36.184 49.904-18.058 45.688-16.485 60.678-21.831 71.214-25.593 78.242-28.096 66.246-23.773 0.193-0.053 0.198-0.025 0.201 4e-3zm-66.891 26.751l-78.105 27.994-71.1 25.463-60.595 21.675-45.651 16.284-49.896 17.746-99.809 35.406-110.46 39.094 8.952 9.592 1e-3 -6e-3 98.593-37.042 93.711-35.12 47.489-17.753 45.128-16.826 60.589-22.537 71.07-26.407 78.055-28.979 81.545-30.256 1.423-0.527-4.211-1.732-66.726 23.931z"/>
        <path d="m127.64 198.8l0.777 0.35 4.315 10.652 3.18 7.93 1.562 3.936 1.435 3.657 4.71 12.123 5.677 14.694 2.889 7.517 2.755 7.206 2.496 6.579 2.112 5.634 1.486 4.076 1.573 4.439 3.057 8.849 3.292 9.761-0.216 1.13-0.91-0.704-4-9.492-3.571-8.655-1.762-4.367-1.587-4.038-2.149-5.62-2.488-6.582-2.71-7.223-2.814-7.545-5.48-14.769-4.502-12.202-1.347-3.691-1.437-3.983-2.87-8.047-3.822-10.838 0.349-0.777z"/>
        <path d="m361.1 113.36l4.529 9.956 3.338 7.414 1.641 3.68 1.509 3.421 4.953 11.343 5.974 13.749 3.04 7.035 2.9 6.745 2.629 6.159 2.226 5.275 1.568 3.819 1.664 4.162 3.238 8.301 3.491 9.16-0.169 1.139-0.938-0.667-4.189-8.863-3.743-8.086-1.849-4.083-1.668-3.777-2.263-5.259-2.621-6.162-2.855-6.764-2.968-7.066-5.778-13.833-4.749-11.429-1.422-3.458-1.518-3.733-3.034-7.543-4.043-10.163 0.318-0.79 0.789 0.318z"/>
        <path d="m501.46 60.956l4.108 10.245 3.026 7.628 1.485 3.786 1.365 3.518 4.474 11.663 5.393 14.135 2.743 7.232 2.616 6.933 2.368 6.33 2.003 5.42 1.407 3.922 1.488 4.272 2.888 8.516 3.104 9.394-0.221 1.13-0.907-0.709-3.814-9.129-3.402-8.324-1.677-4.201-1.508-3.884-2.041-5.406-2.36-6.333-2.57-6.95-2.669-7.259-5.194-14.21-4.267-11.741-1.276-3.551-1.36-3.833-2.715-7.743-3.615-10.43 0.354-0.775 0.774 0.354z"/>
        <path d="m56.648 225.72l1.615 4.156 1.185 3.095 0.58 1.536 0.531 1.429 1.734 4.737 2.086 5.743 1.059 2.938 1.008 2.818 0.91 2.573 0.766 2.204 0.533 1.596 0.557 1.74 1.069 3.472 1.138 3.832-0.129 0.6-0.477-0.386-1.519-3.698-1.345-3.374-0.659-1.705-0.587-1.577-0.786-2.197-0.906-2.574-0.983-2.826-1.019-2.953-1.98-5.78-1.622-4.777-0.483-1.445-0.513-1.56-1.019-3.154-1.35-4.249 0.196-0.41 0.41 0.196z"/>
        <g transform="translate(23.927 -8.406)">
            <path d="m56.238 225.52l0.41 0.196 1.615 4.156 1.185 3.095 0.58 1.536 0.531 1.429 1.734 4.737 2.086 5.743 1.059 2.938 1.008 2.818 0.91 2.573 0.766 2.204 0.533 1.596 0.557 1.74 1.069 3.472 1.138 3.832-0.129 0.6-0.477-0.386-1.519-3.698-1.345-3.374-0.659-1.705-0.587-1.577-0.786-2.197-0.906-2.574-0.983-2.826-1.019-2.953-1.98-5.78-1.622-4.777-0.483-1.445-0.513-1.56-1.019-3.154-1.35-4.249 0.196-0.41z"/>
        </g>
        <g transform="translate(47.533 -16.647)">
            <path d="m56.648 225.72l1.615 4.156 1.185 3.095 0.58 1.536 0.531 1.429 1.734 4.737 2.086 5.743 1.059 2.938 1.008 2.818 0.91 2.573 0.766 2.204 0.533 1.596 0.557 1.74 1.069 3.472 1.138 3.832-0.129 0.6-0.477-0.386-1.519-3.698-1.345-3.374-0.659-1.705-0.587-1.577-0.786-2.197-0.906-2.574-0.983-2.826-1.019-2.953-1.98-5.78-1.622-4.777-0.483-1.445-0.513-1.56-1.019-3.154-1.35-4.249 0.196-0.41 0.41 0.196z"/>
        </g>
        <g transform="translate(99.114 -37.022)">
            <path d="m56.648 225.72l1.615 4.156 1.185 3.095 0.58 1.536 0.531 1.429 1.734 4.737 2.086 5.743 1.059 2.938 1.008 2.818 0.91 2.573 0.766 2.204 0.533 1.596 0.557 1.74 1.069 3.472 1.138 3.832-0.129 0.6-0.477-0.386-1.519-3.698-1.345-3.374-0.659-1.705-0.587-1.577-0.786-2.197-0.906-2.574-0.983-2.826-1.019-2.953-1.98-5.78-1.622-4.777-0.483-1.445-0.513-1.56-1.019-3.154-1.35-4.249 0.196-0.41 0.41 0.196z"/>
        </g>
        <g transform="translate(126.36 -45.139)">
            <path d="m56.648 225.72l1.615 4.156 1.185 3.095 0.58 1.536 0.531 1.429 1.734 4.737 2.086 5.743 1.059 2.938 1.008 2.818 0.91 2.573 0.766 2.204 0.533 1.596 0.557 1.74 1.069 3.472 1.138 3.832-0.129 0.6-0.477-0.386-1.519-3.698-1.345-3.374-0.659-1.705-0.587-1.577-0.786-2.197-0.906-2.574-0.983-2.826-1.019-2.953-1.98-5.78-1.622-4.777-0.483-1.445-0.513-1.56-1.019-3.154-1.35-4.249 0.196-0.41 0.41 0.196z"/>
        </g>
        <g transform="translate(151.98 -55.492)">
            <path d="m56.648 225.72l1.615 4.156 1.185 3.095 0.58 1.536 0.531 1.429 1.734 4.737 2.086 5.743 1.059 2.938 1.008 2.818 0.91 2.573 0.766 2.204 0.533 1.596 0.557 1.74 1.069 3.472 1.138 3.832-0.129 0.6-0.477-0.386-1.519-3.698-1.345-3.374-0.659-1.705-0.587-1.577-0.786-2.197-0.906-2.574-0.983-2.826-1.019-2.953-1.98-5.78-1.622-4.777-0.483-1.445-0.513-1.56-1.019-3.154-1.35-4.249 0.196-0.41 0.41 0.196z"/>
        </g>
        <g transform="translate(210.57 -77.648)">
            <path d="m56.648 225.72l1.615 4.156 1.185 3.095 0.58 1.536 0.531 1.429 1.734 4.737 2.086 5.743 1.059 2.938 1.008 2.818 0.91 2.573 0.766 2.204 0.533 1.596 0.557 1.74 1.069 3.472 1.138 3.832-0.129 0.6-0.477-0.386-1.519-3.698-1.345-3.374-0.659-1.705-0.587-1.577-0.786-2.197-0.906-2.574-0.983-2.826-1.019-2.953-1.98-5.78-1.622-4.777-0.483-1.445-0.513-1.56-1.019-3.154-1.35-4.249 0.196-0.41 0.41 0.196z"/>
        </g>
        <g transform="translate(241.13 -88.499)">
            <path d="m56.648 225.72l1.615 4.156 1.185 3.095 0.58 1.536 0.531 1.429 1.734 4.737 2.086 5.743 1.059 2.938 1.008 2.818 0.91 2.573 0.766 2.204 0.533 1.596 0.557 1.74 1.069 3.472 1.138 3.832-0.129 0.6-0.477-0.386-1.519-3.698-1.345-3.374-0.659-1.705-0.587-1.577-0.786-2.197-0.906-2.574-0.983-2.826-1.019-2.953-1.98-5.78-1.622-4.777-0.483-1.445-0.513-1.56-1.019-3.154-1.35-4.249 0.196-0.41 0.41 0.196z"/>
        </g>
        <g transform="translate(271.17 -100.14)">
            <path d="m56.648 225.72l1.615 4.156 1.185 3.095 0.58 1.536 0.531 1.429 1.734 4.737 2.086 5.743 1.059 2.938 1.008 2.818 0.91 2.573 0.766 2.204 0.533 1.596 0.557 1.74 1.069 3.472 1.138 3.832-0.129 0.6-0.477-0.386-1.519-3.698-1.345-3.374-0.659-1.705-0.587-1.577-0.786-2.197-0.906-2.574-0.983-2.826-1.019-2.953-1.98-5.78-1.622-4.777-0.483-1.445-0.513-1.56-1.019-3.154-1.35-4.249 0.196-0.41 0.41 0.196z"/>
        </g>
        <g transform="translate(335.46 -124.28)">
            <path d="m56.648 225.72l1.615 4.156 1.185 3.095 0.58 1.536 0.531 1.429 1.734 4.737 2.086 5.743 1.059 2.938 1.008 2.818 0.91 2.573 0.766 2.204 0.533 1.596 0.557 1.74 1.069 3.472 1.138 3.832-0.129 0.6-0.477-0.386-1.519-3.698-1.345-3.374-0.659-1.705-0.587-1.577-0.786-2.197-0.906-2.574-0.983-2.826-1.019-2.953-1.98-5.78-1.622-4.777-0.483-1.445-0.513-1.56-1.019-3.154-1.35-4.249 0.196-0.41 0.41 0.196z"/>
        </g>
        <g transform="translate(366.88 -135.3)">
            <path d="m56.648 225.72l1.615 4.156 1.185 3.095 0.58 1.536 0.531 1.429 1.734 4.737 2.086 5.743 1.059 2.938 1.008 2.818 0.91 2.573 0.766 2.204 0.533 1.596 0.557 1.74 1.069 3.472 1.138 3.832-0.129 0.6-0.477-0.386-1.519-3.698-1.345-3.374-0.659-1.705-0.587-1.577-0.786-2.197-0.906-2.574-0.983-2.826-1.019-2.953-1.98-5.78-1.622-4.777-0.483-1.445-0.513-1.56-1.019-3.154-1.35-4.249 0.196-0.41 0.41 0.196z"/>
        </g>
        <g transform="translate(403.69 -148.18)">
            <path d="m56.648 225.72l1.615 4.156 1.185 3.095 0.58 1.536 0.531 1.429 1.734 4.737 2.086 5.743 1.059 2.938 1.008 2.818 0.91 2.573 0.766 2.204 0.533 1.596 0.557 1.74 1.069 3.472 1.138 3.832-0.129 0.6-0.477-0.386-1.519-3.698-1.345-3.374-0.659-1.705-0.587-1.577-0.786-2.197-0.906-2.574-0.983-2.826-1.019-2.953-1.98-5.78-1.622-4.777-0.483-1.445-0.513-1.56-1.019-3.154-1.35-4.249 0.196-0.41 0.41 0.196z"/>
        </g>
        <g transform="translate(475.43 -175.01)">
            <path d="m56.238 225.52l0.41 0.196 1.615 4.156 1.185 3.095 0.58 1.536 0.531 1.429 1.734 4.737 2.086 5.743 1.059 2.938 1.008 2.818 0.91 2.573 0.766 2.204 0.533 1.596 0.557 1.74 1.069 3.472 1.138 3.832-0.129 0.6-0.477-0.386-1.519-3.698-1.345-3.374-0.659-1.705-0.587-1.577-0.786-2.197-0.906-2.574-0.983-2.826-1.019-2.953-1.98-5.78-1.622-4.777-0.483-1.445-0.513-1.56-1.019-3.154-1.35-4.249 0.196-0.41z"/>
        </g>
        <g transform="translate(503.55 -185.08)">
            <path d="m56.238 225.52l0.41 0.196 1.615 4.156 1.185 3.095 0.58 1.536 0.531 1.429 1.734 4.737 2.086 5.743 1.059 2.938 1.008 2.818 0.91 2.573 0.766 2.204 0.533 1.596 0.557 1.74 1.069 3.472 1.138 3.832-0.129 0.6-0.477-0.386-1.519-3.698-1.345-3.374-0.659-1.705-0.587-1.577-0.786-2.197-0.906-2.574-0.983-2.826-1.019-2.953-1.98-5.78-1.622-4.777-0.483-1.445-0.513-1.56-1.019-3.154-1.35-4.249 0.196-0.41z"/>
        </g>
        <g transform="translate(528.76 -193.73)">
            <path d="m56.238 225.52l0.41 0.196 1.615 4.156 1.185 3.095 0.58 1.536 0.531 1.429 1.734 4.737 2.086 5.743 1.059 2.938 1.008 2.818 0.91 2.573 0.766 2.204 0.533 1.596 0.557 1.74 1.069 3.472 1.138 3.832-0.129 0.6-0.477-0.386-1.519-3.698-1.345-3.374-0.659-1.705-0.587-1.577-0.786-2.197-0.906-2.574-0.983-2.826-1.019-2.953-1.98-5.78-1.622-4.777-0.483-1.445-0.513-1.56-1.019-3.154-1.35-4.249 0.196-0.41z"/>
        </g>
        <g transform="translate(.60826 7.8918)">
            <path d="m84.35 343.93l0.049 2e-3 0.049 2e-3 0.048 3e-3 0.05 4e-3 0.05 6e-3 0.095 0.012 0.095 0.017 0.097 0.02 0.094 0.022 0.094 0.026 0.092 0.028 0.091 0.031 0.091 0.034 0.091 0.035 0.089 0.038 0.088 0.04 0.089 0.042 0.087 0.043 0.086 0.045 0.087 0.047 0.085 0.048 0.087 0.05 0.082 0.05 0.085 0.052 0.082 0.053 0.084 0.054 0.081 0.054 0.083 0.056 0.164 0.114 0.159 0.114 0.159 0.116 0.161 0.119 0.307 0.231 0.153 0.114-1e-3 -1e-3 0.151 0.113 0.147 0.107 0.145 0.105 0.144 0.1 0.07 0.048 0.07 0.047 0.067 0.043 0.068 0.044 0.068 0.041 0.069 0.042 0.029 0.115 0.056 0.033 0.077 0.048 0.075 0.049 0.075 0.051 0.074 0.053 0.073 0.053 0.072 0.055 0.07 0.055 0.07 0.057 0.07 0.059 0.067 0.058 0.068 0.06 0.067 0.06 0.063 0.059 0.062 0.058 4e-3 5e-3 0.061 0.059 0.06 0.059 0.061 0.062 0.059 0.061 0.059 0.062 0.109 0.119 0.106 0.119 0.099 0.116 0.094 0.113 0.087 0.109 0.08 0.105 0.074 0.099 0.065 0.092 0.058 0.085 0.099 0.153 0.097 0.154 0.093 0.151 0.091 0.152 0.089 0.152 0.087 0.154 0.083 0.151 3e-3 5e-3 0.079 0.149 3e-3 5e-3 0.079 0.152 0.078 0.155 0.076 0.155 0.075 0.156 0.071 0.155 0.07 0.156 0.068 0.158 0.065 0.156 0.064 0.157 0.061 0.156 2e-3 5e-3 0.058 0.156 0.058 0.158 0.056 0.159 0.053 0.156 2e-3 6e-3 0.051 0.156 0.05 0.161 0.049 0.16 0.045 0.158 2e-3 5e-3 0.044 0.159 0.042 0.16 0.041 0.162 0.039 0.16 1e-3 5e-3 0.037 0.157 1e-3 5e-3 0.035 0.158 1e-3 5e-3 0.034 0.161 0.032 0.162 0.031 0.162 1e-3 5e-3 0.029 0.162 0.027 0.161 1e-3 5e-3 0.025 0.163 0.025 0.162v5e-3l0.023 0.16v5e-3l0.022 0.163 0.02 0.167 0.018 0.163 1e-3 5e-3 0.017 0.165 0.016 0.166 0.014 0.168 0.013 0.168 0.012 0.168 0.01 0.167 9e-3 0.168v4e-3l8e-3 0.166 6e-3 0.168 5e-3 0.171 5e-3 0.171 2e-3 0.169 2e-3 0.17v4e-3l1e-3 0.171-1e-3 0.17-2e-3 0.173-3e-3 0.17-4e-3 0.174-4e-3 0.172-6e-3 0.172v3e-3l-7e-3 0.174-7e-3 0.126v8e-3l-9e-3 0.132-0.011 0.136v8e-3l-0.014 0.139-0.016 0.146-0.019 0.145-1e-3 9e-3 -0.022 0.147-0.025 0.149-1e-3 7e-3 -0.014 0.075-0.015 0.078-0.016 0.075-1e-3 5e-3 -0.016 0.076-0.017 0.075-2e-3 6e-3 -0.018 0.076-0.019 0.077-0.022 0.08-0.021 0.078-0.023 0.075-2e-3 7e-3 -0.023 0.075-0.025 0.078-0.026 0.074-2e-3 8e-3 -0.027 0.074-0.029 0.078-0.03 0.076-0.032 0.076-0.033 0.077-0.034 0.074-0.034 0.071-5e-3 9e-3 -0.035 0.07-0.039 0.074-0.041 0.073-0.042 0.072-0.044 0.07-0.046 0.071-0.047 0.069-0.05 0.068-0.051 0.067-0.053 0.066-0.056 0.064-0.056 0.063-0.059 0.061-0.062 0.059-0.063 0.058-0.065 0.056-0.068 0.054-0.07 0.052-0.072 0.05-0.074 0.047-0.077 0.045-0.078 0.042-0.081 0.04-0.082 0.037-0.085 0.034-0.087 0.031-0.088 0.028-0.087 0.023-0.084 0.021-6e-3 1e-3 -0.08 0.019-0.082 0.018-0.082 0.018-5e-3 1e-3 -0.079 0.016-0.08 0.015-6e-3 1e-3 -0.078 0.014-0.084 0.014-0.077 0.012-6e-3 1e-3 -0.079 0.011-0.078 0.011-0.084 0.01-0.075 8e-3 -6e-3 1e-3 -0.077 7e-3 -0.08 7e-3 -0.077 5e-3 -0.077 5e-3h-7e-3l-0.073 4e-3 -0.077 3e-3h-6e-3l-0.075 2e-3 -0.074 1e-3h-0.081l-0.073-1e-3h-7e-3l-0.071-2e-3 -0.075-3e-3h-6e-3l-0.075-3e-3 -0.074-5e-3 -0.075-6e-3 -0.073-6e-3 -0.074-7e-3 -0.076-9e-3 -0.073-9e-3 -0.07-9e-3 -7e-3 -1e-3 -0.07-0.011-0.074-0.012-0.069-0.012-0.074-0.014-0.073-0.015-0.067-0.014-0.072-0.017-0.07-0.016-0.071-0.019-0.068-0.018-0.073-0.02-0.067-0.02-0.067-0.021-0.069-0.022-0.068-0.023-0.068-0.023-0.064-0.024-0.069-0.026-0.064-0.025-0.068-0.027-0.065-0.028-0.064-0.027-0.067-0.03-0.063-0.029-0.063-0.03-0.064-0.032-0.064-0.032-0.123-0.065-0.123-0.068-0.12-0.071-0.121-0.074-0.117-0.076-0.117-0.079-0.114-0.081-0.113-0.084-0.112-0.086-0.109-0.087-0.109-0.092-0.106-0.092-0.105-0.095-0.103-0.096-0.102-0.1-0.1-0.101-0.099-0.103-0.097-0.105-0.096-0.107-0.094-0.108-0.092-0.11-0.092-0.112-0.089-0.113-0.088-0.115-0.087-0.116-0.085-0.118-0.084-0.121-0.082-0.12-0.081-0.122-0.079-0.125-0.078-0.124-0.077-0.127-0.075-0.127-0.074-0.129-0.073-0.129-0.071-0.131-0.07-0.132-0.067-0.131-2e-3 -5e-3 -0.066-0.131-0.066-0.134-0.064-0.136-0.064-0.137-0.061-0.137-0.061-0.138-0.059-0.139-0.058-0.139-0.057-0.14-0.056-0.141-0.053-0.14-0.053-0.142-0.052-0.142-0.05-0.14-1e-3 -5e-3 -0.048-0.139-0.049-0.144-0.046-0.142-1e-3 -4e-3 -0.045-0.142-0.044-0.144-0.043-0.142-1e-3 -4e-3 -0.041-0.141-0.041-0.145-0.039-0.144-0.038-0.145-0.038-0.144-0.036-0.145-0.034-0.142-1e-3 -4e-3 -0.033-0.142-0.032-0.144-0.031-0.142-1e-3 -4e-3 -0.03-0.142-0.029-0.143-0.028-0.143-0.026-0.142-0.026-0.141-0.024-0.142-0.023-0.139-1e-3 -4e-3 -0.021-0.136-1e-3 -4e-3 -0.021-0.138-0.019-0.137-1e-3 -4e-3 -0.018-0.137-0.018-0.137-0.016-0.136-1e-3 -3e-3 -0.015-0.134-0.015-0.137-0.013-0.134-0.012-0.134-0.011-0.133-0.01-0.13-9e-3 -0.132-8e-3 -0.13-7e-3 -0.128-5e-3 -0.128-5e-3 -0.124v-4e-3l-3e-3 -0.123-3e-3 -0.124-1e-3 -0.122-1e-3 -0.121 1e-3 -0.121 2e-3 -0.118 7e-3 -0.337 6e-3 -0.184 6e-3 -0.188v-3e-3l9e-3 -0.194v-5e-3l0.01-0.202 0.013-0.21 0.015-0.215 0.019-0.218 0.01-0.111 0.011-0.112 0.013-0.113 0.013-0.113 0.014-0.113 0.015-0.115 0.016-0.114 0.018-0.116 0.019-0.115 0.019-0.115 0.021-0.115 0.023-0.115 0.024-0.115 0.025-0.115 0.027-0.115 0.028-0.115 0.03-0.113 0.031-0.113 0.033-0.113 0.035-0.112 0.037-0.111 0.038-0.11 0.041-0.109 0.042-0.109 0.045-0.107 0.047-0.106 0.048-0.105 0.052-0.103 0.053-0.102 0.056-0.101 0.059-0.098 0.061-0.097 0.063-0.094 0.034-0.048 0.034-0.046 0.035-0.046 0.035-0.044 0.035-0.044 0.037-0.045 0.038-0.043 0.038-0.043 0.038-0.041 0.041-0.042 0.041-0.041 0.041-0.04 0.043-0.039 0.042-0.038 0.045-0.039 0.044-0.036 0.047-0.036 0.045-0.035 0.047-0.034 0.048-0.033 0.05-0.033 0.05-0.031 0.05-0.031 0.051-0.028 0.052-0.029 0.054-0.028 0.047-0.023 0.049-0.022 0.048-0.021 0.049-0.02 0.049-0.018 0.05-0.018 0.05-0.016 0.05-0.014 0.05-0.014 0.05-0.012 0.05-0.012 0.05-9e-3 0.049-9e-3 0.051-8e-3 0.05-6e-3 0.051-5e-3 0.05-4e-3 0.049-3e-3 0.05-2e-3 0.05-1e-3h0.05zm-0.072 1.042l-0.027 1e-3 -0.027 2e-3 -0.028 2e-3 -0.026 3e-3 -0.027 3e-3 -0.026 4e-3 -0.026 5e-3 -0.027 5e-3 -0.026 6e-3 -0.027 6e-3 -0.026 7e-3 -0.026 8e-3 -0.026 9e-3 -0.027 9e-3 -0.025 0.01-0.027 0.01-0.027 0.012-0.027 0.013-0.026 0.012-0.033 0.017-0.032 0.018-0.031 0.017-0.031 0.019-0.031 0.02-0.031 0.02-0.029 0.02-0.029 0.021-0.031 0.023-0.028 0.023-0.029 0.023-0.028 0.024-0.027 0.025-0.029 0.026-0.027 0.026-0.027 0.027-0.026 0.028-0.027 0.028-0.026 0.029-0.025 0.029-0.025 0.03-0.025 0.031-0.026 0.033-0.024 0.032-0.024 0.032-0.023 0.033-0.048 0.071-0.045 0.072-0.044 0.074-0.043 0.077-0.042 0.079-0.04 0.081-0.039 0.084-0.038 0.085-0.036 0.087-0.035 0.089-0.033 0.091-0.033 0.093-0.031 0.094-0.03 0.096-0.028 0.097-0.028 0.098-0.026 0.1-0.024 0.1-0.024 0.101-0.022 0.103-0.022 0.103-0.02 0.103-0.019 0.104-0.018 0.105-0.017 0.104-0.016 0.106-0.015 0.105-0.014 0.106-0.013 0.105-0.012 0.104-0.012 0.106-0.01 0.103-0.01 0.103-0.017 0.208-0.015 0.203-0.012 0.199-0.01 0.194-8e-3 0.19-6e-3 0.183-5e-3 0.176-8e-3 0.331-1e-3 0.11-1e-3 0.11v0.113l2e-3 0.113 2e-3 0.115 3e-3 0.116 5e-3 0.118 5e-3 0.119 6e-3 0.121 8e-3 0.121 8e-3 0.123 9e-3 0.124 0.011 0.125 0.011 0.126 0.013 0.127 0.013 0.128 0.015 0.128 0.016 0.129 0.016 0.131 0.018 0.131 0.019 0.132 0.02 0.132 0.021 0.133 0.022 0.134 0.023 0.134 0.024 0.135 0.025 0.134 0.027 0.137 0.027 0.134 0.029 0.136 0.03 0.137 0.03 0.136 0.032 0.137 0.033 0.137 0.034 0.136 0.035 0.136 0.036 0.137 0.038 0.137 0.038 0.136 0.04 0.137 0.041 0.136 0.042 0.136 0.042 0.135 0.045 0.136 0.045 0.135 0.046 0.134 0.048 0.135 0.048 0.133 0.05 0.133 0.05 0.131 0.052 0.133 0.053 0.13 0.054 0.13 0.056 0.131 0.056 0.128 0.057 0.126 0.06 0.129 0.06 0.125 0.06 0.125 0.063 0.124 0.063 0.122 0.064 0.122 0.066 0.121 0.067 0.119 0.067 0.117 0.069 0.118 0.07 0.115 0.071 0.113 0.072 0.113 0.074 0.111 0.074 0.109 0.076 0.108 0.076 0.106 0.077 0.105 0.079 0.103 0.08 0.101 0.081 0.099 0.083 0.099 0.082 0.095 0.084 0.093 0.086 0.093 0.086 0.09 0.088 0.088 0.088 0.085 0.089 0.084 0.091 0.082 0.092 0.081 0.093 0.077 0.093 0.075 0.095 0.074 0.095 0.07 0.098 0.069 0.098 0.066 0.099 0.065 0.1 0.061 0.101 0.06 0.103 0.056 0.104 0.056 0.05 0.024 0.053 0.027 0.053 0.025 0.052 0.024 0.054 0.024 0.054 0.023 0.053 0.023 0.055 0.022 0.054 0.021 0.055 0.021 0.054 0.019 0.055 0.02 0.055 0.018 0.055 0.018 0.056 0.017 0.058 0.017 0.056 0.016 0.058 0.015 0.058 0.015 0.057 0.014 0.059 0.013 0.057 0.013 0.057 0.011 0.062 0.012 0.058 0.01 0.061 0.01 0.06 9e-3 0.059 8e-3 0.062 8e-3 0.061 7e-3 0.06 6e-3 0.063 5e-3 0.063 5e-3 0.061 3e-3 0.064 4e-3 0.061 2e-3 0.065 1e-3 0.065 1e-3h0.063l0.066-1e-3 0.066-1e-3 0.065-3e-3 0.065-3e-3 0.065-4e-3 0.069-5e-3 0.067-5e-3 0.067-7e-3 0.07-7e-3 0.065-8e-3 0.071-0.01 0.067-9e-3 0.072-0.011 0.07-0.012 0.071-0.013 0.069-0.013 0.072-0.015 0.073-0.015 0.071-0.016 0.073-0.017 0.069-0.017 0.055-0.015 0.051-0.016 0.049-0.018 0.048-0.019 0.046-0.021 0.045-0.022 0.045-0.024 0.044-0.025 0.042-0.027 0.041-0.029 0.041-0.03 0.04-0.032 0.039-0.034 0.039-0.035 0.038-0.036 0.037-0.039 0.036-0.04 0.036-0.042 0.035-0.043 0.034-0.044 0.034-0.047 0.032-0.047 0.032-0.05 0.032-0.05 0.03-0.052 0.03-0.053 0.029-0.055 0.028-0.056 0.027-0.056 0.027-0.058 0.025-0.059 0.025-0.06 0.024-0.061 0.024-0.062 0.022-0.062 0.021-0.063 0.021-0.064 0.02-0.065 0.019-0.064 0.019-0.066 0.017-0.066 0.017-0.066 0.016-0.067 0.015-0.066 0.014-0.067 0.014-0.067 0.013-0.067 0.012-0.066 0.023-0.135 0.019-0.132 0.018-0.131 0.014-0.129 0.012-0.127 0.01-0.124 8e-3 -0.12 6e-3 -0.118 7e-3 -0.165 5e-3 -0.169 5e-3 -0.167 4e-3 -0.166 3e-3 -0.165 1e-3 -0.165 1e-3 -0.165-1e-3 -0.164-1e-3 -0.164-3e-3 -0.162-4e-3 -0.164-5e-3 -0.161-6e-3 -0.163-7e-3 -0.161-9e-3 -0.16-0.01-0.161-0.011-0.159-0.012-0.159-0.014-0.159-0.015-0.158-0.016-0.158-0.018-0.158-0.019-0.156-0.02-0.156-0.022-0.156-0.023-0.155-0.025-0.155-0.026-0.154-0.027-0.155-0.029-0.152-0.031-0.154-0.032-0.152-0.034-0.153-0.035-0.151-0.036-0.151-0.039-0.151-0.04-0.15-0.042-0.151-0.043-0.15-0.045-0.148-0.046-0.15-0.049-0.147-0.049-0.148-0.053-0.148-0.053-0.147-0.055-0.146-0.058-0.147-0.059-0.146-0.061-0.145-0.063-0.147-0.065-0.145-0.066-0.143-0.069-0.145-0.07-0.144-0.073-0.144-0.075-0.144-0.075-0.141-0.08-0.144-0.08-0.142-0.083-0.142-0.085-0.142-0.087-0.141-0.089-0.142-0.09-0.139-0.046-0.067-0.053-0.075-0.061-0.082-0.069-0.09-0.075-0.094-0.082-0.099-0.088-0.103-0.094-0.106-0.098-0.106-0.05-0.053-0.053-0.055-0.052-0.052-0.052-0.052-0.054-0.053-0.056-0.053-0.055-0.051-0.058-0.052-0.055-0.049-0.058-0.05-0.057-0.048-0.059-0.048-0.058-0.045-0.059-0.045-0.057-0.042-0.06-0.042-0.058-0.04-0.057-0.038-0.058-0.035-0.058-0.035-0.056-0.032-0.056-0.03-0.056-0.027-0.053-0.025-0.054-0.023-0.052-0.02-0.05-0.018-0.049-0.015-0.048-0.013-0.049-0.011-0.019-4e-3 -0.022-3e-3 -0.021-3e-3 -0.02-3e-3 -0.02-2e-3 -0.021-1e-3 -0.019-1e-3 -0.02-1e-3h-0.017l-0.018 1e-3 -0.018 1e-3 -0.017 1e-3 -0.016 2e-3 -0.017 3e-3 -0.016 3e-3 -0.016 3e-3 -0.015 4e-3 -0.016 4e-3 -0.015 5e-3 -0.015 5e-3 -0.015 6e-3 -0.015 6e-3 -0.015 7e-3 -0.015 8e-3 -0.015 8e-3 -0.015 8e-3 -0.015 0.01-0.015 0.01-0.016 0.011-0.016 0.013-0.016 0.013-0.022 0.019-0.735-0.053 0.054-0.735 0.033-0.029 0.04-0.032 0.042-0.032 0.042-0.03 0.041-0.028 0.044-0.028 0.044-0.025 0.042-0.023-0.146-0.109 2e-3 2e-3 -0.152-0.113-0.154-0.113-0.15-0.107-0.151-0.105-0.074-0.05-0.074-0.049-0.075-0.049-0.073-0.046-0.074-0.046-0.071-0.043-0.072-0.042-0.073-0.041-0.07-0.038-0.071-0.037-0.069-0.034-0.071-0.034-0.068-0.03-0.067-0.029-0.067-0.026-0.065-0.024-0.066-0.022-0.064-0.02-0.062-0.017-0.063-0.015-0.06-0.013-0.06-0.01-0.061-8e-3 -0.027-3e-3 -0.028-2e-3 -0.028-2e-3 -0.028-1e-3 -0.029-1e-3h-0.055z"/>
        </g>
        <path d="m176.29 328.55l1e-3 2e-3 -0.101-0.269 1e-3 2e-3 -0.102-0.268v1e-3l-0.103-0.267 1e-3 1e-3 -0.104-0.267 1e-3 1e-3 -0.104-0.266-0.105-0.266v1e-3l-0.106-0.266 1e-3 1e-3 -0.107-0.266-0.107-0.265 1e-3 2e-3 -0.217-0.531 1e-3 2e-3 -0.219-0.53 1e-3 2e-3 -0.222-0.53 1e-3 2e-3 -0.223-0.528-0.225-0.53-0.225-0.526v1e-3l-0.227-0.527-0.227-0.526-0.082-0.188-0.085-0.188 1e-3 3e-3 -0.087-0.19 2e-3 3e-3 -0.089-0.19 1e-3 2e-3 -0.178-0.38-0.089-0.19v-2e-3l-0.088-0.19-2e-3 -2e-3 -0.087-0.191-1e-3 -4e-3 -0.087-0.193-0.023-0.051-0.043 0.189v2e-3l-0.066 0.283-1e-3 2e-3 -0.067 0.283v2e-3l-0.068 0.282-1e-3 2e-3 -0.069 0.282v2e-3l-0.142 0.567-0.141 0.561-0.143 0.564v-1e-3l-0.141 0.562-0.07 0.282v-2e-3l-0.069 0.282-0.631 0.382-0.381-0.631 0.069-0.281 0.07-0.282 0.143-0.568 0.141-0.554 0.144-0.573 0.139-0.558 0.069-0.28 0.068-0.281 0.066-0.281 0.066-0.28 0.064-0.28 0.061-0.279 0.014-0.066 0.012-0.07 0.012-0.076 0.011-0.08 0.01-0.086 0.01-0.087 9e-3 -0.092 8e-3 -0.094 7e-3 -0.095 6e-3 -0.096 6e-3 -0.099 4e-3 -0.097 9e-3 -0.197 5e-3 -0.19 4e-3 -0.183 2e-3 -0.168 1e-3 -0.154v-0.132l-2e-3 -0.194-1e-3 -0.07 6e-3 -0.087 0.02-0.085 0.034-0.08 0.047-0.074 0.059-0.064 0.069-0.054 0.077-0.042 0.082-0.028 0.086-0.014 0.088 1e-3 0.086 0.015 0.082 0.029 0.076 0.043 0.068 0.055 0.058 0.065 0.046 0.074 0.033 0.081 0.019 0.085 7e-3 0.047 0.018 0.126 0.029 0.19 0.018 0.111 0.021 0.121 0.022 0.127 0.024 0.126 0.025 0.129 0.027 0.126 0.028 0.121 0.028 0.113 0.013 0.051 0.014 0.047 0.014 0.045 0.013 0.041 0.031 0.092 0.033 0.092 0.035 0.093 0.034 0.092 0.036 0.094 0.038 0.094 0.037 0.091 0.038 0.092 0.08 0.188 0.082 0.187 0.084 0.187 0.086 0.189 0.088 0.189-1e-3 -1e-3 0.095 0.202 0.173 0.37 0.088 0.19 0.088 0.192 0.087 0.194 0.085 0.193 0.229 0.53 0.228 0.531 0.228 0.531 0.222 0.523 0.225 0.533 0.223 0.534 0.22 0.53 0.218 0.534 0.108 0.267 0.108 0.271 0.106 0.266 0.104 0.264 0.106 0.271 0.106 0.272 0.102 0.266 0.102 0.27 0.102 0.27 0.103 0.277 0.097 0.265 0.099 0.273 1e-3 1e-3 0.096 0.269 0.098 0.277 0.095 0.272 0.096 0.277 0.034 0.106 0.059 0.181 0.078 0.242v-2e-3l0.096 0.296 0.11 0.332 0.123 0.363 0.065 0.189 0.068 0.194 0.067 0.191 0.07 0.194 0.07 0.19 0.071 0.192 0.072 0.187-1e-3 -4e-3 0.071 0.182 0.07 0.172 0.069 0.163 0.067 0.153 0.031 0.07 0.032 0.069 0.031 0.064 0.03 0.061 0.029 0.056 0.027 0.052 0.026 0.047 0.025 0.041 0.022 0.036 0.019 0.029 0.016 0.021 0.01 0.014 4e-3 4e-3 0.012 0.011-0.026-0.023-0.021-0.015-0.022-0.013-0.029-0.014-0.038-0.015-0.048-0.012-0.05-7e-3 0.482 0.555h1e-3l-0.557 0.483-0.044-3e-3 -0.074-0.015-0.065-0.021-0.056-0.025-0.048-0.027-0.042-0.027-0.038-0.029-0.038-0.032-0.052-0.05-0.049-0.055-0.044-0.056-0.041-0.057-0.038-0.058-0.038-0.06-0.037-0.063-0.034-0.061-5e-3 -9e-3 -0.034-0.064-0.036-0.071-0.036-0.072-0.036-0.076-0.035-0.076-3e-3 -4e-3 -0.036-0.08-0.072-0.166-0.073-0.173-2e-3 -6e-3 -0.073-0.181-0.074-0.188-0.074-0.192-1e-3 -3e-3 -0.073-0.193-1e-3 -4e-3 -0.073-0.198-0.07-0.197-1e-3 -2e-3 -0.07-0.198-0.068-0.195-1e-3 -2e-3 -0.065-0.19-1e-3 -3e-3 -0.125-0.368-0.112-0.337v-2e-3l-0.096-0.292-0.079-0.247-0.058-0.178 1e-3 3e-3 -0.033-0.1-0.092-0.268-0.094-0.269-0.095-0.269v2e-3l-0.096-0.269-0.098-0.27 1e-3 2e-3 -0.099-0.27v2e-3l-0.1-0.269z"/>
        <path d="m288.53 271.63l0.059 2e-3 0.058 3e-3 0.057 5e-3 0.056 5e-3 0.056 6e-3 0.057 8e-3 0.052 8e-3 9e-3 1e-3 0.051 9e-3 0.056 0.01 0.056 0.012 0.056 0.012 0.055 0.013 0.057 0.015 0.054 0.015 0.051 0.015 8e-3 3e-3 0.05 0.015 0.054 0.018 0.055 0.019 0.054 0.02 0.106 0.041 0.105 0.044 0.105 0.049 0.103 0.05 0.102 0.054 0.101 0.056 0.098 0.058 0.098 0.062 0.097 0.064 0.095 0.066 0.094 0.069 0.091 0.07 0.09 0.073 0.088 0.075 0.087 0.076 0.085 0.08 0.082 0.079 0.08 0.083 0.079 0.084 0.076 0.086 0.075 0.087 0.071 0.088 0.065 0.085 8e-3 0.01 0.059 0.081 8e-3 0.011 0.061 0.088 0.061 0.093 0.059 0.095 0.055 0.094 0.109 0.197 0.107 0.197 0.102 0.196 3e-3 6e-3 0.101 0.197 0.097 0.197 3e-3 6e-3 0.095 0.2 0.094 0.203 0.092 0.204 0.089 0.205 0.088 0.21 0.085 0.207 0.081 0.208 0.081 0.211 0.077 0.211 0.074 0.21 0.074 0.216 0.07 0.212 0.068 0.216 0.066 0.214 0.063 0.217 0.062 0.218 0.059 0.219 0.056 0.219 0.054 0.217 0.052 0.22 0.049 0.221 0.048 0.222 0.045 0.222 0.042 0.222 0.041 0.222 0.038 0.224 0.036 0.226 0.033 0.22 0.031 0.224 1e-3 5e-3 0.029 0.222 0.026 0.223 1e-3 5e-3 0.024 0.221 0.023 0.228 0.02 0.225 0.017 0.224 0.016 0.225 0.013 0.228 0.011 0.225 9e-3 0.225 7e-3 0.228 4e-3 0.228 3e-3 0.225v0.225l-3e-3 0.224-4e-3 0.227-7e-3 0.223v5e-3l-9e-3 0.224-0.01 0.223-0.014 0.227-0.015 0.222-0.018 0.223-0.019 0.222-0.022 0.225-0.024 0.222-0.026 0.22-0.029 0.224-0.031 0.22-0.032 0.219-0.035 0.221-0.047 0.278-0.027 0.153-0.031 0.171-0.021 0.112 0.166 0.06 0.176 0.066 0.363 0.138 0.352 0.135 0.705 0.273 0.342 0.131 0.165 0.062 0.164 0.061 0.157 0.057 0.155 0.056 0.155 0.053 0.152 0.052 0.144 0.046 0.141 0.044 0.137 0.041 0.131 0.037 0.129 0.033 0.061 0.015 0.061 0.014 0.057 0.013 0.056 0.011 0.057 0.011 0.054 9e-3 0.051 9e-3 0.05 7e-3 0.049 6e-3 0.048 5e-3 0.045 4e-3 0.042 2e-3 0.04 2e-3h0.091l0.057-1e-3 0.053-2e-3 0.057-4e-3 0.054-3e-3 0.057-5e-3 0.057-6e-3 0.057-7e-3 0.058-7e-3 0.055-8e-3 0.059-0.01 0.057-0.01 0.058-0.011 0.056-0.012 0.058-0.013 0.056-0.014 0.058-0.015 0.056-0.015 0.056-0.017 0.055-0.017 0.056-0.019 0.054-0.019 0.054-0.02 0.054-0.021 0.051-0.022 0.052-0.023 0.051-0.023 0.05-0.024 0.051-0.026 0.047-0.026 0.047-0.026 0.047-0.028 0.044-0.028 0.045-0.029 0.042-0.03 0.042-0.03 0.041-0.032 0.038-0.031 0.039-0.033 0.036-0.033 0.035-0.034 0.034-0.034 0.032-0.035 0.031-0.036 0.029-0.035 0.029-0.037 0.027-0.038 0.024-0.037 0.024-0.039 0.023-0.04 0.021-0.039 0.02-0.041 0.018-0.042 0.017-0.042 0.015-0.043 0.014-0.044 0.013-0.046 0.011-0.047 9e-3 -0.047 8e-3 -0.049 6e-3 -0.051 5e-3 -0.051 3e-3 -0.054 1e-3 -0.063 0.529-0.512 0.512 0.53-1e-3 0.081-5e-3 0.09-8e-3 0.089-0.011 0.088-0.013 0.086-0.017 0.084-0.02 0.084-0.02 0.073-5e-3 0.018-0.023 0.071-0.028 0.079-0.027 0.069-7e-3 0.018-0.03 0.067-0.036 0.075-0.038 0.071-0.04 0.07-0.043 0.07-0.04 0.059-0.01 0.015-0.041 0.057-0.049 0.064-0.05 0.062-0.047 0.053-0.01 0.012-0.049 0.052-0.054 0.056-0.057 0.054-0.053 0.048-0.01 0.01-0.049 0.041-0.011 9e-3 -0.055 0.046-0.056 0.042-0.01 8e-3 -0.058 0.042-0.064 0.045-0.059 0.039-0.01 6e-3 -0.06 0.038-0.067 0.04-0.062 0.035-9e-3 5e-3 -0.063 0.034-0.064 0.032-9e-3 5e-3 -0.066 0.032-0.064 0.029-9e-3 4e-3 -0.061 0.027-9e-3 4e-3 -0.066 0.027-0.071 0.028-0.071 0.027-0.073 0.026-0.068 0.022-8e-3 3e-3 -0.069 0.022-0.068 0.02-8e-3 2e-3 -0.07 0.019-0.072 0.019-0.069 0.017-8e-3 2e-3 -0.069 0.015-0.069 0.015-8e-3 2e-3 -0.069 0.013-0.07 0.013-8e-3 1e-3 -0.065 0.01-8e-3 2e-3 -0.065 9e-3 -8e-3 1e-3 -0.065 9e-3 -7e-3 1e-3 -0.069 8e-3 -0.073 7e-3 -0.072 6e-3 -0.071 5e-3 -0.071 4e-3 -0.068 3e-3h-8e-3l-0.063 1e-3 -8e-3 1e-3h-0.067l-0.065-1e-3 -0.066-2e-3 -0.065-4e-3 -0.066-6e-3 -0.069-7e-3 -0.062-8e-3 -0.01-1e-3 -0.059-9e-3 -9e-3 -1e-3 -0.06-0.01-8e-3 -1e-3 -0.065-0.011-0.067-0.013-7e-3 -2e-3 -0.064-0.013-0.071-0.015-6e-3 -2e-3 -0.069-0.016-0.07-0.016-7e-3 -2e-3 -0.137-0.036-0.01-2e-3 -0.144-0.041-0.153-0.045-0.151-0.047-6e-3 -2e-3 -0.153-0.05-0.158-0.053-5e-3 -2e-3 -0.157-0.055-0.164-0.058-3e-3 -1e-3 -0.163-0.06-3e-3 -1e-3 -0.165-0.061-2e-3 -1e-3 -0.168-0.063-2e-3 -1e-3 -0.341-0.13-2e-3 -1e-3 -0.701-0.271h1e-3l-0.355-0.137-0.356-0.135-0.179-0.066-0.017-6e-3 -5e-3 0.023-0.051 0.212-0.054 0.213-2e-3 6e-3 -0.057 0.215-0.031 0.111-0.031 0.109-1e-3 3e-3 -0.032 0.109-0.034 0.112-0.034 0.108-0.035 0.111-0.037 0.11-0.038 0.111-0.037 0.108-0.04 0.108-0.041 0.109-0.041 0.107-0.043 0.107-0.044 0.106-0.045 0.104-0.047 0.105-0.047 0.101-0.049 0.101-0.051 0.099-0.051 0.098-0.054 0.097-0.054 0.094-0.056 0.093-0.058 0.091-0.06 0.089-0.057 0.081-8e-3 0.011-0.059 0.08-0.065 0.081-0.067 0.081-0.068 0.075-0.037 0.039-0.037 0.038-0.036 0.035-0.037 0.035-0.038 0.035-0.04 0.035-0.039 0.033-0.042 0.033-0.04 0.031-0.041 0.03-0.042 0.029-0.043 0.029-0.044 0.027-0.044 0.027-0.045 0.025-0.047 0.024-0.063 0.031-0.063 0.029-0.063 0.027-0.064 0.024-0.063 0.023-0.064 0.02-0.064 0.019-0.063 0.016-0.064 0.014-0.064 0.012-0.065 9e-3 -0.064 8e-3 -0.062 5e-3 -0.064 3e-3 -0.063 2e-3 -0.063-2e-3 -0.063-3e-3 -0.061-5e-3 -0.061-8e-3 -0.062-9e-3 -0.06-0.012-0.058-0.013-0.059-0.015-0.059-0.018-0.057-0.019-0.056-0.02-0.055-0.023-0.055-0.024-0.052-0.025-0.054-0.027-0.051-0.028-0.05-0.03-0.051-0.032-0.049-0.033-0.047-0.033-0.047-0.034-0.047-0.037-0.045-0.037-0.044-0.038-0.044-0.04-0.042-0.039-0.041-0.041-0.04-0.041-0.04-0.043-0.039-0.043-0.039-0.046-0.037-0.045-0.035-0.044-0.037-0.048-0.035-0.047-0.034-0.049-0.033-0.047-0.033-0.05-0.03-0.047-4e-3 -7e-3 -0.029-0.046-0.03-0.051-0.028-0.049-4e-3 -7e-3 -0.028-0.049-0.027-0.052-0.028-0.054-0.053-0.107-0.05-0.109-0.047-0.11-0.045-0.114-0.042-0.114-0.039-0.114-0.036-0.115-0.034-0.118-0.031-0.117-0.028-0.119-0.026-0.118-0.022-0.118-0.02-0.119-0.016-0.119-0.014-0.119-0.011-0.119-8e-3 -0.117-5e-3 -0.119-1e-3 -0.116 1e-3 -0.117 5e-3 -0.117 8e-3 -0.111 5e-3 -0.059 6e-3 -0.057 7e-3 -0.055 8e-3 -0.057 9e-3 -0.056 0.01-0.055 0.011-0.055 0.012-0.055 0.012-0.054 0.014-0.053 0.015-0.053 0.016-0.054 0.017-0.053 0.018-0.052 0.019-0.051 0.021-0.052 0.021-0.051 0.023-0.05 0.024-0.049 0.025-0.048 0.027-0.048 0.029-0.048 0.03-0.047 0.031-0.046 0.05-0.068 0.053-0.067 0.054-0.063 0.057-0.061 0.059-0.059 0.061-0.056 0.063-0.052 0.065-0.05 0.066-0.048 0.069-0.045 0.069-0.041 0.07-0.04 0.073-0.036 0.073-0.034 0.073-0.031 0.075-0.028 0.076-0.026 0.077-0.024 0.076-0.021 0.08-0.019 0.077-0.016 0.078-0.015 0.08-0.012 0.081-0.011 0.08-8e-3 0.082-7e-3 0.081-5e-3 0.082-3e-3 0.083-2e-3h0.083l0.083 2e-3 0.085 3e-3 0.083 4e-3 0.085 6e-3 0.085 8e-3 0.087 8e-3 0.083 0.01 0.088 0.012 0.088 0.012 0.087 0.014 0.085 0.014 0.086 0.015 5e-3 1e-3 0.087 0.017 0.089 0.018 0.085 0.018 0.089 0.02 0.088 0.021 0.09 0.021 6e-3 2e-3 0.176 0.045 0.182 0.049 0.18 0.051 0.181 0.055 0.128 0.039 0.022-0.121 0.027-0.154 0.045-0.269 0.033-0.208 0.031-0.211 0.029-0.208 0.028-0.212 0.025-0.212 0.022-0.21 0.021-0.214 0.019-0.214 0.017-0.214 0.015-0.215 0.012-0.212 0.011-0.216 8e-3 -0.212 7e-3 -0.216 4e-3 -0.217 2e-3 -0.216v-0.214l-2e-3 -0.217-4e-3 -0.214-7e-3 -0.217-8e-3 -0.216-0.011-0.214-0.013-0.217-0.014-0.213-0.017-0.217-0.02-0.216-0.021-0.213-0.024-0.218-0.025-0.213-0.028-0.215-0.029-0.212-0.032-0.213-0.034-0.214-0.037-0.216-0.038-0.21-0.041-0.212-0.043-0.211-0.045-0.21-0.047-0.21-0.05-0.212-0.051-0.205-0.054-0.211-0.056-0.206-0.058-0.207-0.06-0.204-0.063-0.207-0.064-0.203-0.068-0.205-0.068-0.2-0.071-0.2-0.073-0.201-0.076-0.199-0.078-0.197-0.08-0.197-0.083-0.198-0.084-0.194-0.086-0.191-0.089-0.192-0.092-0.193-0.093-0.188-0.096-0.189-0.098-0.186-0.099-0.184-0.102-0.184-0.042-0.073-0.045-0.071-0.047-0.072-0.049-0.071-0.052-0.07-0.053-0.07-0.057-0.069-0.057-0.068-0.061-0.068-0.061-0.066-0.063-0.064-0.066-0.065-0.067-0.062-0.069-0.061-0.069-0.059-0.071-0.057-0.072-0.056-0.074-0.054-0.073-0.051-0.076-0.05-0.076-0.048-0.077-0.045-0.076-0.043-0.078-0.041-0.078-0.038-0.079-0.036-0.077-0.033-0.081-0.031-0.037-0.013-0.038-0.014-0.04-0.013-0.038-0.012-0.039-0.011-0.038-0.011-0.038-0.01-0.039-9e-3 -0.038-9e-3 -0.039-8e-3 -0.037-7e-3 -0.038-6e-3 -0.038-6e-3 -0.037-5e-3 -0.038-4e-3 -0.035-3e-3 -0.038-3e-3 -0.036-2e-3 -0.035-1e-3 -0.037-1e-3 -0.037 1e-3 -0.034 1e-3 -0.035 1e-3 -0.035 3e-3 -0.034 3e-3 -0.036 4e-3 -0.034 5e-3 -0.033 5e-3 -0.034 6e-3 -0.033 7e-3 -0.033 8e-3 -0.032 8e-3 -0.034 0.01-0.031 0.01-0.033 0.011-0.032 0.012-0.031 0.012-0.032 0.013-0.032 0.015-0.03 0.014-0.031 0.016-0.031 0.017-0.031 0.018-0.03 0.018-0.031 0.02-0.03 0.021-0.03 0.022-0.03 0.023-0.031 0.024-0.029 0.024-0.029 0.026-0.03 0.028-0.03 0.028-0.029 0.03-0.028 0.03-0.03 0.033-0.029 0.033-0.028 0.034-0.029 0.037-0.028 0.037-0.028 0.039-0.028 0.041-0.028 0.042-0.027 0.043-0.027 0.044-0.026 0.045-0.027 0.049-0.026 0.049-0.026 0.051-0.025 0.052-0.026 0.055-0.024 0.056-0.053 0.123 1e-3 -3e-3 -0.052 0.123-0.052 0.126 1e-3 -2e-3 -0.05 0.123-0.1 0.251-0.097 0.25-0.096 0.254 2e-3 -4e-3 -0.095 0.257 1e-3 -3e-3 -0.093 0.257 1e-3 -3e-3 -0.092 0.258 1e-3 -2e-3 -0.185 0.523-0.176 0.501-0.093 0.265-1e-3 2e-3 -0.092 0.258-0.093 0.258-1e-3 3e-3 -0.094 0.257-0.668 0.309-0.31-0.668 0.094-0.257-1e-3 3e-3 0.093-0.256 0.093-0.262 0.088-0.251v1e-3l0.178-0.508 0.185-0.525 0.093-0.259 1e-3 -2e-3 0.093-0.259 0.096-0.26 0.097-0.257 2e-3 -4e-3 0.099-0.256 0.103-0.259 0.051-0.125 0.056-0.137 0.053-0.124 1e-3 -3e-3 0.055-0.128 0.032-0.073 0.032-0.068 0.034-0.07 0.034-0.067 0.035-0.067 0.036-0.065 0.036-0.062 0.038-0.063 0.038-0.06 0.04-0.06 0.04-0.058 0.04-0.056 0.043-0.056 0.042-0.053 0.043-0.053 0.044-0.051 0.045-0.049 0.045-0.049 0.046-0.046 0.047-0.045 0.048-0.044 0.048-0.042 0.05-0.042 0.048-0.039 0.051-0.038 0.051-0.037 0.051-0.035 0.053-0.034 0.052-0.032 0.053-0.031 0.054-0.029 0.053-0.027 0.055-0.027 0.056-0.025 0.056-0.024 0.055-0.022 0.055-0.02 0.056-0.019 0.057-0.017 0.057-0.017 0.056-0.014 0.058-0.014 0.057-0.012 0.058-0.011 0.057-9e-3 0.058-8e-3 0.055-6e-3 0.057-5e-3 0.059-5e-3 0.057-2e-3 0.059-2e-3h0.112zm4.047 18.888l0.033-0.106-1e-3 4e-3 0.031-0.104 0.031-0.105 0.03-0.103-1e-3 3e-3 0.029-0.105 0.055-0.205 0.052-0.206 0.048-0.2 0.03-0.127-0.05-0.016-0.171-0.054-0.17-0.051-0.168-0.048-0.168-0.045-0.163-0.042-0.078-0.019-0.081-0.019-0.08-0.017-0.079-0.017-0.077-0.016-0.077-0.014-0.077-0.014-0.076-0.013-0.076-0.012-0.072-0.01-0.073-0.01-0.07-8e-3 -0.071-7e-3 -0.069-6e-3 -0.067-5e-3 -0.069-4e-3 -0.064-2e-3 -0.064-1e-3h-0.064l-0.062 1e-3 -0.062 2e-3 -0.057 4e-3 -0.057 5e-3 -0.056 5e-3 -0.055 8e-3 -0.054 8e-3 -0.051 0.01-0.05 0.01-0.049 0.012-0.047 0.013-0.045 0.014-0.044 0.015-0.042 0.016-0.04 0.017-0.041 0.018-0.037 0.019-0.037 0.021-0.036 0.021-0.033 0.022-0.034 0.024-0.032 0.025-0.031 0.026-0.03 0.028-0.029 0.029-0.029 0.03-0.028 0.032-0.027 0.034-0.026 0.037-0.013 0.019-0.013 0.02-0.013 0.022-0.013 0.023-0.012 0.023-0.013 0.026-0.011 0.025-0.012 0.027-0.011 0.028-0.011 0.03-0.011 0.03-9e-3 0.031-0.01 0.031-0.01 0.035-8e-3 0.033-8e-3 0.034-8e-3 0.037-7e-3 0.036-6e-3 0.036-7e-3 0.04-5e-3 0.037-5e-3 0.041-4e-3 0.04-4e-3 0.038-6e-3 0.087-4e-3 0.085-1e-3 0.087 2e-3 0.089 3e-3 0.091 6e-3 0.092 9e-3 0.093 0.011 0.095 0.013 0.093 0.016 0.095 0.018 0.095 0.02 0.095 0.022 0.094 0.025 0.093 0.027 0.093 0.029 0.093 0.031 0.09 0.033 0.09 0.035 0.088 0.036 0.086 0.039 0.084 0.041 0.083 0.02 0.039 0.021 0.038 0.022 0.04 0.022 0.039 0.022 0.037 0.022 0.036 0.023 0.036 0.023 0.034 0.024 0.035 0.024 0.034 0.024 0.032 0.023 0.031 0.026 0.032 0.025 0.031 0.024 0.028 0.025 0.028 0.026 0.027 0.025 0.026 0.025 0.025 0.026 0.024 0.026 0.023 0.025 0.022 0.026 0.021 0.026 0.021 0.025 0.019 0.026 0.018 0.026 0.017 0.025 0.016 0.026 0.015 0.026 0.014 0.026 0.013 0.025 0.012 0.025 0.011 0.026 0.011 0.025 9e-3 0.025 8e-3 0.025 8e-3 0.026 7e-3 0.025 5e-3 0.026 5e-3 0.027 4e-3 0.025 3e-3 0.026 3e-3 0.027 1e-3 0.027 1e-3 0.028-1e-3 0.028-1e-3 0.029-3e-3 0.028-3e-3 0.03-4e-3 0.03-6e-3 0.032-7e-3 0.031-8e-3 0.033-9e-3 0.033-0.011 0.034-0.012 0.036-0.014 0.035-0.015 0.037-0.017 0.038-0.018 0.02-0.011 0.023-0.013 0.02-0.012 0.022-0.013 0.022-0.015 0.022-0.016 0.023-0.016 0.022-0.017 0.022-0.018 0.023-0.019 0.023-0.02 0.023-0.021 0.023-0.021 0.022-0.023 0.024-0.024 0.021-0.022 0.048-0.054 0.047-0.055 0.046-0.059 0.046-0.062 0.046-0.064 0.046-0.069 0.045-0.071 0.044-0.073 0.045-0.077 0.043-0.078 0.043-0.082 0.042-0.083 0.042-0.088 0.041-0.087 0.04-0.089 0.04-0.093 0.039-0.094 0.038-0.094 0.037-0.094 0.036-0.097 0.036-0.1 0.035-0.097 0.034-0.102 0.035-0.104-2e-3 4e-3 0.033-0.102z"/>
        <path d="m411.25 231.11l0.046-0.153 0.044-0.154-1e-3 4e-3 0.044-0.159 0.042-0.156 0.041-0.156 0.039-0.155 0.038-0.162 0.037-0.159 0.036-0.162 0.033-0.159 0.031-0.16 0.03-0.162 0.029-0.164 0.026-0.161 0.023-0.161 0.022-0.162 0.019-0.16 0.017-0.162 0.015-0.16 0.012-0.161 9e-3 -0.158 6e-3 -0.158 2e-3 -0.077 2e-3 -0.081v4e-3l1e-3 -0.079v-0.079l-1e-3 -0.078-2e-3 -0.075-2e-3 -0.076-3e-3 -0.076-4e-3 -0.075-5e-3 -0.078-5e-3 -0.073-6e-3 -0.073-7e-3 -0.075-8e-3 -0.073-9e-3 -0.073-9e-3 -0.072-0.01-0.071-0.012-0.072-0.012-0.071-0.013-0.07-0.014-0.069-0.015-0.07-0.015-0.067-0.017-0.068-0.016-0.065-0.019-0.068-0.019-0.065-0.02-0.065-0.021-0.065-0.022-0.063-0.023-0.063-0.024-0.062-0.024-0.061-0.027-0.061-0.026-0.06-0.028-0.059-0.029-0.059-0.029-0.057-0.031-0.057-0.031-0.055-0.032-0.056-0.035-0.055-0.034-0.053-0.036-0.054-0.036-0.051-0.038-0.052-0.039-0.051-0.04-0.049-0.04-0.049-0.044-0.05-0.042-0.046-0.045-0.047-0.046-0.046-0.046-0.045-0.049-0.045-0.048-0.043-0.024-0.019-0.022-0.017-0.025-0.018-0.025-0.017-0.027-0.017-0.028-0.016-0.029-0.016-0.032-0.015-0.032-0.015-0.033-0.014-0.036-0.014-0.036-0.014-0.037-0.012-0.039-0.012-0.041-0.012-0.041-0.011-0.043-0.01-0.044-9e-3 -0.046-9e-3 -0.046-8e-3 -0.048-7e-3 -0.049-7e-3 -0.049-5e-3 -0.051-5e-3 -0.052-4e-3 -0.054-4e-3 -0.052-2e-3 -0.056-2e-3 -0.055-1e-3 -0.058-1e-3 -0.057 1e-3 -0.058 1e-3 -0.059 3e-3 -0.06 2e-3 -0.059 4e-3 -0.061 5e-3 -0.062 5e-3 -0.062 6e-3 -0.062 7e-3 -0.064 7e-3 -0.128 0.018-0.131 0.02-0.13 0.023-0.133 0.027-0.134 0.029-0.134 0.031-0.136 0.035-0.135 0.036-0.137 0.04-0.136 0.042-0.137 0.044-0.136 0.047-0.134 0.048-0.135 0.051-0.134 0.053-0.132 0.054-0.13 0.057-0.129 0.058-0.128 0.061-0.126 0.061-0.122 0.063-0.121 0.065-0.119 0.066-0.114 0.067-0.113 0.068-0.109 0.069-0.104 0.069-0.103 0.072-0.049 0.035-0.048 0.035-0.048 0.036-0.046 0.036-0.046 0.036-0.043 0.035-0.043 0.036-0.042 0.036-0.041 0.036-0.039 0.035-0.038 0.036-0.038 0.037-0.034 0.034-0.035 0.036-0.033 0.035-0.032 0.036-0.031 0.035-0.028 0.033-0.028 0.034-0.026 0.035-0.025 0.033-0.023 0.033-0.022 0.033-0.02 0.031-0.02 0.032-0.017 0.031-0.016 0.03-0.015 0.029-0.014 0.03-0.011 0.027-0.011 0.028-0.01 0.029-0.032 0.097-0.035 0.111-0.036 0.122-0.037 0.125-0.039 0.138-0.04 0.141-0.041 0.15 1e-3 -2e-3 -0.042 0.156 1e-3 -3e-3 -0.086 0.327 1e-3 -3e-3 -0.087 0.341 1e-3 -3e-3 -0.087 0.349-0.087 0.355v-1e-3l-0.086 0.356 1e-3 -1e-3 -0.085 0.355-0.158 0.67 1e-3 -1e-3 -0.145 0.62-0.112 0.479-0.626 0.389-0.389-0.626 0.119-0.506 0.138-0.594 0.16-0.68 0.085-0.356 0.086-0.356 0.086-0.352 0.089-0.356 0.088-0.343 0.086-0.331 0.041-0.153 0.043-0.157 0.042-0.149 0.039-0.14 0.041-0.139 0.038-0.126 0.038-0.121 0.039-0.118 0.019-0.056 0.023-0.059 0.025-0.058 0.026-0.056 0.028-0.056 0.03-0.056 0.031-0.054 0.033-0.055 0.034-0.053 0.035-0.053 0.037-0.052 0.038-0.051 0.04-0.052 0.041-0.05 0.042-0.05 0.039-0.045 7e-3 -7e-3 0.04-0.045 0.046-0.049 0.047-0.048 0.047-0.047 0.046-0.044 6e-3 -6e-3 0.046-0.043 0.051-0.047 0.049-0.043 5e-3 -5e-3 0.05-0.042 0.054-0.045 0.055-0.045 0.054-0.043 0.058-0.045 0.056-0.042 0.059-0.044 0.06-0.042 0.119-0.083 0.124-0.082 0.125-0.079 0.129-0.079 0.133-0.077 0.133-0.074 0.136-0.073 0.136-0.07 8e-3 -4e-3 0.136-0.067 0.143-0.067 0.145-0.066 0.142-0.061 8e-3 -3e-3 0.143-0.06 0.149-0.059 0.15-0.056 0.15-0.054 0.151-0.052 0.153-0.05 0.152-0.046 0.153-0.045 0.153-0.041 0.152-0.039 0.153-0.036 0.152-0.033 0.152-0.029 0.151-0.027 0.15-0.024 0.15-0.02 0.076-9e-3 0.07-8e-3 6e-3 -1e-3 0.072-6e-3 0.074-7e-3 0.072-5e-3 0.073-5e-3 0.072-3e-3 0.073-3e-3 0.072-2e-3h0.144l0.071 1e-3 0.068 3e-3 0.071 3e-3 0.071 5e-3 0.067 5e-3 0.069 7e-3 0.064 7e-3 9e-3 1e-3 0.062 8e-3 0.068 0.011 0.067 0.011 0.065 0.013 0.066 0.014 0.065 0.015 0.064 0.017 0.064 0.018 0.063 0.019 0.063 0.022 0.062 0.022 0.06 0.024 0.061 0.026 0.059 0.028 0.059 0.029 0.057 0.031 0.057 0.032 0.056 0.035 0.054 0.036 0.054 0.039 0.052 0.04 0.049 0.041 0.069 0.06 0.065 0.061 0.062 0.06 0.062 0.062 0.06 0.063 0.059 0.064 0.057 0.065 0.055 0.067 0.054 0.066 0.052 0.068 0.05 0.069 0.05 0.07 0.048 0.071 0.046 0.072 0.041 0.067 5e-3 9e-3 0.04 0.067 0.042 0.075 0.041 0.076 0.037 0.073 0.038 0.076 0.035 0.076 0.035 0.078 0.033 0.077 0.031 0.078 0.03 0.078 0.029 0.08 0.028 0.08 0.026 0.08 0.026 0.082 0.023 0.08 0.023 0.082 0.021 0.082 0.02 0.082 0.019 0.084 0.018 0.082 0.016 0.084 0.016 0.084 0.014 0.086 0.013 0.081 0.013 0.088 0.011 0.083 0.01 0.085 9e-3 0.085 9e-3 0.088 7e-3 0.085 6e-3 0.088 5e-3 0.084 5e-3 0.087 3e-3 0.087 3e-3 0.086 1e-3 0.087 1e-3 0.089v0.089l-1e-3 0.086-1e-3 0.085v5e-3l-3e-3 0.085-7e-3 0.176-0.01 0.176-0.013 0.175-0.016 0.177-0.018 0.172-1e-3 8e-3 -0.021 0.173-0.023 0.173-0.026 0.177-0.028 0.176-0.03 0.172-0.032 0.175-0.034 0.173-0.036 0.17-0.038 0.172-0.038 0.167-1e-3 5e-3 -0.041 0.168-0.041 0.165-0.043 0.165-1e-3 4e-3 -0.044 0.165-0.046 0.162-0.045 0.158-1e-3 4e-3 -0.047 0.157-0.048 0.157-0.048 0.154-0.05 0.156-0.049 0.15-0.048 0.14 0.037-9e-3 0.071-0.016 0.07-0.014 0.071-0.014 0.072-0.012 0.072-0.012 0.072-0.01 0.073-0.01 0.073-8e-3 0.073-8e-3 0.073-6e-3 0.075-5e-3 0.074-4e-3 0.074-3e-3 0.075-2e-3 0.075-1e-3 0.075 1e-3 0.075 1e-3 0.077 3e-3 0.075 4e-3 0.075 5e-3 0.078 6e-3 0.075 7e-3 0.077 8e-3 0.077 0.01 0.076 0.01 0.078 0.012 0.076 0.013 0.077 0.015 0.077 0.015 0.078 0.017 0.077 0.018 0.077 0.019 0.078 0.02 0.076 0.022 0.078 0.022 0.078 0.025 0.077 0.025 0.077 0.027 0.073 0.026 7e-3 3e-3 0.073 0.027 0.077 0.03 0.056 0.024 0.056 0.024 0.052 0.023 8e-3 4e-3 0.05 0.024 0.054 0.026 0.055 0.028 0.054 0.029 0.053 0.03 0.052 0.029 0.052 0.031 0.049 0.03 6e-3 4e-3 0.049 0.031 0.05 0.033 0.051 0.034 0.099 0.07 0.098 0.073 0.095 0.075 0.094 0.078 0.093 0.08 0.091 0.083 0.085 0.081 8e-3 8e-3 0.08 0.079 8e-3 8e-3 0.082 0.085 0.085 0.091 0.082 0.092 0.082 0.095 0.081 0.097 0.078 0.097 0.077 0.099 0.077 0.102 0.074 0.102 0.071 0.1 4e-3 6e-3 0.07 0.101 0.071 0.108 0.069 0.106 0.067 0.106 0.066 0.107 3e-3 5e-3 0.064 0.107 0.064 0.111 0.063 0.11 0.062 0.112 0.06 0.113 0.06 0.113 0.058 0.111 0.056 0.112 0.056 0.115 0.055 0.113 0.054 0.115 0.051 0.111 0.053 0.115 0.05 0.115 0.048 0.11 0.049 0.114 0.046 0.112 0.046 0.111 0.044 0.11 0.044 0.111 0.083 0.217 0.079 0.214 0.075 0.211 0.071 0.207 0.067 0.201 0.063 0.196 0.058 0.188 0.034 0.113 0.032 0.11 0.031 0.113 0.029 0.112 0.029 0.113 0.027 0.113 0.025 0.113 0.024 0.113 0.023 0.11 0.021 0.113 0.02 0.113 0.019 0.113 0.017 0.11 1e-3 6e-3 0.016 0.109 0.015 0.111 0.013 0.115 0.012 0.11 0.011 0.11 0.01 0.115 8e-3 0.113 7e-3 0.109 5e-3 0.113 4e-3 0.109 3e-3 0.112 2e-3 0.112v0.109l-1e-3 0.111-2e-3 0.111-3e-3 0.111-5e-3 0.109-6e-3 0.11-8e-3 0.111-8e-3 0.107-0.01 0.11-0.011 0.11-0.013 0.106-0.013 0.109-0.015 0.107-0.017 0.108-0.017 0.108-0.018 0.105-0.021 0.108-0.021 0.107-0.022 0.107-0.024 0.104-0.024 0.103-0.027 0.109-0.027 0.102-0.028 0.105-0.03 0.102-0.03 0.101-2e-3 6e-3 -0.03 0.097-2e-3 6e-3 -0.033 0.1-0.034 0.103-0.036 0.102-0.035 0.097-0.04 0.103-0.038 0.098-0.041 0.1-0.041 0.1-0.042 0.097-0.045 0.101-0.046 0.098-0.045 0.095-0.046 0.095-3e-3 5e-3 -0.047 0.093-0.05 0.096-0.051 0.095-0.051 0.093-0.053 0.093-0.054 0.094-0.057 0.095-0.055 0.089-0.057 0.092-0.06 0.092-0.059 0.088-0.062 0.091-0.061 0.089-0.063 0.088-0.064 0.087-0.065 0.086-0.068 0.088-0.067 0.085-0.068 0.084-0.069 0.084-0.069 0.081-4e-3 5e-3 -0.07 0.081-0.072 0.081-0.075 0.082-0.075 0.08-0.077 0.08-0.074 0.077-0.079 0.079-0.078 0.076-0.081 0.077-0.079 0.073-4e-3 5e-3 -0.08 0.072-0.084 0.075-0.081 0.07-5e-3 4e-3 -0.084 0.071-0.084 0.07-0.087 0.07-0.089 0.071-0.088 0.068-0.091 0.069-0.091 0.066-0.091 0.065-0.093 0.066-0.092 0.063-5e-3 3e-3 -0.093 0.062-0.094 0.062-0.098 0.062-0.098 0.06-0.098 0.059-0.1 0.059-0.101 0.057-0.1 0.056-0.101 0.055-5e-3 3e-3 -0.101 0.053-0.104 0.053-0.106 0.053-0.105 0.051-0.106 0.05-0.109 0.05-0.11 0.048-0.106 0.046-5e-3 2e-3 -0.107 0.045-0.112 0.045-0.115 0.045-0.119 0.044-0.124 0.044-0.128 0.043-0.132 0.044-0.137 0.042-0.139 0.042-0.144 0.041-0.146 0.04-0.148 0.04-0.152 0.038-0.154 0.037-0.156 0.036-0.159 0.035-0.159 0.033-0.16 0.031-0.163 0.03-0.161 0.027-0.164 0.026-0.163 0.024-0.163 0.022-0.162 0.019-0.163 0.017-0.161 0.014-0.16 0.012-0.16 8e-3 -0.155 6e-3 -0.081 2e-3 -0.078 1e-3h-0.076l-0.078-1e-3 -0.075-2e-3 -0.075-3e-3 -0.076-3e-3 -0.074-5e-3 -0.075-5e-3 -0.073-6e-3 -0.072-8e-3 -0.072-8e-3 -0.072-0.01-0.07-0.011-0.071-0.012-0.068-0.013-0.069-0.015-0.068-0.015-0.067-0.018-0.066-0.018-0.065-0.02-0.066-0.022-0.063-0.024-0.063-0.025-0.062-0.027-0.062-0.03-0.06-0.031-0.059-0.033-0.058-0.036-0.057-0.038-0.055-0.041-0.054-0.044-0.052-0.046-0.05-0.049-0.048-0.052-0.045-0.053-0.044-0.058-0.04-0.06-0.037-0.062-0.033-0.065-0.03-0.067-0.027-0.069-0.022-0.07-0.019-0.071-0.015-0.074-0.011-0.074-7e-3 -0.074-3e-3 -0.075v-0.076l4e-3 -0.076 7e-3 -0.077 0.01-0.077 0.014-0.077 0.016-0.076 0.02-0.08 0.023-0.078 0.025-0.077 0.029-0.08 0.031-0.08 0.035-0.081 0.037-0.082 0.04-0.083 0.043-0.083 0.046-0.084 0.048-0.085 0.052-0.088 0.055-0.087 0.057-0.089 0.061-0.09 0.064-0.093 0.066-0.091 0.07-0.096 0.072-0.094 0.075-0.096 0.731-0.089 0.089 0.731-0.07 0.09-0.064 0.085-0.061 0.082-0.058 0.081-0.054 0.078-0.051 0.075-0.048 0.075-0.044 0.07-0.042 0.07-0.038 0.067-0.035 0.065-0.032 0.061-0.029 0.061-0.027 0.058-0.023 0.055-0.021 0.053-0.018 0.051-0.015 0.047-0.014 0.045-0.01 0.043-9e-3 0.039-6e-3 0.038-5e-3 0.034-3e-3 0.032-1e-3 0.029v0.027l1e-3 0.024 2e-3 0.022 3e-3 0.02 3e-3 0.018 5e-3 0.017 5e-3 0.015 5e-3 0.014 6e-3 0.014 7e-3 0.012 7e-3 0.013 9e-3 0.013 9e-3 0.012 0.01 0.012 0.013 0.014 0.013 0.013 0.015 0.013 0.018 0.015 0.019 0.014 0.022 0.014 0.023 0.015 0.026 0.014 0.028 0.015 0.03 0.014 0.032 0.014 0.034 0.014 0.036 0.013 0.038 0.013 0.041 0.013 0.042 0.012 0.044 0.011 0.046 0.011 0.047 0.01 0.051 9e-3 0.051 9e-3 0.051 8e-3 0.055 7e-3 0.055 7e-3 0.056 6e-3 0.059 5e-3 0.06 4e-3 0.061 4e-3 0.062 3e-3 0.063 2e-3 0.062 1e-3 0.066 1e-3h0.066l0.066-1e-3 0.068-1e-3 0.139-5e-3 0.14-8e-3 0.143-0.01 0.145-0.013 0.146-0.015 0.148-0.018 0.15-0.02 0.149-0.021 0.151-0.024 0.15-0.026 0.15-0.028 0.148-0.029 0.149-0.03 0.147-0.033 0.145-0.033 0.142-0.034 0.143-0.036 0.137-0.036 0.135-0.038 0.132-0.038 0.129-0.038 0.124-0.039 0.12-0.039 0.116-0.039 0.11-0.039 0.105-0.039 0.1-0.039 0.1-0.04 0.099-0.042 0.099-0.042 0.098-0.044 0.097-0.044 0.097-0.046 0.095-0.046 0.095-0.047 0.094-0.048 0.094-0.05 0.092-0.05 0.089-0.05 0.091-0.052 0.089-0.052 0.088-0.053 0.089-0.055 0.086-0.055 0.087-0.056 0.084-0.056 0.083-0.057 0.084-0.059 0.082-0.059 0.081-0.059 0.081-0.061 0.079-0.062 0.078-0.061 0.08-0.064 0.075-0.063 0.075-0.063 0.076-0.066 0.074-0.066 0.074-0.067 0.071-0.067 0.072-0.068 0.07-0.069 0.068-0.067 0.07-0.072 0.067-0.071 0.066-0.07 0.066-0.073 0.064-0.071 0.064-0.075 0.063-0.073 0.062-0.075 0.061-0.076 0.06-0.075 0.058-0.076 0.059-0.079 0.056-0.076 0.056-0.079 0.055-0.078 0.054-0.08 0.053-0.08 0.052-0.08 0.05-0.079 0.051-0.083 0.048-0.081 0.049-0.084 0.047-0.083 0.046-0.083 0.045-0.085 0.044-0.084 0.042-0.084 0.043-0.088 0.041-0.085 0.04-0.087 0.039-0.086 0.037-0.087 0.038-0.089 0.035-0.087 0.034-0.087 0.035-0.091 0.032-0.089 0.031-0.09 0.031-0.09 0.03-0.091 0.028-0.091 0.027-0.091 0.026-0.091 0.026-0.094 0.024-0.092 0.023-0.095 0.022-0.092 0.021-0.095 0.02-0.093 0.019-0.094 0.017-0.093 0.017-0.097 0.015-0.094 0.015-0.095 0.013-0.097 0.012-0.095 0.011-0.096 0.01-0.095 9e-3 -0.099 8e-3 -0.098 6e-3 -0.097 5e-3 -0.096 5e-3 -0.097 3e-3 -0.1 2e-3 -0.097 1e-3 -0.1-1e-3 -0.098-1e-3 -0.098-3e-3 -0.098-4e-3 -0.101-4e-3 -0.099-7e-3 -0.101-7e-3 -0.096-8e-3 -0.102-0.01-0.099-0.011-0.102-0.012-0.097-0.013-0.103-0.014-0.099-0.016-0.1-0.017-0.101-0.018-0.1-0.019-0.103-0.021-0.101-0.021-0.1-0.023-0.101-0.024-0.101-0.025-0.101-0.027-0.101-0.028-0.103-0.029-0.099-0.031-0.103-0.055-0.179-0.059-0.183-0.063-0.191-0.068-0.196-0.071-0.2-0.076-0.205-0.078-0.205-0.041-0.104-0.042-0.104-0.044-0.107 2e-3 4e-3 -0.045-0.108-0.045-0.105-0.046-0.106-0.047-0.107-0.047-0.104-0.05-0.107-0.049-0.105-0.051-0.106-0.052-0.104-0.053-0.105-0.053-0.103-0.056-0.106-0.053-0.099-0.058-0.104-0.057-0.102-0.058-0.099-0.06-0.1-0.061-0.099-0.06-0.095-0.062-0.096-0.063-0.094-0.064-0.094-0.065-0.091-0.065-0.09-0.065-0.087-0.068-0.086-0.068-0.085-0.069-0.082-0.068-0.08-0.071-0.079-0.071-0.077-0.072-0.073-0.072-0.072-0.072-0.069-0.074-0.067-0.074-0.064-0.075-0.063-0.074-0.058-0.077-0.057-0.077-0.054-0.037-0.025-0.039-0.026-0.038-0.024-0.039-0.024-0.039-0.023-0.039-0.022-0.039-0.022-0.039-0.02-0.039-0.021-0.04-0.019-0.039-0.019-0.039-0.017-0.04-0.018-0.041-0.017-0.062-0.024-0.062-0.024-0.062-0.022-0.063-0.022-0.064-0.02-0.062-0.02-0.062-0.018-0.061-0.017-0.063-0.017-0.063-0.015-0.061-0.014-0.063-0.014-0.062-0.012-0.062-0.012-0.062-0.01-0.062-0.01-0.06-8e-3 -0.062-8e-3 -0.06-7e-3 -0.062-6e-3 -0.061-4e-3 -0.061-4e-3 -0.06-3e-3 -0.06-2e-3 -0.059-2e-3h-0.06l-0.06 1e-3 -0.059 1e-3 -0.059 2e-3 -0.059 4e-3 -0.058 4e-3 -0.059 5e-3 -0.057 5e-3 -0.057 7e-3 -0.058 8e-3 -0.057 8e-3 -0.056 9e-3 -0.057 0.01-0.055 0.01-0.055 0.012-0.055 0.012-0.054 0.013-0.055 0.014-0.053 0.015-0.055 0.015-0.052 0.016-0.052 0.017-0.052 0.018-0.051 0.018-0.051 0.019-0.051 0.02-0.049 0.02-0.05 0.021-0.049 0.023-0.048 0.022-0.02 0.01-0.045 0.112-0.064 0.153-0.066 0.153-0.068 0.154-0.066 0.148-0.068 0.15-1e-3 3e-3 -0.134 0.291-0.141 0.302-0.132 0.285-0.133 0.292-0.065 0.145-0.057 0.128-0.066 0.186-0.07 0.191-0.04 0.106-0.041 0.11-0.043 0.11-0.044 0.108-0.043 0.101-0.041 0.09-0.023 0.047-0.023 0.045-0.03 0.049-0.043 0.063-0.071 0.078-0.049 0.034-0.057 0.036-0.061 0.028-4e-3 1e-3 -0.071 0.021-0.073 0.011h-0.078l-0.068-9e-3 -0.066-0.018-0.063-0.026-0.059-0.034-3e-3 -2e-3 -0.056-0.044-0.05-0.05-0.042-0.057-3e-3 -4e-3 -0.031-0.056-0.024-0.059-9e-3 -0.028-0.023-0.096-0.017-0.078-0.016-0.078-0.014-0.076-0.012-0.078-0.011-0.076-9e-3 -0.074-8e-3 -0.076-6e-3 -0.076-5e-3 -0.076-3e-3 -0.075-2e-3 -0.075v-0.072l1e-3 -0.075 3e-3 -0.074 4e-3 -0.074 5e-3 -0.071 7e-3 -0.072 9e-3 -0.072 0.01-0.071 0.011-0.071 0.013-0.071 0.013-0.068 0.016-0.069 0.016-0.068 0.018-0.069 0.02-0.067 0.021-0.068 0.021-0.065 0.023-0.066 0.025-0.065 0.026-0.064 0.026-0.064 0.029-0.064 0.029-0.062 0.031-0.063 0.031-0.059 0.033-0.061 0.035-0.06 0.034-0.057 0.036-0.059 0.037-0.057 0.038-0.056 0.04-0.056 0.04-0.055 0.041-0.054 0.043-0.054 0.043-0.053 0.044-0.05 0.045-0.051 0.046-0.051 0.048-0.049 0.048-0.049 0.048-0.047 0.051-0.047 0.05-0.047 0.051-0.044 0.053-0.044 0.052-0.043 0.055-0.044 0.054-0.041 0.054-0.04 0.056-0.039 0.057-0.04 0.059-0.038 0.054-0.034 7e-3 -5e-3 0.019-0.012 0.024-0.062 0.049-0.127-1e-3 2e-3 0.048-0.131 0.049-0.133-1e-3 3e-3 0.049-0.138-1e-3 3e-3 0.049-0.139 0.049-0.142-1e-3 3e-3 0.048-0.142 0.047-0.146 0.048-0.147 0.046-0.149-1e-3 4e-3 0.046-0.151z"/>
        <path d="m546.67 182.47l0.14-0.068 0.141-0.069 0.132-0.066 0.138-0.07 0.141-0.072 0.321-0.158 0.299-0.149 0.185-0.093-2e-3 1e-3 0.192-0.097 0.222-0.114 0.221-0.114 0.227-0.119 0.238-0.125-3e-3 1e-3 0.242-0.13 0.239-0.13 0.238-0.133 0.233-0.132 0.115-0.067 0.114-0.067-3e-3 2e-3 0.111-0.066 0.106-0.064 0.105-0.065 0.102-0.063 0.097-0.063 0.089-0.057 0.09-0.061 0.083-0.057 0.076-0.054 0.073-0.054 0.051-0.039-0.208-0.212 0.527-0.515h0.051l0.049 2e-3 0.015 1e-3 0.038 2e-3 0.017 2e-3 0.046 4e-3 0.054 8e-3 0.054 9e-3 0.055 0.013 0.055 0.016 0.058 0.021 0.06 0.027 0.061 0.034 0.063 0.045 0.062 0.055 0.058 0.069 0.05 0.082 0.038 0.088 0.022 0.091 9e-3 0.09-4e-3 0.085-0.012 0.076-0.018 0.065-0.022 0.059-0.025 0.054-0.027 0.049-0.028 0.044-0.028 0.041-0.03 0.04-0.03 0.035-0.03 0.035-0.031 0.033-0.034 0.034-0.03 0.03-0.012 0.011-0.062 0.057-0.074 0.064-0.08 0.064-0.081 0.063-0.086 0.063-0.089 0.064-6e-3 4e-3 -0.089 0.061-6e-3 4e-3 -0.096 0.065-0.099 0.065-5e-3 3e-3 -0.101 0.064-4e-3 3e-3 -0.104 0.065-4e-3 2e-3 -0.107 0.066-4e-3 3e-3 -0.11 0.066-0.116 0.069-3e-3 2e-3 -0.115 0.067-3e-3 2e-3 -0.117 0.067-3e-3 2e-3 -0.24 0.137-0.245 0.136-3e-3 2e-3 -0.244 0.133-0.247 0.132-0.24 0.128-2e-3 1e-3 -0.229 0.119-0.23 0.119-2e-3 1e-3 -0.217 0.111-0.197 0.1-1e-3 1e-3 -0.183 0.092-2e-3 1e-3 -0.315 0.156-0.305 0.151-0.136 0.07-3e-3 1e-3 -0.139 0.07-2e-3 2e-3 -0.143 0.071-0.139 0.068-3e-3 1e-3 -0.14 0.068-2e-3 1e-3 -0.144 0.069-0.14 0.066-2e-3 1e-3 -0.141 0.066-3e-3 1e-3 -0.284 0.13-3e-3 1e-3 -0.285 0.128-3e-3 1e-3 -0.285 0.125-4e-3 2e-3 -0.286 0.123-2e-3 1e-3 -0.287 0.122-3e-3 1e-3 -0.29 0.121-0.287 0.118-2e-3 1e-3 -0.296 0.121-0.572 0.231h-1e-3l-0.578 0.232-0.578 0.232h1e-3l-0.289 0.117 2e-3 -1e-3 -0.288 0.118 1e-3 -1e-3 -0.287 0.119 2e-3 -1e-3 -0.288 0.12 3e-3 -1e-3 -0.284 0.121-0.283 0.121-0.283 0.124-0.278 0.125-0.282 0.129 4e-3 -1e-3 -0.141 0.065 2e-3 -1e-3 -0.141 0.067 3e-3 -2e-3 -0.139 0.067-0.137 0.066-0.139 0.068 3e-3 -1e-3 -0.139 0.069 2e-3 -1e-3 -0.14 0.071-0.132 0.068-0.136 0.071-0.131 0.069-0.024 0.013-0.025 0.015-0.024 0.014-0.027 0.018-0.062 0.042-0.065 0.047-0.07 0.052-0.074 0.058-0.08 0.065 3e-3 -3e-3 -0.084 0.068 3e-3 -2e-3 -0.174 0.144-0.184 0.151-0.09 0.073-3e-3 3e-3 -0.093 0.074-4e-3 3e-3 -0.096 0.076-0.099 0.075-0.099 0.073-9e-3 6e-3 -0.094 0.066-0.01 7e-3 -0.1 0.067-0.055 0.035-0.053 0.033-0.057 0.034-0.054 0.032-0.052 0.028-9e-3 5e-3 -0.047 0.025-0.01 5e-3 -0.053 0.026-0.057 0.028-0.058 0.025-0.061 0.025-0.061 0.024-0.061 0.021-0.062 0.02-0.065 0.017-0.064 0.015-0.066 0.013-0.066 0.011-0.069 7e-3 -0.069 5e-3 -0.07 1e-3 -0.07-2e-3 -0.072-7e-3 -0.072-0.01-0.071-0.014-0.072-0.019-0.084-0.027-0.07-0.032-0.069-0.045-0.059-0.05-0.046-0.05-0.037-0.05-0.029-0.048-0.023-0.045-0.02-0.046-0.023-0.07-0.018-0.071-0.012-0.066-7e-3 -0.056-3e-3 -0.021-5e-3 -0.054-3e-3 -0.067-2e-3 -0.069-1e-3 -0.063v-0.01l1e-3 -0.061v-9e-3l2e-3 -0.071 3e-3 -0.07 5e-3 -0.08 5e-3 -0.076v-5e-3l6e-3 -0.077 1e-3 -6e-3 0.014-0.16 1e-3 -8e-3 0.018-0.168v-6e-3l0.021-0.175 1e-3 -5e-3 0.023-0.181 1e-3 -4e-3 0.025-0.188 0.028-0.193 0.029-0.189 1e-3 -3e-3 0.03-0.19v-2e-3l0.031-0.189v-2e-3l0.033-0.197 0.03-0.177 0.062-0.346 0.057-0.316 0.093-0.501v1e-3l0.029-0.153 8e-3 -0.045 3e-3 -0.019 0.016-0.136 0.017-0.142 0.014-0.141v5e-3l0.014-0.145-1e-3 5e-3 0.012-0.14 0.011-0.143-1e-3 5e-3 9e-3 -0.14 8e-3 -0.139 6e-3 -0.138 5e-3 -0.138v5e-3l4e-3 -0.141-1e-3 5e-3 3e-3 -0.138 1e-3 -0.137v-0.136 5e-3l-2e-3 -0.137-2e-3 -0.137v4e-3l-4e-3 -0.134-5e-3 -0.137-6e-3 -0.135 1e-3 4e-3 -8e-3 -0.137 1e-3 4e-3 -8e-3 -0.134-0.01-0.137 1e-3 4e-3 -0.011-0.135-0.011-0.134v3e-3l-0.012-0.136 1e-3 3e-3 -0.014-0.136-0.013-0.13-0.015-0.135v3e-3l-0.016-0.136v3e-3l-0.016-0.136v3e-3l-0.018-0.136 1e-3 3e-3 -0.019-0.136 1e-3 4e-3 -0.039-0.27-0.042-0.268 1e-3 4e-3 -0.044-0.27-0.047-0.268-0.048-0.27-0.051-0.272-0.053-0.275v3e-3l-0.055-0.277 1e-3 2e-3 -0.056-0.279v2e-3l-0.058-0.28 1e-3 1e-3 -0.112-0.538-0.126-0.601v-2e-3l-0.12-0.584 0.405-0.615 0.615 0.405 0.119 0.576 0.116 0.558 0.124 0.597 0.056 0.273 0.057 0.28v2e-3l0.055 0.277 1e-3 3e-3 0.053 0.277 0.052 0.276 0.05 0.278 0.048 0.279 0.046 0.279 0.042 0.275 0.04 0.278 0.019 0.136v3e-3l0.018 0.133 0.018 0.15 0.015 0.131 1e-3 4e-3 0.015 0.137 0.015 0.142 0.014 0.142 0.012 0.134 0.012 0.143 0.011 0.144 9e-3 0.144 9e-3 0.137 7e-3 0.138 6e-3 0.146 5e-3 0.139 4e-3 0.147 3e-3 0.141 1e-3 0.142 1e-3 0.142-2e-3 0.15-2e-3 0.143-4e-3 0.151-5e-3 0.146-7e-3 0.145-8e-3 0.147-9e-3 0.147-0.011 0.148-0.013 0.149v6e-3l-0.014 0.143-0.016 0.157-0.017 0.151-0.02 0.157-7e-3 0.042-0.01 0.057-0.029 0.161-0.093 0.495 1e-3 -3e-3 -0.057 0.313-0.06 0.338-0.031 0.182-0.033 0.193 1e-3 -2e-3 -0.03 0.184-0.029 0.184-0.03 0.194-0.026 0.183-0.025 0.18-0.023 0.175-0.02 0.173-0.017 0.159-0.014 0.153-5e-3 0.07-5e-3 0.066-4e-3 0.067-2e-3 0.061-1e-3 0.022 0.029-9e-3 0.032-0.011 0.033-0.013 0.033-0.014 0.035-0.015 0.037-0.018 0.036-0.018 0.04-0.021 0.037-0.02 0.041-0.024 0.038-0.023 0.041-0.025 0.042-0.027 0.085-0.057 0.085-0.06 0.087-0.064 0.089-0.068 0.088-0.068 0.089-0.072-3e-3 3e-3 0.093-0.076 0.175-0.144 0.173-0.143 0.091-0.074 0.086-0.069 0.085-0.066 0.086-0.065 0.085-0.061 0.087-0.059 0.044-0.028 0.045-0.028 0.045-0.026 0.042-0.024 0.145-0.076 0.14-0.073 0.14-0.072 3e-3 -1e-3 0.139-0.071 0.14-0.07 0.147-0.072 0.139-0.067 2e-3 -1e-3 0.139-0.067 0.144-0.068 2e-3 -1e-3 0.141-0.065 0.29-0.133 0.284-0.127 4e-3 -2e-3 0.284-0.125 3e-3 -1e-3 0.286-0.123 3e-3 -2e-3 0.285-0.121 0.292-0.121 0.294-0.122 0.287-0.117 0.289-0.117 0.584-0.235 0.569-0.228 0.577-0.233 0.29-0.118 0.29-0.12 0.278-0.116 0.286-0.121 0.284-0.122 0.28-0.123 0.282-0.127 0.281-0.128 0.136-0.063 0.14-0.067-2e-3 1e-3 0.137-0.065z"/>
        <path d="m551.38 190.88l0.106 0.172 0.113 0.182-1e-3 -2e-3 0.238 0.379 0.244 0.387 0.122 0.195 0.119 0.191 0.123 0.199 0.12 0.198 2e-3 3e-3 0.117 0.195 0.114 0.195 0.109 0.191 0.055 0.099 0.055 0.1 0.05 0.092 0.047 0.09 0.048 0.092 3e-3 5e-3 0.043 0.087 0.045 0.091 0.043 0.09 0.042 0.092 0.039 0.087 0.038 0.088 0.033 0.082 0.033 0.088 0.03 0.084 0.028 0.085 0.024 0.08 0.022 0.085 0.019 0.082 0.016 0.083 0.011 0.081 5e-3 0.044 3e-3 0.043 2e-3 0.041 1e-3 0.035-0.513 0.53-0.529-0.513v-0.018l-1e-3 -0.012-1e-3 -0.012-1e-3 -0.013-5e-3 -0.036-8e-3 -0.041-0.01-0.045-0.013-0.049-0.017-0.055-0.019-0.057-0.021-0.062-0.025-0.065-0.028-0.069-0.03-0.069-0.033-0.075-0.033-0.073-0.037-0.078-0.042-0.084-0.041-0.083 2e-3 5e-3 -0.044-0.085-0.046-0.088-0.048-0.088 2e-3 4e-3 -0.05-0.092 1e-3 3e-3 -0.051-0.093-0.106-0.184 3e-3 5e-3 -0.111-0.189-0.114-0.192 2e-3 4e-3 -0.117-0.193-0.121-0.195 1e-3 2e-3 -0.121-0.196v1e-3l-0.122-0.195 1e-3 1e-3 -0.247-0.391-0.232-0.37-1e-3 -2e-3 -0.113-0.181-2e-3 -2e-3 -0.108-0.177-2e-3 -3e-3 -0.104-0.171-2e-3 -4e-3 -0.098-0.165-3e-3 -5e-3 -0.093-0.16-0.088-0.157-0.042-0.078-0.04-0.075-0.035-0.069-3e-3 -7e-3 -0.035-0.069-0.034-0.071-0.028-0.063-4e-3 -0.01-0.027-0.063-0.026-0.065-0.41-1.065v1e-3l-0.211-0.547-0.197-0.507v1e-3l-0.205-0.524-0.205-0.522v1e-3l-0.205-0.522v2e-3l-0.206-0.52-0.208-0.517 1e-3 2e-3 -0.209-0.517 1e-3 1e-3 -0.21-0.515 1e-3 2e-3 -0.212-0.514 1e-3 1e-3 -0.208-0.502-0.218-0.521v2e-3l-0.216-0.51 1e-3 2e-3 -0.218-0.509-0.22-0.508 1e-3 2e-3 -0.223-0.508 1e-3 2e-3 -0.225-0.507 1e-3 2e-3 -0.227-0.506 1e-3 2e-3 -0.23-0.503-0.231-0.503-0.119-0.254 1e-3 2e-3 -0.119-0.253 1e-3 2e-3 -0.118-0.251-0.121-0.253 1e-3 1e-3 -0.121-0.252v2e-3l-0.121-0.253v2e-3l-0.122-0.252v1e-3l-0.122-0.25-0.125-0.253v2e-3l-0.125-0.253 1e-3 2e-3 -0.127-0.252 1e-3 1e-3 -0.127-0.252v2e-3l-0.128-0.252 1e-3 1e-3 -0.134-0.261-0.125-0.242v2e-3l-0.131-0.252 1e-3 1e-3 -0.132-0.25-0.134-0.253 1e-3 2e-3 -0.134-0.253v2e-3l-0.135-0.252 0.211-0.706 0.706 0.212 0.141 0.262 0.129 0.243 0.137 0.257 0.135 0.257 0.133 0.255 0.132 0.255 0.133 0.26 0.122 0.239 0.131 0.259 0.119 0.238 0.128 0.258 0.136 0.274 0.117 0.239 0.116 0.239 0.126 0.26 0.132 0.275 0.121 0.256 0.114 0.24 0.118 0.251v1e-3l0.118 0.252 0.234 0.508 0.236 0.517 0.225 0.5 1e-3 3e-3 0.222 0.501 0.226 0.516 1e-3 2e-3 0.221 0.51 0.218 0.509 0.215 0.508 0.218 0.52v1e-3l0.215 0.516 0.21 0.513 1e-3 1e-3 0.207 0.508 0.207 0.514 0.214 0.534 0.204 0.513 0.203 0.513 0.213 0.542 0.201 0.516 0.214 0.549 0.192 0.498 0.414 1.075 0.019 0.047 0.019 0.046 0.022 0.048 0.027 0.056 0.028 0.058 0.032 0.062 0.034 0.064 0.035 0.065 0.082 0.146 0.088 0.152-3e-3 -5e-3 0.096 0.162 0.103 0.169z"/>
        <g transform="translate(-3.9953 -3.439)">
            <path d="m666.17 144.18l0.105 4e-3 0.104 6e-3 0.103 6e-3 0.103 8e-3 0.101 0.01 0.103 0.011 0.096 0.012 9e-3 1e-3 0.096 0.014 0.099 0.015 0.1 0.018 0.098 0.019 0.098 0.021 0.098 0.022 0.095 0.024 0.097 0.027 0.094 0.027 0.092 0.03 0.094 0.031 0.092 0.034 0.092 0.036 0.089 0.037 0.083 0.037 0.012 5e-3 0.082 0.039 0.087 0.044 0.086 0.046 0.084 0.048 0.083 0.05 0.08 0.052 0.082 0.056 0.077 0.055 0.079 0.06 0.076 0.062 0.073 0.063 0.073 0.067 0.07 0.067 0.07 0.072 0.066 0.072 0.065 0.076 0.064 0.079 0.06 0.079 0.054 0.076 9e-3 0.013 0.052 0.077 0.055 0.087 0.052 0.09 0.05 0.09 0.048 0.095 0.045 0.095 0.042 0.097 0.041 0.099 0.038 0.103 0.036 0.105 0.032 0.104 0.031 0.11 0.028 0.11 0.026 0.112 0.022 0.112 0.021 0.119 0.018 0.119 0.016 0.121 0.012 0.122 0.011 0.123 7e-3 0.127 6e-3 0.128 2e-3 0.133 1e-3 0.127-1e-3 0.01-2e-3 0.132-5e-3 0.137-8e-3 0.138-8e-3 0.122-0.011 0.12-0.013 0.124-0.013 0.114-0.016 0.118-0.018 0.122-0.019 0.122-0.02 0.113-0.024 0.124-0.024 0.116-0.026 0.115-0.028 0.119-0.028 0.114-0.033 0.122-0.031 0.113-0.035 0.116-0.035 0.116-0.038 0.116-0.037 0.11-0.04 0.115-0.044 0.117-0.041 0.109-0.046 0.117-0.046 0.111-0.049 0.115-0.047 0.105-2e-3 6e-3 -0.05 0.109-0.051 0.11-0.052 0.108-0.054 0.107-0.057 0.112-0.057 0.106-0.057 0.106-0.061 0.109-0.06 0.105-0.064 0.108-0.062 0.103-0.066 0.106-0.064 0.102-0.069 0.105-0.067 0.1-0.068 0.1-3e-3 5e-3 -0.069 0.098-0.069 0.098-0.073 0.1-4e-3 4e-3 -0.072 0.097-0.077 0.1-0.071 0.092-0.079 0.099-0.079 0.096-0.081 0.098-0.076 0.089-3e-3 4e-3 -0.078 0.09-0.083 0.094-0.085 0.094-0.082 0.089-0.083 0.088-0.087 0.091-0.086 0.087-0.089 0.089-0.09 0.088-0.087 0.085-0.092 0.086-0.092 0.085-0.091 0.082-0.091 0.081-0.092 0.08-0.096 0.082-0.093 0.078-0.098 0.08-0.095 0.076-0.099 0.078-0.1 0.077-0.098 0.073-0.098 0.073-0.098 0.071-0.103 0.072-0.101 0.07-0.101 0.069-0.102 0.068-0.105 0.067-0.103 0.066-0.101 0.063-5e-3 2e-3 -0.104 0.063-0.105 0.063-0.102 0.059-0.107 0.06-5e-3 2e-3 -0.103 0.057-0.108 0.058-0.111 0.058-0.107 0.055-0.107 0.053-0.11 0.053-0.109 0.051-0.11 0.05-0.11 0.049-0.112 0.048-0.112 0.046-0.111 0.045-0.111 0.044-0.112 0.042-0.112 0.041-0.115 0.04-0.113 0.038-0.113 0.037-0.114 0.035-0.114 0.034-0.114 0.033-0.116 0.031-0.113 0.029-0.117 0.029-0.115 0.027-0.114 0.025-0.115 0.023-0.116 0.022-0.116 0.021-0.116 0.019-0.117 0.017-0.115 0.016-0.113 0.014-7e-3 1e-3 -0.112 0.012-0.117 0.011-0.115 9e-3 -0.117 8e-3 -0.116 6e-3 -0.117 4e-3 -0.115 3e-3 -0.117 1e-3 -0.191-1e-3 -0.208-3e-3 -0.226-6e-3 -0.241-8e-3 -0.253-0.012-0.133-8e-3 -0.136-8e-3 -0.135-9e-3 -0.14-0.01h-4e-3l-0.141-0.012-0.146-0.012-0.145-0.014-0.146-0.015h-4e-3l-0.146-0.016-0.152-0.018-0.153-0.019-0.151-0.021h-4e-3l-0.152-0.022-0.154-0.024-0.156-0.025-0.154-0.027-0.156-0.028-0.155-0.031-0.155-0.032-0.156-0.035-0.154-0.036-0.153-0.038-0.151-0.041-0.151-0.042-0.15-0.045-0.147-0.047-0.148-0.05-0.143-0.052-0.072-0.027-0.071-0.028-0.071-0.028-0.07-0.03-0.068-0.029-0.07-0.031-0.064-0.029-6e-3 -3e-3 -0.067-0.032-0.062-0.031-0.07-0.035-0.063-0.034-0.065-0.035-0.064-0.036-0.064-0.037-0.062-0.038-0.06-0.038-0.06-0.04-0.061-0.041-0.057-0.041-0.058-0.042-0.057-0.045-0.056-0.044-0.054-0.046-0.053-0.046-0.053-0.048-0.051-0.049-0.05-0.051-0.048-0.051-0.048-0.053-0.045-0.053-0.045-0.055-0.044-0.057-0.042-0.059-0.039-0.058-0.038-0.06-0.037-0.062-0.035-0.062-0.032-0.063-0.032-0.068-0.029-0.066-0.026-0.066-0.024-0.067-0.023-0.07-0.02-0.072-0.018-0.07-0.016-0.073-0.013-0.073-0.011-0.077-8e-3 -0.072-7e-3 -0.078-3e-3 -0.075-1e-3 -0.07 0.512-0.529 0.529 0.513 1e-3 0.051 2e-3 0.043 3e-3 0.043 5e-3 0.04 6e-3 0.042 7e-3 0.038 9e-3 0.04 9e-3 0.036 0.011 0.038 0.012 0.037 0.013 0.037 0.014 0.035 0.015 0.036 0.016 0.034 0.019 0.036 0.019 0.035 0.02 0.033 0.021 0.033 0.024 0.036 0.024 0.033 0.026 0.034 0.026 0.033 0.028 0.032 0.029 0.033 0.032 0.033 0.031 0.032 0.034 0.032 0.036 0.033 0.036 0.031 0.036 0.03 0.039 0.032 0.041 0.031 0.041 0.031 0.044 0.031 0.043 0.029 0.045 0.03 0.046 0.029 0.047 0.029 0.049 0.029 0.05 0.028 0.05 0.027 0.052 0.027 0.055 0.028 0.053 0.026 0.054 0.026 0.058 0.027 0.056 0.024 0.057 0.025 0.059 0.025 0.061 0.024 0.061 0.024 0.06 0.023 0.125 0.045 0.129 0.044 0.13 0.041 0.132 0.04 0.135 0.038 0.137 0.036 0.137 0.035 0.142 0.033 0.141 0.031 0.143 0.03 0.144 0.028 0.144 0.027 0.144 0.025 0.145 0.023 0.144 0.023 0.146 0.02 0.143 0.02 0.145 0.018 0.143 0.017 0.141 0.015 0.139 0.014 0.139 0.013 0.137 0.012 0.137 0.011 0.135 0.01h-4e-3l0.135 9e-3h-3e-3l0.129 8e-3 0.126 6e-3 0.243 0.012 0.232 8e-3 0.215 5e-3 0.197 3e-3 0.18 1e-3 0.1-1e-3 0.101-2e-3 0.102-4e-3 0.1-5e-3 0.102-6e-3 0.102-9e-3 0.103-9e-3 0.1-0.011 0.102-0.013 0.102-0.014 0.102-0.015 0.102-0.017 0.103-0.018 0.101-0.02 0.103-0.021 0.102-0.022 0.103-0.024 0.103-0.025 0.102-0.026 0.103-0.028 0.101-0.029 0.1-0.03 0.103-0.032 0.102-0.033 0.102-0.034 0.1-0.036 0.101-0.036 0.103-0.039 0.1-0.039 0.101-0.041 0.099-0.041 0.102-0.044 0.099-0.043 0.1-0.046 0.102-0.048 0.096-0.046 0.101-0.05 0.097-0.05 0.097-0.051 0.099-0.053 0.097-0.053 0.096-0.054 0.099-0.057 0.093-0.056 0.097-0.058 0.096-0.059 0.092-0.059 0.098-0.064-4e-3 3e-3 0.096-0.063 0.093-0.064 0.094-0.064 0.089-0.064 0.093-0.067 0.092-0.068 0.089-0.067 0.092-0.071-4e-3 4e-3 0.09-0.071 0.089-0.072 0.09-0.073 0.085-0.071 0.087-0.074 0.084-0.073 0.087-0.077 0.083-0.075 0.085-0.079-4e-3 3e-3 0.084-0.079 0.08-0.077 0.082-0.08 0.083-0.083 0.078-0.079 0.077-0.08 0.079-0.084 0.075-0.082 0.078-0.086 0.074-0.083 0.074-0.086 0.073-0.086 0.074-0.088 0.069-0.086 0.073-0.091-3e-3 4e-3 0.072-0.093-3e-3 4e-3 0.071-0.093 0.065-0.087 0.068-0.093 0.064-0.089 0.066-0.095-3e-3 5e-3 0.064-0.094 0.061-0.092 0.062-0.095 0.06-0.095 0.057-0.092 0.059-0.097 0.055-0.093 0.055-0.097 0.053-0.095 0.053-0.097 0.053-0.099 0.05-0.099 0.048-0.095 0.048-0.1 0.047-0.099 0.046-0.101 0.042-0.096 0.042-0.1 0.042-0.101 0.04-0.101 0.039-0.103-2e-3 6e-3 0.04-0.107-3e-3 6e-3 0.037-0.105 0.035-0.102 0.032-0.101 0.032-0.102 0.03-0.102 0.03-0.105 0.027-0.102 0.025-0.102 0.024-0.102 0.024-0.105 0.021-0.106 0.02-0.102 0.018-0.101 0.017-0.106 0.016-0.106 0.013-0.105 0.012-0.101 0.011-0.106 9e-3 -0.105 8e-3 -0.103 6e-3 -0.122 5e-3 -0.116 2e-3 -0.119v-0.112l-3e-3 -0.112-4e-3 -0.105-6e-3 -0.105-9e-3 -0.103-0.01-0.098-0.013-0.097-0.014-0.093-0.016-0.093-0.018-0.091-0.02-0.086-0.021-0.083-0.023-0.082-0.025-0.081-0.027-0.076-0.028-0.076-0.029-0.071-0.031-0.071-0.031-0.067-0.035-0.068-0.034-0.063-0.036-0.062-0.039-0.061-0.038-0.057-0.042-0.058-0.04-0.054-0.044-0.053-0.045-0.053-0.045-0.049-0.047-0.049-0.049-0.047-0.05-0.045-0.05-0.044-0.054-0.043-0.053-0.041-0.055-0.04-0.057-0.039-0.059-0.037-0.059-0.036-0.061-0.034-0.061-0.033-0.065-0.033-0.065-0.031-0.065-0.029-0.068-0.028-0.069-0.027-0.071-0.026-0.071-0.024-0.073-0.023-0.076-0.022-0.075-0.021-0.076-0.019-0.079-0.018-0.079-0.017-0.08-0.016-0.082-0.014-0.083-0.013-0.083-0.012-0.085-0.01-0.085-0.01-0.087-8e-3 -0.088-7e-3 -0.089-6e-3 -0.088-4e-3 -0.091-3e-3 -0.091-3e-3 -0.092-1e-3 -0.092 1e-3 -0.094 1e-3 -0.095 2e-3 -0.093 4e-3 -0.097 5e-3 -0.095 5e-3 -0.096 7e-3 -0.096 8e-3 -0.098 9e-3 -0.099 0.01-0.099 0.011-0.097 0.011-0.101 0.014-0.097 0.013-0.1 0.015-0.102 0.016-0.1 0.017-0.1 0.017-0.102 0.019-0.1 0.019-0.1 0.02-0.1 0.021-0.104 0.022h4e-3l-0.105 0.023 4e-3 -1e-3 -0.102 0.024-0.103 0.024-0.1 0.025-0.1 0.025-0.201 0.054-0.202 0.056-0.199 0.059-0.198 0.061-0.197 0.063-0.196 0.066-0.192 0.067-0.193 0.069-0.187 0.07-0.186 0.073-0.184 0.074-0.179 0.074-0.175 0.076-0.174 0.077-0.165 0.076-0.01 4e-3 -9e-3 6e-3 -0.015 8e-3 -0.016 0.011-0.02 0.014-0.023 0.017-0.026 0.019-0.025 0.02-0.062 0.052-0.062 0.055-0.07 0.065-0.073 0.069-0.074 0.074-0.08 0.08-0.081 0.083-0.079 0.083-0.168 0.179-0.212 0.227-0.12 0.129-2e-3 2e-3 -0.159 0.169-3e-3 3e-3 -0.081 0.085-0.074 0.076-0.073 0.073-5e-3 5e-3 -0.07 0.068-0.073 0.069-0.071 0.063-0.071 0.058-0.038 0.03-0.038 0.027-0.04 0.027-0.043 0.027-0.047 0.026-0.054 0.025-0.064 0.024-0.079 0.02-0.098 0.011-0.096-7e-3 -0.078-0.016-0.056-0.015-0.055-0.018-0.054-0.021-0.051-0.023-0.05-0.025-0.047-0.026-0.046-0.029-0.045-0.03-0.043-0.032-0.035-0.027-0.013-0.011-0.028-0.023-0.012-0.011-0.033-0.029-0.039-0.037-0.032-0.032-9e-3 -0.01-0.027-0.029-9e-3 -9e-3 -0.031-0.034-0.034-0.04-0.035-0.042-0.033-0.042-0.029-0.038-6e-3 -8e-3 -0.03-0.041-0.062-0.088-0.061-0.094-0.056-0.09-6e-3 -0.011-0.052-0.089-6e-3 -0.01-0.052-0.093-5e-3 -9e-3 -0.051-0.097-4e-3 -9e-3 -0.051-0.1-4e-3 -8e-3 -0.052-0.107-0.052-0.11-3e-3 -7e-3 -0.05-0.111-0.051-0.117-3e-3 -6e-3 -0.049-0.115-2e-3 -5e-3 -0.051-0.125-0.048-0.119-0.049-0.124-1e-3 -4e-3 -0.047-0.124-2e-3 -3e-3 -0.046-0.123-0.048-0.131-0.049-0.137-0.092-0.262-0.092-0.27-0.089-0.266-0.084-0.256v-2e-3l-0.084-0.26-1e-3 -1e-3 -0.162-0.507-0.079-0.244 1e-3 2e-3 -0.077-0.236 1e-3 2e-3 -0.075-0.226 1e-3 4e-3 -0.072-0.211-0.069-0.196-0.034-0.092-0.032-0.087-0.032-0.082-0.031-0.079-0.03-0.07-0.029-0.068-0.027-0.059-0.026-0.052-0.023-0.045-0.023-0.04-0.018-0.03-0.017-0.029-0.019-0.029-0.019-0.027-0.02-0.027-0.017-0.024-0.019-0.024-0.018-0.021-0.017-0.021-0.019-0.02-0.017-0.018-0.018-0.018-0.017-0.016-0.018-0.016-0.017-0.015-0.018-0.015-0.017-0.013-0.017-0.012-0.017-0.012-0.019-0.012-0.017-0.01-0.018-0.011-0.018-9e-3 -0.019-0.01-0.019-9e-3 -0.019-9e-3 -0.02-8e-3 -0.02-8e-3 -0.02-7e-3 -0.019-7e-3 -0.047-0.014-0.045-0.012-0.05-0.01-0.052-0.01-0.054-8e-3 -0.057-7e-3 -0.061-6e-3 -0.064-5e-3 -0.064-4e-3 -0.07-3e-3 -0.07-1e-3 -0.152-2e-3 -0.162-1e-3 -0.165 1e-3 -0.048 1e-3 -0.06 3e-3 -0.072 5e-3 -0.081 6e-3 -0.177 0.014-2e-3 1e-3 -0.171 0.013h-8e-3l-0.082 5e-3 -0.074 4e-3h-0.086l-0.047-1e-3 -0.053-5e-3 -0.072-0.012-0.097-0.03-0.05-0.028-0.052-0.033-0.048-0.039-2e-3 -3e-3 -0.044-0.045-0.037-0.05-0.032-0.055-1e-3 -2e-3 -0.03-0.073-0.018-0.077-7e-3 -0.078v-3e-3l4e-3 -0.068 0.013-0.068 0.021-0.065 2e-3 -3e-3 0.03-0.063 0.038-0.057 3e-3 -4e-3 0.039-0.045 0.044-0.041 0.041-0.034 0.069-0.041 0.05-0.024 0.13-0.056 0.01-4e-3 0.121-0.05 0.01-4e-3 0.126-0.049 0.134-0.048 0.135-0.047 0.135-0.043 0.135-0.042 0.136-0.039 0.133-0.036 7e-3 -2e-3 0.135-0.035 0.134-0.033 6e-3 -1e-3 0.136-0.032 0.136-0.029 5e-3 -2e-3 0.134-0.027 5e-3 -1e-3 0.135-0.027 5e-3 -1e-3 0.138-0.026 0.138-0.025h3e-3l0.138-0.024 0.143-0.024 0.138-0.022h4e-3l0.277-0.042 4e-3 -1e-3 0.282-0.04 0.278-0.038h1e-3l0.286-0.039 0.273-0.038 0.278-0.039 0.275-0.04 0.139-0.021h-3e-3l0.137-0.021 0.135-0.023 0.136-0.023 0.133-0.024 0.134-0.025 0.133-0.026 0.132-0.027 0.13-0.028 0.129-0.03 0.128-0.03 0.128-0.033 0.125-0.033 0.126-0.036 0.122-0.037 0.121-0.039 0.122-0.04 0.118-0.043 0.118-0.044 0.117-0.047 0.115-0.048 0.112-0.05 0.113-0.054 0.053-0.026 0.056-0.029 0.054-0.028 0.054-0.029 0.052-0.029 0.055-0.031 0.053-0.031 0.052-0.032 0.051-0.031 0.053-0.034 0.052-0.034 0.048-0.032 0.05-0.035 0.05-0.036 0.13-0.095-3e-3 2e-3 0.127-0.095 0.128-0.096 0.128-0.098-3e-3 2e-3 0.128-0.099-2e-3 2e-3 0.126-0.1 0.126-0.1-2e-3 2e-3 0.126-0.102-1e-3 2e-3 0.126-0.102-2e-3 1e-3 0.125-0.103-2e-3 2e-3 0.249-0.207 0.247-0.207-3e-3 2e-3 0.248-0.211-2e-3 2e-3 0.247-0.212 0.271-0.233 0.466-0.403 1e-3 -1e-3 0.24-0.206 0.255-0.217 2e-3 -2e-3 0.248-0.21 0.252-0.21 0.734 0.067-0.067 0.733-0.248 0.207-0.246 0.208-0.246 0.21 1e-3 -1e-3 -0.249 0.214-0.488 0.422h-1e-3l-0.243 0.209-0.247 0.213-0.255 0.216-0.251 0.211-0.253 0.21-0.128 0.106-0.125 0.101-2e-3 1e-3 -0.13 0.104-0.127 0.101-0.128 0.101-0.13 0.101-0.134 0.103-0.131 0.099-0.133 0.099-0.136 0.099-0.061 0.044-0.064 0.044-0.061 0.042-0.059 0.038-5e-3 4e-3 -0.062 0.039-0.06 0.037-0.065 0.04-0.064 0.037-0.061 0.035-6e-3 3e-3 -0.061 0.034-0.065 0.035-0.066 0.035-0.066 0.033-0.065 0.033-0.132 0.062-0.133 0.06-0.134 0.056-0.136 0.054-0.135 0.051-0.137 0.049-0.138 0.046-0.137 0.044-0.14 0.042-0.14 0.04-0.14 0.037-0.139 0.036-0.138 0.033-6e-3 1e-3 -0.138 0.032-0.142 0.031-0.138 0.028-5e-3 1e-3 -0.138 0.027-0.144 0.027-0.139 0.025-4e-3 1e-3 -0.138 0.023-4e-3 1e-3 -0.141 0.023-0.14 0.022-0.142 0.022h-3e-3l-0.282 0.042-0.284 0.039-0.279 0.039h-1e-3l-0.28 0.038-0.279 0.038-0.272 0.039-0.211 0.032 0.031 0.02 0.04 0.027 0.04 0.029 0.039 0.03 0.037 0.03 0.038 0.033 0.038 0.034 0.037 0.035 0.037 0.037 0.036 0.038 0.034 0.037 0.035 0.04 0.034 0.042 0.032 0.041 0.032 0.042 0.031 0.044 0.031 0.045 0.032 0.048 0.029 0.047 0.03 0.05 0.038 0.068 0.038 0.072 0.038 0.08 0.036 0.077 0.036 0.083 0.035 0.085 0.037 0.091 0.036 0.094 0.037 0.097 0.034 0.096 2e-3 5e-3 0.072 0.205 0.076 0.222 0.074 0.223 0.076 0.235 0.086 0.265 0.164 0.511 0.078 0.243 0.085 0.258-1e-3 -2e-3 0.089 0.266 0.086 0.253 0.09 0.256-1e-3 -4e-3 0.046 0.128-1e-3 -3e-3 0.044 0.121 0.048 0.129 0.045 0.116 0.047 0.121-2e-3 -4e-3 0.047 0.117 0.048 0.115 0.046 0.11 0.048 0.109 0.045 0.098 0.048 0.103 0.047 0.096 0.047 0.094 0.047 0.088 0.047 0.084 0.045 0.079 0.045 0.072 0.045 0.07 0.045 0.064 0.021 0.028 0.021 0.027 0.02 0.026 0.02 0.025 0.02 0.023 0.02 0.021 0.018 0.019 0.017 0.018 6e-3 5e-3 0.043-0.04 0.061-0.059 0.065-0.066 0.069-0.07 0.076-0.079-3e-3 3e-3 0.158-0.169-2e-3 3e-3 0.085-0.091 0.251-0.27 0.17-0.181 0.089-0.093 0.082-0.085 0.091-0.091 0.084-0.082 0.085-0.082 0.084-0.078 0.083-0.073 0.081-0.068 0.044-0.035 0.043-0.033 0.043-0.031 0.041-0.028 0.044-0.029 0.047-0.028 0.047-0.026 0.045-0.023 0.182-0.083 6e-3 -3e-3 0.182-0.08 0.188-0.081 0.19-0.079 0.195-0.079 0.195-0.076 0.201-0.075 0.203-0.074 0.206-0.071 0.208-0.07 0.209-0.067 0.208-0.064 0.213-0.063 0.216-0.06 0.214-0.057 0.108-0.027 0.107-0.027 0.108-0.026 0.11-0.025 0.106-0.024 4e-3 -1e-3 0.105-0.022 4e-3 -1e-3 0.107-0.023 0.109-0.021 0.107-0.021 0.111-0.02 0.108-0.019 0.11-0.018 0.109-0.018 0.108-0.016 0.11-0.015 0.105-0.014h5e-3l0.105-0.013 0.109-0.012 0.109-0.011 0.105-0.01h5e-3l0.105-9e-3 0.108-7e-3 0.108-7e-3 0.105-5e-3 0.107-4e-3 0.106-3e-3 0.106-1e-3h0.106l0.104 1e-3 0.105 2e-3z"/>
        </g>
        <path d="m240.82 157.52l4.498 10.431 3.316 7.765 1.629 3.855 1.498 3.582 4.918 11.877 5.931 14.395 3.018 7.364 2.879 7.061 2.609 6.447 2.208 5.52 1.556 3.996 1.65 4.353 3.21 8.679 3.46 9.574-0.191 1.135-0.925-0.684-4.163-9.291-3.719-8.473-1.837-4.277-1.656-3.955-2.246-5.505-2.601-6.45-2.834-7.079-2.945-7.395-5.733-14.474-4.712-11.96-1.411-3.617-1.505-3.905-3.009-7.89-4.01-10.628 0.333-0.783 0.784 0.332z"/>
</svg>
