<?xml version="1.0" encoding="UTF-8"?>
<svg viewBox="0 0 600 1100" xmlns="http://www.w3.org/2000/svg" xmlns:xlink="http://www.w3.org/1999/xlink">
 <defs>
  <linearGradient id="b">
   <stop stop-color="#525252" offset="0"/>
   <stop stop-color="#d9d9d9" offset="1"/>
  </linearGradient>
  <linearGradient id="a">
   <stop offset="0"/>
   <stop stop-opacity="0" offset="1"/>
  </linearGradient>
  <linearGradient id="c">
   <stop stop-color="#fff" offset="0"/>
   <stop stop-color="#fff" stop-opacity="0" offset="1"/>
  </linearGradient>
  <linearGradient id="f">
   <stop stop-color="#00575f" stop-opacity="0" offset="0"/>
   <stop stop-color="#0062ff" stop-opacity="0" offset=".5"/>
   <stop stop-color="#002859" offset="1"/>
  </linearGradient>
  <linearGradient id="g">
   <stop stop-color="#34abff" offset="0"/>
   <stop stop-color="#0057ff" offset="1"/>
  </linearGradient>
  <linearGradient id="w" x1="336.15" x2="345.4" y1="1203.6" y2="608.36" gradientTransform="matrix(1.2302 -.27318 .17203 .77468 -201.81 -17.563)" gradientUnits="userSpaceOnUse" xlink:href="#a"/>
  <linearGradient id="v" x1="-683.5" x2="1100.7" y1="-283.39" y2="504.58" gradientTransform="matrix(.83134 -.18461 .25456 1.1464 -201.81 -17.563)" gradientUnits="userSpaceOnUse" xlink:href="#f"/>
  <linearGradient id="u" x1="350.37" x2="285.9" y1="168.43" y2="601.16" gradientTransform="matrix(1.1836 -.26282 .17881 .80521 -201.81 -17.563)" gradientUnits="userSpaceOnUse" xlink:href="#c"/>
  <linearGradient id="ab" x1="309.16" x2="302.31" y1="900.84" y2="958.59" gradientTransform="matrix(1.2191 0 0 .82029 0 -6)" gradientUnits="userSpaceOnUse" xlink:href="#g"/>
  <linearGradient id="aa" x1="299.34" x2="301.38" y1="959.69" y2="945.18" gradientTransform="matrix(1.2191 0 0 .82029 0 -6)" gradientUnits="userSpaceOnUse" xlink:href="#a"/>
  <linearGradient id="z" x1="293.05" x2="311.93" y1="901.66" y2="937.79" gradientTransform="matrix(1.2191 0 0 .82029 0 -6)" gradientUnits="userSpaceOnUse" xlink:href="#a"/>
  <linearGradient id="y" x1="293.24" x2="310.45" y1="923.83" y2="927.12" gradientTransform="matrix(1.2191 0 0 .82029 0 -6)" gradientUnits="userSpaceOnUse" xlink:href="#a"/>
  <linearGradient id="x" x1="1063" x2="1075" y1="281.09" y2="396.2" gradientTransform="matrix(.36618 0 0 2.7309 0 -6)" gradientUnits="userSpaceOnUse" xlink:href="#b"/>
  <linearGradient id="t" x1="423.76" x2="448.12" y1="614.4" y2="654.13" gradientTransform="matrix(.82209 0 0 1.2164 0 -6)" gradientUnits="userSpaceOnUse" xlink:href="#b" spreadMethod="reflect"/>
  <linearGradient id="s" x1="608.27" x2="572.03" y1="588.05" y2="590.56" gradientTransform="matrix(.64452 0 0 1.5515 0 -6)" gradientUnits="userSpaceOnUse" xlink:href="#b" spreadMethod="reflect"/>
  <linearGradient id="r" x1="469.01" x2="491.66" y1="838.2" y2="843.22" gradientTransform="matrix(.81392 0 0 1.2286 0 -6)" gradientUnits="userSpaceOnUse" xlink:href="#b" spreadMethod="reflect"/>
  <linearGradient id="q" x1="432.33" x2="442.94" y1="816.66" y2="835.01" gradientTransform="matrix(.81392 0 0 1.2286 0 -6)" gradientUnits="userSpaceOnUse" xlink:href="#a"/>
  <linearGradient id="p" x1="376.49" x2="387.39" y1="736.07" y2="743.21" gradientUnits="userSpaceOnUse" xlink:href="#a" spreadMethod="reflect"/>
  <radialGradient id="l" cx="413.89" cy="440.37" r="359.53" gradientTransform="matrix(.96831 -.21503 .29652 1.3353 -211.6 -61.667)" gradientUnits="userSpaceOnUse">
   <stop stop-color="#00f1ff" stop-opacity="0" offset="0"/>
   <stop stop-color="#00c9ff" stop-opacity="0" offset=".5"/>
   <stop stop-color="#0065a6" stop-opacity="0" offset=".75"/>
   <stop stop-color="#002454" offset="1"/>
  </radialGradient>
  <radialGradient id="e" cx="457.14" cy="263.79" r="94.286" gradientUnits="userSpaceOnUse" xlink:href="#c"/>
  <radialGradient id="d" cx="480.13" cy="516.87" r="175.44" gradientTransform="scale(.83995 1.1905)" gradientUnits="userSpaceOnUse" xlink:href="#c"/>
  <radialGradient id="j" cx="478.66" cy="290.04" r="372.49" gradientTransform="matrix(.96831 -.21503 .29652 1.3353 -211.6 -61.667)" gradientUnits="userSpaceOnUse" xlink:href="#f"/>
  <radialGradient id="i" cx="462.46" cy="233.67" r="330.33" gradientTransform="matrix(.96831 -.21503 .29652 1.3353 -211.6 -61.667)" gradientUnits="userSpaceOnUse" xlink:href="#g"/>
  <radialGradient id="o" cx="214.76" cy="1378.8" r="15.406" gradientTransform="matrix(1.4686 0 0 .42526 72.665 179.83)" gradientUnits="userSpaceOnUse" xlink:href="#c"/>
  <radialGradient id="n" cx="378.57" cy="752.36" r="8.5714" gradientUnits="userSpaceOnUse" xlink:href="#c"/>
  <radialGradient id="m" cx="269.79" cy="1031.8" r="32.826" gradientTransform="scale(1.3926 .71807)" gradientUnits="userSpaceOnUse" xlink:href="#a"/>
  <radialGradient id="k" cx="376.4" cy="753.87" r="27.902" gradientUnits="userSpaceOnUse" xlink:href="#b"/>
  <radialGradient id="h" cx="247.71" cy="1161.1" r="14.647" fy="1161.4" gradientTransform="scale(1.5804 .63275)" gradientUnits="userSpaceOnUse" xlink:href="#a"/>
 </defs>
 <path d="m373.76 746.35 29.294 344.46h11.112l-34.345-345.47-6.0609 1.0102z" fill="url(#x)" fill-rule="evenodd"/>
 <path d="m558.54 282.83c39.66 178.6-67.947 439.47-174.54 466.06-103.81 25.979-315.74-169.78-355.4-348.38s46.86-349.91 193.13-382.39 297.16 86.108 336.82 264.71z" fill="url(#i)" fill-rule="evenodd" opacity=".75"/>
 <path d="m558.54 282.83c39.66 178.6-67.947 439.47-174.54 466.06-103.81 25.979-315.74-169.78-355.4-348.38s46.86-349.91 193.13-382.39 297.16 86.108 336.82 264.71z" fill="url(#j)" fill-rule="evenodd"/>
 <path d="m171.19 67.388c-12.157 0.12378-36.516 19.763-45.87 30.673-19.234 22.433-30.838 37.65-41.846 61.974-16.9 37.343 4.575 39.084 32.847 16.12 21.599-17.544-12.858 35.603-15.812 47.412-4.9339 19.723-24.964 31.75-34.405 42.761-9.848 11.486-7.2461 33.213-27.588 47.101-22.198 15.155 18.255 23.315 29.746 28.515 18.361 8.3097-10.76 46.533 27.888 20.148 22.79-15.559 16.769-31.547 31.92-1.2348 4.9966 9.997 47.588-37.134 49.59-40.28 2.3396-3.6754-3.8543-56.896-4.6394-60.431-0.01593-0.07178 13.061-19.124 28.823-15.181 24.45 6.1164 16.739 28.761 38.737 3.1049 11.176-13.035 25.825 50.398 26.334 52.687 7.2909 32.832 48.788-4.8665 62.289 3.7282 14.421 9.1801 9.0842 39.312 25.714 49.898 13.119 8.3514 43.278-30.363 47.42-36.871 13.556-21.296 0.68902-23.511 38.118 0.31566 26.363 16.782 22.406-31.973 58.262-1.2308 21.82 18.709 6.7702-20.076 7.1328-33.778 0.61195-23.122-11.942-57.191-20.132-77.478-4.6345-11.481 44.373 16.124 36.567 6.5134-14.238-17.529-32.694-32.145-45.858-48.351-17.055-20.997-24.405-34.878-36.559-59.197-10.501-21.011-5.9465-25.34-22.617-35.952-17.603-11.206-33.648 17.928-44.935-4.6553-7.8512-15.708-37.869 9.4224-52.683-0.00796-4.1717-2.6556-16.656-32.666-19.828-36.571-6.9822-8.5961-42.542 3.5936-54.234 6.1898l-11.157 2.4775c-12.796 2.8416-28.611 3.4267-42.457 6.5015-1.0072 0.22366-12.546 19.486-20.767 25.099z" fill="url(#u)" fill-rule="evenodd" opacity=".6"/>
 <path transform="matrix(.41416 -.091969 .091969 .41416 88.064 73.647)" d="m551.43 263.79a94.286 94.286 0 1 1 -188.57 0 94.286 94.286 0 1 1 188.57 0z" fill="url(#e)" fill-rule="evenodd"/>
 <path transform="matrix(1.1833 -.26277 .26277 1.1833 -308.6 -51.166)" d="m551.43 263.79a94.286 94.286 0 1 1 -188.57 0 94.286 94.286 0 1 1 188.57 0z" fill="url(#e)" fill-rule="evenodd" opacity=".6"/>
 <path d="m221.72 18.129c-146.27 32.48-232.8 203.77-193.14 382.37s251.61 374.37 355.42 348.39c106.6-26.598 214.21-287.48 174.55-466.08s-190.56-297.16-336.83-264.68zm-5.2444 5.3581c5.1999-1.6039 11.041-2.4297 17.65-2.2548 19.368 0.51262 32.663 26.514 38.091 26.658 20.479 0.54202 30.72-19.317 45.575-18.924 18.58 0.49176 21.189 8.7208 32.842 16.139 10.823 6.8899 24.287 20.228 38.738 29.427 11.837 7.5353 32.715 24.002 47.104 27.601 13.508 3.3792 31.701 11.002 34.698 24.498 6.3324 28.516-14.448 21.375-14.899 38.425-0.62 23.425 41.676 16.277 48.04 44.936 6.5796 29.629-30.816 41.326-22.019 45.864 0.17767 0.09165 72.199 61.527 30.995 60.437-23.067-0.61051-67.778-34.504-74.698-6.8446-2.5144 10.051-25.863 61.413-44.016 39.065-38.873-47.858-17.132 7.8411-68.795 6.4738-17.014-0.45032-14.751-19.047-14.254-37.809 2.0721-78.291-54.609-11.471-55.159-37.497-1.6588-78.521 6.5776-10.145-17.647-39.969-14.593-17.967-25.614-36.775-52.063-23.555-40.782 20.383-6.405 29.476-4.9505 56.703 1.3524 25.317-31.749 21.715-17.676 39.041 4.7249 5.8171 30.882 53.188 22.316 47.735l-10.252-6.5264c-36.746-23.391-37.037 43.629-65.062-3.0943-21.787-36.324-21.001 20.857-50.222 37.498-11.176 33.51-15.372 9.7713-19.197-7.4531-3.4558-15.562-0.49431-28.606-4.3283-45.871-6.2542-28.164 15.771-21.03 28.811-41.514 7.5872-11.919 36.258-30.446 9.3167-37.185-14.15-3.5397-37.511 6.5336-19.844-10.222 11.358-10.773 59.758-50.389 37.207-69.724-12.698-10.888-49.658-41.663-8.3746-50.831 36.849-8.1828 45.989-9.051 46.799-39.651 0.65948-24.917 38.08-10.894 51.461-31.915 8.2807-13.008 18.212-24.848 33.812-29.66z" fill="url(#v)" fill-rule="evenodd" opacity=".4"/>
 <path transform="matrix(.8353 -.54979 .54979 .8353 -404.37 218.18)" d="m568.57 602.36a164.29 232.86 0 1 1 -328.57 0 164.29 232.86 0 1 1 328.57 0z" fill="url(#d)" fill-rule="evenodd" opacity=".53"/>
 <path transform="matrix(.49782 -.32766 .30801 .46797 -79.096 415.27)" d="m568.57 602.36a164.29 232.86 0 1 1 -328.57 0 164.29 232.86 0 1 1 328.57 0z" fill="url(#d)" fill-rule="evenodd" opacity=".3"/>
 <path d="m223.16 647.36c-18.335-24.262-60.967-66.679-84.57-101.25-13.367-19.579-23.259-50.613 1.3224-49.962 37.268 0.98637 32.963 59.583 31.556-7.0075-0.0903-4.2743 28.978 44.927 54.783 4.3909 20.491-32.189 27.586 49.668 31.545 67.498 1.5402 6.9357 35.923 12.726 49.962 1.3223 35.296-28.67 6.9329 34.373 6.5667 48.21-0.89095 33.662 73.164-41.607 76.703-46.006 32.961-40.966 50.845-10.706 72.759-45.13 23.006-36.141 48.395-65.382 66.192-93.341 14.1-22.149-23.01-31.227 10.087-47.769 25.06-12.525 21.8 45.562 16.208 54.347-13.638 21.424-38.608 14.175-39.451 46.012-0.52715 19.917-0.87959 33.317 4.374 56.975 4.6926 21.132-20.482 53.457-30.251 68.803-13.828 21.722-3.488 30.228-31.562 44.26-19.256 9.6243-21.792 50.293-39.451 46.012-13.722 11.146-36.205 27.079-46.023 35.054-18.363 14.915-39.258-16.116-68.368-9.6522-21.973 4.8795-45.83-9.4892-58.286-20.169-11.998-10.287-20.75-37.527-24.097-52.596z" fill="url(#w)" fill-rule="evenodd" opacity=".1"/>
 <path d="m558.54 282.83c39.66 178.6-67.947 439.47-174.54 466.06-103.81 25.979-315.74-169.78-355.4-348.38s46.86-349.91 193.13-382.39 297.16 86.108 336.82 264.71z" fill="url(#l)" fill-rule="evenodd"/>
 <path transform="matrix(.95567 -.14762 .1429 .65673 -91.365 302.37)" d="m421.43 740.93a45.714 23.571 0 1 1 -91.429 0 45.714 23.571 0 1 1 91.429 0z" fill="url(#m)" fill-rule="evenodd" opacity=".3"/>
 <path d="m372.75 735.24c-5.9355 3.6492-15.409 17.309-18.183 24.244-1.5433 3.8583-9.0917 5.0509-13.132 7.0711-7.9485 3.9742-3.7394 11.112 4.0406 11.112 10.363 0 20.275 0.0143 30.305 2.0203 7.5648 1.513 15.433 1.0102 23.234 1.0102 7.9438 0 8.9786-5.2763 7.0711-9.0914-1.7358-3.4716-10.956-7.7692-13.132-12.122-2.0656-4.1313-1.8953-18.342-7.0711-22.223-0.38095-0.28571-6.7176-5.9639-13.132-2.0203z" fill="url(#ab)" fill-rule="evenodd"/>
 <path d="m372.75 735.24c-5.9355 3.6492-15.409 17.309-18.183 24.244-1.5433 3.8583-9.0917 5.0509-13.132 7.0711-7.9485 3.9742-3.7394 11.112 4.0406 11.112 10.363 0 20.275 0.0143 30.305 2.0203 7.5648 1.513 15.433 1.0102 23.234 1.0102 7.9438 0 8.9786-5.2763 7.0711-9.0914-1.7358-3.4716-10.956-7.7692-13.132-12.122-2.0656-4.1313-1.8953-18.342-7.0711-22.223-0.38095-0.28571-6.7176-5.9639-13.132-2.0203z" fill="url(#aa)" fill-rule="evenodd"/>
 <path d="m372.75 735.24c-5.9355 3.6492-15.409 17.309-18.183 24.244-1.5433 3.8583-9.0917 5.0509-13.132 7.0711-7.9485 3.9742-3.7394 11.112 4.0406 11.112 10.363 0 20.275 0.0143 30.305 2.0203 7.5648 1.513 15.433 1.0102 23.234 1.0102 7.9438 0 8.9786-5.2763 7.0711-9.0914-1.7358-3.4716-10.956-7.7692-13.132-12.122-2.0656-4.1313-1.8953-18.342-7.0711-22.223-0.38095-0.28571-6.7176-5.9639-13.132-2.0203z" fill="url(#z)" fill-rule="evenodd" opacity=".46759"/>
 <path d="m372.75 735.24c-5.9355 3.6492-15.409 17.309-18.183 24.244-1.5433 3.8583-9.0917 5.0509-13.132 7.0711-7.9485 3.9742-3.7394 11.112 4.0406 11.112 10.363 0 20.275 0.0143 30.305 2.0203 7.5648 1.513 15.433 1.0102 23.234 1.0102 7.9438 0 8.9786-5.2763 7.0711-9.0914-1.7358-3.4716-10.956-7.7692-13.132-12.122-2.0656-4.1313-1.8953-18.342-7.0711-22.223-0.38095-0.28571-6.7176-5.9639-13.132-2.0203z" fill="url(#y)" fill-rule="evenodd" opacity=".50926"/>
 <path d="m358.6 766.36c3.3826 0.43801 11.266-0.30613 16.576-1.5379 4.4948-1.0425 7.2171-1.3132 9.9457-3.8446 3.9482-3.6629 3.8424-0.52886 9.1169 1.895 2.9303 3.1286 7.1762 2.0828 10.147 8.1011 2.9303 2.7186-11.804 0-15.948 0-4.452 0-8.2997-0.76893-12.432-0.76893-2.8509 0-8.6656-1.0487-10.775-1.5378-3.2818-0.76117-1.5859-1.3708-6.6305-2.3068z" fill="url(#o)" fill-rule="evenodd" opacity=".67593"/>
 <path transform="matrix(.4687 -.17161 .34381 .93904 -50.684 103.73)" d="m387.14 752.36a8.5714 8.5714 0 1 1 -17.143 0 8.5714 8.5714 0 1 1 17.143 0z" fill="url(#n)" fill-rule="evenodd" opacity=".46759"/>
 <path d="m384.1 745.83c-0.3158 0.0821-0.62775-0.17836-0.94162-0.26754 7.0312 1.4632 0.11247-0.14806 1.1833-1.5578-0.28866-0.20965-0.10011 0.09788-0.23015 0.22502l4.0129-9.4232c1.896 1.2204 3.96 1.8661 5.0791 4.0618 4.6622 11.939-2.839 20.797-15.457 15.351-8.5854-7.9009-5.3668-17.927 6.3536-18.753v10.365z" fill="url(#k)"/>
 <path d="m389.82 848.98c19.503 32.603-40.167 32.936-38.799 67.422 1.3817 34.843 32.218 19.787 50.782 50.331l1.3578 12.088c-27.175-37.964-52.844-27.652-53.919-61.72s45.612-45.57 41.37-61.82l-0.79116-6.3017z" fill="url(#s)"/>
 <path d="m395.35 1000.7c-9.2864 13.302-47.781 27.059-47.63 11.59 0.35989-36.898 55.373-18.881 56.593 11.288 0.59378 14.678-36.308 13.991-42.145 26.91l-1.0611-8.487c4.8986-11.006 39.145-9.5745 37.448-17.73-5.8074-27.907-35.524-27.016-46.194-18.353 1.285 15.131 34.93 0.8015 42.614-12.701l0.37509 7.482z" fill="url(#r)"/>
 <path d="m395.35 1000.7c-9.2864 13.302-47.781 27.059-47.63 11.59l4.641-6.3715c1.285 15.131 34.93 0.8015 42.614-12.701l0.37509 7.482z" fill="url(#q)"/>
 <path d="m384.1 745.83c-0.3158 0.0821-0.62775-0.17836-0.94162-0.26754 7.0312 1.4632 0.11247-0.14806 1.1833-1.5578-0.28866-0.20965-0.10011 0.09788-0.23015 0.22502l4.0129-9.4232c1.896 1.2204 3.96 1.8661 5.0791 4.0618 4.6622 11.939-2.839 20.797-15.457 15.351-8.5854-7.9009-5.3668-17.927 6.3536-18.753v10.365z" fill="url(#p)"/>
 <path d="m392.33 736.55c-9.7508 22.191-12.99 1.4424-21.293 2.7533-12.743-0.02489-32.129 6.3088-38.989 16.555-9.4043 14.048-13.051 28.868-5.669 47.75 7.4303 19.005 31.709 25.712 55.78 39.274l0.31106 4.0082c-18.274-14.306-51.053-14.918-61.218-36.509-10.303-21.883-9.6147-39.627 10.162-58.705 10.473-9.7433 22.831-17.617 37.494-17.937l23.422 2.8103z" fill="url(#t)"/>
 <path d="m392.33 736.55c-9.7508 22.191-12.99 1.4424-21.293 2.7533-12.743-0.02489-16.792-5.2439-2.1289-5.5636l23.422 2.8103z" fill="url(#h)" opacity=".63889"/>
</svg>
