<svg xmlns="http://www.w3.org/2000/svg" xmlns:xlink="http://www.w3.org/1999/xlink" width="1920" height="1080" viewBox="0 0 1920 1080">
  <defs>
    <style>
      .cls-1, .cls-15, .cls-19, .cls-23, .cls-28, .cls-5 {
        fill: #fff;
      }

      .cls-1, .cls-8 {
        stroke: #a2a2a2;
      }

      .cls-2, .cls-8 {
        fill: none;
      }

      .cls-3 {
        clip-path: url(#clip-Case_1_-_Start);
      }

      .cls-4 {
        fill: url(#pattern);
      }

      .cls-5 {
        stroke: #707070;
      }

      .cls-6 {
        clip-path: url(#clip-path);
      }

      .cls-7 {
        fill: #e3e3e3;
      }

      .cls-9 {
        fill: #707070;
      }

      .cls-25, .cls-26, .cls-9 {
        font-size: 16px;
      }

      .cls-19, .cls-20, .cls-25, .cls-9 {
        font-family: SegoeUI, Segoe UI;
      }

      .cls-10 {
        clip-path: url(#clip-path-2);
      }

      .cls-11 {
        fill: #009b3a;
      }

      .cls-12 {
        fill: #fedf00;
      }

      .cls-13 {
        fill: #002776;
      }

      .cls-14 {
        clip-path: url(#clip-path-3);
      }

      .cls-16 {
        clip-path: url(#clip-path-4);
      }

      .cls-17 {
        fill: #346e93;
      }

      .cls-18 {
        fill: #ba2027;
        stroke: #fff;
        stroke-width: 2px;
      }

      .cls-19, .cls-20, .cls-23 {
        font-size: 20px;
      }

      .cls-20 {
        fill: #2e2e2e;
      }

      .cls-21 {
        fill: #d6d6d6;
      }

      .cls-22 {
        fill: #0d4a71;
      }

      .cls-23, .cls-26 {
        font-family: SegoeUI-Bold, Segoe UI;
        font-weight: 700;
      }

      .cls-24 {
        fill: #0d7114;
      }

      .cls-25, .cls-26 {
        fill: #545454;
      }

      .cls-27, .cls-28 {
        stroke: none;
      }

      .cls-29 {
        filter: url(#Retângulo_124);
      }
    </style>
    <pattern id="pattern" width="1" height="1" patternTransform="matrix(-1, 0, 0, 1, 3264, 0)" viewBox="-2059.774 -409.685 3320.705 1736.114">
      <image preserveAspectRatio="xMidYMid slice" width="1632" height="1475.254" xlink:href="Case%201%20-%20Start-image2.png"/>
    </pattern>
    <filter id="Retângulo_124" x="238" y="194" width="1032" height="793" filterUnits="userSpaceOnUse">
      <feOffset dy="3" input="SourceAlpha"/>
      <feGaussianBlur stdDeviation="3" result="blur"/>
      <feFlood flood-opacity="0.161"/>
      <feComposite operator="in" in2="blur"/>
      <feComposite in="SourceGraphic"/>
    </filter>
    <clipPath id="clip-path">
      <rect class="cls-2" width="1920" height="52"/>
    </clipPath>
    <clipPath id="clip-path-2">
      <rect id="Retângulo_32" data-name="Retângulo 32" class="cls-1" width="48" height="32" rx="16" transform="translate(1625 10.217)"/>
    </clipPath>
    <clipPath id="clip-path-3">
      <ellipse id="Elipse_8" data-name="Elipse 8" cx="8.4" cy="8.4" rx="8.4" ry="8.4"/>
    </clipPath>
    <clipPath id="clip-path-4">
      <rect class="cls-2" width="50" height="50.694"/>
    </clipPath>
    <clipPath id="clip-Case_1_-_Start">
      <rect width="1920" height="1080"/>
    </clipPath>
  </defs>
  <g id="Case_1_-_Start" data-name="Case 1 - Start" class="cls-3">
    <rect class="cls-15" width="1920" height="1080"/>
    <g id="Grupo_546" data-name="Grupo 546" transform="translate(144 161)">
      <image id="bg" width="1632" height="853.234" transform="translate(0)" xlink:href="Case%201%20-%20Start-image.png"/>
      <rect id="personagem1" class="cls-4" width="1632" height="853.234" rx="23" transform="translate(0)"/>
    </g>
    <g class="cls-29" transform="matrix(1, 0, 0, 1, 0, 0)">
      <g id="Retângulo_124-2" data-name="Retângulo 124" class="cls-5" transform="translate(247 200)">
        <rect class="cls-27" width="1014" height="775" rx="20"/>
        <rect class="cls-2" x="0.5" y="0.5" width="1013" height="774" rx="19.5"/>
      </g>
    </g>
    <g id="Menu_superior" data-name="Menu superior" class="cls-6">
      <rect id="Retângulo_3" data-name="Retângulo 3" class="cls-7" width="1920" height="50"/>
      <g id="Retângulo_12" data-name="Retângulo 12" class="cls-8" transform="translate(1518 10)">
        <rect class="cls-27" width="92" height="31.566" rx="15.783"/>
        <rect class="cls-2" x="0.5" y="0.5" width="91" height="30.566" rx="15.283"/>
      </g>
      <text id="Fulano" class="cls-9" transform="translate(1543 31)"><tspan x="0" y="0">Fulano</tspan></text>
      <g id="Grupo_de_máscara_10" data-name="Grupo de máscara 10" class="cls-10">
        <g id="Grupo_352" data-name="Grupo 352" transform="translate(21699.588 8140.558)">
          <rect id="Retângulo_31" data-name="Retângulo 31" class="cls-11" width="48.001" height="33.6" transform="translate(-20074.588 -8131.483)"/>
          <path id="Caminho_318" data-name="Caminho 318" class="cls-12" d="M-1743-1100.28l19.921,12.72,19.92-12.72-19.92-12.72Z" transform="translate(-18327.506 -7014.403)"/>
          <ellipse id="Elipse_7" data-name="Elipse 7" class="cls-13" cx="8.4" cy="8.4" rx="8.4" ry="8.4" transform="translate(-20058.783 -8123.083)"/>
          <g id="Grupo_237" data-name="Grupo 237" class="cls-14" transform="translate(-20058.783 -8123.083)">
            <path id="Caminho_319" data-name="Caminho 319" class="cls-15" d="M-2205-294.6a20.4,20.4,0,0,1,20.4-20.4,20.4,20.4,0,0,1,20.4,20.4h-1.2a19.2,19.2,0,0,0-19.2-19.2,19.2,19.2,0,0,0-19.2,19.2Z" transform="translate(2188.2 319.8)"/>
          </g>
        </g>
      </g>
      <g id="Retângulo_11" data-name="Retângulo 11" class="cls-8" transform="translate(1625 10.217)">
        <rect class="cls-27" width="48" height="32" rx="14"/>
        <rect class="cls-2" x="0.5" y="0.5" width="47" height="31" rx="13.5"/>
      </g>
    </g>
    <g id="Seta_voltar" data-name="Seta voltar" class="cls-16" transform="translate(66.5 161.052)">
      <ellipse id="Elipse_5" data-name="Elipse 5" class="cls-17" cx="25" cy="25.347" rx="25" ry="25.347"/>
      <path id="Caminho_320" data-name="Caminho 320" class="cls-15" d="M848.3,178.118H827.722a.362.362,0,0,1-.25-.616l4.574-4.675a.366.366,0,0,0,0-.51l-3.154-3.223a.348.348,0,0,0-.5,0l-8.83,9.024h-.037v.038l-2.316,2.367a.367.367,0,0,0,0,.51l11.182,11.428a.348.348,0,0,0,.5,0l3.154-3.223a.366.366,0,0,0,0-.51l-4.613-4.714a.362.362,0,0,1,.25-.616H848.3a.357.357,0,0,0,.353-.361v-4.558A.357.357,0,0,0,848.3,178.118Z" transform="translate(-808.081 -155.099)"/>
    </g>
    <g id="Grupo_545" data-name="Grupo 545" transform="translate(-236 21)">
      <g id="Retângulo_18" data-name="Retângulo 18" class="cls-18" transform="translate(840 859)">
        <rect class="cls-27" width="301" height="59" rx="29.5"/>
        <rect class="cls-2" x="1" y="1" width="299" height="57" rx="28.5"/>
      </g>
      <text id="Ok._I_would_like_to_see_him._" data-name="Ok. I would like to see him. " class="cls-19" transform="translate(869 897)"><tspan x="0" y="0">Ok. I would like to see him. </tspan></text>
    </g>
    <text id="Doctor_we_have_a_man_51_years_old_who_entered_the_emergency_department_reporting_chest_pain._His_vital_signs_are:_ABP_144x92_mmHG_HR_78_bpm_RR_21_rpm_Temperature_37_C_O2_Sat_98_._" data-name="Doctor, we have a man, 51 years old, who entered the emergency department reporting chest pain. His vital signs are: 

ABP 144x92 mmHG; 
HR 78 bpm; 
RR 21 rpm; 
Temperature 37 ºC; 
O2 Sat 98%.

" class="cls-20" transform="translate(350 297)"><tspan x="0" y="22">Doctor, we have a man, 51 years old, who entered the emergency department reporting </tspan><tspan x="0" y="49">chest pain. His vital signs are: </tspan><tspan x="0" y="76"></tspan><tspan x="0" y="103">ABP 144x92 mmHG; </tspan><tspan x="0" y="130">HR 78 bpm; </tspan><tspan x="0" y="157">RR 21 rpm; </tspan><tspan x="0" y="184">Temperature 37 ºC; </tspan><tspan x="0" y="211">O2 Sat 98%.</tspan></text>
    <rect id="Retângulo_88" data-name="Retângulo 88" class="cls-21" width="293" height="15" rx="7.5" transform="translate(144 119)"/>
    <g id="Grupo_544" data-name="Grupo 544" transform="translate(-247 -80)">
      <g id="Caminho_401" data-name="Caminho 401" class="cls-22" transform="translate(1666 1008)">
        <path class="cls-27" d="M 188.5 46 L 23.5 46 C 20.46208381652832 46 17.51555633544922 45.40525054931641 14.74227809906006 44.23225021362305 C 12.06313896179199 43.09905624389648 9.656777381896973 41.47658157348633 7.590083122253418 39.40991592407227 C 5.523416519165039 37.34322357177734 3.900944471359253 34.93686294555664 2.767750024795532 32.25772094726563 C 1.594750046730042 29.48444366455078 1 26.53791618347168 1 23.5 C 1 20.46208381652832 1.594750046730042 17.51555633544922 2.767750024795532 14.74227809906006 C 3.900944471359253 12.06313896179199 5.523416519165039 9.656777381896973 7.590083122253418 7.590083122253418 C 9.656777381896973 5.523416519165039 12.06313896179199 3.900944471359253 14.74227809906006 2.767750024795532 C 17.51555633544922 1.594750046730042 20.46208381652832 1 23.5 1 L 188.5 1 C 191.5379180908203 1 194.4844512939453 1.594750046730042 197.2577209472656 2.767750024795532 C 199.9368591308594 3.900944471359253 202.3432159423828 5.523416519165039 204.409912109375 7.590083122253418 C 206.4765777587891 9.656777381896973 208.0990600585938 12.06313896179199 209.2322540283203 14.74227809906006 C 210.4052429199219 17.51555633544922 211 20.46208381652832 211 23.5 C 211 26.53791618347168 210.4052429199219 29.48444366455078 209.2322540283203 32.25772094726563 C 208.0990600585938 34.93686294555664 206.4765777587891 37.34322357177734 204.409912109375 39.40991592407227 C 202.3432159423828 41.47658157348633 199.9368591308594 43.09905624389648 197.2577209472656 44.23225021362305 C 194.4844512939453 45.40525054931641 191.5379180908203 46 188.5 46 Z"/>
        <path class="cls-28" d="M 23.5 2 C 20.59663391113281 2 17.78118896484375 2.568164825439453 15.1318359375 3.688751220703125 C 12.57188415527344 4.771526336669922 10.27235412597656 6.322029113769531 8.297195434570313 8.297195434570313 C 6.322021484375 10.27236175537109 4.771530151367188 12.5718879699707 3.688751220703125 15.13183403015137 C 2.568161010742188 17.78119468688965 2 20.59663963317871 2 23.5 C 2 26.40336036682129 2.568161010742188 29.21880531311035 3.688751220703125 31.86816787719727 C 4.771530151367188 34.4281120300293 6.322021484375 36.72763824462891 8.297195434570313 38.70280456542969 C 10.27235412597656 40.67797088623047 12.57188415527344 42.22847366333008 15.1318359375 43.31124877929688 C 17.78118896484375 44.43183135986328 20.59663391113281 45 23.5 45 L 188.5 45 C 191.4033660888672 45 194.2188110351563 44.43183135986328 196.8681640625 43.31124877929688 C 199.4281158447266 42.22847366333008 201.7276458740234 40.67797088623047 203.7028045654297 38.70280456542969 C 205.677978515625 36.72763824462891 207.2284698486328 34.4281120300293 208.3112487792969 31.86816787719727 C 209.4318389892578 29.21880531311035 210 26.40336036682129 210 23.5 C 210 20.59663963317871 209.4318389892578 17.78119468688965 208.3112487792969 15.13183403015137 C 207.2284698486328 12.5718879699707 205.677978515625 10.27236175537109 203.7028045654297 8.297195434570313 C 201.7276458740234 6.322029113769531 199.4281158447266 4.771526336669922 196.8681640625 3.688751220703125 C 194.2188110351563 2.568164825439453 191.4033660888672 2 188.5 2 L 23.5 2 M 23.5 0 L 188.5 0 C 201.4786987304688 0 212 10.52130508422852 212 23.5 C 212 36.47869491577148 201.4786987304688 47 188.5 47 L 23.5 47 C 10.52130126953125 47 0 36.47869491577148 0 23.5 C 0 10.52130508422852 10.52130126953125 0 23.5 0 Z"/>
      </g>
      <text id="NURSE" class="cls-23" transform="translate(1740 1038)"><tspan x="0" y="0">NURSE</tspan></text>
    </g>
    <rect id="Retângulo_89" data-name="Retângulo 89" class="cls-24" width="20" height="15" rx="7.5" transform="translate(144 119)"/>
    <text id="Challenge_progress" data-name="Challenge progress" class="cls-25" transform="translate(144 106)"><tspan x="0" y="0">Challenge progress</tspan></text>
    <text id="Sua_pontuação_total" data-name="Sua pontuação total" class="cls-25" transform="translate(453 106)"><tspan x="0" y="0">Sua pontuação total</tspan></text>
    <text id="_Categoria_de_médico_" data-name="&quot;Categoria de médico&quot;" class="cls-25" transform="translate(659 106)"><tspan x="0" y="0">&quot;Categoria de médico&quot;</tspan></text>
    <text id="_120.895_pontos" data-name="120.895 pontos" class="cls-26" transform="translate(453 130)"><tspan x="0" y="0">120.895 pontos</tspan></text>
    <text id="Médico_empolgado" data-name="Médico empolgado" class="cls-26" transform="translate(659 130)"><tspan x="0" y="0">Médico empolgado</tspan></text>
  </g>
</svg>
