<svg xmlns="http://www.w3.org/2000/svg" xmlns:xlink="http://www.w3.org/1999/xlink" width="414" height="1705" viewBox="0 0 414 1705">
  <defs>
    <style>
      .cls-1, .cls-13 {
        fill: #fff;
      }

      .cls-1, .cls-6 {
        stroke: #a2a2a2;
      }

      .cls-2, .cls-3 {
        fill: #9a1c26;
      }

      .cls-2 {
        opacity: 0.22;
      }

      .cls-4 {
        clip-path: url(#clip-iPhone_6_7_8_Plus_5);
      }

      .cls-5 {
        fill: #e3e3e3;
      }

      .cls-20, .cls-26, .cls-30, .cls-6 {
        fill: none;
      }

      .cls-18, .cls-7 {
        fill: #707070;
      }

      .cls-7 {
        font-size: 11px;
      }

      .cls-15, .cls-18, .cls-7 {
        font-family: SegoeUI, Segoe UI;
      }

      .cls-8 {
        clip-path: url(#clip-path);
      }

      .cls-9 {
        fill: #009b3a;
      }

      .cls-10 {
        fill: #fedf00;
      }

      .cls-11 {
        fill: #002776;
      }

      .cls-12 {
        clip-path: url(#clip-path-2);
      }

      .cls-14, .cls-16 {
        fill: #666;
      }

      .cls-14 {
        font-size: 13px;
      }

      .cls-14, .cls-16, .cls-21, .cls-25, .cls-28 {
        font-family: SegoeUI-Bold, Segoe UI;
        font-weight: 700;
      }

      .cls-15 {
        font-weight: 400;
      }

      .cls-16, .cls-17 {
        font-size: 20px;
      }

      .cls-17, .cls-19, .cls-21, .cls-25, .cls-28, .cls-31 {
        fill: #346e93;
      }

      .cls-17 {
        font-family: SegoeUIBlack, Segoe UI;
      }

      .cls-18, .cls-25 {
        font-size: 15px;
      }

      .cls-21 {
        font-size: 12px;
      }

      .cls-22 {
        clip-path: url(#clip-path-3);
      }

      .cls-23 {
        fill: #ebebeb;
        stroke: #6e6e6e;
      }

      .cls-23, .cls-26 {
        stroke-width: 5px;
      }

      .cls-24 {
        fill: #6e6e6e;
      }

      .cls-26 {
        stroke: #346e93;
      }

      .cls-27 {
        clip-path: url(#clip-path-4);
      }

      .cls-28 {
        font-size: 30px;
      }

      .cls-29, .cls-31 {
        stroke: none;
      }
    </style>
    <clipPath id="clip-path">
      <rect id="Retângulo_99" data-name="Retângulo 99" class="cls-1" width="28.143" height="18.762" rx="9.381"/>
    </clipPath>
    <clipPath id="clip-path-2">
      <ellipse id="Elipse_15" data-name="Elipse 15" cx="4.925" cy="4.925" rx="4.925" ry="4.925"/>
    </clipPath>
    <clipPath id="clip-path-3">
      <path id="Caminho_391" data-name="Caminho 391" class="cls-2" d="M39.848,0A39.848,39.848,0,1,1,0,39.848,39.848,39.848,0,0,1,39.848,0Z"/>
    </clipPath>
    <clipPath id="clip-path-4">
      <rect id="Retângulo_34" data-name="Retângulo 34" class="cls-3" width="79.863" height="79.863" rx="39.932"/>
    </clipPath>
    <clipPath id="clip-iPhone_6_7_8_Plus_5">
      <rect width="414" height="1705"/>
    </clipPath>
  </defs>
  <g id="iPhone_6_7_8_Plus_5" data-name="iPhone 6/7/8 Plus – 5" class="cls-4">
    <rect class="cls-13" width="414" height="1705"/>
    <rect id="Retângulo_96" data-name="Retângulo 96" class="cls-5" width="414" height="40"/>
    <g id="Retângulo_97" data-name="Retângulo 97" class="cls-6" transform="translate(281.395 11.455)">
      <rect class="cls-29" width="68.013" height="18.508" rx="9.254"/>
      <rect class="cls-30" x="0.5" y="0.5" width="67.013" height="17.508" rx="8.754"/>
    </g>
    <text id="Entrar" class="cls-7" transform="translate(301.328 24.5)"><tspan x="0" y="0">Entrar</tspan></text>
    <g id="Grupo_de_máscara_16" data-name="Grupo de máscara 16" class="cls-8" transform="translate(355.855 11.455)">
      <g id="Grupo_521" data-name="Grupo 521" transform="translate(0 -0.67)">
        <rect id="Retângulo_98" data-name="Retângulo 98" class="cls-9" width="28.144" height="19.701"/>
        <path id="Caminho_386" data-name="Caminho 386" class="cls-10" d="M-1743-1105.542l11.68,7.458,11.68-7.458-11.68-7.458Z" transform="translate(1745.393 1115.392)"/>
        <ellipse id="Elipse_14" data-name="Elipse 14" class="cls-11" cx="4.925" cy="4.925" rx="4.925" ry="4.925" transform="translate(9.267 4.925)"/>
        <g id="Grupo_520" data-name="Grupo 520" class="cls-12" transform="translate(9.267 4.925)">
          <path id="Caminho_387" data-name="Caminho 387" class="cls-13" d="M-2205-303.039A11.961,11.961,0,0,1-2193.039-315a11.961,11.961,0,0,1,11.961,11.961h-.7a11.258,11.258,0,0,0-11.258-11.258,11.258,11.258,0,0,0-11.257,11.258Z" transform="translate(2195.15 317.814)"/>
        </g>
      </g>
    </g>
    <g id="footer" transform="translate(0 -3903.598)">
      <path id="Caminho_317" data-name="Caminho 317" class="cls-5" d="M0,0H414V103.379H0Z" transform="translate(0 5396)"/>
      <path id="Caminho_389" data-name="Caminho 389" class="cls-5" d="M0,0H414V51.763H0Z" transform="translate(0 5588.834)"/>
      <text id="Fale_com_o_Jacinto_jacintobemelhor_gmail.com" data-name="Fale com o Jacinto
jacintobemelhor@gmail.com" class="cls-14" transform="translate(212 5408)"><tspan x="0" y="14">Fale com o Jacinto</tspan><tspan class="cls-15"><tspan x="0" y="31">jacintobemelhor@gmail.com</tspan></tspan></text>
      <text id="Equipe_Fulano_da_Silva_Sauro_Reis_Ciclano_da_Mendonça_Reis_Beltrano_de_Almeida_Barros_" data-name="Equipe
Fulano da Silva Sauro Reis
Ciclano da Mendonça Reis
Beltrano de Almeida Barros
" class="cls-14" transform="translate(36 5408)"><tspan x="0" y="14">Equipe</tspan><tspan class="cls-15"><tspan x="0" y="31">Fulano da Silva Sauro Reis</tspan><tspan x="0" y="48">Ciclano da Mendonça Reis</tspan><tspan x="0" y="65">Beltrano de Almeida Barros</tspan></tspan></text>
      <text id="Siga_o_Jacinto_Facebook_Instagram" data-name="Siga o Jacinto
Facebook | Instagram" class="cls-16" transform="translate(36 5515)"><tspan x="105.956" y="22">Siga o Jacinto</tspan><tspan class="cls-15"><tspan x="76.977" y="49">Facebook | Instagram</tspan></tspan></text>
    </g>
    <text id="Go_with_the_flow" data-name="Go with the flow" class="cls-17" transform="translate(88 73.189)"><tspan x="0" y="22">Go with the flow</tspan></text>
    <text id="You_ve_got_the_power" data-name="You&apos;ve got the power" class="cls-17" transform="translate(88 475.189)"><tspan x="0" y="22">You&apos;ve got the power</tspan></text>
    <text id="Let_the_Phil_choose_your_next_challenges." data-name="Let the Phil choose your next challenges." class="cls-18" transform="translate(88 100.063)"><tspan x="0" y="16">Let the Phil choose your next challenges.</tspan></text>
    <text id="You_choose_the_next_challenge." data-name="You choose the next challenge." class="cls-18" transform="translate(88 502.063)"><tspan x="0" y="16">You choose the next challenge.</tspan></text>
    <g id="Grupo_524" data-name="Grupo 524" transform="translate(-154 17.607)">
      <circle id="Elipse_16" data-name="Elipse 16" class="cls-19" cx="16.196" cy="16.196" r="16.196" transform="translate(190 66)"/>
      <path id="Caminho_390" data-name="Caminho 390" class="cls-13" d="M837.481,174.822H824.039a.23.23,0,0,1-.163-.393l2.987-2.987a.23.23,0,0,0,0-.326l-2.06-2.06a.231.231,0,0,0-.326,0l-5.766,5.766h-.024v.024l-1.512,1.512a.231.231,0,0,0,0,.326l7.3,7.3a.23.23,0,0,0,.326,0l2.06-2.059a.23.23,0,0,0,0-.326l-3.012-3.012a.23.23,0,0,1,.163-.393h13.466a.23.23,0,0,0,.23-.23v-2.913A.23.23,0,0,0,837.481,174.822Z" transform="translate(-621.34 -94.114)"/>
    </g>
    <g id="Grupo_353" data-name="Grupo 353" transform="translate(36 143.087)">
      <g id="Caminho_321" data-name="Caminho 321" class="cls-20" transform="translate(88 0)">
        <path class="cls-29" d="M17.606,0H148.394A17.631,17.631,0,0,1,166,17.655V62.04A17.631,17.631,0,0,1,148.394,79.7H17.606A17.631,17.631,0,0,1,0,62.04V17.655A17.631,17.631,0,0,1,17.606,0Z"/>
        <path class="cls-31" d="M 17.60604858398438 4.999984741210938 C 14.24147033691406 4.999984741210938 11.07757568359375 6.314590454101563 8.697128295898438 8.701637268066406 C 6.313003540039063 11.09241485595703 5 14.27208709716797 5 17.65498733520508 L 5 62.04043579101563 C 5 65.42330932617188 6.313003540039063 68.60301208496094 8.697128295898438 70.99376678466797 C 11.07754516601563 73.38081359863281 14.24147033691406 74.69541168212891 17.60604858398438 74.69541168212891 L 148.3939514160156 74.69541168212891 C 151.7585296630859 74.69541168212891 154.9224548339844 73.38081359863281 157.3028717041016 70.99376678466797 C 159.6869964599609 68.60301208496094 161 65.42330932617188 161 62.04043579101563 L 161 17.65498733520508 C 161 14.27208709716797 159.6869964599609 11.09241485595703 157.3028717041016 8.701637268066406 C 154.9224243164063 6.314590454101563 151.7585296630859 4.999984741210938 148.3939514160156 4.999984741210938 L 17.60604858398438 4.999984741210938 M 17.60604858398438 -1.52587890625e-05 L 148.3939514160156 -1.52587890625e-05 C 158.1174926757813 -1.52587890625e-05 166 7.904411315917969 166 17.65498733520508 L 166 62.04043579101563 C 166 71.791015625 158.1174926757813 79.69541168212891 148.3939514160156 79.69541168212891 L 17.60604858398438 79.69541168212891 C 7.88250732421875 79.69541168212891 0 71.791015625 0 62.04043579101563 L 0 17.65498733520508 C 0 7.904411315917969 7.88250732421875 -1.52587890625e-05 17.60604858398438 -1.52587890625e-05 Z"/>
      </g>
      <rect id="Retângulo_33" data-name="Retângulo 33" class="cls-3" width="79.695" height="79.695" rx="18" transform="translate(88 0)"/>
      <text id="Challenge_1" data-name="Challenge 1" class="cls-21" transform="translate(175.014 31.047)"><tspan x="0" y="13">Challenge 1</tspan></text>
      <g id="Grupo_de_máscara_25" data-name="Grupo de máscara 25" class="cls-22" transform="translate(88 0)">
        <image id="cherry-fatal-error" width="62.213" height="105.265" transform="translate(5.044 -12.04)" xlink:href="iPhone%206-7-8%20Plus%20-%205-image.png"/>
      </g>
    </g>
    <g id="Retângulo_27" data-name="Retângulo 27" class="cls-23" transform="translate(124 237.087)">
      <rect class="cls-29" width="166" height="79.763" rx="22"/>
      <rect class="cls-30" x="2.5" y="2.5" width="161" height="74.763" rx="19.5"/>
    </g>
    <g id="Retângulo_111" data-name="Retângulo 111" class="cls-23" transform="translate(124 337.087)">
      <rect class="cls-29" width="166" height="79.763" rx="22"/>
      <rect class="cls-30" x="2.5" y="2.5" width="161" height="74.763" rx="19.5"/>
    </g>
    <path id="Caminho_379" data-name="Caminho 379" class="cls-24" d="M1951.522-48.452h.3c.39,0,.782-.012,1.171.017.457.034.634.244.656.7,0,.088,0,.175,0,.263q0,4.973,0,9.946a2.99,2.99,0,0,1-.026.429.538.538,0,0,1-.5.5,1.88,1.88,0,0,1-.273.022h-14.56a1.56,1.56,0,0,1-.19-.012.6.6,0,0,1-.608-.657c-.008-.143-.005-.287-.005-.43q0-4.859,0-9.719a3.466,3.466,0,0,1,.019-.477.568.568,0,0,1,.576-.56c.417-.032.835-.037,1.253-.051.127,0,.254,0,.4,0v-.16c0-.992-.023-1.985.01-2.976a5.812,5.812,0,0,1,2.359-4.612,5.188,5.188,0,0,1,2.438-.97,6.423,6.423,0,0,1,3.4.376,5.869,5.869,0,0,1,3.4,4,6.874,6.874,0,0,1,.089,1.332c.023.992.051,1.983.077,2.975A.609.609,0,0,0,1951.522-48.452Zm-9.375-.036h7.065a.328.328,0,0,0,.009-.052c-.012-1.143,0-2.287-.045-3.428a3.017,3.017,0,0,0-1.582-2.57,3.855,3.855,0,0,0-2.92-.406,2.981,2.981,0,0,0-2.344,2.113,5.23,5.23,0,0,0-.2,1.511c-.009.717.01,1.433.016,2.15C1942.149-48.946,1942.148-48.72,1942.148-48.489Zm5.159,9.16c-.011-.058-.02-.1-.029-.151q-.338-1.631-.677-3.261a.171.171,0,0,1,.055-.177,1.45,1.45,0,0,0,.44-1,1.5,1.5,0,0,0-1.076-1.5,1.5,1.5,0,0,0-1.716.671,1.486,1.486,0,0,0,.226,1.825.182.182,0,0,1,.054.189q-.284,1.355-.564,2.711c-.047.228-.093.456-.14.692Z" transform="translate(-1738.57 323.768)"/>
    <path id="Caminho_392" data-name="Caminho 392" class="cls-24" d="M1951.522-48.452h.3c.39,0,.782-.012,1.171.017.457.034.634.244.656.7,0,.088,0,.175,0,.263q0,4.973,0,9.946a2.99,2.99,0,0,1-.026.429.538.538,0,0,1-.5.5,1.88,1.88,0,0,1-.273.022h-14.56a1.56,1.56,0,0,1-.19-.012.6.6,0,0,1-.608-.657c-.008-.143-.005-.287-.005-.43q0-4.859,0-9.719a3.466,3.466,0,0,1,.019-.477.568.568,0,0,1,.576-.56c.417-.032.835-.037,1.253-.051.127,0,.254,0,.4,0v-.16c0-.992-.023-1.985.01-2.976a5.812,5.812,0,0,1,2.359-4.612,5.188,5.188,0,0,1,2.438-.97,6.423,6.423,0,0,1,3.4.376,5.869,5.869,0,0,1,3.4,4,6.874,6.874,0,0,1,.089,1.332c.023.992.051,1.983.077,2.975A.609.609,0,0,0,1951.522-48.452Zm-9.375-.036h7.065a.328.328,0,0,0,.009-.052c-.012-1.143,0-2.287-.045-3.428a3.017,3.017,0,0,0-1.582-2.57,3.855,3.855,0,0,0-2.92-.406,2.981,2.981,0,0,0-2.344,2.113,5.23,5.23,0,0,0-.2,1.511c-.009.717.01,1.433.016,2.15C1942.149-48.946,1942.148-48.72,1942.148-48.489Zm5.159,9.16c-.011-.058-.02-.1-.029-.151q-.338-1.631-.677-3.261a.171.171,0,0,1,.055-.177,1.45,1.45,0,0,0,.44-1,1.5,1.5,0,0,0-1.076-1.5,1.5,1.5,0,0,0-1.716.671,1.486,1.486,0,0,0,.226,1.825.182.182,0,0,1,.054.189q-.284,1.355-.564,2.711c-.047.228-.093.456-.14.692Z" transform="translate(-1738.57 423.768)"/>
    <g id="Grupo_353-2" data-name="Grupo 353" transform="translate(124 541.137)">
      <rect id="Retângulo_33-2" data-name="Retângulo 33" class="cls-3" width="79.863" height="79.863" rx="39.932" transform="translate(0 0)"/>
      <text id="Case_1" data-name="Case 1" class="cls-25" transform="translate(94.78 31.112)"><tspan x="0" y="16">Case 1</tspan></text>
      <g id="Retângulo_27-2" data-name="Retângulo 27" class="cls-26" transform="translate(0 0)">
        <rect class="cls-29" width="166.64" height="79.863" rx="39.932"/>
        <rect class="cls-30" x="2.5" y="2.5" width="161.64" height="74.863" rx="37.432"/>
      </g>
      <g id="Grupo_de_máscara_11" data-name="Grupo de máscara 11" class="cls-27" transform="translate(0 0)">
        <image id="cherry-no-connection" width="73.296" height="85.481" transform="translate(3.37 -1.323)" xlink:href="iPhone%206-7-8%20Plus%20-%205-image2.png"/>
      </g>
    </g>
    <g id="Grupo_353-3" data-name="Grupo 353" transform="translate(123.725 629.137)">
      <rect id="Retângulo_33-3" data-name="Retângulo 33" class="cls-3" width="79.863" height="79.863" rx="39.932" transform="translate(0 0)"/>
      <text id="Case_2" data-name="Case 2" class="cls-28" transform="translate(94.78 31.112)"><tspan x="0" y="32">Ca</tspan></text>
      <g id="Retângulo_27-3" data-name="Retângulo 27" class="cls-26" transform="translate(0 0)">
        <rect class="cls-29" width="166.64" height="79.863" rx="39.932"/>
        <rect class="cls-30" x="2.5" y="2.5" width="161.64" height="74.863" rx="37.432"/>
      </g>
      <g id="Grupo_de_máscara_11-2" data-name="Grupo de máscara 11" class="cls-27" transform="translate(0 0)">
        <image id="cherry-downloading" width="72.033" height="116.145" transform="translate(3.791 -21.543)" xlink:href="iPhone%206-7-8%20Plus%20-%205-image3.png"/>
      </g>
    </g>
    <g id="Grupo_353-4" data-name="Grupo 353" transform="translate(123.68 717.137)">
      <rect id="Retângulo_33-4" data-name="Retângulo 33" class="cls-3" width="79.863" height="79.863" rx="39.932" transform="translate(0 0)"/>
      <text id="Case_3" data-name="Case 3" class="cls-28" transform="translate(94.78 31.112)"><tspan x="0" y="32">Ca</tspan></text>
      <g id="Retângulo_27-4" data-name="Retângulo 27" class="cls-26" transform="translate(0 0)">
        <rect class="cls-29" width="166.64" height="79.863" rx="39.932"/>
        <rect class="cls-30" x="2.5" y="2.5" width="161.64" height="74.863" rx="37.432"/>
      </g>
      <g id="Grupo_de_máscara_11-3" data-name="Grupo de máscara 11" class="cls-27" transform="translate(0 0)">
        <image id="cherry-list-is-empty" width="74.311" height="69.084" transform="translate(5.476 5.416)" xlink:href="iPhone%206-7-8%20Plus%20-%205-image4.png"/>
      </g>
    </g>
    <g id="Grupo_509" data-name="Grupo 509" transform="translate(122.656 819.137)">
      <text id="More..." class="cls-28" transform="translate(21.062 31.112)"><tspan x="0" y="32">M</tspan></text>
      <g id="Retângulo_27-5" data-name="Retângulo 27" class="cls-26" transform="translate(0 0)">
        <rect class="cls-29" width="79.863" height="79.863" rx="39.932"/>
        <rect class="cls-30" x="2.5" y="2.5" width="74.863" height="74.863" rx="37.432"/>
      </g>
    </g>
  </g>
</svg>
