<svg xmlns="http://www.w3.org/2000/svg" xmlns:xlink="http://www.w3.org/1999/xlink" width="1920" height="1080" viewBox="0 0 1920 1080">
  <defs>
    <style>
      .cls-1, .cls-13 {
        fill: #fff;
      }

      .cls-1, .cls-6 {
        stroke: #a2a2a2;
      }

      .cls-2, .cls-6 {
        fill: none;
      }

      .cls-3 {
        clip-path: url(#clip-Menu_superior);
      }

      .cls-4 {
        clip-path: url(#clip-path);
      }

      .cls-5 {
        fill: #e3e3e3;
      }

      .cls-7 {
        fill: #707070;
        font-size: 16px;
        font-family: SegoeUI, Segoe UI;
      }

      .cls-8 {
        clip-path: url(#clip-path-2);
      }

      .cls-9 {
        fill: #009b3a;
      }

      .cls-10 {
        fill: #fedf00;
      }

      .cls-11 {
        fill: #002776;
      }

      .cls-12 {
        clip-path: url(#clip-path-3);
      }

      .cls-14 {
        stroke: none;
      }
    </style>
    <clipPath id="clip-path">
      <rect class="cls-2" width="1920" height="52"/>
    </clipPath>
    <clipPath id="clip-path-2">
      <rect id="Retângulo_32" data-name="Retângulo 32" class="cls-1" width="48" height="32" rx="16" transform="translate(1625 10.217)"/>
    </clipPath>
    <clipPath id="clip-path-3">
      <ellipse id="Elipse_8" data-name="Elipse 8" cx="8.4" cy="8.4" rx="8.4" ry="8.4"/>
    </clipPath>
    <clipPath id="clip-Menu_superior">
      <rect width="1920" height="1080"/>
    </clipPath>
  </defs>
  <g id="Menu_superior" data-name="Menu superior" class="cls-3">
    <rect class="cls-13" width="1920" height="1080"/>
    <g id="Menu_superior-2" data-name="Menu superior" class="cls-4">
      <rect id="Retângulo_3" data-name="Retângulo 3" class="cls-5" width="1920" height="50"/>
      <g id="Retângulo_12" data-name="Retângulo 12" class="cls-6" transform="translate(1518 10)">
        <rect class="cls-14" width="92" height="31.566" rx="15.783"/>
        <rect class="cls-2" x="0.5" y="0.5" width="91" height="30.566" rx="15.283"/>
      </g>
      <text id="Entrar" class="cls-7" transform="translate(1543 31)"><tspan x="0" y="0">Entrar</tspan></text>
      <g id="Grupo_de_máscara_10" data-name="Grupo de máscara 10" class="cls-8">
        <g id="Grupo_352" data-name="Grupo 352" transform="translate(21699.588 8140.558)">
          <rect id="Retângulo_31" data-name="Retângulo 31" class="cls-9" width="48.001" height="33.6" transform="translate(-20074.588 -8131.483)"/>
          <path id="Caminho_318" data-name="Caminho 318" class="cls-10" d="M-1743-1100.28l19.921,12.72,19.92-12.72-19.92-12.72Z" transform="translate(-18327.506 -7014.403)"/>
          <ellipse id="Elipse_7" data-name="Elipse 7" class="cls-11" cx="8.4" cy="8.4" rx="8.4" ry="8.4" transform="translate(-20058.783 -8123.083)"/>
          <g id="Grupo_237" data-name="Grupo 237" class="cls-12" transform="translate(-20058.783 -8123.083)">
            <path id="Caminho_319" data-name="Caminho 319" class="cls-13" d="M-2205-294.6a20.4,20.4,0,0,1,20.4-20.4,20.4,20.4,0,0,1,20.4,20.4h-1.2a19.2,19.2,0,0,0-19.2-19.2,19.2,19.2,0,0,0-19.2,19.2Z" transform="translate(2188.2 319.8)"/>
          </g>
        </g>
      </g>
      <g id="Retângulo_11" data-name="Retângulo 11" class="cls-6" transform="translate(1625 10.217)">
        <rect class="cls-14" width="48" height="32" rx="14"/>
        <rect class="cls-2" x="0.5" y="0.5" width="47" height="31" rx="13.5"/>
      </g>
    </g>
  </g>
</svg>
