<svg xmlns="http://www.w3.org/2000/svg" xmlns:xlink="http://www.w3.org/1999/xlink" width="500" zoomAndPan="magnify" viewBox="0 0 375 374.999991" height="500" preserveAspectRatio="xMidYMid meet" version="1.0"><rect x="-37.5" width="450" fill="rgb(64.709473%, 64.709473%, 64.709473%)" y="-37.499999" height="449.999989" fill-opacity="1"/><rect x="-37.5" width="450" fill="rgb(100%, 100%, 100%)" y="-37.499999" height="449.999989" fill-opacity="1"/><rect x="-37.5" width="450" fill="rgb(64.709473%, 64.709473%, 64.709473%)" y="-37.499999" height="449.999989" fill-opacity="1"/><path fill="rgb(64.709473%, 64.709473%, 64.709473%)" d="M 1248.636719 375.226562 L -457.613281 375.226562 L -457.613281 425.273438 L 1248.636719 425.273438 Z M 1248.636719 45.925781 L -457.613281 45.925781 L -457.613281 95.972656 L 1248.636719 95.972656 Z M 1248.636719 45.925781 " fill-opacity="1" fill-rule="evenodd"/><path fill="rgb(27.449036%, 29.019165%, 31.759644%)" d="M -457.632812 95.972656 L 1248.605469 95.972656 L 1248.605469 375.164062 L -457.632812 375.164062 Z M -457.632812 95.972656 " fill-opacity="1" fill-rule="evenodd"/><path fill="rgb(74.899292%, 74.899292%, 74.899292%)" d="M 1141.996094 235.640625 C 1141.996094 222.527344 1131.375 211.894531 1118.292969 211.894531 L 952.414062 211.894531 C 939.332031 211.894531 928.714844 222.527344 928.714844 235.640625 C 928.714844 248.675781 939.332031 259.304688 952.414062 259.304688 L 1118.292969 259.304688 C 1131.375 259.304688 1141.996094 248.675781 1141.996094 235.640625 Z M 715.433594 235.640625 C 715.433594 222.527344 704.8125 211.894531 691.730469 211.894531 L 525.851562 211.894531 C 512.769531 211.894531 502.152344 222.527344 502.152344 235.640625 C 502.152344 248.675781 512.769531 259.304688 525.851562 259.304688 L 691.730469 259.304688 C 704.8125 259.304688 715.433594 248.675781 715.433594 235.640625 Z M 288.871094 235.640625 C 288.871094 222.527344 278.25 211.894531 265.167969 211.894531 L 99.289062 211.894531 C 86.207031 211.894531 75.589844 222.527344 75.589844 235.640625 C 75.589844 248.675781 86.207031 259.304688 99.289062 259.304688 L 265.167969 259.304688 C 278.25 259.304688 288.871094 248.675781 288.871094 235.640625 Z M -137.691406 235.640625 C -137.691406 222.527344 -148.3125 211.894531 -161.394531 211.894531 L -327.273438 211.894531 C -340.355469 211.894531 -350.972656 222.527344 -350.972656 235.640625 C -350.972656 248.675781 -340.355469 259.304688 -327.273438 259.304688 L -161.394531 259.304688 C -148.3125 259.304688 -137.691406 248.675781 -137.691406 235.640625 Z M -137.691406 235.640625 " fill-opacity="1" fill-rule="evenodd"/></svg>