<svg xmlns="http://www.w3.org/2000/svg" xmlns:xlink="http://www.w3.org/1999/xlink" width="500" zoomAndPan="magnify" viewBox="0 0 375 374.999991" height="500" preserveAspectRatio="xMidYMid meet" version="1.0"><rect x="-37.5" width="450" fill="rgb(100%, 100%, 100%)" y="-37.499999" height="449.999989" fill-opacity="1"/><rect x="-37.5" width="450" fill="rgb(64.709473%, 64.709473%, 64.709473%)" y="-37.499999" height="449.999989" fill-opacity="1"/><rect x="-37.5" width="450" fill="rgb(100%, 100%, 100%)" y="-37.499999" height="449.999989" fill-opacity="1"/><rect x="-37.5" width="450" fill="rgb(64.709473%, 64.709473%, 64.709473%)" y="-37.499999" height="449.999989" fill-opacity="1"/><path fill="rgb(64.709473%, 64.709473%, 64.709473%)" d="M 1254.503906 275.421875 L -451.746094 275.421875 L -451.746094 325.46875 L 1254.503906 325.46875 Z M 1254.503906 -53.878906 L -451.746094 -53.878906 L -451.746094 -3.832031 L 1254.503906 -3.832031 Z M 1254.503906 -53.878906 " fill-opacity="1" fill-rule="evenodd"/><path fill="rgb(27.449036%, 29.019165%, 31.759644%)" d="M -451.761719 -3.832031 L 1254.476562 -3.832031 L 1254.476562 275.359375 L -451.761719 275.359375 Z M -451.761719 -3.832031 " fill-opacity="1" fill-rule="evenodd"/><path fill="rgb(74.899292%, 74.899292%, 74.899292%)" d="M 1147.863281 135.835938 C 1147.863281 122.722656 1137.246094 112.089844 1124.164062 112.089844 L 958.285156 112.089844 C 945.203125 112.089844 934.582031 122.722656 934.582031 135.835938 C 934.582031 148.871094 945.203125 159.5 958.285156 159.5 L 1124.164062 159.5 C 1137.246094 159.5 1147.863281 148.871094 1147.863281 135.835938 Z M 721.300781 135.835938 C 721.300781 122.722656 710.683594 112.089844 697.601562 112.089844 L 531.722656 112.089844 C 518.640625 112.089844 508.019531 122.722656 508.019531 135.835938 C 508.019531 148.871094 518.640625 159.5 531.722656 159.5 L 697.601562 159.5 C 710.683594 159.5 721.300781 148.871094 721.300781 135.835938 Z M 294.738281 135.835938 C 294.738281 122.722656 284.121094 112.089844 271.039062 112.089844 L 105.160156 112.089844 C 92.078125 112.089844 81.457031 122.722656 81.457031 135.835938 C 81.457031 148.871094 92.078125 159.5 105.160156 159.5 L 271.039062 159.5 C 284.121094 159.5 294.738281 148.871094 294.738281 135.835938 Z M -131.824219 135.835938 C -131.824219 122.722656 -142.441406 112.089844 -155.523438 112.089844 L -321.402344 112.089844 C -334.484375 112.089844 -345.105469 122.722656 -345.105469 135.835938 C -345.105469 148.871094 -334.484375 159.5 -321.402344 159.5 L -155.523438 159.5 C -142.441406 159.5 -131.824219 148.871094 -131.824219 135.835938 Z M -131.824219 135.835938 " fill-opacity="1" fill-rule="evenodd"/></svg>