<svg xmlns="http://www.w3.org/2000/svg" xmlns:xlink="http://www.w3.org/1999/xlink" width="500" zoomAndPan="magnify" viewBox="0 0 375 374.999991" height="500" preserveAspectRatio="xMidYMid meet" version="1.0"><defs><clipPath id="id1"><path d="M 2 54.621094 L 354 54.621094 L 354 252 L 2 252 Z M 2 54.621094 " clip-rule="nonzero"/></clipPath><clipPath id="id2"><path d="M 53 209 L 137 209 L 137 292.371094 L 53 292.371094 Z M 53 209 " clip-rule="nonzero"/></clipPath><clipPath id="id3"><path d="M 240 209 L 323 209 L 323 292.371094 L 240 292.371094 Z M 240 209 " clip-rule="nonzero"/></clipPath><clipPath id="id4"><path d="M 209 137 L 374.746094 137 L 374.746094 169 L 209 169 Z M 209 137 " clip-rule="nonzero"/></clipPath></defs><rect x="-37.5" width="450" fill="rgb(94.898987%, 94.898987%, 94.898987%)" y="-37.499999" height="449.999989" fill-opacity="1"/><rect x="-37.5" width="450" fill="rgb(100%, 100%, 100%)" y="-37.499999" height="449.999989" fill-opacity="1"/><rect x="-37.5" width="450" fill="rgb(94.898987%, 94.898987%, 94.898987%)" y="-37.499999" height="449.999989" fill-opacity="1"/><path fill="rgb(64.709473%, 64.709473%, 64.709473%)" d="M 1257.441406 330.460938 L -448.808594 330.460938 L -448.808594 380.507812 L 1257.441406 380.507812 Z M 1257.441406 1.160156 L -448.808594 1.160156 L -448.808594 51.207031 L 1257.441406 51.207031 Z M 1257.441406 1.160156 " fill-opacity="1" fill-rule="evenodd"/><path fill="rgb(27.449036%, 29.019165%, 31.759644%)" d="M -448.828125 51.207031 L 1257.410156 51.207031 L 1257.410156 330.398438 L -448.828125 330.398438 Z M -448.828125 51.207031 " fill-opacity="1" fill-rule="evenodd"/><path fill="rgb(74.899292%, 74.899292%, 74.899292%)" d="M 1150.800781 190.875 C 1150.800781 177.761719 1140.183594 167.128906 1127.097656 167.128906 L 961.222656 167.128906 C 948.136719 167.128906 937.519531 177.761719 937.519531 190.875 C 937.519531 203.910156 948.136719 214.539062 961.222656 214.539062 L 1127.097656 214.539062 C 1140.183594 214.539062 1150.800781 203.910156 1150.800781 190.875 Z M 724.238281 190.875 C 724.238281 177.761719 713.621094 167.128906 700.535156 167.128906 L 534.660156 167.128906 C 521.574219 167.128906 510.957031 177.761719 510.957031 190.875 C 510.957031 203.910156 521.574219 214.539062 534.660156 214.539062 L 700.535156 214.539062 C 713.621094 214.539062 724.238281 203.910156 724.238281 190.875 Z M 297.675781 190.875 C 297.675781 177.761719 287.058594 167.128906 273.972656 167.128906 L 108.097656 167.128906 C 95.011719 167.128906 84.394531 177.761719 84.394531 190.875 C 84.394531 203.910156 95.011719 214.539062 108.097656 214.539062 L 273.972656 214.539062 C 287.058594 214.539062 297.675781 203.910156 297.675781 190.875 Z M -128.886719 190.875 C -128.886719 177.761719 -139.503906 167.128906 -152.589844 167.128906 L -318.464844 167.128906 C -331.550781 167.128906 -342.167969 177.761719 -342.167969 190.875 C -342.167969 203.910156 -331.550781 214.539062 -318.464844 214.539062 L -152.589844 214.539062 C -139.503906 214.539062 -128.886719 203.910156 -128.886719 190.875 Z M -128.886719 190.875 " fill-opacity="1" fill-rule="evenodd"/><g clip-path="url(#id1)"><path fill="rgb(86.669922%, 18.03894%, 26.669312%)" d="M 343.511719 251.023438 C 353.855469 251.023438 353.855469 240.683594 353.855469 209.675781 C 353.855469 202.519531 353.855469 169.753906 353.429688 156.5625 C 353.222656 150.320312 345.054688 137.316406 333.167969 137.316406 L 209.054688 137.316406 L 209.054688 75.292969 C 209.054688 64.359375 206.625 54.621094 188.371094 54.621094 L 136.65625 54.621094 C 105.625 54.621094 74.597656 137.316406 74.597656 137.316406 C 74.597656 137.316406 12.539062 137.316406 12.539062 168.328125 L 12.539062 209.675781 C 12.539062 209.675781 2.199219 213.167969 2.199219 229.902344 C 2.199219 246.640625 12.539062 251.023438 22.882812 251.023438 Z M 343.511719 251.023438 " fill-opacity="1" fill-rule="nonzero"/></g><g clip-path="url(#id2)"><path fill="rgb(16.079712%, 18.429565%, 19.999695%)" d="M 136.65625 251.023438 C 136.65625 252.375 136.589844 253.726562 136.457031 255.074219 C 136.324219 256.421875 136.125 257.761719 135.859375 259.089844 C 135.59375 260.417969 135.265625 261.730469 134.875 263.023438 C 134.480469 264.320312 134.023438 265.59375 133.503906 266.84375 C 132.988281 268.097656 132.410156 269.320312 131.769531 270.511719 C 131.132812 271.707031 130.433594 272.867188 129.683594 273.992188 C 128.929688 275.121094 128.125 276.207031 127.265625 277.253906 C 126.40625 278.300781 125.496094 279.300781 124.539062 280.257812 C 123.578125 281.21875 122.578125 282.125 121.527344 282.984375 C 120.480469 283.84375 119.394531 284.648438 118.269531 285.402344 C 117.140625 286.152344 115.980469 286.847656 114.785156 287.488281 C 113.589844 288.125 112.367188 288.703125 111.117188 289.222656 C 109.863281 289.742188 108.589844 290.195312 107.292969 290.589844 C 105.996094 290.984375 104.683594 291.3125 103.355469 291.574219 C 102.027344 291.839844 100.6875 292.039062 99.339844 292.171875 C 97.988281 292.304688 96.636719 292.371094 95.285156 292.371094 C 93.929688 292.371094 92.578125 292.304688 91.226562 292.171875 C 89.878906 292.039062 88.542969 291.839844 87.210938 291.574219 C 85.882812 291.3125 84.570312 290.984375 83.273438 290.589844 C 81.976562 290.195312 80.703125 289.742188 79.453125 289.222656 C 78.199219 288.703125 76.976562 288.125 75.78125 287.488281 C 74.585938 286.847656 73.425781 286.152344 72.296875 285.402344 C 71.171875 284.648438 70.085938 283.84375 69.039062 282.984375 C 67.992188 282.125 66.988281 281.21875 66.03125 280.257812 C 65.070312 279.300781 64.164062 278.300781 63.304688 277.253906 C 62.441406 276.207031 61.636719 275.121094 60.882812 273.992188 C 60.132812 272.867188 59.4375 271.707031 58.796875 270.511719 C 58.160156 269.320312 57.578125 268.097656 57.0625 266.84375 C 56.542969 265.59375 56.085938 264.320312 55.695312 263.023438 C 55.300781 261.730469 54.972656 260.417969 54.707031 259.089844 C 54.441406 257.761719 54.242188 256.421875 54.109375 255.074219 C 53.976562 253.726562 53.910156 252.375 53.910156 251.023438 C 53.910156 249.667969 53.976562 248.316406 54.109375 246.96875 C 54.242188 245.621094 54.441406 244.285156 54.707031 242.957031 C 54.972656 241.628906 55.300781 240.316406 55.695312 239.019531 C 56.085938 237.722656 56.542969 236.449219 57.0625 235.199219 C 57.578125 233.949219 58.160156 232.726562 58.796875 231.53125 C 59.4375 230.335938 60.132812 229.175781 60.882812 228.050781 C 61.636719 226.925781 62.441406 225.839844 63.304688 224.792969 C 64.164062 223.746094 65.070312 222.742188 66.03125 221.785156 C 66.988281 220.828125 67.992188 219.917969 69.039062 219.058594 C 70.085938 218.199219 71.171875 217.394531 72.296875 216.644531 C 73.425781 215.890625 74.585938 215.195312 75.78125 214.558594 C 76.976562 213.917969 78.199219 213.339844 79.453125 212.820312 C 80.703125 212.304688 81.976562 211.847656 83.273438 211.453125 C 84.570312 211.0625 85.882812 210.734375 87.210938 210.46875 C 88.542969 210.203125 89.878906 210.007812 91.226562 209.875 C 92.578125 209.742188 93.929688 209.675781 95.285156 209.675781 C 96.636719 209.675781 97.988281 209.742188 99.339844 209.875 C 100.6875 210.007812 102.027344 210.203125 103.355469 210.46875 C 104.683594 210.734375 105.996094 211.0625 107.292969 211.453125 C 108.589844 211.847656 109.863281 212.304688 111.117188 212.820312 C 112.367188 213.339844 113.589844 213.917969 114.785156 214.558594 C 115.980469 215.195312 117.140625 215.890625 118.269531 216.644531 C 119.394531 217.394531 120.480469 218.199219 121.527344 219.058594 C 122.578125 219.917969 123.578125 220.828125 124.539062 221.785156 C 125.496094 222.742188 126.40625 223.746094 127.265625 224.792969 C 128.125 225.839844 128.929688 226.925781 129.683594 228.050781 C 130.433594 229.175781 131.132812 230.335938 131.769531 231.53125 C 132.410156 232.726562 132.988281 233.949219 133.503906 235.199219 C 134.023438 236.449219 134.480469 237.722656 134.875 239.019531 C 135.265625 240.316406 135.59375 241.628906 135.859375 242.957031 C 136.125 244.285156 136.324219 245.621094 136.457031 246.96875 C 136.589844 248.316406 136.65625 249.667969 136.65625 251.023438 Z M 136.65625 251.023438 " fill-opacity="1" fill-rule="nonzero"/></g><path fill="rgb(79.998779%, 83.918762%, 86.669922%)" d="M 115.96875 251.023438 C 115.96875 251.699219 115.9375 252.375 115.871094 253.046875 C 115.804688 253.722656 115.703125 254.390625 115.570312 255.054688 C 115.441406 255.71875 115.273438 256.375 115.078125 257.023438 C 114.882812 257.671875 114.652344 258.308594 114.394531 258.933594 C 114.136719 259.558594 113.847656 260.171875 113.527344 260.769531 C 113.207031 261.363281 112.859375 261.945312 112.484375 262.507812 C 112.105469 263.070312 111.703125 263.613281 111.273438 264.136719 C 110.84375 264.660156 110.390625 265.164062 109.910156 265.640625 C 109.429688 266.121094 108.929688 266.574219 108.40625 267.003906 C 107.882812 267.433594 107.339844 267.835938 106.777344 268.210938 C 106.210938 268.589844 105.632812 268.9375 105.035156 269.253906 C 104.4375 269.574219 103.824219 269.863281 103.199219 270.121094 C 102.574219 270.382812 101.9375 270.609375 101.289062 270.804688 C 100.640625 271.003906 99.984375 271.167969 99.320312 271.300781 C 98.65625 271.429688 97.984375 271.53125 97.3125 271.597656 C 96.636719 271.664062 95.960938 271.695312 95.285156 271.695312 C 94.605469 271.695312 93.929688 271.664062 93.257812 271.597656 C 92.582031 271.53125 91.914062 271.429688 91.246094 271.300781 C 90.582031 271.167969 89.925781 271.003906 89.277344 270.804688 C 88.628906 270.609375 87.992188 270.382812 87.367188 270.121094 C 86.742188 269.863281 86.128906 269.574219 85.53125 269.253906 C 84.933594 268.9375 84.355469 268.589844 83.792969 268.210938 C 83.226562 267.835938 82.683594 267.433594 82.160156 267.003906 C 81.636719 266.574219 81.136719 266.121094 80.65625 265.640625 C 80.175781 265.164062 79.722656 264.660156 79.292969 264.136719 C 78.863281 263.613281 78.460938 263.070312 78.082031 262.507812 C 77.707031 261.945312 77.359375 261.363281 77.039062 260.769531 C 76.722656 260.171875 76.429688 259.558594 76.171875 258.933594 C 75.914062 258.308594 75.683594 257.671875 75.488281 257.023438 C 75.292969 256.375 75.128906 255.71875 74.996094 255.054688 C 74.863281 254.390625 74.765625 253.722656 74.699219 253.046875 C 74.632812 252.375 74.597656 251.699219 74.597656 251.023438 C 74.597656 250.34375 74.632812 249.667969 74.699219 248.996094 C 74.765625 248.320312 74.863281 247.652344 74.996094 246.988281 C 75.128906 246.324219 75.292969 245.667969 75.488281 245.019531 C 75.683594 244.371094 75.914062 243.734375 76.171875 243.109375 C 76.429688 242.484375 76.722656 241.875 77.039062 241.277344 C 77.359375 240.679688 77.707031 240.097656 78.082031 239.535156 C 78.460938 238.972656 78.863281 238.429688 79.292969 237.90625 C 79.722656 237.382812 80.175781 236.882812 80.65625 236.402344 C 81.136719 235.925781 81.636719 235.46875 82.160156 235.042969 C 82.683594 234.613281 83.226562 234.207031 83.792969 233.832031 C 84.355469 233.457031 84.933594 233.109375 85.53125 232.789062 C 86.128906 232.46875 86.742188 232.179688 87.367188 231.921875 C 87.992188 231.664062 88.628906 231.433594 89.277344 231.238281 C 89.925781 231.042969 90.582031 230.878906 91.246094 230.746094 C 91.914062 230.613281 92.582031 230.515625 93.257812 230.449219 C 93.929688 230.382812 94.605469 230.347656 95.285156 230.347656 C 95.960938 230.347656 96.636719 230.382812 97.3125 230.449219 C 97.984375 230.515625 98.65625 230.613281 99.320312 230.746094 C 99.984375 230.878906 100.640625 231.042969 101.289062 231.238281 C 101.9375 231.433594 102.574219 231.664062 103.199219 231.921875 C 103.824219 232.179688 104.4375 232.46875 105.035156 232.789062 C 105.632812 233.109375 106.210938 233.457031 106.777344 233.832031 C 107.339844 234.207031 107.882812 234.613281 108.40625 235.042969 C 108.929688 235.46875 109.429688 235.925781 109.910156 236.402344 C 110.390625 236.882812 110.84375 237.382812 111.273438 237.90625 C 111.703125 238.429688 112.105469 238.972656 112.484375 239.535156 C 112.859375 240.097656 113.207031 240.679688 113.527344 241.277344 C 113.847656 241.875 114.136719 242.484375 114.394531 243.109375 C 114.652344 243.734375 114.882812 244.371094 115.078125 245.019531 C 115.273438 245.667969 115.441406 246.324219 115.570312 246.988281 C 115.703125 247.652344 115.804688 248.320312 115.871094 248.996094 C 115.9375 249.667969 115.96875 250.34375 115.96875 251.023438 Z M 115.96875 251.023438 " fill-opacity="1" fill-rule="nonzero"/><g clip-path="url(#id3)"><path fill="rgb(16.079712%, 18.429565%, 19.999695%)" d="M 322.828125 251.023438 C 322.828125 252.375 322.761719 253.726562 322.628906 255.074219 C 322.496094 256.421875 322.296875 257.761719 322.03125 259.089844 C 321.765625 260.417969 321.4375 261.730469 321.046875 263.023438 C 320.652344 264.320312 320.195312 265.59375 319.675781 266.84375 C 319.160156 268.097656 318.582031 269.320312 317.941406 270.511719 C 317.300781 271.707031 316.605469 272.867188 315.855469 273.992188 C 315.101562 275.121094 314.296875 276.207031 313.4375 277.253906 C 312.574219 278.300781 311.667969 279.300781 310.710938 280.257812 C 309.75 281.21875 308.75 282.125 307.699219 282.984375 C 306.652344 283.84375 305.566406 284.648438 304.441406 285.402344 C 303.3125 286.152344 302.152344 286.847656 300.957031 287.488281 C 299.761719 288.125 298.539062 288.703125 297.289062 289.222656 C 296.035156 289.742188 294.761719 290.195312 293.464844 290.589844 C 292.167969 290.984375 290.855469 291.3125 289.527344 291.574219 C 288.199219 291.839844 286.859375 292.039062 285.511719 292.171875 C 284.160156 292.304688 282.808594 292.371094 281.453125 292.371094 C 280.101562 292.371094 278.75 292.304688 277.398438 292.171875 C 276.050781 292.039062 274.710938 291.839844 273.382812 291.574219 C 272.054688 291.3125 270.742188 290.984375 269.445312 290.589844 C 268.148438 290.195312 266.875 289.742188 265.621094 289.222656 C 264.371094 288.703125 263.148438 288.125 261.953125 287.488281 C 260.757812 286.847656 259.597656 286.152344 258.46875 285.402344 C 257.34375 284.648438 256.257812 283.84375 255.210938 282.984375 C 254.160156 282.125 253.160156 281.21875 252.199219 280.257812 C 251.242188 279.300781 250.335938 278.300781 249.472656 277.253906 C 248.613281 276.207031 247.808594 275.121094 247.054688 273.992188 C 246.304688 272.867188 245.605469 271.707031 244.96875 270.511719 C 244.328125 269.320312 243.75 268.097656 243.234375 266.84375 C 242.714844 265.59375 242.257812 264.320312 241.863281 263.023438 C 241.472656 261.730469 241.144531 260.417969 240.878906 259.089844 C 240.613281 257.761719 240.414062 256.421875 240.28125 255.074219 C 240.148438 253.726562 240.082031 252.375 240.082031 251.023438 C 240.082031 249.667969 240.148438 248.316406 240.28125 246.96875 C 240.414062 245.621094 240.613281 244.285156 240.878906 242.957031 C 241.144531 241.628906 241.472656 240.316406 241.863281 239.019531 C 242.257812 237.722656 242.714844 236.449219 243.234375 235.199219 C 243.75 233.949219 244.328125 232.726562 244.96875 231.53125 C 245.605469 230.335938 246.304688 229.175781 247.054688 228.050781 C 247.808594 226.925781 248.613281 225.839844 249.472656 224.792969 C 250.335938 223.746094 251.242188 222.742188 252.199219 221.785156 C 253.160156 220.828125 254.160156 219.917969 255.210938 219.058594 C 256.257812 218.199219 257.34375 217.394531 258.46875 216.644531 C 259.597656 215.890625 260.757812 215.195312 261.953125 214.558594 C 263.148438 213.917969 264.371094 213.339844 265.621094 212.820312 C 266.875 212.304688 268.148438 211.847656 269.445312 211.453125 C 270.742188 211.0625 272.054688 210.734375 273.382812 210.46875 C 274.710938 210.203125 276.050781 210.007812 277.398438 209.875 C 278.75 209.742188 280.101562 209.675781 281.453125 209.675781 C 282.808594 209.675781 284.160156 209.742188 285.511719 209.875 C 286.859375 210.007812 288.199219 210.203125 289.527344 210.46875 C 290.855469 210.734375 292.167969 211.0625 293.464844 211.453125 C 294.761719 211.847656 296.035156 212.304688 297.289062 212.820312 C 298.539062 213.339844 299.761719 213.917969 300.957031 214.558594 C 302.152344 215.195312 303.3125 215.890625 304.441406 216.644531 C 305.566406 217.394531 306.652344 218.199219 307.699219 219.058594 C 308.75 219.917969 309.75 220.828125 310.710938 221.785156 C 311.667969 222.742188 312.574219 223.746094 313.4375 224.792969 C 314.296875 225.839844 315.101562 226.925781 315.855469 228.050781 C 316.605469 229.175781 317.300781 230.335938 317.941406 231.53125 C 318.582031 232.726562 319.160156 233.949219 319.675781 235.199219 C 320.195312 236.449219 320.652344 237.722656 321.046875 239.019531 C 321.4375 240.316406 321.765625 241.628906 322.03125 242.957031 C 322.296875 244.285156 322.496094 245.621094 322.628906 246.96875 C 322.761719 248.316406 322.828125 249.667969 322.828125 251.023438 Z M 322.828125 251.023438 " fill-opacity="1" fill-rule="nonzero"/></g><path fill="rgb(79.998779%, 83.918762%, 86.669922%)" d="M 302.140625 251.023438 C 302.140625 251.699219 302.109375 252.375 302.042969 253.046875 C 301.976562 253.722656 301.875 254.390625 301.742188 255.054688 C 301.609375 255.71875 301.445312 256.375 301.25 257.023438 C 301.054688 257.671875 300.824219 258.308594 300.566406 258.933594 C 300.308594 259.558594 300.015625 260.171875 299.699219 260.769531 C 299.378906 261.363281 299.03125 261.945312 298.65625 262.507812 C 298.277344 263.070312 297.875 263.613281 297.445312 264.136719 C 297.015625 264.660156 296.5625 265.164062 296.082031 265.640625 C 295.601562 266.121094 295.101562 266.574219 294.578125 267.003906 C 294.054688 267.433594 293.511719 267.835938 292.949219 268.210938 C 292.382812 268.589844 291.804688 268.9375 291.207031 269.253906 C 290.609375 269.574219 289.996094 269.863281 289.371094 270.121094 C 288.746094 270.382812 288.109375 270.609375 287.460938 270.804688 C 286.8125 271.003906 286.15625 271.167969 285.492188 271.300781 C 284.824219 271.429688 284.15625 271.53125 283.484375 271.597656 C 282.808594 271.664062 282.132812 271.695312 281.453125 271.695312 C 280.777344 271.695312 280.101562 271.664062 279.425781 271.597656 C 278.753906 271.53125 278.082031 271.429688 277.417969 271.300781 C 276.753906 271.167969 276.097656 271.003906 275.449219 270.804688 C 274.800781 270.609375 274.164062 270.382812 273.539062 270.121094 C 272.914062 269.863281 272.300781 269.574219 271.703125 269.253906 C 271.105469 268.9375 270.527344 268.589844 269.960938 268.210938 C 269.398438 267.835938 268.855469 267.433594 268.332031 267.003906 C 267.808594 266.574219 267.308594 266.121094 266.828125 265.640625 C 266.347656 265.164062 265.894531 264.660156 265.464844 264.136719 C 265.035156 263.613281 264.632812 263.070312 264.253906 262.507812 C 263.878906 261.945312 263.53125 261.363281 263.210938 260.769531 C 262.890625 260.171875 262.601562 259.558594 262.34375 258.933594 C 262.085938 258.308594 261.855469 257.671875 261.660156 257.023438 C 261.464844 256.375 261.300781 255.71875 261.167969 255.054688 C 261.035156 254.390625 260.933594 253.722656 260.867188 253.046875 C 260.800781 252.375 260.769531 251.699219 260.769531 251.023438 C 260.769531 250.34375 260.800781 249.667969 260.867188 248.996094 C 260.933594 248.320312 261.035156 247.652344 261.167969 246.988281 C 261.300781 246.324219 261.464844 245.667969 261.660156 245.019531 C 261.855469 244.371094 262.085938 243.734375 262.34375 243.109375 C 262.601562 242.484375 262.890625 241.875 263.210938 241.277344 C 263.53125 240.679688 263.878906 240.097656 264.253906 239.535156 C 264.632812 238.972656 265.035156 238.429688 265.464844 237.90625 C 265.894531 237.382812 266.347656 236.882812 266.828125 236.402344 C 267.308594 235.925781 267.808594 235.46875 268.332031 235.042969 C 268.855469 234.613281 269.398438 234.207031 269.960938 233.832031 C 270.527344 233.457031 271.105469 233.109375 271.703125 232.789062 C 272.300781 232.46875 272.914062 232.179688 273.539062 231.921875 C 274.164062 231.664062 274.800781 231.433594 275.449219 231.238281 C 276.097656 231.042969 276.753906 230.878906 277.417969 230.746094 C 278.082031 230.613281 278.753906 230.515625 279.425781 230.449219 C 280.101562 230.382812 280.777344 230.347656 281.453125 230.347656 C 282.132812 230.347656 282.808594 230.382812 283.484375 230.449219 C 284.15625 230.515625 284.824219 230.613281 285.492188 230.746094 C 286.15625 230.878906 286.8125 231.042969 287.460938 231.238281 C 288.109375 231.433594 288.746094 231.664062 289.371094 231.921875 C 289.996094 232.179688 290.609375 232.46875 291.207031 232.789062 C 291.804688 233.109375 292.382812 233.457031 292.949219 233.832031 C 293.511719 234.207031 294.054688 234.613281 294.578125 235.042969 C 295.101562 235.46875 295.601562 235.925781 296.082031 236.402344 C 296.5625 236.882812 297.015625 237.382812 297.445312 237.90625 C 297.875 238.429688 298.277344 238.972656 298.65625 239.535156 C 299.03125 240.097656 299.378906 240.679688 299.699219 241.277344 C 300.015625 241.875 300.308594 242.484375 300.566406 243.109375 C 300.824219 243.734375 301.054688 244.371094 301.25 245.019531 C 301.445312 245.667969 301.609375 246.324219 301.742188 246.988281 C 301.875 247.652344 301.976562 248.320312 302.042969 248.996094 C 302.109375 249.667969 302.140625 250.34375 302.140625 251.023438 Z M 302.140625 251.023438 " fill-opacity="1" fill-rule="nonzero"/><path fill="rgb(73.329163%, 86.669922%, 96.078491%)" d="M 105.625 126.980469 C 105.625 137.316406 110.261719 137.316406 115.96875 137.316406 L 167.683594 137.316406 C 173.402344 137.316406 178.027344 132.683594 178.027344 126.980469 L 178.027344 85.632812 C 178.027344 79.925781 173.402344 75.292969 167.683594 75.292969 L 136.65625 75.292969 C 126.3125 75.292969 105.625 116.640625 105.625 126.980469 Z M 105.625 126.980469 " fill-opacity="1" fill-rule="nonzero"/><g clip-path="url(#id4)"><path fill="rgb(95.689392%, 57.249451%, 66.268921%)" d="M 374.539062 152.820312 C 374.539062 161.378906 367.589844 168.328125 359.027344 168.328125 L 209.054688 168.328125 L 209.054688 137.316406 L 359.027344 137.316406 C 367.589844 137.316406 374.539062 144.25 374.539062 152.820312 Z M 374.539062 152.820312 " fill-opacity="1" fill-rule="nonzero"/></g><path fill="rgb(59.999084%, 66.668701%, 70.979309%)" d="M 12.539062 168.328125 L 22.882812 168.328125 L 22.882812 220.011719 L 12.539062 220.011719 Z M 12.539062 168.328125 " fill-opacity="1" fill-rule="nonzero"/><path fill="rgb(79.998779%, 83.918762%, 86.669922%)" d="M 22.882812 251.023438 L 12.539062 251.023438 C 6.851562 251.023438 2.199219 246.371094 2.199219 240.683594 L 2.199219 220.011719 C 2.199219 214.324219 6.851562 209.675781 12.539062 209.675781 L 22.882812 209.675781 C 28.570312 209.675781 33.226562 214.324219 33.226562 220.011719 L 33.226562 240.683594 C 33.226562 246.371094 28.570312 251.023438 22.882812 251.023438 Z M 353.855469 251.023438 L 343.511719 251.023438 C 337.824219 251.023438 333.167969 246.371094 333.167969 240.683594 L 333.167969 220.011719 C 333.167969 214.324219 337.824219 209.675781 343.511719 209.675781 L 353.855469 209.675781 C 359.542969 209.675781 364.199219 214.324219 364.199219 220.011719 L 364.199219 240.683594 C 364.199219 246.371094 359.542969 251.023438 353.855469 251.023438 Z M 353.855469 251.023438 " fill-opacity="1" fill-rule="nonzero"/></svg>