<svg xmlns="http://www.w3.org/2000/svg" xmlns:xlink="http://www.w3.org/1999/xlink" width="500" zoomAndPan="magnify" viewBox="0 0 375 374.999991" height="500" preserveAspectRatio="xMidYMid meet" version="1.0"><defs><clipPath id="id1"><path d="M 16 58.414062 L 358.714844 58.414062 L 358.714844 230 L 16 230 Z M 16 58.414062 " clip-rule="nonzero"/></clipPath><clipPath id="id2"><path d="M 73 181 L 150 181 L 150 257.914062 L 73 257.914062 Z M 73 181 " clip-rule="nonzero"/></clipPath><clipPath id="id3"><path d="M 234 181 L 311 181 L 311 257.914062 L 234 257.914062 Z M 234 181 " clip-rule="nonzero"/></clipPath></defs><rect x="-37.5" width="450" fill="rgb(94.898987%, 94.898987%, 94.898987%)" y="-37.499999" height="449.999989" fill-opacity="1"/><rect x="-37.5" width="450" fill="rgb(100%, 100%, 100%)" y="-37.499999" height="449.999989" fill-opacity="1"/><rect x="-37.5" width="450" fill="rgb(94.898987%, 94.898987%, 94.898987%)" y="-37.499999" height="449.999989" fill-opacity="1"/><path fill="rgb(64.709473%, 64.709473%, 64.709473%)" d="M 1257.441406 330.460938 L -448.808594 330.460938 L -448.808594 380.507812 L 1257.441406 380.507812 Z M 1257.441406 1.160156 L -448.808594 1.160156 L -448.808594 51.207031 L 1257.441406 51.207031 Z M 1257.441406 1.160156 " fill-opacity="1" fill-rule="evenodd"/><path fill="rgb(27.449036%, 29.019165%, 31.759644%)" d="M -448.828125 51.207031 L 1257.410156 51.207031 L 1257.410156 330.398438 L -448.828125 330.398438 Z M -448.828125 51.207031 " fill-opacity="1" fill-rule="evenodd"/><path fill="rgb(74.899292%, 74.899292%, 74.899292%)" d="M 1150.800781 190.875 C 1150.800781 177.761719 1140.183594 167.128906 1127.097656 167.128906 L 961.222656 167.128906 C 948.136719 167.128906 937.519531 177.761719 937.519531 190.875 C 937.519531 203.910156 948.136719 214.539062 961.222656 214.539062 L 1127.097656 214.539062 C 1140.183594 214.539062 1150.800781 203.910156 1150.800781 190.875 Z M 724.238281 190.875 C 724.238281 177.761719 713.621094 167.128906 700.535156 167.128906 L 534.660156 167.128906 C 521.574219 167.128906 510.957031 177.761719 510.957031 190.875 C 510.957031 203.910156 521.574219 214.539062 534.660156 214.539062 L 700.535156 214.539062 C 713.621094 214.539062 724.238281 203.910156 724.238281 190.875 Z M 297.675781 190.875 C 297.675781 177.761719 287.058594 167.128906 273.972656 167.128906 L 108.097656 167.128906 C 95.011719 167.128906 84.394531 177.761719 84.394531 190.875 C 84.394531 203.910156 95.011719 214.539062 108.097656 214.539062 L 273.972656 214.539062 C 287.058594 214.539062 297.675781 203.910156 297.675781 190.875 Z M -128.886719 190.875 C -128.886719 177.761719 -139.503906 167.128906 -152.589844 167.128906 L -318.464844 167.128906 C -331.550781 167.128906 -342.167969 177.761719 -342.167969 190.875 C -342.167969 203.910156 -331.550781 214.539062 -318.464844 214.539062 L -152.589844 214.539062 C -139.503906 214.539062 -128.886719 203.910156 -128.886719 190.875 Z M -128.886719 190.875 " fill-opacity="1" fill-rule="evenodd"/><g clip-path="url(#id1)"><path fill="rgb(86.669922%, 18.03894%, 26.669312%)" d="M 139.863281 229.414062 L 329.777344 229.414062 C 329.777344 229.414062 358.265625 229.414062 358.265625 191.414062 C 358.265625 172.414062 358.265625 134.414062 348.769531 124.914062 C 339.273438 115.414062 272.800781 58.414062 244.316406 58.414062 L 187.339844 58.414062 C 158.855469 58.414062 92.382812 124.914062 92.382812 124.914062 L 54.402344 134.414062 C 54.402344 134.414062 25.914062 143.914062 25.914062 162.914062 L 25.914062 191.414062 C 25.914062 191.414062 16.417969 194.625 16.417969 210.003906 C 16.417969 229.414062 35.410156 229.414062 35.410156 229.414062 Z M 139.863281 229.414062 " fill-opacity="1" fill-rule="nonzero"/></g><path fill="rgb(73.329163%, 86.669922%, 96.078491%)" d="M 206.332031 77.414062 L 187.339844 77.414062 C 168.351562 77.414062 111.375 134.414062 111.375 134.414062 C 111.375 134.414062 158.824219 131.914062 206.332031 129.480469 Z M 301.289062 105.914062 C 291.792969 96.414062 253.8125 77.414062 234.820312 77.414062 L 225.324219 77.414062 L 225.324219 128.511719 C 263.410156 126.574219 297.320312 124.914062 301.289062 124.914062 C 310.785156 124.914062 310.785156 115.414062 301.289062 105.914062 Z M 301.289062 105.914062 " fill-opacity="1" fill-rule="nonzero"/><g clip-path="url(#id2)"><path fill="rgb(16.079712%, 18.429565%, 19.999695%)" d="M 149.359375 219.914062 C 149.359375 221.15625 149.296875 222.398438 149.175781 223.636719 C 149.054688 224.875 148.871094 226.105469 148.628906 227.328125 C 148.386719 228.546875 148.082031 229.753906 147.722656 230.945312 C 147.363281 232.132812 146.941406 233.304688 146.46875 234.453125 C 145.992188 235.605469 145.460938 236.726562 144.875 237.824219 C 144.285156 238.921875 143.648438 239.988281 142.957031 241.023438 C 142.265625 242.058594 141.527344 243.058594 140.738281 244.019531 C 139.949219 244.980469 139.113281 245.902344 138.234375 246.78125 C 137.355469 247.664062 136.433594 248.496094 135.472656 249.289062 C 134.511719 250.078125 133.511719 250.816406 132.476562 251.507812 C 131.445312 252.199219 130.378906 252.839844 129.28125 253.425781 C 128.183594 254.011719 127.058594 254.542969 125.910156 255.019531 C 124.761719 255.496094 123.59375 255.914062 122.402344 256.277344 C 121.210938 256.636719 120.003906 256.941406 118.785156 257.183594 C 117.566406 257.425781 116.335938 257.609375 115.097656 257.730469 C 113.859375 257.851562 112.621094 257.914062 111.375 257.914062 C 110.132812 257.914062 108.890625 257.851562 107.652344 257.730469 C 106.414062 257.609375 105.1875 257.425781 103.964844 257.183594 C 102.746094 256.941406 101.539062 256.636719 100.351562 256.277344 C 99.160156 255.914062 97.988281 255.496094 96.839844 255.019531 C 95.691406 254.542969 94.566406 254.011719 93.46875 253.425781 C 92.375 252.839844 91.308594 252.199219 90.273438 251.507812 C 89.238281 250.816406 88.242188 250.078125 87.28125 249.289062 C 86.316406 248.496094 85.398438 247.664062 84.519531 246.78125 C 83.636719 245.902344 82.804688 244.980469 82.015625 244.019531 C 81.226562 243.058594 80.484375 242.058594 79.792969 241.023438 C 79.101562 239.988281 78.464844 238.921875 77.878906 237.824219 C 77.292969 236.726562 76.761719 235.605469 76.285156 234.453125 C 75.808594 233.304688 75.390625 232.132812 75.027344 230.945312 C 74.667969 229.753906 74.367188 228.546875 74.121094 227.328125 C 73.878906 226.105469 73.699219 224.875 73.574219 223.636719 C 73.453125 222.398438 73.394531 221.15625 73.394531 219.914062 C 73.394531 218.667969 73.453125 217.425781 73.574219 216.1875 C 73.699219 214.949219 73.878906 213.71875 74.121094 212.5 C 74.367188 211.277344 74.667969 210.074219 75.027344 208.882812 C 75.390625 207.691406 75.808594 206.519531 76.285156 205.371094 C 76.761719 204.222656 77.292969 203.097656 77.878906 202 C 78.464844 200.902344 79.101562 199.835938 79.792969 198.800781 C 80.484375 197.765625 81.226562 196.769531 82.015625 195.804688 C 82.804688 194.84375 83.636719 193.921875 84.519531 193.042969 C 85.398438 192.164062 86.316406 191.328125 87.28125 190.539062 C 88.242188 189.75 89.238281 189.007812 90.273438 188.316406 C 91.308594 187.625 92.375 186.988281 93.46875 186.398438 C 94.566406 185.8125 95.691406 185.28125 96.839844 184.804688 C 97.988281 184.328125 99.160156 183.910156 100.351562 183.550781 C 101.539062 183.1875 102.746094 182.886719 103.964844 182.644531 C 105.1875 182.398438 106.414062 182.21875 107.652344 182.097656 C 108.890625 181.972656 110.132812 181.914062 111.375 181.914062 C 112.621094 181.914062 113.859375 181.972656 115.097656 182.097656 C 116.335938 182.21875 117.566406 182.398438 118.785156 182.644531 C 120.003906 182.886719 121.210938 183.1875 122.402344 183.550781 C 123.59375 183.910156 124.761719 184.328125 125.910156 184.804688 C 127.058594 185.28125 128.183594 185.8125 129.28125 186.398438 C 130.378906 186.988281 131.445312 187.625 132.476562 188.316406 C 133.511719 189.007812 134.511719 189.75 135.472656 190.539062 C 136.433594 191.328125 137.355469 192.164062 138.234375 193.042969 C 139.113281 193.921875 139.949219 194.84375 140.738281 195.804688 C 141.527344 196.769531 142.265625 197.765625 142.957031 198.800781 C 143.648438 199.835938 144.285156 200.902344 144.875 202 C 145.460938 203.097656 145.992188 204.222656 146.46875 205.371094 C 146.941406 206.519531 147.363281 207.691406 147.722656 208.882812 C 148.082031 210.074219 148.386719 211.277344 148.628906 212.5 C 148.871094 213.71875 149.054688 214.949219 149.175781 216.1875 C 149.296875 217.425781 149.359375 218.667969 149.359375 219.914062 Z M 149.359375 219.914062 " fill-opacity="1" fill-rule="nonzero"/></g><path fill="rgb(79.998779%, 83.918762%, 86.669922%)" d="M 130.367188 219.914062 C 130.367188 220.535156 130.335938 221.15625 130.277344 221.773438 C 130.214844 222.394531 130.125 223.007812 130.003906 223.621094 C 129.878906 224.230469 129.730469 224.832031 129.550781 225.429688 C 129.367188 226.023438 129.160156 226.609375 128.921875 227.183594 C 128.683594 227.757812 128.417969 228.320312 128.125 228.871094 C 127.832031 229.417969 127.511719 229.953125 127.167969 230.46875 C 126.820312 230.984375 126.449219 231.484375 126.054688 231.964844 C 125.660156 232.449219 125.246094 232.90625 124.804688 233.347656 C 124.363281 233.789062 123.90625 234.207031 123.421875 234.601562 C 122.941406 234.996094 122.445312 235.363281 121.925781 235.710938 C 121.410156 236.054688 120.875 236.375 120.328125 236.667969 C 119.78125 236.960938 119.21875 237.226562 118.644531 237.464844 C 118.070312 237.703125 117.484375 237.914062 116.886719 238.09375 C 116.292969 238.273438 115.691406 238.425781 115.082031 238.546875 C 114.46875 238.667969 113.855469 238.761719 113.238281 238.820312 C 112.617188 238.882812 111.996094 238.914062 111.375 238.914062 C 110.753906 238.914062 110.132812 238.882812 109.515625 238.820312 C 108.894531 238.761719 108.28125 238.667969 107.671875 238.546875 C 107.058594 238.425781 106.457031 238.273438 105.863281 238.09375 C 105.265625 237.914062 104.683594 237.703125 104.109375 237.464844 C 103.535156 237.226562 102.972656 236.960938 102.421875 236.667969 C 101.875 236.375 101.339844 236.054688 100.824219 235.710938 C 100.308594 235.363281 99.808594 234.996094 99.328125 234.601562 C 98.847656 234.207031 98.386719 233.789062 97.945312 233.347656 C 97.507812 232.90625 97.089844 232.449219 96.695312 231.964844 C 96.300781 231.484375 95.929688 230.984375 95.585938 230.46875 C 95.238281 229.953125 94.917969 229.417969 94.625 228.871094 C 94.332031 228.320312 94.066406 227.757812 93.828125 227.183594 C 93.59375 226.609375 93.382812 226.023438 93.203125 225.429688 C 93.019531 224.832031 92.871094 224.230469 92.75 223.621094 C 92.628906 223.007812 92.535156 222.394531 92.476562 221.773438 C 92.414062 221.15625 92.382812 220.535156 92.382812 219.914062 C 92.382812 219.289062 92.414062 218.667969 92.476562 218.050781 C 92.535156 217.429688 92.628906 216.816406 92.75 216.207031 C 92.871094 215.597656 93.019531 214.992188 93.203125 214.398438 C 93.382812 213.800781 93.59375 213.214844 93.828125 212.640625 C 94.066406 212.066406 94.332031 211.503906 94.625 210.957031 C 94.917969 210.40625 95.238281 209.875 95.585938 209.355469 C 95.929688 208.839844 96.300781 208.339844 96.695312 207.859375 C 97.089844 207.378906 97.507812 206.917969 97.945312 206.476562 C 98.386719 206.039062 98.847656 205.621094 99.328125 205.226562 C 99.808594 204.832031 100.308594 204.460938 100.824219 204.113281 C 101.339844 203.769531 101.875 203.449219 102.421875 203.15625 C 102.972656 202.863281 103.535156 202.597656 104.109375 202.359375 C 104.683594 202.121094 105.265625 201.910156 105.863281 201.730469 C 106.457031 201.550781 107.058594 201.398438 107.671875 201.277344 C 108.28125 201.15625 108.894531 201.066406 109.515625 201.003906 C 110.132812 200.941406 110.753906 200.914062 111.375 200.914062 C 111.996094 200.914062 112.617188 200.941406 113.238281 201.003906 C 113.855469 201.066406 114.46875 201.15625 115.082031 201.277344 C 115.691406 201.398438 116.292969 201.550781 116.886719 201.730469 C 117.484375 201.910156 118.070312 202.121094 118.644531 202.359375 C 119.21875 202.597656 119.78125 202.863281 120.328125 203.15625 C 120.875 203.449219 121.410156 203.769531 121.925781 204.113281 C 122.445312 204.460938 122.941406 204.832031 123.421875 205.226562 C 123.90625 205.621094 124.363281 206.039062 124.804688 206.476562 C 125.246094 206.917969 125.660156 207.378906 126.054688 207.859375 C 126.449219 208.339844 126.820312 208.839844 127.167969 209.355469 C 127.511719 209.875 127.832031 210.40625 128.125 210.957031 C 128.417969 211.503906 128.683594 212.066406 128.921875 212.640625 C 129.160156 213.214844 129.367188 213.800781 129.550781 214.398438 C 129.730469 214.992188 129.878906 215.597656 130.003906 216.207031 C 130.125 216.816406 130.214844 217.429688 130.277344 218.050781 C 130.335938 218.667969 130.367188 219.289062 130.367188 219.914062 Z M 130.367188 219.914062 " fill-opacity="1" fill-rule="nonzero"/><g clip-path="url(#id3)"><path fill="rgb(16.079712%, 18.429565%, 19.999695%)" d="M 310.785156 219.914062 C 310.785156 221.15625 310.722656 222.398438 310.601562 223.636719 C 310.480469 224.875 310.296875 226.105469 310.054688 227.328125 C 309.8125 228.546875 309.511719 229.753906 309.148438 230.945312 C 308.789062 232.132812 308.371094 233.304688 307.894531 234.453125 C 307.417969 235.605469 306.886719 236.726562 306.300781 237.824219 C 305.714844 238.921875 305.074219 239.988281 304.382812 241.023438 C 303.691406 242.058594 302.953125 243.058594 302.164062 244.019531 C 301.375 244.980469 300.539062 245.902344 299.660156 246.78125 C 298.78125 247.664062 297.859375 248.496094 296.898438 249.289062 C 295.9375 250.078125 294.9375 250.816406 293.90625 251.507812 C 292.871094 252.199219 291.804688 252.839844 290.707031 253.425781 C 289.609375 254.011719 288.488281 254.542969 287.335938 255.019531 C 286.1875 255.496094 285.019531 255.914062 283.828125 256.277344 C 282.636719 256.636719 281.433594 256.941406 280.210938 257.183594 C 278.992188 257.425781 277.761719 257.609375 276.527344 257.730469 C 275.289062 257.851562 274.046875 257.914062 272.800781 257.914062 C 271.558594 257.914062 270.316406 257.851562 269.078125 257.730469 C 267.839844 257.609375 266.613281 257.425781 265.390625 257.183594 C 264.171875 256.941406 262.96875 256.636719 261.777344 256.277344 C 260.585938 255.914062 259.417969 255.496094 258.265625 255.019531 C 257.117188 254.542969 255.996094 254.011719 254.898438 253.425781 C 253.800781 252.839844 252.734375 252.199219 251.699219 251.507812 C 250.664062 250.816406 249.667969 250.078125 248.707031 249.289062 C 247.746094 248.496094 246.824219 247.664062 245.945312 246.78125 C 245.066406 245.902344 244.230469 244.980469 243.441406 244.019531 C 242.652344 243.058594 241.910156 242.058594 241.222656 241.023438 C 240.53125 239.988281 239.890625 238.921875 239.304688 237.824219 C 238.71875 236.726562 238.1875 235.605469 237.710938 234.453125 C 237.234375 233.304688 236.816406 232.132812 236.457031 230.945312 C 236.09375 229.753906 235.792969 228.546875 235.550781 227.328125 C 235.308594 226.105469 235.125 224.875 235.003906 223.636719 C 234.878906 222.398438 234.820312 221.15625 234.820312 219.914062 C 234.820312 218.667969 234.878906 217.425781 235.003906 216.1875 C 235.125 214.949219 235.308594 213.71875 235.550781 212.5 C 235.792969 211.277344 236.09375 210.074219 236.457031 208.882812 C 236.816406 207.691406 237.234375 206.519531 237.710938 205.371094 C 238.1875 204.222656 238.71875 203.097656 239.304688 202 C 239.890625 200.902344 240.53125 199.835938 241.222656 198.800781 C 241.910156 197.765625 242.652344 196.769531 243.441406 195.804688 C 244.230469 194.84375 245.066406 193.921875 245.945312 193.042969 C 246.824219 192.164062 247.746094 191.328125 248.707031 190.539062 C 249.667969 189.75 250.664062 189.007812 251.699219 188.316406 C 252.734375 187.625 253.800781 186.988281 254.898438 186.398438 C 255.996094 185.8125 257.117188 185.28125 258.265625 184.804688 C 259.417969 184.328125 260.585938 183.910156 261.777344 183.550781 C 262.96875 183.1875 264.171875 182.886719 265.390625 182.644531 C 266.613281 182.398438 267.839844 182.21875 269.078125 182.097656 C 270.316406 181.972656 271.558594 181.914062 272.800781 181.914062 C 274.046875 181.914062 275.289062 181.972656 276.527344 182.097656 C 277.761719 182.21875 278.992188 182.398438 280.210938 182.644531 C 281.433594 182.886719 282.636719 183.1875 283.828125 183.550781 C 285.019531 183.910156 286.1875 184.328125 287.335938 184.804688 C 288.488281 185.28125 289.609375 185.8125 290.707031 186.398438 C 291.804688 186.988281 292.871094 187.625 293.90625 188.316406 C 294.9375 189.007812 295.9375 189.75 296.898438 190.539062 C 297.859375 191.328125 298.78125 192.164062 299.660156 193.042969 C 300.539062 193.921875 301.375 194.84375 302.164062 195.804688 C 302.953125 196.769531 303.691406 197.765625 304.382812 198.800781 C 305.074219 199.835938 305.714844 200.902344 306.300781 202 C 306.886719 203.097656 307.417969 204.222656 307.894531 205.371094 C 308.371094 206.519531 308.789062 207.691406 309.148438 208.882812 C 309.511719 210.074219 309.8125 211.277344 310.054688 212.5 C 310.296875 213.71875 310.480469 214.949219 310.601562 216.1875 C 310.722656 217.425781 310.785156 218.667969 310.785156 219.914062 Z M 310.785156 219.914062 " fill-opacity="1" fill-rule="nonzero"/></g><path fill="rgb(79.998779%, 83.918762%, 86.669922%)" d="M 291.792969 219.914062 C 291.792969 220.535156 291.761719 221.15625 291.703125 221.773438 C 291.640625 222.394531 291.550781 223.007812 291.429688 223.621094 C 291.308594 224.230469 291.15625 224.832031 290.976562 225.429688 C 290.796875 226.023438 290.585938 226.609375 290.347656 227.183594 C 290.109375 227.757812 289.84375 228.320312 289.550781 228.871094 C 289.257812 229.417969 288.9375 229.953125 288.59375 230.46875 C 288.246094 230.984375 287.878906 231.484375 287.484375 231.964844 C 287.089844 232.449219 286.671875 232.90625 286.230469 233.347656 C 285.792969 233.789062 285.332031 234.207031 284.851562 234.601562 C 284.371094 234.996094 283.871094 235.363281 283.351562 235.710938 C 282.835938 236.054688 282.304688 236.375 281.753906 236.667969 C 281.207031 236.960938 280.644531 237.226562 280.070312 237.464844 C 279.496094 237.703125 278.910156 237.914062 278.316406 238.09375 C 277.71875 238.273438 277.117188 238.425781 276.507812 238.546875 C 275.898438 238.667969 275.28125 238.761719 274.664062 238.820312 C 274.046875 238.882812 273.425781 238.914062 272.800781 238.914062 C 272.179688 238.914062 271.558594 238.882812 270.941406 238.820312 C 270.320312 238.761719 269.707031 238.667969 269.097656 238.546875 C 268.488281 238.425781 267.886719 238.273438 267.289062 238.09375 C 266.695312 237.914062 266.109375 237.703125 265.535156 237.464844 C 264.960938 237.226562 264.398438 236.960938 263.851562 236.667969 C 263.300781 236.375 262.769531 236.054688 262.25 235.710938 C 261.734375 235.363281 261.234375 234.996094 260.753906 234.601562 C 260.273438 234.207031 259.8125 233.789062 259.375 233.347656 C 258.933594 232.90625 258.515625 232.449219 258.121094 231.964844 C 257.726562 231.484375 257.355469 230.984375 257.011719 230.46875 C 256.667969 229.953125 256.347656 229.417969 256.054688 228.871094 C 255.761719 228.320312 255.496094 227.757812 255.257812 227.183594 C 255.019531 226.609375 254.808594 226.023438 254.628906 225.429688 C 254.449219 224.832031 254.296875 224.230469 254.175781 223.621094 C 254.054688 223.007812 253.964844 222.394531 253.902344 221.773438 C 253.839844 221.15625 253.8125 220.535156 253.8125 219.914062 C 253.8125 219.289062 253.839844 218.667969 253.902344 218.050781 C 253.964844 217.429688 254.054688 216.816406 254.175781 216.207031 C 254.296875 215.597656 254.449219 214.992188 254.628906 214.398438 C 254.808594 213.800781 255.019531 213.214844 255.257812 212.640625 C 255.496094 212.066406 255.761719 211.503906 256.054688 210.957031 C 256.347656 210.40625 256.667969 209.875 257.011719 209.355469 C 257.355469 208.839844 257.726562 208.339844 258.121094 207.859375 C 258.515625 207.378906 258.933594 206.917969 259.375 206.476562 C 259.8125 206.039062 260.273438 205.621094 260.753906 205.226562 C 261.234375 204.832031 261.734375 204.460938 262.25 204.113281 C 262.769531 203.769531 263.300781 203.449219 263.851562 203.15625 C 264.398438 202.863281 264.960938 202.597656 265.535156 202.359375 C 266.109375 202.121094 266.695312 201.910156 267.289062 201.730469 C 267.886719 201.550781 268.488281 201.398438 269.097656 201.277344 C 269.707031 201.15625 270.320312 201.066406 270.941406 201.003906 C 271.558594 200.941406 272.179688 200.914062 272.800781 200.914062 C 273.425781 200.914062 274.046875 200.941406 274.664062 201.003906 C 275.28125 201.066406 275.898438 201.15625 276.507812 201.277344 C 277.117188 201.398438 277.71875 201.550781 278.316406 201.730469 C 278.910156 201.910156 279.496094 202.121094 280.070312 202.359375 C 280.644531 202.597656 281.207031 202.863281 281.753906 203.15625 C 282.304688 203.449219 282.835938 203.769531 283.351562 204.113281 C 283.871094 204.460938 284.371094 204.832031 284.851562 205.226562 C 285.332031 205.621094 285.792969 206.039062 286.230469 206.476562 C 286.671875 206.917969 287.089844 207.378906 287.484375 207.859375 C 287.878906 208.339844 288.246094 208.839844 288.59375 209.355469 C 288.9375 209.875 289.257812 210.40625 289.550781 210.957031 C 289.84375 211.503906 290.109375 212.066406 290.347656 212.640625 C 290.585938 213.214844 290.796875 213.800781 290.976562 214.398438 C 291.15625 214.992188 291.308594 215.597656 291.429688 216.207031 C 291.550781 216.816406 291.640625 217.429688 291.703125 218.050781 C 291.761719 218.667969 291.792969 219.289062 291.792969 219.914062 Z M 291.792969 219.914062 " fill-opacity="1" fill-rule="nonzero"/></svg>