<svg xmlns="http://www.w3.org/2000/svg" xmlns:xlink="http://www.w3.org/1999/xlink" width="500" zoomAndPan="magnify" viewBox="0 0 375 374.999991" height="500" preserveAspectRatio="xMidYMid meet" version="1.0"><defs><clipPath id="id1"><path d="M 2.125 142 L 372.683594 142 L 372.683594 347.710938 L 2.125 347.710938 Z M 2.125 142 " clip-rule="nonzero"/></clipPath><clipPath id="id2"><path d="M 10 27.460938 L 365 27.460938 L 365 341 L 10 341 Z M 10 27.460938 " clip-rule="nonzero"/></clipPath><clipPath id="id3"><path d="M 0 140.390625 L 375 140.390625 L 375 162.976562 L 0 162.976562 Z M 0 140.390625 " clip-rule="nonzero"/></clipPath><clipPath id="id4"><path d="M 0 88.210938 L 375 88.210938 L 375 285 L 0 285 Z M 0 88.210938 " clip-rule="nonzero"/></clipPath></defs><rect x="-37.5" width="450" fill="rgb(64.709473%, 64.709473%, 64.709473%)" y="-37.499999" height="449.999989" fill-opacity="1"/><rect x="-37.5" width="450" fill="rgb(100%, 100%, 100%)" y="-37.499999" height="449.999989" fill-opacity="1"/><rect x="-37.5" width="450" fill="rgb(64.709473%, 64.709473%, 64.709473%)" y="-37.499999" height="449.999989" fill-opacity="1"/><g clip-path="url(#id1)"><path fill="rgb(55.288696%, 48.629761%, 73.728943%)" d="M 372.265625 347.734375 L 2.789062 347.734375 L 2.789062 142.238281 L 372.265625 142.238281 L 372.265625 347.734375 " fill-opacity="1" fill-rule="nonzero"/></g><g clip-path="url(#id2)"><path fill="rgb(51.368713%, 80.389404%, 70.199585%)" d="M 364.867188 291.746094 L 251.566406 291.746094 L 251.566406 340.335938 L 364.867188 340.335938 Z M 123.484375 291.746094 L 10.175781 291.746094 L 10.179688 340.335938 L 123.488281 340.335938 Z M 235.789062 281.007812 L 234.714844 281.007812 C 233.210938 281.007812 231.988281 279.785156 231.988281 278.28125 L 231.988281 277.207031 L 201.992188 277.207031 L 201.992188 278.28125 C 201.992188 279.785156 200.773438 281.007812 199.269531 281.007812 L 198.195312 281.007812 L 198.195312 324.332031 L 199.269531 324.332031 C 200.773438 324.332031 201.992188 325.554688 201.992188 327.058594 L 201.992188 328.132812 L 231.988281 328.132812 L 231.988281 327.058594 C 231.988281 325.554688 233.210938 324.332031 234.714844 324.332031 L 235.789062 324.332031 Z M 244.179688 205.617188 L 244.179688 340.335938 L 189.800781 340.335938 L 189.800781 205.617188 Z M 229.949219 279.355469 L 204.027344 279.355469 C 203.613281 281.183594 202.171875 282.625 200.34375 283.039062 L 200.34375 322.292969 C 202.171875 322.703125 203.613281 324.152344 204.027344 325.976562 L 229.949219 325.976562 C 230.363281 324.152344 231.808594 322.703125 233.632812 322.292969 L 233.632812 283.039062 C 231.808594 282.625 230.363281 281.183594 229.949219 279.355469 Z M 176.855469 281.007812 L 175.78125 281.007812 C 174.28125 281.007812 173.058594 279.785156 173.058594 278.28125 L 173.058594 277.207031 L 143.070312 277.207031 L 143.070312 278.28125 C 143.070312 279.785156 141.847656 281.007812 140.34375 281.007812 L 139.261719 281.007812 L 139.261719 324.332031 L 140.34375 324.332031 C 141.847656 324.332031 143.070312 325.554688 143.070312 327.058594 L 143.070312 328.132812 L 173.058594 328.132812 L 173.058594 327.058594 C 173.058594 325.554688 174.28125 324.332031 175.78125 324.332031 L 176.855469 324.332031 Z M 185.25 205.617188 L 185.25 340.335938 L 130.871094 340.335938 L 130.871094 205.617188 Z M 171.027344 279.355469 L 145.101562 279.355469 C 144.691406 281.183594 143.25 282.625 141.421875 283.039062 L 141.421875 322.292969 C 143.25 322.703125 144.691406 324.152344 145.101562 325.976562 L 171.027344 325.976562 C 171.4375 324.152344 172.878906 322.703125 174.707031 322.292969 L 174.707031 283.039062 C 172.878906 282.625 171.4375 281.183594 171.027344 279.355469 Z M 359.046875 125.820312 L 16.007812 125.820312 L 16.007812 27.460938 L 359.046875 27.457031 L 359.046875 125.816406 " fill-opacity="1" fill-rule="nonzero"/></g><path fill="rgb(99.609375%, 96.469116%, 88.62915%)" d="M 350.464844 68.996094 L 350.464844 47.304688 C 344.566406 47.304688 339.785156 42.527344 339.785156 36.628906 L 35.265625 36.628906 C 35.261719 42.527344 30.484375 47.304688 24.585938 47.304688 L 24.585938 68.996094 C 30.484375 68.996094 35.261719 73.777344 35.261719 79.671875 L 339.78125 79.671875 C 339.78125 73.777344 344.5625 68.996094 350.464844 68.996094 Z M 235.789062 213.039062 L 198.195312 213.039062 L 198.195312 263.144531 L 235.789062 263.144531 Z M 176.855469 213.039062 L 139.261719 213.039062 L 139.261719 263.144531 L 176.855469 263.144531 Z M 364.867188 149.625 L 251.566406 149.625 L 251.566406 198.222656 L 364.867188 198.222656 Z M 364.867188 205.613281 L 251.566406 205.613281 L 251.566406 284.632812 L 364.867188 284.632812 Z M 244.179688 149.625 L 130.871094 149.625 L 130.871094 198.222656 L 244.179688 198.222656 Z M 123.484375 149.625 L 10.175781 149.625 L 10.179688 198.222656 L 123.488281 198.222656 Z M 123.484375 284.632812 L 10.175781 284.632812 L 10.179688 205.613281 L 123.488281 205.613281 L 123.488281 284.632812 " fill-opacity="1" fill-rule="nonzero"/><g clip-path="url(#id3)"><path fill="rgb(96.859741%, 60.778809%, 36.859131%)" d="M 165.109375 140.882812 L 123.078125 140.882812 C 123.078125 152.882812 132.800781 162.609375 144.789062 162.609375 C 154.925781 162.609375 163.421875 155.648438 165.808594 146.253906 C 168.207031 155.648438 176.691406 162.609375 186.828125 162.609375 C 198.816406 162.609375 208.539062 152.882812 208.539062 140.882812 Z M 230.261719 162.609375 C 242.25 162.609375 251.972656 152.882812 251.972656 140.882812 L 208.539062 140.882812 C 208.539062 152.882812 218.265625 162.609375 230.261719 162.609375 Z M 273.691406 162.609375 C 285.679688 162.609375 295.402344 152.882812 295.402344 140.882812 L 251.972656 140.882812 C 251.972656 152.882812 261.695312 162.609375 273.691406 162.609375 Z M 338.835938 140.882812 C 338.835938 152.882812 348.558594 162.609375 360.546875 162.609375 C 372.542969 162.609375 382.265625 152.882812 382.265625 140.882812 Z M 317.117188 162.609375 C 329.113281 162.609375 338.835938 152.882812 338.835938 140.882812 L 295.402344 140.882812 C 295.402344 152.882812 305.128906 162.609375 317.117188 162.609375 Z M 101.359375 162.609375 C 113.355469 162.609375 123.078125 152.882812 123.078125 140.882812 L 79.648438 140.882812 C 79.648438 152.882812 89.371094 162.609375 101.359375 162.609375 Z M 57.929688 162.609375 C 69.925781 162.609375 79.648438 152.882812 79.648438 140.882812 L 36.214844 140.882812 C 36.214844 152.882812 45.9375 162.609375 57.929688 162.609375 Z M -7.214844 140.882812 L 36.214844 140.882812 C 36.214844 152.882812 26.492188 162.609375 14.5 162.609375 C 2.503906 162.609375 -7.214844 152.882812 -7.214844 140.882812 " fill-opacity="1" fill-rule="nonzero"/></g><g clip-path="url(#id4)"><path fill="rgb(98.429871%, 81.17981%, 44.309998%)" d="M 139.261719 232.375 L 162.207031 213.039062 L 176.855469 213.039062 L 176.855469 224.859375 L 139.261719 256.558594 Z M 382.265625 140.882812 L -7.214844 140.882812 L 16.007812 88.421875 L 359.046875 88.421875 Z M 258.300781 156.207031 L 251.566406 161.886719 L 251.566406 149.628906 L 253.808594 149.628906 C 254.898438 152.097656 256.425781 154.324219 258.300781 156.207031 Z M 77.265625 284.636719 L 123.484375 245.679688 L 123.484375 269.859375 L 105.953125 284.636719 Z M 244.179688 157.554688 L 244.179688 168.117188 L 208.464844 198.226562 L 179.777344 198.226562 L 223.363281 161.480469 C 225.527344 162.207031 227.847656 162.609375 230.261719 162.609375 C 235.554688 162.609375 240.410156 160.710938 244.179688 157.554688 Z M 49.417969 284.636719 L 10.179688 284.636719 L 10.179688 275.90625 L 93.554688 205.617188 L 123.488281 205.617188 L 123.488281 222.207031 Z M 197.523438 159.789062 L 151.929688 198.226562 L 130.871094 198.226562 L 130.871094 174.160156 L 144.582031 162.601562 C 144.652344 162.601562 144.722656 162.609375 144.789062 162.609375 C 153.664062 162.609375 161.285156 157.265625 164.648438 149.628906 L 166.976562 149.628906 C 170.332031 157.265625 177.953125 162.609375 186.828125 162.609375 C 190.714844 162.609375 194.363281 161.582031 197.523438 159.789062 Z M 203.644531 154.628906 L 209.578125 149.628906 L 206.710938 149.628906 C 205.910156 151.433594 204.882812 153.117188 203.644531 154.628906 Z M 102.324219 198.226562 L 123.484375 180.390625 L 123.484375 198.226562 Z M 102.324219 198.226562 " fill-opacity="1" fill-rule="nonzero"/></g></svg>