<svg xmlns="http://www.w3.org/2000/svg" xmlns:xlink="http://www.w3.org/1999/xlink" width="500" zoomAndPan="magnify" viewBox="0 0 375 374.999991" height="500" preserveAspectRatio="xMidYMid meet" version="1.0"><defs><clipPath id="id1"><path d="M 0 58 L 369 58 L 369 317.433594 L 0 317.433594 Z M 0 58 " clip-rule="nonzero"/></clipPath></defs><rect x="-37.5" width="450" fill="#ffffff" y="-37.499999" height="449.999989" fill-opacity="1"/><rect x="-37.5" width="450" fill="#464a51" y="-37.499999" height="449.999989" fill-opacity="1"/><rect x="-37.5" width="450" fill="#ffffff" y="-37.499999" height="449.999989" fill-opacity="1"/><rect x="-37.5" width="450" fill="#464a51" y="-37.499999" height="449.999989" fill-opacity="1"/><path fill="#ff0000" d="M 368.351562 259.683594 C 368.351562 262.59375 365.984375 264.953125 363.078125 264.953125 L 236.851562 264.953125 L 236.851562 269.703125 C 236.851562 276.640625 231.242188 282.265625 224.320312 282.265625 L 115.992188 282.265625 C 110.839844 282.265625 106.03125 279.683594 103.1875 275.378906 C 95.660156 263.988281 78.207031 240.261719 50.636719 217.988281 C 48.734375 216.449219 47.675781 214.097656 47.773438 211.648438 C 48.183594 201.238281 54.128906 172.324219 101.828125 135.1875 C 102.960938 134.304688 104.367188 133.828125 105.804688 133.828125 L 115.597656 133.828125 C 116.386719 133.828125 116.953125 134.585938 116.734375 135.34375 L 112.820312 148.804688 C 111.101562 154.734375 109.789062 160.773438 108.921875 166.886719 C 105.011719 194.515625 97.804688 268.457031 132.695312 268.457031 L 181.121094 268.457031 C 196.902344 268.457031 209.699219 255.632812 209.699219 239.820312 L 209.699219 232.929688 C 209.699219 219.5 203.007812 209 192.007812 201.136719 C 189.449219 199.308594 186.03125 194.4375 186.03125 190.066406 L 186.03125 182.777344 L 209.699219 182.777344 L 274.4375 183.230469 L 275.113281 182.777344 L 328.527344 182.777344 C 329.5 182.777344 330.195312 183.707031 329.933594 184.644531 C 329.273438 186.992188 329.527344 191.476562 336.621094 197.679688 C 355.851562 211.539062 368.359375 234.152344 368.351562 259.683594 " fill-opacity="1" fill-rule="nonzero"/><g clip-path="url(#id1)"><path fill="#3e3b39" d="M 136.71875 58.039062 L 131.828125 59.699219 C 131.589844 59.78125 131.429688 60.003906 131.429688 60.253906 L 131.429688 66.769531 L 129.398438 66.769531 C 127.449219 66.769531 125.746094 68.019531 125.160156 69.863281 L 116.628906 95.359375 C 116.628906 95.359375 116.394531 97.273438 118.652344 97.273438 L 127.5625 70.648438 C 127.816406 69.84375 128.558594 69.300781 129.398438 69.300781 L 131.429688 69.300781 L 131.429688 75.8125 C 131.429688 76.066406 131.589844 76.289062 131.828125 76.371094 L 136.71875 78.027344 C 137.101562 78.15625 137.496094 77.871094 137.496094 77.472656 L 137.496094 58.597656 C 137.496094 58.195312 137.101562 57.910156 136.71875 58.039062 Z M 288.757812 228.558594 C 264.261719 228.558594 244.40625 248.457031 244.40625 273 C 244.40625 297.542969 264.261719 317.441406 288.757812 317.441406 C 313.253906 317.441406 333.109375 297.542969 333.109375 273 C 333.109375 248.457031 313.253906 228.558594 288.757812 228.558594 Z M 45.222656 228.558594 C 20.730469 228.558594 0.875 248.457031 0.875 273 C 0.875 297.542969 20.730469 317.441406 45.222656 317.441406 C 69.71875 317.441406 89.574219 297.542969 89.574219 273 C 89.574219 248.457031 69.71875 228.558594 45.222656 228.558594 Z M 311.535156 147.140625 C 243.257812 164.828125 232.417969 161.980469 204.832031 161.980469 C 194.453125 161.980469 186.03125 170.414062 186.03125 180.820312 C 186.03125 181.898438 186.910156 182.777344 187.988281 182.777344 L 328.378906 182.777344 C 329.457031 182.777344 330.335938 181.898438 330.335938 180.820312 C 330.335938 170.414062 321.589844 144.535156 311.535156 147.140625 Z M 134.019531 107.390625 L 124.414062 102.265625 C 123.828125 101.8125 123.164062 101.445312 122.421875 101.203125 C 118.957031 100.074219 115.234375 101.96875 114.109375 105.441406 C 112.976562 108.914062 114.871094 112.644531 118.335938 113.777344 C 119.078125 114.019531 119.832031 114.113281 120.570312 114.089844 L 131.347656 115.617188 C 132.394531 115.960938 133.84375 114.398438 134.582031 112.125 C 135.324219 109.855469 135.070312 107.734375 134.019531 107.390625 Z M 368.9375 223.886719 L 368.9375 239.546875 C 368.9375 241.136719 367.929688 242.480469 366.527344 243 C 364.710938 234.828125 361.585938 227.148438 357.382812 220.191406 L 365.25 220.191406 C 367.285156 220.191406 368.9375 221.847656 368.9375 223.886719 " fill-opacity="1" fill-rule="nonzero"/></g><path fill="#ff0000" d="M 120.25 92.5 L 118.652344 97.273438 C 116.394531 97.273438 116.628906 95.359375 116.628906 95.359375 L 117.742188 92.035156 C 117.539062 92.019531 117.335938 91.996094 117.128906 91.996094 L 97.398438 91.996094 L 97.398438 118.570312 L 100.832031 118.570312 C 103.539062 118.570312 105.464844 121.203125 104.65625 123.789062 L 102.132812 131.839844 C 101.824219 132.828125 102.558594 133.828125 103.585938 133.828125 L 115.546875 133.828125 C 116.777344 133.828125 117.863281 133.027344 118.230469 131.855469 L 123.664062 114.53125 L 120.570312 114.089844 C 119.832031 114.113281 119.078125 114.019531 118.335938 113.777344 C 114.871094 112.644531 112.976562 108.914062 114.109375 105.441406 C 115.234375 101.96875 118.957031 100.074219 122.421875 101.203125 C 123.164062 101.445312 123.828125 101.8125 124.414062 102.265625 L 126.972656 103.632812 C 127.796875 98.707031 124.824219 94.003906 120.25 92.5 Z M 242.597656 270.613281 L 354.042969 270.613281 C 356.617188 270.613281 358.703125 268.519531 358.703125 265.945312 C 358.703125 228.914062 321.480469 192.824219 275.417969 192.824219 C 245.53125 192.824219 221.304688 217.105469 221.304688 247.050781 L 221.304688 259.695312 C 221.304688 265.722656 226.183594 270.613281 232.199219 270.613281 Z M 84.414062 278.53125 C 90.230469 280.945312 96.726562 276.722656 96.746094 270.414062 C 96.746094 270.367188 96.746094 270.324219 96.746094 270.28125 C 96.746094 241.113281 73.148438 217.46875 44.039062 217.46875 C 26.71875 217.46875 11.359375 225.84375 1.753906 238.769531 C 0.0273438 241.089844 0.941406 244.417969 3.617188 245.503906 C 22.15625 253.011719 57.953125 267.546875 84.414062 278.53125 Z M 99.394531 143.757812 C 55.894531 177.625 50.476562 203.992188 50.101562 213.484375 C 50.101562 213.484375 64.492188 211.976562 74.0625 223.933594 C 74.0625 223.933594 66.203125 188.0625 99.394531 143.757812 Z M 141.9375 109.976562 L 139.265625 118.203125 L 131.359375 115.625 C 130.308594 115.28125 130.054688 113.160156 130.792969 110.890625 C 131.53125 108.617188 132.980469 107.054688 134.03125 107.394531 L 141.9375 109.976562 " fill-opacity="1" fill-rule="nonzero"/><path fill="#f4c1c1" d="M 9.667969 237.882812 C 18.242188 230.289062 40.050781 214.429688 63.261719 224.910156 C 63.261719 224.910156 41.074219 230.390625 28.050781 245.519531 C 26.601562 247.199219 24.273438 247.816406 22.175781 247.105469 L 10.746094 243.230469 C 8.457031 242.453125 7.851562 239.488281 9.667969 237.882812 Z M 280.21875 201.726562 C 279.546875 201.125 279.960938 200.007812 280.863281 200.007812 C 321.339844 200.007812 352.226562 227.683594 352.226562 260.21875 C 352.273438 262.4375 350.488281 264.257812 348.277344 264.257812 L 326.15625 264.257812 C 323.925781 264.257812 321.960938 262.820312 321.261719 260.699219 C 318.230469 251.453125 307.097656 225.71875 280.21875 201.726562 Z M 138.160156 58.03125 C 143.378906 58.371094 147.5 62.722656 147.5 68.035156 C 147.5 73.347656 143.378906 77.695312 138.160156 78.039062 C 137.804688 78.0625 137.496094 77.785156 137.496094 77.425781 L 137.496094 58.640625 C 137.496094 58.28125 137.804688 58.007812 138.160156 58.03125 Z M 97.398438 91.996094 C 92.054688 91.996094 87.722656 96.339844 87.722656 101.691406 L 87.722656 108.875 C 87.722656 114.230469 92.054688 118.570312 97.398438 118.570312 C 98.640625 118.570312 99.648438 112.621094 99.648438 105.285156 C 99.648438 97.949219 98.640625 91.996094 97.398438 91.996094 Z M 142.503906 114.710938 C 141.765625 116.980469 140.316406 118.546875 139.265625 118.203125 C 138.214844 117.863281 137.960938 115.742188 138.703125 113.472656 C 139.441406 111.199219 140.890625 109.632812 141.9375 109.976562 C 142.988281 110.320312 143.242188 112.441406 142.503906 114.710938 " fill-opacity="1" fill-rule="nonzero"/><path fill="#ffffff" d="M 89.484375 114.441406 L 99.609375 102.859375 C 99.636719 103.648438 99.648438 104.453125 99.648438 105.285156 C 99.648438 105.917969 99.636719 106.535156 99.625 107.144531 L 91.441406 116.503906 C 90.691406 115.914062 90.035156 115.222656 89.484375 114.441406 Z M 99.316406 98.355469 L 88.03125 111.265625 C 87.835938 110.5 87.722656 109.699219 87.722656 108.875 L 87.722656 104.367188 L 98.046875 92.5625 C 98.578125 93.507812 99.027344 95.601562 99.316406 98.355469 Z M 320.121094 270.613281 C 320.183594 271.402344 320.21875 272.195312 320.21875 273 C 320.21875 290.414062 306.136719 304.527344 288.757812 304.527344 C 271.378906 304.527344 257.292969 290.414062 257.292969 273 C 257.292969 272.195312 257.332031 271.402344 257.394531 270.613281 L 265.273438 270.613281 C 265.195312 271.394531 265.152344 272.195312 265.152344 273 C 265.152344 286.042969 275.742188 296.652344 288.757812 296.652344 C 301.773438 296.652344 312.359375 286.042969 312.359375 273 C 312.359375 272.195312 312.320312 271.394531 312.238281 270.613281 Z M 309.695312 270.613281 C 309.785156 271.394531 309.835938 272.195312 309.835938 273 C 309.835938 284.648438 300.378906 294.125 288.757812 294.125 C 277.132812 294.125 267.679688 284.648438 267.679688 273 C 267.679688 272.195312 267.726562 271.394531 267.816406 270.613281 Z M 76.648438 274.515625 C 75.859375 291.226562 62.09375 304.527344 45.222656 304.527344 C 27.847656 304.527344 13.757812 290.414062 13.757812 273 C 13.757812 264.957031 16.769531 257.625 21.714844 252.054688 C 24.253906 253.085938 26.898438 254.160156 29.625 255.269531 C 24.71875 259.609375 21.617188 265.945312 21.617188 273 C 21.617188 286.042969 32.207031 296.652344 45.222656 296.652344 C 58.238281 296.652344 68.828125 286.042969 68.828125 273 C 68.828125 272.414062 68.796875 271.839844 68.757812 271.265625 C 71.425781 272.363281 74.0625 273.445312 76.648438 274.515625 Z M 32.277344 256.347656 C 27.332031 260.21875 24.144531 266.242188 24.144531 273 C 24.144531 284.648438 33.601562 294.125 45.222656 294.125 C 56.84375 294.125 66.300781 284.648438 66.300781 273 C 66.300781 272.039062 66.230469 271.101562 66.105469 270.175781 C 54.761719 265.515625 42.980469 260.707031 32.277344 256.347656 Z M 137.496094 77.425781 C 137.496094 77.785156 137.804688 78.0625 138.160156 78.039062 C 138.433594 78.019531 138.703125 77.984375 138.976562 77.945312 L 147.496094 68.195312 C 147.496094 68.140625 147.5 68.089844 147.5 68.035156 C 147.5 66.964844 147.328125 65.945312 147.019531 64.976562 L 137.496094 75.871094 Z M 137.496094 66.253906 L 143.160156 59.777344 C 144.492188 60.699219 145.59375 61.929688 146.351562 63.375 L 137.496094 73.507812 L 137.496094 66.253906 " fill-opacity="1" fill-rule="nonzero"/></svg>