<svg xmlns="http://www.w3.org/2000/svg" xmlns:xlink="http://www.w3.org/1999/xlink" width="500" zoomAndPan="magnify" viewBox="0 0 375 374.999991" height="500" preserveAspectRatio="xMidYMid meet" version="1.0"><defs><clipPath id="id1"><path d="M 12 64.011719 L 363.292969 64.011719 L 363.292969 310.761719 L 12 310.761719 Z M 12 64.011719 " clip-rule="nonzero"/></clipPath><clipPath id="id2"><path d="M 19 64.011719 L 348 64.011719 L 348 261 L 19 261 Z M 19 64.011719 " clip-rule="nonzero"/></clipPath></defs><rect x="-37.5" width="450" fill="#ffffff" y="-37.499999" height="449.999989" fill-opacity="1"/><rect x="-37.5" width="450" fill="#464a51" y="-37.499999" height="449.999989" fill-opacity="1"/><rect x="-37.5" width="450" fill="#ffffff" y="-37.499999" height="449.999989" fill-opacity="1"/><rect x="-37.5" width="450" fill="#464a51" y="-37.499999" height="449.999989" fill-opacity="1"/><path fill="#bb1c1c" d="M 362.679688 255.847656 C 362.679688 258.613281 360.421875 260.859375 357.652344 260.859375 L 237.324219 260.859375 L 237.324219 265.375 C 237.324219 271.972656 231.976562 277.320312 225.378906 277.320312 L 122.113281 277.320312 C 117.199219 277.320312 112.621094 274.867188 109.910156 270.773438 C 102.734375 259.941406 86.09375 237.378906 59.8125 216.203125 C 57.996094 214.738281 56.988281 212.5 57.082031 210.171875 C 57.472656 200.273438 63.140625 172.78125 108.609375 137.46875 C 109.691406 136.628906 111.03125 136.175781 112.402344 136.175781 L 121.738281 136.175781 C 122.488281 136.175781 123.027344 136.894531 122.820312 137.617188 L 119.089844 150.417969 C 117.449219 156.054688 116.199219 161.796875 115.375 167.609375 C 111.648438 193.882812 104.773438 264.1875 138.035156 264.1875 L 184.199219 264.1875 C 199.242188 264.1875 211.441406 251.996094 211.441406 236.960938 L 211.441406 230.410156 C 211.441406 217.636719 205.0625 207.652344 194.574219 200.175781 C 192.140625 198.4375 188.878906 193.804688 188.878906 189.648438 L 188.878906 182.722656 L 211.441406 182.722656 L 273.152344 183.152344 L 273.800781 182.722656 L 324.714844 182.722656 C 325.644531 182.722656 326.304688 183.601562 326.054688 184.496094 C 325.425781 186.726562 325.667969 190.992188 332.429688 196.886719 C 350.761719 210.070312 362.683594 231.570312 362.679688 255.847656 " fill-opacity="1" fill-rule="nonzero"/><g clip-path="url(#id1)"><path fill="#3e3b39" d="M 141.871094 64.113281 L 137.210938 65.691406 C 136.984375 65.765625 136.828125 65.980469 136.828125 66.21875 L 136.828125 72.414062 L 134.894531 72.414062 C 133.035156 72.414062 131.410156 73.601562 130.851562 75.351562 L 122.71875 99.597656 C 122.71875 99.597656 122.496094 101.417969 124.648438 101.417969 L 133.140625 76.101562 C 133.386719 75.332031 134.089844 74.820312 134.894531 74.820312 L 136.828125 74.820312 L 136.828125 81.011719 C 136.828125 81.25 136.984375 81.460938 137.210938 81.542969 L 141.871094 83.117188 C 142.238281 83.242188 142.613281 82.96875 142.613281 82.589844 L 142.613281 64.644531 C 142.613281 64.257812 142.238281 63.988281 141.871094 64.113281 Z M 286.804688 226.253906 C 263.453125 226.253906 244.527344 245.171875 244.527344 268.511719 C 244.527344 291.847656 263.453125 310.765625 286.804688 310.765625 C 310.15625 310.765625 329.082031 291.847656 329.082031 268.511719 C 329.082031 245.171875 310.15625 226.253906 286.804688 226.253906 Z M 54.652344 226.253906 C 31.300781 226.253906 12.375 245.171875 12.375 268.511719 C 12.375 291.847656 31.300781 310.765625 54.652344 310.765625 C 78.003906 310.765625 96.929688 291.847656 96.929688 268.511719 C 96.929688 245.171875 78.003906 226.253906 54.652344 226.253906 Z M 308.519531 148.835938 C 243.429688 165.65625 233.097656 162.945312 206.800781 162.945312 C 196.90625 162.945312 188.878906 170.964844 188.878906 180.859375 C 188.878906 181.886719 189.714844 182.722656 190.742188 182.722656 L 324.574219 182.722656 C 325.601562 182.722656 326.4375 181.886719 326.4375 180.859375 C 326.4375 170.964844 318.101562 146.359375 308.519531 148.835938 Z M 139.296875 111.039062 L 130.140625 106.164062 C 129.585938 105.734375 128.949219 105.382812 128.242188 105.152344 C 124.941406 104.078125 121.390625 105.882812 120.316406 109.183594 C 119.238281 112.484375 121.046875 116.035156 124.347656 117.109375 C 125.054688 117.339844 125.773438 117.429688 126.476562 117.410156 L 136.75 118.859375 C 137.75 119.1875 139.132812 117.699219 139.835938 115.539062 C 140.539062 113.382812 140.300781 111.363281 139.296875 111.039062 Z M 363.234375 221.808594 L 363.234375 236.699219 C 363.234375 238.214844 362.277344 239.488281 360.9375 239.984375 C 359.207031 232.210938 356.230469 224.910156 352.222656 218.296875 L 359.722656 218.296875 C 361.664062 218.296875 363.234375 219.871094 363.234375 221.808594 " fill-opacity="1" fill-rule="nonzero"/></g><path fill="#cd4949" d="M 126.171875 96.878906 L 124.648438 101.417969 C 122.496094 101.417969 122.71875 99.597656 122.71875 99.597656 L 123.78125 96.4375 C 123.585938 96.421875 123.394531 96.398438 123.199219 96.398438 L 104.386719 96.398438 L 104.386719 121.667969 L 107.660156 121.667969 C 110.242188 121.667969 112.078125 124.171875 111.308594 126.632812 L 108.898438 134.285156 C 108.605469 135.222656 109.304688 136.175781 110.285156 136.175781 L 121.691406 136.175781 C 122.863281 136.175781 123.898438 135.414062 124.246094 134.300781 L 129.425781 117.828125 L 126.480469 117.410156 C 125.773438 117.429688 125.054688 117.339844 124.347656 117.109375 C 121.046875 116.035156 119.238281 112.484375 120.316406 109.183594 C 121.390625 105.882812 124.941406 104.078125 128.242188 105.152344 C 128.949219 105.382812 129.585938 105.734375 130.140625 106.164062 L 132.582031 107.464844 C 133.367188 102.78125 130.53125 98.308594 126.171875 96.878906 Z M 242.800781 266.238281 L 349.039062 266.238281 C 351.492188 266.238281 353.480469 264.25 353.480469 261.800781 C 353.480469 226.589844 318 192.273438 274.089844 192.273438 C 245.597656 192.273438 222.503906 215.359375 222.503906 243.835938 L 222.503906 255.859375 C 222.503906 261.589844 227.152344 266.238281 232.886719 266.238281 Z M 92.007812 273.769531 C 97.558594 276.066406 103.75 272.050781 103.765625 266.050781 C 103.765625 266.003906 103.765625 265.964844 103.765625 265.921875 C 103.765625 238.1875 81.273438 215.707031 53.523438 215.707031 C 37.011719 215.707031 22.367188 223.671875 13.214844 235.960938 C 11.570312 238.167969 12.4375 241.332031 14.988281 242.363281 C 32.664062 249.503906 66.789062 263.324219 92.007812 273.769531 Z M 106.289062 145.617188 C 64.824219 177.820312 59.660156 202.890625 59.300781 211.917969 C 59.300781 211.917969 73.023438 210.484375 82.144531 221.855469 C 82.144531 221.855469 74.652344 187.746094 106.289062 145.617188 Z M 146.847656 113.496094 L 144.296875 121.320312 L 136.761719 118.867188 C 135.761719 118.539062 135.519531 116.523438 136.222656 114.363281 C 136.929688 112.203125 138.308594 110.71875 139.308594 111.042969 L 146.847656 113.496094 " fill-opacity="1" fill-rule="nonzero"/><g clip-path="url(#id2)"><path fill="#f4c1c1" d="M 20.757812 235.121094 C 28.929688 227.898438 49.722656 212.816406 71.847656 222.78125 C 71.847656 222.78125 50.695312 227.992188 38.28125 242.378906 C 36.902344 243.976562 34.683594 244.5625 32.679688 243.886719 L 21.785156 240.203125 C 19.601562 239.460938 19.027344 236.644531 20.757812 235.121094 Z M 278.664062 200.738281 C 278.023438 200.164062 278.417969 199.105469 279.277344 199.105469 C 317.863281 199.105469 347.308594 225.417969 347.308594 256.355469 C 347.351562 258.464844 345.652344 260.199219 343.539062 260.199219 L 322.453125 260.199219 C 320.328125 260.199219 318.453125 258.832031 317.789062 256.8125 C 314.898438 248.023438 304.285156 223.550781 278.664062 200.738281 Z M 143.246094 64.101562 C 148.21875 64.425781 152.148438 68.5625 152.148438 73.617188 C 152.148438 78.667969 148.21875 82.800781 143.246094 83.128906 C 142.90625 83.152344 142.613281 82.886719 142.613281 82.542969 L 142.613281 64.683594 C 142.613281 64.339844 142.90625 64.082031 143.246094 64.101562 Z M 104.386719 96.398438 C 99.296875 96.398438 95.164062 100.527344 95.164062 105.621094 L 95.164062 112.449219 C 95.164062 117.539062 99.296875 121.667969 104.386719 121.667969 C 105.574219 121.667969 106.535156 116.007812 106.535156 109.035156 C 106.535156 102.058594 105.574219 96.398438 104.386719 96.398438 Z M 147.386719 118 C 146.679688 120.15625 145.300781 121.644531 144.296875 121.320312 C 143.296875 120.996094 143.058594 118.980469 143.761719 116.820312 C 144.464844 114.660156 145.847656 113.171875 146.847656 113.496094 C 147.847656 113.824219 148.089844 115.839844 147.386719 118 " fill-opacity="1" fill-rule="nonzero"/></g><path fill="#ffffff" d="M 96.84375 117.742188 L 106.496094 106.730469 C 106.519531 107.476562 106.535156 108.246094 106.535156 109.035156 C 106.535156 109.636719 106.523438 110.222656 106.511719 110.804688 L 98.710938 119.703125 C 97.996094 119.144531 97.367188 118.484375 96.84375 117.742188 Z M 106.214844 102.445312 L 95.460938 114.722656 C 95.273438 113.992188 95.164062 113.234375 95.164062 112.449219 L 95.164062 108.164062 L 105.003906 96.9375 C 105.515625 97.835938 105.941406 99.828125 106.214844 102.445312 Z M 316.703125 266.238281 C 316.761719 266.988281 316.796875 267.746094 316.796875 268.511719 C 316.796875 285.070312 303.371094 298.488281 286.804688 298.488281 C 270.238281 298.488281 256.808594 285.070312 256.808594 268.511719 C 256.808594 267.746094 256.847656 266.988281 256.90625 266.238281 L 264.417969 266.238281 C 264.34375 266.984375 264.300781 267.742188 264.300781 268.511719 C 264.300781 280.914062 274.398438 291 286.804688 291 C 299.210938 291 309.304688 280.914062 309.304688 268.511719 C 309.304688 267.742188 309.265625 266.984375 309.191406 266.238281 Z M 306.761719 266.238281 C 306.847656 266.984375 306.898438 267.742188 306.898438 268.511719 C 306.898438 279.585938 297.882812 288.59375 286.804688 288.59375 C 275.722656 288.59375 266.710938 279.585938 266.710938 268.511719 C 266.710938 267.742188 266.757812 266.984375 266.84375 266.238281 Z M 84.609375 269.949219 C 83.855469 285.839844 70.734375 298.488281 54.652344 298.488281 C 38.085938 298.488281 24.65625 285.070312 24.65625 268.511719 C 24.65625 260.863281 27.527344 253.890625 32.242188 248.59375 C 34.664062 249.574219 37.183594 250.597656 39.78125 251.652344 C 35.105469 255.773438 32.148438 261.804688 32.148438 268.511719 C 32.148438 280.914062 42.246094 291 54.652344 291 C 67.058594 291 77.152344 280.914062 77.152344 268.511719 C 77.152344 267.953125 77.125 267.40625 77.085938 266.859375 C 79.628906 267.90625 82.144531 268.933594 84.609375 269.949219 Z M 42.308594 252.675781 C 37.597656 256.355469 34.558594 262.085938 34.558594 268.511719 C 34.558594 279.585938 43.574219 288.59375 54.652344 288.59375 C 65.730469 288.59375 74.746094 279.585938 74.746094 268.511719 C 74.746094 267.597656 74.675781 266.703125 74.558594 265.824219 C 63.746094 261.390625 52.511719 256.820312 42.308594 252.675781 Z M 142.613281 82.542969 C 142.613281 82.886719 142.90625 83.152344 143.246094 83.128906 C 143.507812 83.109375 143.765625 83.078125 144.023438 83.039062 L 152.144531 73.769531 C 152.144531 73.71875 152.148438 73.667969 152.148438 73.617188 C 152.148438 72.597656 151.984375 71.625 151.691406 70.707031 L 142.613281 81.066406 Z M 142.613281 71.921875 L 148.011719 65.761719 C 149.28125 66.640625 150.332031 67.808594 151.054688 69.183594 L 142.613281 78.820312 L 142.613281 71.921875 " fill-opacity="1" fill-rule="nonzero"/></svg>