<svg xmlns="http://www.w3.org/2000/svg" xmlns:xlink="http://www.w3.org/1999/xlink" width="500" zoomAndPan="magnify" viewBox="0 0 375 374.999991" height="500" preserveAspectRatio="xMidYMid meet" version="1.0"><defs><clipPath id="id1"><path d="M 26 142 L 349.636719 142 L 349.636719 233 L 26 233 Z M 26 142 " clip-rule="nonzero"/></clipPath><clipPath id="id2"><path d="M 26 44.042969 L 349.636719 44.042969 L 349.636719 152 L 26 152 Z M 26 44.042969 " clip-rule="nonzero"/></clipPath><clipPath id="id3"><path d="M 26 151 L 349.636719 151 L 349.636719 179 L 26 179 Z M 26 151 " clip-rule="nonzero"/></clipPath><clipPath id="id4"><path d="M 52 196 L 125 196 L 125 268.292969 L 52 268.292969 Z M 52 196 " clip-rule="nonzero"/></clipPath><clipPath id="id5"><path d="M 250 196 L 323 196 L 323 268.292969 L 250 268.292969 Z M 250 196 " clip-rule="nonzero"/></clipPath><clipPath id="id6"><path d="M 26 160 L 349.636719 160 L 349.636719 197 L 26 197 Z M 26 160 " clip-rule="nonzero"/></clipPath><clipPath id="id7"><path d="M 35 70 L 349.636719 70 L 349.636719 161 L 35 161 Z M 35 70 " clip-rule="nonzero"/></clipPath><clipPath id="id8"><path d="M 340 124 L 349.636719 124 L 349.636719 143 L 340 143 Z M 340 124 " clip-rule="nonzero"/></clipPath></defs><rect x="-37.5" width="450" fill="rgb(27.449036%, 29.019165%, 31.759644%)" y="-37.499999" height="449.999989" fill-opacity="1"/><rect x="-37.5" width="450" fill="rgb(100%, 100%, 100%)" y="-37.499999" height="449.999989" fill-opacity="1"/><rect x="-37.5" width="450" fill="rgb(27.449036%, 29.019165%, 31.759644%)" y="-37.499999" height="449.999989" fill-opacity="1"/><g clip-path="url(#id1)"><path fill="rgb(50.19989%, 50.979614%, 52.159119%)" d="M 26.035156 142.714844 L 26.035156 205.503906 C 26.035156 220.367188 38.09375 232.414062 52.96875 232.414062 L 322.300781 232.414062 C 337.179688 232.414062 349.234375 220.367188 349.234375 205.503906 L 349.234375 142.714844 Z M 26.035156 142.714844 " fill-opacity="1" fill-rule="nonzero"/></g><g clip-path="url(#id2)"><path fill="rgb(79.998779%, 83.918762%, 86.669922%)" d="M 349.234375 151.683594 L 349.234375 70.953125 C 349.234375 56.089844 319.222656 44.042969 304.347656 44.042969 L 124.789062 44.042969 C 52.96875 44.042969 26.035156 65.0625 26.035156 79.925781 L 26.035156 151.683594 Z M 349.234375 151.683594 " fill-opacity="1" fill-rule="nonzero"/></g><g clip-path="url(#id3)"><path fill="rgb(57.649231%, 58.428955%, 59.609985%)" d="M 26.035156 151.683594 L 349.234375 151.683594 L 349.234375 178.59375 L 26.035156 178.59375 Z M 26.035156 151.683594 " fill-opacity="1" fill-rule="nonzero"/></g><path fill="rgb(73.728943%, 74.508667%, 75.289917%)" d="M 88.878906 178.59375 C 61.378906 178.59375 38.730469 199.207031 35.460938 225.804688 C 40.183594 229.867188 46.253906 232.414062 52.96875 232.414062 L 142.746094 232.414062 C 142.746094 202.695312 118.632812 178.59375 88.878906 178.59375 Z M 339.808594 225.804688 C 336.539062 199.207031 313.890625 178.59375 286.390625 178.59375 C 256.648438 178.59375 232.523438 202.695312 232.523438 232.414062 L 322.300781 232.414062 C 329.027344 232.414062 335.09375 229.867188 339.808594 225.804688 Z M 339.808594 225.804688 " fill-opacity="1" fill-rule="nonzero"/><g clip-path="url(#id4)"><path fill="rgb(0%, 0%, 0%)" d="M 124.789062 232.414062 C 124.789062 233.589844 124.734375 234.761719 124.617188 235.929688 C 124.503906 237.101562 124.328125 238.261719 124.101562 239.414062 C 123.871094 240.566406 123.585938 241.707031 123.246094 242.828125 C 122.902344 243.953125 122.507812 245.058594 122.058594 246.144531 C 121.605469 247.230469 121.105469 248.292969 120.550781 249.328125 C 119.996094 250.363281 119.390625 251.371094 118.738281 252.347656 C 118.085938 253.324219 117.386719 254.269531 116.640625 255.175781 C 115.894531 256.085938 115.105469 256.953125 114.273438 257.785156 C 113.441406 258.617188 112.570312 259.40625 111.660156 260.148438 C 110.753906 260.894531 109.808594 261.59375 108.832031 262.246094 C 107.851562 262.898438 106.84375 263.503906 105.808594 264.058594 C 104.769531 264.613281 103.707031 265.113281 102.621094 265.5625 C 101.535156 266.011719 100.429688 266.40625 99.304688 266.75 C 98.179688 267.089844 97.039062 267.375 95.886719 267.605469 C 94.730469 267.835938 93.570312 268.007812 92.398438 268.121094 C 91.230469 268.238281 90.054688 268.292969 88.878906 268.292969 C 87.703125 268.292969 86.53125 268.238281 85.359375 268.121094 C 84.1875 268.007812 83.027344 267.835938 81.875 267.605469 C 80.71875 267.375 79.582031 267.089844 78.453125 266.75 C 77.328125 266.40625 76.222656 266.011719 75.136719 265.5625 C 74.050781 265.113281 72.988281 264.613281 71.949219 264.058594 C 70.914062 263.503906 69.90625 262.898438 68.929688 262.246094 C 67.949219 261.59375 67.007812 260.894531 66.097656 260.148438 C 65.1875 259.40625 64.316406 258.617188 63.484375 257.785156 C 62.65625 256.953125 61.867188 256.085938 61.121094 255.175781 C 60.375 254.269531 59.671875 253.324219 59.019531 252.347656 C 58.367188 251.371094 57.761719 250.363281 57.207031 249.328125 C 56.652344 248.292969 56.152344 247.230469 55.703125 246.144531 C 55.25 245.058594 54.855469 243.953125 54.515625 242.828125 C 54.171875 241.707031 53.886719 240.566406 53.65625 239.414062 C 53.429688 238.261719 53.257812 237.101562 53.140625 235.929688 C 53.027344 234.761719 52.96875 233.589844 52.96875 232.414062 C 52.96875 231.238281 53.027344 230.066406 53.140625 228.898438 C 53.257812 227.726562 53.429688 226.566406 53.65625 225.414062 C 53.886719 224.261719 54.171875 223.125 54.515625 222 C 54.855469 220.875 55.25 219.769531 55.703125 218.683594 C 56.152344 217.597656 56.652344 216.535156 57.207031 215.5 C 57.761719 214.464844 58.367188 213.457031 59.019531 212.480469 C 59.671875 211.503906 60.375 210.558594 61.121094 209.652344 C 61.867188 208.742188 62.65625 207.875 63.484375 207.042969 C 64.316406 206.210938 65.1875 205.425781 66.097656 204.679688 C 67.007812 203.933594 67.949219 203.234375 68.929688 202.582031 C 69.90625 201.929688 70.914062 201.324219 71.949219 200.769531 C 72.988281 200.21875 74.050781 199.714844 75.136719 199.265625 C 76.222656 198.816406 77.328125 198.421875 78.453125 198.078125 C 79.582031 197.738281 80.71875 197.453125 81.875 197.222656 C 83.027344 196.996094 84.1875 196.820312 85.359375 196.707031 C 86.53125 196.59375 87.703125 196.535156 88.878906 196.535156 C 90.054688 196.535156 91.230469 196.59375 92.398438 196.707031 C 93.570312 196.820312 94.730469 196.996094 95.886719 197.222656 C 97.039062 197.453125 98.179688 197.738281 99.304688 198.078125 C 100.429688 198.421875 101.535156 198.816406 102.621094 199.265625 C 103.707031 199.714844 104.769531 200.21875 105.808594 200.769531 C 106.84375 201.324219 107.851562 201.929688 108.832031 202.582031 C 109.808594 203.234375 110.753906 203.933594 111.660156 204.679688 C 112.570312 205.425781 113.441406 206.210938 114.273438 207.042969 C 115.105469 207.875 115.894531 208.742188 116.640625 209.652344 C 117.386719 210.558594 118.085938 211.503906 118.738281 212.480469 C 119.390625 213.457031 119.996094 214.464844 120.550781 215.5 C 121.105469 216.535156 121.605469 217.597656 122.058594 218.683594 C 122.507812 219.769531 122.902344 220.875 123.246094 222 C 123.585938 223.125 123.871094 224.261719 124.101562 225.414062 C 124.328125 226.566406 124.503906 227.726562 124.617188 228.898438 C 124.734375 230.066406 124.789062 231.238281 124.789062 232.414062 Z M 124.789062 232.414062 " fill-opacity="1" fill-rule="nonzero"/></g><path fill="rgb(59.999084%, 66.668701%, 70.979309%)" d="M 106.835938 232.414062 C 106.835938 233 106.804688 233.589844 106.75 234.171875 C 106.691406 234.757812 106.605469 235.335938 106.488281 235.914062 C 106.375 236.492188 106.234375 237.058594 106.0625 237.621094 C 105.890625 238.183594 105.691406 238.738281 105.46875 239.28125 C 105.242188 239.824219 104.992188 240.351562 104.714844 240.871094 C 104.4375 241.390625 104.136719 241.890625 103.808594 242.382812 C 103.480469 242.871094 103.132812 243.339844 102.757812 243.796875 C 102.386719 244.25 101.992188 244.683594 101.574219 245.101562 C 101.160156 245.515625 100.726562 245.910156 100.269531 246.28125 C 99.816406 246.65625 99.34375 247.003906 98.855469 247.332031 C 98.367188 247.65625 97.863281 247.957031 97.34375 248.234375 C 96.824219 248.511719 96.292969 248.765625 95.75 248.988281 C 95.207031 249.214844 94.652344 249.410156 94.089844 249.582031 C 93.527344 249.753906 92.960938 249.894531 92.382812 250.007812 C 91.804688 250.125 91.222656 250.210938 90.640625 250.269531 C 90.054688 250.324219 89.46875 250.355469 88.878906 250.355469 C 88.292969 250.355469 87.703125 250.324219 87.121094 250.269531 C 86.535156 250.210938 85.953125 250.125 85.375 250.007812 C 84.800781 249.894531 84.230469 249.753906 83.667969 249.582031 C 83.105469 249.410156 82.550781 249.214844 82.007812 248.988281 C 81.464844 248.765625 80.933594 248.511719 80.414062 248.234375 C 79.894531 247.957031 79.394531 247.65625 78.902344 247.332031 C 78.414062 247.003906 77.941406 246.65625 77.488281 246.28125 C 77.035156 245.910156 76.597656 245.515625 76.183594 245.101562 C 75.765625 244.683594 75.371094 244.25 75 243.796875 C 74.625 243.339844 74.277344 242.871094 73.949219 242.382812 C 73.625 241.890625 73.320312 241.390625 73.042969 240.871094 C 72.765625 240.351562 72.515625 239.824219 72.289062 239.28125 C 72.066406 238.738281 71.867188 238.183594 71.695312 237.621094 C 71.527344 237.058594 71.382812 236.492188 71.269531 235.914062 C 71.152344 235.335938 71.066406 234.757812 71.011719 234.171875 C 70.953125 233.589844 70.921875 233 70.921875 232.414062 C 70.921875 231.828125 70.953125 231.242188 71.011719 230.65625 C 71.066406 230.070312 71.152344 229.492188 71.269531 228.914062 C 71.382812 228.339844 71.527344 227.769531 71.695312 227.207031 C 71.867188 226.644531 72.066406 226.089844 72.289062 225.546875 C 72.515625 225.007812 72.765625 224.476562 73.042969 223.957031 C 73.320312 223.4375 73.625 222.9375 73.949219 222.445312 C 74.277344 221.957031 74.625 221.488281 75 221.03125 C 75.371094 220.578125 75.765625 220.144531 76.183594 219.730469 C 76.597656 219.3125 77.035156 218.917969 77.488281 218.546875 C 77.941406 218.171875 78.414062 217.824219 78.902344 217.496094 C 79.394531 217.171875 79.894531 216.871094 80.414062 216.59375 C 80.933594 216.316406 81.464844 216.066406 82.007812 215.839844 C 82.550781 215.613281 83.105469 215.417969 83.667969 215.246094 C 84.230469 215.074219 84.800781 214.933594 85.375 214.820312 C 85.953125 214.703125 86.535156 214.617188 87.121094 214.5625 C 87.703125 214.503906 88.292969 214.472656 88.878906 214.472656 C 89.46875 214.472656 90.054688 214.503906 90.640625 214.5625 C 91.222656 214.617188 91.804688 214.703125 92.382812 214.820312 C 92.960938 214.933594 93.527344 215.074219 94.089844 215.246094 C 94.652344 215.417969 95.207031 215.613281 95.75 215.839844 C 96.292969 216.066406 96.824219 216.316406 97.34375 216.59375 C 97.863281 216.871094 98.367188 217.171875 98.855469 217.496094 C 99.34375 217.824219 99.816406 218.171875 100.269531 218.546875 C 100.726562 218.917969 101.160156 219.3125 101.574219 219.730469 C 101.992188 220.144531 102.386719 220.578125 102.757812 221.03125 C 103.132812 221.488281 103.480469 221.957031 103.808594 222.445312 C 104.136719 222.9375 104.4375 223.4375 104.714844 223.957031 C 104.992188 224.476562 105.242188 225.007812 105.46875 225.546875 C 105.691406 226.089844 105.890625 226.644531 106.0625 227.207031 C 106.234375 227.769531 106.375 228.339844 106.488281 228.914062 C 106.605469 229.492188 106.691406 230.070312 106.75 230.65625 C 106.804688 231.242188 106.835938 231.828125 106.835938 232.414062 Z M 106.835938 232.414062 " fill-opacity="1" fill-rule="nonzero"/><g clip-path="url(#id5)"><path fill="rgb(0%, 0%, 0%)" d="M 322.300781 232.414062 C 322.300781 233.589844 322.246094 234.761719 322.128906 235.929688 C 322.015625 237.101562 321.839844 238.261719 321.613281 239.414062 C 321.382812 240.566406 321.097656 241.707031 320.753906 242.828125 C 320.414062 243.953125 320.019531 245.058594 319.566406 246.144531 C 319.117188 247.230469 318.617188 248.292969 318.0625 249.328125 C 317.507812 250.363281 316.902344 251.371094 316.25 252.347656 C 315.597656 253.324219 314.898438 254.269531 314.152344 255.175781 C 313.40625 256.085938 312.617188 256.953125 311.785156 257.785156 C 310.953125 258.617188 310.082031 259.40625 309.171875 260.148438 C 308.261719 260.894531 307.320312 261.59375 306.34375 262.246094 C 305.363281 262.898438 304.355469 263.503906 303.320312 264.058594 C 302.28125 264.613281 301.21875 265.113281 300.132812 265.5625 C 299.046875 266.011719 297.941406 266.40625 296.816406 266.75 C 295.691406 267.089844 294.550781 267.375 293.398438 267.605469 C 292.242188 267.835938 291.082031 268.007812 289.910156 268.121094 C 288.742188 268.238281 287.566406 268.292969 286.390625 268.292969 C 285.214844 268.292969 284.042969 268.238281 282.871094 268.121094 C 281.699219 268.007812 280.539062 267.835938 279.386719 267.605469 C 278.230469 267.375 277.089844 267.089844 275.964844 266.75 C 274.839844 266.40625 273.734375 266.011719 272.648438 265.5625 C 271.5625 265.113281 270.5 264.613281 269.460938 264.058594 C 268.425781 263.503906 267.417969 262.898438 266.441406 262.246094 C 265.460938 261.59375 264.519531 260.894531 263.609375 260.148438 C 262.699219 259.40625 261.828125 258.617188 260.996094 257.785156 C 260.167969 256.953125 259.378906 256.085938 258.632812 255.175781 C 257.886719 254.269531 257.183594 253.324219 256.53125 252.347656 C 255.878906 251.371094 255.273438 250.363281 254.71875 249.328125 C 254.164062 248.292969 253.664062 247.230469 253.214844 246.144531 C 252.761719 245.058594 252.367188 243.953125 252.027344 242.828125 C 251.683594 241.707031 251.398438 240.566406 251.167969 239.414062 C 250.941406 238.261719 250.769531 237.101562 250.652344 235.929688 C 250.539062 234.761719 250.480469 233.589844 250.480469 232.414062 C 250.480469 231.238281 250.539062 230.066406 250.652344 228.898438 C 250.769531 227.726562 250.941406 226.566406 251.167969 225.414062 C 251.398438 224.261719 251.683594 223.125 252.027344 222 C 252.367188 220.875 252.761719 219.769531 253.214844 218.683594 C 253.664062 217.597656 254.164062 216.535156 254.71875 215.5 C 255.273438 214.464844 255.878906 213.457031 256.53125 212.480469 C 257.183594 211.503906 257.886719 210.558594 258.632812 209.652344 C 259.378906 208.742188 260.167969 207.875 260.996094 207.042969 C 261.828125 206.210938 262.699219 205.425781 263.609375 204.679688 C 264.519531 203.933594 265.460938 203.234375 266.441406 202.582031 C 267.417969 201.929688 268.425781 201.324219 269.460938 200.769531 C 270.5 200.21875 271.5625 199.714844 272.648438 199.265625 C 273.734375 198.816406 274.839844 198.421875 275.964844 198.078125 C 277.089844 197.738281 278.230469 197.453125 279.386719 197.222656 C 280.539062 196.996094 281.699219 196.820312 282.871094 196.707031 C 284.042969 196.59375 285.214844 196.535156 286.390625 196.535156 C 287.566406 196.535156 288.742188 196.59375 289.910156 196.707031 C 291.082031 196.820312 292.242188 196.996094 293.398438 197.222656 C 294.550781 197.453125 295.691406 197.738281 296.816406 198.078125 C 297.941406 198.421875 299.046875 198.816406 300.132812 199.265625 C 301.21875 199.714844 302.28125 200.21875 303.320312 200.769531 C 304.355469 201.324219 305.363281 201.929688 306.34375 202.582031 C 307.320312 203.234375 308.261719 203.933594 309.171875 204.679688 C 310.082031 205.425781 310.953125 206.210938 311.785156 207.042969 C 312.617188 207.875 313.40625 208.742188 314.152344 209.652344 C 314.898438 210.558594 315.597656 211.503906 316.25 212.480469 C 316.902344 213.457031 317.507812 214.464844 318.0625 215.5 C 318.617188 216.535156 319.117188 217.597656 319.566406 218.683594 C 320.019531 219.769531 320.414062 220.875 320.753906 222 C 321.097656 223.125 321.382812 224.261719 321.613281 225.414062 C 321.839844 226.566406 322.015625 227.726562 322.128906 228.898438 C 322.246094 230.066406 322.300781 231.238281 322.300781 232.414062 Z M 322.300781 232.414062 " fill-opacity="1" fill-rule="nonzero"/></g><path fill="rgb(59.999084%, 66.668701%, 70.979309%)" d="M 304.347656 232.414062 C 304.347656 233 304.316406 233.589844 304.261719 234.171875 C 304.203125 234.757812 304.117188 235.335938 304 235.914062 C 303.886719 236.492188 303.742188 237.058594 303.574219 237.621094 C 303.402344 238.183594 303.203125 238.738281 302.980469 239.28125 C 302.753906 239.824219 302.503906 240.351562 302.226562 240.871094 C 301.949219 241.390625 301.648438 241.890625 301.320312 242.382812 C 300.992188 242.871094 300.644531 243.339844 300.269531 243.796875 C 299.898438 244.25 299.503906 244.683594 299.085938 245.101562 C 298.671875 245.515625 298.234375 245.910156 297.78125 246.28125 C 297.328125 246.65625 296.855469 247.003906 296.367188 247.332031 C 295.878906 247.65625 295.375 247.957031 294.855469 248.234375 C 294.335938 248.511719 293.804688 248.765625 293.261719 248.988281 C 292.71875 249.214844 292.164062 249.410156 291.601562 249.582031 C 291.039062 249.753906 290.46875 249.894531 289.894531 250.007812 C 289.316406 250.125 288.734375 250.210938 288.152344 250.269531 C 287.566406 250.324219 286.980469 250.355469 286.390625 250.355469 C 285.800781 250.355469 285.214844 250.324219 284.628906 250.269531 C 284.046875 250.210938 283.464844 250.125 282.886719 250.007812 C 282.3125 249.894531 281.742188 249.753906 281.179688 249.582031 C 280.617188 249.410156 280.0625 249.214844 279.519531 248.988281 C 278.976562 248.765625 278.445312 248.511719 277.925781 248.234375 C 277.40625 247.957031 276.902344 247.65625 276.414062 247.332031 C 275.925781 247.003906 275.453125 246.65625 275 246.28125 C 274.546875 245.910156 274.109375 245.515625 273.695312 245.101562 C 273.277344 244.683594 272.882812 244.25 272.511719 243.796875 C 272.136719 243.339844 271.789062 242.871094 271.460938 242.382812 C 271.132812 241.890625 270.832031 241.390625 270.554688 240.871094 C 270.277344 240.351562 270.027344 239.824219 269.800781 239.28125 C 269.578125 238.738281 269.378906 238.183594 269.207031 237.621094 C 269.039062 237.058594 268.894531 236.492188 268.78125 235.914062 C 268.664062 235.335938 268.578125 234.757812 268.523438 234.171875 C 268.464844 233.589844 268.433594 233 268.433594 232.414062 C 268.433594 231.828125 268.464844 231.242188 268.523438 230.65625 C 268.578125 230.070312 268.664062 229.492188 268.78125 228.914062 C 268.894531 228.339844 269.039062 227.769531 269.207031 227.207031 C 269.378906 226.644531 269.578125 226.089844 269.800781 225.546875 C 270.027344 225.007812 270.277344 224.476562 270.554688 223.957031 C 270.832031 223.4375 271.132812 222.9375 271.460938 222.445312 C 271.789062 221.957031 272.136719 221.488281 272.511719 221.03125 C 272.882812 220.578125 273.277344 220.144531 273.695312 219.730469 C 274.109375 219.3125 274.546875 218.917969 275 218.546875 C 275.453125 218.171875 275.925781 217.824219 276.414062 217.496094 C 276.902344 217.171875 277.40625 216.871094 277.925781 216.59375 C 278.445312 216.316406 278.976562 216.066406 279.519531 215.839844 C 280.0625 215.613281 280.617188 215.417969 281.179688 215.246094 C 281.742188 215.074219 282.3125 214.933594 282.886719 214.820312 C 283.464844 214.703125 284.046875 214.617188 284.628906 214.5625 C 285.214844 214.503906 285.800781 214.472656 286.390625 214.472656 C 286.980469 214.472656 287.566406 214.503906 288.152344 214.5625 C 288.734375 214.617188 289.316406 214.703125 289.894531 214.820312 C 290.46875 214.933594 291.039062 215.074219 291.601562 215.246094 C 292.164062 215.417969 292.71875 215.613281 293.261719 215.839844 C 293.804688 216.066406 294.335938 216.316406 294.855469 216.59375 C 295.375 216.871094 295.878906 217.171875 296.367188 217.496094 C 296.855469 217.824219 297.328125 218.171875 297.78125 218.546875 C 298.234375 218.917969 298.671875 219.3125 299.085938 219.730469 C 299.503906 220.144531 299.898438 220.578125 300.269531 221.03125 C 300.644531 221.488281 300.992188 221.957031 301.320312 222.445312 C 301.648438 222.9375 301.949219 223.4375 302.226562 223.957031 C 302.503906 224.476562 302.753906 225.007812 302.980469 225.546875 C 303.203125 226.089844 303.402344 226.644531 303.574219 227.207031 C 303.742188 227.769531 303.886719 228.339844 304 228.914062 C 304.117188 229.492188 304.203125 230.070312 304.261719 230.65625 C 304.316406 231.242188 304.347656 231.828125 304.347656 232.414062 Z M 304.347656 232.414062 " fill-opacity="1" fill-rule="nonzero"/><g clip-path="url(#id6)"><path fill="rgb(95.689392%, 56.469727%, 4.708862%)" d="M 26.035156 178.59375 L 35.011719 178.59375 L 35.011719 196.535156 L 26.035156 196.535156 Z M 340.257812 160.652344 L 349.234375 160.652344 L 349.234375 178.59375 L 340.257812 178.59375 Z M 340.257812 160.652344 " fill-opacity="1" fill-rule="nonzero"/></g><g clip-path="url(#id7)"><path fill="rgb(34.509277%, 34.899902%, 35.688782%)" d="M 35.011719 70.953125 L 349.234375 70.953125 L 349.234375 160.652344 L 35.011719 160.652344 Z M 35.011719 70.953125 " fill-opacity="1" fill-rule="nonzero"/></g><path fill="rgb(16.079712%, 18.429565%, 19.999695%)" d="M 43.992188 70.953125 L 29.105469 70.953125 C 27.023438 74.039062 26.035156 77.097656 26.035156 79.925781 L 26.035156 178.59375 L 43.992188 178.59375 C 53.902344 178.59375 61.945312 170.558594 61.945312 160.652344 L 61.945312 88.894531 C 61.945312 78.992188 53.902344 70.953125 43.992188 70.953125 Z M 43.992188 70.953125 " fill-opacity="1" fill-rule="nonzero"/><path fill="rgb(33.329773%, 67.449951%, 93.328857%)" d="M 304.347656 133.746094 C 304.347656 138.703125 300.332031 142.714844 295.367188 142.714844 L 88.878906 142.714844 C 83.921875 142.714844 79.902344 138.703125 79.902344 133.746094 L 79.902344 97.863281 C 79.902344 92.914062 83.921875 88.894531 88.878906 88.894531 L 295.367188 88.894531 C 300.332031 88.894531 304.347656 92.914062 304.347656 97.863281 Z M 304.347656 133.746094 " fill-opacity="1" fill-rule="nonzero"/><g clip-path="url(#id8)"><path fill="rgb(100%, 67.449951%, 19.999695%)" d="M 340.257812 124.773438 L 349.234375 124.773438 L 349.234375 142.714844 L 340.257812 142.714844 Z M 340.257812 124.773438 " fill-opacity="1" fill-rule="nonzero"/></g><path fill="rgb(33.329773%, 67.449951%, 93.328857%)" d="M 35.011719 88.894531 L 26.035156 88.894531 L 26.035156 160.652344 L 35.011719 160.652344 C 39.96875 160.652344 43.992188 156.644531 43.992188 151.683594 L 43.992188 97.863281 C 43.992188 92.914062 39.96875 88.894531 35.011719 88.894531 Z M 35.011719 88.894531 " fill-opacity="1" fill-rule="nonzero"/></svg>