<svg xmlns="http://www.w3.org/2000/svg" xmlns:xlink="http://www.w3.org/1999/xlink" width="500" zoomAndPan="magnify" viewBox="0 0 375 374.999991" height="500" preserveAspectRatio="xMidYMid meet" version="1.0"><defs><clipPath id="id1"><path d="M 9.304688 67 L 365.554688 67 L 365.554688 246 L 9.304688 246 Z M 9.304688 67 " clip-rule="nonzero"/></clipPath><clipPath id="id2"><path d="M 9.304688 176 L 365.554688 176 L 365.554688 246 L 9.304688 246 Z M 9.304688 176 " clip-rule="nonzero"/></clipPath><clipPath id="id3"><path d="M 68 196 L 148 196 L 148 275.164062 L 68 275.164062 Z M 68 196 " clip-rule="nonzero"/></clipPath><clipPath id="id4"><path d="M 236 196 L 316 196 L 316 275.164062 L 236 275.164062 Z M 236 196 " clip-rule="nonzero"/></clipPath><clipPath id="id5"><path d="M 167 47.914062 L 218 47.914062 L 218 68 L 167 68 Z M 167 47.914062 " clip-rule="nonzero"/></clipPath><clipPath id="id6"><path d="M 118 47.914062 L 307 47.914062 L 307 137 L 118 137 Z M 118 47.914062 " clip-rule="nonzero"/></clipPath></defs><rect x="-37.5" width="450" fill="rgb(27.449036%, 29.019165%, 31.759644%)" y="-37.499999" height="449.999989" fill-opacity="1"/><rect x="-37.5" width="450" fill="rgb(100%, 100%, 100%)" y="-37.499999" height="449.999989" fill-opacity="1"/><rect x="-37.5" width="450" fill="rgb(27.449036%, 29.019165%, 31.759644%)" y="-37.499999" height="449.999989" fill-opacity="1"/><g clip-path="url(#id1)"><path fill="rgb(88.238525%, 90.979004%, 92.939758%)" d="M 325.820312 146.71875 C 325.820312 146.71875 306.050781 67.675781 276.394531 67.675781 L 167.660156 67.675781 C 138.003906 67.675781 98.464844 136.839844 98.464844 136.839844 C 98.464844 136.839844 19.386719 146.71875 19.386719 186.242188 L 19.386719 206 C 19.386719 206.890625 19.59375 207.730469 19.640625 208.601562 C 13.621094 211.980469 9.5 218.363281 9.5 225.761719 C 9.5 236.671875 18.355469 245.523438 29.269531 245.523438 L 325.820312 245.523438 C 347.65625 245.523438 365.359375 227.828125 365.359375 206 L 365.359375 186.242188 C 365.359375 164.414062 347.65625 146.71875 325.820312 146.71875 Z M 325.820312 146.71875 " fill-opacity="1" fill-rule="nonzero"/></g><g clip-path="url(#id2)"><path fill="rgb(16.079712%, 18.429565%, 19.999695%)" d="M 19.386719 186.242188 L 19.386719 206 C 19.386719 206.890625 19.59375 207.730469 19.640625 208.601562 C 13.621094 211.980469 9.5 218.363281 9.5 225.761719 C 9.5 236.671875 18.355469 245.523438 29.269531 245.523438 L 325.820312 245.523438 C 347.65625 245.523438 365.359375 227.828125 365.359375 206 L 365.359375 186.242188 C 365.359375 182.800781 364.777344 179.53125 363.957031 176.359375 L 21.371094 176.359375 C 20.214844 179.441406 19.386719 182.691406 19.386719 186.242188 Z M 19.386719 186.242188 " fill-opacity="1" fill-rule="nonzero"/></g><path fill="rgb(39.99939%, 45.878601%, 49.798584%)" d="M 166.769531 245.523438 C 167.316406 242.300781 167.660156 239.023438 167.660156 235.640625 C 167.660156 202.910156 141.109375 176.359375 108.351562 176.359375 C 75.601562 176.359375 49.039062 202.910156 49.039062 235.640625 C 49.039062 239.023438 49.386719 242.300781 49.929688 245.523438 Z M 334.816406 245.523438 C 335.359375 242.300781 335.707031 239.023438 335.707031 235.640625 C 335.707031 202.910156 309.144531 176.359375 276.394531 176.359375 C 243.648438 176.359375 217.085938 202.910156 217.085938 235.640625 C 217.085938 239.023438 217.429688 242.300781 217.976562 245.523438 Z M 334.816406 245.523438 " fill-opacity="1" fill-rule="nonzero"/><g clip-path="url(#id3)"><path fill="rgb(16.079712%, 18.429565%, 19.999695%)" d="M 147.890625 235.640625 C 147.890625 236.9375 147.828125 238.226562 147.699219 239.515625 C 147.574219 240.804688 147.382812 242.082031 147.128906 243.351562 C 146.878906 244.621094 146.5625 245.875 146.1875 247.113281 C 145.8125 248.355469 145.375 249.570312 144.878906 250.765625 C 144.386719 251.960938 143.832031 253.132812 143.222656 254.273438 C 142.609375 255.414062 141.945312 256.523438 141.226562 257.597656 C 140.507812 258.675781 139.738281 259.714844 138.914062 260.714844 C 138.09375 261.714844 137.226562 262.671875 136.308594 263.589844 C 135.394531 264.503906 134.433594 265.371094 133.433594 266.191406 C 132.433594 267.015625 131.394531 267.785156 130.316406 268.503906 C 129.242188 269.222656 128.132812 269.886719 126.988281 270.496094 C 125.847656 271.109375 124.679688 271.660156 123.480469 272.15625 C 122.285156 272.652344 121.066406 273.085938 119.828125 273.460938 C 118.589844 273.839844 117.335938 274.152344 116.0625 274.40625 C 114.792969 274.65625 113.515625 274.847656 112.226562 274.972656 C 110.9375 275.101562 109.644531 275.164062 108.351562 275.164062 C 107.054688 275.164062 105.761719 275.101562 104.476562 274.972656 C 103.1875 274.847656 101.90625 274.65625 100.636719 274.40625 C 99.367188 274.152344 98.113281 273.839844 96.871094 273.460938 C 95.632812 273.085938 94.414062 272.652344 93.21875 272.15625 C 92.023438 271.660156 90.851562 271.109375 89.710938 270.496094 C 88.570312 269.886719 87.460938 269.222656 86.382812 268.503906 C 85.304688 267.785156 84.265625 267.015625 83.265625 266.191406 C 82.265625 265.371094 81.308594 264.503906 80.390625 263.589844 C 79.476562 262.671875 78.605469 261.714844 77.785156 260.714844 C 76.964844 259.714844 76.195312 258.675781 75.472656 257.597656 C 74.753906 256.523438 74.089844 255.414062 73.480469 254.273438 C 72.867188 253.132812 72.316406 251.960938 71.820312 250.765625 C 71.324219 249.570312 70.890625 248.355469 70.511719 247.113281 C 70.136719 245.875 69.824219 244.621094 69.570312 243.351562 C 69.316406 242.082031 69.128906 240.804688 69 239.515625 C 68.875 238.226562 68.808594 236.9375 68.808594 235.640625 C 68.808594 234.347656 68.875 233.058594 69 231.769531 C 69.128906 230.480469 69.316406 229.203125 69.570312 227.933594 C 69.824219 226.664062 70.136719 225.410156 70.511719 224.167969 C 70.890625 222.929688 71.324219 221.714844 71.820312 220.519531 C 72.316406 219.324219 72.867188 218.152344 73.480469 217.011719 C 74.089844 215.871094 74.753906 214.761719 75.472656 213.683594 C 76.195312 212.609375 76.964844 211.570312 77.785156 210.570312 C 78.605469 209.570312 79.476562 208.613281 80.390625 207.695312 C 81.308594 206.78125 82.265625 205.914062 83.265625 205.089844 C 84.265625 204.269531 85.304688 203.5 86.382812 202.78125 C 87.460938 202.0625 88.570312 201.398438 89.710938 200.789062 C 90.851562 200.175781 92.023438 199.625 93.21875 199.128906 C 94.414062 198.632812 95.632812 198.199219 96.871094 197.824219 C 98.113281 197.445312 99.367188 197.132812 100.636719 196.878906 C 101.90625 196.628906 103.1875 196.4375 104.476562 196.3125 C 105.761719 196.183594 107.054688 196.121094 108.351562 196.121094 C 109.644531 196.121094 110.9375 196.183594 112.226562 196.3125 C 113.515625 196.4375 114.792969 196.628906 116.0625 196.878906 C 117.335938 197.132812 118.589844 197.445312 119.828125 197.824219 C 121.066406 198.199219 122.285156 198.632812 123.480469 199.128906 C 124.679688 199.625 125.847656 200.175781 126.988281 200.789062 C 128.132812 201.398438 129.242188 202.0625 130.316406 202.78125 C 131.394531 203.5 132.433594 204.269531 133.433594 205.089844 C 134.433594 205.914062 135.394531 206.78125 136.308594 207.695312 C 137.226562 208.613281 138.09375 209.570312 138.914062 210.570312 C 139.738281 211.570312 140.507812 212.609375 141.226562 213.683594 C 141.945312 214.761719 142.609375 215.871094 143.222656 217.011719 C 143.832031 218.152344 144.386719 219.324219 144.878906 220.519531 C 145.375 221.714844 145.8125 222.929688 146.1875 224.167969 C 146.5625 225.410156 146.878906 226.664062 147.128906 227.933594 C 147.382812 229.203125 147.574219 230.480469 147.699219 231.769531 C 147.828125 233.058594 147.890625 234.347656 147.890625 235.640625 Z M 147.890625 235.640625 " fill-opacity="1" fill-rule="nonzero"/></g><path fill="rgb(88.238525%, 90.979004%, 92.939758%)" d="M 128.121094 235.640625 C 128.121094 236.289062 128.089844 236.933594 128.023438 237.578125 C 127.960938 238.222656 127.867188 238.863281 127.742188 239.496094 C 127.613281 240.132812 127.457031 240.757812 127.269531 241.378906 C 127.082031 242 126.863281 242.605469 126.617188 243.203125 C 126.367188 243.800781 126.089844 244.386719 125.785156 244.957031 C 125.480469 245.527344 125.148438 246.082031 124.789062 246.621094 C 124.429688 247.160156 124.042969 247.679688 123.632812 248.179688 C 123.222656 248.679688 122.789062 249.15625 122.328125 249.617188 C 121.871094 250.074219 121.394531 250.507812 120.890625 250.917969 C 120.390625 251.328125 119.871094 251.714844 119.335938 252.074219 C 118.796875 252.433594 118.242188 252.765625 117.671875 253.070312 C 117.097656 253.375 116.515625 253.652344 115.917969 253.898438 C 115.316406 254.148438 114.707031 254.363281 114.089844 254.550781 C 113.46875 254.742188 112.84375 254.898438 112.207031 255.023438 C 111.574219 255.148438 110.933594 255.246094 110.289062 255.308594 C 109.644531 255.371094 108.996094 255.402344 108.351562 255.402344 C 107.703125 255.402344 107.058594 255.371094 106.414062 255.308594 C 105.769531 255.246094 105.128906 255.148438 104.492188 255.023438 C 103.859375 254.898438 103.230469 254.742188 102.613281 254.550781 C 101.992188 254.363281 101.382812 254.148438 100.785156 253.898438 C 100.1875 253.652344 99.601562 253.375 99.03125 253.070312 C 98.460938 252.765625 97.90625 252.433594 97.367188 252.074219 C 96.828125 251.714844 96.308594 251.328125 95.808594 250.917969 C 95.308594 250.507812 94.828125 250.074219 94.371094 249.617188 C 93.914062 249.15625 93.480469 248.679688 93.066406 248.179688 C 92.65625 247.679688 92.273438 247.160156 91.914062 246.621094 C 91.550781 246.082031 91.21875 245.527344 90.914062 244.957031 C 90.609375 244.386719 90.332031 243.800781 90.085938 243.203125 C 89.835938 242.605469 89.621094 242 89.433594 241.378906 C 89.242188 240.757812 89.085938 240.132812 88.960938 239.496094 C 88.832031 238.863281 88.738281 238.222656 88.675781 237.578125 C 88.613281 236.933594 88.582031 236.289062 88.582031 235.640625 C 88.582031 234.996094 88.613281 234.351562 88.675781 233.707031 C 88.738281 233.0625 88.832031 232.421875 88.960938 231.789062 C 89.085938 231.152344 89.242188 230.527344 89.433594 229.90625 C 89.621094 229.285156 89.835938 228.679688 90.085938 228.082031 C 90.332031 227.480469 90.609375 226.898438 90.914062 226.328125 C 91.21875 225.757812 91.550781 225.203125 91.914062 224.664062 C 92.273438 224.125 92.65625 223.605469 93.066406 223.105469 C 93.480469 222.605469 93.914062 222.128906 94.371094 221.667969 C 94.828125 221.210938 95.308594 220.777344 95.808594 220.367188 C 96.308594 219.957031 96.828125 219.570312 97.367188 219.210938 C 97.90625 218.851562 98.460938 218.519531 99.03125 218.214844 C 99.601562 217.910156 100.1875 217.632812 100.785156 217.386719 C 101.382812 217.136719 101.992188 216.921875 102.613281 216.734375 C 103.230469 216.542969 103.859375 216.386719 104.492188 216.261719 C 105.128906 216.136719 105.769531 216.039062 106.414062 215.976562 C 107.058594 215.914062 107.703125 215.882812 108.351562 215.882812 C 108.996094 215.882812 109.644531 215.914062 110.289062 215.976562 C 110.933594 216.039062 111.574219 216.136719 112.207031 216.261719 C 112.84375 216.386719 113.46875 216.542969 114.089844 216.734375 C 114.707031 216.921875 115.316406 217.136719 115.917969 217.386719 C 116.515625 217.632812 117.097656 217.910156 117.671875 218.214844 C 118.242188 218.519531 118.796875 218.851562 119.335938 219.210938 C 119.871094 219.570312 120.390625 219.957031 120.890625 220.367188 C 121.394531 220.777344 121.871094 221.210938 122.328125 221.667969 C 122.789062 222.128906 123.222656 222.605469 123.632812 223.105469 C 124.042969 223.605469 124.429688 224.125 124.789062 224.664062 C 125.148438 225.203125 125.480469 225.757812 125.785156 226.328125 C 126.089844 226.898438 126.367188 227.480469 126.617188 228.082031 C 126.863281 228.679688 127.082031 229.285156 127.269531 229.90625 C 127.457031 230.527344 127.613281 231.152344 127.742188 231.789062 C 127.867188 232.421875 127.960938 233.0625 128.023438 233.707031 C 128.089844 234.351562 128.121094 234.996094 128.121094 235.640625 Z M 128.121094 235.640625 " fill-opacity="1" fill-rule="nonzero"/><g clip-path="url(#id4)"><path fill="rgb(16.079712%, 18.429565%, 19.999695%)" d="M 315.9375 235.640625 C 315.9375 236.9375 315.871094 238.226562 315.746094 239.515625 C 315.617188 240.804688 315.429688 242.082031 315.175781 243.351562 C 314.921875 244.621094 314.609375 245.875 314.234375 247.113281 C 313.855469 248.355469 313.421875 249.570312 312.925781 250.765625 C 312.429688 251.960938 311.878906 253.132812 311.265625 254.273438 C 310.65625 255.414062 309.992188 256.523438 309.273438 257.597656 C 308.550781 258.675781 307.78125 259.714844 306.960938 260.714844 C 306.140625 261.714844 305.269531 262.671875 304.355469 263.589844 C 303.4375 264.503906 302.480469 265.371094 301.480469 266.191406 C 300.476562 267.015625 299.441406 267.785156 298.363281 268.503906 C 297.285156 269.222656 296.175781 269.886719 295.035156 270.496094 C 293.890625 271.109375 292.722656 271.660156 291.527344 272.15625 C 290.332031 272.652344 289.113281 273.085938 287.875 273.460938 C 286.632812 273.839844 285.378906 274.152344 284.109375 274.40625 C 282.839844 274.65625 281.558594 274.847656 280.269531 274.972656 C 278.984375 275.101562 277.691406 275.164062 276.394531 275.164062 C 275.101562 275.164062 273.808594 275.101562 272.519531 274.972656 C 271.230469 274.847656 269.953125 274.65625 268.683594 274.40625 C 267.410156 274.152344 266.15625 273.839844 264.917969 273.460938 C 263.679688 273.085938 262.460938 272.652344 261.265625 272.15625 C 260.066406 271.660156 258.898438 271.109375 257.757812 270.496094 C 256.613281 269.886719 255.503906 269.222656 254.429688 268.503906 C 253.351562 267.785156 252.3125 267.015625 251.3125 266.191406 C 250.3125 265.371094 249.351562 264.503906 248.4375 263.589844 C 247.519531 262.671875 246.652344 261.714844 245.832031 260.714844 C 245.007812 259.714844 244.238281 258.675781 243.519531 257.597656 C 242.800781 256.523438 242.136719 255.414062 241.523438 254.273438 C 240.914062 253.132812 240.359375 251.960938 239.867188 250.765625 C 239.371094 249.570312 238.933594 248.355469 238.558594 247.113281 C 238.183594 245.875 237.867188 244.621094 237.617188 243.351562 C 237.363281 242.082031 237.171875 240.804688 237.046875 239.515625 C 236.917969 238.226562 236.855469 236.9375 236.855469 235.640625 C 236.855469 234.347656 236.917969 233.058594 237.046875 231.769531 C 237.171875 230.480469 237.363281 229.203125 237.617188 227.933594 C 237.867188 226.664062 238.183594 225.410156 238.558594 224.167969 C 238.933594 222.929688 239.371094 221.714844 239.867188 220.519531 C 240.359375 219.324219 240.914062 218.152344 241.523438 217.011719 C 242.136719 215.871094 242.800781 214.761719 243.519531 213.683594 C 244.238281 212.609375 245.007812 211.570312 245.832031 210.570312 C 246.652344 209.570312 247.519531 208.613281 248.4375 207.695312 C 249.351562 206.78125 250.3125 205.914062 251.3125 205.089844 C 252.3125 204.269531 253.351562 203.5 254.429688 202.78125 C 255.503906 202.0625 256.613281 201.398438 257.757812 200.789062 C 258.898438 200.175781 260.066406 199.625 261.265625 199.128906 C 262.460938 198.632812 263.679688 198.199219 264.917969 197.824219 C 266.15625 197.445312 267.410156 197.132812 268.683594 196.878906 C 269.953125 196.628906 271.230469 196.4375 272.519531 196.3125 C 273.808594 196.183594 275.101562 196.121094 276.394531 196.121094 C 277.691406 196.121094 278.984375 196.183594 280.269531 196.3125 C 281.558594 196.4375 282.839844 196.628906 284.109375 196.878906 C 285.378906 197.132812 286.632812 197.445312 287.875 197.824219 C 289.113281 198.199219 290.332031 198.632812 291.527344 199.128906 C 292.722656 199.625 293.890625 200.175781 295.035156 200.789062 C 296.175781 201.398438 297.285156 202.0625 298.363281 202.78125 C 299.441406 203.5 300.476562 204.269531 301.480469 205.089844 C 302.480469 205.914062 303.4375 206.78125 304.355469 207.695312 C 305.269531 208.613281 306.140625 209.570312 306.960938 210.570312 C 307.78125 211.570312 308.550781 212.609375 309.273438 213.683594 C 309.992188 214.761719 310.65625 215.871094 311.265625 217.011719 C 311.878906 218.152344 312.429688 219.324219 312.925781 220.519531 C 313.421875 221.714844 313.855469 222.929688 314.234375 224.167969 C 314.609375 225.410156 314.921875 226.664062 315.175781 227.933594 C 315.429688 229.203125 315.617188 230.480469 315.746094 231.769531 C 315.871094 233.058594 315.9375 234.347656 315.9375 235.640625 Z M 315.9375 235.640625 " fill-opacity="1" fill-rule="nonzero"/></g><path fill="rgb(88.238525%, 90.979004%, 92.939758%)" d="M 296.164062 235.640625 C 296.164062 236.289062 296.132812 236.933594 296.070312 237.578125 C 296.007812 238.222656 295.910156 238.863281 295.785156 239.496094 C 295.660156 240.132812 295.503906 240.757812 295.3125 241.378906 C 295.125 242 294.910156 242.605469 294.660156 243.203125 C 294.414062 243.800781 294.136719 244.386719 293.832031 244.957031 C 293.527344 245.527344 293.195312 246.082031 292.832031 246.621094 C 292.472656 247.160156 292.089844 247.679688 291.679688 248.179688 C 291.265625 248.679688 290.832031 249.15625 290.375 249.617188 C 289.917969 250.074219 289.4375 250.507812 288.9375 250.917969 C 288.4375 251.328125 287.917969 251.714844 287.378906 252.074219 C 286.839844 252.433594 286.285156 252.765625 285.714844 253.070312 C 285.144531 253.375 284.558594 253.652344 283.960938 253.898438 C 283.363281 254.148438 282.753906 254.363281 282.132812 254.550781 C 281.515625 254.742188 280.886719 254.898438 280.253906 255.023438 C 279.617188 255.148438 278.976562 255.246094 278.332031 255.308594 C 277.6875 255.371094 277.042969 255.402344 276.394531 255.402344 C 275.75 255.402344 275.101562 255.371094 274.457031 255.308594 C 273.8125 255.246094 273.171875 255.148438 272.539062 255.023438 C 271.902344 254.898438 271.277344 254.742188 270.65625 254.550781 C 270.035156 254.363281 269.429688 254.148438 268.828125 253.898438 C 268.230469 253.652344 267.648438 253.375 267.074219 253.070312 C 266.503906 252.765625 265.949219 252.433594 265.410156 252.074219 C 264.875 251.714844 264.355469 251.328125 263.855469 250.917969 C 263.351562 250.507812 262.875 250.074219 262.417969 249.617188 C 261.957031 249.15625 261.523438 248.679688 261.113281 248.179688 C 260.703125 247.679688 260.316406 247.160156 259.957031 246.621094 C 259.597656 246.082031 259.265625 245.527344 258.960938 244.957031 C 258.65625 244.386719 258.378906 243.800781 258.128906 243.203125 C 257.882812 242.605469 257.664062 242 257.476562 241.378906 C 257.289062 240.757812 257.132812 240.132812 257.003906 239.496094 C 256.878906 238.863281 256.785156 238.222656 256.722656 237.578125 C 256.65625 236.933594 256.625 236.289062 256.625 235.640625 C 256.625 234.996094 256.65625 234.351562 256.722656 233.707031 C 256.785156 233.0625 256.878906 232.421875 257.003906 231.789062 C 257.132812 231.152344 257.289062 230.527344 257.476562 229.90625 C 257.664062 229.285156 257.882812 228.679688 258.128906 228.082031 C 258.378906 227.480469 258.65625 226.898438 258.960938 226.328125 C 259.265625 225.757812 259.597656 225.203125 259.957031 224.664062 C 260.316406 224.125 260.703125 223.605469 261.113281 223.105469 C 261.523438 222.605469 261.957031 222.128906 262.417969 221.667969 C 262.875 221.210938 263.351562 220.777344 263.855469 220.367188 C 264.355469 219.957031 264.875 219.570312 265.410156 219.210938 C 265.949219 218.851562 266.503906 218.519531 267.074219 218.214844 C 267.648438 217.910156 268.230469 217.632812 268.828125 217.386719 C 269.429688 217.136719 270.035156 216.921875 270.65625 216.734375 C 271.277344 216.542969 271.902344 216.386719 272.539062 216.261719 C 273.171875 216.136719 273.8125 216.039062 274.457031 215.976562 C 275.101562 215.914062 275.75 215.882812 276.394531 215.882812 C 277.042969 215.882812 277.6875 215.914062 278.332031 215.976562 C 278.976562 216.039062 279.617188 216.136719 280.253906 216.261719 C 280.886719 216.386719 281.515625 216.542969 282.132812 216.734375 C 282.753906 216.921875 283.363281 217.136719 283.960938 217.386719 C 284.558594 217.632812 285.144531 217.910156 285.714844 218.214844 C 286.285156 218.519531 286.839844 218.851562 287.378906 219.210938 C 287.917969 219.570312 288.4375 219.957031 288.9375 220.367188 C 289.4375 220.777344 289.917969 221.210938 290.375 221.667969 C 290.832031 222.128906 291.265625 222.605469 291.679688 223.105469 C 292.089844 223.605469 292.472656 224.125 292.832031 224.664062 C 293.195312 225.203125 293.527344 225.757812 293.832031 226.328125 C 294.136719 226.898438 294.414062 227.480469 294.660156 228.082031 C 294.910156 228.679688 295.125 229.285156 295.3125 229.90625 C 295.503906 230.527344 295.660156 231.152344 295.785156 231.789062 C 295.910156 232.421875 296.007812 233.0625 296.070312 233.707031 C 296.132812 234.351562 296.164062 234.996094 296.164062 235.640625 Z M 296.164062 235.640625 " fill-opacity="1" fill-rule="nonzero"/><g clip-path="url(#id5)"><path fill="rgb(86.669922%, 18.03894%, 26.669312%)" d="M 217.085938 57.792969 C 217.085938 63.25 212.667969 67.675781 207.199219 67.675781 L 177.546875 67.675781 C 172.089844 67.675781 167.660156 63.25 167.660156 57.792969 C 167.660156 52.339844 172.089844 47.914062 177.546875 47.914062 L 207.199219 47.914062 C 212.667969 47.914062 217.085938 52.339844 217.085938 57.792969 Z M 217.085938 57.792969 " fill-opacity="1" fill-rule="nonzero"/></g><g clip-path="url(#id6)"><path fill="rgb(33.329773%, 67.449951%, 93.328857%)" d="M 226.96875 57.792969 C 226.96875 63.25 222.550781 67.675781 217.085938 67.675781 L 197.316406 67.675781 C 191.859375 67.675781 187.429688 63.25 187.429688 57.792969 C 187.429688 52.339844 191.859375 47.914062 197.316406 47.914062 L 217.085938 47.914062 C 222.550781 47.914062 226.96875 52.339844 226.96875 57.792969 Z M 236.855469 136.839844 L 306.050781 136.839844 C 306.050781 136.839844 286.28125 87.4375 276.394531 87.4375 L 236.855469 87.4375 Z M 217.085938 87.4375 L 167.660156 87.4375 C 147.890625 87.4375 118.234375 136.839844 118.234375 136.839844 L 217.085938 136.839844 Z M 217.085938 87.4375 " fill-opacity="1" fill-rule="nonzero"/></g></svg>