<svg xmlns="http://www.w3.org/2000/svg" xmlns:xlink="http://www.w3.org/1999/xlink" width="500" zoomAndPan="magnify" viewBox="0 0 375 374.999991" height="500" preserveAspectRatio="xMidYMid meet" version="1.0"><defs><clipPath id="id1"><path d="M 219 88 L 366.050781 88 L 366.050781 344 L 219 344 Z M 219 88 " clip-rule="nonzero"/></clipPath><clipPath id="id2"><path d="M 219 41 L 366.050781 41 L 366.050781 89 L 219 89 Z M 219 41 " clip-rule="nonzero"/></clipPath><clipPath id="id3"><path d="M 9.050781 88 L 156 88 L 156 344 L 9.050781 344 Z M 9.050781 88 " clip-rule="nonzero"/></clipPath><clipPath id="id4"><path d="M 9.050781 41 L 156 41 L 156 89 L 9.050781 89 Z M 9.050781 41 " clip-rule="nonzero"/></clipPath><clipPath id="id5"><path d="M 109 75 L 266 75 L 266 363.679688 L 109 363.679688 Z M 109 75 " clip-rule="nonzero"/></clipPath><clipPath id="id6"><path d="M 109 23.179688 L 266 23.179688 L 266 76 L 109 76 Z M 109 23.179688 " clip-rule="nonzero"/></clipPath><clipPath id="id7"><path d="M 148 265 L 225 265 L 225 363.679688 L 148 363.679688 Z M 148 265 " clip-rule="nonzero"/></clipPath></defs><rect x="-37.5" width="450" fill="rgb(64.709473%, 64.709473%, 64.709473%)" y="-37.499999" height="449.999989" fill-opacity="1"/><rect x="-37.5" width="450" fill="rgb(100%, 100%, 100%)" y="-37.499999" height="449.999989" fill-opacity="1"/><rect x="-37.5" width="450" fill="rgb(64.709473%, 64.709473%, 64.709473%)" y="-37.499999" height="449.999989" fill-opacity="1"/><g clip-path="url(#id1)"><path fill="rgb(97.648621%, 69.40918%, 12.159729%)" d="M 366.078125 343.121094 L 219.117188 343.121094 L 219.117188 88.054688 L 366.078125 88.054688 L 366.078125 343.121094 " fill-opacity="1" fill-rule="nonzero"/></g><g clip-path="url(#id2)"><path fill="rgb(39.608765%, 35.289001%, 34.509277%)" d="M 366.078125 88.054688 L 219.117188 88.054688 L 237.730469 41.617188 L 348.429688 41.617188 L 366.078125 88.054688 " fill-opacity="1" fill-rule="nonzero"/></g><path fill="rgb(100%, 100%, 100%)" d="M 262.714844 136.046875 L 234.09375 136.046875 L 234.09375 109.269531 L 262.714844 109.269531 L 262.714844 136.046875 " fill-opacity="1" fill-rule="nonzero"/><path fill="rgb(100%, 100%, 100%)" d="M 306.910156 136.046875 L 278.289062 136.046875 L 278.289062 109.269531 L 306.910156 109.269531 L 306.910156 136.046875 " fill-opacity="1" fill-rule="nonzero"/><path fill="rgb(100%, 100%, 100%)" d="M 351.101562 136.046875 L 322.480469 136.046875 L 322.480469 109.269531 L 351.101562 109.269531 L 351.101562 136.046875 " fill-opacity="1" fill-rule="nonzero"/><path fill="rgb(100%, 100%, 100%)" d="M 262.714844 184.265625 L 234.09375 184.265625 L 234.09375 157.476562 L 262.714844 157.476562 L 262.714844 184.265625 " fill-opacity="1" fill-rule="nonzero"/><path fill="rgb(100%, 100%, 100%)" d="M 306.910156 184.265625 L 278.289062 184.265625 L 278.289062 157.476562 L 306.910156 157.476562 L 306.910156 184.265625 " fill-opacity="1" fill-rule="nonzero"/><path fill="rgb(100%, 100%, 100%)" d="M 351.101562 184.265625 L 322.480469 184.265625 L 322.480469 157.476562 L 351.101562 157.476562 L 351.101562 184.265625 " fill-opacity="1" fill-rule="nonzero"/><path fill="rgb(100%, 100%, 100%)" d="M 262.714844 232.484375 L 234.09375 232.484375 L 234.09375 205.695312 L 262.714844 205.695312 L 262.714844 232.484375 " fill-opacity="1" fill-rule="nonzero"/><path fill="rgb(100%, 100%, 100%)" d="M 306.910156 232.484375 L 278.289062 232.484375 L 278.289062 205.695312 L 306.910156 205.695312 L 306.910156 232.484375 " fill-opacity="1" fill-rule="nonzero"/><path fill="rgb(100%, 100%, 100%)" d="M 351.101562 232.484375 L 322.480469 232.484375 L 322.480469 205.695312 L 351.101562 205.695312 L 351.101562 232.484375 " fill-opacity="1" fill-rule="nonzero"/><path fill="rgb(39.608765%, 35.289001%, 34.509277%)" d="M 327.433594 343.121094 L 255.867188 343.121094 L 255.867188 256.375 L 327.433594 256.375 L 327.433594 343.121094 " fill-opacity="1" fill-rule="nonzero"/><g clip-path="url(#id3)"><path fill="rgb(97.648621%, 69.40918%, 12.159729%)" d="M 155.96875 343.121094 L 9.023438 343.121094 L 9.019531 88.054688 L 155.964844 88.054688 L 155.964844 343.121094 " fill-opacity="1" fill-rule="nonzero"/></g><g clip-path="url(#id4)"><path fill="rgb(39.608765%, 35.289001%, 34.509277%)" d="M 155.96875 88.054688 L 9.023438 88.054688 L 27.617188 41.617188 L 138.320312 41.617188 L 155.96875 88.054688 " fill-opacity="1" fill-rule="nonzero"/></g><path fill="rgb(100%, 100%, 100%)" d="M 52.609375 136.046875 L 23.980469 136.046875 L 23.980469 109.269531 L 52.609375 109.269531 L 52.609375 136.046875 " fill-opacity="1" fill-rule="nonzero"/><path fill="rgb(100%, 100%, 100%)" d="M 96.816406 136.046875 L 68.179688 136.046875 L 68.179688 109.269531 L 96.816406 109.269531 L 96.816406 136.046875 " fill-opacity="1" fill-rule="nonzero"/><path fill="rgb(100%, 100%, 100%)" d="M 141.007812 136.046875 L 112.371094 136.046875 L 112.371094 109.269531 L 141.007812 109.269531 L 141.007812 136.046875 " fill-opacity="1" fill-rule="nonzero"/><path fill="rgb(100%, 100%, 100%)" d="M 52.609375 184.265625 L 23.980469 184.265625 L 23.980469 157.476562 L 52.609375 157.476562 L 52.609375 184.265625 " fill-opacity="1" fill-rule="nonzero"/><path fill="rgb(100%, 100%, 100%)" d="M 96.816406 184.265625 L 68.179688 184.265625 L 68.179688 157.476562 L 96.816406 157.476562 L 96.816406 184.265625 " fill-opacity="1" fill-rule="nonzero"/><path fill="rgb(100%, 100%, 100%)" d="M 141.007812 184.265625 L 112.371094 184.265625 L 112.371094 157.476562 L 141.007812 157.476562 L 141.007812 184.265625 " fill-opacity="1" fill-rule="nonzero"/><path fill="rgb(100%, 100%, 100%)" d="M 52.609375 232.484375 L 23.980469 232.484375 L 23.980469 205.695312 L 52.609375 205.695312 L 52.609375 232.484375 " fill-opacity="1" fill-rule="nonzero"/><path fill="rgb(100%, 100%, 100%)" d="M 96.816406 232.484375 L 68.179688 232.484375 L 68.179688 205.695312 L 96.816406 205.695312 L 96.816406 232.484375 " fill-opacity="1" fill-rule="nonzero"/><path fill="rgb(100%, 100%, 100%)" d="M 141.007812 232.484375 L 112.371094 232.484375 L 112.371094 205.695312 L 141.007812 205.695312 L 141.007812 232.484375 " fill-opacity="1" fill-rule="nonzero"/><path fill="rgb(39.608765%, 35.289001%, 34.509277%)" d="M 117.328125 343.121094 L 45.757812 343.121094 L 45.757812 256.375 L 117.328125 256.375 L 117.328125 343.121094 " fill-opacity="1" fill-rule="nonzero"/><g clip-path="url(#id5)"><path fill="rgb(19.219971%, 55.688477%, 83.139038%)" d="M 265.195312 363.601562 L 109.910156 363.601562 L 109.910156 75.804688 L 265.195312 75.804688 L 265.195312 363.601562 " fill-opacity="1" fill-rule="nonzero"/></g><g clip-path="url(#id6)"><path fill="rgb(65.489197%, 61.569214%, 60.389709%)" d="M 265.195312 75.804688 L 109.910156 75.804688 L 129.570312 23.410156 L 246.539062 23.410156 L 265.195312 75.804688 " fill-opacity="1" fill-rule="nonzero"/></g><path fill="rgb(100%, 100%, 100%)" d="M 155.96875 129.949219 L 125.734375 129.949219 L 125.734375 99.722656 L 155.96875 99.722656 L 155.96875 129.949219 " fill-opacity="1" fill-rule="nonzero"/><path fill="rgb(100%, 100%, 100%)" d="M 202.667969 129.949219 L 172.417969 129.949219 L 172.417969 99.722656 L 202.667969 99.722656 L 202.667969 129.949219 " fill-opacity="1" fill-rule="nonzero"/><path fill="rgb(100%, 100%, 100%)" d="M 249.367188 129.949219 L 219.117188 129.949219 L 219.117188 99.722656 L 249.367188 99.722656 L 249.367188 129.949219 " fill-opacity="1" fill-rule="nonzero"/><path fill="rgb(100%, 100%, 100%)" d="M 155.96875 184.363281 L 125.734375 184.363281 L 125.734375 154.136719 L 155.96875 154.136719 L 155.96875 184.363281 " fill-opacity="1" fill-rule="nonzero"/><path fill="rgb(100%, 100%, 100%)" d="M 202.667969 184.363281 L 172.417969 184.363281 L 172.417969 154.136719 L 202.667969 154.136719 L 202.667969 184.363281 " fill-opacity="1" fill-rule="nonzero"/><path fill="rgb(100%, 100%, 100%)" d="M 249.367188 184.363281 L 219.117188 184.363281 L 219.117188 154.136719 L 249.367188 154.136719 L 249.367188 184.363281 " fill-opacity="1" fill-rule="nonzero"/><path fill="rgb(100%, 100%, 100%)" d="M 155.96875 238.761719 L 125.734375 238.761719 L 125.734375 208.535156 L 155.96875 208.535156 L 155.96875 238.761719 " fill-opacity="1" fill-rule="nonzero"/><path fill="rgb(100%, 100%, 100%)" d="M 202.667969 238.761719 L 172.417969 238.761719 L 172.417969 208.535156 L 202.667969 208.535156 L 202.667969 238.761719 " fill-opacity="1" fill-rule="nonzero"/><path fill="rgb(100%, 100%, 100%)" d="M 249.367188 238.761719 L 219.117188 238.761719 L 219.117188 208.535156 L 249.367188 208.535156 L 249.367188 238.761719 " fill-opacity="1" fill-rule="nonzero"/><g clip-path="url(#id7)"><path fill="rgb(39.608765%, 35.289001%, 34.509277%)" d="M 224.355469 363.601562 L 148.722656 363.601562 L 148.722656 265.707031 L 224.355469 265.707031 L 224.355469 363.601562 " fill-opacity="1" fill-rule="nonzero"/></g></svg>