<svg xmlns="http://www.w3.org/2000/svg" xmlns:xlink="http://www.w3.org/1999/xlink" width="500" zoomAndPan="magnify" viewBox="0 0 375 374.999991" height="500" preserveAspectRatio="xMidYMid meet" version="1.0"><defs><clipPath id="id1"><path d="M 31.601562 27 L 193 27 L 193 375 L 31.601562 375 Z M 31.601562 27 " clip-rule="nonzero"/></clipPath><clipPath id="id2"><path d="M 192 103 L 354.101562 103 L 354.101562 375 L 192 375 Z M 192 103 " clip-rule="nonzero"/></clipPath><clipPath id="id3"><path d="M 31.601562 53 L 193 53 L 193 71 L 31.601562 71 Z M 31.601562 53 " clip-rule="nonzero"/></clipPath><clipPath id="id4"><path d="M 31.601562 92 L 193 92 L 193 109 L 31.601562 109 Z M 31.601562 92 " clip-rule="nonzero"/></clipPath><clipPath id="id5"><path d="M 31.601562 131 L 193 131 L 193 148 L 31.601562 148 Z M 31.601562 131 " clip-rule="nonzero"/></clipPath><clipPath id="id6"><path d="M 31.601562 169 L 193 169 L 193 187 L 31.601562 187 Z M 31.601562 169 " clip-rule="nonzero"/></clipPath><clipPath id="id7"><path d="M 31.601562 208 L 193 208 L 193 226 L 31.601562 226 Z M 31.601562 208 " clip-rule="nonzero"/></clipPath><clipPath id="id8"><path d="M 31.601562 247 L 193 247 L 193 265 L 31.601562 265 Z M 31.601562 247 " clip-rule="nonzero"/></clipPath><clipPath id="id9"><path d="M 31.601562 0 L 193 0 L 193 28 L 31.601562 28 Z M 31.601562 0 " clip-rule="nonzero"/></clipPath></defs><rect x="-37.5" width="450" fill="rgb(64.709473%, 64.709473%, 64.709473%)" y="-37.499999" height="449.999989" fill-opacity="1"/><rect x="-37.5" width="450" fill="rgb(100%, 100%, 100%)" y="-37.499999" height="449.999989" fill-opacity="1"/><rect x="-37.5" width="450" fill="rgb(64.709473%, 64.709473%, 64.709473%)" y="-37.499999" height="449.999989" fill-opacity="1"/><g clip-path="url(#id1)"><path fill="rgb(94.119263%, 26.669312%, 16.468811%)" d="M 192.863281 375.28125 L 31.71875 375.28125 L 31.71875 27.585938 L 192.863281 27.585938 L 192.863281 375.28125 " fill-opacity="1" fill-rule="nonzero"/></g><g clip-path="url(#id2)"><path fill="rgb(97.648621%, 69.40918%, 12.159729%)" d="M 354.011719 375.28125 L 192.863281 375.28125 L 192.863281 103.753906 L 354.011719 103.753906 L 354.011719 375.28125 " fill-opacity="1" fill-rule="nonzero"/></g><g clip-path="url(#id3)"><path fill="rgb(100%, 100%, 100%)" d="M 192.863281 70.03125 L 31.71875 70.03125 L 31.71875 53.347656 L 192.863281 53.347656 L 192.863281 70.03125 " fill-opacity="1" fill-rule="nonzero"/></g><g clip-path="url(#id4)"><path fill="rgb(100%, 100%, 100%)" d="M 192.863281 108.863281 L 31.71875 108.863281 L 31.71875 92.179688 L 192.863281 92.179688 L 192.863281 108.863281 " fill-opacity="1" fill-rule="nonzero"/></g><g clip-path="url(#id5)"><path fill="rgb(100%, 100%, 100%)" d="M 192.863281 147.695312 L 31.71875 147.695312 L 31.71875 131.011719 L 192.863281 131.011719 L 192.863281 147.695312 " fill-opacity="1" fill-rule="nonzero"/></g><g clip-path="url(#id6)"><path fill="rgb(100%, 100%, 100%)" d="M 192.863281 186.527344 L 31.71875 186.527344 L 31.71875 169.84375 L 192.863281 169.84375 L 192.863281 186.527344 " fill-opacity="1" fill-rule="nonzero"/></g><g clip-path="url(#id7)"><path fill="rgb(100%, 100%, 100%)" d="M 192.863281 225.359375 L 31.71875 225.359375 L 31.71875 208.675781 L 192.863281 208.675781 L 192.863281 225.359375 " fill-opacity="1" fill-rule="nonzero"/></g><g clip-path="url(#id8)"><path fill="rgb(100%, 100%, 100%)" d="M 192.863281 264.191406 L 31.71875 264.191406 L 31.71875 247.507812 L 192.863281 247.507812 L 192.863281 264.191406 " fill-opacity="1" fill-rule="nonzero"/></g><g clip-path="url(#id9)"><path fill="rgb(65.489197%, 61.569214%, 60.389709%)" d="M 192.625 27.585938 L 31.6875 27.585938 L 52.070312 -5.75 L 173.289062 -5.75 L 192.625 27.585938 " fill-opacity="1" fill-rule="nonzero"/></g><path fill="rgb(65.489197%, 61.569214%, 60.389709%)" d="M 353.90625 103.753906 L 192.96875 103.753906 L 213.335938 70.421875 L 334.570312 70.421875 L 353.90625 103.753906 " fill-opacity="1" fill-rule="nonzero"/><path fill="rgb(100%, 100%, 100%)" d="M 266.214844 143.8125 L 213.992188 143.8125 L 213.992188 123.648438 L 266.214844 123.648438 L 266.214844 143.8125 " fill-opacity="1" fill-rule="nonzero"/><path fill="rgb(100%, 100%, 100%)" d="M 266.214844 211.515625 L 213.992188 211.515625 L 213.992188 191.351562 L 266.214844 191.351562 L 266.214844 211.515625 " fill-opacity="1" fill-rule="nonzero"/><path fill="rgb(100%, 100%, 100%)" d="M 332.867188 174.667969 L 280.644531 174.667969 L 280.644531 154.507812 L 332.867188 154.507812 L 332.867188 174.667969 " fill-opacity="1" fill-rule="nonzero"/><path fill="rgb(100%, 100%, 100%)" d="M 332.867188 244.253906 L 280.644531 244.253906 L 280.644531 224.089844 L 332.867188 224.089844 L 332.867188 244.253906 " fill-opacity="1" fill-rule="nonzero"/><path fill="rgb(100%, 100%, 100%)" d="M 266.214844 279.214844 L 213.992188 279.214844 L 213.992188 259.054688 L 266.214844 259.054688 L 266.214844 279.214844 " fill-opacity="1" fill-rule="nonzero"/><path fill="rgb(39.608765%, 35.289001%, 34.509277%)" d="M 147.730469 375.28125 L 76.855469 375.28125 L 76.855469 287.460938 L 147.730469 287.460938 L 147.730469 375.28125 " fill-opacity="1" fill-rule="nonzero"/><path fill="rgb(39.608765%, 35.289001%, 34.509277%)" d="M 308.875 375.28125 L 238 375.28125 L 238 298.914062 L 308.875 298.914062 L 308.875 375.28125 " fill-opacity="1" fill-rule="nonzero"/></svg>