<svg xmlns="http://www.w3.org/2000/svg" xmlns:xlink="http://www.w3.org/1999/xlink" width="500" zoomAndPan="magnify" viewBox="0 0 375 374.999991" height="500" preserveAspectRatio="xMidYMid meet" version="1.0"><defs><clipPath id="id1"><path d="M 181 57.453125 L 222 57.453125 L 222 107 L 181 107 Z M 181 57.453125 " clip-rule="nonzero"/></clipPath><clipPath id="id2"><path d="M 7.53125 77 L 367.53125 77 L 367.53125 258 L 7.53125 258 Z M 7.53125 77 " clip-rule="nonzero"/></clipPath><clipPath id="id3"><path d="M 67 207 L 148 207 L 148 286.953125 L 67 286.953125 Z M 67 207 " clip-rule="nonzero"/></clipPath><clipPath id="id4"><path d="M 237 207 L 318 207 L 318 286.953125 L 237 286.953125 Z M 237 207 " clip-rule="nonzero"/></clipPath><clipPath id="id5"><path d="M 29 177 L 367.53125 177 L 367.53125 198 L 29 198 Z M 29 177 " clip-rule="nonzero"/></clipPath></defs><rect x="-37.5" width="450" fill="rgb(27.449036%, 29.019165%, 31.759644%)" y="-37.499999" height="449.999989" fill-opacity="1"/><rect x="-37.5" width="450" fill="rgb(100%, 100%, 100%)" y="-37.499999" height="449.999989" fill-opacity="1"/><rect x="-37.5" width="450" fill="rgb(27.449036%, 29.019165%, 31.759644%)" y="-37.499999" height="449.999989" fill-opacity="1"/><g clip-path="url(#id1)"><path fill="rgb(79.998779%, 83.918762%, 86.669922%)" d="M 221.265625 91.867188 C 222.15625 100.007812 212.976562 106.785156 200.757812 106.984375 C 188.542969 107.183594 179.832031 100.648438 181.308594 92.386719 L 184.867188 72.429688 C 186.335938 64.15625 194.234375 57.460938 202.515625 57.460938 C 210.789062 57.460938 218.21875 64.066406 219.109375 72.210938 Z M 221.265625 91.867188 " fill-opacity="1" fill-rule="nonzero"/></g><g clip-path="url(#id2)"><path fill="rgb(100%, 79.998779%, 30.198669%)" d="M 329.835938 147.257812 L 328.484375 147.257812 L 324.050781 117.320312 C 320.785156 95.28125 305.433594 77.410156 289.757812 77.410156 L 169.171875 77.410156 C 153.5 77.410156 133.472656 95.28125 124.445312 117.320312 L 112.175781 147.257812 L 76.765625 147.257812 C 56.058594 147.257812 35.773438 165.128906 31.4375 187.167969 L 25.5625 217.105469 C 25.554688 217.183594 25.5625 217.253906 25.542969 217.3125 C 15.542969 218.421875 7.734375 226.785156 7.734375 237.0625 C 7.734375 248.078125 16.683594 257.015625 27.710938 257.015625 L 327.378906 257.015625 C 349.441406 257.015625 367.332031 239.148438 367.332031 217.105469 L 367.332031 187.167969 C 367.332031 165.128906 350.542969 147.257812 329.835938 147.257812 Z M 329.835938 147.257812 " fill-opacity="1" fill-rule="nonzero"/></g><g clip-path="url(#id3)"><path fill="rgb(16.079712%, 18.429565%, 19.999695%)" d="M 147.578125 247.039062 C 147.578125 248.347656 147.511719 249.652344 147.386719 250.953125 C 147.257812 252.253906 147.066406 253.542969 146.808594 254.824219 C 146.554688 256.109375 146.238281 257.375 145.855469 258.625 C 145.476562 259.875 145.035156 261.105469 144.535156 262.3125 C 144.035156 263.519531 143.476562 264.703125 142.859375 265.855469 C 142.242188 267.007812 141.570312 268.125 140.84375 269.214844 C 140.117188 270.300781 139.339844 271.347656 138.507812 272.359375 C 137.679688 273.371094 136.800781 274.335938 135.875 275.261719 C 134.949219 276.1875 133.980469 277.0625 132.96875 277.890625 C 131.957031 278.722656 130.910156 279.5 129.820312 280.226562 C 128.730469 280.953125 127.609375 281.625 126.457031 282.238281 C 125.304688 282.855469 124.121094 283.414062 122.914062 283.914062 C 121.703125 284.414062 120.472656 284.855469 119.21875 285.234375 C 117.96875 285.613281 116.699219 285.929688 115.417969 286.183594 C 114.132812 286.441406 112.839844 286.632812 111.539062 286.761719 C 110.234375 286.886719 108.929688 286.953125 107.621094 286.953125 C 106.3125 286.953125 105.007812 286.886719 103.707031 286.761719 C 102.402344 286.632812 101.109375 286.441406 99.828125 286.183594 C 98.542969 285.929688 97.277344 285.613281 96.023438 285.234375 C 94.769531 284.855469 93.539062 284.414062 92.332031 283.914062 C 91.121094 283.414062 89.941406 282.855469 88.789062 282.238281 C 87.632812 281.625 86.511719 280.953125 85.425781 280.226562 C 84.335938 279.5 83.285156 278.722656 82.273438 277.890625 C 81.261719 277.0625 80.292969 276.1875 79.371094 275.261719 C 78.445312 274.335938 77.566406 273.371094 76.734375 272.359375 C 75.90625 271.347656 75.128906 270.300781 74.398438 269.214844 C 73.671875 268.125 73 267.007812 72.382812 265.855469 C 71.769531 264.703125 71.207031 263.519531 70.707031 262.3125 C 70.207031 261.105469 69.765625 259.875 69.386719 258.625 C 69.007812 257.375 68.691406 256.109375 68.433594 254.824219 C 68.179688 253.542969 67.988281 252.253906 67.859375 250.953125 C 67.730469 249.652344 67.667969 248.347656 67.667969 247.039062 C 67.667969 245.730469 67.730469 244.429688 67.859375 243.128906 C 67.988281 241.828125 68.179688 240.535156 68.433594 239.253906 C 68.691406 237.96875 69.007812 236.703125 69.386719 235.453125 C 69.765625 234.203125 70.207031 232.972656 70.707031 231.765625 C 71.207031 230.558594 71.769531 229.378906 72.382812 228.222656 C 73 227.070312 73.671875 225.953125 74.398438 224.863281 C 75.128906 223.777344 75.90625 222.730469 76.734375 221.71875 C 77.566406 220.707031 78.445312 219.742188 79.371094 218.816406 C 80.292969 217.890625 81.261719 217.015625 82.273438 216.1875 C 83.285156 215.355469 84.335938 214.578125 85.425781 213.851562 C 86.511719 213.125 87.632812 212.457031 88.789062 211.839844 C 89.941406 211.222656 91.121094 210.664062 92.332031 210.164062 C 93.539062 209.664062 94.769531 209.222656 96.023438 208.84375 C 97.277344 208.464844 98.542969 208.148438 99.828125 207.894531 C 101.109375 207.636719 102.402344 207.445312 103.707031 207.320312 C 105.007812 207.191406 106.3125 207.125 107.621094 207.125 C 108.929688 207.125 110.234375 207.191406 111.539062 207.320312 C 112.839844 207.445312 114.132812 207.636719 115.417969 207.894531 C 116.699219 208.148438 117.96875 208.464844 119.21875 208.84375 C 120.472656 209.222656 121.703125 209.664062 122.914062 210.164062 C 124.121094 210.664062 125.304688 211.222656 126.457031 211.839844 C 127.609375 212.457031 128.730469 213.125 129.820312 213.851562 C 130.910156 214.578125 131.957031 215.355469 132.96875 216.1875 C 133.980469 217.015625 134.949219 217.890625 135.875 218.816406 C 136.800781 219.742188 137.679688 220.707031 138.507812 221.71875 C 139.339844 222.730469 140.117188 223.777344 140.84375 224.863281 C 141.570312 225.953125 142.242188 227.070312 142.859375 228.222656 C 143.476562 229.378906 144.035156 230.558594 144.535156 231.765625 C 145.035156 232.972656 145.476562 234.203125 145.855469 235.453125 C 146.238281 236.703125 146.554688 237.96875 146.808594 239.253906 C 147.066406 240.535156 147.257812 241.828125 147.386719 243.128906 C 147.511719 244.429688 147.578125 245.730469 147.578125 247.039062 Z M 147.578125 247.039062 " fill-opacity="1" fill-rule="nonzero"/></g><path fill="rgb(79.998779%, 83.918762%, 86.669922%)" d="M 127.601562 247.039062 C 127.601562 247.691406 127.566406 248.34375 127.503906 248.996094 C 127.441406 249.644531 127.34375 250.292969 127.214844 250.933594 C 127.089844 251.574219 126.929688 252.207031 126.738281 252.832031 C 126.550781 253.457031 126.328125 254.074219 126.078125 254.675781 C 125.828125 255.28125 125.550781 255.871094 125.242188 256.445312 C 124.933594 257.023438 124.597656 257.582031 124.234375 258.125 C 123.871094 258.671875 123.480469 259.195312 123.066406 259.699219 C 122.648438 260.203125 122.210938 260.6875 121.75 261.152344 C 121.285156 261.613281 120.800781 262.050781 120.296875 262.464844 C 119.789062 262.878906 119.265625 263.269531 118.722656 263.632812 C 118.175781 263.996094 117.617188 264.332031 117.039062 264.640625 C 116.460938 264.949219 115.871094 265.226562 115.265625 265.476562 C 114.664062 265.726562 114.046875 265.945312 113.421875 266.136719 C 112.796875 266.328125 112.160156 266.484375 111.519531 266.613281 C 110.878906 266.738281 110.230469 266.835938 109.582031 266.898438 C 108.929688 266.964844 108.277344 266.996094 107.621094 266.996094 C 106.96875 266.996094 106.316406 266.964844 105.664062 266.898438 C 105.011719 266.835938 104.367188 266.738281 103.726562 266.613281 C 103.082031 266.484375 102.449219 266.328125 101.824219 266.136719 C 101.195312 265.945312 100.582031 265.726562 99.976562 265.476562 C 99.371094 265.226562 98.78125 264.949219 98.203125 264.640625 C 97.628906 264.332031 97.066406 263.996094 96.523438 263.632812 C 95.980469 263.269531 95.453125 262.878906 94.949219 262.464844 C 94.441406 262.050781 93.957031 261.613281 93.496094 261.152344 C 93.03125 260.6875 92.59375 260.203125 92.179688 259.699219 C 91.765625 259.195312 91.375 258.671875 91.011719 258.125 C 90.648438 257.582031 90.3125 257.023438 90.003906 256.445312 C 89.695312 255.871094 89.414062 255.28125 89.164062 254.675781 C 88.914062 254.074219 88.695312 253.457031 88.503906 252.832031 C 88.316406 252.207031 88.15625 251.574219 88.027344 250.933594 C 87.902344 250.292969 87.804688 249.644531 87.742188 248.996094 C 87.675781 248.34375 87.644531 247.691406 87.644531 247.039062 C 87.644531 246.386719 87.675781 245.734375 87.742188 245.082031 C 87.804688 244.433594 87.902344 243.785156 88.027344 243.144531 C 88.15625 242.503906 88.316406 241.871094 88.503906 241.246094 C 88.695312 240.621094 88.914062 240.007812 89.164062 239.402344 C 89.414062 238.796875 89.695312 238.207031 90.003906 237.632812 C 90.3125 237.054688 90.648438 236.496094 91.011719 235.953125 C 91.375 235.410156 91.765625 234.882812 92.179688 234.378906 C 92.59375 233.875 93.03125 233.390625 93.496094 232.929688 C 93.957031 232.464844 94.441406 232.027344 94.949219 231.613281 C 95.453125 231.199219 95.980469 230.808594 96.523438 230.445312 C 97.066406 230.082031 97.628906 229.746094 98.203125 229.4375 C 98.78125 229.132812 99.371094 228.851562 99.976562 228.601562 C 100.582031 228.351562 101.195312 228.132812 101.824219 227.941406 C 102.449219 227.753906 103.082031 227.59375 103.726562 227.464844 C 104.367188 227.339844 105.011719 227.242188 105.664062 227.179688 C 106.316406 227.113281 106.96875 227.082031 107.621094 227.082031 C 108.277344 227.082031 108.929688 227.113281 109.582031 227.179688 C 110.230469 227.242188 110.878906 227.339844 111.519531 227.464844 C 112.160156 227.59375 112.796875 227.753906 113.421875 227.941406 C 114.046875 228.132812 114.664062 228.351562 115.265625 228.601562 C 115.871094 228.851562 116.460938 229.132812 117.039062 229.4375 C 117.617188 229.746094 118.175781 230.082031 118.722656 230.445312 C 119.265625 230.808594 119.789062 231.199219 120.296875 231.613281 C 120.800781 232.027344 121.285156 232.464844 121.75 232.929688 C 122.210938 233.390625 122.648438 233.875 123.066406 234.378906 C 123.480469 234.882812 123.871094 235.410156 124.234375 235.953125 C 124.597656 236.496094 124.933594 237.054688 125.242188 237.632812 C 125.550781 238.207031 125.828125 238.796875 126.078125 239.402344 C 126.328125 240.007812 126.550781 240.621094 126.738281 241.246094 C 126.929688 241.871094 127.089844 242.503906 127.214844 243.144531 C 127.34375 243.785156 127.441406 244.433594 127.503906 245.082031 C 127.566406 245.734375 127.601562 246.386719 127.601562 247.039062 Z M 127.601562 247.039062 " fill-opacity="1" fill-rule="nonzero"/><g clip-path="url(#id4)"><path fill="rgb(16.079712%, 18.429565%, 19.999695%)" d="M 317.386719 247.039062 C 317.386719 248.347656 317.324219 249.652344 317.195312 250.953125 C 317.066406 252.253906 316.875 253.542969 316.621094 254.824219 C 316.367188 256.109375 316.046875 257.375 315.667969 258.625 C 315.289062 259.875 314.847656 261.105469 314.347656 262.3125 C 313.847656 263.519531 313.289062 264.703125 312.671875 265.855469 C 312.054688 267.007812 311.382812 268.125 310.65625 269.214844 C 309.925781 270.300781 309.148438 271.347656 308.320312 272.359375 C 307.488281 273.371094 306.609375 274.335938 305.6875 275.261719 C 304.761719 276.1875 303.792969 277.0625 302.78125 277.890625 C 301.769531 278.722656 300.71875 279.5 299.632812 280.226562 C 298.542969 280.953125 297.421875 281.625 296.269531 282.238281 C 295.113281 282.855469 293.933594 283.414062 292.722656 283.914062 C 291.515625 284.414062 290.285156 284.855469 289.03125 285.234375 C 287.777344 285.613281 286.511719 285.929688 285.226562 286.183594 C 283.945312 286.441406 282.652344 286.632812 281.347656 286.761719 C 280.046875 286.886719 278.742188 286.953125 277.433594 286.953125 C 276.125 286.953125 274.820312 286.886719 273.515625 286.761719 C 272.214844 286.632812 270.921875 286.441406 269.636719 286.183594 C 268.355469 285.929688 267.085938 285.613281 265.835938 285.234375 C 264.582031 284.855469 263.351562 284.414062 262.144531 283.914062 C 260.933594 283.414062 259.753906 282.855469 258.597656 282.238281 C 257.445312 281.625 256.324219 280.953125 255.234375 280.226562 C 254.148438 279.5 253.097656 278.722656 252.085938 277.890625 C 251.074219 277.0625 250.105469 276.1875 249.179688 275.261719 C 248.253906 274.335938 247.378906 273.371094 246.546875 272.359375 C 245.71875 271.347656 244.9375 270.300781 244.210938 269.214844 C 243.484375 268.125 242.8125 267.007812 242.195312 265.855469 C 241.578125 264.703125 241.019531 263.519531 240.519531 262.3125 C 240.019531 261.105469 239.578125 259.875 239.199219 258.625 C 238.816406 257.375 238.5 256.109375 238.246094 254.824219 C 237.988281 253.542969 237.796875 252.253906 237.667969 250.953125 C 237.542969 249.652344 237.476562 248.347656 237.476562 247.039062 C 237.476562 245.730469 237.542969 244.429688 237.667969 243.128906 C 237.796875 241.828125 237.988281 240.535156 238.246094 239.253906 C 238.5 237.96875 238.816406 236.703125 239.199219 235.453125 C 239.578125 234.203125 240.019531 232.972656 240.519531 231.765625 C 241.019531 230.558594 241.578125 229.378906 242.195312 228.222656 C 242.8125 227.070312 243.484375 225.953125 244.210938 224.863281 C 244.9375 223.777344 245.71875 222.730469 246.546875 221.71875 C 247.378906 220.707031 248.253906 219.742188 249.179688 218.816406 C 250.105469 217.890625 251.074219 217.015625 252.085938 216.1875 C 253.097656 215.355469 254.148438 214.578125 255.234375 213.851562 C 256.324219 213.125 257.445312 212.457031 258.597656 211.839844 C 259.753906 211.222656 260.933594 210.664062 262.144531 210.164062 C 263.351562 209.664062 264.582031 209.222656 265.835938 208.84375 C 267.085938 208.464844 268.355469 208.148438 269.636719 207.894531 C 270.921875 207.636719 272.214844 207.445312 273.515625 207.320312 C 274.820312 207.191406 276.125 207.125 277.433594 207.125 C 278.742188 207.125 280.046875 207.191406 281.347656 207.320312 C 282.652344 207.445312 283.945312 207.636719 285.226562 207.894531 C 286.511719 208.148438 287.777344 208.464844 289.03125 208.84375 C 290.285156 209.222656 291.515625 209.664062 292.722656 210.164062 C 293.933594 210.664062 295.113281 211.222656 296.269531 211.839844 C 297.421875 212.457031 298.542969 213.125 299.632812 213.851562 C 300.71875 214.578125 301.769531 215.355469 302.78125 216.1875 C 303.792969 217.015625 304.761719 217.890625 305.6875 218.816406 C 306.609375 219.742188 307.488281 220.707031 308.320312 221.71875 C 309.148438 222.730469 309.925781 223.777344 310.65625 224.863281 C 311.382812 225.953125 312.054688 227.070312 312.671875 228.222656 C 313.289062 229.378906 313.847656 230.558594 314.347656 231.765625 C 314.847656 232.972656 315.289062 234.203125 315.667969 235.453125 C 316.046875 236.703125 316.367188 237.96875 316.621094 239.253906 C 316.875 240.535156 317.066406 241.828125 317.195312 243.128906 C 317.324219 244.429688 317.386719 245.730469 317.386719 247.039062 Z M 317.386719 247.039062 " fill-opacity="1" fill-rule="nonzero"/></g><path fill="rgb(79.998779%, 83.918762%, 86.669922%)" d="M 297.410156 247.039062 C 297.410156 247.691406 297.378906 248.34375 297.316406 248.996094 C 297.25 249.644531 297.15625 250.292969 297.027344 250.933594 C 296.898438 251.574219 296.742188 252.207031 296.550781 252.832031 C 296.359375 253.457031 296.140625 254.074219 295.890625 254.675781 C 295.640625 255.28125 295.359375 255.871094 295.050781 256.445312 C 294.742188 257.023438 294.40625 257.582031 294.042969 258.125 C 293.679688 258.671875 293.292969 259.195312 292.875 259.699219 C 292.460938 260.203125 292.023438 260.6875 291.558594 261.152344 C 291.097656 261.613281 290.613281 262.050781 290.105469 262.464844 C 289.601562 262.878906 289.074219 263.269531 288.53125 263.632812 C 287.988281 263.996094 287.425781 264.332031 286.851562 264.640625 C 286.273438 264.949219 285.683594 265.226562 285.078125 265.476562 C 284.472656 265.726562 283.859375 265.945312 283.230469 266.136719 C 282.605469 266.328125 281.972656 266.484375 281.332031 266.613281 C 280.6875 266.738281 280.042969 266.835938 279.390625 266.898438 C 278.738281 266.964844 278.085938 266.996094 277.433594 266.996094 C 276.777344 266.996094 276.125 266.964844 275.476562 266.898438 C 274.824219 266.835938 274.175781 266.738281 273.535156 266.613281 C 272.894531 266.484375 272.261719 266.328125 271.632812 266.136719 C 271.007812 265.945312 270.390625 265.726562 269.789062 265.476562 C 269.183594 265.226562 268.59375 264.949219 268.015625 264.640625 C 267.4375 264.332031 266.878906 263.996094 266.332031 263.632812 C 265.789062 263.269531 265.265625 262.878906 264.757812 262.464844 C 264.253906 262.050781 263.769531 261.613281 263.304688 261.152344 C 262.84375 260.6875 262.40625 260.203125 261.988281 259.699219 C 261.574219 259.195312 261.1875 258.671875 260.820312 258.125 C 260.457031 257.582031 260.121094 257.023438 259.8125 256.445312 C 259.503906 255.871094 259.226562 255.28125 258.976562 254.675781 C 258.726562 254.074219 258.503906 253.457031 258.316406 252.832031 C 258.125 252.207031 257.964844 251.574219 257.839844 250.933594 C 257.710938 250.292969 257.617188 249.644531 257.550781 248.996094 C 257.488281 248.34375 257.457031 247.691406 257.457031 247.039062 C 257.457031 246.386719 257.488281 245.734375 257.550781 245.082031 C 257.617188 244.433594 257.710938 243.785156 257.839844 243.144531 C 257.964844 242.503906 258.125 241.871094 258.316406 241.246094 C 258.503906 240.621094 258.726562 240.007812 258.976562 239.402344 C 259.226562 238.796875 259.503906 238.207031 259.8125 237.632812 C 260.121094 237.054688 260.457031 236.496094 260.820312 235.953125 C 261.1875 235.410156 261.574219 234.882812 261.988281 234.378906 C 262.40625 233.875 262.84375 233.390625 263.304688 232.929688 C 263.769531 232.464844 264.253906 232.027344 264.757812 231.613281 C 265.265625 231.199219 265.789062 230.808594 266.332031 230.445312 C 266.878906 230.082031 267.4375 229.746094 268.015625 229.4375 C 268.59375 229.132812 269.183594 228.851562 269.789062 228.601562 C 270.390625 228.351562 271.007812 228.132812 271.632812 227.941406 C 272.261719 227.753906 272.894531 227.59375 273.535156 227.464844 C 274.175781 227.339844 274.824219 227.242188 275.476562 227.179688 C 276.125 227.113281 276.777344 227.082031 277.433594 227.082031 C 278.085938 227.082031 278.738281 227.113281 279.390625 227.179688 C 280.042969 227.242188 280.6875 227.339844 281.332031 227.464844 C 281.972656 227.59375 282.605469 227.753906 283.230469 227.941406 C 283.859375 228.132812 284.472656 228.351562 285.078125 228.601562 C 285.683594 228.851562 286.273438 229.132812 286.851562 229.4375 C 287.425781 229.746094 287.988281 230.082031 288.53125 230.445312 C 289.074219 230.808594 289.601562 231.199219 290.105469 231.613281 C 290.613281 232.027344 291.097656 232.464844 291.558594 232.929688 C 292.023438 233.390625 292.460938 233.875 292.875 234.378906 C 293.292969 234.882812 293.679688 235.410156 294.042969 235.953125 C 294.40625 236.496094 294.742188 237.054688 295.050781 237.632812 C 295.359375 238.207031 295.640625 238.796875 295.890625 239.402344 C 296.140625 240.007812 296.359375 240.621094 296.550781 241.246094 C 296.742188 241.871094 296.898438 242.503906 297.027344 243.144531 C 297.15625 243.785156 297.25 244.433594 297.316406 245.082031 C 297.378906 245.734375 297.410156 246.386719 297.410156 247.039062 Z M 297.410156 247.039062 " fill-opacity="1" fill-rule="nonzero"/><g clip-path="url(#id5)"><path fill="rgb(95.689392%, 56.469727%, 4.708862%)" d="M 31.4375 187.167969 L 29.480469 197.148438 L 367.332031 197.148438 L 367.332031 187.167969 C 367.332031 183.699219 366.785156 180.394531 366.003906 177.191406 L 34.722656 177.191406 C 33.316406 180.394531 32.117188 183.699219 31.4375 187.167969 Z M 31.4375 187.167969 " fill-opacity="1" fill-rule="nonzero"/></g><path fill="rgb(33.329773%, 67.449951%, 93.328857%)" d="M 247.464844 147.257812 L 306.601562 147.257812 C 306.460938 143.105469 305.960938 138.195312 305.042969 132.289062 C 301.097656 107.34375 299.527344 97.367188 270.710938 97.367188 L 247.464844 97.367188 Z M 227.488281 97.367188 L 177.542969 97.367188 C 161.621094 97.367188 145.21875 113 139.117188 132.289062 C 137.179688 138.265625 135.589844 143.144531 134.402344 147.257812 L 227.488281 147.257812 Z M 227.488281 97.367188 " fill-opacity="1" fill-rule="nonzero"/></svg>