<?xml version="1.0" encoding="UTF-8" standalone="no"?>
<svg
   xmlns:dc="http://purl.org/dc/elements/1.1/"
   xmlns:cc="http://creativecommons.org/ns#"
   xmlns:rdf="http://www.w3.org/1999/02/22-rdf-syntax-ns#"
   xmlns:svg="http://www.w3.org/2000/svg"
   xmlns="http://www.w3.org/2000/svg"
   xmlns:sodipodi="http://sodipodi.sourceforge.net/DTD/sodipodi-0.dtd"
   xmlns:inkscape="http://www.inkscape.org/namespaces/inkscape"
   width="568.77368"
   height="571.22253"
   viewBox="0 0 568.76939 571.22479"
   version="1.1"
   id="svg54"
   sodipodi:docname="brontosaurus-dies.svg"
   inkscape:version="0.92.4 (f8dce91, 2019-08-02)">
  <metadata
     id="metadata60">
    <rdf:RDF>
      <cc:Work
         rdf:about="">
        <dc:format>image/svg+xml</dc:format>
        <dc:type
           rdf:resource="http://purl.org/dc/dcmitype/StillImage" />
        <dc:title></dc:title>
      </cc:Work>
    </rdf:RDF>
  </metadata>
  <defs
     id="defs58" />
  <sodipodi:namedview
     pagecolor="#ffffff"
     bordercolor="#666666"
     borderopacity="1"
     objecttolerance="10"
     gridtolerance="10"
     guidetolerance="10"
     inkscape:pageopacity="0"
     inkscape:pageshadow="2"
     inkscape:window-width="1296"
     inkscape:window-height="704"
     id="namedview56"
     showgrid="false"
     inkscape:zoom="0.35031968"
     inkscape:cx="-10.496305"
     inkscape:cy="154.95714"
     inkscape:window-x="70"
     inkscape:window-y="27"
     inkscape:window-maximized="1"
     inkscape:current-layer="svg54" />
  <g
     transform="translate(-25.830294,-208.18024)"
     id="g6">
    <path
       d="m 295.76,668.57 c 63.812,-53.385 67.864,-6.642 121.64,-37.499 28.875,-20.41 18.646,-39.248 15.735,-52.123 -2.911,-12.875 -2.148,-20.818 10.029,-20.262 9.267,0.425 38.642,35.928 0.296,75.474 -53.342,55.012 -77.576,8.923 -135.62,49.015 -49.341,34.081 -11.502,-13.766 -12.083,-14.605 z"
       id="path2"
       inkscape:connector-curvature="0"
       style="fill:#698000;stroke:#000000;stroke-width:4" />
    <path
       d="m 460.71,602.1 c -2.957,5.315 -6.524,15 -11.917,20.56 -53.342,55.012 -86.898,19.313 -130.49,49.292 -20.071,13.805 -25.7,14.147 -25.39,9.592 -6.737,11.349 -10.339,22.478 20.807,0.963 58.04,-40.09 82.251,6.345 135.04,-54.072 9.057,-9.341 9.287,-17.854 11.944,-26.335 z m -22.497,-44.245 c -3.533,3.541 -7.771,10.062 -6.587,15.291 2.076,9.177 8.198,28.321 1.923,42.941 13.237,-10.881 7.279,-28.077 3.242,-48.456 -0.026,-4.985 1.441,-8.874 1.422,-9.776 z"
       id="path4"
       inkscape:connector-curvature="0"
       style="fill-opacity:0.3137" />
  </g>
  <g
     transform="translate(-42.480294,-148.71024)"
     id="g32">
    <path
       d="m 403.7,579.48 c 0.015,51.189 -41.479,92.696 -92.667,92.696 -51.188,0 -92.683,-41.507 -92.667,-92.696 -0.016,-51.188 41.478,-92.693 92.667,-92.693 51.189,0 92.682,41.504 92.667,92.693 z"
       id="path8"
       inkscape:connector-curvature="0"
       style="fill:#698000;stroke:#000000;stroke-width:3.28740001;stroke-linecap:round;stroke-linejoin:round" />
    <path
       d="m 398.103,547.693 c 0.064,1.422 0.106,2.871 0.106,4.309 0,51.153 -41.511,92.663 -92.663,92.663 -39.984,0 -74.103,-25.38 -87.085,-60.885 2.245,49.163 42.87,88.38 92.583,88.38 51.152,0 92.663,-41.51 92.663,-92.663 0.001,-11.169 -1.977,-21.885 -5.604,-31.804 z"
       id="path10"
       inkscape:connector-curvature="0"
       style="fill-opacity:0.3137" />
    <path
       d="m 266.59,517.42 c 20.727,-32.065 16.92,-213.19 16.92,-213.19 h 50.76 c 0,0 -1.269,178.92 19.881,211.53"
       id="path12"
       inkscape:connector-curvature="0"
       style="fill:#698000;stroke:#000000;stroke-width:4;stroke-linecap:round;stroke-linejoin:round" />
    <path
       d="m 283.504,307.611 c 0,0 0.204,3.499 0.265,10.02 11.132,6.984 22.351,11.051 30.218,11.051 2.815,0 6.011,-0.484 9.438,-1.401 5.234,28.206 14.947,169.488 30.482,188.234 l -0.846,0.291 1.084,-0.026 c -14.558,-22.451 -18.471,-167.637 -19.511,-192.676 -0.118,-2.835 -0.208,-5.445 -0.265,-7.746 -0.043,-1.839 -0.103,-6.902 -0.105,-7.746 -3.025,0.124 -50.76,-0.001 -50.76,-0.001 z"
       id="path14"
       inkscape:connector-curvature="0"
       style="fill-opacity:0.3137" />
    <path
       d="m 311.034,180.058 c -19.28,0 -34.921,5.895 -46.424,15.73 -0.483,-0.361 -25.444,26.643 -22.815,53.509 3.721,38.036 47.481,69.239 69.239,69.239 22.603,0 70.058,-31.03 69.239,-69.239 -0.673,-31.378 -22.676,-53.761 -23.159,-53.324 -11.62,-9.937 -27.247,-15.915 -46.08,-15.915 z"
       id="path16"
       inkscape:connector-curvature="0"
       style="fill:#698000;stroke:#000000;stroke-width:4;stroke-linecap:round;stroke-linejoin:round" />
    <path
       d="m 369.5,239.15 c 0.003,10.591 -8.582,19.178 -19.173,19.178 -10.591,0 -19.176,-8.587 -19.173,-19.178 0.003,-10.591 8.582,-19.178 19.173,-19.178 10.591,0 19.176,8.587 19.173,19.178 z"
       id="path18"
       inkscape:connector-curvature="0"
       style="fill:#ffffff;stroke:#000000;stroke-width:4;stroke-linecap:round;stroke-linejoin:round" />
    <path
       d="m 352.46,242.53 c 0.002,3.53 -2.859,6.393 -6.39,6.393 -3.531,0 -6.393,-2.862 -6.392,-6.393 10e-4,-3.531 2.861,-6.393 6.392,-6.393 3.531,0 6.392,2.862 6.39,6.393 z"
       id="path20"
       inkscape:connector-curvature="0" />
    <path
       d="m 291.05,239.15 c 0.003,10.591 -8.583,19.178 -19.173,19.178 -10.59,0 -19.175,-8.587 -19.173,-19.178 0.002,-10.591 8.582,-19.178 19.173,-19.178 10.591,0 19.177,8.587 19.173,19.178 z"
       id="path22"
       inkscape:connector-curvature="0"
       style="fill:#ffffff;stroke:#000000;stroke-width:4;stroke-linecap:round;stroke-linejoin:round" />
    <path
       d="m 283.06,242.53 c 0.002,3.53 -2.86,6.393 -6.39,6.393 -3.53,0 -6.392,-2.862 -6.391,-6.393 10e-4,-3.531 2.861,-6.393 6.391,-6.393 3.53,0 6.392,2.862 6.39,6.393 z"
       id="path24"
       inkscape:connector-curvature="0" />
    <path
       d="m 373.15,216.37 c 1.485,6.457 3.067,13.301 3.067,20.41 0,38.217 -46.638,69.239 -69.24,69.239 -17.517,0 -51.687,-20.097 -64.348,-47.878 6.442,34.048 48.367,60.383 68.419,60.383 22.602,0 69.24,-31.022 69.24,-69.239 10e-4,-11.912 -2.887,-23.123 -7.138,-32.915 z"
       id="path26"
       inkscape:connector-curvature="0"
       style="fill-opacity:0.3137" />
    <path
       d="m 325.08,293.83 c -1.94,3.361 -5.499,4.939 -7.949,3.524 -2.451,-1.415 -2.864,-5.287 -0.923,-8.647 1.941,-3.36 5.5,-4.939 7.95,-3.524 2.45,1.415 2.863,5.287 0.922,8.647 z"
       id="path28"
       inkscape:connector-curvature="0" />
    <path
       d="m 297.382,293.826 c 1.94,3.361 5.5,4.939 7.95,3.524 2.451,-1.415 2.864,-5.287 0.922,-8.647 -1.942,-3.36 -5.499,-4.939 -7.95,-3.524 -2.449,1.415 -2.862,5.287 -0.922,8.647 z"
       id="path30"
       inkscape:connector-curvature="0" />
  </g>
  <path
     d="m 194.91271,513.70976 c -0.006,19.188 15.547,21.632 34.733,21.632 19.186,0 34.74,-2.444 34.735,-21.632 0.005,-19.187 -16.201,-29.778 -34.735,-34.744 -28.832,-7.725 -34.739,15.558 -34.733,34.744 z"
     id="path34"
     inkscape:connector-curvature="0"
     style="fill:#698000;stroke:#000000;stroke-width:4;stroke-linecap:round;stroke-linejoin:round" />
  <path
     d="m 256.68271,524.52976 c 1.391,5.184 -2.75,7.001 -8.076,8.428 -5.326,1.427 -9.82,1.924 -11.208,-3.261 -1.391,-5.183 1.801,-10.542 7.126,-11.97 5.325,-1.428 10.77,1.619 12.158,6.803 z"
     id="path36"
     inkscape:connector-curvature="0"
     style="fill:#ffffff;stroke:#000000;stroke-width:4;stroke-linecap:round;stroke-linejoin:round" />
  <path
     d="m 221.62371,530.14976 c -1.388,5.185 -5.881,4.688 -11.208,3.262 -5.327,-1.426 -9.467,-3.245 -8.077,-8.429 1.39,-5.184 6.832,-8.23 12.158,-6.803 5.326,1.427 8.518,6.786 7.127,11.97 z"
     id="path38"
     inkscape:connector-curvature="0"
     style="fill:#ffffff;stroke:#000000;stroke-width:4;stroke-linecap:round;stroke-linejoin:round" />
  <path
     d="m 238.78271,529.28976 c 0.002,5.367 -4.468,6.05 -9.982,6.05 -5.514,0 -9.983,-0.683 -9.982,-6.05 10e-4,-5.367 4.468,-9.719 9.982,-9.719 5.514,0 9.984,4.352 9.982,9.719 z"
     id="path40"
     inkscape:connector-curvature="0"
     style="fill:#ffffff;stroke:#000000;stroke-width:4;stroke-linecap:round;stroke-linejoin:round" />
  <path
     d="m 240.63971,482.76576 c 4.752,6.229 7.669,14.005 7.667,23.608 0.006,22.692 -15.552,25.592 -34.738,25.592 -2.969,0 -5.841,-0.09 -8.592,-0.291 6.293,3.055 15.016,3.675 24.665,3.675 19.187,0 34.745,-2.465 34.739,-21.652 0.004,-15.248 -10.236,-25.05 -23.741,-30.932 z"
     id="path42"
     inkscape:connector-curvature="0"
     style="fill-opacity:0.3137" />
  <path
     d="m 342.20971,513.70976 c 0.005,19.188 -15.547,21.632 -34.734,21.632 -19.187,0 -34.74,-2.444 -34.734,-21.632 -0.006,-19.187 16.201,-29.778 34.734,-34.744 28.832,-7.725 34.739,15.558 34.734,34.744 z"
     id="path44"
     inkscape:connector-curvature="0"
     style="fill:#698000;stroke:#000000;stroke-width:4;stroke-linecap:round;stroke-linejoin:round" />
  <path
     d="m 335.35971,524.52976 c 1.391,5.184 -2.75,7.001 -8.076,8.428 -5.326,1.427 -9.82,1.924 -11.208,-3.261 -1.391,-5.183 1.801,-10.542 7.126,-11.97 5.325,-1.428 10.77,1.619 12.158,6.803 z"
     id="path46"
     inkscape:connector-curvature="0"
     style="fill:#ffffff;stroke:#000000;stroke-width:4;stroke-linecap:round;stroke-linejoin:round" />
  <path
     d="m 300.29971,530.14976 c -1.388,5.185 -5.881,4.688 -11.207,3.262 -5.326,-1.426 -9.467,-3.245 -8.077,-8.429 1.39,-5.184 6.832,-8.23 12.158,-6.803 5.326,1.427 8.517,6.786 7.126,11.97 z"
     id="path48"
     inkscape:connector-curvature="0"
     style="fill:#ffffff;stroke:#000000;stroke-width:4;stroke-linecap:round;stroke-linejoin:round" />
  <path
     d="m 317.45971,529.28976 c 0.002,5.367 -4.468,6.05 -9.982,6.05 -5.514,0 -9.983,-0.683 -9.982,-6.05 0.001,-5.367 4.469,-9.719 9.982,-9.719 5.513,0 9.984,4.352 9.982,9.719 z"
     id="path50"
     inkscape:connector-curvature="0"
     style="fill:#ffffff;stroke:#000000;stroke-width:4;stroke-linecap:round;stroke-linejoin:round" />
  <path
     d="m 323.14971,477.95976 c 8.935,6.897 11.292,20.873 11.289,33.206 0.005,19.854 -16.081,22.392 -35.929,22.392 -4.307,0 -8.414,-0.139 -12.24,-0.528 5.866,1.878 13.216,2.3 21.202,2.3 19.188,0 34.745,-2.438 34.739,-21.625 0.004,-15.033 -3.625,-32.565 -19.061,-35.745 z"
     id="path52"
     inkscape:connector-curvature="0"
     style="fill-opacity:0.3137" />
  <g
     id="g877"
     transform="matrix(0.56877121,0,0,0.56877121,394.59987,81.636662)">
    <path
       id="path2-3"
       d="m 253.386,358.62526 a 447.16579,447.16327 0 1 1 -894.32119,0 447.16579,447.16327 0 1 1 894.32119,0 z"
       style="fill:none;stroke:#ff0000;stroke-width:105.67675018"
       inkscape:connector-curvature="0" />
    <path
       id="path4-6"
       d="M -526.93151,25.466408 139.40112,691.79905"
       style="fill:none;stroke:#ff0000;stroke-width:100.00039673"
       inkscape:connector-curvature="0" />
  </g>
</svg>
