<?xml version="1.0" encoding="UTF-8" standalone="no"?>
<svg
   xmlns:dc="http://purl.org/dc/elements/1.1/"
   xmlns:cc="http://creativecommons.org/ns#"
   xmlns:rdf="http://www.w3.org/1999/02/22-rdf-syntax-ns#"
   xmlns:svg="http://www.w3.org/2000/svg"
   xmlns="http://www.w3.org/2000/svg"
   xmlns:sodipodi="http://sodipodi.sourceforge.net/DTD/sodipodi-0.dtd"
   xmlns:inkscape="http://www.inkscape.org/namespaces/inkscape"
   width="264.5845mm"
   height="265.72324mm"
   version="1.1"
   viewBox="0 0 937.51892 941.55347"
   id="svg92"
   sodipodi:docname="carnivorous-dinosaur-dies.svg"
   inkscape:version="0.92.4 (f8dce91, 2019-08-02)">
  <metadata
     id="metadata98">
    <rdf:RDF>
      <cc:Work
         rdf:about="">
        <dc:format>image/svg+xml</dc:format>
        <dc:type
           rdf:resource="http://purl.org/dc/dcmitype/StillImage" />
        <dc:title></dc:title>
      </cc:Work>
    </rdf:RDF>
  </metadata>
  <defs
     id="defs96" />
  <sodipodi:namedview
     pagecolor="#ffffff"
     bordercolor="#666666"
     borderopacity="1"
     objecttolerance="10"
     gridtolerance="10"
     guidetolerance="10"
     inkscape:pageopacity="0"
     inkscape:pageshadow="2"
     inkscape:window-width="1296"
     inkscape:window-height="704"
     id="namedview94"
     showgrid="false"
     inkscape:zoom="0.15086362"
     inkscape:cx="60.257779"
     inkscape:cy="187.56264"
     inkscape:window-x="70"
     inkscape:window-y="27"
     inkscape:window-maximized="1"
     inkscape:current-layer="svg92" />
  <g
     transform="translate(79.881536,28.504721)"
     id="g90">
    <g
       transform="matrix(1.0675,0,0,1.0675,44.967,-30.541)"
       id="g80">
      <path
         d="m 132.02,739.32 c -3.8521,-34.736 11.334,-125.78 -25.264,-110.65 -21.991,15.821 -28.523,54.759 -20.685,85.801 -32.995,3.6483 -45.806,36.597 -45.926,31.618 15.82,0.20091 71.26,-2.0915 91.875,-6.7713 z"
         id="path2"
         inkscape:connector-curvature="0"
         style="fill:#8fc34b;fill-rule:evenodd;stroke:#000000;stroke-width:11.14000034;stroke-linejoin:round" />
      <path
         d="m 391.79,198.17 30.435,57.143 c 40.727,-1.408 32.238,-74.327 -30.435,-57.143 z"
         id="path4"
         inkscape:connector-curvature="0"
         style="fill:#1c8449;fill-rule:evenodd;stroke:#000000;stroke-width:7.6244998;stroke-linejoin:round" />
      <path
         d="m 424.39,264.85 13.831,48.509 c 34.784,2.8038 41.868,-61.544 -13.831,-48.509 z"
         id="path6"
         inkscape:connector-curvature="0"
         style="fill:#1c8449;fill-rule:evenodd;stroke:#000000;stroke-width:7.6244998;stroke-linejoin:round" />
      <path
         d="m 442.33,326.79 9.1822,39.875 c 34.784,2.8038 46.517,-52.91 -9.1822,-39.875 z"
         id="path8"
         inkscape:connector-curvature="0"
         style="fill:#1c8449;fill-rule:evenodd;stroke:#000000;stroke-width:5.6718998;stroke-linejoin:round" />
      <path
         d="m 353.99,148.62 34.42,31.905 c 42.252,5.4435 -5.7198,-82.771 -34.42,-31.905 z"
         id="path10"
         inkscape:connector-curvature="0"
         style="fill:#1c8449;fill-rule:evenodd;stroke:#000000;stroke-width:3.99819994;stroke-linejoin:round" />
      <path
         d="m 264.22,123.9 69.62,12.644 c 13.229,1.9757 -7.3219,-30.245 -18.025,-32.83 -6.5668,-1.5863 -28.655,5.664 -51.596,20.186 z"
         id="path12"
         inkscape:connector-curvature="0"
         style="fill:#1c8449;fill-rule:evenodd;stroke:#000000;stroke-width:7.90339994;stroke-linejoin:round" />
      <path
         d="m 197.35,134.24 49.696,-9.2726 c 13.229,1.9757 -9.0241,-16.462 -19.685,-19.215 -10.547,-2.7235 -15.176,11.65 -30.011,28.488 z"
         id="path14"
         inkscape:connector-curvature="0"
         style="fill:#1c8449;fill-rule:evenodd;stroke:#000000;stroke-width:8.74030018;stroke-linejoin:round" />
      <path
         d="m 471.65,553.01 -3.4977,38.466 c 31.831,5.5594 44.94,-38.195 3.4977,-38.466 z"
         id="path16"
         inkscape:connector-curvature="0"
         style="fill:#1c8449;fill-rule:evenodd;stroke:#000000;stroke-width:5.6718998;stroke-linejoin:round" />
      <path
         d="m 476.97,622.27 48.631,19.211 c 15.92,0.98001 -8.8124,-20.762 -13.25,-26.711 -6.7196,-9.0079 -30.036,-3.3381 -35.381,7.5001 z"
         id="path18"
         inkscape:connector-curvature="0"
         style="fill:#1c8449;fill-rule:evenodd;stroke:#000000;stroke-width:4.92799997;stroke-linejoin:round" />
      <path
         d="m 540.93,639.61 43.465,16.863 c -5.2695,-6.0061 -13.812,-30.079 -18.675,-29.951 -5.2896,3.4955 -19.546,8.2551 -24.79,13.088 z"
         id="path20"
         inkscape:connector-curvature="0"
         style="fill:#1c8449;fill-rule:evenodd;stroke:#000000;stroke-width:4.09119987;stroke-linejoin:round" />
      <path
         d="m 587.58,657.1 46.752,10.288 c -5.2695,-6.0061 -26.023,-31.018 -30.886,-30.89 -5.2895,3.4955 -10.623,15.769 -15.867,20.602 z"
         id="path22"
         inkscape:connector-curvature="0"
         style="fill:#1c8449;fill-rule:evenodd;stroke:#000000;stroke-width:4.09119987;stroke-linejoin:round" />
      <path
         d="m 653.78,675.32 43.465,7.4705 c -8.9628,-22.74 -23.563,-32.489 -43.465,-7.4705 z"
         id="path24"
         inkscape:connector-curvature="0"
         style="fill:#1c8449;fill-rule:evenodd;stroke:#000000;stroke-width:4.09119987;stroke-linejoin:round" />
      <path
         d="m 329.59,459.81 c -18.672,-22.317 -40.363,6.2429 -56.453,-12.619 2.2624,22.527 -16.957,21.635 -24.574,6.3095 l -14.611,28.891 c 41.769,2.363 64.944,-13.869 95.638,-22.581 z"
         id="path26"
         inkscape:connector-curvature="0"
         style="fill-rule:evenodd;stroke:#000000;stroke-width:0.92982px" />
      <path
         d="m 80.069,327.32 c -5.9274,-46.671 8.5719,-85.354 31.818,-116.09 23.146,-26.584 51.224,-54.153 80.443,-69.397 72.075,-37.094 162.88,-9.2579 213.1,60.23 39.996,112.09 76.432,240.56 16.058,289.16 28.497,-9.3697 29.648,-77.44 81.246,-98.622 25.791,31.051 14.61,83.175 -50.72,148.4 14.301,10.877 26.475,26.612 23.481,77.019 l -12.21,9.3925 30.995,2.8178 216.97,64.809 c -88.369,21.656 -270.92,77.013 -282.72,12.21 l 4.6963,17.376 5.6355,14.089 -111.3,0.46962 c 8.8547,-17.24 4.7866,-33.769 25.83,-34.752 2.7739,-100.14 37.357,-74.51 48.372,-90.168 0,0 -29.866,-2.4589 -46.493,48.841 l -6.5748,34.752 c -9.6273,9.0797 -21.036,7.4725 -27.238,37.101 l -209.92,4.6963 c 0.94402,-57.744 15.53,-70.681 5.1388,-180.68 -3.2399,-34.296 -2.6572,-66.073 -5.913,-95.689 -5.6241,-51.159 -16.18,-95.866 -30.691,-135.96 z"
         id="path28"
         inkscape:connector-curvature="0"
         style="fill:#8fc34b;fill-rule:evenodd;stroke:#000000;stroke-width:13.76099968;stroke-linejoin:round" />
      <path
         d="m 134.98,349.72 c 17.094,42.683 30.102,85.358 25.57,134.82 65.746,7.3403 146.06,2.0632 216.51,-35.532 8.5028,7.3045 12.554,3.3212 15.494,-3.896 1.9742,-4.8457 3.8124,-11.696 4.796,-15.519 13.176,-51.739 -7.6317,-121.06 -27.596,-145.63 -207.89,25.001 -188.58,37.251 -233.45,66.083 z"
         id="path30"
         inkscape:connector-curvature="0"
         style="fill-rule:evenodd;stroke:#000000;stroke-width:0.92982px" />
      <path
         d="m 383.72,357.2 -0.55017,63.531 c -27.643,41.744 -77.259,49.058 -126.42,54.944 4.6457,-44.127 -25.872,-108.03 126.97,-118.47 z"
         id="path32"
         inkscape:connector-curvature="0"
         style="fill:#cb1d3b;fill-rule:evenodd;stroke:#cb1d3b;stroke-width:12.92399979" />
      <path
         d="m 147.2,342.58 c 41.216,-19.255 73.61,-41.909 160.72,-46.901 -6.4342,13.059 -2.2871,26.593 -8.6386,34.553 -4.486,-3.5731 -7.5501,-7.8571 -10.168,-12.364 -2.8154,-4.3731 -9.098,-6.2351 -10.704,-3.3557 -2.2238,3.9862 0.40224,14.318 -3.297,15.058 -25.924,-30.263 -32.209,-0.71232 -33.008,16.507 -15.866,-7.8544 -18.161,-14.665 -16.885,-21.201 0,0 -18.691,-3.5374 -15.959,21.115 -6.0814,0.70284 -12.068,1.0762 -15.546,-7.3349 -12.704,-16.211 -29.497,22.303 -24.769,38.313 -21.401,0.20162 -20.719,-22.241 -21.742,-34.389 z"
         id="path34"
         inkscape:connector-curvature="0"
         style="fill:#ffffff;fill-rule:evenodd;stroke:#000000;stroke-width:2.66109991" />
      <path
         d="m 116.51,310.18 c -2.7503,-19.427 18.363,-76.509 54.828,-25.198 17.65,22.819 -22.31,52.921 -54.828,25.198 z"
         id="path36"
         inkscape:connector-curvature="0"
         style="fill-rule:evenodd;stroke:#000000;stroke-width:1.3017;stroke-linejoin:round" />
      <path
         d="m 141.96,293.6 c 31.657,0.82328 7.3503,-24.206 0.81806,-13.456 -1.1506,2.1542 -0.81806,6.3895 -0.81806,13.456 z"
         id="path38"
         inkscape:connector-curvature="0"
         style="fill:#ffffff;fill-rule:evenodd;stroke:#ffffff;stroke-width:1.48769999;stroke-linejoin:round" />
      <path
         d="m 331.36,192.94 c -11.414,-15.344 -29.894,-21.975 -48.534,-15.531 -8.4016,2.9877 -15.096,9.1946 -20.797,17.533 -6.4764,9.6966 -9.0185,21.407 -7.8185,32.764 3.4525,24.754 22.12,40.066 45.646,40.621 17.02,-1.4162 33.516,-14.491 37.485,-40.294 1.1515,-13.082 -1.2698,-26.567 -5.9811,-35.092 z"
         id="path40"
         inkscape:connector-curvature="0"
         style="fill-rule:evenodd;stroke:#000000;stroke-width:0.92982px" />
      <path
         d="m 295.38,210.75 c 16.531,2.2159 19.337,-18.932 14.097,-24.549 -4.8752,-3.1621 -13.491,-1.6573 -18.25,3.3076 -6.3377,5.9738 -5.0898,12.961 -1.8243,16.592 5.6067,-1.5581 7.5313,-0.1172 5.9773,4.6491 z"
         id="path42"
         inkscape:connector-curvature="0"
         style="fill:#ffffff;fill-rule:evenodd;stroke:#ffffff;stroke-width:1.85959995;stroke-linejoin:round" />
      <path
         d="M 337.81,178.45 C 317.495,147.334 277.698,148.838 265.487,164.361"
         id="path44"
         inkscape:connector-curvature="0"
         style="fill:none;stroke:#000000;stroke-width:3.25440001" />
      <path
         d="m 360.71,284.76 c 3.9563,34.331 -2.5193,73.265 -20.632,83.742 -12.801,-28.946 -20.49,-57.604 -49.456,-70.392 22.156,-14.1 46.061,-14.212 70.088,-13.35 z"
         id="path46"
         inkscape:connector-curvature="0"
         style="fill:#ffffff;fill-rule:evenodd;stroke:#000000;stroke-width:8.01309967" />
      <path
         d="m 127.01,356.37 c 66.533,-56.052 149.89,-77.395 244.74,-75.049 l -2.6567,4.6491 c -81.77,3.9201 -162.08,23.313 -242.08,70.4 z"
         id="path48"
         inkscape:connector-curvature="0"
         style="fill-rule:evenodd;stroke:#000000;stroke-width:4.27710009;stroke-linejoin:round" />
      <path
         d="m 370.69,283.65 c 32.143,95.255 30.693,123.82 18.598,161.33 -0.053,-5.6025 -5.0201,1.5235 -5.038,-4.016 -0.17304,-53.238 -5.3522,-104.67 -22.013,-152.62 z"
         id="path50"
         inkscape:connector-curvature="0"
         style="fill-rule:evenodd" />
      <path
         d="m 194.12,486.56 c -2.8222,-12.737 -12.824,-23.586 -21.206,-33.145 1.4931,21.961 -10.318,20.537 -13.693,31.595 z"
         id="path52"
         inkscape:connector-curvature="0"
         style="fill:#ffffff;fill-rule:evenodd;stroke:#000000;stroke-width:3.02020001;stroke-linejoin:round" />
      <path
         d="m 234.23,482.79 c -7.0084,-3.7135 -11.557,-7.4868 -10.5,-10.598 0.83888,-2.469 -0.44817,-4.6743 -2.3161,-6.8539 -8.566,-14.411 -14.375,13.792 -14.469,21.554 z"
         id="path54"
         inkscape:connector-curvature="0"
         style="fill:#ffffff;fill-rule:evenodd;stroke:#000000;stroke-width:2.38540006;stroke-linejoin:round" />
      <path
         d="m 265.86,477.13 c -6.4922,-5.3572 -10.552,-12.295 -15.473,-18.116 -15.377,8.2918 -9.6793,15.74 -9.4877,22.55 z"
         id="path56"
         inkscape:connector-curvature="0"
         style="fill:#ffffff;fill-rule:evenodd;stroke:#000000;stroke-width:2.38540006;stroke-linejoin:round" />
      <path
         d="m 159.54,484.21 c 83.632,3.3712 139.74,7.6708 220.72,-34.871 l -2.0248,-7.2484 c -71.965,39.023 -125.87,40.929 -218.69,42.12 z"
         id="path58"
         inkscape:connector-curvature="0"
         style="fill-rule:evenodd;stroke:#000000;stroke-width:4.27710009;stroke-linejoin:round" />
      <path
         d="m 375.56,451.79 c -11.315,-63.183 -33.344,-53.11 -33.055,7.688 6.2171,-4.5667 26.838,-7.3169 33.055,-7.688 z"
         id="path60"
         inkscape:connector-curvature="0"
         style="fill:#ffffff;fill-rule:evenodd;stroke:#000000;stroke-width:5.17539978;stroke-linejoin:round" />
      <path
         d="m 351.17,463.46 c -29.983,-17.464 -35.098,-1.9678 -72.393,-17.932 l -9.2982,38.521 z"
         id="path62"
         inkscape:connector-curvature="0"
         style="fill-rule:evenodd;stroke:#000000;stroke-width:0.92982px" />
      <path
         d="m 294.18,473.96 c 1.1456,-8.3459 -8.2273,-11.299 -13.148,-17.12 -15.377,8.2918 -13.664,12.752 -13.473,19.561 6.2171,-4.5667 20.404,-2.0704 26.621,-2.4415 z"
         id="path64"
         inkscape:connector-curvature="0"
         style="fill:#ffffff;fill-rule:evenodd;stroke:#000000;stroke-width:2.38540006;stroke-linejoin:round" />
      <path
         d="m 320.21,726.22 -9.8589,0.56337 -115.39,6.5938 c -3.8478,-43.384 -20.512,-73.813 -15.469,-102.97 12.591,-72.791 106.49,-89.263 138.22,-20.7 10.963,23.692 12.903,57.492 13.183,95.044 0.0437,5.8723 -16.7,11.178 -13.882,20.41 z"
         id="path66"
         inkscape:connector-curvature="0"
         style="fill:#009143;fill-rule:evenodd;stroke:#000000;stroke-width:8.20930004;stroke-linejoin:round" />
      <path
         d="m 220.41,605.81 70.444,-14.089"
         id="path68"
         inkscape:connector-curvature="0"
         style="fill:none;stroke:#000000;stroke-width:4.27710009;stroke-linejoin:round" />
      <path
         d="m 258.45,698.33 70.444,-14.089"
         id="path70"
         inkscape:connector-curvature="0"
         style="fill:none;stroke:#000000;stroke-width:4.27710009;stroke-linejoin:round" />
      <path
         d="M 190.72,645.49 313.03,631.877"
         id="path72"
         inkscape:connector-curvature="0"
         style="fill:none;stroke:#000000;stroke-width:5.16790009;stroke-linejoin:round" />
      <path
         d="m 252.32,672.62 71.42,-7.7468"
         id="path74"
         inkscape:connector-curvature="0"
         style="fill:none;stroke:#000000;stroke-width:4.27710009;stroke-linejoin:round" />
      <path
         d="m 216.18,722.75 70.444,-14.089"
         id="path76"
         inkscape:connector-curvature="0"
         style="fill:none;stroke:#000000;stroke-width:4.27710009;stroke-linejoin:round" />
      <path
         d="m 114.74,526.85 -2.4238,-12.901 c -0.67869,-48.533 -6.5604,28.28 -1.3129,-60.653 2.4944,-42.274 -36.952,-68.844 -82.826,-62.043 -7.4453,64.412 97.349,98.718 86.563,135.6 z"
         id="path78"
         inkscape:connector-curvature="0"
         style="fill:#8fc34b;fill-rule:evenodd;stroke:#000000;stroke-width:11.14000034;stroke-linejoin:round" />
    </g>
    <flowRoot
       font-size="40px"
       letter-spacing="0px"
       word-spacing="0px"
       style="font-size:40px;line-height:125%;font-family:sans-serif;letter-spacing:0px;word-spacing:0px;fill:#000000;stroke-width:1px"
       xml:space="preserve"
       id="flowRoot88"><flowRegion
         id="flowRegion84"><rect
           x="-3260.8"
           y="-963.90002"
           width="3014.3"
           height="1814.2"
           id="rect82" /></flowRegion><flowPara
         id="flowPara86" /></flowRoot>  </g>
  <path
     inkscape:connector-curvature="0"
     style="fill:none;stroke:#ff0000;stroke-width:99.07309723"
     d="m 887.97725,470.77684 a 419.22278,419.22042 0 1 1 -838.43583,0 419.22278,419.22042 0 1 1 838.43583,0 z"
     id="path2-6" />
  <path
     inkscape:connector-curvature="0"
     style="fill:none;stroke:#ff0000;stroke-width:93.75145721"
     d="m 156.4211,158.43684 624.69409,624.694"
     id="path4-7" />
</svg>
