<?xml version="1.0" encoding="UTF-8" standalone="no"?>
<svg
   xmlns:dc="http://purl.org/dc/elements/1.1/"
   xmlns:cc="http://creativecommons.org/ns#"
   xmlns:rdf="http://www.w3.org/1999/02/22-rdf-syntax-ns#"
   xmlns:svg="http://www.w3.org/2000/svg"
   xmlns="http://www.w3.org/2000/svg"
   xmlns:xlink="http://www.w3.org/1999/xlink"
   xmlns:sodipodi="http://sodipodi.sourceforge.net/DTD/sodipodi-0.dtd"
   xmlns:inkscape="http://www.inkscape.org/namespaces/inkscape"
   viewBox="0 0 500.78176 502.93716"
   version="1.1"
   id="svg510"
   sodipodi:docname="plant-dies.svg"
   width="500.78177"
   height="502.93713"
   inkscape:version="0.92.4 (f8dce91, 2019-08-02)">
  <metadata
     id="metadata514">
    <rdf:RDF>
      <cc:Work
         rdf:about="">
        <dc:format>image/svg+xml</dc:format>
        <dc:type
           rdf:resource="http://purl.org/dc/dcmitype/StillImage" />
        <dc:title></dc:title>
      </cc:Work>
    </rdf:RDF>
  </metadata>
  <sodipodi:namedview
     pagecolor="#ffffff"
     bordercolor="#666666"
     borderopacity="1"
     objecttolerance="10"
     gridtolerance="10"
     guidetolerance="10"
     inkscape:pageopacity="0"
     inkscape:pageshadow="2"
     inkscape:window-width="1296"
     inkscape:window-height="704"
     id="namedview512"
     showgrid="false"
     inkscape:snap-intersection-paths="false"
     inkscape:object-nodes="true"
     inkscape:zoom="0.84984931"
     inkscape:cx="322.77936"
     inkscape:cy="185.89881"
     inkscape:window-x="70"
     inkscape:window-y="27"
     inkscape:window-maximized="1"
     inkscape:current-layer="svg510" />
  <defs
     id="defs62">
    <filter
       id="o">
      <feGaussianBlur
         stdDeviation="5.19736"
         id="feGaussianBlur2" />
    </filter>
    <linearGradient
       id="m">
      <stop
         stop-color="#babdb6"
         offset="0"
         id="stop5" />
      <stop
         stop-color="#babdb6"
         stop-opacity="0"
         offset="1"
         id="stop7" />
    </linearGradient>
    <linearGradient
       id="t">
      <stop
         stop-color="#803f00"
         offset="0"
         id="stop10" />
      <stop
         stop-color="#bf5e00"
         offset="1"
         id="stop12" />
    </linearGradient>
    <linearGradient
       id="g">
      <stop
         stop-color="#2e3436"
         offset="0"
         id="stop15" />
      <stop
         stop-color="#2e3436"
         stop-opacity="0"
         offset="1"
         id="stop17" />
    </linearGradient>
    <linearGradient
       id="n">
      <stop
         stop-color="#590000"
         offset="0"
         id="stop20" />
      <stop
         stop-color="#bf0000"
         offset="1"
         id="stop22" />
    </linearGradient>
    <linearGradient
       id="e">
      <stop
         stop-color="#37a42c"
         offset="0"
         id="stop25" />
      <stop
         stop-color="#00892c"
         offset="1"
         id="stop27" />
    </linearGradient>
    <linearGradient
       id="h">
      <stop
         stop-color="#00892c"
         offset="0"
         id="stop30" />
      <stop
         stop-color="#006e29"
         offset="1"
         id="stop32" />
    </linearGradient>
    <linearGradient
       id="l"
       x1="191.25999"
       x2="770"
       y1="755.15997"
       y2="692.09003"
       gradientUnits="userSpaceOnUse">
      <stop
         stop-color="#fff"
         offset="0"
         id="stop35" />
      <stop
         stop-color="#fff"
         stop-opacity=".50602"
         offset="1"
         id="stop37" />
    </linearGradient>
    <linearGradient
       id="ad"
       x1="-126.5"
       x2="-93.278"
       y1="666.09003"
       y2="-208.81"
       gradientTransform="matrix(0.79984,0,0.4903,0.34018,-495.4,312.26)"
       gradientUnits="userSpaceOnUse"
       xlink:href="#m" />
    <linearGradient
       id="ac"
       x1="-387.51001"
       x2="-247.39"
       y1="565.70001"
       y2="437.76001"
       gradientUnits="userSpaceOnUse"
       xlink:href="#n" />
    <linearGradient
       id="k"
       x1="708.59998"
       x2="252.60001"
       gradientUnits="userSpaceOnUse"
       xlink:href="#n" />
    <linearGradient
       id="ab"
       x1="-269.85001"
       x2="-237.12"
       gradientUnits="userSpaceOnUse"
       xlink:href="#e" />
    <linearGradient
       id="aa"
       x1="-383.45001"
       x2="-378.38"
       y1="535.23999"
       y2="565.29999"
       gradientUnits="userSpaceOnUse"
       xlink:href="#g" />
    <linearGradient
       id="z"
       x1="214"
       x2="224"
       y1="1122.1"
       y2="1181.3"
       gradientTransform="matrix(0.77146,-0.01821,0.01821,0.77146,-587.35,-473.75)"
       gradientUnits="userSpaceOnUse"
       xlink:href="#g" />
    <linearGradient
       id="y"
       x1="-233.25999"
       x2="-332.35001"
       gradientUnits="userSpaceOnUse"
       xlink:href="#t" />
    <linearGradient
       id="b"
       x1="-1316.9"
       x2="-1250.3"
       y1="87.497002"
       y2="56.605"
       gradientUnits="userSpaceOnUse"
       xlink:href="#e" />
    <linearGradient
       id="a"
       x1="-1360.2"
       x2="-1310.9"
       y1="124.88"
       y2="97.334999"
       gradientUnits="userSpaceOnUse"
       xlink:href="#h" />
    <linearGradient
       id="d"
       x1="-1683"
       x2="-1729.8"
       y1="-199.53"
       y2="-166.14"
       gradientUnits="userSpaceOnUse"
       xlink:href="#e" />
    <linearGradient
       id="c"
       x1="-1772.5"
       x2="-1712.5"
       y1="-113.64"
       y2="-145.14"
       gradientUnits="userSpaceOnUse"
       xlink:href="#h" />
    <linearGradient
       id="x"
       x2="0"
       y1="666.09003"
       y2="88.094002"
       gradientTransform="matrix(0.79984,0,0.4903,0.34018,619.45857,855.7114)"
       gradientUnits="userSpaceOnUse"
       xlink:href="#m" />
    <linearGradient
       id="s"
       x1="87.929001"
       x2="228.05"
       y1="574.78998"
       y2="446.85001"
       gradientUnits="userSpaceOnUse"
       xlink:href="#n" />
    <linearGradient
       id="j"
       x1="-1099.5"
       x2="-1004.8"
       y1="55.902"
       y2="2.352"
       gradientTransform="matrix(-0.89636,0,0,0.89636,-2433.9,-702.22)"
       gradientUnits="userSpaceOnUse"
       xlink:href="#e" />
    <linearGradient
       id="i"
       x1="-1082.4"
       x2="-1148.2"
       y1="28.700001"
       y2="85.597"
       gradientTransform="matrix(-0.89636,0,0,0.89636,-2433.9,-393.95)"
       gradientUnits="userSpaceOnUse"
       xlink:href="#h" />
    <linearGradient
       id="w"
       x1="205.59"
       x2="238.32001"
       gradientUnits="userSpaceOnUse"
       xlink:href="#e"
       gradientTransform="translate(23.697957,98.455551)" />
    <linearGradient
       id="r"
       x1="91.990997"
       x2="97.068001"
       y1="544.33002"
       y2="574.39001"
       gradientUnits="userSpaceOnUse"
       xlink:href="#g" />
    <linearGradient
       id="q"
       x1="214"
       x2="224"
       y1="1122.1"
       y2="1181.3"
       gradientTransform="matrix(0.77146,-0.01821,0.01821,0.77146,-111.91,-464.67)"
       gradientUnits="userSpaceOnUse"
       xlink:href="#g" />
    <linearGradient
       id="p"
       x1="242.17999"
       x2="143.10001"
       gradientUnits="userSpaceOnUse"
       xlink:href="#t" />
    <linearGradient
       id="v"
       x1="-1360.2"
       x2="-1310.9"
       y1="124.88"
       y2="97.334999"
       gradientTransform="matrix(-0.54343,-0.11253,-0.11253,0.54343,-382.36661,92.300151)"
       gradientUnits="userSpaceOnUse"
       xlink:href="#h" />
    <linearGradient
       id="u"
       x1="-126.5"
       x2="-65.921997"
       y1="666.09003"
       y2="-743.34998"
       gradientTransform="matrix(0.79984,0,0.4903,0.34018,-19.961,321.35)"
       gradientUnits="userSpaceOnUse"
       xlink:href="#m" />
    <linearGradient
       id="f"
       x1="-237.7"
       x2="-204.97"
       gradientUnits="userSpaceOnUse"
       xlink:href="#e" />
    <linearGradient
       inkscape:collect="always"
       xlink:href="#e"
       id="linearGradient1339"
       gradientUnits="userSpaceOnUse"
       x1="-1316.9"
       y1="87.497002"
       x2="-1250.3"
       y2="56.605" />
    <linearGradient
       inkscape:collect="always"
       xlink:href="#h"
       id="linearGradient1341"
       gradientUnits="userSpaceOnUse"
       x1="-1360.2"
       y1="124.88"
       x2="-1310.9"
       y2="97.334999" />
    <linearGradient
       inkscape:collect="always"
       xlink:href="#e"
       id="linearGradient1343"
       gradientUnits="userSpaceOnUse"
       gradientTransform="matrix(-0.89636,0,0,0.89636,-2433.9,-702.22)"
       x1="-1099.5"
       y1="55.902"
       x2="-1004.8"
       y2="2.352" />
    <linearGradient
       inkscape:collect="always"
       xlink:href="#h"
       id="linearGradient1345"
       gradientUnits="userSpaceOnUse"
       gradientTransform="matrix(-0.89636,0,0,0.89636,-2433.9,-393.95)"
       x1="-1082.4"
       y1="28.700001"
       x2="-1148.2"
       y2="85.597" />
    <linearGradient
       inkscape:collect="always"
       xlink:href="#e"
       id="linearGradient1347"
       gradientUnits="userSpaceOnUse"
       x1="-1683"
       y1="-199.53"
       x2="-1729.8"
       y2="-166.14" />
    <linearGradient
       inkscape:collect="always"
       xlink:href="#h"
       id="linearGradient1349"
       gradientUnits="userSpaceOnUse"
       x1="-1772.5"
       y1="-113.64"
       x2="-1712.5"
       y2="-145.14" />
  </defs>
  <path
     style="fill:#8f6b32;fill-opacity:1;stroke:none;stroke-width:1px;stroke-linecap:butt;stroke-linejoin:miter;stroke-opacity:1"
     d="m 201.17062,418.25059 c 0,0 1.90516,14.01755 4.25878,18.2519 2.35362,4.23435 3.41264,4.6304 7.30076,7.30076 3.88812,2.67036 12.45016,3.67787 16.42671,7.30076 3.97655,3.62289 6.99656,12.47213 6.99656,12.47213 l -40.16262,-0.7112 -1.51255,-29.70863 z"
     id="path1817"
     inkscape:connector-curvature="0"
     sodipodi:nodetypes="czzzcccc" />
  <path
     d="m 254.85014,46.94796 c 7.85717,14.1958 8.32374,30.9829 2.02501,45.90928 -11.38872,32.28058 -37.72008,60.33507 -35.93247,96.397 12.82248,29.7365 30.99407,48.75799 24.2904,82.22709 -13.44745,52.06464 -54.6539,93.65035 -59.98475,148.34994 -3.5278,13.84854 5.26383,38.38822 10.74446,43.02149 -3.58147,-41.45117 19.14942,-78.48027 38.10592,-113.48111 17.55881,-30.75697 36.88086,-68.23488 27.54578,-103.85003 -6.48079,-37.53071 -38.95278,-52.01387 -16.12405,-98.77812 13.47741,-23.53849 28.26112,-50.649165 20.59841,-78.627496 -2.14133,-7.776441 -6.11982,-14.983243 -11.26637,-21.17109 z"
     id="path138"
     inkscape:connector-curvature="0"
     style="fill:#8f6b32;stroke-width:0.50770003" />
  <path
     d="m 254.85014,46.942883 c 5.76239,10.410896 7.54188,22.224567 5.60044,33.666602 2.23129,-6.716363 3.15769,-13.725161 2.68131,-20.625312 -2.16259,-4.684091 -4.98363,-9.076153 -8.28211,-13.041798 z m 11.94669,50.785231 c -4.2958,14.391266 -11.95634,28.156026 -19.24488,40.885586 -3.76129,7.70435 -6.01726,14.53698 -7.13927,20.7365 1.2435,-3.93721 2.92089,-8.13183 5.10847,-12.6133 8.64867,-15.10458 17.82789,-31.67743 21.27568,-49.008786 z m -42.44068,65.335916 c -2.48123,8.34811 -3.86649,17.00896 -3.41113,26.19427 12.50313,28.99678 30.08224,47.80554 24.73464,79.7546 0.56182,-1.87398 1.09556,-3.74744 1.58656,-5.64817 6.70418,-33.47012 -11.46793,-52.49618 -24.2904,-82.23217 -0.30954,-6.2442 0.22755,-12.24369 1.38033,-18.07107 z m 37.44288,122.18308 c -5.62785,19.76222 -15.9169,38.92028 -25.67084,56.00439 -13.814,25.5038 -29.62886,52.09002 -35.80858,80.6786 7.15755,-25.5236 21.28075,-49.48044 33.77778,-72.5554 11.08513,-19.4175 22.86529,-41.51311 27.70164,-64.12759 z m -72.15432,111.52138 c -2.09137,7.45964 -3.62082,15.12845 -4.39481,23.06888 -3.5278,13.84853 5.26028,38.3943 10.74091,43.02757 -0.32133,-3.71865 -0.42957,-7.40887 -0.3491,-11.05821 -5.26333,-8.19327 -11.40903,-28.12811 -8.36131,-40.09256 0.49602,-5.08919 1.29814,-10.06465 2.364,-14.94568 z"
     id="path140"
     inkscape:connector-curvature="0"
     style="fill:#382509;stroke-width:0.50770003" />
  <path
     d="m 256.88094,47.958283 c 7.85767,14.1958 8.32983,30.988993 2.0308,45.915373 -11.38873,32.280584 -37.72363,60.335074 -35.93551,96.402074 12.82247,29.7365 30.99407,48.76154 24.2904,82.23217 -13.44745,52.06464 -54.65391,93.64527 -59.98984,148.34487 -3.5278,13.84853 5.25978,38.3943 10.74091,43.02757 v -0.0317 c -5.4725,-6.49501 -13.04231,-28.96124 -9.72551,-41.9807 5.33187,-54.6996 46.54035,-96.28023 59.98984,-148.34486 6.70417,-33.47012 -11.46793,-52.49618 -24.2904,-82.23217 -1.78792,-36.06549 24.54729,-64.11743 35.93551,-96.402078 6.18429,-14.654761 5.83246,-31.10881 -1.61824,-45.137576 -0.46561,-0.603656 -0.94087,-1.207209 -1.42796,-1.792791 z"
     id="path142"
     inkscape:connector-curvature="0"
     style="fill:#debc85;stroke-width:0.50770003" />
  <path
     d="m 251.29624,231.28368 c 1.26879,24.10255 4.44735,49.56675 -5.03618,72.47417 -4.28524,7.57844 -10.78,16.40988 -14.16128,22.82619 6.17617,-13.7546 18.88797,-25.10931 18.82146,-41.17447 2.88013,-17.92688 0.73388,-36.1066 0.3761,-54.12589 z"
     id="path144"
     inkscape:connector-curvature="0"
     style="fill:#debc85;stroke-width:0.50770003" />
  <path
     d="m 243.02073,320.76255 c -13.58098,16.5363 -24.12032,35.82738 -29.32628,56.64409 1.91348,-9.71179 5.00303,-19.24843 10.07582,-27.7062 4.81696,-10.59164 11.42731,-20.33846 19.25046,-28.93687 z"
     id="path146"
     inkscape:connector-curvature="0"
     style="fill:#debc85;stroke-width:0.50770003" />
  <path
     d="m 214.1326,363.3989 c -7.73582,12.48129 -17.50549,25.0291 -17.69334,40.4119 -0.54842,4.64119 -2.54135,19.68404 -1.32302,6.88035 0.40276,-15.76408 6.4158,-31.04636 16.27788,-43.27279 0.88431,-1.08537 0.90512,-3.93661 2.73848,-4.01957 z"
     id="path148"
     inkscape:connector-curvature="0"
     style="fill:#debc85;stroke-width:0.50770003" />
  <path
     d="m 259.41944,249.75888 c 1.18898,-13.96073 -4.13319,-27.14418 -12.68082,-37.76019 -6.4417,-13.29767 -11.82789,-27.70772 -12.54629,-42.5351 1.10039,9.6204 2.98711,19.05499 6.49044,28.09612 4.3384,12.62903 13.83483,22.88762 17.76442,35.58723 1.21351,5.43086 1.69897,11.0775 0.97225,16.61194 z"
     id="path150"
     inkscape:connector-curvature="0"
     style="fill:#debc85;stroke-width:0.50770003" />
  <path
     d="m 250.58546,131.91156 c -18.05534,15.98138 -21.23404,42.03806 -19.32611,64.77744 -2.6246,-22.70637 0.77206,-49.2139 19.32611,-64.77744 z"
     id="path152"
     inkscape:connector-curvature="0"
     style="fill:#debc85;stroke-width:0.50770003" />
  <g
     id="g160"
     transform="matrix(-0.54343,-0.11253,-0.11253,0.54343,-374.49204,90.644551)">
    <path
       inkscape:connector-curvature="0"
       style="fill:url(#linearGradient1339)"
       id="path156"
       d="m -1154.8,255.79 c -2.7813,-12.2 -16.725,-41.062 -32.828,-59.713 -19.587,-22.686 -50.993,-48.865 -88.871,-74.08 -36.691,-24.424 -64.914,-44.523 -82.113,-58.478 -43.932,-35.643 -70.169,-74.07 -75.331,-110.33 -1.8933,-13.3 -1.0254,-23.808 1.5833,-26.97 0.6362,-0.77111 0.8594,0.79054 0.4972,3.4702 -1.5597,11.508 2.1964,29.446 7.0193,41.737 14.976,38.163 145,61.236 207.59,102.66 60.805,40.241 3.833,84.508 28.47,112.54 20.75,23.612 38.447,54.72 38.326,67.367 -0.033,3.4568 -0.3149,3.8837 -0.892,1.3518 l -5e-4,7e-5 v -1e-5 l -3.4547,0.44094 z" />
    <path
       inkscape:connector-curvature="0"
       style="fill:url(#linearGradient1341)"
       id="path158"
       d="m -1420.5,-14.44 c -11.872,3.6939 62.965,154.48 109.23,194.24 49.441,41.492 82.343,0.2037 111.88,2.3456 1.017,-2.5627 5.3003,2.8204 6.7504,0.58343 -21.201,-14.869 -49.44,-40.984 -77.372,-64.297 -57.497,-35.337 -100.84,-82.026 -144.62,-129.96 -2.8177,-2.3579 -4.744,-3.2548 -5.8603,-2.9075 z" />
  </g>
  <g
     id="g166"
     transform="matrix(0.4879,0.1404,-0.1404,0.4879,970.85799,524.69555)">
    <path
       inkscape:connector-curvature="0"
       style="fill:url(#linearGradient1343)"
       id="path162"
       d="m -1371.1,-852 c -0.4599,-0.10625 -0.3693,1.3131 0.25,3.4688 3.0389,10.58 3.2776,36.781 0.4375,48.969 -8.8188,37.843 -112.41,75.986 -165.44,123.41 -51.517,46.068 -7.233,81.083 -26.5,110.75 -5.3064,8.1708 -10.167,17.056 -14.281,25.719 0.8679,0.77238 1.8848,1.4078 3.0313,1.875 0.2781,0.11335 0.5593,0.22256 0.8437,0.3125 3.3472,-6.6509 6.978,-13.15 10.625,-18.875 15.264,-23.96 41.116,-52.821 73.188,-81.656 31.067,-27.932 54.78,-50.651 69,-66.094 36.321,-39.445 55.687,-79.07 55.562,-113.78 -0.046,-12.733 -3.5889,-31.329 -6.4687,-33.938 -0.088,-0.0795 -0.1843,-0.14107 -0.25,-0.15625 z"
       transform="translate(0,308.27)" />
    <path
       inkscape:connector-curvature="0"
       style="fill:url(#linearGradient1345)"
       id="path164"
       d="m -1372.5,-477.45 c 11.641,1.8385 -42.222,148.71 -80.168,192.33 -40.687,45.685 -72.875,16.272 -100.28,22.325 -1.3048,-2.2642 -1.919,0.55484 -3.5855,-1.3445 17.848,-16.849 42.655,-42.153 65.658,-67.843 49.086,-41.016 78.78,-90.98 113.28,-141.93 2.3197,-2.5973 4.0036,-3.7023 5.098,-3.5294 z" />
  </g>
  <path
     style="fill:#006e29"
     inkscape:connector-curvature="0"
     id="path168"
     d="m 260.91796,83.589551 c -2.019,2.7139 -5.4738,4.8717 -8.6395,5.3961 -6.2574,1.0366 -12.374,-2.2323 -15.488,-8.2768 -1.0312,-2.0019 -1.7454,-4.7806 -1.7928,-6.9755 -0.18521,-8.5715 5.919,-15.191 13.099,-14.204 2.1066,0.28953 3.7354,1.0345 5.3131,2.4301 2.7886,2.4667 4.0361,5.931 3.406,9.4582 -0.24126,1.3503 -1.0444,3.3789 -1.3693,3.4585 -0.0811,0.0199 0.0657,-0.40302 0.32635,-0.93983 0.5771,-1.1885 0.97002,-3.1038 0.90356,-4.4046 -0.0679,-1.3293 -0.76735,-3.5943 -1.4458,-4.6817 -1.9256,-2.9988 -4.7444,-3.4219 -6.962,-2.4746 -8.6043,3.6753 -2.6922,22.322 10.99,19.949 l 0.55396,-0.74525 0.64184,0.40793 c 1.0646,0.67664 1.0892,0.76141 0.46348,1.6024 z" />
  <path
     inkscape:connector-curvature="0"
     style="fill:url(#w)"
     id="path170"
     d="m 261.48796,85.766551 c -2.5863,3.2046 -6.9557,5.7942 -10.927,6.4761 -7.8491,1.3478 -15.425,-2.3191 -19.183,-9.2846 -1.2444,-2.3069 -2.0749,-5.5252 -2.0846,-8.0792 -0.0381,-9.9731 7.7454,-17.816 16.702,-16.83 2.628,0.28946 4.6482,1.1198 6.5898,2.7087 3.4318,2.8083 4.9138,6.8126 4.0462,10.933 -0.33214,1.5772 -1.3824,3.9566 -1.7905,4.0566 -0.10195,0.025 0.0913,-0.4706 0.42936,-1.1013 0.7486,-1.3965 1.2832,-3.6347 1.2294,-5.1474 -0.0549,-1.5458 -0.87853,-4.1665 -1.7025,-5.4169 -2.3404,-3.4471 -5.8562,-3.876 -8.6509,-2.7233 -10.844,4.4723 -3.8709,26.044 13.295,22.973 l 0.70962,-0.88003 0.79354,0.46038 c 1.3162,0.76358 1.3449,0.8617 0.54344,1.8547 z" />
  <path
     style="opacity:0.4;fill:#2e3436"
     inkscape:connector-curvature="0"
     id="path172"
     d="m 249.77796,284.32555 -4.5693,3.9347 -5.7116,6.7271 c 0,0 1.5231,-4.3155 1.9039,-4.8232 0.3808,-0.5077 3.3001,-3.5539 3.3001,-3.5539 l 5.077,-2.2847 z" />
  <g
     id="g178"
     transform="matrix(0.50356,-0.06474,0.06474,0.50356,1061.998,180.95555)">
    <path
       inkscape:connector-curvature="0"
       style="fill:url(#linearGradient1347)"
       id="path174"
       d="m -1618.7,2.156 c -1.0462,-13.19 -11.912,-49.478 -25.911,-71.453 -17.028,-26.73 -45.89,-58.92 -81.669,-91.089 -34.659,-31.162 -61.118,-56.503 -76.982,-73.732 -40.521,-44.006 -62.103,-88.222 -61.964,-126.95 0.051,-14.206 4.0093,-34.962 7.2221,-37.872 0.7834,-0.70963 0.7784,0.95846 -0.01,3.7069 -3.3902,11.803 -3.6456,41.041 -0.4771,54.637 9.8384,42.219 125.4,84.759 184.56,137.66 57.473,51.395 8.0652,90.474 29.56,123.57 18.103,27.875 34.323,63.444 32.263,76.658 -0.5629,3.6119 -3.3776,3.6999 -3.5947,0.96251 h -5e-4 l 3.3814,-1.3476 -6.3777,5.24 z" />
    <path
       inkscape:connector-curvature="0"
       style="fill:url(#linearGradient1349)"
       id="path176"
       d="m -1856.1,-325.15 c -12.987,2.0511 47.104,165.9 89.438,214.56 45.391,50.968 81.301,18.153 111.87,24.906 1.4557,-2.526 2.141,0.619 4,-1.5 -19.911,-18.797 -47.587,-47.027 -73.25,-75.688 -54.761,-45.758 -87.889,-101.5 -126.38,-158.34 -2.588,-2.8976 -4.4665,-4.1304 -5.6875,-3.9375 z" />
  </g>
  <path
     style="opacity:0.4;fill:#2e3436"
     inkscape:connector-curvature="0"
     id="path180"
     d="m 235.64796,192.07455 -7.5161,4.026 -3.9475,0.44455 c 0,0 -0.7422,-2.1445 -0.12956,-2.3102 2.177,-0.58864 0.80171,0.81174 5.26,-1.3806 5.3336,-2.6228 5.1217,-2.3389 5.1217,-2.3389 l 1.2114,1.5592 z" />
  <path
     d="m 391.23339,244.30415 c 6.0362,3.3434 -51.602,76.866 -81.217,93.263 -31.537,16.985 -44.771,-9.1554 -61.062,-11.315 -0.26429,-1.5071 -3.1977,0.93626 -3.734,-0.44256 13.195,-5.6945 31.479,-16.709 49.282,-26.235 35.223,-12.733 64.032,-33.228 93.219,-54.351 1.7966,-0.96428 2.9443,-1.2349 3.5119,-0.92056 z"
     id="path204"
     style="fill:url(#v)"
     inkscape:connector-curvature="0" />
  <g
     id="g895"
     transform="translate(584.87009,256.61592)">
    <path
       id="path2"
       d="m -110.55124,-5.1473564 a 223.93057,223.92931 0 1 1 -447.85594,0 223.93057,223.92931 0 1 1 447.85594,0 z"
       style="fill:none;stroke:#ff0000;stroke-width:52.92053986"
       inkscape:connector-curvature="0" />
    <path
       id="path4"
       d="m -501.3167,-171.98581 333.68439,333.68439"
       style="fill:none;stroke:#ff0000;stroke-width:50.07794952"
       inkscape:connector-curvature="0" />
  </g>
</svg>
