<?xml version="1.0" encoding="UTF-8" standalone="no"?>
<svg
   xmlns:dc="http://purl.org/dc/elements/1.1/"
   xmlns:cc="http://creativecommons.org/ns#"
   xmlns:rdf="http://www.w3.org/1999/02/22-rdf-syntax-ns#"
   xmlns:svg="http://www.w3.org/2000/svg"
   xmlns="http://www.w3.org/2000/svg"
   xmlns:sodipodi="http://sodipodi.sourceforge.net/DTD/sodipodi-0.dtd"
   xmlns:inkscape="http://www.inkscape.org/namespaces/inkscape"
   width="39.299034mm"
   height="56.517235mm"
   version="1.1"
   id="svg24"
   sodipodi:docname="rock01.svg"
   inkscape:version="0.92.4 (f8dce91, 2019-08-02)">
  <metadata
     id="metadata30">
    <rdf:RDF>
      <cc:Work
         rdf:about="">
        <dc:format>image/svg+xml</dc:format>
        <dc:type
           rdf:resource="http://purl.org/dc/dcmitype/StillImage" />
        <dc:title></dc:title>
      </cc:Work>
    </rdf:RDF>
  </metadata>
  <defs
     id="defs28" />
  <sodipodi:namedview
     pagecolor="#ffffff"
     bordercolor="#666666"
     borderopacity="1"
     objecttolerance="10"
     gridtolerance="10"
     guidetolerance="10"
     inkscape:pageopacity="0"
     inkscape:pageshadow="2"
     inkscape:window-width="1296"
     inkscape:window-height="704"
     id="namedview26"
     showgrid="false"
     inkscape:zoom="0.44840528"
     inkscape:cx="187.78338"
     inkscape:cy="103.44728"
     inkscape:window-x="70"
     inkscape:window-y="27"
     inkscape:window-maximized="1"
     inkscape:current-layer="svg24" />
  <g
     id="g20"
     transform="matrix(0.49829,0,0,0.49829,2174.633,807.00133)">
    <path
       style="color:#000000;fill:#422211;stroke:#160c07;stroke-width:18.9829998;stroke-linecap:round;stroke-linejoin:round"
       inkscape:connector-curvature="0"
       id="path14"
       d="m -4075.6,-1301.4 c 0,55.809 -62.477,101.05 -139.55,101.05 -77.069,0 -139.55,-45.242 -139.55,-101.05 0,-55.808 58.352,-308.65 135.42,-308.65 45.196,0 25.551,119.39 87.345,181.13 25.686,25.663 56.326,104.44 56.326,127.52 z" />
    <path
       style="color:#000000;opacity:0.64982001;fill:#733e21"
       inkscape:connector-curvature="0"
       id="path16"
       d="m -4123.2,-1362.1 c -2.1494,-1.0711 -5.907,-4.05 -8.7764,-6.9578 -6.4623,-6.5484 -17.048,-13.476 -31.54,-20.641 -16.161,-7.9894 -30.126,-12.602 -47.311,-15.626 -12.51,-2.2014 -21.334,-2.8521 -38.674,-2.8521 -15.232,0 -16.406,-0.096 -21.608,-1.7591 -14.83,-4.7422 -24.384,-13.722 -29.056,-27.31 -1.2897,-3.7513 -3.0231,-11.484 -5.6905,-25.386 l -1.4511,-7.5634 6.0231,-16.352 c 18.19,-49.385 36.04,-81.728 55.442,-100.46 9.2126,-8.8948 18.492,-13.672 26.554,-13.672 11.868,0 16.982,9.9353 26.937,52.328 10.164,43.282 14.823,59.206 22.51,76.933 8.9487,20.637 16.561,32.313 32.028,49.126 6.9103,7.5117 14.298,18.52 21.29,31.725 5.1329,9.6935 12.319,24.905 12.319,26.077 0,0.3001 -1.8642,1.3822 -4.1427,2.4048 -5.4965,2.4667 -9.8825,2.4625 -14.852,-0.014 z" />
    <path
       style="color:#000000;opacity:0.64982001;fill:#944e28"
       inkscape:connector-curvature="0"
       id="path18"
       d="m -4180,-1443.5 c -3.1026,-0.7197 -18.968,-5.0918 -35.257,-9.7157 -16.289,-4.6238 -31.704,-8.6107 -34.256,-8.8596 -14.337,-1.3984 -26.601,-8.0803 -32.897,-17.924 -3.22,-5.0336 -5.6921,-11.799 -7.2671,-19.887 -2.1374,-10.976 -2.1114,-11.184 2.7896,-22.212 12.474,-28.068 25.614,-49.227 39.098,-62.96 10.358,-10.549 19.574,-15.663 28.224,-15.663 5.6138,0 8.147,1.5645 12.133,7.4938 5.1848,7.7123 8.4609,18.503 17.527,57.732 8.3278,36.032 14.863,55.7 25.36,76.326 4.2891,8.428 4.3719,8.6956 3.4889,11.282 -1.4796,4.3341 -3.8062,5.8337 -8.9343,5.7587 -2.4025,-0.034 -6.9064,-0.6523 -10.009,-1.372 z" />
  </g>
</svg>
